<svg xmlns="http://www.w3.org/2000/svg" viewBox="0 0 51.55 65.15"><defs><style>.cls-1{fill:#115f32;}.cls-2{fill:#cbbd9e;}.cls-3{fill:#1b914d;}.cls-4{fill:#726a59;}.cls-5{fill:#ecdcb8;}.cls-6{fill:#775029;}.cls-7{fill:#bb8044;}.cls-8{fill:#936434;}.cls-9{fill:#14723c;}.cls-10{fill:#b8ac8f;}.cls-11{fill:#986736;}.cls-12{fill:#d7924e;}.cls-13{fill:#b1a58a;}.cls-14{fill:#d7c8a7;}</style></defs><title>agriculture</title><g id="Layer_2" data-name="Layer 2"><g id="Layer_1-2" data-name="Layer 1"><path class="cls-1" d="M13.65,21.15v-.9a1.89,1.89,0,0,1,.5-1.3L26,5a1.39,1.39,0,0,1,.7-.5L36.2.1,37.5,0a1.89,1.89,0,0,1,1.15.75L48,13.55l-1.4,1.6v-.1L37,1.9,27.5,6.25l-11.85,14v.05l-2,.85"/><path class="cls-2" d="M15.65,20.3v-.05L25.2,16.1l9.3,13v15.2L15.65,35.5V20.3m7,37.05L20.55,56.3l-.2-.15V50.2l4.3,1.9v6.25l-2-1M35.25,63.2,34.5,48l12-14.05.05.1,3,12.3L35.25,63.2"/><path class="cls-3" d="M37,1.9l9.55,13.15-12,14L25.2,16.1,37,1.9"/><path class="cls-4" d="M48,13.55l.25.35a2,2,0,0,1,.35,1.15V28l-2,2.3V15.15l1.4-1.6m.6,18.15v1.95l3,12.2v.9l-.4.85L36.8,64.5a2.11,2.11,0,0,1-1.1.65l-1.3-.1L11.55,54.45a2.18,2.18,0,0,1-1-1,2.15,2.15,0,0,1-.15-1.35l3.2-13.25v-.55l2,.9L12.4,52.6l10.2,4.75,2,1V58.3l10.6,4.9L49.6,46.3,46.6,34l1.95-2.3m-34.9,2.85V21.15l2-.85V35.5l-2-1"/><path class="cls-5" d="M15.65,39.25v-.1L34.5,48l.75,15.25-10.6-4.9V52.1l-4.3-1.9v5.95l.2.15,2.05,1.05L12.4,52.6l3.25-13.35"/><path class="cls-6" d="M15.65,39.25l-2-.9v-3.8l2,1v3.75M48.55,28v3.7L46.6,34l-.05-.1V30.3l2-2.3"/><path class="cls-7" d="M15.65,39.15V35.5L34.5,44.25V48l-18.85-8.8"/><path class="cls-8" d="M34.5,48v-3.7l12-13.95v3.6L34.5,48"/><path class="cls-9" d="M15.65,20.25l11.85-14L37,1.9,25.2,16.1l-9.55,4.15"/><path class="cls-10" d="M46.55,15.05V30.3l-12,14V29.05l12-14"/><path class="cls-6" d="M44.6,26.8,46,25.05,41.2,18.9,26.75,23.7,25.2,25.45l-.85-1.1v-2L9.85,4.25l-4.8,1.5L3.75,7.3.5,8V8l3.05-3.5a1.64,1.64,0,0,1,.9-.6l4.8-1.5a1.89,1.89,0,0,1,1.2,0l1,.65L26,21.15l.3.6L40.6,17a1.89,1.89,0,0,1,1.2,0,1.73,1.73,0,0,1,1,.7l4.8,6.15A2.05,2.05,0,0,1,48,25.1a1.92,1.92,0,0,1-.45,1.25l-1.7,2.1L44.6,26.8m-9.2,6.35L47.6,48.5a2.05,2.05,0,0,1,.4,1.25A1.92,1.92,0,0,1,47.55,51l-1.3,1.6L45,51.05h0l1-1.3-14-17.6,3.35,1m-13,4.75-.3-.45.1-.1.2.55M.1,33.45a1.65,1.65,0,0,1,.45-.8L3.6,29.4l.85-.55L12.9,26l3.35,1L5.05,30.75,3.65,32.3.1,33.45m25.1-2.7.95,1.1-2.25,2.8-.15-2,1.45-1.9"/><path class="cls-11" d="M25.2,30.75l-1.45,1.9L23.6,30.9l.85-1.1.75.95M3.75,7.3l1.3-1.55,4.8-1.5L8,6.35l-4.25,1m20.6,15.1v2l-2.9,3.3V25.9l1.45-1.75,1.45-1.75m.85,3.05,1.55-1.75L41.2,18.9l-1.45,1.75L25.2,25.45M16.25,27l1.05.8L3.6,32.35l0-.05,1.4-1.55L16.25,27"/><path class="cls-12" d="M9.85,4.25,24.35,22.4,22.9,24.15,8,6.35l1.85-2.1m14.5,20.1.85,1.1-.1.2L23.9,27v2l.55.8-.85,1.1-2.5-2.85.35-.4,2.9-3.3M41.2,18.9,46,25.05,44.6,26.8l-4.85-6.15L41.2,18.9m-11.55,14,2.4-.75v0l14,17.6-1,1.3L29.65,32.85"/><path class="cls-13" d="M23.9,27l1.2-1.35.1-.2,14.55-4.8L38.3,22.4,23.9,27m2.25,4.85.15.2.85.45L26.3,34l-2.4.65,2.25-2.8M8,6.35,6.8,7.75,4.4,8.5l-.6.2-.45.15L2,9.25,3.75,7.3,8,6.35M17.3,27.8l.45.3-1.3,1.35L2,34l.1,0,1.5-1.6L17.3,27.8"/><path class="cls-14" d="M43.15,28.55,38.3,22.4l1.45-1.75L44.6,26.8l-1.45,1.75m-16,3.95,1.55.65.95-.3L45,51.05h0l-1.7,2.15-.1.1L28.7,35.1,26.3,34l.85-1.5M6.8,7.75,8,6.35l14.9,17.8L21.45,25.9,6.8,7.75m11,20.35.25.15.3.15.75.35,2.05-.7,2.5,2.85.15,1.75-2.3,2.9v-2l-2.4-3-2.6-1.05,1.3-1.35"/><path class="cls-5" d="M38.3,22.4l4.85,6.15L32.05,32.1l-2.4.75-.95.3-1.55-.65-.85-.45-.15-.2-.95-1.1-.75-.95L23.9,29V27l14.4-4.6M6.8,7.75,21.45,25.9v1.75l-.35.4-2.05.7-.75-.35-.3-.15-.25-.15-.45-.3L16.25,27,2.05,9.3l0-.05,1.35-.4L3.8,8.7l.6-.2,2.4-.75m9.65,21.7,2.6,1.05,2.4,3v2L6.8,40.15,2,34l14.45-4.55M43.15,53.3,38.3,54.85,23.9,36.65v-2L26.3,34l2.4,1.1L43.15,53.3"/><path class="cls-4" d="M43.15,53.3l.1-.1L45,51.05l1.3,1.55L44.7,54.55l-.2.25-.75.4L38.9,56.75l-1.15,0-1-.7L22.35,37.9l-.2-.55-.1.1L7.4,42.05a1.89,1.89,0,0,1-1.2,0l-1-.65L.45,35.25l-.35-.7L0,33.9l.1-.45L3.65,32.3l0,.05L2.1,34,2,34l4.8,6.15,14.65-4.6,2.3-2.9.15,2v2l14.4,18.2,4.85-1.55M.5,8l3.25-.7L2,9.25l0,.05L16.25,27,12.9,26,.45,10.5.1,9.9,0,9.2A1.64,1.64,0,0,1,.5,8M44.6,26.8l1.25,1.65-1.15,1.4-.3.3-.65.3-8.35,2.7-3.35-1v0l11.1-3.55L44.6,26.8"/></g></g></svg>