<svg xmlns="http://www.w3.org/2000/svg" viewBox="0 0 20.9 42.39"><defs><style>.cls-1{fill:#593269;}.cls-2{fill:#c16ee2;}.cls-3{fill:#79468e;}.cls-4{fill:#ecdcb8;}.cls-5{fill:#9b59b6;}</style></defs><title>extraterrestrial</title><g id="Layer_2" data-name="Layer 2"><g id="Layer_1-2" data-name="Layer 1"><path class="cls-1" d="M1.65,2.64,15,0A1.76,1.76,0,0,1,16.3.29a1.88,1.88,0,0,1,.9,1.1l3.6,11,.1.6V34.69a2,2,0,0,1-.45,1.3,2.21,2.21,0,0,1-1.25.7l-4.95.75v2.3a2.05,2.05,0,0,1-.4,1.25,2.42,2.42,0,0,1-1.1.7l-2.7.7L8.7,42.24a1.91,1.91,0,0,1-.95-1L6.6,38.79l0-.15-1.1.2a1.87,1.87,0,0,1-1.35-.3,1.86,1.86,0,0,1-.85-1.1L.1,26.84l-.1-.6V4.59A1.92,1.92,0,0,1,.45,3.34a1.74,1.74,0,0,1,1.2-.7M18.9,12.94,15.3,2,2,4.59V26.24l3.15,10.6,3.25-.5v1.6l1.15,2.5,2.7-.7v-4l6.65-1.05V12.94"/><path class="cls-2" d="M18.9,12.94,5.15,15.29,2,4.59,15.3,2l3.6,11"/><path class="cls-3" d="M2,4.59l3.15,10.7V36.84L2,26.24V4.59"/><path class="cls-4" d="M12.25,35.74v4l-2.7.7L8.4,37.94v-1.6l3.85-.6"/><path class="cls-5" d="M12.25,35.74l-3.85.6-3.25.5V15.29L18.9,12.94V34.69l-6.65,1.05"/></g></g></svg>