<svg xmlns="http://www.w3.org/2000/svg" viewBox="0 0 27.61 28.55"><defs><style>.cls-1{fill:#d5e5e5;}.cls-2{fill:#727979;}.cls-3{fill:#3090d0;}.cls-4{fill:#1f5e87;}.cls-5{fill:#3aacf7;}.cls-6{fill:#e9fafa;}.cls-7{fill:#b9c6c6;}</style></defs><title>fuel</title><g id="Layer_2" data-name="Layer 2"><g id="Layer_1-2" data-name="Layer 1"><path class="cls-1" d="M14.36,23.75l-3.1-5.65,3.15-3.7,3.15,5.65v.05l-3.2,3.65M12,6.05l1.05-1.3L16.41,2,13,6.05H12m10.55-1.3,3.05,5.9-3.05,3.6L19.41,8.6l-.05,0,3.2-3.8m-15.4,7.1H8l-2.9,3.4L2,18.1l5.15-6.25"/><path class="cls-2" d="M7.16,11.85,2,18.1l3.1,5.65,6.15,2.8,3.1-2.8,3.2-3.65,1,1.85-2.65,3.1-.2.2-3.1,2.8a2.06,2.06,0,0,1-1,.5l-1.1-.15L4.31,25.6l-.95-.9L.26,19.05A2,2,0,0,1,0,17.9a1.72,1.72,0,0,1,.45-1l4.15-5H7.16M16.41,2l-3.35,2.8L12,6.05H9.41l2.1-2.55.3-.25L15.16.45a1.5,1.5,0,0,1,1-.45l1.1.15L23.41,3l.95.9,3.05,5.9.2,1.15-.45,1-3.65,4.2-1-1.85,0-.05,3.05-3.6-3.05-5.9L16.41,2"/><path class="cls-3" d="M12,6.05h1l-5,5.8H7.16L12,6.05m10.55,8.2,0,.05-5,5.75L14.41,14.4l4.95-5.85.05,0,3.15,5.65"/><path class="cls-4" d="M22.51,14.3l1,1.85-5,5.8-1-1.85v-.05l5-5.75M9.41,6.05H12l-4.85,5.8H4.61l4.8-5.8"/><path class="cls-5" d="M8,11.85l5-5.8h0l6.35,2.5L14.41,14.4,8,11.85"/><path class="cls-6" d="M8,11.85l6.4,2.55-3.15,3.7L5.11,15.25,8,11.85m5-5.8L16.41,2l6.15,2.8-3.2,3.8L13,6.05h0"/><path class="cls-7" d="M14.36,23.75l-3.1,2.8-6.15-2.8L2,18.1l3.1-2.85,6.15,2.85,3.1,5.65"/></g></g></svg>