<svg xmlns="http://www.w3.org/2000/svg" viewBox="0 0 34.04 28.05"><defs><style>.cls-1{fill:#197e44;}.cls-2{fill:#464646;}.cls-3{fill:#2abf69;}.cls-4{fill:#4d4d4d;}.cls-5{fill:#353535;}.cls-6{fill:#219853;}</style></defs><title>military</title><g id="Layer_2" data-name="Layer 2"><g id="Layer_1-2" data-name="Layer 1"><path class="cls-1" d="M.13,14.2l.35-.55L11.23.9a1.87,1.87,0,0,1,1-.65l1.2.1,1.95.8.4-.5A2.11,2.11,0,0,1,16.93,0l1.25.15,7.75,3.7.85.75.3,1.05,1.25.65.8.7.3.75L32.88,9.3a1.52,1.52,0,0,1,.5.35L32,11.25V11.1L28.38,9.45l-.95,1V8.05l-2.35-1.2V5.65L17.33,2,16,3.5,12.73,2.2,2,15,2,15l-1.9-.8M17.38,25.9l-.65-.75-.85-1.75-4.15-1.95L11,22.3,9.83,23l-.3.05-1-.3L6.73,21.65,6,20.9l-.1-.3V18.45l1.25.5.6-.65v1.6l1.8.9L11.18,19l6.2,2.9v4"/><path class="cls-2" d="M2,15,2,15l.6.3L2,15m30-3.9v.15L29.38,14.4,32,11.1"/><path class="cls-3" d="M32,11.1l-2.65,3.3-7.9,9.5-4.1-2L27.43,10.45l.95-1L32,11.1M2,15,12.73,2.2,16,3.5,12.33,7.65V10.1l1.85.8,1.1-1.45,1.8.85L9.53,19v1.8l-1.8-.9V18.3l.6-.55,4.35-4.9L9,11.1l-1.8,4L6,16.65l-3.4-1.4L2,15m23.1-8.1,2.35,1.2-7.2,8.3C18.6,15.58,17,14.8,15.33,14l1.55-1.8,3.35,1.55,4.85-5.7V6.85m-2.15-1L19.78,9.5,14.63,7.2l3.15-3.65,5.15,2.3"/><path class="cls-4" d="M2,15l.55.25L6,16.65l1.25-1.6V17.2l1.1.55-.6.55-.6.65-1.25-.5L3.08,17.3,2,15m27.35-.6L32,11.25l-.45,4.35L22.63,26.1l-4.1-1.85L17.38,21.9l4.1,2,7.9-9.5"/><path class="cls-5" d="M.13,14.2,2,15l1.05,2.3,2.8,1.15V20.6L2.33,19.15a2,2,0,0,1-1-1L.18,15.8A1.77,1.77,0,0,1,0,14.7l.1-.5M32,11.25l1.35-1.6.4.45A2.15,2.15,0,0,1,34,11.3l-.45,4.5-.45,1.1-9,10.5-1.1.65L21.83,28l-4.1-1.85-.35-.2v-4l1.15,2.35,4.1,1.85,9-10.5L32,11.25"/><path class="cls-6" d="M16,3.5,17.33,2l7.75,3.7v2.4l-4.85,5.7L16.88,12.2,15.33,14c1.63.8,3.27,1.58,4.9,2.35l7.2-8.3v2.4l-10,11.45L11.18,19,9.53,20.8V19l7.55-8.7-1.8-.85-1.1,1.45-1.85-.8V7.65L16,3.5M7.23,15.05l1.8-4,3.65,1.75-4.35,4.9-1.1-.55V15.05m15.7-9.2-5.15-2.3L14.63,7.2l5.15,2.3,3.15-3.65"/></g></g></svg>