<svg xmlns="http://www.w3.org/2000/svg" viewBox="0 0 27.9 30.8"><defs><style>.cls-1{fill:#9c4f32;}.cls-2{fill:#333;}.cls-3{fill:#bb5f3c;}.cls-4{fill:#ec7c51;}.cls-5{fill:#bbe4f3;}.cls-6{fill:#c4f0ff;}.cls-7{fill:#d26f49;}</style></defs><title>noise</title><g id="Layer_2" data-name="Layer 2"><g id="Layer_1-2" data-name="Layer 1"><path class="cls-1" d="M11.85,28.85l1.55-1.8c0,.57.17.92.4,1.05s.63.08,1-.35l1-1.75a6.48,6.48,0,0,0,.4-2.15V23.8l5.35-6.2c0,.6.18,1,.45,1.15s.58.05.95-.35a5.09,5.09,0,0,0,1-1.8,6.48,6.48,0,0,0,.4-2.15v-.1l1.55-1.8V6.85L16,2l-3,2.85L11.2,4,7.1,8.8,6.1,14,2,18.55V24.1l9.85,4.75m16-22v5.7a2,2,0,0,1-.45,1.3l-1.1,1.3-.5,2.1a6.8,6.8,0,0,1-1.4,2.5q-1.65,1.8-3,1.05L18.2,24.6l-.5,2v.1l-1.35,2.3-.05.05c-1,1.2-2,1.57-3,1.1l-1.1.6L11,30.65,1.15,25.9a1.89,1.89,0,0,1-.85-.75,2,2,0,0,1-.3-1V18.55a1.89,1.89,0,0,1,.5-1.3l3.75-4.2.9-4.6A2,2,0,0,1,5.6,7.5L9.7,2.7a1.87,1.87,0,0,1,1.1-.65l1.25.15.5.25L14.6.5A1.63,1.63,0,0,1,15.65,0l1.2.15,10,4.9.8.75.3,1"/><path class="cls-2" d="M24.35,14.35v.1A6.48,6.48,0,0,1,24,16.6a5.09,5.09,0,0,1-1,1.8c-.37.4-.68.52-.95.35s-.42-.55-.45-1.15v-.1A6.3,6.3,0,0,1,22,15.3,5.73,5.73,0,0,1,23,13.55c.4-.4.73-.52,1-.35s.4.55.4,1.15M16.2,23.8v.05A6.48,6.48,0,0,1,15.8,26l-1,1.75c-.37.43-.7.55-1,.35s-.37-.48-.4-1.05v-.2a6.48,6.48,0,0,1,.4-2.15,5.53,5.53,0,0,1,1-1.75c.37-.4.7-.52,1-.35s.4.57.4,1.2"/><path class="cls-3" d="M16.2,23.8c0-.63-.13-1-.4-1.2s-.63-.05-1,.35a5.53,5.53,0,0,0-1,1.75,6.48,6.48,0,0,0-.4,2.15v.2l-1.55,1.8V23.4L16,18.8l3.4-3.4V11.15l2.1-2.45L23,9.6l2.9-2.75v5.7l-1.55,1.8c0-.6-.13-1-.4-1.15s-.6,0-1,.35A5.73,5.73,0,0,0,22,15.3a6.3,6.3,0,0,0-.45,2.2v.1L16.2,23.8"/><path class="cls-4" d="M2,18.55,6.1,14,16,18.8l-4.1,4.6L2,18.55M7.1,8.8,11.2,4l1.7.8L16,2l10,4.9L23,9.6l-1.55-.9-2.1,2.45-2.15,2.4L7.1,8.8"/><path class="cls-5" d="M19.35,11.15V15.4L16,18.8l1.25-5.25,2.15-2.4"/><path class="cls-6" d="M6.1,14l1-5.15,10.1,4.75L16,18.8,6.1,14"/><path class="cls-7" d="M11.85,28.85,2,24.1V18.55l9.85,4.85v5.45"/></g></g></svg>