<svg xmlns="http://www.w3.org/2000/svg" viewBox="0 0 36.85 41.3"><defs><style>.cls-1{fill:#1a5577;}.cls-2{fill:#bb8044;}.cls-3{fill:#23719f;}.cls-4{fill:#2f95d0;}</style></defs><title>relaxing</title><g id="Layer_2" data-name="Layer 2"><g id="Layer_1-2" data-name="Layer 1"><path class="cls-1" d="M.3,20.85,10.6,3.6V2.55a2,2,0,0,1,.4-1.2,1.75,1.75,0,0,1,1.1-.7L14.45,0l1.3.05.95.9.95,1.7.25,1v.1l9.15,9.8.3.4,9.3,17.5.2,1.15-.45,1.1-.95.65L29.6,36.05l-1.3,0a1.94,1.94,0,0,1-1-.85l-1-1.6v2a2.07,2.07,0,0,1-1.45,2l-2.4.7-1.35-.1a2.14,2.14,0,0,1-1-.95l-.2-.45-.8,1.8-.5.65-.75.45L12,41.3l-1.35-.1a1.89,1.89,0,0,1-1-.9L.25,22.8,0,21.8a1.69,1.69,0,0,1,.3-.95"/><path class="cls-2" d="M15.9,4.45v.8L14.7,4,13.55,6l-1-1.8V2.55L15,1.9l1,1.7v.85m6.75,13.4.7-.2.95,1.75V21l-2.4.7L21,19.9V18.3l.75-.2.9-.25M21,29.25V29.2l2.1-4.7,1.2,1.95V35.5l-2.4.7L21,34.4V29.25"/><path class="cls-3" d="M14.7,4l1.2,1.25v-.8l9.65,10.4,9.3,17.5L24.3,21V19.4l-.95-1.75-.7.2-.45.1L14.7,4"/><path class="cls-4" d="M14.7,4l7.5,14-.45.15-.75.2v1.6l.9,1.8,2.4-.7L34.85,32.35,29,34.1l-4.7-7.6v-.05L23.1,24.5,21,29.2v.05L17.25,37.6l-5.9,1.75L2,21.85,12.6,4.15l1,1.8L14.7,4"/></g></g></svg>