<svg xmlns="http://www.w3.org/2000/svg" viewBox="0 0 74.65 75.1"><defs><style>.cls-1{fill:#b9c6c6;}.cls-2{fill:#6d3a27;}.cls-3{fill:#727979;}.cls-4{fill:#c9d7d7;}.cls-5{fill:#bb6444;}.cls-6{fill:#aa5b3e;}.cls-7{fill:#99a3a3;}.cls-8{fill:#e27952;}.cls-9{fill:#985137;}.cls-10{fill:#d4714d;}.cls-11{fill:#f5f7de;}</style></defs><title>social</title><g id="Layer_2" data-name="Layer 2"><g id="Layer_1-2" data-name="Layer 1"><path class="cls-1" d="M20.5,37.4a3.4,3.4,0,0,0-3.2,0A2.9,2.9,0,0,0,16,40.1a6.84,6.84,0,0,0,1.3,3.8,7.56,7.56,0,0,0,3.2,2.75,3.48,3.48,0,0,0,3.15,0A3,3,0,0,0,25,44a6.53,6.53,0,0,0-1.35-3.8A7.22,7.22,0,0,0,20.5,37.4M61.55,65l-11.2-5.2V44.55l11.2,5.2V65m-22.5,8.15L24.8,66.5V57.9l-9-3.9v8.3L2,55.85V40.6h0l9.15-2.05v-9l4.4,2.15.9.4,13.25,6.1v9L39.05,58v15.2M21.7,14l3.85-5.8L26.7,16.4,21.7,14M6.9,45.45v8.3l4.25,2V47.4h0a3.31,3.31,0,0,0-.65-1.75,3.4,3.4,0,0,0-1.5-1.3,1.71,1.71,0,0,0-1.5,0A1.35,1.35,0,0,0,7,45.5l0,0m23.5,9.4A1.35,1.35,0,0,0,29.8,56l-.05,0v8.3l4.25,2V57.9h0a3.31,3.31,0,0,0-.65-1.75,3.4,3.4,0,0,0-1.5-1.3,1.71,1.71,0,0,0-1.5,0"/><path class="cls-2" d="M2,40.6l-2,.45V40.6a1.82,1.82,0,0,1,.5-1.25l9.05-10.9L23.9,7.05a1.73,1.73,0,0,1,1-.75l1.25,0,1,.7.35.5L29.75,4.8a1.75,1.75,0,0,1,1.1-.7L49.3,0l1.05.05.9.6,18.2,21.1-1.25,1.6,0-.05L49.7,2,31.25,6.05l-3.85,4.6-1.85-2.5L21.7,14,11.2,29.55,2.05,40.6H2"/><path class="cls-3" d="M2,40.6V55.85L15.8,62.3l9,4.2,14.25,6.65L50.35,59.8,61.55,65l11.1-13V36.7L68.2,34.65V23.35l1.25-1.6.25.25.25.4,0,.1.2.9v10l3.3,1.5.85.75.3,1.05V52a2,2,0,0,1-.45,1.3l-11.1,13A2.11,2.11,0,0,1,62,67l-1.3-.1L50.9,62.3,40.6,74.45a2.11,2.11,0,0,1-1.1.65L38.2,75,1.15,57.65.35,57A1.89,1.89,0,0,1,0,55.85V41.05l2-.45"/><path class="cls-4" d="M6.9,45.45l0,0a1.35,1.35,0,0,1,.6-1.15,1.71,1.71,0,0,1,1.5,0,3.4,3.4,0,0,1,1.5,1.3,3.31,3.31,0,0,1,.65,1.75h0v8.35l-4.25-2v-8.3m23.5,9.4a1.71,1.71,0,0,1,1.5,0,3.4,3.4,0,0,1,1.5,1.3,3.31,3.31,0,0,1,.65,1.75h0v8.35l-4.25-2V56l.05,0a1.35,1.35,0,0,1,.6-1.15"/><path class="cls-5" d="M68.2,23.35v0l-6.55,8.15,0,.05L42.8,22.8l7.55,21.75L39.05,58,29.75,47.2l9.7-11.45v-9L29.75,38.2,26.7,16.4l3.05-2.65,4.7,6.3,5,6.7-3.9-8L49.7,2,68.15,23.3l0,.05m-15.85-6.6,2.45-3-2.6-3L49.7,13.7l2.65,3.05M50.4,24l3.2-3.95L50.2,16.1,46.9,20l3.5,4"/><path class="cls-6" d="M50.4,24l-3.5-4,3.3-3.9,3.4,3.95L50.4,24m2-7.25L49.7,13.7l2.5-2.95,2.6,3-2.45,3m-17.9,3.3,1.1-1.35,3.9,8.05-5-6.7"/><path class="cls-7" d="M68.2,23.4V34.65l4.45,2.05V52L61.55,65V49.75l5.65-15.6L64.6,33l-.75-.35-2.25-1,0-.05L68.2,23.4M50.35,59.8,39.05,73.15V58l11.3-13.4V59.8M24.8,66.5l-9-4.2V54l9,3.9v8.6m.75-58.35,1.85,2.5,2.35,3.1L26.7,16.4,25.55,8.15m4.2,30.05,9.7-11.45v9L29.75,47.2v-9"/><path class="cls-8" d="M29.75,38.2,16.5,32.1l-.9-.4-4.4-2.15L21.7,14l5,2.45,3.05,21.8M61.6,31.6l2.25,1,.75.35,2.6,1.2-5.65,15.6-11.2-5.2L42.8,22.8l18.8,8.8M21.3,24.5l-2.6-1.4-3.4,5,3.05,1.5,2.95-5.1"/><path class="cls-9" d="M2.05,40.6l9.15-11v9L2.05,40.6M27.4,10.65l3.85-4.6L49.7,2,35.55,18.7l-1.1,1.35-4.7-6.3-2.35-3.1"/><path class="cls-10" d="M21.3,24.5l-2.95,5.1L15.3,28.1l3.4-5,2.6,1.4"/><path class="cls-11" d="M20.5,37.4a7.22,7.22,0,0,1,3.15,2.75A6.53,6.53,0,0,1,25,44a3,3,0,0,1-1.35,2.7,3.48,3.48,0,0,1-3.15,0,7.56,7.56,0,0,1-3.2-2.75A6.84,6.84,0,0,1,16,40.1a2.9,2.9,0,0,1,1.3-2.7,3.4,3.4,0,0,1,3.2,0"/></g></g></svg>