<svg xmlns="http://www.w3.org/2000/svg" viewBox="0 0 50.71 61.3"><defs><style>.cls-1{fill:#5a6b6b;}.cls-2{fill:#a4afaf;}.cls-3{fill:#b5c2c2;}.cls-4{fill:#879393;}.cls-5{fill:#9aa0a7;}.cls-6{fill:#9fa5ad;}</style></defs><title>stone</title><g id="Layer_2" data-name="Layer 2"><g id="Layer_1-2" data-name="Layer 1"><path class="cls-1" d="M33.81,1.15,39,8.45l.25.55,11.4,35,.1,1-.45.9L37.81,60.6l-.75.55-.85.15-23.35-.7-.9-.25-.65-.6L.41,44.4a1.79,1.79,0,0,1-.4-1,1.65,1.65,0,0,1,.25-1l7.85-15.6.25-.4,4-4.7L16.41,5a1.5,1.5,0,0,1,.45-.8L19.71.75l.7-.55.85-.2,11,.3.9.25.7.6m3.5,8.45L32.16,2.3,21.21,2,18.36,5.4l-4.2,17.15-4.3,5.1L2,43.25,12.91,58.6l23.35.7L48.71,44.6l-11.4-35"/><path class="cls-2" d="M18.36,5.4,21.21,2l10.95.3,5.15,7.3-1.65,1.9L28.21,8.05,26.86,10.6,20.61,10,18.36,5.4M9.86,27.65l4.3-5.1,3.2,6.55,8.9.85-1.9,3.55-10.85-.75-3.65-5.1M28.51,32.4l12.65,5.85-7.1,8.45-18.7-.6L11,40l12.9,1,4.6-8.55"/><path class="cls-3" d="M28.51,32.4l-.05-5.95-.2-10.4-.05-8,7.45,3.45,3.2,19.8,2.3,7L28.51,32.4M20.61,10l6.25.65L26.26,30l-8.9-.85L20.61,10M36.26,59.3l-23.35-.7,2.45-12.5,18.7.6,2.2,12.6M24.36,33.5,23.91,41,11,40l2.5-7.25,10.85.75"/><path class="cls-4" d="M24.36,33.5,26.26,30l.6-19.35,1.35-2.55.05,8-.05,10.3.3,6L23.91,41l.45-7.45m-6-28.1L20.61,10,17.36,29.1l-3.2-6.55L18.36,5.4m17.3,6.1,1.65-1.9,11.4,35L36.26,59.3l-2.2-12.6,7.1-8.45-2.3-6.95-3.2-19.8M12.91,58.6,2,43.25l7.85-15.6,3.65,5.1L11,40l4.35,6.1L12.91,58.6"/><path class="cls-5" d="M28.46,26.45l.05,5.95-.3-6,.25.1"/><path class="cls-6" d="M28.46,26.45l-.25-.1.05-10.3.2,10.4"/></g></g></svg>