<svg xmlns="http://www.w3.org/2000/svg" viewBox="0 0 16.5 27.15"><defs><style>.cls-1{fill:#727979;}.cls-2{fill:#d5e5e5;}.cls-3{fill:#cad9d9;}.cls-4{fill:#b9c6c6;}.cls-5{fill:#ecbc00;}.cls-6{fill:#a6b1b1;}.cls-7{fill:#cba200;}.cls-8{fill:#fc0;}</style></defs><title>waste</title><g id="Layer_2" data-name="Layer 2"><g id="Layer_1-2" data-name="Layer 1"><path class="cls-1" d="M.5,5.4,4.2,1.05A1.8,1.8,0,0,1,5.4.4L7.8,0,9,.15,14.8,2.9l.65.5.45.75L16.45,6l.05.55V20.4a2,2,0,0,1-.45,1.3l-3.7,4.35a2.17,2.17,0,0,1-1.2.7l-2.35.4L7.6,27,1.7,24.25l-.65-.5L.65,23,.1,21.25l-.1-.6V6.7A1.89,1.89,0,0,1,.5,5.4m14,1.1L14,4.7,8.1,2l-2.4.4L2,6.7v14l.55,1.75,5.9,2.75,2.35-.4,3.7-4.35V6.5"/><path class="cls-2" d="M14.5,6.5l-3.7,4.35-2.35.4L2.55,8.5,2,6.7,5.7,2.35,8.1,2,14,4.7l.55,1.8"/><path class="cls-3" d="M10.8,24.75l-2.35.4V21.7l2.35-.45v3.5M8.45,11.25l2.35-.4V14.3l-2.35.4V11.25"/><path class="cls-4" d="M8.45,11.25V14.7L2.55,12,2,10.2V6.7l.55,1.8,5.9,2.75m0,13.9L2.55,22.4,2,20.65v-3.5L2.55,19l5.9,2.75v3.45"/><path class="cls-5" d="M2,17.15V10.2L2.55,12l5.9,2.75v7L2.55,19,2,17.15"/><path class="cls-6" d="M14.5,6.5V10L10.8,14.3V10.85L14.5,6.5m0,10.4v3.5l-3.7,4.35v-3.5l3.7-4.35"/><path class="cls-7" d="M14.5,10v7l-3.7,4.35V14.3L14.5,10"/><path class="cls-8" d="M8.45,14.7l2.35-.4v7l-2.35.45v-7"/></g></g></svg>