<svg xmlns="http://www.w3.org/2000/svg" viewBox="0 0 24.91 39.35"><defs><style>.cls-1{fill:#115f32;}.cls-2{fill:#10773c;}.cls-3{fill:#168344;}.cls-4{fill:#1b914d;}</style></defs><title>wood</title><g id="Layer_2" data-name="Layer 2"><g id="Layer_1-2" data-name="Layer 1"><path class="cls-1" d="M12.5,1.05,21.6,20.8l.15,1.05-.4.95-.4.4,1.2,3.2a1.85,1.85,0,0,1,0,1.35l2.3,2.8a2,2,0,0,1,.45,1.15,2.07,2.07,0,0,1-.3,1.2l-1,.75-14.1,5.6-1.3.1a2,2,0,0,1-1-.8L.4,29A1.77,1.77,0,0,1,0,27.8a2,2,0,0,1,.35-1.15l1.5-2.15L.75,22.9a1.73,1.73,0,0,1-.4-1.25,1.92,1.92,0,0,1,.5-1.2l1.95-2.2-.2-.7a1.54,1.54,0,0,1,.1-.95L8.8,1.15a1.82,1.82,0,0,1,1-1.1l1.5,0A2,2,0,0,1,12.5,1.05M4.3,24.5,2,27.8l6.8,9.6,1.5-.55-.05-.05,12.65-5-3.6-4.35.95-.35-1.85-5-.4.15,1.75-.7L10.65,1.85,4.55,17.3l.75,1.05.25.3h0l-.2-.3-2.95,3.4L4.3,24.5"/><path class="cls-2" d="M4.3,24.5,2.35,21.75l2.95-3.4.2.3h0L9.9,24.8v.05L9.25,31.4,4.3,24.5"/><path class="cls-3" d="M4.3,24.5l5,6.9.65-6.55V24.8L5.55,18.65l-.25-.3L4.55,17.3l6.1-15.45-.4,23.5L18,22.3l.4-.15,1.85,5-.95.35-9.7,3.8L8.8,37.4,2,27.8l2.3-3.3"/><path class="cls-4" d="M8.8,37.4l.8-6.15,9.7-3.8,3.6,4.35-12.65,5,.05.05-1.5.55M18,22.3l-7.75,3.05.4-23.5,9.1,19.75L18,22.3"/></g></g></svg>