<svg xmlns="http://www.w3.org/2000/svg" xmlns:xlink="http://www.w3.org/1999/xlink" viewBox="0 0 120 140"><defs><style>.cls-1{fill:#27ae60;}.cls-2{fill:url(#linear-gradient);}.cls-3{fill:url(#linear-gradient-2);}.cls-4{fill:url(#linear-gradient-3);}.cls-5{fill:url(#linear-gradient-4);}.cls-6{fill:url(#linear-gradient-5);}.cls-7{fill:url(#linear-gradient-6);}.cls-8{fill:url(#linear-gradient-7);}.cls-9{fill:url(#linear-gradient-8);}.cls-10{fill:url(#linear-gradient-9);}.cls-11{fill:url(#linear-gradient-10);}.cls-12{fill:url(#linear-gradient-11);}.cls-13{fill:url(#linear-gradient-12);}.cls-14{fill:url(#linear-gradient-13);}.cls-15{fill:url(#linear-gradient-14);}.cls-16{fill:url(#linear-gradient-15);}.cls-17{fill:#bb8044;}.cls-18{fill:#c68a4e;}.cls-19{fill:#aa753e;}.cls-20{fill:#464646;}.cls-21{fill:#8c8c8c;}.cls-22{fill:#5d5d5d;}.cls-23{fill:#9c5338;}.cls-24{fill:#7b7b7b;}.cls-25{fill:#666;}.cls-26{fill:#353535;}.cls-27{fill:#5b5b5b;}.cls-28{fill:#703b27;}.cls-29{fill:#bb6444;}.cls-30{fill:#d2704c;}.cls-31{fill:#959595;}.cls-32{fill:#a6a6a6;}.cls-33{fill:#ffb700;}.cls-34{fill:#ff8c00;}.cls-35{fill:#ffad00;}.cls-36{fill:#115f32;}.cls-37{fill:#10773c;}.cls-38{fill:#168344;}.cls-39{fill:#1b914d;}.cls-40{fill:#775029;}.cls-41{fill:#936434;}.cls-42{fill:#136d3a;}.cls-43{fill:#178044;}.cls-44{fill:#726a59;}.cls-45{fill:#cbbd9e;}.cls-46{fill:#aa9e85;}.cls-47{fill:#ecdcb8;}.cls-48{fill:#191919;}.cls-48,.cls-49{fill-opacity:0.5;}.cls-49{fill:#434343;}</style><linearGradient id="linear-gradient" x1="-1859.2" y1="49.53" x2="-220.8" y2="49.53" gradientTransform="matrix(0, 0, 0, 0, 12.18, 44.55)" gradientUnits="userSpaceOnUse"><stop offset="0" stop-color="#27ae60"/><stop offset="1" stop-color="#30c26d"/></linearGradient><linearGradient id="linear-gradient-2" x1="-1859.2" y1="26.2" x2="-220.8" y2="26.2" gradientTransform="matrix(0, 0, 0, 0, 56.87, 22.06)" xlink:href="#linear-gradient"/><linearGradient id="linear-gradient-3" x1="-1859.2" y1="37.67" x2="-220.8" y2="37.67" gradientTransform="matrix(0, 0, 0, 0, 45.68, 32.57)" xlink:href="#linear-gradient"/><linearGradient id="linear-gradient-4" x1="-1859.2" y1="54.17" x2="-220.8" y2="54.17" gradientTransform="matrix(0, 0, 0, 0, 37.97, 50.01)" xlink:href="#linear-gradient"/><linearGradient id="linear-gradient-5" x1="-1859.2" y1="48.03" x2="-220.8" y2="48.03" gradientTransform="matrix(0, 0, 0, 0, 60.83, 43.05)" xlink:href="#linear-gradient"/><linearGradient id="linear-gradient-6" x1="-1859.2" y1="30.38" x2="-220.8" y2="30.38" gradientTransform="matrix(0, 0, 0, 0, 90.87, 26.21)" xlink:href="#linear-gradient"/><linearGradient id="linear-gradient-7" x1="-1859.2" y1="98.08" x2="-220.8" y2="98.08" gradientTransform="matrix(0, 0, 0, 0, 106.37, 93.91)" xlink:href="#linear-gradient"/><linearGradient id="linear-gradient-8" x1="-1859.2" y1="89.17" x2="-220.8" y2="89.17" gradientTransform="matrix(0, 0, 0, 0, 70.47, 85.01)" xlink:href="#linear-gradient"/><linearGradient id="linear-gradient-9" x1="-1859.2" y1="81.92" x2="-220.8" y2="81.92" gradientTransform="matrix(0, 0, 0, 0, 83.97, 77.76)" xlink:href="#linear-gradient"/><linearGradient id="linear-gradient-10" x1="-1859.2" y1="106.58" x2="-220.8" y2="106.58" gradientTransform="matrix(0, 0, 0, 0, 56.68, 101.6)" xlink:href="#linear-gradient"/><linearGradient id="linear-gradient-11" x1="-1859.2" y1="119.17" x2="-220.8" y2="119.17" gradientTransform="matrix(0, 0, 0, 0, 57.87, 115.01)" xlink:href="#linear-gradient"/><linearGradient id="linear-gradient-12" x1="-1859.2" y1="121.33" x2="-220.8" y2="121.33" gradientTransform="matrix(0, 0, 0, 0, 72.28, 116.35)" xlink:href="#linear-gradient"/><linearGradient id="linear-gradient-13" x1="-1859.2" y1="62.42" x2="-220.8" y2="62.42" gradientTransform="matrix(0, 0, 0, 0, 25.52, 58.26)" xlink:href="#linear-gradient"/><linearGradient id="linear-gradient-14" x1="-1859.2" y1="102.17" x2="-220.8" y2="102.17" gradientTransform="matrix(0, 0, 0, 0, 14.43, 97.2)" xlink:href="#linear-gradient"/><linearGradient id="linear-gradient-15" x1="-1859.2" y1="116.92" x2="-220.8" y2="116.92" gradientTransform="matrix(0, 0, 0, 0, 44.68, 111.95)" xlink:href="#linear-gradient"/></defs><title>Asset 128</title><g id="Layer_2" data-name="Layer 2"><g id="Layer_1-2" data-name="Layer 1"><path class="cls-1" d="M11.85,45.7a.3.3,0,0,0-.25-.15l-.25,0-.25.15-.1.25-.35,3.5L9,49.75l-.25.1,0,.1-.05.2v.25h.05l1.45,3.15h6l1.6-1,.15-.15,0-.15,0-.3-.3-.25-1.5-.4,1.2-3.15v-.35l-.05,0-.2-.2h-.35l-2.8,1-2-2.85m45.7-22.8-.3.15-.15.25-.8,4.1L55.05,27l-.3.05-.25.2v.45l.7,1.8h4.85l.9-3.1v-.35l-.25-.2h-.35L59,26.4l-1-3.15L57.85,23l-.3-.1m-8.7,10.9-.25-.15h-.25l-.25.15-2,2.85-2.85-1H43l-.2.2,0,0v.35L44,39.35l-1.55.45-.25.2-.1.35.1.1.1.15,1.6,1.1h6l1.45-3.15.05,0,0-.25-.1-.15,0-.1L51,37.85l-1.65-.3-.4-3.5-.1-.25M38.55,51.25l-1,3.15-1.35-.55h-.35L35.6,54v0a.42.42,0,0,0-.05.35l1,3.05h4.85l.7-1.8V55.2L41.8,55h-.3l-1.25.4-.85-4.15L39.25,51,39,50.9l-.3.1a.3.3,0,0,0-.15.25m18.7-2.6v.25h0l1.45,3.15h6l1.6-1,.15-.15,0-.15,0-.3-.3-.25-1.5-.4,1.2-3.15v-.35l-.05,0-.2-.2H65.3l-2.8,1-2-2.85-.25-.15L60,44l-.25.15-.1.25-.35,3.5-1.7.35-.25.1-.05.1,0,.2M91.6,27.2l-.15.25-1,3.15-1.35-.55h-.35a.3.3,0,0,0-.25.15v.05a.42.42,0,0,0,0,.35l1,3h4.85l.7-1.8V31.4l-.25-.2h-.3l-1.25.4-.85-4.15-.15-.25-.25-.1-.3.1M120,35v70L60,140,0,105V35L60,0l60,35M107,95.15l-1,3.15-1.35-.55h-.35l-.25.15v0l0,.35,1,3h4.85l.7-1.8V99.1l-.25-.2h-.3l-1.25.4-.85-4.15-.15-.25-.25-.1-.3.1a.3.3,0,0,0-.15.25M71.75,86l-.25-.1-.3.1-.15.25-1,3.15-1.35-.55h-.35a.3.3,0,0,0-.25.15v0a.42.42,0,0,0,0,.35l1,3h4.85l.7-1.8V90.2L74.3,90H74l-1.25.4-.85-4.15L71.75,86m11.8-3.85L82.2,81.6h-.35a.3.3,0,0,0-.25.15v0l0,.35,1,3h4.85l.7-1.8V83l-.25-.2h-.3l-1.25.4L85.4,79l-.15-.25-.25-.1-.3.1-.15.25-1,3.15m-22,22.4h-.35l-2.8,1-2-2.85a.3.3,0,0,0-.25-.15l-.25,0-.25.15-.1.25-.35,3.5-1.7.35-.25.1-.05.1,0,.2v.25h0l1.45,3.15h6l1.6-1,.15-.15,0-.15,0-.3-.3-.25-1.5-.4,1.2-3.15v-.35l0,0-.2-.2M61.4,120l-1.25.4-.85-4.15-.15-.25-.25-.1-.3.1-.15.25-1,3.15-1.35-.55h-.35a.3.3,0,0,0-.25.15v0a.42.42,0,0,0,0,.35l.95,3h4.85l.7-1.8v-.45l-.25-.2h-.3m15.95-.1v-.35l0,0-.2-.2h-.35l-2.8,1-2-2.85-.25-.15-.25,0-.25.15-.1.25-.35,3.5-1.7.35-.25.1,0,.1,0,.2v.25h0l1.45,3.15h6l1.6-1,.15-.15,0-.15,0-.3-.3-.25-1.5-.4,1.2-3.15M29.05,63.25l-1.25.4L27,59.5l-.15-.25-.25-.1-.3.1-.15.25-1,3.15-1.35-.55H23.4l-.25.15v0l0,.35.95,3.05H28.9l.7-1.8v-.45l-.25-.2h-.3m-9.6,37.1-.2-.2H18.9l-2.8,1-2-2.85a.3.3,0,0,0-.25-.15l-.25,0-.25.15-.1.25-.35,3.5-1.7.35-.25.1,0,.1-.05.2v.25h.05l1.45,3.15h6l1.6-1,.15-.15,0-.15,0-.3-.3-.25-1.5-.4,1.2-3.15v-.35l-.05-.05m24.9,12.75a.3.3,0,0,0-.25-.15l-.25,0-.25.15-.1.25-.35,3.5-1.7.35-.25.1-.05.1,0,.2v.25h0L42.6,121h6l1.6-1,.15-.15,0-.15,0-.3-.3-.25-1.5-.4,1.2-3.15v-.35l0-.05-.2-.2h-.35l-2.8,1-2-2.85"/><path class="cls-2" d="M11.85,45.7l2,2.85,2.8-1H17l.2.2.05,0v.35l-1.2,3.15,1.5.4.3.25,0,.3,0,.15-.15.15-1.6,1h-6L8.65,50.4H8.6v-.25l.05-.2,0-.1.25-.1,1.7-.35L11,45.9l.1-.25.25-.15.25,0a.3.3,0,0,1,.25.15"/><path class="cls-3" d="M57.55,22.9l.3.1.15.25,1,3.15,1.4-.55h.35l.25.2v.35l-.9,3.1H55.2l-.7-1.8v-.45l.25-.2.3-.05,1.25.4.8-4.1.15-.25.3-.15"/><path class="cls-4" d="M48.85,33.8l.1.25.4,3.5,1.65.3.25.15,0,.1.1.15,0,.25-.05,0L49.85,41.7h-6l-1.6-1.1-.1-.15-.1-.1.1-.35.25-.2L44,39.35l-1.25-3.1V35.9l0,0,.2-.2h.35l2.85,1,2-2.85.25-.15h.25l.25.15"/><path class="cls-5" d="M38.55,51.25A.3.3,0,0,1,38.7,51l.3-.1.25.1.15.25.85,4.15L41.5,55h.3l.25.2v.45l-.7,1.8H36.5l-1-3.05a.42.42,0,0,1,.05-.35v0l.25-.15h.35l1.35.55,1-3.15"/><path class="cls-6" d="M57.25,48.65l0-.2.05-.1.25-.1,1.7-.35.35-3.5.1-.25L60,44l.25,0,.25.15,2,2.85,2.8-1h.35l.2.2.05,0v.35l-1.2,3.15,1.5.4.3.25,0,.3,0,.15-.15.15-1.6,1h-6L57.3,48.9h0v-.25"/><path class="cls-7" d="M91.6,27.2l.3-.1.25.1.15.25.85,4.15,1.25-.4h.3l.25.2v.45l-.7,1.8H89.4l-1-3a.42.42,0,0,1,0-.35V30.2a.3.3,0,0,1,.25-.15h.35l1.35.55,1-3.15.15-.25"/><path class="cls-8" d="M107,95.15a.3.3,0,0,1,.15-.25l.3-.1.25.1.15.25.85,4.15,1.25-.4h.3l.25.2v.45l-.7,1.8H104.9l-1-3,0-.35v0l.25-.15h.35l1.35.55,1-3.15"/><path class="cls-9" d="M71.75,86l.15.25.85,4.15L74,90h.3l.25.2v.45l-.7,1.8H69l-1-3a.42.42,0,0,1,0-.35v0a.3.3,0,0,1,.25-.15h.35l1.35.55,1-3.15L71.2,86l.3-.1.25.1"/><path class="cls-10" d="M83.55,82.15l1-3.15.15-.25.3-.1.25.1.15.25.85,4.15,1.25-.4h.3l.25.2v.45l-.7,1.8H82.5l-1-3,0-.35v0a.3.3,0,0,1,.25-.15h.35l1.35.55"/><path class="cls-11" d="M61.5,104.55l.2.2,0,0v.35l-1.2,3.15,1.5.4.3.25,0,.3,0,.15-.15.15-1.6,1h-6l-1.45-3.15h0v-.25l0-.2.05-.1.25-.1,1.7-.35.35-3.5.1-.25.25-.15.25,0a.3.3,0,0,1,.25.15l2,2.85,2.8-1h.35"/><path class="cls-12" d="M61.4,120h.3l.25.2v.45l-.7,1.8H56.4l-.95-3a.42.42,0,0,1,0-.35v0a.3.3,0,0,1,.25-.15h.35l1.35.55,1-3.15.15-.25.3-.1.25.1.15.25.85,4.15,1.25-.4"/><path class="cls-13" d="M77.35,119.9l-1.2,3.15,1.5.4.3.25,0,.3,0,.15-.15.15-1.6,1h-6l-1.45-3.15h0V122l0-.2,0-.1.25-.1,1.7-.35.35-3.5.1-.25.25-.15.25,0,.25.15,2,2.85,2.8-1h.35l.2.2,0,0v.35"/><path class="cls-14" d="M29.05,63.25h.3l.25.2v.45l-.7,1.8H24.05l-.95-3.05,0-.35v0l.25-.15h.35l1.35.55,1-3.15.15-.25.3-.1.25.1.15.25.85,4.15,1.25-.4"/><path class="cls-15" d="M19.45,100.35l.05.05v.35l-1.2,3.15,1.5.4.3.25,0,.3,0,.15-.15.15-1.6,1h-6l-1.45-3.15h-.05v-.25l.05-.2,0-.1.25-.1,1.7-.35.35-3.5.1-.25.25-.15.25,0a.3.3,0,0,1,.25.15l2,2.85,2.8-1h.35l.2.2"/><path class="cls-16" d="M44.35,113.1l2,2.85,2.8-1h.35l.2.2,0,.05v.35l-1.2,3.15,1.5.4.3.25,0,.3,0,.15-.15.15-1.6,1h-6l-1.45-3.15h0v-.25l0-.2.05-.1.25-.1,1.7-.35.35-3.5.1-.25.25-.15.25,0a.3.3,0,0,1,.25.15"/><path class="cls-17" d="M17,45a3.8,3.8,0,0,1,1.55-1.6l8-4.65h6.2L34.65,34l5-2.9H42.7l1.35-2.55,13.8-8.1A3.9,3.9,0,0,1,60,19.75a4.14,4.14,0,0,1,2.2.65L81,31.35,82.6,34.2h3.3l15.65,9.15A4.26,4.26,0,0,1,103.1,45a4.07,4.07,0,0,1,.55,2.1V64.3l-2.1,3.3,2.1,3.1V92.9a4.36,4.36,0,0,1-.55,2.15,4.75,4.75,0,0,1-1.55,1.6L81.3,108.5,77.2,108l-3.1,4.75-11.9,7a4.63,4.63,0,0,1-2.2.55,4.36,4.36,0,0,1-2.15-.55l-39.35-23A4.18,4.18,0,0,1,17,95.05a4.11,4.11,0,0,1-.6-2.15V84.75l2.45-3-2.45-4.6V47.05A3.84,3.84,0,0,1,17,45"/><path class="cls-18" d="M64.6,40.35l.7,4.35L61,45.4l-.7-4.35,4.35-.7M90.6,72l-1.25,2.9-2.9-1.2,1.2-3L90.6,72M36.9,67,40,73.9l-6.85,3-3-6.9,6.8-3"/><path class="cls-19" d="M68.1,40.75l.85-7,7.1.8-.8,7-7.15-.8M82.2,93.4,76.05,91l2.45-6.15,6.15,2.45L82.2,93.4m6.7-14.05h4.6V83.9H89l0-4.55M44.05,62.2l2.55,3.25-3.2,2.6L40.8,64.8l3.25-2.6M36.9,60.75l-3.85,2.8L30.3,59.8,34.05,57l2.85,3.75M21.2,71.4l2-.9.85,2-2,1-.85-2.1"/><path class="cls-20" d="M28.4,51,26.5,45.3l-.05-1a2,2,0,0,1,.45-.95l7.85-9.2.2-.3a1.86,1.86,0,0,1,1.1-.85l1.4.1,10.1,4.8.45.25,2,1.65.65,1,0,1.15L48.15,49.7v2.35l-2,1.4V49.4l2.55-8-2-1.65L36.6,34.9l-.35.55-5.85,7-2,2.2,2.35,7L29.2,53.45,28.4,51"/><path class="cls-21" d="M30.4,42.45l5.85-7,.35-.55,10.1,4.8-6.25,7.5L30.4,42.45m3.1-.6,6.2,2.95,3.85-4.55-6.2-3L33.5,41.85"/><path class="cls-22" d="M28.4,51l.8,2.5L26.55,52.3,23.8,53l-.35.55L19.4,58.3l-2,2.4v1.65l4.25,1.8v2.3l-2-1-3-1.3-.9-.75a1.89,1.89,0,0,1-.35-1.1V60.7a1.89,1.89,0,0,1,.5-1.3L22,52.25l.2-.3a1.81,1.81,0,0,1,1.15-.9l2.75-.7,1.3.15,1,.45"/><path class="cls-23" d="M29.2,53.45l1.55-1.85.15.35v4l-8.6,6.1-.7.35.55-.55.15-.15.15-.25.1-.1,2.3-2.7,4.35-5.2m26.25,3.3V67.9l-13,15.55V72.3l13-15.55"/><path class="cls-24" d="M30.75,51.6l-2.35-7L40.85,50.5l-.55,9.9L30.9,56V52l-.15-.35"/><path class="cls-25" d="M28.4,44.65l2-2.2L40.45,47.2l.4,3.3,7.85-9.15-2.55,8v4.05L40.3,60.4l.55-9.9L28.4,44.65"/><path class="cls-26" d="M33.5,41.85l3.85-4.55,6.2,3L39.7,44.8l-6.2-2.95"/><path class="cls-27" d="M46.7,39.7l2,1.65L40.85,50.5l-.4-3.3,6.25-7.5"/><path class="cls-28" d="M46.15,53.45l2-1.4,8,2.85,1,.7a2,2,0,0,1,.35,1.15V67.9L57,69.2l-13,15.55a2.11,2.11,0,0,1-1.1.65l-1.3-.15-20.9-9.9-.85-.7a2.09,2.09,0,0,1-.3-1.1v-8l2,1v7.1l20.9,9.9,13-15.55V56.75l-9.3-3.3"/><path class="cls-29" d="M46.15,53.45l9.3,3.3L42.5,72.3V83.45l-20.9-9.9V62.4l20.9,9.9L40.3,60.4l5.85-6.95M37.2,78.6l2.15,1V73.05L24.5,66.15v6.5l1.95.9,10.75,5"/><path class="cls-30" d="M40.3,60.4l2.2,11.9L21.6,62.4l.7-.35L30.9,56l9.4,4.45"/><path class="cls-31" d="M22.3,61.7l-2.9-1.35V58.3l4.05-4.75L23.8,53l2.75-.7-4.4,5.1,2.7,1.25-2.3,2.7-.1.1-.15.25m-4.95-1,4.25,1.95v1.5l-4.25-1.8V60.7"/><path class="cls-32" d="M17.35,60.7l2-2.4v2.05l2.9,1.35-.15.15-.55.55v.25L17.35,60.7m9.2-8.4,2.65,1.15-4.35,5.2-2.7-1.25,4.4-5.1"/><path class="cls-33" d="M26.45,73.55l-1.95-.9v-6.5l14.85,6.9V79.6l-2.15-1,0-.9a5.93,5.93,0,0,0-1.8-4.35,6.16,6.16,0,0,0-8.8,0l-.2.2"/><path class="cls-34" d="M26.45,73.55l.2-.2a6.16,6.16,0,0,1,8.8,0,5.93,5.93,0,0,1,1.8,4.35l0,.9-10.75-5"/><path class="cls-35" d="M35.4,65l.5,2.15-2,.5-.6-2L35.4,65m-4.1,1.4-1.15,1.1L29,66.3l1.15-1.15,1.15,1.2"/><path class="cls-36" d="M94.85,27A2,2,0,0,1,96,28l9.1,19.75.15,1-.4,1-.4.4,1.2,3.2a1.85,1.85,0,0,1,0,1.35l2.3,2.8a2,2,0,0,1,.45,1.15,2.07,2.07,0,0,1-.3,1.2l-.95.75-14.1,5.6-1.3.1a2,2,0,0,1-1-.8l-6.8-9.6a1.77,1.77,0,0,1-.4-1.15,2,2,0,0,1,.35-1.15l1.5-2.15-1.1-1.6a1.73,1.73,0,0,1-.4-1.25,1.92,1.92,0,0,1,.5-1.2l2-2.2-.2-.7a1.54,1.54,0,0,1,.1-1L92.3,28.1a1.82,1.82,0,0,1,1-1.1l1.5-.05m-6,18.35-3,3.4,2,2.75-2.3,3.3,6.8,9.6,1.5-.55,0,0,12.65-5-3.6-4.35,1-.35L101.9,49.1l-.4.15,1.75-.7L94.15,28.8l-6.1,15.45.75,1,.25.3h0l-.2-.3"/><path class="cls-37" d="M88.8,45.3l.2.3h0l4.35,6.15v0l-.65,6.55-5-6.9-2-2.75,3-3.4"/><path class="cls-38" d="M88.8,45.3l-.75-1,6.1-15.45-.4,23.5,7.75-3,.4-.15,1.85,4.95-1,.35-9.7,3.8-.8,6.15-6.8-9.6,2.3-3.3,5,6.9.65-6.55v0L89.05,45.6l-.25-.3"/><path class="cls-39" d="M94.15,28.8l9.1,19.75-1.75.7-7.75,3,.4-23.5m8.65,25.6,3.6,4.35-12.65,5,0,0-1.5.55.8-6.15,9.7-3.8"/><path class="cls-36" d="M42.65,75.6l6.75-15V55.9l.2-.8.3-.5L67.15,34.25a1.87,1.87,0,0,1,1.1-.65l1.25.15,27.35,13,.6.4L96,48.75V48.5l-27.35-13L51.4,55.9V61L44.45,76.45l-1.8-.85"/><path class="cls-40" d="M97.45,47.1l.25.35.3,1V67.6a2,2,0,0,1-.45,1.3l-3.7,4.4V70.2L96,67.6V48.75l1.45-1.65M81.55,87.8,80.3,89.25a2.11,2.11,0,0,1-1.1.65L78,89.8l-3-1.35V86.2L78.75,88l2.8-3.35v3.2"/><path class="cls-41" d="M96,48.5V67.6l-2.15,2.6v-15l-12.3,14.4V84.6L78.75,88V68.75L96,48.5"/><path class="cls-42" d="M96,48.5,73.75,39.85,51.4,55.9,68.65,35.55,96,48.5"/><path class="cls-43" d="M96,48.5,78.75,68.75l-5-28.9L96,48.5M57.3,78.9l-4.25-2,1.7-3.7,4.2,2L57.3,78.9m0-5.65-4.25-2,1.7-3.7,4.2,2L57.3,73.25"/><path class="cls-44" d="M93.85,73.3,81.55,87.8V84.6l4.85-5.7,3.95-4.6,3.5-4.1v3.1M75,88.45l-5-2.3-6.1,7.4a2.11,2.11,0,0,1-1.1.65l-1.3-.15-18-8.6a2,2,0,0,1-.85-.7,2.09,2.09,0,0,1-.3-1.1V76.6l.2-.8.1-.2,1.8.85-.1.15v7.05l17.95,8.6,7-8.6L75,86.2v2.25"/><path class="cls-45" d="M81.55,84.6V69.65l12.3-14.4v15l-3.5,4.1V65.6L86.4,70.35V78.9l-4.85,5.7m-12.2-.95-7,8.6v-7l7-15.6V83.65"/><path class="cls-46" d="M86.4,78.9V70.35l3.95-4.75v8.7L86.4,78.9"/><path class="cls-47" d="M51.4,61v-1L75,71.15v15l-5.6-2.55V69.6L51.4,61M62.3,92.25l-17.95-8.6V76.6L62.3,85.2v7"/><path class="cls-17" d="M51.4,60.05V55.9L78.75,68.75V88L75,86.2v-15L51.4,60.05"/><path class="cls-39" d="M44.45,76.45,51.4,61l17.95,8.6-7,15.6L44.35,76.6l.1-.15m12.85-3.2L59,69.6l-4.2-2-1.7,3.7,4.25,2m0,5.65L59,75.25l-4.2-2-1.7,3.7,4.25,2M78.75,68.75,51.4,55.9l22.35-16,5,28.9"/><path class="cls-20" d="M90.2,105.8l7.6-5.15V98.9l-1.55-1.35,2.25-3.8V92.4l-5.8-4.9L82.4,94.65V96l2.15,1.75.25.2.25.2-.85,1.4v1.55l6,4.7m10.3-12-.25,1-1.4,2.35.3.25.5.7.15.8v1.75l-.2.95-.65.7-7.6,5.15-.7.3-.5,0-.4,0a2.14,2.14,0,0,1-.75-.35l-6-4.7-.6-.7-.2-.9V99.55l.25-1-1.3-1-.55-.7L80.4,96V94.65a1.65,1.65,0,0,1,.25-.9l.6-.75,10.3-7.15a1.84,1.84,0,0,1,1.25-.35A1.92,1.92,0,0,1,94,86l5.8,4.9.55.65.15.85v1.35"/><path class="cls-25" d="M98.5,92.4v1.35l-2.25,3.8L97.8,98.9v1.75l-7.6,5.15v-1.55l1.55-3.6-1.1-.85-2.45.85V99.3l10.3-6.9"/><path class="cls-24" d="M90.2,105.8l-6-4.7V99.55l6,4.7v1.55m-5.15-7.65L84.8,98l-.25-.2L82.4,96V94.65l5.8,4.65v1.35L85.65,98.6l-.4-.25v0l-.1-.1-.1,0"/><path class="cls-21" d="M85.05,98.15l.1,0,.1.1v0l.4.25,2.55,2.05,2.45-.85,1.1.85-1.55,3.6-6-4.7.85-1.4m-2.65-3.5L92.7,87.5l5.8,4.9L88.2,99.3l-5.8-4.65"/><path class="cls-36" d="M6.7,91.2,4.4,94.5l6.8,9.6,1.5-.55,0,0,12.65-5-3.6-4.35.95-.35-1.85-5-.4.15,1.75-.7-9.1-19.75L7,84l.75,1,.25.3h0l-.2-.3-2.95,3.4,2,2.75m17.45-2.65-.4,1-.4.4,1.2,3.2a1.85,1.85,0,0,1,0,1.35l2.3,2.8a2,2,0,0,1,.45,1.15,2.07,2.07,0,0,1-.3,1.2l-.95.75L12,106l-1.3.1a2,2,0,0,1-1.05-.8l-6.8-9.6a1.77,1.77,0,0,1-.4-1.15,2,2,0,0,1,.35-1.15l1.5-2.15-1.1-1.6a1.73,1.73,0,0,1-.4-1.25,1.92,1.92,0,0,1,.5-1.2l2-2.2-.2-.7a1.54,1.54,0,0,1,.1-1l6.1-15.45a1.82,1.82,0,0,1,1.05-1.1l1.5,0a2,2,0,0,1,1.15,1L24,87.5l.15,1"/><path class="cls-38" d="M20.4,89l.4-.15,1.85,5-.95.35L12,98l-.8,6.15L4.4,94.5l2.3-3.3,5,6.9.65-6.55v0L8,85.35l-.25-.3L7,84l6.1-15.45-.4,23.5,7.75-3"/><path class="cls-39" d="M13.05,68.55l9.1,19.75L20.4,89l-7.75,3,.4-23.5m8.65,25.6,3.6,4.35-12.65,5,0,0-1.5.55L12,98l9.7-3.8"/><path class="cls-37" d="M6.7,91.2,4.75,88.45l3-3.4.2.3H8L12.3,91.5v0l-.65,6.55L6.7,91.2"/><path class="cls-36" d="M31.1,81.55l1.5,0a1.82,1.82,0,0,1,1,1.1L38,93.55l.15.9-.05.35,1.15,1.3a2,2,0,0,1,.45,1.2,1.84,1.84,0,0,1-.35,1.25l-.55.8.8,1.15a2,2,0,0,1,.35,1.15l-.35,1.15-4.8,6.75-1,.75a2.05,2.05,0,0,1-1.25,0L31.45,110l-.6-.3-8.35-3.3-.95-.75a1.77,1.77,0,0,1-.35-1.2,2,2,0,0,1,.45-1.15l1.45-1.75a1.87,1.87,0,0,1,.1-1l.7-1.85-.1-.1a1.84,1.84,0,0,1-.4-1,1.91,1.91,0,0,1,.2-1L30,82.6a1.81,1.81,0,0,1,1.1-1m.7,1.85L25.4,97.3l1.25.5-.3-.1-1.3,3.45.65.25-2.5,3.1,8.9,3.5-.05,0,1.05.35,4.8-6.75-1.6-2.3,1.35-1.95-2-2.4.5-.75L31.8,83.4m3.6,11.8.2-.2-.15.2H35.4"/><path class="cls-39" d="M35.4,95.2l-3,4.35v0l.45,4.6,3.5-4.85,1.6,2.3-4.8,6.75-.55-4.3-6.85-2.7-.65-.25,1.3-3.45.3.1L32.1,100,31.8,83.4l4.3,10.85-.5.75-.2.2"/><path class="cls-38" d="M35.4,95.2h.05l.15-.2,2,2.4L36.3,99.35l-3.5,4.85-.45-4.6v0l3-4.35m-8.75,2.6-1.25-.5,6.4-13.9L32.1,100,26.65,97.8m6.45,10.6-1.05-.35.05,0-8.9-3.5,2.5-3.1,6.85,2.7.55,4.3"/><path class="cls-48" d="M38.55,24.05A11.27,11.27,0,0,0,47.15,23l.35.5a12.09,12.09,0,0,1-6.8,3.2L40,26l-1.4-1.95M46.2,39.1a8.33,8.33,0,0,1-4.9-6.4l1-.6q3.6,5.4,12.3,6a9,9,0,0,1-5.1,1.5L46.2,39.1"/><path class="cls-49" d="M46.2,39.1l-.25.3a8.53,8.53,0,0,1-3.4,2.1L39.7,44.8l-6.15-2.9a3.17,3.17,0,0,1-.7-2,4.76,4.76,0,0,1,1.45-3.5l.2-.2-.15-1.65a6.83,6.83,0,0,1,6-6.75,3.83,3.83,0,0,1,.35-1.1,12.09,12.09,0,0,0,6.8-3.2l-.35-.5a11.27,11.27,0,0,1-8.6,1.05,6.77,6.77,0,0,1-.75-3.15A7,7,0,0,1,40,15.75a7.24,7.24,0,0,1,10.2,0A7,7,0,0,1,52.3,20.9v.35a9.51,9.51,0,0,1,6.55,9,9,9,0,0,1-2.75,6.6l-1.55,1.3q-8.7-.65-12.3-6l-1,.6a8.33,8.33,0,0,0,4.9,6.4"/></g></g></svg>