<svg xmlns="http://www.w3.org/2000/svg" xmlns:xlink="http://www.w3.org/1999/xlink" viewBox="0 0 120 140"><defs><style>.cls-1{fill:#27ae60;}.cls-2{fill:url(#linear-gradient);}.cls-3{fill:url(#linear-gradient-2);}.cls-4{fill:url(#linear-gradient-3);}.cls-5{fill:url(#linear-gradient-4);}.cls-6{fill:url(#linear-gradient-5);}.cls-7{fill:url(#linear-gradient-6);}.cls-8{fill:url(#linear-gradient-7);}.cls-9{fill:url(#linear-gradient-8);}.cls-10{fill:url(#linear-gradient-9);}.cls-11{fill:url(#linear-gradient-10);}.cls-12{fill:url(#linear-gradient-11);}.cls-13{fill:url(#linear-gradient-12);}.cls-14{fill:url(#linear-gradient-13);}.cls-15{fill:url(#linear-gradient-14);}.cls-16{fill:url(#linear-gradient-15);}.cls-17{fill:#bb8044;}.cls-18{fill:#115f32;}.cls-19{fill:#10773c;}.cls-20{fill:#168344;}.cls-21{fill:#1b914d;}.cls-22{fill:#727979;}.cls-23{fill:#434343;}.cls-24{fill:#b9c6c6;}.cls-25{fill:#178044;}.cls-26{fill:#775029;}.cls-27{fill:#936434;}.cls-28{fill:#cbbd9e;}.cls-29{fill:#b8ac8f;}.cls-30{fill:#726a59;}.cls-31{fill:#ecdcb8;}.cls-32{fill:#d5e5e5;}.cls-33{fill:#99a3a3;}</style><linearGradient id="linear-gradient" x1="-1599.2" y1="49.53" x2="39.2" y2="49.53" gradientTransform="matrix(0, 0, 0, 0, 12.18, 45.8)" gradientUnits="userSpaceOnUse"><stop offset="0" stop-color="#27ae60"/><stop offset="1" stop-color="#30c26d"/></linearGradient><linearGradient id="linear-gradient-2" x1="-1599.2" y1="26.2" x2="39.2" y2="26.2" gradientTransform="matrix(0, 0, 0, 0, 56.87, 23.09)" xlink:href="#linear-gradient"/><linearGradient id="linear-gradient-3" x1="-1599.2" y1="37.67" x2="39.2" y2="37.67" gradientTransform="matrix(0, 0, 0, 0, 45.68, 33.84)" xlink:href="#linear-gradient"/><linearGradient id="linear-gradient-4" x1="-1599.2" y1="54.17" x2="39.2" y2="54.17" gradientTransform="matrix(0, 0, 0, 0, 37.97, 51.04)" xlink:href="#linear-gradient"/><linearGradient id="linear-gradient-5" x1="-1599.2" y1="48.03" x2="39.2" y2="48.03" gradientTransform="matrix(0, 0, 0, 0, 60.83, 44.3)" xlink:href="#linear-gradient"/><linearGradient id="linear-gradient-6" x1="-1599.2" y1="30.38" x2="39.2" y2="30.38" gradientTransform="matrix(0, 0, 0, 0, 90.87, 27.24)" xlink:href="#linear-gradient"/><linearGradient id="linear-gradient-7" x1="-1599.2" y1="81.92" x2="39.2" y2="81.92" gradientTransform="matrix(0, 0, 0, 0, 83.97, 78.79)" xlink:href="#linear-gradient"/><linearGradient id="linear-gradient-8" x1="-1599.2" y1="98.08" x2="39.2" y2="98.08" gradientTransform="matrix(0, 0, 0, 0, 106.37, 94.94)" xlink:href="#linear-gradient"/><linearGradient id="linear-gradient-9" x1="-1599.2" y1="121.33" x2="39.2" y2="121.33" gradientTransform="matrix(0, 0, 0, 0, 72.28, 117.6)" xlink:href="#linear-gradient"/><linearGradient id="linear-gradient-10" x1="-1599.2" y1="89.17" x2="39.2" y2="89.17" gradientTransform="matrix(0, 0, 0, 0, 70.47, 86.04)" xlink:href="#linear-gradient"/><linearGradient id="linear-gradient-11" x1="-1599.2" y1="62.42" x2="39.2" y2="62.42" gradientTransform="matrix(0, 0, 0, 0, 25.52, 59.29)" xlink:href="#linear-gradient"/><linearGradient id="linear-gradient-12" x1="-1599.2" y1="102.17" x2="39.2" y2="102.17" gradientTransform="matrix(0, 0, 0, 0, 14.43, 98.45)" xlink:href="#linear-gradient"/><linearGradient id="linear-gradient-13" x1="-1599.2" y1="106.58" x2="39.2" y2="106.58" gradientTransform="matrix(0, 0, 0, 0, 56.68, 102.85)" xlink:href="#linear-gradient"/><linearGradient id="linear-gradient-14" x1="-1599.2" y1="119.17" x2="39.2" y2="119.17" gradientTransform="matrix(0, 0, 0, 0, 57.87, 116.04)" xlink:href="#linear-gradient"/><linearGradient id="linear-gradient-15" x1="-1599.2" y1="116.92" x2="39.2" y2="116.92" gradientTransform="matrix(0, 0, 0, 0, 44.68, 113.2)" xlink:href="#linear-gradient"/></defs><title>Asset 126</title><g id="Layer_2" data-name="Layer 2"><g id="Layer_1-2" data-name="Layer 1"><path class="cls-1" d="M43.6,113.05l-.1.25-.35,3.5-1.7.35-.25.1-.05.1,0,.2v.25h0L42.6,121h6l1.6-1,.15-.15,0-.15,0-.3-.3-.25-1.5-.4,1.2-3.15v-.35l0-.05-.2-.2h-.35l-2.8,1-2-2.85L44.1,113l-.25,0-.25.15M11.35,45.5l-.25.15-.1.25-.35,3.5L9,49.75l-.25.1,0,.1-.05.2v.25h.05l1.45,3.15h6l1.6-1,.15-.15,0-.15,0-.3-.3-.25-1.5-.4,1.2-3.15v-.35l-.05,0-.2-.2h-.35l-2.8,1-2-2.85a.3.3,0,0,0-.25-.15l-.25,0M55.05,27l-.3.05-.25.2v.45l.7,1.8h4.85l.9-3.1v-.35l-.25-.2h-.35L59,26.4l-1-3.15L57.85,23l-.3-.1-.3.15-.15.25-.8,4.1L55.05,27M48.1,33.8l-2,2.85-2.85-1H43l-.2.2,0,0v.35L44,39.35l-1.55.45-.25.2-.1.35.1.1.1.15,1.6,1.1h6l1.45-3.15.05,0,0-.25-.1-.15,0-.1L51,37.85l-1.65-.3-.4-3.5-.1-.25-.25-.15h-.25l-.25.15M39.25,51,39,50.9l-.3.1-.15.25-1,3.15-1.35-.55h-.35a.3.3,0,0,0-.25.15v0a.42.42,0,0,0-.05.35l1,3.05h4.85l.7-1.8V55.2L41.8,55h-.3l-1.25.4-.85-4.15L39.25,51M60.5,44.2l-.25-.15L60,44l-.25.15-.1.25-.35,3.5-1.7.35-.25.1-.05.1,0,.2v.25h0l1.45,3.15h6l1.6-1,.15-.15,0-.15,0-.3-.3-.25-1.5-.4,1.2-3.15v-.35l-.05,0-.2-.2H65.3l-2.8,1-2-2.85M60,0l60,35v70L60,140,0,105V35L60,0M91.9,27.1l-.3.1-.15.25-1,3.15-1.35-.55h-.35a.3.3,0,0,0-.25.15v.05l0,.35,1,3h4.85l.7-1.8V31.4l-.25-.2h-.3l-1.25.4-.85-4.15-.15-.25-.25-.1M85.25,78.75l-.25-.1-.3.1-.15.25-1,3.15L82.2,81.6h-.35l-.25.15v0l0,.35,1,3h4.85l.7-1.8V83l-.25-.2h-.3l-1.25.4L85.4,79l-.15-.25m19,19a.3.3,0,0,0-.25.15v0l0,.35,1,3h4.85l.7-1.8V99.1l-.25-.2h-.3l-1.25.4-.85-4.15-.15-.25-.25-.1-.3.1a.3.3,0,0,0-.15.25l-1,3.15-1.35-.55h-.35M77.1,119.3h-.35l-2.8,1-2-2.85-.25-.15-.25,0-.25.15-.1.25-.35,3.5-1.7.35-.25.1,0,.1,0,.2v.25h0l1.45,3.15h6l1.6-1,.15-.15,0-.15,0-.3-.3-.25-1.5-.4,1.2-3.15v-.35l0,0-.2-.2M68.35,88.85,68.1,89v0a.42.42,0,0,0,0,.35l1,3h4.85l.7-1.8V90.2L74.3,90H74l-1.25.4-.85-4.15L71.75,86l-.25-.1-.3.1-.15.25-1,3.15-1.35-.55h-.35M25.1,62.65l-1.35-.55H23.4a.3.3,0,0,0-.25.15v0l0,.35.95,3.05H28.9l.7-1.8v-.45l-.25-.2h-.3l-1.25.4L27,59.5l-.15-.25-.25-.1-.3.1-.15.25-1,3.15M13.35,98.3l-.1.25-.35,3.5-1.7.35-.25.1,0,.1-.05.2v.25h.05l1.45,3.15h6l1.6-1,.15-.15,0-.15,0-.3-.3-.25-1.5-.4,1.2-3.15v-.35l-.05-.05-.2-.2H18.9l-2.8,1-2-2.85a.3.3,0,0,0-.25-.15l-.25,0-.25.15m48.15,6.25h-.35l-2.8,1-2-2.85-.25-.15-.25,0-.25.15-.1.25-.35,3.5-1.7.35-.25.1-.05.1,0,.2v.25h0l1.45,3.15h6l1.6-1,.15-.15,0-.15,0-.3-.3-.25-1.5-.4,1.2-3.15v-.35l0,0-.2-.2M61.4,120l-1.25.4-.85-4.15-.15-.25-.25-.1-.3.1-.15.25-1,3.15-1.35-.55h-.35a.3.3,0,0,0-.25.15v0a.42.42,0,0,0,0,.35l.95,3h4.85l.7-1.8v-.45l-.25-.2h-.3"/><path class="cls-2" d="M11.35,45.5l.25,0a.3.3,0,0,1,.25.15l2,2.85,2.8-1H17l.2.2.05,0v.35l-1.2,3.15,1.5.4.3.25,0,.3,0,.15-.15.15-1.6,1h-6L8.65,50.4H8.6v-.25l.05-.2,0-.1.25-.1,1.7-.35L11,45.9l.1-.25.25-.15"/><path class="cls-3" d="M55.05,27l1.25.4.8-4.1.15-.25.3-.15.3.1.15.25,1,3.15,1.4-.55h.35l.25.2v.35l-.9,3.1H55.2l-.7-1.8v-.45l.25-.2.3-.05"/><path class="cls-4" d="M48.1,33.8l.25-.15h.25l.25.15.1.25.4,3.5,1.65.3.25.15,0,.1.1.15,0,.25-.05,0L49.85,41.7h-6l-1.6-1.1-.1-.15-.1-.1.1-.35.25-.2L44,39.35l-1.25-3.1V35.9l0,0,.2-.2h.35l2.85,1,2-2.85"/><path class="cls-5" d="M39.25,51l.15.25.85,4.15L41.5,55h.3l.25.2v.45l-.7,1.8H36.5l-1-3.05a.42.42,0,0,1,.05-.35v0a.3.3,0,0,1,.25-.15h.35l1.35.55,1-3.15L38.7,51l.3-.1.25.1"/><path class="cls-6" d="M60.5,44.2l2,2.85,2.8-1h.35l.2.2.05,0v.35l-1.2,3.15,1.5.4.3.25,0,.3,0,.15-.15.15-1.6,1h-6L57.3,48.9h0v-.25l0-.2.05-.1.25-.1,1.7-.35.35-3.5.1-.25L60,44l.25,0,.25.15"/><path class="cls-7" d="M91.9,27.1l.25.1.15.25.85,4.15,1.25-.4h.3l.25.2v.45l-.7,1.8H89.4l-1-3,0-.35V30.2a.3.3,0,0,1,.25-.15h.35l1.35.55,1-3.15.15-.25.3-.1"/><path class="cls-8" d="M85.25,78.75l.15.25.85,4.15,1.25-.4h.3l.25.2v.45l-.7,1.8H82.5l-1-3,0-.35v0l.25-.15h.35l1.35.55,1-3.15.15-.25.3-.1.25.1"/><path class="cls-9" d="M104.25,97.75h.35l1.35.55,1-3.15a.3.3,0,0,1,.15-.25l.3-.1.25.1.15.25.85,4.15,1.25-.4h.3l.25.2v.45l-.7,1.8H104.9l-1-3,0-.35v0a.3.3,0,0,1,.25-.15"/><path class="cls-10" d="M77.1,119.3l.2.2,0,0v.35l-1.2,3.15,1.5.4.3.25,0,.3,0,.15-.15.15-1.6,1h-6l-1.45-3.15h0V122l0-.2,0-.1.25-.1,1.7-.35.35-3.5.1-.25.25-.15.25,0,.25.15,2,2.85,2.8-1h.35"/><path class="cls-11" d="M68.35,88.85h.35l1.35.55,1-3.15L71.2,86l.3-.1.25.1.15.25.85,4.15L74,90h.3l.25.2v.45l-.7,1.8H69l-1-3a.42.42,0,0,1,0-.35v0l.25-.15"/><path class="cls-12" d="M25.1,62.65l1-3.15.15-.25.3-.1.25.1.15.25.85,4.15,1.25-.4h.3l.25.2v.45l-.7,1.8H24.05l-.95-3.05,0-.35v0a.3.3,0,0,1,.25-.15h.35l1.35.55"/><path class="cls-13" d="M13.35,98.3l.25-.15.25,0a.3.3,0,0,1,.25.15l2,2.85,2.8-1h.35l.2.2.05.05v.35l-1.2,3.15,1.5.4.3.25,0,.3,0,.15-.15.15-1.6,1h-6l-1.45-3.15h-.05v-.25l.05-.2,0-.1.25-.1,1.7-.35.35-3.5.1-.25"/><path class="cls-14" d="M61.5,104.55l.2.2,0,0v.35l-1.2,3.15,1.5.4.3.25,0,.3,0,.15-.15.15-1.6,1h-6l-1.45-3.15h0v-.25l0-.2.05-.1.25-.1,1.7-.35.35-3.5.1-.25.25-.15.25,0,.25.15,2,2.85,2.8-1h.35"/><path class="cls-15" d="M61.4,120h.3l.25.2v.45l-.7,1.8H56.4l-.95-3a.42.42,0,0,1,0-.35v0a.3.3,0,0,1,.25-.15h.35l1.35.55,1-3.15.15-.25.3-.1.25.1.15.25.85,4.15,1.25-.4"/><path class="cls-16" d="M43.6,113.05l.25-.15.25,0,.25.15,2,2.85,2.8-1h.35l.2.2,0,.05v.35l-1.2,3.15,1.5.4.3.25,0,.3,0,.15-.15.15-1.6,1h-6l-1.45-3.15h0v-.25l0-.2.05-.1.25-.1,1.7-.35.35-3.5.1-.25"/><path class="cls-17" d="M0,35,60,0l60,35v70L60,140,0,105V35m33-7.5-9.45.85L9,36.85H9A5.83,5.83,0,0,0,6,42V60.5L9.25,69,6,76.75v21.3a5.89,5.89,0,0,0,.8,3A6.35,6.35,0,0,0,9,103.2H9l12.55,7.3,5.75-1.75,1.9,6.25,4.7,2.75L38.5,116l.9,5L57,131.2a6.26,6.26,0,0,0,3,.8,6,6,0,0,0,3-.8L73.65,125Q77.74,99.55,60.5,77.5L65.75,74q17.5,19,19.45,40.55l5,.75L111,103.2a5.9,5.9,0,0,0,2.15-2.2,5.57,5.57,0,0,0,.85-3V42a5.63,5.63,0,0,0-.85-3A5.55,5.55,0,0,0,111,36.85l-7.85-4.55L96.5,34,93,26.35,84.7,21.5H78.25l-.85-4.25L63,8.85A5.63,5.63,0,0,0,60,8a5.91,5.91,0,0,0-3,.85l-18.85,11L33,27.5"/><path class="cls-18" d="M73.7,44.45a1.73,1.73,0,0,1-.4-1.25,1.92,1.92,0,0,1,.5-1.2l2-2.2-.2-.7a1.54,1.54,0,0,1,.1-1l6.1-15.45a1.82,1.82,0,0,1,1-1.1l1.5-.05a2,2,0,0,1,1.15,1.05l9.1,19.75.15,1-.4,1-.4.4L95.1,48a1.85,1.85,0,0,1,0,1.35l2.3,2.8a2,2,0,0,1,.45,1.15,2.07,2.07,0,0,1-.3,1.2l-1,.75L82.5,60.8l-1.3.1a2,2,0,0,1-1-.8l-6.8-9.6a1.77,1.77,0,0,1-.4-1.15,2,2,0,0,1,.35-1.15l1.5-2.15-1.1-1.6M83.6,23.4,77.5,38.85l.75,1,.25.3h0l-.2-.3-3,3.4,2,2.75L75,49.35l6.8,9.6,1.5-.55,0,0,12.65-5L92.25,49l1-.35L91.35,43.7l-.4.15,1.75-.7L83.6,23.4"/><path class="cls-19" d="M78.5,40.2l4.35,6.15v0L82.2,53l-5-6.9-2-2.75,3-3.4.2.3h0"/><path class="cls-20" d="M78.5,40.2l-.25-.3-.75-1L83.6,23.4l-.4,23.5,7.75-3,.4-.15,1.85,4.95-1,.35-9.7,3.8L81.75,59,75,49.35l2.3-3.3,5,6.9.65-6.55v0L78.5,40.2"/><path class="cls-21" d="M81.75,59l.8-6.15,9.7-3.8,3.6,4.35-12.65,5,0,0-1.5.55M91,43.85l-7.75,3,.4-23.5,9.1,19.75-1.75.7"/><path class="cls-18" d="M14,61.55,25.9,28.7l1.85.85-.05.05L15.8,62.4,14,61.55"/><path class="cls-22" d="M25.9,28.7l1.55-4.2a1.64,1.64,0,0,1,.6-.9,1.87,1.87,0,0,1,1-.4l1.1.15,35.7,16.2-.7,2L29.3,25.15l-1.55,4.4L25.9,28.7"/><path class="cls-23" d="M27.45,50.75l2.9-3.7,7.9,3.7L35.1,54.2l-7.65-3.45"/><path class="cls-21" d="M27.45,50.75v9l7.65,3.7L38.25,55V50.75l-7.9-3.7-2.9,3.7M27.7,29.6,63.6,46,51.75,79.3,15.8,62.4,27.7,29.6M47.55,47.35l-1.4,3.85,3,1.45,1.5-3.85-3.1-1.45m.5,11.8,3,1.45,1.5-3.85-3.1-1.45-1.4,3.85"/><path class="cls-24" d="M27.75,29.55l1.55-4.4,35.85,16.4.4.2-.4-.15L63.6,46,27.7,29.6l.05-.05"/><path class="cls-25" d="M47.55,47.35l3.1,1.45-1.5,3.85-3-1.45,1.4-3.85m.5,11.8,1.4-3.85,3.1,1.45-1.5,3.85-3-1.45"/><path class="cls-26" d="M65.85,39.55l13.7,6.25.85.75.3,1.05V62.4a2,2,0,0,1-.45,1.3l-2.9,3.4a2.11,2.11,0,0,1-1.1.65l-1.3-.1-2.6-1.2-15.7,18.6v5.6L56.2,92,53.3,95.4a2.11,2.11,0,0,1-1.1.65l-1.3-.15-2.85-1.35v-2.3l3.7,1.85,2.9-3.45V84.3L71.8,64l4,1.85,2.9-3.4V47.6L65.55,41.75l-.4-.2.7-2M20,81.35,15,79l-.8-.7a1.89,1.89,0,0,1-.35-1.1V62.4a1.44,1.44,0,0,1,.15-.65l.05-.2,1.8.85V77.15l4.2,2v2.2"/><path class="cls-27" d="M63.6,46l1.55-4.35.4.15L78.7,47.6V62.4l-2.9,3.4V54.45l-1,1.4-3,3.5L54.65,79.3V90.65l-2.9,3.45V79.3L63.6,46m1.6.75L54.65,75.85,75.8,50.7l-10.6-4"/><path class="cls-28" d="M65.2,46.7l10.6,4L54.65,75.85,65.2,46.7m-37.75,4L35.1,54.2v9.25l-7.65-3.7v-9"/><path class="cls-17" d="M75.8,65.8,71.8,64v-4.6l3-3.5,1-1.4V65.8m-24,28.3-3.7-1.85v-11l-28-13V79.15l-4.2-2V62.4l36,16.9V94.1"/><path class="cls-29" d="M35.1,54.2l3.15-3.45V55L35.1,63.45V54.2M71.8,64,54.65,84.3v-5L71.8,59.35V64"/><path class="cls-30" d="M48.05,94.55,20,81.35v-2.2l28.05,13.1v2.3"/><path class="cls-31" d="M20,79.15V68.3l28.05,13v11L20,79.15"/><path class="cls-18" d="M85.2,48.25a1.82,1.82,0,0,1,1,1.1l4.3,10.85.15.9,0,.35,1.15,1.3a2,2,0,0,1,.45,1.2L91.9,65.2l-.55.8.8,1.15a2.06,2.06,0,0,1,0,2.3l-4.8,6.75-1,.75a2.05,2.05,0,0,1-1.25,0l-1-.35-.6-.3L75.1,73l-.95-.75a1.77,1.77,0,0,1-.35-1.2,2,2,0,0,1,.45-1.15l1.45-1.75a1.87,1.87,0,0,1,.1-1.05l.7-1.85-.1-.1-.4-1a1.91,1.91,0,0,1,.2-1.05l6.4-13.9a1.81,1.81,0,0,1,1.1-1l1.5,0m3,13.4.5-.75L84.4,50.05,78,64l1.25.5-.3-.1-1.3,3.45.65.25-2.5,3.1,8.9,3.5,0,0,1,.35,4.8-6.75L88.9,66l1.35-2-2-2.4-.15.2h0l.2-.2"/><path class="cls-21" d="M88.2,61.65l-.2.2L85,66.2v0l.45,4.6L88.9,66l1.6,2.3-4.8,6.75-.55-4.3-6.85-2.7-.65-.25L79,64.35l.3.1L84.7,66.6l-.3-16.55L88.7,60.9l-.5.75"/><path class="cls-20" d="M88.2,61.65l2,2.4L88.9,66l-3.5,4.85L85,66.25v0l3-4.35h0l.15-.2m-2.5,13.4-1-.35,0,0-8.9-3.5,2.5-3.1,6.85,2.7.55,4.3m-6.45-10.6L78,64l6.4-13.9.3,16.55-5.45-2.15"/><path class="cls-18" d="M100.25,75.05l-5.7,1L87.4,84.6l-2.05.4v-.35a1.89,1.89,0,0,1,.5-1.3l7.2-8.55a1.75,1.75,0,0,1,1.15-.65l5.7-1.05,1,.05.85.55,5.7,6.25-1.3,1.55-5.9-6.45"/><path class="cls-22" d="M107.45,80l.2.2a2.07,2.07,0,0,1,.5,1.35v11a2,2,0,0,1-.45,1.3l-7.4,8.6a2.38,2.38,0,0,1-1.15.65l-1.25-.15L86.5,97.45a2,2,0,0,1-.85-.7,2.09,2.09,0,0,1-.3-1.1V85l2.05-.4-.05.05v11l11.4,5.45,7.4-8.6v-11l1.3-1.55m-13.9,10.9.25.1.2.1-.45-.2"/><path class="cls-25" d="M87.4,84.6l7.15-8.5,5.7-1-7.2,8.55-5.7,1.05.05-.05"/><path class="cls-24" d="M94.05,87.85l-1.35-.7-.65-.3-.15,0-.7-.35v0l-2.35-1.15V91.7l7.4,3.45.25.15.75.35v-6.3l-1.65-.8-1.55-.7m-6.7-3.2,5.7-1.05,5.7,6.45v11l-11.4-5.45v-11m14.9,1.4,2.85-3.35V89l-1.55-.7V86.6l-1.3-.55"/><path class="cls-32" d="M91.2,86.5v0l.7.35.15,0,.65.3,1.35.7-1.9,2.35,1,.5,4,1.9v3.05l-.75-.35-.25-.15-7.4-3.45.9-1.2V88.1l1.45-1.6m8.6,2.35,2.45-2.8,1.3.55v1.65l1.55.7-5.3,6.2v-6.3"/><path class="cls-33" d="M99.8,88.85v6.3l5.3-6.2V82.7l1.05-1.2v11l-7.4,8.6v-11l1-1.2m-5.75-1,1.55.7L93.8,91l-.25-.1-.35-.15-1-.5,1.9-2.35m-5.2,3.85V85.35L91.2,86.5l-1.45,1.6v2.4l-.9,1.2"/><path class="cls-23" d="M95.6,88.55l1.65.8V92.6l-4-1.9.35.15.45.2-.2-.1,1.8-2.4"/><path class="cls-21" d="M100.25,75.05l5.9,6.45-1.05,1.2-2.85,3.35-2.45,2.8-1,1.2-5.7-6.45,7.2-8.55"/></g></g></svg>