<svg xmlns="http://www.w3.org/2000/svg" xmlns:xlink="http://www.w3.org/1999/xlink" viewBox="0 0 120 140"><defs><style>.cls-1{fill:#27ae60;}.cls-2{fill:url(#linear-gradient);}.cls-3{fill:url(#linear-gradient-2);}.cls-4{fill:url(#linear-gradient-3);}.cls-5{fill:url(#linear-gradient-4);}.cls-6{fill:url(#linear-gradient-5);}.cls-7{fill:url(#linear-gradient-6);}.cls-8{fill:url(#linear-gradient-7);}.cls-9{fill:url(#linear-gradient-8);}.cls-10{fill:url(#linear-gradient-9);}.cls-11{fill:url(#linear-gradient-10);}.cls-12{fill:url(#linear-gradient-11);}.cls-13{fill:url(#linear-gradient-12);}.cls-14{fill:url(#linear-gradient-13);}.cls-15{fill:url(#linear-gradient-14);}.cls-16{fill:url(#linear-gradient-15);}.cls-17{fill:#115f32;}.cls-18{fill:#1b914d;}.cls-19{fill-opacity:0.1;}.cls-20{fill:#bb8044;}.cls-21{fill:#198a49;}</style><linearGradient id="linear-gradient" x1="-2119.2" y1="49.52" x2="-480.8" y2="49.52" gradientTransform="matrix(0, 0, 0, 0, 17.34, 43.3)" gradientUnits="userSpaceOnUse"><stop offset="0" stop-color="#27ae60"/><stop offset="1" stop-color="#30c26d"/></linearGradient><linearGradient id="linear-gradient-2" x1="-2119.2" y1="62.42" x2="-480.8" y2="62.42" gradientTransform="matrix(0, 0, 0, 0, 29.72, 57.22)" xlink:href="#linear-gradient"/><linearGradient id="linear-gradient-3" x1="-2119.2" y1="54.18" x2="-480.8" y2="54.18" gradientTransform="matrix(0, 0, 0, 0, 42.17, 48.97)" xlink:href="#linear-gradient"/><linearGradient id="linear-gradient-4" x1="-2119.2" y1="102.17" x2="-480.8" y2="102.17" gradientTransform="matrix(0, 0, 0, 0, 19.59, 95.95)" xlink:href="#linear-gradient"/><linearGradient id="linear-gradient-5" x1="-2119.2" y1="30.38" x2="-480.8" y2="30.38" gradientTransform="matrix(0, 0, 0, 0, 95.07, 25.17)" xlink:href="#linear-gradient"/><linearGradient id="linear-gradient-6" x1="-2119.2" y1="26.2" x2="-480.8" y2="26.2" gradientTransform="matrix(0, 0, 0, 0, 61.07, 21.02)" xlink:href="#linear-gradient"/><linearGradient id="linear-gradient-7" x1="-2119.2" y1="37.68" x2="-480.8" y2="37.68" gradientTransform="matrix(0, 0, 0, 0, 50.84, 31.3)" xlink:href="#linear-gradient"/><linearGradient id="linear-gradient-8" x1="-2119.2" y1="48.02" x2="-480.8" y2="48.02" gradientTransform="matrix(0, 0, 0, 0, 65.99, 41.8)" xlink:href="#linear-gradient"/><linearGradient id="linear-gradient-9" x1="-2119.2" y1="89.17" x2="-480.8" y2="89.17" gradientTransform="matrix(0, 0, 0, 0, 74.67, 83.97)" xlink:href="#linear-gradient"/><linearGradient id="linear-gradient-10" x1="-2119.2" y1="106.58" x2="-480.8" y2="106.58" gradientTransform="matrix(0, 0, 0, 0, 61.84, 100.35)" xlink:href="#linear-gradient"/><linearGradient id="linear-gradient-11" x1="-2119.2" y1="81.92" x2="-480.8" y2="81.92" gradientTransform="matrix(0, 0, 0, 0, 88.17, 76.72)" xlink:href="#linear-gradient"/><linearGradient id="linear-gradient-12" x1="-2119.2" y1="98.08" x2="-480.8" y2="98.08" gradientTransform="matrix(0, 0, 0, 0, 110.57, 92.87)" xlink:href="#linear-gradient"/><linearGradient id="linear-gradient-13" x1="-2119.2" y1="121.33" x2="-480.8" y2="121.33" gradientTransform="matrix(0, 0, 0, 0, 77.44, 115.1)" xlink:href="#linear-gradient"/><linearGradient id="linear-gradient-14" x1="-2119.2" y1="119.17" x2="-480.8" y2="119.17" gradientTransform="matrix(0, 0, 0, 0, 62.07, 113.97)" xlink:href="#linear-gradient"/><linearGradient id="linear-gradient-15" x1="-2119.2" y1="116.92" x2="-480.8" y2="116.92" gradientTransform="matrix(0, 0, 0, 0, 49.84, 110.7)" xlink:href="#linear-gradient"/></defs><title>Asset 11</title><g id="Layer_2" data-name="Layer 2"><g id="Layer_1-2" data-name="Layer 1"><path class="cls-1" d="M11.1,45.65l-.1.25-.35,3.5L9,49.75l-.25.1,0,.1-.05.2v.25h.05l1.45,3.15h6l1.6-1,.15-.15,0-.15,0-.3-.3-.25-1.5-.4,1.2-3.15v-.35l-.05,0-.2-.2h-.35l-2.8,1-2-2.85-.25-.15-.25,0-.25.15m15.15,13.6-.15.25-1,3.15-1.35-.55H23.4a.3.3,0,0,0-.25.15v0l0,.35.95,3.05H28.9l.7-1.8v-.45l-.25-.2h-.3l-1.25.4L27,59.5l-.15-.25-.25-.1-.3.1m13.15-8L39.25,51,39,50.9l-.3.1-.15.25-1,3.15-1.35-.55h-.35L35.6,54v0a.42.42,0,0,0-.05.35l1,3.05h4.85l.7-1.8V55.2L41.8,55h-.3l-1.25.4-.85-4.15M13.6,98.15l-.25.15-.1.25-.35,3.5-1.7.35-.25.1,0,.1-.05.2v.25h.05l1.45,3.15h6l1.6-1,.15-.15,0-.15,0-.3-.3-.25-1.5-.4,1.2-3.15v-.35l-.05-.05-.2-.2H18.9l-2.8,1-2-2.85-.25-.15-.25,0M0,35,60,0l60,35v70L60,140,0,105V35m89.1-4.95h-.35l-.25.15v.05a.42.42,0,0,0,0,.35l1,3h4.85l.7-1.8V31.4l-.25-.2h-.3l-1.25.4-.85-4.15-.15-.25-.25-.1-.3.1a.3.3,0,0,0-.15.25l-1,3.15-1.35-.55M57.55,22.9l-.3.15-.15.25-.8,4.1L55.05,27l-.3.05-.25.2v.45l.7,1.8h4.85l.9-3.1v-.35l-.25-.2h-.35L59,26.4l-1-3.15L57.85,23l-.3-.1M43,35.65l-.2.2,0,0v.35L44,39.35l-1.55.45-.25.2-.1.35.1.1.1.15,1.6,1.1h6l1.45-3.15.05,0,0-.25-.1-.15,0-.1L51,37.85l-1.65-.3-.4-3.5-.1-.25-.25-.15h-.25l-.25.15-2,2.85-2.85-1H43M60.5,44.2a.3.3,0,0,0-.25-.15L60,44l-.25.15-.1.25-.35,3.5-1.7.35-.25.1-.05.1,0,.2v.25h0l1.45,3.15h6l1.6-1,.15-.15,0-.15,0-.3-.3-.25-1.5-.4,1.2-3.15v-.35l-.05,0-.2-.2H65.3l-2.8,1-2-2.85m11,41.7-.3.1a.3.3,0,0,0-.15.25l-1,3.15-1.35-.55h-.35L68.1,89v0l0,.35,1,3h4.85l.7-1.8V90.2L74.3,90H74l-1.25.4-.85-4.15L71.75,86l-.25-.1M58.35,105.6l-2-2.85a.3.3,0,0,0-.25-.15l-.25,0-.25.15-.1.25-.35,3.5-1.7.35-.25.1-.05.1,0,.2v.25h0l1.45,3.15h6l1.6-1,.15-.15,0-.15,0-.3-.3-.25-1.5-.4,1.2-3.15v-.35l0,0-.2-.2h-.35l-2.8,1M84.55,79l-1,3.15L82.2,81.6h-.35l-.25.15v0l0,.35,1,3h4.85l.7-1.8V83l-.25-.2h-.3l-1.25.4L85.4,79l-.15-.25-.25-.1-.3.1a.3.3,0,0,0-.15.25m19.7,18.75a.3.3,0,0,0-.25.15v0l0,.35,1,3h4.85l.7-1.8V99.1l-.25-.2h-.3l-1.25.4-.85-4.15-.15-.25-.25-.1-.3.1-.15.25-1,3.15-1.35-.55h-.35M71.7,117.35l-.25,0-.25.15-.1.25-.35,3.5-1.7.35-.25.1,0,.1,0,.2v.25h0l1.45,3.15h6l1.6-1,.15-.15,0-.15,0-.3-.3-.25-1.5-.4,1.2-3.15v-.35l0,0-.2-.2h-.35l-2.8,1-2-2.85-.25-.15M62,120.65v-.45l-.25-.2h-.3l-1.25.4-.85-4.15-.15-.25-.25-.1-.3.1a.3.3,0,0,0-.15.25l-1,3.15-1.35-.55h-.35l-.25.15v0l0,.35.95,3h4.85l.7-1.8m-12.2-5.5,0-.05-.2-.2h-.35l-2.8,1-2-2.85a.3.3,0,0,0-.25-.15l-.25,0-.25.15-.1.25-.35,3.5-1.7.35-.25.1-.05.1,0,.2v.25h0L42.6,121h6l1.6-1,.15-.15,0-.15,0-.3-.3-.25-1.5-.4,1.2-3.15v-.35"/><path class="cls-2" d="M11.1,45.65l.25-.15.25,0,.25.15,2,2.85,2.8-1H17l.2.2.05,0v.35l-1.2,3.15,1.5.4.3.25,0,.3,0,.15-.15.15-1.6,1h-6L8.65,50.4H8.6v-.25l.05-.2,0-.1.25-.1,1.7-.35L11,45.9l.1-.25"/><path class="cls-3" d="M26.25,59.25l.3-.1.25.1.15.25.85,4.15,1.25-.4h.3l.25.2v.45l-.7,1.8H24.05l-.95-3.05,0-.35v0a.3.3,0,0,1,.25-.15h.35l1.35.55,1-3.15.15-.25"/><path class="cls-4" d="M39.4,51.25l.85,4.15L41.5,55h.3l.25.2v.45l-.7,1.8H36.5l-1-3.05a.42.42,0,0,1,.05-.35v0l.25-.15h.35l1.35.55,1-3.15L38.7,51l.3-.1.25.1.15.25"/><path class="cls-5" d="M13.6,98.15l.25,0,.25.15,2,2.85,2.8-1h.35l.2.2.05.05v.35l-1.2,3.15,1.5.4.3.25,0,.3,0,.15-.15.15-1.6,1h-6l-1.45-3.15h-.05v-.25l.05-.2,0-.1.25-.1,1.7-.35.35-3.5.1-.25.25-.15"/><path class="cls-6" d="M89.1,30.05l1.35.55,1-3.15a.3.3,0,0,1,.15-.25l.3-.1.25.1.15.25.85,4.15,1.25-.4h.3l.25.2v.45l-.7,1.8H89.4l-1-3a.42.42,0,0,1,0-.35V30.2l.25-.15h.35"/><path class="cls-7" d="M57.55,22.9l.3.1.15.25,1,3.15,1.4-.55h.35l.25.2v.35l-.9,3.1H55.2l-.7-1.8v-.45l.25-.2.3-.05,1.25.4.8-4.1.15-.25.3-.15"/><path class="cls-8" d="M43,35.65h.35l2.85,1,2-2.85.25-.15h.25l.25.15.1.25.4,3.5,1.65.3.25.15,0,.1.1.15,0,.25-.05,0L49.85,41.7h-6l-1.6-1.1-.1-.15-.1-.1.1-.35.25-.2L44,39.35l-1.25-3.1V35.9l0,0,.2-.2"/><path class="cls-9" d="M60.5,44.2l2,2.85,2.8-1h.35l.2.2.05,0v.35l-1.2,3.15,1.5.4.3.25,0,.3,0,.15-.15.15-1.6,1h-6L57.3,48.9h0v-.25l0-.2.05-.1.25-.1,1.7-.35.35-3.5.1-.25L60,44l.25,0a.3.3,0,0,1,.25.15"/><path class="cls-10" d="M71.5,85.9l.25.1.15.25.85,4.15L74,90h.3l.25.2v.45l-.7,1.8H69l-1-3,0-.35v0l.25-.15h.35l1.35.55,1-3.15A.3.3,0,0,1,71.2,86l.3-.1"/><path class="cls-11" d="M58.35,105.6l2.8-1h.35l.2.2,0,0v.35l-1.2,3.15,1.5.4.3.25,0,.3,0,.15-.15.15-1.6,1h-6l-1.45-3.15h0v-.25l0-.2.05-.1.25-.1,1.7-.35.35-3.5.1-.25.25-.15.25,0a.3.3,0,0,1,.25.15l2,2.85"/><path class="cls-12" d="M84.55,79a.3.3,0,0,1,.15-.25l.3-.1.25.1.15.25.85,4.15,1.25-.4h.3l.25.2v.45l-.7,1.8H82.5l-1-3,0-.35v0l.25-.15h.35l1.35.55,1-3.15"/><path class="cls-13" d="M104.25,97.75h.35l1.35.55,1-3.15.15-.25.3-.1.25.1.15.25.85,4.15,1.25-.4h.3l.25.2v.45l-.7,1.8H104.9l-1-3,0-.35v0a.3.3,0,0,1,.25-.15"/><path class="cls-14" d="M71.7,117.35l.25.15,2,2.85,2.8-1h.35l.2.2,0,0v.35l-1.2,3.15,1.5.4.3.25,0,.3,0,.15-.15.15-1.6,1h-6l-1.45-3.15h0V122l0-.2,0-.1.25-.1,1.7-.35.35-3.5.1-.25.25-.15.25,0"/><path class="cls-15" d="M62,120.65l-.7,1.8H56.4l-.95-3,0-.35v0l.25-.15h.35l1.35.55,1-3.15a.3.3,0,0,1,.15-.25l.3-.1.25.1.15.25.85,4.15,1.25-.4h.3l.25.2v.45"/><path class="cls-16" d="M49.75,115.15v.35l-1.2,3.15,1.5.4.3.25,0,.3,0,.15-.15.15-1.6,1h-6l-1.45-3.15h0v-.25l0-.2.05-.1.25-.1,1.7-.35.35-3.5.1-.25.25-.15.25,0a.3.3,0,0,1,.25.15l2,2.85,2.8-1h.35l.2.2,0,.05"/><path class="cls-17" d="M83,94.2a6,6,0,0,1-1.5-3.9v-.9a48.75,48.75,0,0,1,1.5-13q1.85-7.09,5.2-6.65,3.34-.5,5.3,6.65a52.21,52.21,0,0,1,1.4,13v.9a6.53,6.53,0,0,1-1.4,4l-.5.55h0l-1.15.9a3.21,3.21,0,0,1-1,2.35l-.15.15a3.51,3.51,0,0,1-2.4,1h0a3.38,3.38,0,0,1-2.5-1A3.48,3.48,0,0,1,84.6,95.7l-1.15-.9h0L83,94.2m6.8.25a5.1,5.1,0,0,0,1.75-1.1l.2-.15a4.53,4.53,0,0,0,1.15-3V89.4A49.92,49.92,0,0,0,91.5,76.9q-1.4-5.15-3.35-5.15t-3.3,5.15a48.37,48.37,0,0,0-1.4,12.5v.85a4.3,4.3,0,0,0,1.25,3l.15.15a4.34,4.34,0,0,0,1.75,1.1V95.6a1.54,1.54,0,0,0,1.55,1.55h0a1.35,1.35,0,0,0,1-.45,1.44,1.44,0,0,0,.5-1.1V94.45"/><path class="cls-18" d="M89.75,94.45l-1.6.25-1.55-.25a4.34,4.34,0,0,1-1.75-1.1l-.15-.15a4.3,4.3,0,0,1-1.25-3V89.4a48.37,48.37,0,0,1,1.4-12.5q1.35-5.15,3.3-5.15T91.5,76.9a49.92,49.92,0,0,1,1.35,12.5v.85a4.53,4.53,0,0,1-1.15,3l-.2.15a5.1,5.1,0,0,1-1.75,1.1"/><path class="cls-19" d="M93.45,94.25A3.36,3.36,0,0,1,95,97a3.72,3.72,0,0,1-2,3.1,8.34,8.34,0,0,1-4.75,1.3,8.57,8.57,0,0,1-4.8-1.3,3.72,3.72,0,0,1-2-3.1A3.48,3.48,0,0,1,83,94.2l.55.6h0l1.15.9a3.48,3.48,0,0,0,1.05,2.45,3.38,3.38,0,0,0,2.5,1h0a3.51,3.51,0,0,0,2.4-1l.15-.15a3.21,3.21,0,0,0,1-2.35l1.15-.9h0l.5-.55"/><path class="cls-20" d="M89.75,94.45V95.6a1.44,1.44,0,0,1-.5,1.1,1.35,1.35,0,0,1-1,.45h0A1.54,1.54,0,0,1,86.6,95.6V94.45l1.55.25,1.6-.25"/><path class="cls-17" d="M19.15,85.55a5.1,5.1,0,0,0,1.75-1.1l.2-.15a4.53,4.53,0,0,0,1.15-3V80.5A49.92,49.92,0,0,0,20.9,68q-1.39-5.15-3.35-5.15T14.25,68a48.37,48.37,0,0,0-1.4,12.5v.85a4.3,4.3,0,0,0,1.25,3l.15.15A4.34,4.34,0,0,0,16,85.55V86.7a1.54,1.54,0,0,0,1.55,1.55h.05l1-.45a1.44,1.44,0,0,0,.5-1.1V85.55m3.7-.2-.5.55H22.3l-1.15.9a3.21,3.21,0,0,1-1,2.35L20,89.3a3.51,3.51,0,0,1-2.4,1h-.05a3.38,3.38,0,0,1-2.5-1A3.48,3.48,0,0,1,14,86.8l-1.15-.9h.05l-.55-.6a6,6,0,0,1-1.5-3.9v-.9a48.75,48.75,0,0,1,1.5-13q1.85-7.09,5.2-6.65,3.35-.49,5.3,6.65a52.21,52.21,0,0,1,1.4,13v.9a6.53,6.53,0,0,1-1.4,3.95"/><path class="cls-18" d="M16,85.55a4.34,4.34,0,0,1-1.75-1.1l-.15-.15a4.3,4.3,0,0,1-1.25-3V80.5A48.37,48.37,0,0,1,14.25,68q1.35-5.15,3.3-5.15T20.9,68a49.92,49.92,0,0,1,1.35,12.5v.85a4.53,4.53,0,0,1-1.15,3l-.2.15a5.1,5.1,0,0,1-1.75,1.1l-1.6.25L16,85.55"/><path class="cls-19" d="M12.35,85.3l.55.6h-.05l1.15.9a3.48,3.48,0,0,0,1.05,2.45,3.38,3.38,0,0,0,2.5,1h.05a3.51,3.51,0,0,0,2.4-1l.15-.15a3.21,3.21,0,0,0,1-2.35l1.15-.9h.05l.5-.55a3.36,3.36,0,0,1,1.5,2.7,3.72,3.72,0,0,1-2,3.1,8.34,8.34,0,0,1-4.75,1.3,8.57,8.57,0,0,1-4.8-1.3,3.72,3.72,0,0,1-2-3.1,3.48,3.48,0,0,1,1.5-2.75"/><path class="cls-20" d="M19.15,85.55V86.7a1.44,1.44,0,0,1-.5,1.1l-1,.45h-.05A1.54,1.54,0,0,1,16,86.7V85.55l1.55.25,1.6-.25"/><path class="cls-17" d="M91.8,97.3,91.4,97a8.75,8.75,0,0,1-2.7-6.1v-1.4a76,76,0,0,1,2-19l.15-.6a24.11,24.11,0,0,1,2.45-6.35q2-3.3,4.55-3c1.73-.17,3.27.87,4.6,3.1a26.43,26.43,0,0,1,2.45,6.3l.15.5a79,79,0,0,1,2,19.1v1.4a8.83,8.83,0,0,1-2.65,6.1l-.3.3-1.85,1.3V99a4.07,4.07,0,0,1-1.2,3l-.15.15a4.07,4.07,0,0,1-3,1.2h0A4.27,4.27,0,0,1,93.55,99v-.45L91.8,97.3m.7-25.75-1.1,6-.25,2.25-.25,3.1-.2,4.85v3a6.89,6.89,0,0,0,2.1,4.75l1.3,1,1.45.7V99a2.24,2.24,0,0,0,.65,1.65,2.3,2.3,0,0,0,1.7.7h0A2.39,2.39,0,0,0,100.3,99V97.25l1.55-.75,1.15-1a6.89,6.89,0,0,0,2.1-4.75v-3l-.2-4.85-.25-3.1-.25-2.25-1.1-6-.3-1.2-.5-1.75q-1.69-5.4-4-6l-.65-.1-.65.1q-2.25.64-3.9,6l-.55,1.75-.3,1.2"/><path class="cls-18" d="M92.5,71.55l.3-1.2.55-1.75q1.65-5.4,3.9-6l.65-.1.65.1q2.25.64,4,6l.5,1.75.3,1.2-.3.1-.2.1-1,.2-1.55.25-2.4.1-2.35-.1L94.1,72l-1-.25-.25-.1-.3-.1m-1.1,6,.1,0,1.3.85,1.3.5,1.45.35,2.35.2,2.4-.2,1.55-.35,1.15-.5,1.35-.85.05,0,.25,2.25.25,3.1a4.25,4.25,0,0,1-1.9,1.95l-1.15.6-1.55.45-2.4.25-2.35-.25-1.45-.4-1.3-.65a4.25,4.25,0,0,1-1.9-1.95l.25-3.1.25-2.25m13.7,10.9v2.3A6.89,6.89,0,0,1,103,95.5l-1.15,1-1.55.75-2.4.35-2.35-.35-1.45-.7-1.3-1a6.89,6.89,0,0,1-2.1-4.75v-2.3a4.92,4.92,0,0,0,2.1,3.75l1.3.85,1.45.55,2.35.3,2.4-.3,1.55-.6,1.15-.8a4.92,4.92,0,0,0,2.1-3.75"/><path class="cls-21" d="M105.1,88.45A4.92,4.92,0,0,1,103,92.2l-1.15.8-1.55.6-2.4.3-2.35-.3-1.45-.55-1.3-.85a4.92,4.92,0,0,1-2.1-3.75v-.7l.2-4.85a4.25,4.25,0,0,0,1.9,1.95l1.3.65,1.45.4,2.35.25,2.4-.25,1.55-.45,1.15-.6a4.25,4.25,0,0,0,1.9-1.95l.2,4.85v.7M92.5,71.55l.3.1.25.1,1,.25,1.45.2,2.35.1,2.4-.1,1.55-.25,1-.2.2-.1.3-.1,1.1,6-.05,0-1.35.85-1.15.5-1.55.35-2.4.2-2.35-.2L94.1,79l-1.3-.5-1.3-.85-.1,0,1.1-6"/><path class="cls-19" d="M104.15,97.25l.7.3q2.81,1.5,2.8,3.6t-2.8,3.55a16.16,16.16,0,0,1-13.6,0q-2.81-1.45-2.8-3.55t2.8-3.6l.55-.25,1.75,1.25V99a4.27,4.27,0,0,0,4.35,4.35h0a4.07,4.07,0,0,0,3-1.2l.15-.15a4.07,4.07,0,0,0,1.2-3v-.45l1.85-1.3"/><path class="cls-20" d="M100.3,97.25V99A2.39,2.39,0,0,1,98,101.35h0a2.3,2.3,0,0,1-1.7-.7A2.24,2.24,0,0,1,95.55,99V97.25l2.35.35,2.4-.35"/><path class="cls-17" d="M63.5,38.6a5.1,5.1,0,0,0,1.75-1.1l.2-.15a4.53,4.53,0,0,0,1.15-3v-.85a49.92,49.92,0,0,0-1.35-12.5q-1.4-5.14-3.35-5.15t-3.3,5.15a48.37,48.37,0,0,0-1.4,12.5v.85a4.3,4.3,0,0,0,1.25,3l.15.15a4.34,4.34,0,0,0,1.75,1.1v1.15A1.54,1.54,0,0,0,61.9,41.3H62a1.35,1.35,0,0,0,1-.45,1.44,1.44,0,0,0,.5-1.1V38.6m-6.8-.25a6,6,0,0,1-1.5-3.9v-.9a48.75,48.75,0,0,1,1.5-13q1.84-7.1,5.2-6.65,3.34-.49,5.3,6.65a52.21,52.21,0,0,1,1.4,13v.9a6.53,6.53,0,0,1-1.4,3.95l-.5.55h0l-1.15.9a3.21,3.21,0,0,1-1,2.35l-.15.15a3.51,3.51,0,0,1-2.4.95H61.9a3.38,3.38,0,0,1-2.5-1,3.48,3.48,0,0,1-1-2.45L57.2,39h0l-.55-.6"/><path class="cls-18" d="M60.35,38.6a4.34,4.34,0,0,1-1.75-1.1l-.15-.15a4.3,4.3,0,0,1-1.25-3v-.85a48.37,48.37,0,0,1,1.4-12.5Q60,15.91,61.9,15.9t3.35,5.15a49.92,49.92,0,0,1,1.35,12.5v.85a4.53,4.53,0,0,1-1.15,3l-.2.15a5.1,5.1,0,0,1-1.75,1.1l-1.6.25-1.55-.25"/><path class="cls-19" d="M67.2,38.4a3.36,3.36,0,0,1,1.5,2.7,3.72,3.72,0,0,1-2,3.1A8.34,8.34,0,0,1,62,45.5a8.57,8.57,0,0,1-4.8-1.3,3.72,3.72,0,0,1-1.95-3.1,3.48,3.48,0,0,1,1.5-2.75l.55.6h0l1.15.9a3.48,3.48,0,0,0,1,2.45,3.38,3.38,0,0,0,2.5,1H62a3.51,3.51,0,0,0,2.4-.95l.15-.15a3.21,3.21,0,0,0,1-2.35l1.15-.9h0l.5-.55"/><path class="cls-20" d="M63.5,38.6v1.15a1.44,1.44,0,0,1-.5,1.1,1.35,1.35,0,0,1-1,.45H61.9a1.54,1.54,0,0,1-1.55-1.55V38.6l1.55.25,1.6-.25"/></g></g></svg>