<svg xmlns="http://www.w3.org/2000/svg" xmlns:xlink="http://www.w3.org/1999/xlink" viewBox="0 0 120 140"><defs><style>.cls-1{fill:url(#linear-gradient);}.cls-2{fill:#27ae60;}.cls-3{fill:#e5d5b2;}.cls-4{fill:#ecdcb8;}.cls-5{fill:url(#linear-gradient-2);}.cls-6{fill:#e0d1af;}.cls-7{fill:url(#linear-gradient-3);}.cls-8{fill:url(#linear-gradient-4);}.cls-9{fill:url(#linear-gradient-5);}.cls-10{fill:url(#linear-gradient-6);}.cls-11{fill:url(#linear-gradient-7);}</style><linearGradient id="linear-gradient" x1="-1079.2" y1="30.38" x2="559.2" y2="30.38" gradientTransform="matrix(0, 0, 0, 0, 95.07, 29.31)" gradientUnits="userSpaceOnUse"><stop offset="0" stop-color="#27ae60"/><stop offset="1" stop-color="#30c26d"/></linearGradient><linearGradient id="linear-gradient-2" x1="-1079.2" y1="98.08" x2="559.2" y2="98.08" gradientTransform="matrix(0, 0, 0, 0, 110.57, 97.01)" xlink:href="#linear-gradient"/><linearGradient id="linear-gradient-3" x1="-1079.2" y1="49.52" x2="559.2" y2="49.52" gradientTransform="matrix(0, 0, 0, 0, 17.34, 48.3)" xlink:href="#linear-gradient"/><linearGradient id="linear-gradient-4" x1="-1079.2" y1="102.17" x2="559.2" y2="102.17" gradientTransform="matrix(0, 0, 0, 0, 19.59, 100.95)" xlink:href="#linear-gradient"/><linearGradient id="linear-gradient-5" x1="-1079.2" y1="121.33" x2="559.2" y2="121.33" gradientTransform="matrix(0, 0, 0, 0, 77.44, 120.1)" xlink:href="#linear-gradient"/><linearGradient id="linear-gradient-6" x1="-1079.2" y1="120.65" x2="559.2" y2="120.65" gradientTransform="matrix(0, 0, 0, 0, 62.07, 118.11)" xlink:href="#linear-gradient"/><linearGradient id="linear-gradient-7" x1="-1079.2" y1="116.92" x2="559.2" y2="116.92" gradientTransform="matrix(0, 0, 0, 0, 49.84, 115.7)" xlink:href="#linear-gradient"/></defs><title>Asset 3</title><g id="Layer_2" data-name="Layer 2"><g id="Layer_1-2" data-name="Layer 1"><path class="cls-1" d="M95,31.4v.45l-.7,1.8H89.4l-1-3,0-.35V30.2a.3.3,0,0,1,.25-.15h.35l1.35.55,1-3.15.15-.25.3-.1.25.1.15.25.85,4.15,1.25-.4h.3l.25.2"/><path class="cls-2" d="M95,31.4l-.25-.2h-.3l-1.25.4-.85-4.15-.15-.25-.25-.1-.3.1-.15.25-1,3.15-1.35-.55h-.35a.3.3,0,0,0-.25.15v.05l0,.35,1,3h4.85l.7-1.8V31.4M83.6,34.15H82.3L80.9,31.7l-.25-.4L73,26.8,61.9,20.35,61,19.9l-1.25-.2a3.9,3.9,0,0,0-2.15.65l-13.8,8.1L42.4,31h-3l-5,2.9-1.7,4.15-1.65.6H26.2l-8,4.65A4.54,4.54,0,0,0,16.05,47v.75l-2.2.8-2-2.85-.25-.15-.25,0-.25.15-.1.25-.35,3.5L9,49.75l-.25.1,0,.1-.05.2v.25h.05l1.45,3.15h6V77.1l2.45,4.6-2.45,3v8.15a4.11,4.11,0,0,0,.6,2.15,4.18,4.18,0,0,0,1.55,1.6l7.8,4.55L52,116.3l4.75,2.8-.6-.25h-.35a.3.3,0,0,0-.25.15v0a.42.42,0,0,0,0,.35l.95,3h4.85l.7-1.8v-.45l-.25-.2h-.3l-1.25.4,0-.25,1.8-.55,1-.55,10.35-6,.55-.35,2-3,1.5-1.7,3.7.5L101.25,96.6A4.75,4.75,0,0,0,102.8,95l.25-.5.3-1.65V70.65l-2.1-3.1,2.1-3.3V47a4.07,4.07,0,0,0-.55-2.1,4.26,4.26,0,0,0-1.55-1.6L92.4,38.15l-6.8-4h-2M107.4,94.8l-.3.1-.15.25-1,3.15-1.35-.55h-.35l-.25.15v0a.42.42,0,0,0,0,.35l1,3h4.85l.7-1.8V99.1l-.25-.2h-.3l-1.25.4-.85-4.15-.15-.25-.25-.1M120,105,60,140,0,105V35L60,0l60,35v70M13.6,98.15l-.25.15-.1.25-.35,3.5-1.7.35-.25.1,0,.1-.05.2v.25h.05l1.45,3.15h6l1.6-1,.15-.15,0-.15,0-.3-.3-.25-1.5-.4,1.2-3.15v-.35l-.05-.05-.2-.2H18.9l-2.8,1-2-2.85-.25-.15-.25,0m58.1,19.2-.25,0-.25.15-.1.25-.35,3.5-1.7.35-.25.1,0,.1,0,.2v.25h0l1.45,3.15h6l1.6-1,.15-.15,0-.15,0-.3-.3-.25-1.5-.4,1.2-3.15v-.35l0,0-.2-.2h-.35l-2.8,1-2-2.85a.3.3,0,0,0-.25-.15m-22-1.85v-.35l0-.05-.2-.2h-.35l-2.8,1-2-2.85a.3.3,0,0,0-.25-.15l-.25,0-.25.15-.1.25-.35,3.5-1.7.35-.25.1-.05.1,0,.2v.25h0L42.6,121h6l1.6-1,.15-.15,0-.15,0-.3-.3-.25-1.5-.4,1.2-3.15"/><path class="cls-3" d="M80.9,31.7l1.4,2.45h1.3l.4.9L80,36.9l-1.75-4,2.65-1.2m11.5,6.45,8.85,5.15a4.26,4.26,0,0,1,1.55,1.6,4.07,4.07,0,0,1,.55,2.1V64.25l-2.1,3.3,2.1,3.1V71a44.33,44.33,0,0,1-17.3,11l-3.3,1.1,0,.05L82,83.4a39.82,39.82,0,0,0-9.8,3.95L70.4,88.4l-1.1.7-1.1.8A37.46,37.46,0,0,0,61,97l-1.3,1.75a38.73,38.73,0,0,0-2.8,4.65,46.59,46.59,0,0,0-2.75,6.1l-1.25,3.6-.9,3.2L26,101.15A41.27,41.27,0,0,1,36.35,97l.4-.1,0-.05q15.11-4.69,22.95-15l2.6-3.9a43.55,43.55,0,0,0,4.4-11,53.62,53.62,0,0,1,2.6-6.85q7.4-16.3,23.15-21.9M103.05,94.5l-.25.5a4.75,4.75,0,0,1-1.55,1.6L81,108.45l-3.7-.5A38.86,38.86,0,0,1,96.4,97l.4-.1,0-.05a65.79,65.79,0,0,0,6.3-2.35M75.8,109.65l-2,3-.55.35c.8-1.17,1.65-2.28,2.55-3.35m-12.9,9.4-1,.55-1.8.55h-.8l3.4-1.6.2.5M16.05,85.35V84.7l2.45-3-2.45-4.6V49.2l1.25-1.35A37.43,37.43,0,0,1,31,38.65l1.65-.6,4.1-1.25,0,0q12.49-3.9,20-11.65l1.35-1.5,1.55-1.9L61,19.9l.95.45L73,26.8a37.84,37.84,0,0,0-13.3,11.9A51.77,51.77,0,0,0,52.85,53a44.24,44.24,0,0,1-2.4,7l-2,4q-7.8,13.55-25.8,19.1l.05.05a42.48,42.48,0,0,0-6.65,2.2M75.8,39.85l3.2.45-.45,3.1L75.4,43l.4-3.15M58.5,61.4V66H54L53.9,61.4h4.6m.2,17.5L51.6,80l-1.05-7,7.1-1.1,1.05,7M41.2,85.15,37.6,91.8l-6.55-3.5,3.55-6.7,6.6,3.55m-11.35,8.7-4.05-1,1-4,4.05,1-1,4M60,106.65l1-2,2,1-1.15,2-1.9-1m27-15.75h4.6v4.55H87l0-4.55m-10.4.5,6.15,2.45L80.2,100l-6.15-2.4L76.5,91.4m11.65-6.65L91.1,86l-1.25,2.9L87,87.7l1.2-3"/><path class="cls-4" d="M88.15,84.75l-1.2,3,2.9,1.2L91.1,86l-2.95-1.25M83.6,34.15h2l6.8,4q-15.75,5.6-23.15,21.9a53.62,53.62,0,0,0-2.6,6.85,43.55,43.55,0,0,1-4.4,11l-2.6,3.9q-7.84,10.35-22.95,15l0,.05-.4.1A41.27,41.27,0,0,0,26,101.15L18.2,96.6A4.18,4.18,0,0,1,16.65,95a4.11,4.11,0,0,1-.6-2.15v-7.5a42.48,42.48,0,0,1,6.65-2.2l-.05-.05q18-5.55,25.8-19.1l2-4a44.24,44.24,0,0,0,2.4-7,51.77,51.77,0,0,1,6.8-14.3A37.84,37.84,0,0,1,73,26.8l7.7,4.5.25.4-2.65,1.2,1.75,4,4-1.85-.4-.9M103.35,71v21.9l-.3,1.65a65.79,65.79,0,0,1-6.3,2.35l0,.05-.4.1a38.86,38.86,0,0,0-19.1,11l-1.5,1.7c-.9,1.07-1.75,2.18-2.55,3.35l-10.35,6-.2-.5-3.4,1.6a4.54,4.54,0,0,1-1.75-.55l-.85-.5L52,116.3l.9-3.2,1.25-3.6a46.59,46.59,0,0,1,2.75-6.1,38.73,38.73,0,0,1,2.8-4.65L61,97a37.46,37.46,0,0,1,7.25-7.1l1.1-.8,1.1-.7,1.75-1.05A39.82,39.82,0,0,1,82,83.4l.85-.25,0-.05,3.3-1.1a44.33,44.33,0,0,0,17.3-11m-87.3-23.2V47a4.54,4.54,0,0,1,2.15-3.7l8-4.65H31a37.43,37.43,0,0,0-13.7,9.2L16.05,49.2V47.75m16.6-9.7,1.7-4.15,5-2.9h3l1.35-2.55,13.8-8.1a3.9,3.9,0,0,1,2.15-.65l1.25.2-1.3,1.8L58.1,23.6l-1.35,1.5q-7.55,7.75-20,11.65l0,0-4.1,1.25m43.15,1.8L75.4,43l3.15.4L79,40.3l-3.2-.45m-45.95,54,1-4-4.05-1-1,4,4.05,1m11.35-8.7L34.6,81.6l-3.55,6.7,6.55,3.5,3.6-6.65M58.7,78.9l-1.05-7L50.55,73l1.05,7,7.1-1.1m-.2-17.5H53.9L54,66H58.5V61.4m18,30-2.45,6.15L80.2,100l2.45-6.1L76.5,91.4m10.4-.5,0,4.55H91.5V90.9H86.9M60,106.65l1.9,1,1.15-2-2-1-1,2"/><path class="cls-5" d="M107.4,94.8l.25.1.15.25.85,4.15,1.25-.4h.3l.25.2v.45l-.7,1.8H104.9l-1-3a.42.42,0,0,1,0-.35v0l.25-.15h.35l1.35.55,1-3.15.15-.25.3-.1"/><path class="cls-6" d="M17,24.85l1.05-.6-1,.6H17"/><path class="cls-7" d="M16.05,53.55h-6L8.65,50.4H8.6v-.25l.05-.2,0-.1.25-.1,1.7-.35L11,45.9l.1-.25.25-.15.25,0,.25.15,2,2.85,2.2-.8v5.8"/><path class="cls-8" d="M13.6,98.15l.25,0,.25.15,2,2.85,2.8-1h.35l.2.2.05.05v.35l-1.2,3.15,1.5.4.3.25,0,.3,0,.15-.15.15-1.6,1h-6l-1.45-3.15h-.05v-.25l.05-.2,0-.1.25-.1,1.7-.35.35-3.5.1-.25.25-.15"/><path class="cls-9" d="M71.7,117.35a.3.3,0,0,1,.25.15l2,2.85,2.8-1h.35l.2.2,0,0v.35l-1.2,3.15,1.5.4.3.25,0,.3,0,.15-.15.15-1.6,1h-6l-1.45-3.15h0V122l0-.2,0-.1.25-.1,1.7-.35.35-3.5.1-.25.25-.15.25,0"/><path class="cls-10" d="M60.1,120.15l0,.25,1.25-.4h.3l.25.2v.45l-.7,1.8H56.4l-.95-3a.42.42,0,0,1,0-.35v0a.3.3,0,0,1,.25-.15h.35l.6.25.85.5a4.54,4.54,0,0,0,1.75.55h.8"/><path class="cls-11" d="M49.75,115.5l-1.2,3.15,1.5.4.3.25,0,.3,0,.15-.15.15-1.6,1h-6l-1.45-3.15h0v-.25l0-.2.05-.1.25-.1,1.7-.35.35-3.5.1-.25.25-.15.25,0a.3.3,0,0,1,.25.15l2,2.85,2.8-1h.35l.2.2,0,.05v.35"/></g></g></svg>