<svg xmlns="http://www.w3.org/2000/svg" viewBox="0 0 120 140"><defs><style>.cls-1{fill:#bb6444;}.cls-2{fill:#bb8044;}.cls-3{fill:#aa753e;}.cls-4{fill:#c26948;}.cls-5{fill:#b55f40;}.cls-6{fill:#c68a4e;}</style></defs><title>Asset 25</title><g id="Layer_2" data-name="Layer 2"><g id="Layer_1-2" data-name="Layer 1"><path class="cls-1" d="M16.05,50.5V47a4.54,4.54,0,0,1,2.15-3.7l8-4.65h6.2l2-4.75,5-2.9H42.1l1.45,1.4,3.65-3.85-1.35-1.3,5-2.95.85-.5,5.85-3.45a3.68,3.68,0,0,1,1.6-.6l.55-.05a4.14,4.14,0,0,1,2.2.65l4.1,2.4L80.65,31.3l1.65,2.85h3.3l.2.1-4.15,1.3L84,42.8l7.25-2.3L90,36.75l11.25,6.55a4.26,4.26,0,0,1,1.55,1.6,4.07,4.07,0,0,1,.55,2.1V63.9L95.05,63,94,72.25l9.3,1,.1-.85v20.4A4.36,4.36,0,0,1,102.8,95a4.75,4.75,0,0,1-1.55,1.6l-.65.4-.3-.4-2.4,2-1.1.65-.6.35-5.1,3-2.2-7-7.25,2.3,2.3,7.25,5.75-1.75-8.7,5-4.1-.55-3.1,4.75-3.25,1.9-.9-2.65-4.5,1.55L66.4,117l-4.5,2.6a4.63,4.63,0,0,1-2.2.55,4.36,4.36,0,0,1-2.15-.55L44.4,111.9l-1.1-3.35-3,1L31,104.1l-2.95-1.75L18.2,96.6A4.18,4.18,0,0,1,16.65,95a4.11,4.11,0,0,1-.6-2.15V84.7l2.45-3-1.15-2.15L20,76.7l-3.9-3.55V60.5L21,61.6l2.15-9.5-7-1.6m9.7,2L27.9,57.3l4.8-2.15-2.15-4.9-4.8,2.2m-.9,33.45-.55,5.25,5.25.5.55-5.25-5.25-.5m60.6-33.8L76,50l-2.1,9.55,9.45,2.1,2.15-9.5M49.4,41.7l1.85-5.05-5-1.9-1.9,5,5,2m15.75,9.4,1.55,4.45,4.45-1.5-1.5-4.5-4.5,1.55M53.55,39.25l.6,5.25,5.25-.6-.6-5.3-5.25.65M37.2,41.7l4.15-3.35L38,34.25l-4.1,3.35,3.35,4.1m8.4,11.7-2.3-7.25-7.2,2.3,2.25,7.2L45.6,53.4m44.65,3.9,4.85-2.15-2.2-4.9-4.8,2.2,2.15,4.85M97.7,76l-3.1,4.3L99,83.35l3-4.3L97.7,76m-10.5,10-.55,5.25,5.25.5.55-5.25-5.25-.5M74.45,98.6,77,89l-9.6-2.5-2.45,9.6,9.55,2.55m-5-21.35,6.75,6.2L82.3,76.7l-6.7-6.15-6.2,6.7M56.85,76.7H56.8l-7.3,1.75,1.7,7.4,7.4-1.75-1.75-7.4m9.9-2.55-2.15-4.8L59.7,71.5l2.2,4.85,4.85-2.2M33.85,100l3.35,4.1,4.15-3.35L38,96.6,33.85,100M42,64l-9.35-1-1,9.3,9.3,1,.65-5.6h.05L42,64m4.25,33.15-1.9,4.95,5,2,1.85-5-5-1.9"/><path class="cls-2" d="M42.1,31H39.35l-5,2.9-2,4.75H26.2l-8,4.65A4.54,4.54,0,0,0,16.05,47V77.1l1.3,2.45L18.5,81.7l-2.45,3v8.15a4.11,4.11,0,0,0,.6,2.15,4.18,4.18,0,0,0,1.55,1.6l9.85,5.75-1.4-.4-1.2,4.55,4.5,1.2L31,104.1l9.3,5.4,4.1,2.4,13.15,7.7a4.36,4.36,0,0,0,2.15.55,4.63,4.63,0,0,0,2.2-.55l4.5-2.6,4.15-2.45,3.25-1.9,3.1-4.75,4.1.55,8.7-5,1.5-.5-.1-.35,5.1-3,1,6.75,7.1-1.1-1-7-6.45,1,1.1-.65L100.55,97h0l.65-.4A4.75,4.75,0,0,0,102.8,95a4.36,4.36,0,0,0,.55-2.15V70.65l-2.1-3.1,2.1-3.3V47a4.07,4.07,0,0,0-.55-2.1,4.26,4.26,0,0,0-1.55-1.6L90,36.75l-4.2-2.5-.2-.1H82.3L80.65,31.3,66,22.75l.6-5.35-7.1-.8-.35,3.15a3.68,3.68,0,0,0-1.6.6L51.7,23.8l-.9.15.05.35-5,2.95-2.1,1.2L42.4,31h-.3M12.6,56.4l2-.95-.85-2.05-2,.9.85,2.1M0,35,60,0l60,35v70L60,140,0,105V35M104.55,54.8l1.2,4.45,4.4-1.25L109,53.6l-4.4,1.2m-.35,6.65-.75,6.6,6.55.75.75-6.55-6.55-.8M105,93.7l1.75,4,4-1.85-1.75-4-4,1.85"/><path class="cls-3" d="M28.05,102.35,31,104.1,30,107.7l-4.5-1.2,1.2-4.55,1.4.4m68.15-2.8.6-.35,6.45-1,1,7-7.1,1.1-1-6.75M66,22.75l-4.1-2.4a4.14,4.14,0,0,0-2.2-.65l-.55.05.35-3.15,7.1.8L66,22.75M12.6,56.4l-.85-2.1,2-.9.85,2.05-2,.95m92-1.6,4.4-1.2,1.2,4.4-4.4,1.25-1.2-4.45m-.35,6.65,6.55.8L110,68.8l-6.55-.75.75-6.6"/><path class="cls-4" d="M16.05,50.5l7.05,1.6L21,61.6l-4.9-1.1v-10m24.25,59,3-1,1.1,3.35-4.1-2.4m49.4-6.1L84,105.15l-2.3-7.25,7.25-2.3,2.2,7,.1.35-1.5.5M25.75,52.45l4.8-2.2,2.15,4.9L27.9,57.3l-2.15-4.85m-.9,33.45,5.25.5-.55,5.25-5.25-.5.55-5.25m65.4-28.6L88.1,52.45l4.8-2.2,2.2,4.9L90.25,57.3M97.7,76l4.3,3.1-3,4.3-4.35-3.1L97.7,76m-30.95-1.8-4.85,2.2L59.7,71.5l4.9-2.15,2.15,4.8m-20.5,23,5,1.9-1.85,5-5-2,1.9-4.95"/><path class="cls-5" d="M16.05,73.15,20,76.7l-2.6,2.85-1.3-2.45V73.15M66.4,117l-1.25-3.55,4.5-1.55.9,2.65L66.4,117M97.9,98.55l2.4-2,.3.4h0L97.9,98.55m5.45-26.1-.1.85-9.3-1,1.1-9.3,8.3.95v.35l-2.1,3.3,2.1,3.1v1.8M90,36.75l1.2,3.75L84,42.8l-2.3-7.25,4.15-1.3,4.2,2.5m-44.15-9.5,1.35,1.3L43.55,32.4,42.1,31h.3l1.35-2.55,2.1-1.2M45.6,53.4l-7.25,2.25-2.25-7.2,7.2-2.3,2.3,7.25M37.2,41.7l-3.35-4.1L38,34.25l3.4,4.1L37.2,41.7m16.35-2.45,5.25-.65.6,5.3-5.25.6-.6-5.25M65.15,51.1l4.5-1.55,1.5,4.5-4.45,1.5L65.15,51.1M49.4,41.7l-5-2,1.9-5,5,1.9L49.4,41.7M85.45,52.1,83.3,61.6l-9.45-2.1L76,50l9.5,2.15m-16,25.15,6.2-6.7,6.7,6.15-6.15,6.75-6.75-6.2m5,21.35L64.9,96.05l2.45-9.6L77,89l-2.5,9.65M87.2,85.9l5.25.5-.55,5.25-5.25-.5.55-5.25M56.85,76.7l1.75,7.4-7.4,1.75-1.7-7.4,7.3-1.75h.05M42,64l-.4,3.7h-.05l-.65,5.6-9.3-1,1-9.3L42,64m-8.15,36L38,96.6l3.4,4.1-4.15,3.35L33.85,100"/><path class="cls-6" d="M51.7,23.8l-.85.5L50.8,24l.9-.15M105,93.7l4-1.85,1.75,4-4,1.85-1.75-4"/></g></g></svg>