<svg xmlns="http://www.w3.org/2000/svg" viewBox="0 0 120 140"><defs><style>.cls-1{fill:#bb6444;}.cls-2{fill:#c26948;}.cls-3{fill:#b55f40;}.cls-4{fill:#727979;}.cls-5{fill:#d5e5e5;}.cls-6{fill:#e9fafa;}.cls-7{fill:#3aacf7;}.cls-8{fill:#3090d0;}.cls-9{fill:#1f5e87;}.cls-10{fill:#b9c6c6;}.cls-11{fill:#856a00;}.cls-12{fill:#ecbc00;}.cls-13{fill:#a6b1b1;}.cls-14{fill:#fc0;}.cls-15{fill:#909a9a;}.cls-16{fill:#390;}.cls-17{fill:#593269;}.cls-18{fill:#c16ee2;}.cls-19{fill:#79468e;}.cls-20{fill:#9b59b6;}.cls-21{fill:#ecdcb8;}.cls-22{fill:#d0a500;}</style></defs><title>Asset 110</title><g id="Layer_2" data-name="Layer 2"><g id="Layer_1-2" data-name="Layer 1"><path class="cls-1" d="M92.2,29.35l.55-5.25-5.25-.55L87,28.85l5.25.5m-3,3.95L82,35.6l2.3,7.25,7.25-2.3L89.2,33.3M85.75,52.15,76.25,50l-2.1,9.55,9.45,2.1,2.15-9.5M93.2,50.3l-4.8,2.2,2.15,4.85L95.4,55.2l-2.2-4.9M109,34.8l-1.9,5,5,2,1.85-5-5-1.9m7.3,19.35-5.35-.5-.5,5.3,5.25.5.6-5.3m-86.4-24.8.55-5.25-5.25-.55-.55,5.3,5.25.5M5.4,39.7,2.3,44l4.25,3.1,3.1-4.3-4.25-3m18,12.45L13.9,50l-2.1,9.55,9.45,2.1,2.15-9.5M70,49.6l-4.5,1.55L67,55.6l4.45-1.5L70,49.6M59.7,44l-.6-5.3-5.25.65.6,5.25L59.7,44M44.65,39.8l5.05,2,1.85-5-5-1.9-1.9,5M45.9,53.45,43.6,46.2l-7.2,2.3,2.25,7.2,7.25-2.25M34.15,37.65l3.35,4.1,4.15-3.35-3.4-4.1-4.1,3.35M43.65,25,40,28.8l3.85,3.65L47.5,28.6,43.65,25M62.2,14l4.85-2.15L64.9,7.05,60,9.2,62.2,14M60,0l60,35v70L60,140,0,105V35L60,0m2.2,76.4,4.85-2.2L64.9,69.4,60,71.55l2.2,4.85M30.85,50.3l-4.8,2.2,2.15,4.85L33,55.2l-2.15-4.9m11,17.45.4-3.7L33,63,31.9,72.3l9.3,1,.65-5.6h0m15.25,9h0L49.8,78.5l1.7,7.4,7.4-1.75-1.75-7.4m-12.5,25.4,5.05,1.95,1.85-5-5-1.9-1.9,5M5.3,86.5,2.8,96.1l9.6,2.55L14.9,89,5.3,86.5m15-9.75-6.7-6.15-6.2,6.7,6.7,6.2,6.2-6.75m47.4,9.75L65.2,96.1l9.55,2.55L77.25,89l-9.6-2.5M34.15,100l3.35,4.1,4.15-3.35-3.4-4.1L34.15,100m-9-14L24.6,91.2l5.25.5.55-5.25L25.15,86m40.3,27.55L67,118l4.45-1.55L70,112l-4.5,1.55m-1.4,8.9-5.2.85.8,5.2,5.25-.8-.85-5.25m-34.2-13.15-4.75,2.2,2.15,4.85,4.8-2.15-2.2-4.9m82.2-5.15,1.85-5-5-1.9-1.9,5,5,1.95M43.6,108.6l-7.2,2.25,2.25,7.25,7.25-2.3-2.3-7.2M95.35,63l-1.1,9.3,9.3,1,.65-5.6h0l.4-3.7-9.3-1m7,16.1L98,76l-3.1,4.3,4.35,3.1,3-4.3M82.6,76.75,75.9,70.6l-6.2,6.7,6.75,6.2,6.15-6.75m6.6,18.9L82,98l2.3,7.25L91.5,103l-2.3-7.3m11.4,1L96.5,100l3.35,4.1,4.15-3.35-3.4-4.1M87.5,86,87,91.2l5.25.5.55-5.25L87.5,86m-.8,26.15L77.2,110l-2.1,9.55,9.45,2.1,2.15-9.5"/><path class="cls-2" d="M86.7,112.1l-2.15,9.5-9.45-2.1L77.2,110l9.5,2.15m5.5-82.75L87,28.85l.55-5.3,5.25.55-.55,5.25M109,34.8l5,1.9-1.85,5-5-2,1.9-5M93.2,50.3l2.2,4.9-4.85,2.15L88.4,52.5l4.8-2.2M29.85,29.35l-5.25-.5.55-5.3,5.25.55-.55,5.25M23.4,52.15l-2.15,9.5-9.45-2.1L13.9,50l9.5,2.15m7.45-1.85L33,55.2l-4.8,2.15L26.05,52.5l4.8-2.2M62.2,76.4,60,71.55l4.9-2.15,2.15,4.8L62.2,76.4M44.65,102.15l1.9-5,5,1.9-1.85,5-5.05-1.95M25.15,86l5.25.5-.55,5.25-5.25-.5L25.15,86M43.6,108.6l2.3,7.2-7.25,2.3-2.25-7.25,7.2-2.25m68.45-4.5-5-1.95,1.9-5,5,1.9-1.85,5m-9.75-25-3,4.3L94.9,80.3,98,76l4.3,3.1M89.2,95.65l2.3,7.3-7.25,2.25L82,98l7.25-2.3"/><path class="cls-3" d="M85.75,52.15l-2.15,9.5-9.45-2.1L76.25,50l9.5,2.15M89.2,33.3l2.3,7.25-7.25,2.3L82,35.6l7.25-2.3m27.05,20.85-.6,5.3L110.4,59l.5-5.3,5.35.5M5.4,39.7l4.25,3-3.1,4.3L2.3,44,5.4,39.7M62.2,14,60,9.2l4.9-2.15,2.15,4.8L62.2,14M43.65,25,47.5,28.6l-3.65,3.85L40,28.8,43.65,25m-9.5,12.7,4.1-3.35,3.4,4.1L37.5,41.75l-3.35-4.1M45.9,53.45,38.65,55.7,36.4,48.5l7.2-2.3,2.3,7.25M44.65,39.8l1.9-5,5,1.9-1.85,5-5.05-2M59.7,44l-5.25.6-.6-5.25,5.25-.65.6,5.3M70,49.6l1.5,4.5L67,55.6l-1.55-4.45L70,49.6M57.15,76.75l1.75,7.4L51.5,85.9l-1.7-7.4,7.3-1.75h0m-15.25-9h0l-.65,5.6-9.3-1L33,63l9.35,1-.4,3.7M34.15,100l4.1-3.35,3.4,4.1L37.5,104.1,34.15,100m33.5-13.5,9.6,2.5-2.5,9.65L65.2,96.1l2.45-9.6m-47.4-9.75-6.2,6.75-6.7-6.2,6.2-6.7,6.7,6.15M5.3,86.5,14.9,89l-2.5,9.65L2.8,96.1l2.5-9.6m24.55,22.75,2.2,4.9-4.8,2.15-2.15-4.85,4.75-2.2m34.2,13.15.85,5.25-5.25.8-.8-5.2,5.2-.85m1.4-8.9L70,112l1.5,4.5L67,118l-1.55-4.5M95.35,63l9.3,1-.4,3.7h0l-.65,5.6-9.3-1,1.1-9.3M82.6,76.75,76.45,83.5,69.7,77.3l6.2-6.7,6.7,6.15M87.5,86l5.25.5L92.2,91.7,87,91.2,87.5,86m13.1,10.7,3.4,4.1-4.15,3.35L96.5,100l4.1-3.35"/><path class="cls-4" d="M5.5,84.05,8.6,89.7l6.15,2.8,3.1-2.8,3.2-3.65,1,1.85L19.4,91l-.2.2L16.1,94a2.06,2.06,0,0,1-1.05.5L14,94.35,7.8,91.55l-1-.9L3.75,85a2,2,0,0,1-.25-1.15,1.72,1.72,0,0,1,.45-1l4.15-5h2.55L5.5,84.05m7.4-12L15,69.45l.3-.25,3.35-2.8a1.52,1.52,0,0,1,1-.45l1.1.15,6.15,2.8,1,.9,3,5.9.2,1.15-.45,1.05L27,82.1l-1-1.85.05,0,3.05-3.6-3.05-5.9L19.9,67.9l-3.35,2.8L15.5,72H12.9"/><path class="cls-5" d="M15.5,72l1.05-1.3,3.35-2.8L16.45,72H15.5m10.55-1.3,3.05,5.9-3.05,3.6L22.9,74.55l0,0,3.2-3.8m-15.4,7.1h.85L8.6,81.2,5.5,84.05l5.15-6.25M21.05,86v0l-3.2,3.65-3.1-5.65,3.15-3.7L21.05,86"/><path class="cls-6" d="M19.9,67.9l6.15,2.8-3.2,3.8L16.5,72h-.05l3.45-4.1m-8.4,9.9,6.4,2.55-3.15,3.7L8.6,81.2l2.9-3.4"/><path class="cls-7" d="M11.5,77.8,16.45,72h.05l6.35,2.5-5,5.85L11.5,77.8"/><path class="cls-8" d="M11.5,77.8h-.85L15.5,72h.95L11.5,77.8m14.55,2.4-.05,0L21.05,86,17.9,80.35l5-5.85,0,0,3.15,5.65"/><path class="cls-9" d="M27,82.1l-4.95,5.8-1-1.85v0L26,80.25l1,1.85M8.1,77.8,12.9,72h2.6l-4.85,5.8H8.1"/><path class="cls-10" d="M5.5,84.05,8.6,81.2l6.15,2.85,3.1,5.65-3.1,2.8L8.6,89.7,5.5,84.05"/><path class="cls-11" d="M23.85,47.8,52.1,14.35l.85-.6,1-.05a1.76,1.76,0,0,1,1,.5l8.8,8,1.4-1.65a2.13,2.13,0,0,1,.85-.6l1,0a1.76,1.76,0,0,1,1,.5l8.75,8,.1-.1,1.35-1.6a2.13,2.13,0,0,1,.85-.6l1-.05a1.76,1.76,0,0,1,1,.5l8.75,8,1.45-1.7.85-.6,1.05-.1.95.5,13.1,11.9-1.4,1.65v-.2L92.75,34,90,37.25,88.55,35.9l-8.85-8L77,31.15,75.6,29.9l-8.95-8.1L63.9,25l-1.6-1.45-8.7-7.9L25.35,49.1v0l-1.5-1.35"/><path class="cls-12" d="M62.3,23.55,63.9,25,38.4,55.2v5.7l-4.45-4L62.3,23.55M75.6,29.9,77,31.15l-25.5,30.1V67l-4.2-3.8L75.6,29.9m13,6L90,37.25,64.45,67.4v5.75l-4.3-4,28.4-33.3"/><path class="cls-4" d="M107.2,44.4l.45.65.15.8v7.9l7,3.3.85.75.3,1.05v2.3a2,2,0,0,1-.45,1.3L87.3,95.8a2.11,2.11,0,0,1-1.1.65l-1.3-.15L24.5,68.1a2.09,2.09,0,0,1-.8-.7,1.89,1.89,0,0,1-.35-1.1V49.1a1.89,1.89,0,0,1,.5-1.3l1.5,1.35V66.3l16.95,8L46.1,76,58,81.5,71.2,87.7l14.55,6.8L114,61.15v-2.3L105.8,55v-9l1.4-1.65"/><path class="cls-13" d="M105.8,45.85V55l-4.6,5.5-.4.4V55.45l-2.4,2.8v5.5L77.5,88.4V79.2l28.3-33.35M46.1,76l-3.8-1.75V68.7l3.8,1.8V76M58,81.5V76.05L71.2,82.2v5.5L58,81.5m27.8,13V92.2L114,58.85v2.3L85.75,94.5"/><path class="cls-14" d="M25.35,49.1,53.6,15.65l8.7,7.9L34,56.85l-8.6-7.75M63.9,25l2.75-3.2,8.95,8.1L47.25,63.2l-8.85-8L63.9,25M77,31.15,79.7,27.9l8.85,8L60.15,69.2l-8.7-8L77,31.15m13,6.1L92.75,34l13,11.9L77.5,79.2l-13-11.8L90,37.25"/><path class="cls-10" d="M25.35,49.15v0L34,56.85l4.45,4V55.2l8.85,8,4.2,3.8V61.25l8.7,8,4.3,4V67.4l13,11.8v9.2l8.25,3.8v2.3L71.2,87.7V82.2L58,76.05V81.5L46.1,76V70.5l-3.8-1.8v5.55l-16.95-8V49.15"/><path class="cls-15" d="M100.5,61.25v0l-2.1,2.45v-5.5l2.4-2.8V60.9l-.3.35"/><path class="cls-16" d="M100.5,61.25l.3-.35.4-.4-.7.75"/><path class="cls-5" d="M100.5,61.25l.7-.75,4.6-5.5,8.2,3.85L85.75,92.2,77.5,88.4,98.4,63.75l2.1-2.45v0"/><path class="cls-17" d="M41.45,75.4l6.65-1.05V52.6l-3.6-11-13.3,2.6V65.9l3.15,10.6L37.6,76v1.6l1.15,2.5,2.7-.7v-4M29.65,43a1.74,1.74,0,0,1,1.2-.7l13.3-2.6A1.76,1.76,0,0,1,45.5,40a1.88,1.88,0,0,1,.9,1.1L50,52l.1.6V74.35a2,2,0,0,1-.45,1.3,2.21,2.21,0,0,1-1.25.7l-4.95.75v2.3a2.05,2.05,0,0,1-.4,1.25l-1.1.7-2.7.7L37.9,81.9A1.91,1.91,0,0,1,37,81l-1.15-2.5,0-.15-1.1.2a2,2,0,0,1-2.2-1.4L29.3,66.5l-.1-.6V44.25A1.92,1.92,0,0,1,29.65,43"/><path class="cls-18" d="M34.35,55,31.2,44.25l13.3-2.6,3.6,11L34.35,55"/><path class="cls-19" d="M34.35,55V76.5L31.2,65.9V44.25L34.35,55"/><path class="cls-20" d="M34.35,55,48.1,52.6V74.35L41.45,75.4,37.6,76l-3.25.5V55"/><path class="cls-21" d="M41.45,75.4v4l-2.7.7L37.6,77.6V76l3.85-.6"/><path class="cls-6" d="M32.9,74.9l6.15,2.8-3.2,3.8L29.5,79h-.05l3.45-4.1m-8.4,9.9,6.4,2.55-3.15,3.7L21.6,88.2l2.9-3.4"/><path class="cls-4" d="M39.05,77.7,32.9,74.9l-3.35,2.8L28.5,79H25.9L28,76.45l.3-.25,3.35-2.8a1.52,1.52,0,0,1,1-.45l1.1.15,6.15,2.8,1,.9,3,5.9.2,1.15-.45,1.05L40,89.1l-1-1.85,0,0,3.05-3.6-3.05-5.9m-4,17.2L32.4,98l-.2.2L29.1,101a2.06,2.06,0,0,1-1.05.5l-1.1-.15-6.15-2.8a1.94,1.94,0,0,1-.95-.9L16.75,92a2,2,0,0,1-.25-1.15,1.72,1.72,0,0,1,.45-1l4.15-5h2.55L18.5,91.05l3.1,5.65,6.15,2.8,3.1-2.8,3.2-3.65,1,1.85"/><path class="cls-9" d="M35.05,94.9l-1-1.85v0l5-5.75,1,1.85-5,5.8M25.9,79h2.6l-4.85,5.8H21.1L25.9,79"/><path class="cls-8" d="M39.05,87.2l0,0-5,5.75L30.9,87.35l5-5.85,0,0,3.15,5.65M28.5,79h.95L24.5,84.8h-.85L28.5,79"/><path class="cls-5" d="M28.5,79l1.05-1.3,3.35-2.8L29.45,79H28.5m7.35,2.5,3.2-3.8,3.05,5.9-3.05,3.6L35.9,81.55l0,0m-5,5.85L34.05,93v0l-3.2,3.65-3.1-5.65,3.15-3.7m-12.4,3.7,5.15-6.25h.85l-2.9,3.4-3.1,2.85"/><path class="cls-7" d="M29.45,79h.05l6.35,2.5-5,5.85L24.5,84.8,29.45,79"/><path class="cls-10" d="M27.75,91.05l3.1,5.65-3.1,2.8L21.6,96.7l-3.1-5.65,3.1-2.85,6.15,2.85"/><path class="cls-11" d="M78.4,73.7l-19-8.85-6.85,2.2L32.9,90.35,30.8,91v-.55a1.89,1.89,0,0,1,.5-1.3l19.8-23.4a1.64,1.64,0,0,1,.9-.6L58.85,63l1.45.1,19,8.85.75.55,6.75,8.6-1.5,1.75v-.45L78.4,73.7"/><path class="cls-22" d="M32.9,90.35l19.7-23.3,6.85-2.2L39.7,88.2l-6.9,2.25.1-.1"/><path class="cls-4" d="M32.9,90.35l-.1.1v11.9l5.5,2.6L60,115.05l5.5,2.6,19.8-23.4V82.8l1.5-1.75.1,0a2.05,2.05,0,0,1,.4,1.25v11.9a2,2,0,0,1-.45,1.3L67,119a2.11,2.11,0,0,1-1.1.65l-1.3-.15L32,104.15l-.8-.7a1.89,1.89,0,0,1-.35-1.1V91l2.1-.65"/><path class="cls-10" d="M32.8,90.45l6.9-2.25,18.9,8.85,6.85,8.7v11.9l-5.5-2.6v-7.2L38.3,97.7V105l-5.5-2.6V90.45"/><path class="cls-14" d="M59.45,64.85l19,8.85L58.6,97.05,39.7,88.2,59.45,64.85"/><path class="cls-13" d="M85.25,82.35v11.9l-19.8,23.4v-11.9l19.8-23.4M38.3,105V97.7L60,107.85v7.2L38.3,105"/><path class="cls-12" d="M78.4,73.7l6.85,8.65-19.8,23.4-6.85-8.7L78.4,73.7"/></g></g></svg>