<svg xmlns="http://www.w3.org/2000/svg" xmlns:xlink="http://www.w3.org/1999/xlink" viewBox="0 0 120 140"><defs><style>.cls-1{fill:#bb6444;}.cls-2{fill:#c26948;}.cls-3{fill:#b55f40;}.cls-4{fill:#727979;}.cls-5{fill:#434343;}.cls-6{fill:#cad9d9;}.cls-7{fill:#b9c6c6;}.cls-8{fill:#856a00;}.cls-9{fill:#ecbc00;}.cls-10{fill:#fc0;}.cls-11{fill:#743e29;}.cls-12{fill:#ad5c3e;}.cls-13{fill:#d06e4b;}.cls-14{fill:#593269;}.cls-15{fill:#79468e;}.cls-16{fill:#c16ee2;}.cls-17{fill:#9b59b6;}.cls-18{fill:#ecdcb8;}.cls-19{fill:url(#linear-gradient);}.cls-20{fill:#a6b1b1;}.cls-21{fill:#cba200;}.cls-22{fill:#d5e5e5;}.cls-23{fill:#934e35;}</style><linearGradient id="linear-gradient" x1="-1599.2" y1="-159.96" x2="39.2" y2="-159.96" gradientTransform="matrix(-0.01, -0.01, -0.02, 0.02, 60.65, 49.69)" gradientUnits="userSpaceOnUse"><stop offset="0" stop-color="#fc0"/><stop offset="1" stop-color="#ecbc00"/></linearGradient></defs><title>Asset 113</title><g id="Layer_2" data-name="Layer 2"><g id="Layer_1-2" data-name="Layer 1"><path class="cls-1" d="M93.2,50.3l-4.8,2.2,2.15,4.85L95.4,55.2l-2.2-4.9m-.45-26.2-5.25-.55L87,28.85l5.25.5.55-5.25m-7,28.05L76.25,50l-2.1,9.55,9.45,2.1,2.15-9.5M89.2,33.3,82,35.6l2.3,7.25,7.25-2.3L89.2,33.3m24.7,3.4-5-1.9-1.9,5,5,2,1.85-5M82.6,76.75,75.9,70.6l-6.2,6.7,6.75,6.2,6.15-6.75m28.3-23.1-.5,5.3,5.25.5.6-5.3-5.35-.5m-7.35,19.7.65-5.6h0l.4-3.7-9.3-1-1.1,9.3,9.3,1M89.2,95.65,82,98l2.3,7.25L91.5,103l-2.3-7.3m14.8,5.1-3.4-4.1L96.5,100l3.35,4.1,4.15-3.35m-11.8-9,.55-5.25L87.5,86,87,91.2l5.25.5m7-8.3,3-4.3L98,76l-3.1,4.3,4.35,3.1M109,97.2l-1.9,5,5,1.95,1.85-5-5-1.9M70,49.6l-4.5,1.55L67,55.6l4.45-1.5L70,49.6M53.85,39.3l.6,5.25L59.7,44l-.6-5.3-5.25.65M43.6,46.2l-7.2,2.3,2.25,7.2,7.25-2.25L43.6,46.2m-2-7.8-3.4-4.1-4.1,3.35,3.35,4.1,4.15-3.35m4.9-3.6-1.9,5,5.05,2,1.85-5-5-1.9m1-6.2L43.65,25,40,28.8l3.85,3.65L47.5,28.6M62.2,14l4.85-2.15L64.9,7.05,60,9.2,62.2,14M30.4,24.1l-5.25-.55-.55,5.3,5.25.5.55-5.25M2.3,44l4.25,3.1,3.1-4.3-4.25-3L2.3,44m21.1,8.2L13.9,50l-2.1,9.55,9.45,2.1,2.15-9.5m7.45-1.85-4.8,2.2,2.15,4.85L33,55.2l-2.15-4.9M5.3,86.5,2.8,96.1l9.6,2.55L14.9,89,5.3,86.5m8.25-15.9-6.2,6.7,6.7,6.2,6.2-6.75-6.7-6.15M33,63,31.9,72.3l9.3,1,.65-5.6h0l.4-3.7L33,63M24.6,91.2l5.25.5.55-5.25L25.15,86,24.6,91.2M57.15,76.75h0L49.8,78.5l1.7,7.4,7.4-1.75-1.75-7.4M46.55,97.2l-1.9,5,5.05,1.95,1.85-5-5-1.9M64.9,69.4,60,71.55l2.2,4.85,4.85-2.2L64.9,69.4m.55,44.1L67,118l4.45-1.55L70,112l-4.5,1.55m-1.4,8.9-5.2.85.8,5.2,5.25-.8-.85-5.25m3.6-35.9L65.2,96.1l9.55,2.55L77.25,89l-9.6-2.5m-26,14.25-3.4-4.1L34.15,100l3.35,4.1,4.15-3.35m4.25,15-2.3-7.2-7.2,2.25,2.25,7.25,7.25-2.3m-20.8-4.35,2.15,4.85,4.8-2.15-2.2-4.9-4.75,2.2M0,105V35L60,0l60,35v70L60,140,0,105m75.1,14.5,9.45,2.1,2.15-9.5L77.2,110l-2.1,9.55"/><path class="cls-2" d="M75.1,119.5,77.2,110l9.5,2.15-2.15,9.5-9.45-2.1M92.75,24.1l-.55,5.25L87,28.85l.55-5.3,5.25.55m.45,26.2,2.2,4.9-4.85,2.15L88.4,52.5l4.8-2.2m20.7-13.6-1.85,5-5-2,1.9-5,5,1.9m-24.7,59,2.3,7.3-7.25,2.25L82,98l7.25-2.3M109,97.2l5,1.9-1.85,5-5-1.95,1.9-5m-9.7-13.8L94.9,80.3,98,76l4.3,3.1-3,4.3M30.4,24.1l-.55,5.25-5.25-.5.55-5.3,5.25.55m.45,26.2L33,55.2l-4.8,2.15L26.05,52.5l4.8-2.2M23.4,52.15l-2.15,9.5-9.45-2.1L13.9,50l9.5,2.15M24.6,91.2,25.15,86l5.25.5-.55,5.25-5.25-.5M64.9,69.4l2.15,4.8L62.2,76.4,60,71.55l4.9-2.15M46.55,97.2l5,1.9-1.85,5-5.05-1.95,1.9-5m-.65,18.6-7.25,2.3-2.25-7.25,7.2-2.25,2.3,7.2"/><path class="cls-3" d="M89.2,33.3l2.3,7.25-7.25,2.3L82,35.6l7.25-2.3M85.75,52.15l-2.15,9.5-9.45-2.1L76.25,50l9.5,2.15m17.8,21.2-9.3-1,1.1-9.3,9.3,1-.4,3.7h0l-.65,5.6m7.35-19.7,5.35.5-.6,5.3L110.4,59l.5-5.3M82.6,76.75,76.45,83.5,69.7,77.3l6.2-6.7,6.7,6.15m9.6,15L87,91.2,87.5,86l5.25.5L92.2,91.7m11.8,9-4.15,3.35L96.5,100l4.1-3.35,3.4,4.1M62.2,14,60,9.2l4.9-2.15,2.15,4.8L62.2,14M47.5,28.6l-3.65,3.85L40,28.8,43.65,25,47.5,28.6m-1,6.2,5,1.9-1.85,5-5.05-2,1.9-5m-4.9,3.6L37.5,41.75l-3.35-4.1,4.1-3.35,3.4,4.1m2,7.8,2.3,7.25L38.65,55.7,36.4,48.5l7.2-2.3m10.25-6.9,5.25-.65.6,5.3-5.25.6-.6-5.25M70,49.6l1.5,4.5L67,55.6l-1.55-4.45L70,49.6M2.3,44,5.4,39.7l4.25,3-3.1,4.3L2.3,44M33,63l9.35,1-.4,3.7h0l-.65,5.6-9.3-1L33,63m-19.4,7.6,6.7,6.15-6.2,6.75-6.7-6.2,6.2-6.7M5.3,86.5,14.9,89l-2.5,9.65L2.8,96.1l2.5-9.6m51.85-9.75,1.75,7.4L51.5,85.9l-1.7-7.4,7.3-1.75h0m-15.5,24L37.5,104.1,34.15,100l4.1-3.35,3.4,4.1m26-14.25,9.6,2.5-2.5,9.65L65.2,96.1l2.45-9.6m-3.6,35.9.85,5.25-5.25.8-.8-5.2,5.2-.85m1.4-8.9L70,112l1.5,4.5L67,118l-1.55-4.5m-40.35-2,4.75-2.2,2.2,4.9-4.8,2.15-2.15-4.85"/><path class="cls-4" d="M36.05,47.3l1.8-26.2a1.68,1.68,0,0,1,.5-1.1L41,16.9a1.27,1.27,0,0,1,.7-.55l.85-.2,4.9.15.9.25.7.6,2.25,3.2.35,1,1.85,26.7L51.6,50.25v0l-2-28.7-2.25-3.2-4.9-.15-2.6,3.1-2,28.55v.05l-1.8-2.55"/><path class="cls-5" d="M43.25,23.1,42,21.3l1.45-1.7,2.7.1,1.3,1.75L46,23.2l-2.75-.1"/><path class="cls-6" d="M43.25,23.1l2.75.1,1.45-1.75-1.3-1.75-2.7-.1L42,21.3l1.25,1.8m-3.4-1.85,2.6-3.1,4.9.15,2.25,3.2L47,24.6l1,29.9-6.85-.15,1-29.9-2.3-3.2"/><path class="cls-7" d="M39.85,21.25l2.3,3.2-1,29.9L37.85,49.8l2-28.55m9.75.25,2,28.7L48,54.5,47,24.6l2.6-3.1"/><path class="cls-8" d="M36.05,47.3l1.8,2.55-2,28.55L40,84.2l8.85.25,4.7-5.6L51.6,50.25l1.85-2.15,2.1,30.65a2,2,0,0,1-.45,1.4l-4.7,5.6-.7.55-.9.15L40,86.2l-.9-.2-.65-.65-4.1-5.8a1.9,1.9,0,0,1-.4-1.3L36.05,47.3"/><path class="cls-9" d="M37.85,49.85V49.8l3.25,4.55L40,84.2l-4.1-5.8,2-28.55m13.75.35v0l1.95,28.6-4.7,5.6L48,54.5l3.65-4.3"/><path class="cls-10" d="M41.1,54.35,48,54.5l.9,30L40,84.2l1.1-29.85"/><path class="cls-11" d="M20.55,64.8l1,.2,5.5,2.6.4.25,8.2,6.65.7,1a2.14,2.14,0,0,1-.05,1.2L32.7,86.2l-.6.85-1,.45-17.55,3-1.2-.2a2,2,0,0,1-.9-.85L5.65,78.65a1.78,1.78,0,0,1-.2-1.3,1.74,1.74,0,0,1,.65-1.1l8.4-7.55.2-.2,4.9-3.35a1.8,1.8,0,0,1,.95-.35m5.65,4.6-5.5-2.6-4.9,3.35L7.4,77.7l5.85,10.75,17.55-3,3.6-9.45L26.2,69.4"/><path class="cls-1" d="M26.2,69.4l-1.05,2.7L17.6,73.35l-1.8-3.2,4.9-3.35,5.5,2.6"/><path class="cls-12" d="M26.2,69.4l8.2,6.65L30.8,85.5,25.15,72.1l1.05-2.7m-10.4.75,1.8,3.2-4.35,15.1L7.4,77.7l8.4-7.55"/><path class="cls-13" d="M17.6,73.35l7.55-1.25L30.8,85.5l-17.55,3,4.35-15.1"/><path class="cls-4" d="M23.05,59.3l1.8-26.2a1.68,1.68,0,0,1,.5-1.1L28,28.9l.7-.55.85-.2,4.9.15a1.65,1.65,0,0,1,.9.25l.7.6,2.25,3.2.35,1,1.85,26.7L38.6,62.25v0l-2-28.7-2.25-3.2-4.9-.15-2.6,3.1-2,28.55v.05l-1.8-2.55"/><path class="cls-5" d="M33.15,31.7l1.3,1.75L33,35.2l-2.75-.1L29,33.3l1.45-1.7,2.7.1"/><path class="cls-6" d="M26.85,33.25l2.6-3.1,4.9.15,2.25,3.2L34,36.6l1,29.9-6.85-.15,1-29.9-2.3-3.2m6.3-1.55-2.7-.1L29,33.3l1.25,1.8,2.75.1,1.45-1.75-1.3-1.75"/><path class="cls-7" d="M24.85,61.8l2-28.55,2.3,3.2-1,29.9L24.85,61.8M36.6,33.5l2,28.7L35,66.5,34,36.6l2.6-3.1"/><path class="cls-9" d="M24.85,61.85V61.8l3.25,4.55L27,96.2l-4.1-5.8,2-28.55m13.75.35v0l1.95,28.6-4.7,5.6L35,66.5l3.65-4.3"/><path class="cls-8" d="M40.45,60.1l2.1,30.65a2,2,0,0,1-.45,1.4l-4.7,5.6-.7.55-.9.15L27,98.2l-.9-.2-.65-.65-4.1-5.8a1.9,1.9,0,0,1-.4-1.3L23.05,59.3l1.8,2.55-2,28.55L27,96.2l8.85.25,4.7-5.6L38.6,62.25l1.85-2.15"/><path class="cls-10" d="M28.1,66.35,35,66.5l.9,30L27,96.2l1.1-29.85"/><path class="cls-14" d="M98.75,62.65l6.65-1V39.85l-3.6-11L88.5,31.5V53.15l3.15,10.6,3.25-.5v1.6l1.15,2.5,2.7-.7v-4m4-35.45a1.88,1.88,0,0,1,.9,1.1l3.6,11,.1.6V61.6a2,2,0,0,1-.45,1.3l-1.25.7-5,.75v2.3a2.05,2.05,0,0,1-.4,1.25l-1.1.7-2.7.7-1.35-.15a1.91,1.91,0,0,1-1-1L93.1,65.7l0-.15-1.1.2-1.35-.3a1.86,1.86,0,0,1-.85-1.1L86.6,53.75l-.1-.6V31.5A1.92,1.92,0,0,1,87,30.25a1.74,1.74,0,0,1,1.2-.7l13.3-2.6,1.35.25"/><path class="cls-15" d="M91.65,63.75,88.5,53.15V31.5l3.15,10.7V63.75"/><path class="cls-16" d="M91.65,42.2,88.5,31.5l13.3-2.6,3.6,11L91.65,42.2"/><path class="cls-17" d="M91.65,63.75V42.2l13.75-2.35V61.6l-6.65,1-3.85.6-3.25.5"/><path class="cls-18" d="M98.75,62.65v4l-2.7.7-1.15-2.5v-1.6l3.85-.6"/><path class="cls-19" d="M47.3,64.3,72.75,34.2q8.35-2.89,16.1,2.85A22.84,22.84,0,0,1,97.4,50.8V51L72,81.05,70.7,76.9,69.35,74a21.64,21.64,0,0,0-5.95-6.85A22.69,22.69,0,0,0,59,64.6l-.3-.2-3.3-.85a15.6,15.6,0,0,0-7.4.5l-.7.25"/><path class="cls-4" d="M99,49l.4,1.6.05.4v9.4a2,2,0,0,1-.45,1.3L73.5,91.75a2.11,2.11,0,0,1-1.1.65l-1.3-.15L44.7,79.9l-.8-.7a1.89,1.89,0,0,1-.35-1.1V68.7l.05-.4,1.95.4v9.4l5.8,2.7,14.95,7L72,90.45,97.4,60.35V50.8L99,49"/><path class="cls-8" d="M99,49,97.4,50.8a22.84,22.84,0,0,0-8.55-13.75q-7.75-5.74-16.1-2.85L47.3,64.3l-1.75,4.4-1.95-.4.1-.35,1.75-4.4L45.8,63,71.25,32.9l.85-.6q9.3-3.25,18,3.15A24.34,24.34,0,0,1,99,49"/><path class="cls-20" d="M97.4,51v9.4L72,90.45v-9.4L97.4,51M66.3,87.85l-14.95-7V74.6l14.95,7v6.25"/><path class="cls-7" d="M66.3,87.85V81.6l-14.95-7v6.2l-5.8-2.7V68.7l1.75-4.4.7-.25a15.6,15.6,0,0,1,7.4-.5l3.3.85.3.2a22.69,22.69,0,0,1,4.4,2.55A21.64,21.64,0,0,1,69.35,74l1.35,2.9L72,81.05v9.4l-5.65-2.6"/><path class="cls-4" d="M39.05,88.75,30.4,98.9l20.7,9.7,2.4-2.8.55,2.45-1.4,1.65a2.11,2.11,0,0,1-1.1.65l-1.3-.15-20.7-9.7-.85-.8a1.87,1.87,0,0,1,.2-2.3L37.05,88V64l2,.9V88.75M68.8,49.85v4.7l8.75,7.85.5.65.15.8v12.9l-2,2.35V63.85L66.8,55.4V52.15l2-2.3"/><path class="cls-8" d="M78.2,76.75v17.7a2,2,0,0,1-.45,1.3L64.45,111.5l-1.1.65-1.3-.15-8-3.75-.55-2.45,9.4,4.4,6.7-7.8,3.55-4.25,3-3.7V79.1l2-2.35M37.05,64V50.35a1.89,1.89,0,0,1,.5-1.3L53.25,30.6a1.87,1.87,0,0,1,1.1-.65l1.25.15,12.05,5.65a2.34,2.34,0,0,1,.85.75l.3,1v12.3l-2,2.3V37.55l-12-5.65L39.05,50.35V64.9l-2-.9"/><path class="cls-21" d="M76.2,79.15v15.3l-3,3.7V89.9L69.6,94.15v8.25l-6.7,7.8V94.9L76.2,79.15m-9.4-41.6V52L51.1,70.4V56.05l15.7-18.5"/><path class="cls-20" d="M66.8,52.15V55.4L53.5,71.15V105.8l-2.4,2.8V70.4L66.8,52v.2m9.4,11.7v15.3L62.9,94.9V79.55l13.3-15.7"/><path class="cls-10" d="M76.2,63.85,62.9,79.55l-9.4-8.4L66.8,55.4l9.4,8.45M39.05,50.35,54.75,31.9l12,5.65L51.1,56.05l-12.05-5.7"/><path class="cls-7" d="M73.15,98.15,69.6,102.4V94.15l3.55-4.25v8.25M39.05,64.9v-.15L51.1,70.4v38.2L30.4,98.9l8.65-4.5V64.9M53.5,90.45V71.15l9.4,8.4V94.9l-9.4-4.45"/><path class="cls-9" d="M53.5,90.45l9.4,4.45v15.3l-9.4-4.4V90.45m-2.4-34.4V70.4L39.05,64.75V50.35l12.05,5.7"/><path class="cls-22" d="M39.05,88.75V94.4L30.4,98.9l8.65-10.15"/><path class="cls-15" d="M98.4,82.6l.25-10.7,6.65-7.1V75.3l-5.75,6.1L98.4,82.6"/><path class="cls-14" d="M99.55,81.4l5.75-6.1V64.8l-9.85-4.45L89.2,67.4V78.2l6.3,3v2.6l2.1.8,2-1.85V81.4m7.75-16.6V75.3a2,2,0,0,1-.55,1.4l-5.2,5.5v.6l-.15.8-.45.65L99,86.1l-1,.5-1.1,0-2.1-.8-1-.75a2.15,2.15,0,0,1-.35-1.15V82.5L88.35,80l-.85-.75a2,2,0,0,1-.3-1V67.4a1.89,1.89,0,0,1,.5-1.3l6.25-7a2.11,2.11,0,0,1,1.1-.65l1.25.15L106.15,63a1.78,1.78,0,0,1,.85.75l.3,1"/><path class="cls-16" d="M105.3,64.8l-6.65,7.1L89.2,67.4l6.25-7.05,9.85,4.45"/><path class="cls-17" d="M98.65,71.9,98.4,82.6l-2.9-1.35-6.3-3V67.4l9.45,4.5"/><path class="cls-18" d="M98.4,82.6l1.15-1.2v1.4l-2,1.85-2.1-.8v-2.6l2.9,1.35"/><path class="cls-23" d="M80.15,109.25l-1.35-2.2,3.6-1,1.35,2.2-3.6,1m8.3,1.2L86.3,107l5.85-1.55,2.15,3.5-5.85,1.55m11.85-2,1.9,3.15L97,113l-1.9-3.15,5.25-1.4m-22.1-7.8L84.55,99l2.3,3.8-6.35,1.7-2.3-3.8m7.65-3.9,3.65-1L90.85,98l-3.65,1-1.35-2.15M98.6,98.5l2.7,4.4L94,104.85l-2.7-4.4,7.35-2"/></g></g></svg>