<svg xmlns="http://www.w3.org/2000/svg" xmlns:xlink="http://www.w3.org/1999/xlink" viewBox="0 0 120 140"><defs><style>.cls-1{fill:url(#linear-gradient);}.cls-2{fill:#bb6444;}.cls-3{fill:url(#linear-gradient-2);}.cls-4{fill:url(#linear-gradient-3);}.cls-5{fill:url(#linear-gradient-4);}.cls-6{fill:url(#linear-gradient-5);}.cls-7{fill:url(#linear-gradient-6);}.cls-8{fill:url(#linear-gradient-7);}.cls-9{fill:url(#linear-gradient-8);}.cls-10{fill:url(#linear-gradient-9);}.cls-11{fill:url(#linear-gradient-10);}.cls-12{fill:url(#linear-gradient-11);}.cls-13{fill:url(#linear-gradient-12);}.cls-14{fill:url(#linear-gradient-13);}.cls-15{fill:url(#linear-gradient-14);}.cls-16{fill:url(#linear-gradient-15);}.cls-17{fill:#593269;}.cls-18{fill:#c16ee2;}.cls-19{fill:#ecdcb8;}.cls-20{fill:#9b59b6;}.cls-21{fill:#79468e;}</style><linearGradient id="linear-gradient" x1="-1469.2" y1="30.38" x2="169.2" y2="30.38" gradientTransform="matrix(0, 0, 0, 0, 91.47, 27.76)" gradientUnits="userSpaceOnUse"><stop offset="0" stop-color="#bb6444"/><stop offset="1" stop-color="#d27453"/></linearGradient><linearGradient id="linear-gradient-2" x1="-1469.2" y1="26.2" x2="169.2" y2="26.2" gradientTransform="matrix(0, 0, 0, 0, 57.47, 23.61)" xlink:href="#linear-gradient"/><linearGradient id="linear-gradient-3" x1="-1469.2" y1="37.68" x2="169.2" y2="37.68" gradientTransform="matrix(0, 0, 0, 0, 46.41, 34.48)" xlink:href="#linear-gradient"/><linearGradient id="linear-gradient-4" x1="-1469.2" y1="48.02" x2="169.2" y2="48.02" gradientTransform="matrix(0, 0, 0, 0, 61.56, 44.93)" xlink:href="#linear-gradient"/><linearGradient id="linear-gradient-5" x1="-1469.2" y1="106.57" x2="169.2" y2="106.57" gradientTransform="matrix(0, 0, 0, 0, 57.41, 103.48)" xlink:href="#linear-gradient"/><linearGradient id="linear-gradient-6" x1="-1469.2" y1="81.93" x2="169.2" y2="81.93" gradientTransform="matrix(0, 0, 0, 0, 84.57, 79.31)" xlink:href="#linear-gradient"/><linearGradient id="linear-gradient-7" x1="-1469.2" y1="89.18" x2="169.2" y2="89.18" gradientTransform="matrix(0, 0, 0, 0, 71.07, 86.56)" xlink:href="#linear-gradient"/><linearGradient id="linear-gradient-8" x1="-1469.2" y1="98.07" x2="169.2" y2="98.07" gradientTransform="matrix(0, 0, 0, 0, 106.97, 95.46)" xlink:href="#linear-gradient"/><linearGradient id="linear-gradient-9" x1="-1469.2" y1="49.52" x2="169.2" y2="49.52" gradientTransform="matrix(0, 0, 0, 0, 12.91, 46.43)" xlink:href="#linear-gradient"/><linearGradient id="linear-gradient-10" x1="-1469.2" y1="54.18" x2="169.2" y2="54.18" gradientTransform="matrix(0, 0, 0, 0, 38.57, 51.56)" xlink:href="#linear-gradient"/><linearGradient id="linear-gradient-11" x1="-1469.2" y1="62.43" x2="169.2" y2="62.43" gradientTransform="matrix(0, 0, 0, 0, 26.12, 59.81)" xlink:href="#linear-gradient"/><linearGradient id="linear-gradient-12" x1="-1469.2" y1="102.18" x2="169.2" y2="102.18" gradientTransform="matrix(0, 0, 0, 0, 15.16, 99.08)" xlink:href="#linear-gradient"/><linearGradient id="linear-gradient-13" x1="-1469.2" y1="116.93" x2="169.2" y2="116.93" gradientTransform="matrix(0, 0, 0, 0, 45.41, 113.83)" xlink:href="#linear-gradient"/><linearGradient id="linear-gradient-14" x1="-1469.2" y1="121.32" x2="169.2" y2="121.32" gradientTransform="matrix(0, 0, 0, 0, 73.01, 118.23)" xlink:href="#linear-gradient"/><linearGradient id="linear-gradient-15" x1="-1469.2" y1="119.18" x2="169.2" y2="119.18" gradientTransform="matrix(0, 0, 0, 0, 58.47, 116.56)" xlink:href="#linear-gradient"/></defs><title>Asset 112</title><g id="Layer_2" data-name="Layer 2"><g id="Layer_1-2" data-name="Layer 1"><path class="cls-1" d="M91.6,27.2l.3-.1.25.1.15.25.85,4.15,1.25-.4h.3l.25.2v.45l-.7,1.8H89.4l-1-3a.42.42,0,0,1,0-.35V30.2a.3.3,0,0,1,.25-.15h.35l1.35.55,1-3.15.15-.25"/><path class="cls-2" d="M91.6,27.2l-.15.25-1,3.15-1.35-.55h-.35a.3.3,0,0,0-.25.15v.05a.42.42,0,0,0,0,.35l1,3h4.85l.7-1.8V31.4l-.25-.2h-.3l-1.25.4-.85-4.15-.15-.25-.25-.1-.3.1m-34-4.3-.3.15-.15.25-.8,4.1L55.05,27l-.3.05-.25.2v.45l.7,1.8h4.85l.9-3.1v-.35l-.25-.2h-.35L59,26.4l-1-3.15L57.85,23l-.3-.1M48.1,33.8l-2,2.85-2.85-1H43l-.2.2,0,0v.35L44,39.35l-1.55.45-.25.2-.1.35.1.1.1.15,1.6,1.1h6l1.45-3.15.05,0,0-.25-.1-.15,0-.1L51,37.85l-1.65-.3-.4-3.5-.1-.25-.25-.15h-.25l-.25.15M60.5,44.2l-.25-.15L60,44l-.25.15-.1.25-.35,3.5-1.7.35-.25.1-.05.1,0,.2v.25h0l1.45,3.15h6l1.6-1,.15-.15,0-.15,0-.3-.3-.25-1.5-.4,1.2-3.15v-.35l-.05,0-.2-.2H65.3l-2.8,1-2-2.85m-4.9,58.5-.1.25-.35,3.5-1.7.35-.25.1-.05.1,0,.2v.25h0l1.45,3.15h6l1.6-1,.15-.15,0-.15,0-.3-.3-.25-1.5-.4,1.2-3.15v-.35l0,0-.2-.2h-.35l-2.8,1-2-2.85a.3.3,0,0,0-.25-.15l-.25,0-.25.15m26-20.9a.42.42,0,0,0,0,.35l1,3h4.85l.7-1.8V83l-.25-.2h-.3l-1.25.4L85.4,79l-.15-.25-.25-.1-.3.1-.15.25-1,3.15L82.2,81.6h-.35a.3.3,0,0,0-.25.15v0M74,90l-1.25.4-.85-4.15L71.75,86l-.25-.1-.3.1-.15.25-1,3.15-1.35-.55h-.35a.3.3,0,0,0-.25.15v0l0,.35,1,3h4.85l.7-1.8V90.2L74.3,90H74m33.1,4.9-.15.25-1,3.15-1.35-.55h-.35l-.25.15v0a.42.42,0,0,0,0,.35l1,3h4.85l.7-1.8V99.1l-.25-.2h-.3l-1.25.4-.85-4.15-.15-.25-.25-.1-.3.1m-96-49.25-.1.25-.35,3.5L9,49.75l-.25.1,0,.1-.05.2v.25h.05l1.45,3.15h6l1.6-1,.15-.15,0-.15,0-.3-.3-.25-1.5-.4,1.2-3.15v-.35l-.05,0-.2-.2h-.35l-2.8,1-2-2.85a.3.3,0,0,0-.25-.15l-.25,0-.25.15M38.7,51a.3.3,0,0,0-.15.25l-1,3.15-1.35-.55h-.35L35.6,54v0a.42.42,0,0,0-.05.35l1,3.05h4.85l.7-1.8V55.2L41.8,55h-.3l-1.25.4-.85-4.15L39.25,51,39,50.9l-.3.1M26.1,59.5l-1,3.15-1.35-.55H23.4l-.25.15v0a.42.42,0,0,0,0,.35l.95,3.05H28.9l.7-1.8v-.45l-.25-.2h-.3l-1.25.4L27,59.5l-.15-.25-.25-.1-.3.1-.15.25M11.2,102.4l-.25.1,0,.1-.05.2v.25h.05l1.45,3.15h6l1.6-1,.15-.15,0-.15,0-.3-.3-.25-1.5-.4,1.2-3.15v-.35l-.05-.05-.2-.2H18.9l-2.8,1-2-2.85a.3.3,0,0,0-.25-.15l-.25,0-.25.15-.1.25-.35,3.5-1.7.35m30,15.4L42.6,121h6l1.6-1,.15-.15,0-.15,0-.3-.3-.25-1.5-.4,1.2-3.15v-.35l0-.05-.2-.2h-.35l-2.8,1-2-2.85a.3.3,0,0,0-.25-.15l-.25,0-.25.15-.1.25-.35,3.5-1.7.35-.25.1-.05.1,0,.2v.25h0m30.8-.3a.3.3,0,0,0-.25-.15l-.25,0-.25.15-.1.25-.35,3.5-1.7.35-.25.1,0,.1,0,.2v.25h0l1.45,3.15h6l1.6-1,.15-.15,0-.15,0-.3-.3-.25-1.5-.4,1.2-3.15v-.35l0,0-.2-.2h-.35l-2.8,1-2-2.85M59.15,116l-.25-.1-.3.1-.15.25-1,3.15-1.35-.55h-.35a.3.3,0,0,0-.25.15v0l0,.35.95,3h4.85l.7-1.8v-.45l-.25-.2h-.3l-1.25.4-.85-4.15-.15-.25M60,140,0,105V35L60,0l60,35v70L60,140"/><path class="cls-3" d="M57.55,22.9l.3.1.15.25,1,3.15,1.4-.55h.35l.25.2v.35l-.9,3.1H55.2l-.7-1.8v-.45l.25-.2.3-.05,1.25.4.8-4.1.15-.25.3-.15"/><path class="cls-4" d="M48.1,33.8l.25-.15h.25l.25.15.1.25.4,3.5,1.65.3.25.15,0,.1.1.15,0,.25-.05,0L49.85,41.7h-6l-1.6-1.1-.1-.15-.1-.1.1-.35.25-.2L44,39.35l-1.25-3.1V35.9l0,0,.2-.2h.35l2.85,1,2-2.85"/><path class="cls-5" d="M60.5,44.2l2,2.85,2.8-1h.35l.2.2.05,0v.35l-1.2,3.15,1.5.4.3.25,0,.3,0,.15-.15.15-1.6,1h-6L57.3,48.9h0v-.25l0-.2.05-.1.25-.1,1.7-.35.35-3.5.1-.25L60,44l.25,0,.25.15"/><path class="cls-6" d="M55.6,102.7l.25-.15.25,0a.3.3,0,0,1,.25.15l2,2.85,2.8-1h.35l.2.2,0,0v.35l-1.2,3.15,1.5.4.3.25,0,.3,0,.15-.15.15-1.6,1h-6l-1.45-3.15h0v-.25l0-.2.05-.1.25-.1,1.7-.35.35-3.5.1-.25"/><path class="cls-7" d="M81.6,81.8v0a.3.3,0,0,1,.25-.15h.35l1.35.55,1-3.15.15-.25.3-.1.25.1.15.25.85,4.15,1.25-.4h.3l.25.2v.45l-.7,1.8H82.5l-1-3a.42.42,0,0,1,0-.35"/><path class="cls-8" d="M74,90h.3l.25.2v.45l-.7,1.8H69l-1-3,0-.35v0a.3.3,0,0,1,.25-.15h.35l1.35.55,1-3.15L71.2,86l.3-.1.25.1.15.25.85,4.15L74,90"/><path class="cls-9" d="M107.1,94.9l.3-.1.25.1.15.25.85,4.15,1.25-.4h.3l.25.2v.45l-.7,1.8H104.9l-1-3a.42.42,0,0,1,0-.35v0l.25-.15h.35l1.35.55,1-3.15.15-.25"/><path class="cls-10" d="M11.1,45.65l.25-.15.25,0a.3.3,0,0,1,.25.15l2,2.85,2.8-1H17l.2.2.05,0v.35l-1.2,3.15,1.5.4.3.25,0,.3,0,.15-.15.15-1.6,1h-6L8.65,50.4H8.6v-.25l.05-.2,0-.1.25-.1,1.7-.35L11,45.9l.1-.25"/><path class="cls-11" d="M38.7,51l.3-.1.25.1.15.25.85,4.15L41.5,55h.3l.25.2v.45l-.7,1.8H36.5l-1-3.05a.42.42,0,0,1,.05-.35v0l.25-.15h.35l1.35.55,1-3.15A.3.3,0,0,1,38.7,51"/><path class="cls-12" d="M26.1,59.5l.15-.25.3-.1.25.1.15.25.85,4.15,1.25-.4h.3l.25.2v.45l-.7,1.8H24.05l-.95-3.05a.42.42,0,0,1,0-.35v0l.25-.15h.35l1.35.55,1-3.15"/><path class="cls-13" d="M11.2,102.4l1.7-.35.35-3.5.1-.25.25-.15.25,0a.3.3,0,0,1,.25.15l2,2.85,2.8-1h.35l.2.2.05.05v.35l-1.2,3.15,1.5.4.3.25,0,.3,0,.15-.15.15-1.6,1h-6l-1.45-3.15h-.05v-.25l.05-.2,0-.1.25-.1"/><path class="cls-14" d="M41.15,117.8h0v-.25l0-.2.05-.1.25-.1,1.7-.35.35-3.5.1-.25.25-.15.25,0a.3.3,0,0,1,.25.15l2,2.85,2.8-1h.35l.2.2,0,.05v.35l-1.2,3.15,1.5.4.3.25,0,.3,0,.15-.15.15-1.6,1h-6l-1.45-3.15"/><path class="cls-15" d="M72,117.5l2,2.85,2.8-1h.35l.2.2,0,0v.35l-1.2,3.15,1.5.4.3.25,0,.3,0,.15-.15.15-1.6,1h-6l-1.45-3.15h0V122l0-.2,0-.1.25-.1,1.7-.35.35-3.5.1-.25.25-.15.25,0a.3.3,0,0,1,.25.15"/><path class="cls-16" d="M59.15,116l.15.25.85,4.15,1.25-.4h.3l.25.2v.45l-.7,1.8H56.4l-.95-3,0-.35v0a.3.3,0,0,1,.25-.15h.35l1.35.55,1-3.15.15-.25.3-.1.25.1"/><path class="cls-17" d="M63.85,26.65V48.4a2,2,0,0,1-.45,1.3,2.21,2.21,0,0,1-1.25.7l-4.95.75v2.3a2.05,2.05,0,0,1-.4,1.25,2.42,2.42,0,0,1-1.1.7l-2.7.7L51.65,56a1.91,1.91,0,0,1-.95-1l-1.15-2.5,0-.15-1.1.2a2,2,0,0,1-2.2-1.4l-3.15-10.6L43,40V18.3a1.92,1.92,0,0,1,.45-1.25,1.74,1.74,0,0,1,1.2-.7l13.3-2.6a1.76,1.76,0,0,1,1.35.25,1.88,1.88,0,0,1,.9,1.1l3.6,11,.1.6m-2,0L58.25,15.7,45,18.3V40l3.15,10.6,3.25-.5v1.6l1.15,2.5,2.7-.7v-4l6.65-1.05V26.65"/><path class="cls-18" d="M61.85,26.65,48.1,29,45,18.3l13.3-2.6,3.6,11"/><path class="cls-19" d="M55.2,49.45v4l-2.7.7-1.15-2.5v-1.6l3.85-.6"/><path class="cls-20" d="M48.1,29l13.75-2.35V48.4L55.2,49.45l-3.85.6-3.25.5V29"/><path class="cls-21" d="M48.1,29V50.55L45,40V18.3L48.1,29"/><path class="cls-17" d="M86.6,44.15l13.3-2.6a1.76,1.76,0,0,1,1.35.25,1.88,1.88,0,0,1,.9,1.1l3.6,11,.1.6V76.2a2,2,0,0,1-.45,1.3,2.21,2.21,0,0,1-1.25.7l-5,.75v2.3a2.05,2.05,0,0,1-.4,1.25,2.42,2.42,0,0,1-1.1.7l-2.7.7-1.35-.15a1.91,1.91,0,0,1-1-1l-1.15-2.5,0-.15-1.1.2A2,2,0,0,1,88.2,79l-3.15-10.6-.1-.6V46.1a1.92,1.92,0,0,1,.45-1.25,1.74,1.74,0,0,1,1.2-.7m17.25,10.3-3.6-11L87,46.1V67.75l3.15,10.6,3.25-.5v1.6L94.5,82l2.7-.7v-4l6.65-1V54.45"/><path class="cls-18" d="M103.85,54.45,90.1,56.8,87,46.1l13.3-2.6,3.6,11"/><path class="cls-20" d="M103.85,54.45V76.2l-6.65,1-3.85.6-3.25.5V56.8l13.75-2.35"/><path class="cls-19" d="M97.2,77.25v4l-2.7.7-1.15-2.5v-1.6l3.85-.6"/><path class="cls-21" d="M90.1,78.35,87,67.75V46.1L90.1,56.8V78.35"/><path class="cls-17" d="M21.7,94l6.65-1V71.15l-3.6-11-13.3,2.6V84.45l3.15,10.6,3.25-.5v1.6L19,98.65l2.7-.7V94M25.75,58.5a1.88,1.88,0,0,1,.9,1.1l3.6,10.95.1.6V92.9a2,2,0,0,1-.45,1.3,2.21,2.21,0,0,1-1.25.7l-4.95.75V98a2.05,2.05,0,0,1-.4,1.25l-1.1.7-2.7.7-1.35-.15a1.91,1.91,0,0,1-.95-1L16.05,97,16,96.85l-1.1.2a2,2,0,0,1-2.2-1.4L9.55,85.05l-.1-.6V62.8a1.92,1.92,0,0,1,.45-1.25,1.74,1.74,0,0,1,1.2-.7l13.3-2.6a1.76,1.76,0,0,1,1.35.25"/><path class="cls-18" d="M11.45,62.8l13.3-2.6,3.6,11L14.6,73.5,11.45,62.8"/><path class="cls-21" d="M11.45,62.8,14.6,73.5V95.05l-3.15-10.6V62.8"/><path class="cls-19" d="M21.7,94v4l-2.7.7-1.15-2.5v-1.6L21.7,94"/><path class="cls-20" d="M21.7,94l-3.85.6-3.25.5V73.5l13.75-2.35V92.9L21.7,94"/><path class="cls-21" d="M36.85,106.65,37.1,96l6.65-7.1v10.5L38,105.45l-1.15,1.2"/><path class="cls-17" d="M45.75,88.85v10.5a2,2,0,0,1-.55,1.4l-5.2,5.5v.6l-.15.8-.45.65-1.95,1.85a2,2,0,0,1-1,.5l-1.1-.05-2.1-.8-1-.75A2.15,2.15,0,0,1,32,107.9v-1.35l-5.15-2.5a1.89,1.89,0,0,1-.85-.75,2,2,0,0,1-.3-1V91.45a1.89,1.89,0,0,1,.5-1.3L32.4,83.1a2.11,2.11,0,0,1,1.1-.65l1.25.15,9.85,4.45a1.78,1.78,0,0,1,.85.75l.3,1M38,105.45l5.75-6.1V88.85L33.9,84.4l-6.25,7v10.8l6.3,3v2.6l2.1.8,2-1.85v-1.4"/><path class="cls-20" d="M37.1,96l-.25,10.7L34,105.3l-6.3-3V91.45L37.1,96"/><path class="cls-18" d="M37.1,96l-9.45-4.5,6.25-7,9.85,4.45L37.1,96"/><path class="cls-19" d="M36.85,106.65l1.15-1.2v1.4l-2,1.85-2.1-.8v-2.6l2.9,1.35"/><path class="cls-17" d="M58.6,44.05l6.25-7a2.11,2.11,0,0,1,1.1-.65l1.25.15L77.05,41a1.78,1.78,0,0,1,.85.75l.3,1v10.5a2,2,0,0,1-.55,1.4l-5.2,5.5v.6l-.15.8-.45.65L69.9,64.05l-1,.5-1.1,0-2.1-.8-1-.75a2.15,2.15,0,0,1-.35-1.15V60.45L59.25,58l-.85-.75a2,2,0,0,1-.3-1.05V45.35a1.89,1.89,0,0,1,.5-1.3m11.85,15.3,5.75-6.1V42.75L66.35,38.3,60.1,45.35v10.8l6.3,3.05v2.6l2.1.8,2-1.85v-1.4"/><path class="cls-21" d="M70.45,59.35l-1.15,1.2.25-10.7,6.65-7.1v10.5l-5.75,6.1"/><path class="cls-18" d="M76.2,42.75l-6.65,7.1-9.45-4.5,6.25-7.05,9.85,4.45"/><path class="cls-20" d="M69.55,49.85l-.25,10.7L66.4,59.2l-6.3-3.05V45.35l9.45,4.5"/><path class="cls-19" d="M69.3,60.55l1.15-1.2v1.4l-2,1.85-2.1-.8V59.2l2.9,1.35"/><path class="cls-18" d="M75.85,96.85l6.25-7L92,94.25l-6.65,7.1-9.45-4.5"/><path class="cls-17" d="M75.85,96.85v10.8l6.3,3v2.6l2.1.8,2-1.85v-1.4l5.75-6.1V94.25L82.1,89.8l-6.25,7m5.85-9L83,88l9.85,4.45a1.78,1.78,0,0,1,.85.75l.3,1v10.5a2,2,0,0,1-.55,1.4l-5.2,5.5v.6l-.15.8-.45.65-1.95,1.85a2,2,0,0,1-1,.5l-1.1,0-2.1-.8-1-.75a2.15,2.15,0,0,1-.35-1.15V112L75,109.45l-.85-.75a2,2,0,0,1-.3-1V96.85a1.89,1.89,0,0,1,.5-1.3l6.25-7a2.11,2.11,0,0,1,1.1-.65"/><path class="cls-21" d="M85.3,101.35,92,94.25v10.5l-5.75,6.1-1.15,1.2.25-10.7"/><path class="cls-20" d="M85.3,101.35l-.25,10.7-2.9-1.35-6.3-3V96.85l9.45,4.5"/><path class="cls-19" d="M86.2,110.85v1.4l-2,1.85-2.1-.8v-2.6l2.9,1.35,1.15-1.2"/></g></g></svg>