<svg xmlns="http://www.w3.org/2000/svg" viewBox="0 0 120 140"><defs><style>.cls-1{fill:#e0d1af;}.cls-2{fill:#a4afaf;}.cls-3{fill:#ecdcb8;}.cls-4{fill:#e5d5b2;}.cls-5{fill:#9ba6a6;}.cls-6{fill:#a9b6b6;}</style></defs><title>Asset 81</title><g id="Layer_2" data-name="Layer 2"><g id="Layer_1-2" data-name="Layer 1"><path class="cls-1" d="M17.05,24.85H17l1.05-.6-1,.6"/><path class="cls-2" d="M31,38.65H26.2l-8,4.65A4.54,4.54,0,0,0,16.05,47V62.6l-3.9,4.55L16.05,69v8.1l.45.8-3.9-1.8L8.9,80.45l5.9,2.75L17.6,80l.9,1.75-2.45,3v8.15a4.11,4.11,0,0,0,.6,2.15,4.18,4.18,0,0,0,1.55,1.6l7.8,4.55L52,116.3l5.6,3.3a4.54,4.54,0,0,0,1.75.55h.4a4.63,4.63,0,0,0,2.2-.55l1-.55,10.35-6,.55-.35,2-3,1.3-1.5L81,110l2.5-2.9,6.9-4-1,1.2L95.2,107l3.7-4.35-4.4-2,6.75-4A4.75,4.75,0,0,0,102.8,95l.25-.5.3-1.65V70.65l-2.1-3.1,2.1-3.3V47a4.07,4.07,0,0,0-.55-2.1,4.26,4.26,0,0,0-1.55-1.6L92.4,38.15l-4.75-2.8.6-.7-9-4.1L73,26.8,61.9,20.35,61,19.9l-1.25-.2a3.9,3.9,0,0,0-2.15.65l-13.8,8.1L42.4,31h-3l-6.3-2.9-5.8,6.8,5.6,2.65-.2.5-1.65.6M0,35,60,0l60,35v70L60,140,0,105V35m88.35-9.4L84.65,30l5.9,2.75,3.7-4.35-5.9-2.75m2.55,9.1,5.9,2.75,3.7-4.35-5.9-2.75L90.9,34.7m-32-20.25,5.9,2.75,3.7-4.35L62.6,10.1l-3.7,4.35m47.95,47.8-3.7,4.35,5.9,2.75,3.7-4.35-5.9-2.75M41.1,111.6,37.4,116l5.9,2.75,3.7-4.35-5.9-2.75m-11.8,5.45L33,112.7,27.1,110l-3.7,4.35,5.9,2.75"/><path class="cls-3" d="M16.05,49.2V47a4.54,4.54,0,0,1,2.15-3.7l8-4.65H31A37.87,37.87,0,0,0,16.05,49.2m16.6-11.15.2-.5,1.5-3.65,5-2.9h3l1.35-2.55,13.8-8.1a3.9,3.9,0,0,1,2.15-.65l1.25.2-1.3,1.8q-7.15,9.4-20.2,14.15l-2.75.9,0,0-3.35,1-.75.25M73,26.8l6.35,3.75,1.35.75.25.4-2.65,1.2,1.75,4,4-1.85-.4-.9h2l2.05,1.2,4.75,2.8q-15.75,5.6-23.15,21.9l-.4,1a48.2,48.2,0,0,0-1.95,5.15l-.25.75a43.55,43.55,0,0,1-4.4,11l-2.6,3.9q-7.84,10.35-22.95,15l0,.05-.4.1A41.27,41.27,0,0,0,26,101.15L18.2,96.6A4.18,4.18,0,0,1,16.65,95a4.11,4.11,0,0,1-.6-2.15v-7.5a42.48,42.48,0,0,1,6.65-2.2l-.05-.05a66.06,66.06,0,0,0,7-2.6l.05,0Q42.26,74.75,48.45,64l2-4a44.24,44.24,0,0,0,2.4-7,51.77,51.77,0,0,1,6.8-14.3A37.84,37.84,0,0,1,73,26.8M103.35,71v21.9l-.3,1.65a65.79,65.79,0,0,1-6.3,2.35l0,.05-.4.1a42.59,42.59,0,0,0-8.6,3.2l-1.85,1a33.32,33.32,0,0,0-4.45,3L77.3,108l-.2.2-1.3,1.5c-.9,1.07-1.75,2.18-2.55,3.35l-10.35,6-.2-.5-3.4,1.6a4.54,4.54,0,0,1-1.75-.55L52,116.3l.9-3.2a51.69,51.69,0,0,1,6.8-14.35L61,97A38.59,38.59,0,0,1,82.8,83.15l0-.05q12.94-4,20.6-12.15M26.8,88.85l-1,4,4.05,1,1-4-4.05-1m49-49L75.4,43l3.15.4L79,40.3l-3.2-.45M34.6,81.6l-3.55,6.7,6.55,3.5,3.6-6.65L34.6,81.6m23-9.7L50.55,73l1.05,7,7.1-1.1-1.05-7m.85-6V61.4H53.9L54,66H58.5M63,105.7l-2-1-1,2,1.9,1,1.15-2m25.15-21-1.2,3,2.9,1.2L91.1,86l-2.95-1.25M86.9,90.9l0,4.55H91.5V90.9H86.9m-6.7,9,2.45-6.1L76.5,91.4l-2.45,6.15L80.2,100"/><path class="cls-4" d="M31,38.65l1.65-.6.75-.25,3.35-1,0,0,2.75-.9q13-4.76,20.2-14.15L61,19.9l.95.45L73,26.8a37.84,37.84,0,0,0-13.3,11.9A51.77,51.77,0,0,0,52.85,53a44.24,44.24,0,0,1-2.4,7l-2,4Q42.26,74.76,29.7,80.45l-.05,0a66.06,66.06,0,0,1-7,2.6l.05.05a42.48,42.48,0,0,0-6.65,2.2V84.7l2.45-3L17.6,80l-1.1-2-.45-.8V49.2A37.87,37.87,0,0,1,31,38.65m61.4-.5,8.85,5.15a4.26,4.26,0,0,1,1.55,1.6,4.07,4.07,0,0,1,.55,2.1V64.25l-2.1,3.3,2.1,3.1V71Q95.7,79.1,82.75,83.1l0,.05A38.59,38.59,0,0,0,61,97l-1.3,1.75a51.69,51.69,0,0,0-6.8,14.35l-.9,3.2L26,101.15A41.27,41.27,0,0,1,36.35,97l.4-.1,0-.05q15.11-4.69,22.95-15l2.6-3.9a43.55,43.55,0,0,0,4.4-11l.25-.75A48.2,48.2,0,0,1,68.85,61l.4-1q7.4-16.3,23.15-21.9M103.05,94.5l-.25.5a4.75,4.75,0,0,1-1.55,1.6l-6.75,4L90.35,103l-6.9,4L81,108.45l-3.7-.5,4.2-3.8a33.32,33.32,0,0,1,4.45-3l1.85-1A42.59,42.59,0,0,1,96.4,97l.4-.1,0-.05a65.79,65.79,0,0,0,6.3-2.35M75.8,109.65l-2,3-.55.35c.8-1.17,1.65-2.28,2.55-3.35m-12.9,9.4-1,.55a4.63,4.63,0,0,1-2.2.55h-.4l3.4-1.6.2.5M26.8,88.85l4.05,1-1,4-4.05-1,1-4m56.8-54.7.4.9L80,36.9l-1.75-4,2.65-1.2,1.4,2.45h1.3m-7.8,5.7,3.2.45-.45,3.1L75.4,43l.4-3.15M58.5,66H54L53.9,61.4h4.6V66m-.85,6,1.05,7L51.6,80l-1.05-7,7.1-1.1m-23,9.7,6.6,3.55L37.6,91.8l-6.55-3.5,3.55-6.7M63,105.7l-1.15,2-1.9-1,1-2,2,1m25.15-21L91.1,86l-1.25,2.9L87,87.7l1.2-3m-8,15.2-6.15-2.4L76.5,91.4l6.15,2.45L80.2,100m6.7-9h4.6v4.55H87l0-4.55"/><path class="cls-5" d="M32.85,37.55l-5.6-2.65,5.8-6.8,6.3,2.9-5,2.9-1.5,3.65M17.6,80,14.8,83.2,8.9,80.45l3.7-4.35,3.9,1.8,1.1,2M88.35,25.6l5.9,2.75-3.7,4.35L84.65,30l3.7-4.35M58.9,14.45l3.7-4.35,5.9,2.75L64.8,17.2l-5.9-2.75M29.3,117.05l-5.9-2.75L27.1,110,33,112.7l-3.7,4.35"/><path class="cls-6" d="M79.3,30.55l9,4.1-.6.7-2.05-1.2H82.3L80.9,31.7l-.25-.4-1.35-.75m15.2,70,4.4,2L95.2,107l-5.9-2.75,1-1.2,4.15-2.45m-11,6.5L81,110l-3.85-1.8.2-.2,3.7.5,2.45-1.4M16.05,69l-3.9-1.85,3.9-4.55V69M90.9,34.7l3.7-4.35,5.9,2.75-3.7,4.35L90.9,34.7m15.95,27.55,5.9,2.75-3.7,4.35-5.9-2.75,3.7-4.35M41.1,111.6l5.9,2.75-3.7,4.35L37.4,116l3.7-4.35"/></g></g></svg>