<svg xmlns="http://www.w3.org/2000/svg" xmlns:xlink="http://www.w3.org/1999/xlink" viewBox="0 0 120 140"><defs><style>.cls-1{fill:url(#linear-gradient);}.cls-2{fill:#27ae60;}.cls-3{fill:url(#linear-gradient-2);}.cls-4{fill:url(#linear-gradient-3);}.cls-5{fill:url(#linear-gradient-4);}.cls-6{fill:url(#linear-gradient-5);}.cls-7{fill:url(#linear-gradient-6);}.cls-8{fill:url(#linear-gradient-7);}.cls-9{fill:url(#linear-gradient-8);}.cls-10{fill:url(#linear-gradient-9);}.cls-11{fill:url(#linear-gradient-10);}.cls-12{fill:url(#linear-gradient-11);}.cls-13{fill:url(#linear-gradient-12);}.cls-14{fill:url(#linear-gradient-13);}.cls-15{fill:url(#linear-gradient-14);}.cls-16{fill:url(#linear-gradient-15);}.cls-17{fill:#115f32;}.cls-18{fill:#10773c;}.cls-19{fill:#168344;}.cls-20{fill:#1b914d;}.cls-21{fill:#5a6b6b;}.cls-22{fill:#c6d2d2;}.cls-23{fill:#a4afaf;}.cls-24{fill:#879393;}.cls-25{fill:#b5c2c2;}</style><linearGradient id="linear-gradient" x1="-2509.2" y1="37.68" x2="-870.8" y2="37.68" gradientTransform="matrix(0, 0, 0, 0, 50.84, 29.4)" gradientUnits="userSpaceOnUse"><stop offset="0" stop-color="#27ae60"/><stop offset="1" stop-color="#30c26d"/></linearGradient><linearGradient id="linear-gradient-2" x1="-2509.2" y1="26.2" x2="-870.8" y2="26.2" gradientTransform="matrix(0, 0, 0, 0, 61.07, 19.47)" xlink:href="#linear-gradient"/><linearGradient id="linear-gradient-3" x1="-2509.2" y1="49.52" x2="-870.8" y2="49.52" gradientTransform="matrix(0, 0, 0, 0, 17.34, 41.43)" xlink:href="#linear-gradient"/><linearGradient id="linear-gradient-4" x1="-2509.2" y1="62.42" x2="-870.8" y2="62.42" gradientTransform="matrix(0, 0, 0, 0, 29.72, 55.67)" xlink:href="#linear-gradient"/><linearGradient id="linear-gradient-5" x1="-2509.2" y1="54.18" x2="-870.8" y2="54.18" gradientTransform="matrix(0, 0, 0, 0, 42.17, 47.42)" xlink:href="#linear-gradient"/><linearGradient id="linear-gradient-6" x1="-2509.2" y1="102.17" x2="-870.8" y2="102.17" gradientTransform="matrix(0, 0, 0, 0, 19.59, 94.08)" xlink:href="#linear-gradient"/><linearGradient id="linear-gradient-7" x1="-2509.2" y1="106.58" x2="-870.8" y2="106.58" gradientTransform="matrix(0, 0, 0, 0, 61.84, 98.48)" xlink:href="#linear-gradient"/><linearGradient id="linear-gradient-8" x1="-2509.2" y1="116.92" x2="-870.8" y2="116.92" gradientTransform="matrix(0, 0, 0, 0, 49.84, 108.83)" xlink:href="#linear-gradient"/><linearGradient id="linear-gradient-9" x1="-2509.2" y1="119.17" x2="-870.8" y2="119.17" gradientTransform="matrix(0, 0, 0, 0, 62.07, 112.42)" xlink:href="#linear-gradient"/><linearGradient id="linear-gradient-10" x1="-2509.2" y1="30.38" x2="-870.8" y2="30.38" gradientTransform="matrix(0, 0, 0, 0, 95.07, 23.62)" xlink:href="#linear-gradient"/><linearGradient id="linear-gradient-11" x1="-2509.2" y1="48.02" x2="-870.8" y2="48.02" gradientTransform="matrix(0, 0, 0, 0, 65.99, 39.93)" xlink:href="#linear-gradient"/><linearGradient id="linear-gradient-12" x1="-2509.2" y1="81.92" x2="-870.8" y2="81.92" gradientTransform="matrix(0, 0, 0, 0, 88.17, 75.17)" xlink:href="#linear-gradient"/><linearGradient id="linear-gradient-13" x1="-2509.2" y1="89.17" x2="-870.8" y2="89.17" gradientTransform="matrix(0, 0, 0, 0, 74.67, 82.42)" xlink:href="#linear-gradient"/><linearGradient id="linear-gradient-14" x1="-2509.2" y1="98.08" x2="-870.8" y2="98.08" gradientTransform="matrix(0, 0, 0, 0, 110.57, 91.32)" xlink:href="#linear-gradient"/><linearGradient id="linear-gradient-15" x1="-2509.2" y1="121.33" x2="-870.8" y2="121.33" gradientTransform="matrix(0, 0, 0, 0, 77.44, 113.23)" xlink:href="#linear-gradient"/></defs><title>Asset 14</title><g id="Layer_2" data-name="Layer 2"><g id="Layer_1-2" data-name="Layer 1"><path class="cls-1" d="M42.75,35.85l.2-.2h.35l2.85,1,2-2.85.25-.15h.25l.25.15.1.25.4,3.5,1.65.3.25.15,0,.1.1.15,0,.25-.05,0L49.85,41.7h-6l-1.6-1.1-.1-.15-.1-.1.1-.35.25-.2L44,39.35l-1.25-3.1V35.9l0,0"/><path class="cls-2" d="M42.75,35.85l0,0v.35L44,39.35l-1.55.45-.25.2-.1.35.1.1.1.15,1.6,1.1h6l1.45-3.15.05,0,0-.25-.1-.15,0-.1L51,37.85l-1.65-.3-.4-3.5-.1-.25-.25-.15h-.25l-.25.15-2,2.85-2.85-1H43l-.2.2M54.5,27.7l.7,1.8h4.85l.9-3.1v-.35l-.25-.2h-.35L59,26.4l-1-3.15L57.85,23l-.3-.1-.3.15-.15.25-.8,4.1L55.05,27l-.3.05-.25.2v.45M17,47.5h-.35l-2.8,1-2-2.85-.25-.15-.25,0-.25.15-.1.25-.35,3.5L9,49.75l-.25.1,0,.1-.05.2v.25h.05l1.45,3.15h6l1.6-1,.15-.15,0-.15,0-.3-.3-.25-1.5-.4,1.2-3.15v-.35l-.05,0-.2-.2m6.4,14.6-.25.15v0a.42.42,0,0,0,0,.35l.95,3.05H28.9l.7-1.8v-.45l-.25-.2h-.3l-1.25.4L27,59.5l-.15-.25-.25-.1-.3.1-.15.25-1,3.15-1.35-.55H23.4m12.15-7.7,1,3.05h4.85l.7-1.8V55.2L41.8,55h-.3l-1.25.4-.85-4.15L39.25,51,39,50.9l-.3.1a.3.3,0,0,0-.15.25l-1,3.15-1.35-.55h-.35L35.6,54v0a.42.42,0,0,0-.05.35M13.35,98.3l-.1.25-.35,3.5-1.7.35-.25.1,0,.1-.05.2v.25h.05l1.45,3.15h6l1.6-1,.15-.15,0-.15,0-.3-.3-.25-1.5-.4,1.2-3.15v-.35l-.05-.05-.2-.2H18.9l-2.8,1-2-2.85-.25-.15-.25,0-.25.15m42.25,4.4-.1.25-.35,3.5-1.7.35-.25.1-.05.1,0,.2v.25h0l1.45,3.15h6l1.6-1,.15-.15,0-.15,0-.3-.3-.25-1.5-.4,1.2-3.15v-.35l0,0-.2-.2h-.35l-2.8,1-2-2.85a.3.3,0,0,0-.25-.15l-.25,0-.25.15M0,35,60,0l60,35v70L60,140,0,105V35m49.75,80.15,0-.05-.2-.2h-.35l-2.8,1-2-2.85a.3.3,0,0,0-.25-.15l-.25,0-.25.15-.1.25-.35,3.5-1.7.35-.25.1-.05.1,0,.2v.25h0L42.6,121h6l1.6-1,.15-.15,0-.15,0-.3-.3-.25-1.5-.4,1.2-3.15v-.35m5.75,3.9a.42.42,0,0,0,0,.35l.95,3h4.85l.7-1.8v-.45l-.25-.2h-.3l-1.25.4-.85-4.15-.15-.25-.25-.1-.3.1a.3.3,0,0,0-.15.25l-1,3.15-1.35-.55h-.35a.3.3,0,0,0-.25.15v0m36-91.6-1,3.15-1.35-.55h-.35a.3.3,0,0,0-.25.15v.05a.42.42,0,0,0,0,.35l1,3h4.85l.7-1.8V31.4l-.25-.2h-.3l-1.25.4-.85-4.15-.15-.25-.25-.1-.3.1a.3.3,0,0,0-.15.25M60.5,44.2l-.25-.15L60,44l-.25.15-.1.25-.35,3.5-1.7.35-.25.1-.05.1,0,.2v.25h0l1.45,3.15h6l1.6-1,.15-.15,0-.15,0-.3-.3-.25-1.5-.4,1.2-3.15v-.35l-.05,0-.2-.2H65.3l-2.8,1-2-2.85m24,34.8-1,3.15L82.2,81.6h-.35a.3.3,0,0,0-.25.15v0a.42.42,0,0,0,0,.35l1,3h4.85l.7-1.8V83l-.25-.2h-.3l-1.25.4L85.4,79l-.15-.25-.25-.1-.3.1-.15.25m-12.8,7-.25-.1-.3.1-.15.25-1,3.15-1.35-.55h-.35a.3.3,0,0,0-.25.15v0a.42.42,0,0,0,0,.35l1,3h4.85l.7-1.8V90.2L74.3,90H74l-1.25.4-.85-4.15L71.75,86m35.35,8.9a.3.3,0,0,0-.15.25l-1,3.15-1.35-.55h-.35l-.25.15v0a.42.42,0,0,0,0,.35l1,3h4.85l.7-1.8V99.1l-.25-.2h-.3l-1.25.4-.85-4.15-.15-.25-.25-.1-.3.1m-29.75,25v-.35l0,0-.2-.2h-.35l-2.8,1-2-2.85-.25-.15-.25,0-.25.15-.1.25-.35,3.5-1.7.35-.25.1,0,.1,0,.2v.25h0l1.45,3.15h6l1.6-1,.15-.15,0-.15,0-.3-.3-.25-1.5-.4,1.2-3.15"/><path class="cls-3" d="M54.5,27.7v-.45l.25-.2.3-.05,1.25.4.8-4.1.15-.25.3-.15.3.1.15.25,1,3.15,1.4-.55h.35l.25.2v.35l-.9,3.1H55.2l-.7-1.8"/><path class="cls-4" d="M17,47.5l.2.2.05,0v.35l-1.2,3.15,1.5.4.3.25,0,.3,0,.15-.15.15-1.6,1h-6L8.65,50.4H8.6v-.25l.05-.2,0-.1.25-.1,1.7-.35L11,45.9l.1-.25.25-.15.25,0,.25.15,2,2.85,2.8-1H17"/><path class="cls-5" d="M23.4,62.1h.35l1.35.55,1-3.15.15-.25.3-.1.25.1.15.25.85,4.15,1.25-.4h.3l.25.2v.45l-.7,1.8H24.05l-.95-3.05a.42.42,0,0,1,0-.35v0l.25-.15"/><path class="cls-6" d="M35.55,54.4a.42.42,0,0,1,.05-.35v0l.25-.15h.35l1.35.55,1-3.15A.3.3,0,0,1,38.7,51l.3-.1.25.1.15.25.85,4.15L41.5,55h.3l.25.2v.45l-.7,1.8H36.5l-1-3.05"/><path class="cls-7" d="M13.35,98.3l.25-.15.25,0,.25.15,2,2.85,2.8-1h.35l.2.2.05.05v.35l-1.2,3.15,1.5.4.3.25,0,.3,0,.15-.15.15-1.6,1h-6l-1.45-3.15h-.05v-.25l.05-.2,0-.1.25-.1,1.7-.35.35-3.5.1-.25"/><path class="cls-8" d="M55.6,102.7l.25-.15.25,0a.3.3,0,0,1,.25.15l2,2.85,2.8-1h.35l.2.2,0,0v.35l-1.2,3.15,1.5.4.3.25,0,.3,0,.15-.15.15-1.6,1h-6l-1.45-3.15h0v-.25l0-.2.05-.1.25-.1,1.7-.35.35-3.5.1-.25"/><path class="cls-9" d="M49.75,115.15v.35l-1.2,3.15,1.5.4.3.25,0,.3,0,.15-.15.15-1.6,1h-6l-1.45-3.15h0v-.25l0-.2.05-.1.25-.1,1.7-.35.35-3.5.1-.25.25-.15.25,0a.3.3,0,0,1,.25.15l2,2.85,2.8-1h.35l.2.2,0,.05"/><path class="cls-10" d="M55.5,119.05v0a.3.3,0,0,1,.25-.15h.35l1.35.55,1-3.15a.3.3,0,0,1,.15-.25l.3-.1.25.1.15.25.85,4.15,1.25-.4h.3l.25.2v.45l-.7,1.8H56.4l-.95-3a.42.42,0,0,1,0-.35"/><path class="cls-11" d="M91.45,27.45a.3.3,0,0,1,.15-.25l.3-.1.25.1.15.25.85,4.15,1.25-.4h.3l.25.2v.45l-.7,1.8H89.4l-1-3a.42.42,0,0,1,0-.35V30.2a.3.3,0,0,1,.25-.15h.35l1.35.55,1-3.15"/><path class="cls-12" d="M60.5,44.2l2,2.85,2.8-1h.35l.2.2.05,0v.35l-1.2,3.15,1.5.4.3.25,0,.3,0,.15-.15.15-1.6,1h-6L57.3,48.9h0v-.25l0-.2.05-.1.25-.1,1.7-.35.35-3.5.1-.25L60,44l.25,0,.25.15"/><path class="cls-13" d="M84.55,79l.15-.25.3-.1.25.1.15.25.85,4.15,1.25-.4h.3l.25.2v.45l-.7,1.8H82.5l-1-3a.42.42,0,0,1,0-.35v0a.3.3,0,0,1,.25-.15h.35l1.35.55,1-3.15"/><path class="cls-14" d="M71.75,86l.15.25.85,4.15L74,90h.3l.25.2v.45l-.7,1.8H69l-1-3a.42.42,0,0,1,0-.35v0a.3.3,0,0,1,.25-.15h.35l1.35.55,1-3.15L71.2,86l.3-.1.25.1"/><path class="cls-15" d="M107.1,94.9l.3-.1.25.1.15.25.85,4.15,1.25-.4h.3l.25.2v.45l-.7,1.8H104.9l-1-3a.42.42,0,0,1,0-.35v0l.25-.15h.35l1.35.55,1-3.15a.3.3,0,0,1,.15-.25"/><path class="cls-16" d="M77.35,119.9l-1.2,3.15,1.5.4.3.25,0,.3,0,.15-.15.15-1.6,1h-6l-1.45-3.15h0V122l0-.2,0-.1.25-.1,1.7-.35.35-3.5.1-.25.25-.15.25,0,.25.15,2,2.85,2.8-1h.35l.2.2,0,0v.35"/><path class="cls-17" d="M33.7,37.15,42.8,56.9,43,58l-.4.95-.4.4,1.2,3.2a1.85,1.85,0,0,1,0,1.35l2.3,2.8a2,2,0,0,1,.45,1.15,2.07,2.07,0,0,1-.3,1.2l-.95.75-14.1,5.6-1.3.1a2,2,0,0,1-1.05-.8l-6.8-9.6a1.77,1.77,0,0,1-.4-1.15,2,2,0,0,1,.35-1.15l1.5-2.15L22,59a1.73,1.73,0,0,1-.4-1.25,1.92,1.92,0,0,1,.5-1.2L24,54.35l-.2-.7a1.54,1.54,0,0,1,.1-.95L30,37.25a1.82,1.82,0,0,1,1.05-1.1l1.5,0a2,2,0,0,1,1.15,1m-7.2,17.3-2.95,3.4L25.5,60.6l-2.3,3.3L30,73.5,31.5,73l-.05,0,12.65-5-3.6-4.35,1-.35-1.85-5-.4.15L41,57.7,31.85,38,25.75,53.4l.75,1.05.25.3H26.7l-.2-.3"/><path class="cls-18" d="M26.5,54.45l.2.3h.05L31.1,60.9V61l-.65,6.55L25.5,60.6l-1.95-2.75,2.95-3.4"/><path class="cls-19" d="M26.5,54.45l-.75-1.05L31.85,38l-.4,23.5L39.2,58.4l.4-.15,1.85,5-1,.35-9.7,3.8L30,73.5l-6.8-9.6,2.3-3.3,4.95,6.9L31.1,61V60.9l-4.35-6.15-.25-.3"/><path class="cls-20" d="M31.85,38,41,57.7l-1.75.7-7.75,3.05.4-23.5m8.65,25.6,3.6,4.35-12.65,5,.05,0L30,73.5l.8-6.15,9.7-3.8"/><path class="cls-21" d="M74,103l18.2-21.65L83.5,57.2,78.65,28.45l-1-1.45-8.2-11.55L49.7,14.9l-4.25,5-1,1.15L39.05,47.7l-4.8,5.75-2,2.35-8.6,23.65,16,22.5L74,103M48.2,13.6l.7-.5.85-.2,19.75.55.9.25.7.6,9.2,13,.35.85,4.8,28.6,8.6,24,.1,1-.45,1L75.5,104.3l-.7.55-.9.15-34.3-1-.9-.25-.65-.6-16-22.5-.35-.85a1.54,1.54,0,0,1,.1-1l8.6-23.65.35-.6,6.45-7.7,5.3-26.2.45-.9L48.2,13.6"/><path class="cls-22" d="M44.45,21.05l1-1.15,13.7,11.75,13.7.8L77.65,27l1,1.45L73.4,34.6l-15-1-14-12.6M32.25,55.8l2-2.35L45.4,70.65l26.2.8-1.75,2-25.6-.8-12-16.9"/><path class="cls-23" d="M45.45,19.9l4.25-5,19.75.55L77.65,27l-4.8,5.45-13.7-.8L45.45,19.9M34.25,53.45l4.8-5.75L57.2,64l1.25-30.35,15,1,3.35,30.75-5.15,6.1-26.2-.8L34.25,53.45"/><path class="cls-24" d="M78.65,28.45,83.5,57.2l8.65,24.15L74,103l-4.1-29.5,1.75-2,5.15-6.1L73.4,34.6l5.25-6.15m-39,73.5-16-22.5,8.6-23.65,12,16.9L39.65,102m-.6-54.25,5.4-26.65,14,12.6L57.2,64,39.05,47.7"/><path class="cls-25" d="M74,103l-34.3-1,4.6-29.25,25.6.8L74,103"/><path class="cls-17" d="M82.3,77.7l1.5,0a2,2,0,0,1,1.15,1l9.1,19.75.15,1-.4,1-.4.4,1.2,3.2a1.85,1.85,0,0,1,0,1.35l2.3,2.8a2,2,0,0,1,.45,1.15,2.07,2.07,0,0,1-.3,1.2l-1,.75L82,116.9l-1.3.1-1-.8-6.8-9.6a1.77,1.77,0,0,1-.4-1.15,2,2,0,0,1,.35-1.15l1.5-2.15-1.1-1.6a1.73,1.73,0,0,1-.4-1.25,1.92,1.92,0,0,1,.5-1.2l2-2.2-.2-.7a1.54,1.54,0,0,1,.1-1l6.1-15.45a1.82,1.82,0,0,1,1-1.1M78,96.3h0l-.2-.3.25.3m5.1-16.8L77,95l.75,1-3,3.4,2,2.75-2.3,3.3,6.8,9.6,1.5-.55,0,0,12.65-5-3.6-4.35,1-.35-1.85-5-.4.15,1.75-.7L83.1,79.5"/><path class="cls-18" d="M77.75,96l.2.3h0l4.35,6.15v0l-.65,6.55-5-6.9-2-2.75,3-3.4"/><path class="cls-19" d="M77.75,96,77,95,83.1,79.5,82.7,103l7.75-3,.4-.15,1.85,5-1,.35-9.7,3.8-.8,6.15-6.8-9.6,2.3-3.3,5,6.9.65-6.55v0L78,96.3l-.25-.3"/><path class="cls-20" d="M83.1,79.5l9.1,19.75-1.75.7-7.75,3,.4-23.5m8.65,25.6,3.6,4.35-12.65,5,0,0-1.5.55.8-6.15,9.7-3.8"/><path class="cls-17" d="M68.15,87.35l1.5.05a1.82,1.82,0,0,1,1,1.1L75,99.35l.15.9-.05.35,1.15,1.3a2,2,0,0,1,.45,1.2l-.35,1.25-.55.8.8,1.15a2.06,2.06,0,0,1,0,2.3l-4.8,6.75-1,.75a2.05,2.05,0,0,1-1.25,0l-1-.35-.6-.3-8.35-3.3-.95-.75a1.77,1.77,0,0,1-.35-1.2,2,2,0,0,1,.45-1.15l1.45-1.75a1.87,1.87,0,0,1,.1-1l.7-1.85-.1-.1-.4-1a1.91,1.91,0,0,1,.2-1l6.4-13.9a1.81,1.81,0,0,1,1.1-1.05m.7,1.85-6.4,13.9,1.25.5-.3-.1L62.1,107l.65.25-2.5,3.1,8.9,3.5-.05,0,1.05.35,4.8-6.75-1.6-2.3,1.35-2-2-2.4-.15.2h0l.2-.2.5-.75L68.85,89.2"/><path class="cls-19" d="M68.85,89.2l.3,16.55L63.7,103.6l-1.25-.5,6.4-13.9m3.8,11.6,2,2.4-1.35,2L69.85,110l-.45-4.6v-.05l3-4.35h0l.15-.2m-2.5,13.4-1.05-.35.05,0-8.9-3.5,2.5-3.1,6.85,2.7.55,4.3"/><path class="cls-20" d="M70.15,114.2l-.55-4.3-6.85-2.7L62.1,107l1.3-3.45.3.1,5.45,2.15-.3-16.55,4.3,10.85-.5.75-.2.2-3,4.35v.05l.45,4.6,3.5-4.85,1.6,2.3-4.8,6.75"/></g></g></svg>