<svg xmlns="http://www.w3.org/2000/svg" viewBox="0 0 120 140"><defs><style>.cls-1{fill:#a4afaf;}.cls-2{fill:#a9b6b6;}.cls-3{fill:#9ba6a6;}.cls-4{fill:#d9cbbf;}.cls-5{fill:#eedfd1;}.cls-6{fill:#c4f0ff;}.cls-7{fill:#877e75;}.cls-8{fill:#c6baaf;}.cls-9{fill:#def8ff;fill-opacity:0.5;}</style></defs><title>Asset 92</title><g id="Layer_2" data-name="Layer 2"><g id="Layer_1-2" data-name="Layer 1"><path class="cls-1" d="M96.8,37.45l3.7-4.35-5.9-2.75L90.9,34.7l5.9,2.75M64.8,17.2l3.7-4.35L62.6,10.1l-3.7,4.35,5.9,2.75M94.25,28.35l-5.9-2.75L84.65,30l5.9,2.75,3.7-4.35M82.4,41.5l5.85-6.85L79,30.35l-5.8,6.8L82.4,41.5M71.2,65l-5.8,6.8,9.25,4.35,5.85-6.85L71.2,65m-5.85-5.6-3.7,4.35,5.9,2.75,3.7-4.35-5.9-2.75m29.25,2.9L90.9,66.6l5.9,2.75L100.5,65l-5.9-2.75M93,99.85l-3.7,4.35L95.2,107l3.7-4.35L93,99.85m-8.35,5.75-5.9-2.75-3.7,4.35L81,110l3.7-4.35M83.2,90.35l-5.8,6.8,9.25,4.35,5.85-6.85-9.3-4.3m23.65-28.1-3.7,4.35,5.9,2.75,3.7-4.35-5.9-2.75M120,105,60,140,0,105V35L60,0l60,35v70M12.6,76.1,8.9,80.45l5.9,2.75,3.7-4.35L12.6,76.1M27.25,34.9l9.25,4.35,5.85-6.85-9.3-4.3-5.8,6.8M21.4,71.5l5.85-6.85L18,60.35l-5.8,6.8L21.4,71.5m-1,4.65,9.25,4.35,5.85-6.85-9.3-4.3-5.8,6.8m16.4-9.7,3.7-4.35-5.9-2.75L30.9,63.7l5.9,2.75M47,105.6l-5.9-2.75-3.7,4.35L43.3,110,47,105.6m-3.7,13.1,3.7-4.35-5.9-2.75L37.4,116l5.9,2.75M27.1,110l-3.7,4.35,5.9,2.75L33,112.7,27.1,110"/><path class="cls-2" d="M96.8,37.45,90.9,34.7l3.7-4.35,5.9,2.75-3.7,4.35m-14.4,4-9.25-4.35,5.8-6.8,9.3,4.3L82.4,41.5m2.25,64.1L81,110l-5.9-2.75,3.7-4.35,5.9,2.75M93,99.85l5.9,2.75L95.2,107l-5.9-2.75L93,99.85m13.85-37.6,5.9,2.75-3.7,4.35-5.9-2.75,3.7-4.35m-70,4.2L30.9,63.7l3.7-4.35,5.9,2.75-3.7,4.35m-16.4,9.7,5.8-6.8,9.3,4.3L29.65,80.5,20.4,76.15m1-4.65-9.25-4.35,5.8-6.8,9.3,4.3L21.4,71.5m21.9,47.2L37.4,116l3.7-4.35,5.9,2.75-3.7,4.35"/><path class="cls-3" d="M94.25,28.35l-3.7,4.35L84.65,30l3.7-4.35,5.9,2.75M64.8,17.2l-5.9-2.75,3.7-4.35,5.9,2.75L64.8,17.2M94.6,62.25,100.5,65l-3.7,4.35L90.9,66.6l3.7-4.35m-29.25-2.9,5.9,2.75-3.7,4.35-5.9-2.75,3.7-4.35M71.2,65l9.3,4.3L74.65,76.1,65.4,71.75,71.2,65m12,25.4,9.3,4.3-5.85,6.85L77.4,97.15l5.8-6.8M27.25,34.9l5.8-6.8,9.3,4.3L36.5,39.25,27.25,34.9M12.6,76.1l5.9,2.75L14.8,83.2,8.9,80.45l3.7-4.35M47,105.6,43.3,110l-5.9-2.75,3.7-4.35L47,105.6M27.1,110,33,112.7l-3.7,4.35-5.9-2.75L27.1,110"/><path class="cls-4" d="M55.55,67.65a10.32,10.32,0,0,1-1.95-1.1A5.84,5.84,0,0,1,50.9,62V57.35H51A6.08,6.08,0,0,0,53.6,61.3l1.95,1.05a11,11,0,0,0,4.65.95A11.44,11.44,0,0,0,65,62.35l1.9-1.05a6.08,6.08,0,0,0,2.65-3.95l.1-.45v-.5l-.1-.95a6.06,6.06,0,0,0-.9-2.05,18.21,18.21,0,0,1,2.75,1.65q4.5,3.2,4.65,7.7v.5l-.1,1.25c-.43-2.33-2-4.37-4.55-6.1l-1.75-1V62a5.8,5.8,0,0,1-2.75,4.55L65,67.65l-.25.1a12.07,12.07,0,0,1-4.5.8,11.58,11.58,0,0,1-4.4-.8l-.25-.1M65,57.55a4,4,0,0,0-1.25-1.5l-1.15-.6A6,6,0,0,0,60.2,55a5.9,5.9,0,0,0-2.35.45,4.09,4.09,0,0,0-1.15.6,3.56,3.56,0,0,0-1.2,1.5l-.25-1,.1-.65A3.26,3.26,0,0,1,56.7,54a5.81,5.81,0,0,1,3.5-1.05A5.9,5.9,0,0,1,63.75,54a3.19,3.19,0,0,1,1.4,1.9l0,.65-.2,1m-20.4,7-.1-1v-.9q.2-4.39,4.55-7.5a16.67,16.67,0,0,1,2.8-1.6,4.88,4.88,0,0,0-.85,2l-.1.4v1.5l-1.85,1c-2.53,1.77-4,3.8-4.45,6.1m36.1-1.6v7.7q-.15,5.9-6,10.05A21.41,21.41,0,0,1,67.85,84a28,28,0,0,1-7.65,1,27.24,27.24,0,0,1-7.55-1,21.36,21.36,0,0,1-6.9-3.3q-5.85-4.16-6-10.05V63.1q.26,5.7,6,9.8A24.13,24.13,0,0,0,60.2,77.2a24.08,24.08,0,0,0,14.5-4.3q5.85-4.2,6-10"/><path class="cls-5" d="M80.7,62.9q-.15,5.81-6,10a24.08,24.08,0,0,1-14.5,4.3,24.13,24.13,0,0,1-14.45-4.3q-5.74-4.09-6-9.8V62q.3-5.7,6-9.75A24.38,24.38,0,0,1,60.2,48,24.32,24.32,0,0,1,74.7,52.2q5.85,4.15,6,10v.7M65,57.55l.2-1,0-.65a3.19,3.19,0,0,0-1.4-1.9A5.9,5.9,0,0,0,60.2,52.9,5.81,5.81,0,0,0,56.7,54a3.26,3.26,0,0,0-1.35,1.9l-.1.65.25,1A3.23,3.23,0,0,0,56.7,59a5.81,5.81,0,0,0,3.5,1,5.9,5.9,0,0,0,3.55-1A3.59,3.59,0,0,0,65,57.55m10.9,7,.1-1.25v-.5q-.15-4.5-4.65-7.7A18.21,18.21,0,0,0,68.6,53.4a6.06,6.06,0,0,1,.9,2.05l.1.95v.5l-.1.45a6.08,6.08,0,0,1-2.65,3.95L65,62.35a11.44,11.44,0,0,1-4.75.95,11,11,0,0,1-4.65-.95L53.6,61.3A6.08,6.08,0,0,1,51,57.35L50.9,57v-1.1l.1-.4a4.88,4.88,0,0,1,.85-2,16.67,16.67,0,0,0-2.8,1.6q-4.35,3.11-4.55,7.5v.9l.1,1A9.89,9.89,0,0,0,49.05,71,18.59,18.59,0,0,0,60.2,74.3,18.3,18.3,0,0,0,71.35,71,10.05,10.05,0,0,0,75.9,64.5"/><path class="cls-6" d="M75.9,64.5A10.05,10.05,0,0,1,71.35,71,18.3,18.3,0,0,1,60.2,74.3,18.59,18.59,0,0,1,49.05,71,9.89,9.89,0,0,1,44.6,64.5c.43-2.3,1.92-4.33,4.45-6.1l1.85-1V62a5.84,5.84,0,0,0,2.7,4.55,10.32,10.32,0,0,0,1.95,1.1v1.2A2.72,2.72,0,0,0,56.9,71.1a6.29,6.29,0,0,0,6.65,0A2.89,2.89,0,0,0,65,69v-1.3l1.9-1.1A5.8,5.8,0,0,0,69.6,62V57.35l1.75,1c2.6,1.73,4.12,3.77,4.55,6.1m-20.4-7a3.56,3.56,0,0,1,1.2-1.5,4.09,4.09,0,0,1,1.15-.6A5.9,5.9,0,0,1,60.2,55a6,6,0,0,1,2.4.45l1.15.6A4,4,0,0,1,65,57.55,3.59,3.59,0,0,1,63.75,59a5.9,5.9,0,0,1-3.55,1,5.81,5.81,0,0,1-3.5-1,3.23,3.23,0,0,1-1.2-1.45"/><path class="cls-7" d="M50.9,57l.05.4H50.9V57m25-6.3q6.7,4.7,6.8,11.5v8.5q-.11,6.85-6.8,11.65L73.25,84a27.21,27.21,0,0,1-13,3,27,27,0,0,1-13-3L44.6,82.3q-6.8-4.8-6.9-11.65v-8.8q.25-6.6,6.9-11.2A25.79,25.79,0,0,1,60.2,46a26,26,0,0,1,15.7,4.7M80.7,62.9v-.7q-.15-5.85-6-10A24.32,24.32,0,0,0,60.2,48,24.38,24.38,0,0,0,45.75,52.2q-5.7,4-6,9.75V70.6q.15,5.9,6,10.05a21.36,21.36,0,0,0,6.9,3.3,27.24,27.24,0,0,0,7.55,1,28,28,0,0,0,7.65-1,21.41,21.41,0,0,0,6.85-3.3q5.85-4.16,6-10.05V62.9"/><path class="cls-8" d="M55.55,67.65l.25.1a11.58,11.58,0,0,0,4.4.8,12.07,12.07,0,0,0,4.5-.8l.25-.1V69a2.89,2.89,0,0,1-1.4,2.15,6.29,6.29,0,0,1-6.65,0,2.72,2.72,0,0,1-1.35-2.25v-1.2"/><path class="cls-9" d="M71,47.6a26.56,26.56,0,0,1,4.15,15v.4c-.07,2.63-1.45,4.87-4.15,6.7a17.11,17.11,0,0,1-10.1,3,16.89,16.89,0,0,1-10.05-3c-2.73-1.83-4.13-4.07-4.2-6.7v-.4a26.35,26.35,0,0,1,4.2-15Q55,41.35,60.85,41.35T71,47.6"/></g></g></svg>