<svg xmlns="http://www.w3.org/2000/svg" viewBox="0 0 120 140"><defs><style>.cls-1{fill:#ecdcb8;}.cls-2{fill:#e5d5b2;}.cls-3{fill:#a4afaf;}.cls-4{fill:#a9b6b6;}.cls-5{fill:#9ba6a6;}.cls-6{fill:#e0d1af;}</style></defs><title>Asset 46</title><g id="Layer_2" data-name="Layer 2"><g id="Layer_1-2" data-name="Layer 1"><path class="cls-1" d="M18.35,24.3l27.5-16h0L60,0l60,35v70L60,140,0,105V35L17.25,25l.05-.05h.05l1-.6m54.8,2.6a41.85,41.85,0,0,1,9.95-3.8l0-.05,2.8-.9L65.9,10.5a44.83,44.83,0,0,1-3.35,7.35L61.2,20l-1.5-.3a3.9,3.9,0,0,0-2.15.65l-13.8,8.1L42.4,31h-3l-.1.05-4.9,2.85-1.5,3.75-.25.55-1.2.45H26.2l-8,4.65A4.54,4.54,0,0,0,16.05,47v2.6A43.36,43.36,0,0,0,9.5,60.1,60.49,60.49,0,0,0,6.85,67L6,69.9v22a37.14,37.14,0,0,1,10.05-6.35v7.3a4.11,4.11,0,0,0,.6,2.15,4.18,4.18,0,0,0,1.55,1.6l8,4.65a38.12,38.12,0,0,0-8.7,6.9l30.3,17.65,1-1.7,2-3.95,1.45-3.7,5.35,3.15,2.1.55-.65.3,1.75,4,4-1.85-1.6-3.7,10.65-6.25a45.23,45.23,0,0,0-4.25,7.5A53.62,53.62,0,0,0,67,127l-.65,2.3,44.75-26.1h0a6.35,6.35,0,0,0,2.2-2.2,5.89,5.89,0,0,0,.8-3v-10a46.74,46.74,0,0,1-11,6.65,4.56,4.56,0,0,0,.4-1.9V71.3a38.54,38.54,0,0,0,5.45-7.25l2-3.95a39,39,0,0,0,2.4-7.05l.8-2.35V42a5.83,5.83,0,0,0-3-5.15h0l-5.65-3.3a61.49,61.49,0,0,1-8.35,3.25l0,.05c-1.57.4-3.08.87-4.55,1.4l-5.1-3-1.85-1.1H83.9l-1.35-3-1.6.75-.3-.55-.6-.35-6.9-4.05M112.5,78.8l.75-6.55-6.55-.8-.75,6.6,6.55.75M77.6,108a39.25,39.25,0,0,0-3.8,4.65l3-4.55.1-.2.7.1M11.25,45.9l-2,.9.85,2.1,2-.95-.85-2.05m-.4-5.7L13.6,44l3.85-2.8L14.6,37.4l-3.75,2.8M49,23.3l4.35-.7-.7-4.35L48.3,19,49,23.3M21.45,41l3.2-2.6L22.1,35.1l-3.25,2.6L21.45,41"/><path class="cls-2" d="M21.45,41l-2.6-3.25,3.25-2.6,2.55,3.25L21.45,41M61.2,20l1.35-2.15A44.83,44.83,0,0,0,65.9,10.5L85.85,22.15l-2.8.9,0,.05a41.85,41.85,0,0,0-9.95,3.8L61.9,20.35,61.2,20M81,31.85l1.6-.75,1.35,3H82.3L81,31.85m11.6,6.4c1.47-.53,3-1,4.55-1.4l0-.05a61.49,61.49,0,0,0,8.35-3.25l5.65,3.3h0A5.83,5.83,0,0,1,114,42v8.7l-.8,2.35a39,39,0,0,1-2.4,7.05l-2,3.95a38.54,38.54,0,0,1-5.45,7.25v-.65l-2.1-3.1,2.1-3.3V47a4.07,4.07,0,0,0-.55-2.1,4.26,4.26,0,0,0-1.55-1.6l-8.7-5M103,94.75a46.74,46.74,0,0,0,11-6.65v10a5.89,5.89,0,0,1-.8,3,6.35,6.35,0,0,1-2.2,2.2h0L66.3,129.3,67,127a53.62,53.62,0,0,1,2.6-6.85,45.23,45.23,0,0,1,4.25-7.5A39.25,39.25,0,0,1,77.6,108l3.4.45,1.75-1q3.45-2,6.9-4l4.8-2.8,6.8-4A4.75,4.75,0,0,0,102.8,95l.15-.25M63.15,118.9l1.6,3.7-4,1.85-1.75-4,.65-.3h.05a4.63,4.63,0,0,0,2.2-.55l1.25-.7M52.2,116.45l-1.45,3.7-2,3.95-1,1.7-30.3-17.65a38.12,38.12,0,0,1,8.7-6.9l26.05,15.2M16.05,85.55A37.14,37.14,0,0,0,6,91.9v-22l.85-3A60.49,60.49,0,0,1,9.5,60.1a43.36,43.36,0,0,1,6.55-10.5V77.1l.5,1,.9,1.65,1.05,2-2.45,3v.85M31.4,38.65l1.2-.45-.2.45h-1M112.5,78.8,106,78.05l.75-6.6,6.55.8-.75,6.55M49,23.3,48.3,19l4.35-.7.7,4.35L49,23.3M10.85,40.2l3.75-2.8,2.85,3.75L13.6,44,10.85,40.2m.4,5.7L12.1,48l-2,.95-.85-2.1,2-.9"/><path class="cls-3" d="M61.2,20l.7.35L73.15,26.9,80.05,31l-1.4-.65-5.8,6.8,9.25,4.35,5.35-6.2,5.1,3,8.7,5a4.26,4.26,0,0,1,1.55,1.6,4.07,4.07,0,0,1,.55,2.1V64.25l-2.1,3.3,2.1,3.1v22.2a4.56,4.56,0,0,1-.4,1.9l-.15.25a4.75,4.75,0,0,1-1.55,1.6l-6.8,4-1.75-.8-3,3.6q-3.45,2.05-6.9,4l1.6-1.9-5.9-2.75-3.7,4.35,2,.95-3,4.55L63.15,118.9l-1.25.7a4.63,4.63,0,0,1-2.2.55h-.05l-2.1-.55-5.35-3.15-26.05-15.2L18.2,96.6A4.18,4.18,0,0,1,16.65,95a4.11,4.11,0,0,1-.6-2.15V84.7l2.45-3-1.05-2,.75-.9-1.65-.75-.5-1v-8l5.05,2.35L27,64.6l-9.3-4.3-1.6,1.9V47a4.54,4.54,0,0,1,2.15-3.7l8-4.65h6.2l.2-.45.25-.55L36.2,39.2l5.85-6.85-2.8-1.3.1-.05h3l1.35-2.55,13.8-8.1a3.9,3.9,0,0,1,2.15-.65l1.5.3M94.3,62.2l-3.7,4.35,5.9,2.75L100.2,65,94.3,62.2M77.2,97l-.1.1,9.25,4.35L92.2,94.6l-9.3-4.3L77.2,97M29.35,80.45,35.2,73.6l-9.3-4.3-5.8,6.8,9.25,4.35M65.1,71.7l9.25,4.35L80.2,69.2l-9.3-4.3-5.8,6.8m2.15-5.3L71,62.05l-5.9-2.75-3.7,4.35,5.9,2.75m-30.75,0,3.7-4.35L34.3,59.3l-3.7,4.35,5.9,2.75m4.3,36.4-3.7,4.35L43,109.9l3.7-4.35-5.9-2.75"/><path class="cls-4" d="M80.05,31l.6.35.3.55,1.35,2.3h3.3l1.85,1.1-5.35,6.2L72.85,37.1l5.8-6.8,1.4.65m2.7,76.5-1.75,1L77.6,108l-.7-.1-.1.2-2-.95,3.7-4.35,5.9,2.75-1.6,1.9m6.9-4,3-3.6,1.75.8-4.8,2.8M16.05,69.1V62.2l1.6-1.9L27,64.6,21.1,71.45,16.05,69.1m13.3,11.35L20.1,76.1l5.8-6.8,9.3,4.3-5.85,6.85m7.15-14-5.9-2.75,3.7-4.35,5.9,2.75L36.5,66.4"/><path class="cls-5" d="M32.85,37.65l1.5-3.75,4.9-2.85,2.8,1.3L36.2,39.2l-3.35-1.55M94.3,62.2,100.2,65,96.5,69.3l-5.9-2.75,3.7-4.35M77.2,97l5.7-6.7,9.3,4.3-5.85,6.85L77.1,97.1l.1-.1m-60.65-19,1.65.75-.75.9-.9-1.65M67.25,66.4l-5.9-2.75,3.7-4.35L71,62.05l-3.7,4.35M65.1,71.7l5.8-6.8,9.3,4.3-5.85,6.85L65.1,71.7M40.8,102.8l5.9,2.75L43,109.9l-5.9-2.75,3.7-4.35"/><path class="cls-6" d="M17.3,24.9l1.05-.6-1,.6H17.3"/></g></g></svg>