<svg xmlns="http://www.w3.org/2000/svg" viewBox="0 0 120 140"><defs><style>.cls-1{fill:#bb6444;}.cls-2{fill:#c26948;}.cls-3{fill:#b55f40;}.cls-4{fill:#1e5d87;}.cls-5{fill:#3aacf7;}.cls-6{fill-opacity:0.1;}.cls-7{fill:#3295d7;}.cls-8{fill:#54bbff;}</style></defs><title>Asset 73</title><g id="Layer_2" data-name="Layer 2"><g id="Layer_1-2" data-name="Layer 1"><path class="cls-1" d="M25.15,23.55l-.55,5.3,5.25.5.55-5.25-5.25-.55M5.4,39.7,2.3,44l4.25,3.1,3.1-4.3-4.25-3m18,12.45L13.9,50l-2.1,9.55,9.45,2.1,2.15-9.5m2.65.35,2.15,4.85L33,55.2l-2.15-4.9-4.8,2.2m39.4-1.35L67,55.6l4.45-1.5L70,49.6l-4.5,1.55M59.7,44l-.6-5.3-5.25.65.6,5.25L59.7,44M36.4,48.5l2.25,7.2,7.25-2.25L43.6,46.2l-7.2,2.3M34.15,37.65l3.35,4.1,4.15-3.35-3.4-4.1-4.1,3.35m12.4-2.85-1.9,5,5.05,2,1.85-5-5-1.9M43.65,25,40,28.8l3.85,3.65L47.5,28.6,43.65,25M62.2,14l4.85-2.15L64.9,7.05,60,9.2,62.2,14M60,0l60,35v70L60,140,0,105V35L60,0M92.2,29.35l.55-5.25-5.25-.55L87,28.85l5.25.5M82,35.6l2.3,7.25,7.25-2.3L89.2,33.3,82,35.6M88.4,52.5l2.15,4.85L95.4,55.2l-2.2-4.9-4.8,2.2m-2.65-.35L76.25,50l-2.1,9.55,9.45,2.1,2.15-9.5m21.3-12.35,5,2,1.85-5-5-1.9-1.9,5m-3.5,33.55.65-5.6h0l.4-3.7-9.3-1-1.1,9.3,9.3,1m12.7-19.2-5.35-.5-.5,5.3,5.25.5.6-5.3M98,76l-3.1,4.3,4.35,3.1,3-4.3L98,76M92.2,91.7l.55-5.25L87.5,86,87,91.2l5.25.5m-9.6-15L75.9,70.6l-6.2,6.7,6.75,6.2,6.15-6.75M91.5,103l-2.3-7.3L82,98l2.3,7.25L91.5,103m9.1-6.3L96.5,100l3.35,4.1,4.15-3.35-3.4-4.1m-25.85,2L77.25,89l-9.6-2.5L65.2,96.1l9.55,2.55M62.2,76.4l4.85-2.2L64.9,69.4,60,71.55l2.2,4.85m24.5,35.7L77.2,110l-2.1,9.55,9.45,2.1,2.15-9.5m20.35-9.95,5,1.95,1.85-5-5-1.9-1.9,5M34.15,100l3.35,4.1,4.15-3.35-3.4-4.1L34.15,100M42.3,64.05,33,63,31.9,72.3l9.3,1,.65-5.6h0l.4-3.7m14.85,12.7h0L49.8,78.5l1.7,7.4,7.4-1.75-1.75-7.4m-12.5,25.4,5.05,1.95,1.85-5-5-1.9-1.9,5M5.3,86.5,2.8,96.1l9.6,2.55L14.9,89,5.3,86.5m15-9.75-6.7-6.15-6.2,6.7,6.7,6.2,6.2-6.75m10.15,9.7L25.15,86,24.6,91.2l5.25.5.55-5.25m34.5,41.2-.85-5.25-5.2.85.8,5.2,5.25-.8M70,112l-4.5,1.55L67,118l4.45-1.55L70,112m-42.7,4.35,4.8-2.15-2.2-4.9-4.75,2.2,2.15,4.85m11.4,1.8,7.25-2.3-2.3-7.2-7.2,2.25,2.25,7.25"/><path class="cls-2" d="M38.65,118.1l-2.25-7.25,7.2-2.25,2.3,7.2-7.25,2.3M25.15,23.55l5.25.55-.55,5.25-5.25-.5.55-5.3m.9,29,4.8-2.2L33,55.2l-4.8,2.15L26.05,52.5m-2.65-.35-2.15,9.5-9.45-2.1L13.9,50l9.5,2.15m68.8-22.8L87,28.85l.55-5.3,5.25.55-.55,5.25M88.4,52.5l4.8-2.2,2.2,4.9-4.85,2.15L88.4,52.5m18.65-12.7,1.9-5,5,1.9-1.85,5-5-2M98,76l4.3,3.1-3,4.3L94.9,80.3,98,76m-6.5,27-7.25,2.25L82,98l7.25-2.3,2.3,7.3m15.55-.8,1.9-5,5,1.9-1.85,5-5-1.95M86.7,112.1l-2.15,9.5-9.45-2.1L77.2,110l9.5,2.15M62.2,76.4,60,71.55l4.9-2.15,2.15,4.8L62.2,76.4M44.65,102.15l1.9-5,5,1.9-1.85,5-5.05-1.95M30.4,86.45l-.55,5.25-5.25-.5L25.15,86l5.25.5"/><path class="cls-3" d="M5.4,39.7l4.25,3-3.1,4.3L2.3,44,5.4,39.7M62.2,14,60,9.2l4.9-2.15,2.15,4.8L62.2,14M43.65,25,47.5,28.6l-3.65,3.85L40,28.8,43.65,25m2.9,9.85,5,1.9-1.85,5-5.05-2,1.9-5m-12.4,2.85,4.1-3.35,3.4,4.1L37.5,41.75l-3.35-4.1M36.4,48.5l7.2-2.3,2.3,7.25L38.65,55.7,36.4,48.5M59.7,44l-5.25.6-.6-5.25,5.25-.65.6,5.3m5.75,7.2L70,49.6l1.5,4.5L67,55.6l-1.55-4.45M82,35.6l7.25-2.3,2.3,7.25-7.25,2.3L82,35.6m3.8,16.55-2.15,9.5-9.45-2.1L76.25,50l9.5,2.15m30.5,2-.6,5.3L110.4,59l.5-5.3,5.35.5m-12.7,19.2-9.3-1,1.1-9.3,9.3,1-.4,3.7h0l-.65,5.6m-21,3.4L76.45,83.5,69.7,77.3l6.2-6.7,6.7,6.15m9.6,15L87,91.2,87.5,86l5.25.5L92.2,91.7m-17.45,7L65.2,96.1l2.45-9.6,9.6,2.5-2.5,9.65m25.85-2,3.4,4.1-4.15,3.35L96.5,100l4.1-3.35M57.15,76.75l1.75,7.4L51.5,85.9l-1.7-7.4,7.3-1.75h0M42.3,64.05l-.4,3.7h0l-.65,5.6-9.3-1L33,63l9.35,1m-8.15,36,4.1-3.35,3.4,4.1L37.5,104.1,34.15,100M20.25,76.75l-6.2,6.75-6.7-6.2,6.2-6.7,6.7,6.15M5.3,86.5,14.9,89l-2.5,9.65L2.8,96.1l2.5-9.6m22,29.8-2.15-4.85,4.75-2.2,2.2,4.9-4.8,2.15M70,112l1.5,4.5L67,118l-1.55-4.5L70,112m-5,15.7-5.25.8-.8-5.2,5.2-.85.85,5.25"/><path class="cls-4" d="M85,82.2l1.9-3.15a1.83,1.83,0,0,1,1.2-.9l6.4-1.75,1.2,0a2.15,2.15,0,0,1,1,.7l4.6,6.5.35.85-.1.9-2.15,6.9-2,6.2a2.12,2.12,0,0,1-.9,1.15l-.35.2-.25.1L87.1,103.4l-1.25.1a2.26,2.26,0,0,1-1-.65l-5-6.15-.4-1-1.7.3H76.6a1.83,1.83,0,0,1-1.35-.55L69.45,90l-.55-.9-.25-.95L65,75.55a1.6,1.6,0,0,1,0-1.1,1.85,1.85,0,0,1,.65-1L69.8,70a1.79,1.79,0,0,1,.65-.35l2.35-.75,1-.05.9.45,4.4,4,.45.6L84,82.15l.5.95.55-.9m-7.2-7.45-4.4-4-2.35.75L66.9,75l3.9,13.55,5.8,5.5h.7l4-.65,0,2,5,6.15L95.1,98.1l.35-.2L99.6,84.8,95,78.3l-6.4,1.75-4.3,7.1-6.5-12.4"/><path class="cls-5" d="M77.8,74.75l-6.75-3.2.25,7.35L66.9,75l4.15-3.45,2.35-.75,4.4,4m10.8,5.3L95,78.3l4.6,6.5-6.4,1.75,2.25-7-6.85.5"/><path class="cls-6" d="M99.35,92.3l.05,1.15q0,4.69-4.8,8a19.47,19.47,0,0,1-11.5,3.35,19.69,19.69,0,0,1-11.55-3.35q-4.76-3.3-4.75-8a8.51,8.51,0,0,1,1.85-5.3l.25.95.55.9,5.8,5.5a1.83,1.83,0,0,0,1.35.55h1.05l1.7-.3.4,1,5,6.15a2.26,2.26,0,0,0,1,.65l1.25-.1L95.85,100l.25-.1.35-.2a2.12,2.12,0,0,0,.9-1.15l2-6.2M84,82.15l1,0-.55.9-.5-.95"/><path class="cls-7" d="M99.6,84.8,95.45,97.9l-.35.2-8.75,3.45-5-6.15,0-2-4,.65h-.7l-5.8-5.5L66.9,75l4.4,3.9,5.3,15.15,5.6-3.5-.85,1.25,5.85,8.3,6-13.55,6.4-1.75"/><path class="cls-8" d="M77.8,74.75l6.5,12.4,4.3-7.1,6.85-.5-2.25,7-6,13.55-5.85-8.3.85-1.25-5.6,3.5L71.3,78.9l-.25-7.35,6.75,3.2"/><path class="cls-6" d="M31.6,43.3l-.3,4,.15.85.3.8L28.25,56l-.2.8.15.85.5,1.2.9.95,8,4.35.45.2a19.3,19.3,0,0,1-9.65-3.3q-4.75-3.3-4.75-8t4.75-8a14.67,14.67,0,0,1,3.2-1.7m7.25,21.1.15-.05a1.89,1.89,0,0,0,1.15-.75l6.1-8.3.4-.9.65-4.85,1.8-2.1.4-.75.35-1.25,0-.8,0-.65,1.6,1q4.8,3.34,4.8,8t-4.8,8A19.47,19.47,0,0,1,40,64.4h-1.1"/><path class="cls-4" d="M38.85,64.4l-.8-.05-.45-.2-8-4.35-.9-.95-.5-1.2-.15-.85.2-.8,3.5-7.1-.3-.8-.15-.85.3-4,.9-13a1.82,1.82,0,0,1,.55-1.2l.55-.6.15-.15,5-4.35a1.72,1.72,0,0,1,1-.45l1.15.2L46.8,26.7l.75.6.35.9,2,15.8,0,.65,0,.8L49.5,46.7l-.4.75-1.8,2.1-.65,4.85-.4.9-6.1,8.3a1.89,1.89,0,0,1-1.15.75l-.15.05m1.2-38.9-5,4.35-.55.6-1.2,17,.6,1.6-3.85,7.85.5,1.2,8,4.35.1-.15,6-8.15.75-5.45,2.15-2.5.35-1.25-2-16.45L40.05,25.5"/><path class="cls-8" d="M40.05,25.5l1.25,6.75-6.8-1.8.55-.6,5-4.35m-1,16.1.1.15,1.6,3.15,5,1-4.65,6.4-.4-7.35-6.1,3L39,41.75l0-.15"/><path class="cls-5" d="M40.05,25.5l5.85,2.95-4.6,3.8.5,11L39.05,41.6l0,.15L34.65,47.9l6.1-3,.4,7.35-2.5,10-.1.15-8-4.35-.5-1.2L33.9,49l-.6-1.6,1.2-16.95,6.8,1.8L40.05,25.5"/><path class="cls-7" d="M45.9,28.45l2,16.45-.35,1.25-2.15,2.5-.75,5.45-6,8.15,2.5-10,4.65-6.4-5-1-1.6-3.15-.1-.15,2.75,1.65-.5-11,4.6-3.8"/></g></g></svg>