<svg xmlns="http://www.w3.org/2000/svg" viewBox="0 0 120 140"><defs><style>.cls-1{fill:#bb8044;}.cls-2{fill:#c68a4e;}.cls-3{fill:#aa753e;}.cls-4{fill:#115f32;}.cls-5{fill:#1b914d;}.cls-6{fill-opacity:0.1;}.cls-7{fill:#198a49;}.cls-8{fill:#5a6b6b;}.cls-9{fill:#c6d2d2;}.cls-10{fill:#879393;}.cls-11{fill:#a4afaf;}.cls-12{fill:#b5c2c2;}</style></defs><title>Asset 39</title><g id="Layer_2" data-name="Layer 2"><g id="Layer_1-2" data-name="Layer 1"><path class="cls-1" d="M110.15,58,109,53.6l-4.4,1.2,1.2,4.45,4.4-1.25m-8.85,2-3.2-.45-.4,3.15,3.15.4.45-3.1M11.75,54.3l.85,2.1,2-.95-.85-2.05-2,.9M23.6,46.45l3.85-2.8L24.6,39.9l-3.75,2.8,2.75,3.75m3.85,3.45-6.8,3,3,6.9,6.85-3-3.05-6.9M66.6,17.4l-7.1-.8-.85,7,7.15.8.8-7M50.8,24l.7,4.35,4.35-.7-.7-4.35L50.8,24M34.6,45.1l-3.25,2.6L34,51l3.2-2.6L34.6,45.1M60,0l60,35v70L60,140,0,105V35L60,0M42.75,106.7l1.9,1,1.15-2-2-1-1,2M35.1,91.4l-3.55,6.7,6.55,3.5L41.7,95,35.1,91.4M110,68.8l.75-6.55-6.55-.8-.75,6.6,6.55.75M25.45,106.5l4.5,1.2,1.25-4.45L26.65,102l-1.2,4.55M28.4,92.35l-4-.95-1,4,4,1,1-4.05m58.85-12.1,2.9,1.2,1.25-2.9-3-1.25-1.2,3M89.7,86l0,4.55H94.3V86H89.7M76.85,97.6,83,100l2.45-6.1L79.3,91.45,76.85,97.6M109,91.85l-4,1.85,1.75,4,4-1.85-1.75-4M96.15,99.3l1,7,7.1-1.1-1-7-7.1,1.1"/><path class="cls-2" d="M101.3,60l-.45,3.1-3.15-.4.4-3.15,3.2.45M27.45,49.9l3.05,6.9-6.85,3-3-6.9,6.8-3M50.8,24l4.35-.7.7,4.35-4.35.7L50.8,24M35.1,91.4,41.7,95l-3.6,6.65-6.55-3.5,3.55-6.7M87.25,80.25l1.2-3,3,1.25-1.25,2.9-2.9-1.2M109,91.85l1.75,4-4,1.85-1.75-4,4-1.85"/><path class="cls-3" d="M110.15,58l-4.4,1.25-1.2-4.45,4.4-1.2,1.2,4.4M23.6,46.45,20.85,42.7l3.75-2.8,2.85,3.75-3.85,2.8M11.75,54.3l2-.9.85,2.05-2,.95-.85-2.1M66.6,17.4l-.8,7.05-7.15-.8.85-7,7.1.8m-32,27.7,2.55,3.25L34,51l-2.6-3.25,3.25-2.6m8.15,61.6,1-2,2,1-1.15,2-1.9-1M28.4,92.35l-1,4.05-4-1,1-4,4,.95M25.45,106.5l1.2-4.55,4.55,1.3L30,107.7l-4.5-1.2M110,68.8l-6.55-.75.75-6.6,6.55.8L110,68.8M76.85,97.6l2.45-6.15,6.15,2.45L83,100l-6.15-2.4M89.7,86h4.6V90.5H89.75l0-4.55M96.15,99.3l7.1-1.1,1,7-7.1,1.1-1-7"/><path class="cls-4" d="M100.35,70.9a6,6,0,0,1-1.5-3.9v-.9a48.75,48.75,0,0,1,1.5-13q1.84-7.1,5.2-6.65,3.35-.5,5.3,6.65a52.21,52.21,0,0,1,1.4,13V67a6.53,6.53,0,0,1-1.4,4l-.5.55h0l-1.15.9a3.21,3.21,0,0,1-1,2.35l-.15.15a3.51,3.51,0,0,1-2.4.95h0a3.38,3.38,0,0,1-2.5-1,3.48,3.48,0,0,1-1-2.45l-1.15-.9h.05l-.55-.6m6.8.25a5.1,5.1,0,0,0,1.75-1.1l.2-.15a4.53,4.53,0,0,0,1.15-3V66.1a49.92,49.92,0,0,0-1.35-12.5q-1.4-5.15-3.35-5.15t-3.3,5.15a48.37,48.37,0,0,0-1.4,12.5V67a4.3,4.3,0,0,0,1.25,3l.15.15,1.75,1.1V72.3a1.54,1.54,0,0,0,1.55,1.55h0a1.35,1.35,0,0,0,1.05-.45,1.44,1.44,0,0,0,.5-1.1V71.15"/><path class="cls-5" d="M107.15,71.15l-1.6.25L104,71.15l-1.75-1.1-.15-.15a4.3,4.3,0,0,1-1.25-3V66.1a48.37,48.37,0,0,1,1.4-12.5q1.35-5.15,3.3-5.15t3.35,5.15a49.92,49.92,0,0,1,1.35,12.5V67a4.53,4.53,0,0,1-1.15,3l-.2.15a5.1,5.1,0,0,1-1.75,1.1"/><path class="cls-1" d="M107.15,71.15V72.3a1.44,1.44,0,0,1-.5,1.1,1.35,1.35,0,0,1-1.05.45h0A1.54,1.54,0,0,1,104,72.3V71.15l1.55.25,1.6-.25"/><path class="cls-6" d="M110.85,71a3.36,3.36,0,0,1,1.5,2.7,3.72,3.72,0,0,1-2,3.1,8.34,8.34,0,0,1-4.75,1.3,8.57,8.57,0,0,1-4.8-1.3,3.72,3.72,0,0,1-2-3.1,3.48,3.48,0,0,1,1.5-2.75l.55.6h-.05l1.15.9a3.48,3.48,0,0,0,1,2.45,3.38,3.38,0,0,0,2.5,1h0a3.51,3.51,0,0,0,2.4-.95l.15-.15a3.21,3.21,0,0,0,1-2.35l1.15-.9h0l.5-.55"/><path class="cls-4" d="M29.3,62.1l1.55-.75,1.15-1a6.89,6.89,0,0,0,2.1-4.75v-3l-.2-4.85-.25-3.1L33.4,42.4l-1.1-6L32,35.2l-.5-1.75q-1.7-5.4-3.95-6.05l-.65-.1-.65.1Q24,28,22.35,33.45L21.8,35.2l-.3,1.2-1.1,6-.25,2.25-.25,3.1-.2,4.85v3a6.89,6.89,0,0,0,2.1,4.75l1.3,1,1.45.7v1.75a2.24,2.24,0,0,0,.65,1.65,2.3,2.3,0,0,0,1.7.7H27a2.39,2.39,0,0,0,2.35-2.35V62.1m-8.5,0-.4-.35a8.75,8.75,0,0,1-2.7-6.1V54.3a76,76,0,0,1,2.05-19l.15-.6a24.11,24.11,0,0,1,2.45-6.35Q24.3,25,26.9,25.3c1.73-.17,3.27.87,4.6,3.1A26.43,26.43,0,0,1,34,34.7l.15.5a79,79,0,0,1,2,19.1v1.4a8.83,8.83,0,0,1-2.65,6.1l-.3.3L31.3,63.4v.45a4.07,4.07,0,0,1-1.2,3L30,67a4.07,4.07,0,0,1-3,1.2H26.9a4.27,4.27,0,0,1-4.35-4.35V63.4L20.8,62.15"/><path class="cls-5" d="M21.5,36.4l.3-1.2.55-1.75q1.65-5.4,3.9-6.05l.65-.1.65.1q2.25.64,3.95,6.05L32,35.2l.3,1.2-.3.1-.2.1-.95.2-1.55.25-2.4.1-2.35-.1-1.45-.2-1.05-.25-.25-.1-.3-.1m11.9,6,.25,2.25.25,3.1a4.25,4.25,0,0,1-1.9,2l-1.15.6-1.55.45L26.9,51l-2.35-.25-1.45-.4-1.3-.65a4.25,4.25,0,0,1-1.9-2l.25-3.1.25-2.25.1.05,1.3.85,1.3.5,1.45.35,2.35.2,2.4-.2,1.55-.35L32,43.3l1.35-.85,0-.05m.7,10.9v2.3A6.89,6.89,0,0,1,32,60.35l-1.15,1-1.55.75-2.4.35-2.35-.35-1.45-.7-1.3-1a6.89,6.89,0,0,1-2.1-4.75V53.3a4.92,4.92,0,0,0,2.1,3.75,6.61,6.61,0,0,0,1.3.85l1.45.55,2.35.3,2.4-.3,1.55-.6,1.15-.8a4.92,4.92,0,0,0,2.1-3.75"/><path class="cls-7" d="M34.1,53.3A4.92,4.92,0,0,1,32,57.05l-1.15.8-1.55.6-2.4.3-2.35-.3L23.1,57.9a6.61,6.61,0,0,1-1.3-.85,4.92,4.92,0,0,1-2.1-3.75v-.7l.2-4.85a4.25,4.25,0,0,0,1.9,2l1.3.65,1.45.4L26.9,51l2.4-.25,1.55-.45L32,49.7a4.25,4.25,0,0,0,1.9-2l.2,4.85v.7M32.3,36.4l1.1,6,0,.05L32,43.3l-1.15.5-1.55.35-2.4.2-2.35-.2L23.1,43.8l-1.3-.5-1.3-.85-.1-.05,1.1-6,.3.1.25.1,1.05.25,1.45.2,2.35.1,2.4-.1,1.55-.25.95-.2.2-.1.3-.1"/><path class="cls-6" d="M33.15,62.1l.7.3q2.81,1.5,2.8,3.6t-2.8,3.55a14.23,14.23,0,0,1-6.8,1.5,14.23,14.23,0,0,1-6.8-1.5q-2.8-1.45-2.8-3.55t2.8-3.6l.55-.25,1.75,1.25v.45A4.27,4.27,0,0,0,26.9,68.2H27A4.07,4.07,0,0,0,30,67l.15-.15a4.07,4.07,0,0,0,1.2-3V63.4l1.85-1.3"/><path class="cls-1" d="M29.3,62.1v1.75A2.39,2.39,0,0,1,27,66.2H26.9a2.3,2.3,0,0,1-1.7-.7,2.24,2.24,0,0,1-.65-1.65V62.1l2.35.35,2.4-.35"/><path class="cls-8" d="M72.25,11.2l.7.6,9.2,13,.35.85,4.8,28.6,8.6,24,.1,1-.45,1L77.35,101.8l-.7.55-.9.15-34.3-1-.9-.25-.65-.6-16-22.5-.35-.85a1.54,1.54,0,0,1,.1-1l8.6-23.65a1.4,1.4,0,0,1,.35-.6l6.45-7.7,5.3-26.2a2,2,0,0,1,.45-.9l5.25-6.15.7-.5.85-.2L71.35,11l.9.25m3.55,89.3L94,78.85,85.35,54.7,80.5,26l-1-1.45L71.3,13,51.55,12.4l-4.25,5-1,1.15L40.9,45.2,36.1,51l-2,2.35L25.5,77l16,22.5,34.3,1"/><path class="cls-9" d="M34.1,53.3l2-2.35,11.15,17.2,26.2.8L71.7,71l-25.6-.8-12-16.9M46.3,18.55l1-1.15L61,29.15l13.7.8,4.8-5.45,1,1.45L75.25,32.1l-15-1-14-12.6"/><path class="cls-10" d="M46.3,18.55l14,12.6L59.05,61.5,40.9,45.2l5.4-26.65M80.5,26,85.35,54.7,94,78.85,75.8,100.5,71.7,71l1.75-2,5.15-6.1L75.25,32.1,80.5,26m-39,73.5L25.5,77,34.1,53.3l12,16.9L41.5,99.45"/><path class="cls-11" d="M36.1,51l4.8-5.75L59.05,61.5,60.3,31.15l15,1L78.6,62.85,73.45,69l-26.2-.8L36.1,51M47.3,17.4l4.25-5L71.3,13,79.5,24.5,74.7,30,61,29.15,47.3,17.4"/><path class="cls-12" d="M75.8,100.5l-34.3-1L46.1,70.2l25.6.8,4.1,29.5"/><path class="cls-11" d="M105.15,75.2,89.1,81.5l-.25,28.1L64.9,98.3l9-24,.65-13.5,16.05-6.2L105.9,61.7l-.75,13.5"/><path class="cls-8" d="M106.75,59.9a1.92,1.92,0,0,1,1,.9l9,17.15.2,1-.95,21-.35,1.1-.9.7L89.6,111.5l-.8.1-.8-.2-24-11.3-.85-.75a1.86,1.86,0,0,1-.3-1.15l1.15-21a2,2,0,0,1,.25-.8L72.85,60a1.66,1.66,0,0,1,1.05-1l16-6.2,1.55.05,15.25,7m-.85,1.8L90.65,54.65,74.6,60.85l-8.55,16.5-1.15,21,23.95,11.3,25.05-9.8.95-21L105.9,61.7"/><path class="cls-10" d="M74.6,60.85,74,74.35l-9,24,1.15-21,8.55-16.5M105.15,75.2l.75-13.5,8.95,17.15-.95,21-8.75-24.6"/><path class="cls-12" d="M105.15,75.2l8.75,24.6-25.05,9.8.25-28.1,16.05-6.3"/><path class="cls-8" d="M16.7,57.25l.7-.5.85-.2,10.45.25.9.25.7.6,4.85,6.85.35.85,2.5,15,4.45,12.5.1,1-.45,1-9.55,11.4-.7.55-.9.15-18-.5-.9-.2-.65-.65L3,93.65,2.6,92.8a1.54,1.54,0,0,1,.1-1l4.5-12.4.3-.6,3.25-3.95L13.5,61.4l.45-.9,2.75-3.25m16.8,8.4L28.65,58.8,18.2,58.55,15.45,61.8l-2.85,14L9.05,80.1,4.55,92.5,13,104.4l18.05.5,9.55-11.4-4.5-12.7L33.5,65.65"/><path class="cls-11" d="M33.5,65.65,30.75,68.9,32.5,85.15l-3.6,4.2L15.3,89,9.05,80.1l3.55-4.3,9.6,8.6.65-16-7.4-6.65,2.75-3.25,10.45.25,4.85,6.85"/><path class="cls-10" d="M33.5,65.65,36.05,80.8l4.5,12.7L31,104.9,28.9,89.35l3.6-4.2L30.75,68.9l2.75-3.25M13,104.4,4.55,92.5l4.5-12.4L15.3,89,13,104.4M12.6,75.8l2.85-14,7.4,6.65-.65,16-9.6-8.6"/><path class="cls-12" d="M31,104.9l-18-.5L15.3,89l13.6.4L31,104.9"/><path class="cls-8" d="M79.3,87.75,76,83.15,74.35,71.5,72.1,68.3,61.5,68l-2.8,3.35L55.2,89.9l-3.9,4.7-2.45,18L57,123.85l17.2.55,9.2-10.85-4-25.8M57.2,70.1,60,66.75l.7-.55.85-.2,10.6.3a1.8,1.8,0,0,1,.9.25l.7.6L76,70.35l.35.9,1.55,11.1,3,4.25.35.85,4,25.8,0,.85-.4.75L75.7,125.7l-.75.55-.85.15-17.2-.55-.85-.2-.7-.6-8.1-11.25a1.82,1.82,0,0,1-.35-1.45l2.45-18a1.69,1.69,0,0,1,.4-1l3.6-4.3,3.4-18a1.68,1.68,0,0,1,.45-.9m19.35,30.55,0-.1.05,0-.1.05m.1-.15,0,0v0h0"/><path class="cls-11" d="M76.65,100.5l-.05,0,0,.1-3.5,4.15-14.8-.45-7-9.75,3.9-4.7,9.7,8.3,12.1,2-.2.2-.1.1,0,0m-18-29.15L61.5,68l10.6.3,2.25,3.2L76,83.15l3.3,4.6-3.4,4-10.45-1.6.15-12.9-6.9-5.9"/><path class="cls-10" d="M79.3,87.75l4,25.8-9.2,10.85-1.1-19.6,3.5-4.15.1-.05,0-.1v0l.1-.1.2-.2v-.05l-1.1-8.35,3.4-4M57,123.85l-8.1-11.25,2.45-18,7,9.75L57,123.85M55.2,89.9l3.5-18.55,6.9,5.9-.15,12.9-.55,8-9.7-8.3"/><path class="cls-12" d="M74.15,124.4,57,123.85l1.3-19.5,14.8.45,1.1,19.6m-8.7-34.25,10.45,1.6L77,100.1v.05l-12.1-2,.55-8"/><path class="cls-7" d="M34.65,72.35l.3.1.25.1,1,.25,1.45.2,2.35.1,2.4-.1L44,72.75l1-.2.2-.1.3-.1,1.1,6,0,.05-1.35.85-1.15.5-1.55.35-2.4.2-2.35-.2-1.45-.35-1.3-.5-1.3-.85-.1-.05,1.1-6M33.05,83.7a4.25,4.25,0,0,0,1.9,2,5.85,5.85,0,0,0,1.3.65l1.45.4,2.35.25,2.4-.25L44,86.25l1.15-.6a4.25,4.25,0,0,0,1.9-2l.2,4.85v.7A4.92,4.92,0,0,1,45.15,93L44,93.8l-1.55.6-2.4.3-2.35-.3-1.45-.55A6.61,6.61,0,0,1,35,93a4.92,4.92,0,0,1-2.1-3.75v-.7l.2-4.85"/><path class="cls-5" d="M33.05,83.7l.25-3.1.25-2.25.1.05,1.3.85,1.3.5,1.45.35,2.35.2,2.4-.2L44,79.75l1.15-.5,1.35-.85,0-.05.25,2.25.25,3.1a4.25,4.25,0,0,1-1.9,2l-1.15.6-1.55.45-2.4.25L37.7,86.7l-1.45-.4a5.85,5.85,0,0,1-1.3-.65,4.25,4.25,0,0,1-1.9-2m12.4-11.35-.3.1-.2.1-1,.2L42.45,73l-2.4.1L37.7,73l-1.45-.2-1-.25-.25-.1-.3-.1.3-1.2.55-1.75q1.65-5.4,3.9-6.05l.65-.1.65.1Q43,64,44.65,69.4l.5,1.75.3,1.2m-12.6,16.9A4.92,4.92,0,0,0,35,93a6.61,6.61,0,0,0,1.3.85l1.45.55,2.35.3,2.4-.3L44,93.8l1.15-.8a4.92,4.92,0,0,0,2.1-3.75v2.3a6.89,6.89,0,0,1-2.1,4.75L44,97.3l-1.55.75-2.4.35-2.35-.35-1.45-.7-1.3-1a6.89,6.89,0,0,1-2.1-4.75v-2.3"/><path class="cls-4" d="M32.85,89.25v2.3A6.89,6.89,0,0,0,35,96.3l1.3,1,1.45.7V99.8a2.24,2.24,0,0,0,.65,1.65,2.3,2.3,0,0,0,1.7.7h.05a2.39,2.39,0,0,0,2.35-2.35V98.05L44,97.3l1.15-1a6.89,6.89,0,0,0,2.1-4.75v-3l-.2-4.85-.25-3.1-.25-2.25-1.1-6-.3-1.2-.5-1.75Q43,64,40.7,63.35l-.65-.1-.65.1q-2.25.65-3.9,6.05L35,71.15l-.3,1.2-1.1,6L33.3,80.6l-.25,3.1-.2,4.85v.7M34,98.1l-.4-.35a8.75,8.75,0,0,1-2.7-6.1v-1.4a76,76,0,0,1,2-19l.15-.6A24.11,24.11,0,0,1,35.5,64.3q1.95-3.3,4.55-3c1.73-.17,3.27.87,4.6,3.1a26.43,26.43,0,0,1,2.45,6.3l.15.5a79,79,0,0,1,2,19.1v1.4a8.83,8.83,0,0,1-2.65,6.1l-.3.3-1.85,1.3v.45a4.07,4.07,0,0,1-1.2,3l-.15.15a4.07,4.07,0,0,1-3,1.2h-.05A4.27,4.27,0,0,1,35.7,99.8v-.45L34,98.1"/><path class="cls-6" d="M34,98.1l1.75,1.25v.45a4.27,4.27,0,0,0,4.35,4.35h.05a4.07,4.07,0,0,0,3-1.2l.15-.15a4.07,4.07,0,0,0,1.2-3v-.45l1.85-1.3.7.3q2.8,1.5,2.8,3.6T47,105.5a14.23,14.23,0,0,1-6.8,1.5,14.23,14.23,0,0,1-6.8-1.5Q30.6,104,30.6,102t2.8-3.6L34,98.1"/><path class="cls-1" d="M42.45,98.05V99.8a2.39,2.39,0,0,1-2.35,2.35h-.05a2.3,2.3,0,0,1-1.7-.7,2.24,2.24,0,0,1-.65-1.65V98.05l2.35.35,2.4-.35"/><path class="cls-8" d="M28.55,110.9l9.15,8.6L49.25,116,46.6,101.35l-5.3-.1-6.25,1-5.95,2-.55,6.55m6.2-10.55,6.25-1,.35,0,5.3.1a1.82,1.82,0,0,1,1.25.5,2,2,0,0,1,.7,1.15l2.65,14.65a2,2,0,0,1-.3,1.4l-1.1.9-11.55,3.5h-1a2.5,2.5,0,0,1-.9-.5l-9.15-8.6-.5-.7-.15-.9.55-6.55a1.72,1.72,0,0,1,.45-1,1.82,1.82,0,0,1,.9-.7l5.95-2,.35-.05"/><path class="cls-11" d="M28.55,110.9,35,103.65l0-1.35,6.25-1,1.1,6-2.7.85-2,11.45-9.15-8.6"/><path class="cls-10" d="M28.55,110.9l.55-6.55,5.95-2,0,1.35-6.45,7.25m13.85-3.7-1.1-6,5.3.1L49.25,116l-6.85-8.8"/><path class="cls-12" d="M42.4,107.2l6.85,8.8L37.7,119.5l2-11.45,2.7-.85"/><path class="cls-4" d="M93.65,63.65l1.75-1.1.2-.15a4.53,4.53,0,0,0,1.15-2.95V58.6A49.92,49.92,0,0,0,95.4,46.1Q94,41,92.05,41t-3.3,5.15a48.37,48.37,0,0,0-1.4,12.5v.85A4.3,4.3,0,0,0,88.6,62.4l.15.15a4.34,4.34,0,0,0,1.75,1.1V64.8a1.54,1.54,0,0,0,1.55,1.55h0a1.35,1.35,0,0,0,1.05-.45,1.44,1.44,0,0,0,.5-1.1V63.65m-6.8-.25a6,6,0,0,1-1.5-3.9v-.9a48.75,48.75,0,0,1,1.5-13q1.84-7.1,5.2-6.65,3.35-.5,5.3,6.65a52.21,52.21,0,0,1,1.4,13v.9a6.53,6.53,0,0,1-1.4,4l-.5.55h0l-1.15.9a3.21,3.21,0,0,1-1,2.35l-.15.15a3.51,3.51,0,0,1-2.4.95h0a3.38,3.38,0,0,1-2.5-1,3.48,3.48,0,0,1-1-2.45L87.35,64h.05l-.55-.6"/><path class="cls-5" d="M90.5,63.65a4.34,4.34,0,0,1-1.75-1.1l-.15-.15a4.3,4.3,0,0,1-1.25-2.95V58.6a48.37,48.37,0,0,1,1.4-12.5Q90.1,41,92.05,41T95.4,46.1a49.92,49.92,0,0,1,1.35,12.5v.85A4.53,4.53,0,0,1,95.6,62.4l-.2.15-1.75,1.1-1.6.25-1.55-.25"/><path class="cls-6" d="M97.35,63.45a3.36,3.36,0,0,1,1.5,2.7,3.72,3.72,0,0,1-2,3.1,8.34,8.34,0,0,1-4.75,1.3,8.57,8.57,0,0,1-4.8-1.3,3.72,3.72,0,0,1-2-3.1,3.48,3.48,0,0,1,1.5-2.75l.55.6h-.05l1.15.9a3.48,3.48,0,0,0,1,2.45,3.38,3.38,0,0,0,2.5,1h0a3.51,3.51,0,0,0,2.4-.95l.15-.15a3.21,3.21,0,0,0,1-2.35L96.8,64h0l.5-.55"/><path class="cls-1" d="M93.65,63.65V64.8a1.44,1.44,0,0,1-.5,1.1,1.35,1.35,0,0,1-1.05.45h0A1.54,1.54,0,0,1,90.5,64.8V63.65l1.55.25,1.6-.25"/><path class="cls-4" d="M87.4,112.15l1.75-1.1.2-.15a4.53,4.53,0,0,0,1.15-3v-.85a49.92,49.92,0,0,0-1.35-12.5q-1.4-5.14-3.35-5.15T82.5,94.6a48.37,48.37,0,0,0-1.4,12.5V108a4.3,4.3,0,0,0,1.25,3l.15.15a4.34,4.34,0,0,0,1.75,1.1v1.15a1.54,1.54,0,0,0,1.55,1.55h0a1.35,1.35,0,0,0,1.05-.45,1.44,1.44,0,0,0,.5-1.1v-1.15m-6.8-.25a6,6,0,0,1-1.5-3.9v-.9a48.75,48.75,0,0,1,1.5-13q1.84-7.09,5.2-6.65,3.35-.49,5.3,6.65a52.21,52.21,0,0,1,1.4,13v.9a6.53,6.53,0,0,1-1.4,4l-.5.55h0l-1.15.9a3.21,3.21,0,0,1-1,2.35l-.15.15a3.51,3.51,0,0,1-2.4.95h0a3.38,3.38,0,0,1-2.5-1,3.48,3.48,0,0,1-1-2.45l-1.15-.9h.05l-.55-.6"/><path class="cls-5" d="M84.25,112.15a4.34,4.34,0,0,1-1.75-1.1l-.15-.15a4.3,4.3,0,0,1-1.25-3v-.85a48.37,48.37,0,0,1,1.4-12.5q1.35-5.14,3.3-5.15t3.35,5.15a49.92,49.92,0,0,1,1.35,12.5V108a4.53,4.53,0,0,1-1.15,3l-.2.15-1.75,1.1-1.6.25-1.55-.25"/><path class="cls-6" d="M91.1,112a3.36,3.36,0,0,1,1.5,2.7,3.72,3.72,0,0,1-2,3.1,8.34,8.34,0,0,1-4.75,1.3,8.57,8.57,0,0,1-4.8-1.3,3.72,3.72,0,0,1-2-3.1,3.48,3.48,0,0,1,1.5-2.75l.55.6H81.1l1.15.9a3.48,3.48,0,0,0,1,2.45,3.38,3.38,0,0,0,2.5,1h0a3.51,3.51,0,0,0,2.4-.95l.15-.15a3.21,3.21,0,0,0,1-2.35l1.15-.9h0l.5-.55"/><path class="cls-1" d="M87.4,112.15v1.15a1.44,1.44,0,0,1-.5,1.1,1.35,1.35,0,0,1-1.05.45h0a1.54,1.54,0,0,1-1.55-1.55v-1.15l1.55.25,1.6-.25"/></g></g></svg>