<svg xmlns="http://www.w3.org/2000/svg" viewBox="0 0 120 140"><defs><style>.cls-1{fill:#bb8044;}.cls-2{fill:#aa753e;}.cls-3{fill:#c68a4e;}.cls-4{fill:#115f32;}.cls-5{fill:#1b914d;}.cls-6{fill:#168344;}.cls-7{fill:#855b30;}.cls-8{fill:#cd8c4a;}.cls-9{fill:#a6b1b1;}.cls-10{fill:#b9c6c6;}.cls-11{fill:#727979;}.cls-12{fill-opacity:0.1;}.cls-13{fill:#aa743e;}.cls-14{fill:#10773c;}.cls-15{fill:#ffc144;}.cls-16{fill:#d5e5e5;}.cls-17{fill:#d9d9d9;}.cls-18{fill:#fdfdfd;}.cls-19{fill:#ad832e;}.cls-20{fill:#aeaeae;}.cls-21{fill:#909a9a;}</style></defs><title>Asset 139</title><g id="Layer_2" data-name="Layer 2"><g id="Layer_1-2" data-name="Layer 1"><path class="cls-1" d="M110.75,95.85l-1.75-4-4,1.85,1.75,4,4-1.85m-73.6-47.5L34.6,45.1l-3.25,2.6L34,51l3.2-2.6M59.5,16.6l-.85,7,7.15.8.8-7-7.1-.8m-3.65,11-.7-4.35L50.8,24l.7,4.35,4.35-.7M23.6,46.45l3.85-2.8L24.6,39.9l-3.75,2.8,2.75,3.75m-3,6.45,3,6.9,6.85-3-3.05-6.9-6.8,3M27.4,96.4l1-4.05-4-.95-1,4,4,1M11.75,54.3l.85,2.1,2-.95-.85-2.05-2,.9M41.7,95,35.1,91.4l-3.55,6.7,6.55,3.5L41.7,95m64.05-35.7,4.4-1.25L109,53.6l-4.4,1.2,1.2,4.45m-7.65.25-.4,3.15,3.15.4.45-3.1-3.2-.45M94.3,86H89.7l0,4.55H94.3V86m9.15-17.9,6.55.75.75-6.55-6.55-.8-.75,6.6m-16.2,12.2,2.9,1.2,1.25-2.9-3-1.25-1.2,3m16,18-7.1,1.1,1,7,7.1-1.1-1-7m-24-6.75L76.85,97.6,83,100l2.45-6.1L79.3,91.45M120,35v70L60,140,0,105V35L60,0l60,35M31.2,103.25,26.65,102l-1.2,4.55,4.5,1.2,1.25-4.45m11.55,3.45,1.9,1,1.15-2-2-1-1,2"/><path class="cls-2" d="M59.5,16.6l7.1.8-.8,7.05-7.15-.8.85-7M37.15,48.35,34,51l-2.6-3.25,3.25-2.6,2.55,3.25M23.6,46.45,20.85,42.7l3.75-2.8,2.85,3.75-3.85,2.8M11.75,54.3l2-.9.85,2.05-2,.95-.85-2.1M27.4,96.4l-4-1,1-4,4,.95-1,4.05m78.35-37.15-1.2-4.45,4.4-1.2,1.2,4.4-4.4,1.25m-2.3,8.8.75-6.6,6.55.8L110,68.8l-6.55-.75M94.3,86V90.5H89.75l0-4.55h4.6m-15,5.5,6.15,2.45L83,100l-6.15-2.4,2.45-6.15m24,6.75,1,7-7.1,1.1-1-7,7.1-1.1m-60.5,8.5,1-2,2,1-1.15,2-1.9-1M31.2,103.25,30,107.7l-4.5-1.2,1.2-4.55,4.55,1.3"/><path class="cls-3" d="M55.85,27.6l-4.35.7L50.8,24l4.35-.7.7,4.35M20.65,52.9l6.8-3,3.05,6.9-6.85,3-3-6.9M41.7,95l-3.6,6.65-6.55-3.5,3.55-6.7L41.7,95M98.1,59.5l3.2.45-.45,3.1-3.15-.4.4-3.15M87.25,80.25l1.2-3,3,1.25-1.25,2.9-2.9-1.2m23.5,15.6-4,1.85-1.75-4,4-1.85,1.75,4"/><path class="cls-4" d="M10,49.5l-.3-.1L8.4,52.85l.65.25-2.5,3.1,8.9,3.5,0,0,1,.35,4.8-6.75-1.6-2.3L21,49.1,19,46.7l.5-.75L15.15,35.1,8.75,49l1.25.5M7,48.2l6.4-13.9a1.81,1.81,0,0,1,1.1-1l1.5,0A1.82,1.82,0,0,1,17,34.4l4.3,10.85.15.9-.05.35,1.15,1.3A2,2,0,0,1,23,49a1.84,1.84,0,0,1-.35,1.25l-.55.8.8,1.15a2,2,0,0,1,.35,1.15L22.9,54.5l-4.8,6.75a2,2,0,0,1-1,.75,2.05,2.05,0,0,1-1.25,0l-1-.35-.6-.3-8.35-3.3L4.9,57.3a1.77,1.77,0,0,1-.35-1.2A2,2,0,0,1,5,55L6.45,53.2a1.87,1.87,0,0,1,.1-1.05l.7-1.85-.1-.1a1.84,1.84,0,0,1-.4-1,1.91,1.91,0,0,1,.2-1m12-1.5-.15.2h-.05l.2-.2"/><path class="cls-5" d="M19,46.7l-.2.2L15.7,51.25v0l.45,4.6,3.5-4.85,1.6,2.3-4.8,6.75-.55-4.3L9.05,53.1l-.65-.25L9.7,49.4l.3.1,5.45,2.15-.3-16.55L19.45,46l-.5.75"/><path class="cls-6" d="M19,46.7,21,49.1l-1.35,1.95-3.5,4.85-.45-4.6v0l3.05-4.35h.05l.15-.2M10,49.5,8.75,49l6.4-13.9.3,16.55L10,49.5m6.45,10.6-1-.35,0,0-8.9-3.5,2.5-3.1,6.85,2.7.55,4.3"/><path class="cls-7" d="M14,54.15H12V53a1.89,1.89,0,0,1,.5-1.3L40.25,19a1.85,1.85,0,0,1,1.25-.65L52,16.85l.95.1a1.69,1.69,0,0,1,.75.5L64.1,28.65A1.83,1.83,0,0,1,64.65,30v2h-2V30L52.2,18.8,41.75,20.25,14,53v1.15M35.85,63.4l24.4-28.6-2,5.45-20.4,23.9-2-.75M18.4,55.6l-2-1.75,7.75-1.05,9.3,10.05-2,.8-8-8.7-5,.65"/><path class="cls-1" d="M14,53,41.75,20.25,52.2,18.8,24.45,51.55l-7,1L14,53M62.65,30v2l-.9,1.1-1.5,1.7L35.85,63.4,35,64.45v-1.7l.9-1v-.05l25.9-30.5v0l.9-1.1"/><path class="cls-8" d="M62.65,30l-.9,1.1v0l-25.9,30.5v.05l-.9,1-2-2-.1-.15-8.45-9.05L52.2,18.8,62.65,30"/><path class="cls-9" d="M35,64.45l.9-1.05V76.45L35,77.6V64.45M61.75,33.1l.9-1.1V44.85l-.9,1.1V33.1M16.4,53.85V67.4l-.95,1.1V54l.95-.1"/><path class="cls-10" d="M60.25,34.8l1.5-1.7V46l-1.5-.75V34.8M15.45,68.5,14,67.8V54.15l1.45-.2V68.5m18-5.65,1.5,1.6V77.6l-1.5-.7V62.85"/><path class="cls-11" d="M33.45,62.85V76.9l1.5.7.9-1.15V63.4l2,.75v12.3a2.05,2.05,0,0,1-.4,1.25l-.9,1.15-1.1.7L34.1,79.4l-1.5-.7a2.09,2.09,0,0,1-.8-.7,1.89,1.89,0,0,1-.35-1.1V63.65l2-.8M12,54.15h2V67.8l1.45.7.95-1.1V53.85l2,1.75V67.4A2,2,0,0,1,18,68.7L17,69.8a2.38,2.38,0,0,1-1.15.65l-1.1,0-.05-.05-.1,0-1.45-.7-.85-.75a2,2,0,0,1-.3-1V54.15M62.65,32h2V44.85l-.45,1.3-.9,1.1-.15.2-.95.45-1.35-.15L59.35,47l-.8-.75a2,2,0,0,1-.3-1v-5l2-5.45V45.2l1.5.75.9-1.1V32"/><path class="cls-12" d="M63.15,47.45l-26.6,31.4.9-1.15a2.05,2.05,0,0,0,.4-1.25V64.15l20.4-23.9v5a2,2,0,0,0,.3,1l.8.75,1.5.75,1.35.15.95-.45M32.6,78.7,14.75,70.4l1.1,0A2.38,2.38,0,0,0,17,69.8L18,68.7a2,2,0,0,0,.45-1.3V55.6l5-.65,8.05,8.7V76.9A1.89,1.89,0,0,0,31.8,78a2.09,2.09,0,0,0,.8.7"/><path class="cls-13" d="M14,54.15V53l3.4-.5,7.05-1L32.9,60.6l.1.15,2,2v1.7l-1.5-1.6L24.15,52.8,16.4,53.85l-.95.1-1.45.2"/><path class="cls-4" d="M78,32.8l1.75-.7-9.1-19.75L64.55,27.8l.75,1.05.25.3h0l-.2-.3-2.95,3.4L64.3,35,62,38.3l6.8,9.6,1.5-.55,0-.05,12.65-5L79.3,38l1-.35-1.85-5-.4.15M72.5,11.55,81.6,31.3l.15,1.05-.4.95-.4.4,1.2,3.2a1.85,1.85,0,0,1,0,1.35l2.3,2.8a2,2,0,0,1,.45,1.15,2.07,2.07,0,0,1-.3,1.2l-.95.75-14.1,5.6-1.3.1a2,2,0,0,1-1-.8l-6.8-9.6A1.77,1.77,0,0,1,60,38.3a2,2,0,0,1,.35-1.15L61.85,35l-1.1-1.6a1.73,1.73,0,0,1-.4-1.25,1.92,1.92,0,0,1,.5-1.2l1.95-2.2-.2-.7a1.54,1.54,0,0,1,.1-.95l6.1-15.45a1.82,1.82,0,0,1,1-1.1l1.5-.05a2,2,0,0,1,1.15,1.05"/><path class="cls-14" d="M65.55,29.15,69.9,35.3v.05l-.65,6.55-5-6.9-1.95-2.75,2.95-3.4.2.3h0"/><path class="cls-6" d="M65.55,29.15l-.25-.3-.75-1.05,6.1-15.45-.4,23.5L78,32.8l.4-.15,1.85,5-1,.35-9.7,3.8-.8,6.15L62,38.3,64.3,35l5,6.9.65-6.55V35.3l-4.35-6.15"/><path class="cls-5" d="M68.8,47.9l.8-6.15L79.3,38l3.6,4.35-12.65,5,0,.05-1.5.55M78,32.8l-7.75,3.05.4-23.5,9.1,19.75L78,32.8"/><path class="cls-7" d="M31.7,80.4v-.25a1.89,1.89,0,0,1,.5-1.3L70.1,34.1a1.75,1.75,0,0,1,1.3-.65l13.45-1.6.9.1.8.5L99.4,46.3a2,2,0,0,1,.5,1.35v.05h-2v-.05l-.4-.4L85.05,33.8,71.6,35.4,33.7,80.15v0l-2,.2"/><path class="cls-11" d="M31.7,80.4l2-.2V97.9l4.65,2.15,17.25,8.1,3.75,1.75.65.3v0l12.2-14.4,10.55,4.9.7.35L109.1,70.7v-3l-.5-.25-.2-.1-4.9-2.3-4.9-2.3-.15,0-.55-.25V47.7h2V61.15l4.45,2.1,4.9,2.3h0l.2.1.5.25.8.75.3,1v3a2,2,0,0,1-.45,1.3L85,102.3a2.11,2.11,0,0,1-1.1.65l-1.3-.15-9.85-4.6-11,13-.15.25-1.15.7-1.3-.15L32.85,99.7l-.8-.7a1.89,1.89,0,0,1-.35-1.1V80.4"/><path class="cls-10" d="M33.7,80.2v0L47.15,78.6,60,92.45v17.7l-.65-.25-3.75-1.75V101L38.35,92.9v7.15L33.7,97.9V80.2M72.9,93.1l1,.5.3.15L83.45,98v3l-.7-.3L72.2,95.75v-3l.7.35"/><path class="cls-1" d="M33.7,80.15,71.6,35.4l13.45-1.6-.35.45-37.2,44-.35.35v0L33.7,80.15"/><path class="cls-15" d="M97.5,47.25l.4.4v.05l-.4-.45M47.15,78.6v0l.35-.35-.35.4"/><path class="cls-8" d="M47.15,78.6l.35-.4L84.7,34.25l.35-.4V33.8L97.5,47.25l.4.45L60,92.45,47.15,78.6"/><path class="cls-16" d="M74,93.6l-1-.5h0l-.7-.35h0L73,91.9,85.25,77.35l3.1-3.65L97.9,62.45l.55.25.15,0,4.9,2.3,4.9,2.3.2.1.5.25L83.45,98l-9.2-4.25L74,93.6"/><path class="cls-17" d="M74,93.6l-1-.5h0l1,.5m8.8,7.05.7.3v0l-.7-.35M60,110.15v0l-.65-.3.65.25"/><path class="cls-18" d="M73,91.9l-.75.85h0l.8-.85"/><path class="cls-9" d="M73,91.9l-.8.85v3L60,110.15V92.45L97.9,47.7V62.45L88.35,73.7V66.6l-3.1,3.65v7.1L73,91.9M83.45,98,109.1,67.7v3L83.45,101V98M55.6,108.15l-17.25-8.1V92.9L55.6,101v7.15"/><path class="cls-19" d="M84.7,34.25l.35-.45v.05l-.35.4"/><path class="cls-20" d="M109.1,70.65v0L83.45,101v0l25.65-30.3"/><path class="cls-21" d="M88.35,73.7l-3.1,3.65v-7.1l3.1-3.65v7.1"/></g></g></svg>