<svg xmlns="http://www.w3.org/2000/svg" viewBox="0 0 120 140"><defs><style>.cls-1{fill:#bb6444;}.cls-2{fill:#b55f40;}.cls-3{fill:#c26948;}.cls-4{fill:#7b412c;}.cls-5{fill:#d4714d;}.cls-6{fill:#1e5d87;}.cls-7{fill:#3aacf7;}.cls-8{fill:#3295d7;}.cls-9{fill:#54bbff;}.cls-10{fill:#a6583b;}.cls-11{fill:#c66a48;}</style></defs><title>Asset 74</title><g id="Layer_2" data-name="Layer 2"><g id="Layer_1-2" data-name="Layer 1"><path class="cls-1" d="M60,9.2,62.2,14l4.85-2.15L64.9,7.05,60,9.2M25.15,23.55l-.55,5.3,5.25.5.55-5.25-5.25-.55M37.5,41.75l4.15-3.35-3.4-4.1-4.1,3.35,3.35,4.1M40,28.8l3.85,3.65L47.5,28.6,43.65,25,40,28.8M26.05,52.5l2.15,4.85L33,55.2l-2.15-4.9-4.8,2.2m20.5-17.7-1.9,5,5.05,2,1.85-5-5-1.9M59.7,44l-.6-5.3-5.25.65.6,5.25L59.7,44M36.4,48.5l2.25,7.2,7.25-2.25L43.6,46.2l-7.2,2.3M92.2,29.35l.55-5.25-5.25-.55L87,28.85l5.25.5M70,49.6l-4.5,1.55L67,55.6l4.45-1.5L70,49.6m12-14,2.3,7.25,7.25-2.3L89.2,33.3,82,35.6M88.4,52.5l2.15,4.85L95.4,55.2l-2.2-4.9-4.8,2.2m27.85,1.65-5.35-.5-.5,5.3,5.25.5.6-5.3m-30.5-2L76.25,50l-2.1,9.55,9.45,2.1,2.15-9.5m21.3-12.35,5,2,1.85-5-5-1.9-1.9,5M120,35v70L60,140,0,105V35L60,0l60,35M5.4,39.7,2.3,44l4.25,3.1,3.1-4.3-4.25-3m18,12.45L13.9,50l-2.1,9.55,9.45,2.1,2.15-9.5M14.9,89,5.3,86.5,2.8,96.1l9.6,2.55L14.9,89M13.55,70.6l-6.2,6.7,6.7,6.2,6.2-6.75-6.7-6.15M98,76l-3.1,4.3,4.35,3.1,3-4.3L98,76m9,26.15,5,1.95,1.85-5-5-1.9-1.9,5M75.9,70.6l-6.2,6.7,6.75,6.2,6.15-6.75L75.9,70.6m27.65,2.75.65-5.6h0l.4-3.7-9.3-1-1.1,9.3,9.3,1M82,98l2.3,7.25L91.5,103l-2.3-7.3L82,98M67.05,74.2,64.9,69.4,60,71.55l2.2,4.85,4.85-2.2M34.15,100l3.35,4.1,4.15-3.35-3.4-4.1L34.15,100M42.3,64.05,33,63,31.9,72.3l9.3,1,.65-5.6h0l.4-3.7m14.8,12.7L49.8,78.5l1.7,7.4,7.4-1.75-1.75-7.4h0m43.5,19.9L96.5,100l3.35,4.1,4.15-3.35-3.4-4.1m-8.4-5,.55-5.25L87.5,86,87,91.2l5.25.5m-27,4.4,9.55,2.55L77.25,89l-9.6-2.5L65.2,96.1m-20.55,6.05,5.05,1.95,1.85-5-5-1.9-1.9,5M25.15,86,24.6,91.2l5.25.5.55-5.25L25.15,86m2.1,30.35,4.8-2.15-2.2-4.9-4.75,2.2,2.15,4.85m31.6,7,.8,5.2,5.25-.8-.85-5.25-5.2.85m25.7-1.65,2.15-9.5L77.2,110l-2.1,9.55,9.45,2.1M36.4,110.85l2.25,7.25,7.25-2.3-2.3-7.2-7.2,2.25M70,112l-4.5,1.55L67,118l4.45-1.55L70,112"/><path class="cls-2" d="M70,112l1.5,4.5L67,118l-1.55-4.5L70,112M60,9.2l4.9-2.15,2.15,4.8L62.2,14,60,9.2M40,28.8,43.65,25,47.5,28.6l-3.65,3.85L40,28.8m-2.5,13-3.35-4.1,4.1-3.35,3.4,4.1L37.5,41.75M36.4,48.5l7.2-2.3,2.3,7.25L38.65,55.7,36.4,48.5M59.7,44l-5.25.6-.6-5.25,5.25-.65.6,5.3M46.55,34.8l5,1.9-1.85,5-5.05-2,1.9-5m35.4.8,7.25-2.3,2.3,7.25-7.25,2.3L82,35.6m-12,14,1.5,4.5L67,55.6l-1.55-4.45L70,49.6m15.8,2.55-2.15,9.5-9.45-2.1L76.25,50l9.5,2.15m30.5,2-.6,5.3L110.4,59l.5-5.3,5.35.5M5.4,39.7l4.25,3-3.1,4.3L2.3,44,5.4,39.7m8.15,30.9,6.7,6.15-6.2,6.75-6.7-6.2,6.2-6.7M14.9,89l-2.5,9.65L2.8,96.1l2.5-9.6L14.9,89m88.65-15.65-9.3-1,1.1-9.3,9.3,1-.4,3.7h0l-.65,5.6M75.9,70.6l6.7,6.15L76.45,83.5,69.7,77.3l6.2-6.7M65.2,96.1l2.45-9.6,9.6,2.5-2.5,9.65L65.2,96.1m27-4.4L87,91.2,87.5,86l5.25.5L92.2,91.7m8.4,5,3.4,4.1-4.15,3.35L96.5,100l4.1-3.35M57.1,76.75h0l1.75,7.4L51.5,85.9l-1.7-7.4,7.3-1.75M42.3,64.05l-.4,3.7h0l-.65,5.6-9.3-1L33,63l9.35,1m-8.15,36,4.1-3.35,3.4,4.1L37.5,104.1,34.15,100m24.7,23.25,5.2-.85.85,5.25-5.25.8-.8-5.2m-31.6-7-2.15-4.85,4.75-2.2,2.2,4.9-4.8,2.15"/><path class="cls-3" d="M25.15,23.55l5.25.55-.55,5.25-5.25-.5.55-5.3m.9,29,4.8-2.2L33,55.2l-4.8,2.15L26.05,52.5M92.2,29.35,87,28.85l.55-5.3,5.25.55-.55,5.25M88.4,52.5l4.8-2.2,2.2,4.9-4.85,2.15L88.4,52.5m18.65-12.7,1.9-5,5,1.9-1.85,5-5-2M23.4,52.15l-2.15,9.5-9.45-2.1L13.9,50l9.5,2.15m83.65,50,1.9-5,5,1.9-1.85,5-5-1.95M98,76l4.3,3.1-3,4.3L94.9,80.3,98,76M67.05,74.2,62.2,76.4,60,71.55l4.9-2.15,2.15,4.8M82,98l7.25-2.3,2.3,7.3-7.25,2.25L82,98M25.15,86l5.25.5-.55,5.25-5.25-.5L25.15,86m19.5,16.2,1.9-5,5,1.9-1.85,5-5.05-1.95m-8.25,8.7,7.2-2.25,2.3,7.2-7.25,2.3-2.25-7.25M84.55,121.6l-9.45-2.1L77.2,110l9.5,2.15-2.15,9.5"/><path class="cls-4" d="M51,29.85l-.9,1L48,41.35,46.3,39.6l1.85-9.1a2,2,0,0,1,.45-.9l4.1-4.8.7-.5.85-.2,15.55.35.9.25.7.6,7.2,10.2.35.85,2.2,13.25L79.3,50.75,77,36.65l-.85-1.2-6.35-9L54.2,26.1,51,29.85M87,70.1l-.2.2,2.5,7,.1,1-.45,1-14.2,17-.7.55-.9.15-26.8-.75-.9-.2-.65-.65L32.3,77.7,32,76.85a1.54,1.54,0,0,1,.1-.95l6.5-18,2.05.15L33.9,76.55,46.4,94.2,73.2,95,87.4,78l-3-8.35L87,70.1"/><path class="cls-5" d="M50.1,30.9l.9-1,10.75,9.5H72.5l3.6-3.9.85,1.2-4.1,4.8L61.1,40.8l-11-9.9M41,57.65l.85-1,4.4,5.75,0,.05,5.2,6.75,17.25.45L75.2,63l0,.55-.75,3.25-4.4,5.1-20.2-.6L40.6,58.1l.4-.45"/><path class="cls-1" d="M51,29.85l3.2-3.75,15.55.35,6.35,9-3.6,3.9H61.75L51,29.85M61.1,40.8l11.75.65L75.2,63l-6.45,6.7L51.5,69.2l-5.2-6.75,0-.05-4.4-5.75,1.55-1.9,2.5-3L60.15,64.5l1-23.7"/><path class="cls-6" d="M79.3,50.75l1.85-1.15.2-.15,1.15-.3a1.7,1.7,0,0,1,1.1.4l4.3,3.1.6.75.2,1L88.15,67.7l-.15.7-.4.95-.6.75-2.55-.45,1.3-1.1.4-1,.55-13.35-4.3-3.1L79.65,52.9l-.35-2.15M46.3,39.6,48,41.35l-.45,2.25-.25-.45L42.9,39.2,40.55,40,36.4,43.4,40.3,57l.7.7-.4.45L38.55,58l-.15-.45L34.5,44a1.6,1.6,0,0,1,0-1.1,1.85,1.85,0,0,1,.65-1L39.3,38.4a1.79,1.79,0,0,1,.65-.35l2.35-.75,1.05,0,.9.45,2,1.9"/><path class="cls-7" d="M36.4,43.4,40.55,40l2.35-.75,4.4,3.95L40.55,40l.25,7.35-4.4-3.9M74.5,66.75l.75-3.25,2.1-9.1,5.2,2.3-.15-5.55,4.3,3.1L82.55,56.7l-1,8.8-1.9-1.65-4.35,4.4,5.25-1.6-.65,5.9-3.3,7.65,0,.1-5.8-4.5-.15-.6-.1-.4,0,0,4-5.7-.25-1.35.25-1"/><path class="cls-8" d="M41.85,56.65l-.85,1-.7-.7L36.4,43.4l4.4,3.9,2.6,7.45-1.55,1.9m37.75,7.2,1.9,1.65,1-8.8,4.15-2.45L86.15,67.6l-.4,1-1.3,1.1-.8.6-1.3,4.2-5.8,5.75,3.3-7.65,4.55-4.5-3.9-1.4L79.6,64v-.1"/><path class="cls-9" d="M79.6,63.85V64l.9,2.7,3.9,1.4-4.55,4.5.65-5.9-5.25,1.6,4.35-4.4M47.3,43.15l.25.45L45.9,51.7l-2.5,3L40.8,47.3,40.55,40l6.75,3.2M77.35,54.4,77.9,54l1.75-1.05,2.75-1.75.15,5.55-5.2-2.3"/><path class="cls-10" d="M77.35,54.4l-2.1,9.1,0-.55-2.35-21.5,4.1-4.8,2.35,14.1.35,2.15L77.9,54l-.55.45M48,41.35,50.1,30.9l11,9.9-1,23.7L45.9,51.7l1.65-8.1L48,41.35M40.6,58.1l9.3,13.15-3.5,23L33.9,76.55,40.6,58.1M70.1,71.85l4.4-5.1-.25,1,.25,1.35-4,5.7-.4-2.9m6.45,8.35,5.8-5.75,1.3-4.2.8-.6,3,8.35L73.2,95,70.55,75.2l.15.6,5.8,4.5,0-.1"/><path class="cls-11" d="M49.9,71.25l20.2.6.4,2.9,0,0,.1.4L73.2,95,46.4,94.2l3.5-23"/></g></g></svg>