<svg xmlns="http://www.w3.org/2000/svg" viewBox="0 0 120 140"><defs><style>.cls-1{fill:#bb8044;}.cls-2{fill:#aa753e;}.cls-3{fill:#c68a4e;}.cls-4{fill:#5a6b6b;}.cls-5{fill:#879393;}.cls-6{fill:#a4afaf;}.cls-7{fill:#b5c2c2;}.cls-8{fill:#9aa0a7;}.cls-9{fill:#9fa5ad;}.cls-10{fill:#676b70;}</style></defs><title>Asset 37</title><g id="Layer_2" data-name="Layer 2"><g id="Layer_1-2" data-name="Layer 1"><path class="cls-1" d="M20.85,42.7l2.75,3.75,3.85-2.8L24.6,39.9l-3.75,2.8M14.6,55.45l-.85-2.05-2,.9.85,2.1,2-.95m6-2.55,3,6.9,6.85-3-3.05-6.9-6.8,3m14-7.8-3.25,2.6L34,51l3.2-2.6L34.6,45.1M55.85,27.6l-.7-4.35L50.8,24l.7,4.35,4.35-.7M26.65,102l-1.2,4.55,4.5,1.2,1.25-4.45L26.65,102M24.35,91.4l-1,4,4,1,1-4.05-4-.95m52.5,6.2L83,100l2.45-6.1L79.3,91.45,76.85,97.6M59.5,16.6l-.85,7,7.15.8.8-7-7.1-.8M35.1,91.4l-3.55,6.7,6.55,3.5L41.7,95,35.1,91.4m8.7,13.35-1,2,1.9,1,1.15-2-2-1M0,105V35L60,0l60,35v70L60,140,0,105M104.55,54.8l1.2,4.45,4.4-1.25L109,53.6l-4.4,1.2M101.3,60l-3.2-.45-.4,3.15,3.15.4.45-3.1M110,68.8l.75-6.55-6.55-.8-.75,6.6,6.55.75m-5,24.9,1.75,4,4-1.85-1.75-4-4,1.85M90.15,81.45l1.25-2.9-3-1.25-1.2,3,2.9,1.2m6,17.85,1,7,7.1-1.1-1-7-7.1,1.1M94.3,86H89.7l0,4.55H94.3V86"/><path class="cls-2" d="M94.3,86V90.5H89.75l0-4.55h4.6M14.6,55.45l-2,.95-.85-2.1,2-.9.85,2.05M20.85,42.7l3.75-2.8,2.85,3.75-3.85,2.8L20.85,42.7M34.6,45.1l2.55,3.25L34,51l-2.6-3.25,3.25-2.6M59.5,16.6l7.1.8-.8,7.05-7.15-.8.85-7m17.35,81,2.45-6.15,6.15,2.45L83,100l-6.15-2.4m-52.5-6.2,4,.95-1,4.05-4-1,1-4M26.65,102l4.55,1.3L30,107.7l-4.5-1.2,1.2-4.55m17.15,2.8,2,1-1.15,2-1.9-1,1-2M104.55,54.8l4.4-1.2,1.2,4.4-4.4,1.25-1.2-4.45m5.45,14-6.55-.75.75-6.6,6.55.8L110,68.8M96.15,99.3l7.1-1.1,1,7-7.1,1.1-1-7"/><path class="cls-3" d="M20.65,52.9l6.8-3,3.05,6.9-6.85,3-3-6.9m35.2-25.3-4.35.7L50.8,24l4.35-.7.7,4.35M35.1,91.4,41.7,95l-3.6,6.65-6.55-3.5,3.55-6.7M101.3,60l-.45,3.1-3.15-.4.4-3.15,3.2.45M90.15,81.45l-2.9-1.2,1.2-3,3,1.25-1.25,2.9M105,93.7l4-1.85,1.75,4-4,1.85-1.75-4"/><path class="cls-4" d="M46.75,43.5,38.9,59.1,49.8,74.45l23.35.7L85.6,60.45l-11.4-35-5.15-7.3-10.95-.3-2.85,3.4L51.05,38.4l-4.3,5.1M36.9,59.25a1.71,1.71,0,0,1,.25-1L45,42.6l.25-.4,4-4.7,4.1-16.7.45-.8,2.85-3.4.7-.55.85-.2,10.95.3.9.25.7.6,5.15,7.3.25.55,11.4,35,.1,1-.45.9L74.7,76.45,74,77l-.85.15-23.35-.7-.9-.25-.65-.6L37.3,60.25a1.87,1.87,0,0,1-.4-1"/><path class="cls-5" d="M49.8,74.45,38.9,59.1l7.85-15.6,3.65,5.1-2.5,7.25L52.25,62,49.8,74.45M51.05,38.4l4.2-17.15L57.5,25.8,54.25,45l-3.2-6.55M74.2,25.45l11.4,35L73.15,75.15,71,62.55l7.1-8.45-2.3-7-3.2-19.8,1.65-1.9M65.1,23.9l.05,8L65.1,42.2l.3,6L60.8,56.8l.45-7.45,1.9-3.55.6-19.35L65.1,23.9"/><path class="cls-6" d="M65.1,23.9l-1.35,2.55L57.5,25.8l-2.25-4.55,2.85-3.4,10.95.3,5.15,7.3-1.65,1.9L65.1,23.9M46.75,43.5l4.3-5.1L54.25,45l8.9.85-1.9,3.55L50.4,48.6l-3.65-5.1M52.25,62l-4.35-6.1,12.9.95,4.6-8.55L78.05,54.1,71,62.55,52.25,62"/><path class="cls-7" d="M52.25,62l18.7.6,2.2,12.6-23.35-.7L52.25,62m-4.35-6.1,2.5-7.25,10.85.75L60.8,56.8l-12.9-.95m17.25-24-.05-8,7.45,3.45,3.2,19.8,2.3,7L65.4,48.25l-.05-6-.2-10.4m-1.4-5.45-.6,19.35L54.25,45,57.5,25.8l6.25.65"/><path class="cls-8" d="M65.35,42.3l.05,6-.3-6,.25.1"/><path class="cls-9" d="M65.35,42.3l-.25-.1.05-10.3.2,10.4"/><path class="cls-4" d="M85,47.75,87.7,44.5l.7-.5.85-.2,10.45.25.9.25.7.6,4.85,6.85.35.85,2.5,15,4.45,12.5.1,1-.45,1-9.55,11.4-.7.55-.9.15-18-.5-.9-.2-.65-.65L74,80.9l-.35-.85a1.54,1.54,0,0,1,.1-1l4.5-12.4.3-.6,3.25-3.95,2.75-13.5.45-.9M104.5,52.9l-4.85-6.85L89.2,45.8l-2.75,3.25-2.85,14-3.55,4.3-4.5,12.4L84,91.65l18,.5,9.55-11.4-4.5-12.7L104.5,52.9"/><path class="cls-6" d="M104.5,52.9l-2.75,3.25L103.5,72.4l-3.6,4.2-13.6-.4-6.25-8.85,3.55-4.3,9.6,8.6.65-16-7.4-6.65L89.2,45.8l10.45.25,4.85,6.85"/><path class="cls-5" d="M104.5,52.9l2.55,15.15,4.5,12.7L102,92.15,99.9,76.6l3.6-4.2-1.75-16.25,2.75-3.25M80.05,67.35,86.3,76.2,84,91.65l-8.4-11.9,4.5-12.4m6.4-18.3,7.4,6.65-.65,16-9.6-8.6,2.85-14"/><path class="cls-7" d="M86.3,76.2l13.6.4L102,92.15l-18-.5L86.3,76.2"/><path class="cls-4" d="M18.15,60.25,21.6,61.8a1.67,1.67,0,0,1,.95,1l.1.1,4.05,1.9.65.5.4.7L30.2,73.3l.1.7-.45,9.45-.35,1.1a2.33,2.33,0,0,1-.9.7L17.35,89.6l-.8.1-.8-.15L5,84.55l-.85-.8a2.38,2.38,0,0,1-.3-1.15l.45-9.45.1-.5,2.4-7.2a1.88,1.88,0,0,1,.45-.75A1.69,1.69,0,0,1,8,64.2l3.75-1.45v0a1.52,1.52,0,0,1,.45-.65,1.92,1.92,0,0,1,.7-.45l3.7-1.4,1.55,0M8.7,66.05l-2.4,7.2L5.85,82.7l10.75,5,11.25-4.35.45-9.45-2.45-7.35-4.7-2.15-.4-.8L17.3,62.05l-3.7,1.4v.8l-4.9,1.8"/><path class="cls-5" d="M5.85,82.7l.45-9.45,2.4-7.2-.4,7.4L5.85,82.7m14.9-19.1.4.8.05.1.25.7.75,1.6L22,71.05l-1.3-4.25.1-3.2m5.1,2.95L28.3,73.9l-.45,9.45L25.5,73.9l.35-7.35"/><path class="cls-10" d="M21.2,64.5l.15.3.1.4-.25-.7"/><path class="cls-6" d="M21.2,64.5l-.05-.1,4.7,2.15L25.5,73.9l-8.85,3.5,0,10.3-10.75-5L8.3,73.45l.4-7.4,4.9-1.8v-.8l3.7-1.4,3.45,1.55-.1,3.2L17,68.15v4.9l5-2,.25-4.25-.75-1.6-.1-.4-.15-.3"/><path class="cls-7" d="M27.85,83.35,16.6,87.7l0-10.3,8.85-3.5,2.35,9.45M22,71.05l-5,2v-4.9l3.7-1.35L22,71.05"/><path class="cls-4" d="M52.5,84.05l2,11.3a2,2,0,0,1-.3,1.4l-1.1.9-8.9,2.7H43.15l-.9-.5-7-6.65-.5-.75-.15-.85L35,86.5a1.79,1.79,0,0,1,.45-1.1l.95-.65,4.6-1.5.25,0,4.8-.85.4,0,4.1.1a1.82,1.82,0,0,1,1.25.5,2,2,0,0,1,.7,1.15m0,11.65-2-11.3-4.1-.1-4.8.85L37,86.65l-.45,5.1L43.6,98.4l8.9-2.7"/><path class="cls-5" d="M52.5,95.7,47.25,89,46.4,84.3l4.1.1,2,11.3m-16-4,.45-5.1,4.6-1.5-.1,1-5,5.6"/><path class="cls-6" d="M36.55,91.75l5-5.6.1-1,4.8-.85L47.25,89l-2.1.65L43.6,98.4l-7.05-6.65"/><path class="cls-7" d="M52.5,95.7l-8.9,2.7,1.55-8.8,2.1-.65L52.5,95.7"/></g></g></svg>