<svg xmlns="http://www.w3.org/2000/svg" xmlns:xlink="http://www.w3.org/1999/xlink" viewBox="0 0 120 140"><defs><style>.cls-1{fill:#27ae60;}.cls-2{fill:url(#linear-gradient);}.cls-3{fill:url(#linear-gradient-2);}.cls-4{fill:url(#linear-gradient-3);}.cls-5{fill:url(#linear-gradient-4);}.cls-6{fill:url(#linear-gradient-5);}.cls-7{fill:url(#linear-gradient-6);}.cls-8{fill:url(#linear-gradient-7);}.cls-9{fill:url(#linear-gradient-8);}.cls-10{fill:url(#linear-gradient-9);}.cls-11{fill:url(#linear-gradient-10);}.cls-12{fill:url(#linear-gradient-11);}.cls-13{fill:url(#linear-gradient-12);}.cls-14{fill:url(#linear-gradient-13);}.cls-15{fill:url(#linear-gradient-14);}.cls-16{fill:url(#linear-gradient-15);}.cls-17{fill:#f0d391;}.cls-18{fill:#d0b67d;}.cls-19{fill:#917f57;}.cls-20{fill:#fadb97;}.cls-21{fill:#115f32;}.cls-22{fill:#726a59;}.cls-23{fill:#cbbd9e;}.cls-24{fill:#1b914d;}.cls-25{fill:#14723c;}.cls-26{fill:#b8ac8f;}.cls-27{fill:#775029;}.cls-28{fill:#ecdcb8;}.cls-29{fill:#936434;}.cls-30{fill:#bb8044;}.cls-31{fill:#b1a58a;}.cls-32{fill:#d7c8a7;}.cls-33{fill:#986736;}.cls-34{fill:#d7924e;}.cls-35{fill:#c68848;}</style><linearGradient id="linear-gradient" x1="-1339.2" y1="49.53" x2="299.2" y2="49.53" gradientTransform="matrix(0, 0, 0, 0, 12.18, 47.05)" gradientUnits="userSpaceOnUse"><stop offset="0" stop-color="#27ae60"/><stop offset="1" stop-color="#30c26d"/></linearGradient><linearGradient id="linear-gradient-2" x1="-1339.2" y1="37.67" x2="299.2" y2="37.67" gradientTransform="matrix(0, 0, 0, 0, 45.68, 35.11)" xlink:href="#linear-gradient"/><linearGradient id="linear-gradient-3" x1="-1339.2" y1="54.17" x2="299.2" y2="54.17" gradientTransform="matrix(0, 0, 0, 0, 37.97, 52.08)" xlink:href="#linear-gradient"/><linearGradient id="linear-gradient-4" x1="-1339.2" y1="30.38" x2="299.2" y2="30.38" gradientTransform="matrix(0, 0, 0, 0, 90.87, 28.28)" xlink:href="#linear-gradient"/><linearGradient id="linear-gradient-5" x1="-1339.2" y1="26.2" x2="299.2" y2="26.2" gradientTransform="matrix(0, 0, 0, 0, 56.87, 24.13)" xlink:href="#linear-gradient"/><linearGradient id="linear-gradient-6" x1="-1339.2" y1="48.03" x2="299.2" y2="48.03" gradientTransform="matrix(0, 0, 0, 0, 60.83, 45.55)" xlink:href="#linear-gradient"/><linearGradient id="linear-gradient-7" x1="-1339.2" y1="98.08" x2="299.2" y2="98.08" gradientTransform="matrix(0, 0, 0, 0, 106.37, 95.98)" xlink:href="#linear-gradient"/><linearGradient id="linear-gradient-8" x1="-1339.2" y1="89.17" x2="299.2" y2="89.17" gradientTransform="matrix(0, 0, 0, 0, 70.47, 87.08)" xlink:href="#linear-gradient"/><linearGradient id="linear-gradient-9" x1="-1339.2" y1="81.92" x2="299.2" y2="81.92" gradientTransform="matrix(0, 0, 0, 0, 83.97, 79.83)" xlink:href="#linear-gradient"/><linearGradient id="linear-gradient-10" x1="-1339.2" y1="62.42" x2="299.2" y2="62.42" gradientTransform="matrix(0, 0, 0, 0, 25.52, 60.33)" xlink:href="#linear-gradient"/><linearGradient id="linear-gradient-11" x1="-1339.2" y1="102.17" x2="299.2" y2="102.17" gradientTransform="matrix(0, 0, 0, 0, 14.43, 99.7)" xlink:href="#linear-gradient"/><linearGradient id="linear-gradient-12" x1="-1339.2" y1="116.92" x2="299.2" y2="116.92" gradientTransform="matrix(0, 0, 0, 0, 44.68, 114.45)" xlink:href="#linear-gradient"/><linearGradient id="linear-gradient-13" x1="-1339.2" y1="121.33" x2="299.2" y2="121.33" gradientTransform="matrix(0, 0, 0, 0, 72.28, 118.85)" xlink:href="#linear-gradient"/><linearGradient id="linear-gradient-14" x1="-1339.2" y1="106.58" x2="299.2" y2="106.58" gradientTransform="matrix(0, 0, 0, 0, 56.68, 104.1)" xlink:href="#linear-gradient"/><linearGradient id="linear-gradient-15" x1="-1339.2" y1="119.17" x2="299.2" y2="119.17" gradientTransform="matrix(0, 0, 0, 0, 57.87, 117.08)" xlink:href="#linear-gradient"/></defs><title>Asset 124</title><g id="Layer_2" data-name="Layer 2"><g id="Layer_1-2" data-name="Layer 1"><path class="cls-1" d="M59.15,116l-.25-.1-.3.1-.15.25-1,3.15-1.35-.55h-.35l-.25.15v0a.42.42,0,0,0,0,.35l.95,3h4.85l.7-1.8v-.45l-.25-.2h-.3l-1.25.4-.85-4.15-.15-.25M8.6,50.4h.05l1.45,3.15h6l1.6-1,.15-.15,0-.15,0-.3-.3-.25-1.5-.4,1.2-3.15v-.35l-.05,0-.2-.2h-.35l-2.8,1-2-2.85-.25-.15-.25,0-.25.15-.1.25-.35,3.5L9,49.75l-.25.1,0,.1-.05.2v.25M43,35.65l-.2.2,0,0v.35L44,39.35l-1.55.45-.25.2-.1.35.1.1.1.15,1.6,1.1h6l1.45-3.15.05,0,0-.25-.1-.15,0-.1L51,37.85l-1.65-.3-.4-3.5-.1-.25-.25-.15h-.25l-.25.15-2,2.85-2.85-1H43m-4.4,15.6-1,3.15-1.35-.55h-.35a.3.3,0,0,0-.25.15v0a.42.42,0,0,0-.05.35l1,3.05h4.85l.7-1.8V55.2L41.8,55h-.3l-1.25.4-.85-4.15L39.25,51,39,50.9l-.3.1-.15.25m53.05-24-.15.25-1,3.15-1.35-.55h-.35l-.25.15v.05l0,.35,1,3h4.85l.7-1.8V31.4l-.25-.2h-.3l-1.25.4-.85-4.15-.15-.25-.25-.1-.3.1M55.05,27l-.3.05-.25.2v.45l.7,1.8h4.85l.9-3.1v-.35l-.25-.2h-.35L59,26.4l-1-3.15L57.85,23l-.3-.1-.3.15-.15.25-.8,4.1L55.05,27m5,17-.25.15-.1.25-.35,3.5-1.7.35-.25.1-.05.1,0,.2v.25h0l1.45,3.15h6l1.6-1,.15-.15,0-.15,0-.3-.3-.25-1.5-.4,1.2-3.15v-.35l-.05,0-.2-.2H65.3l-2.8,1-2-2.85a.3.3,0,0,0-.25-.15L60,44M60,0l60,35v70L60,140,0,105V35L60,0m47.4,94.8-.3.1-.15.25-1,3.15-1.35-.55h-.35a.3.3,0,0,0-.25.15v0a.42.42,0,0,0,0,.35l1,3h4.85l.7-1.8V99.1l-.25-.2h-.3l-1.25.4-.85-4.15-.15-.25-.25-.1M71.2,86a.3.3,0,0,0-.15.25l-1,3.15-1.35-.55h-.35L68.1,89v0a.42.42,0,0,0,0,.35l1,3h4.85l.7-1.8V90.2L74.3,90H74l-1.25.4-.85-4.15L71.75,86l-.25-.1-.3.1m16.3-3.25-1.25.4L85.4,79l-.15-.25-.25-.1-.3.1a.3.3,0,0,0-.15.25l-1,3.15L82.2,81.6h-.35l-.25.15v0a.42.42,0,0,0,0,.35l1,3h4.85l.7-1.8V83l-.25-.2h-.3M23.75,62.1H23.4a.3.3,0,0,0-.25.15v0a.42.42,0,0,0,0,.35l.95,3.05H28.9l.7-1.8v-.45l-.25-.2h-.3l-1.25.4L27,59.5l-.15-.25-.25-.1-.3.1-.15.25-1,3.15-1.35-.55M13.6,98.15l-.25.15-.1.25-.35,3.5-1.7.35-.25.1,0,.1-.05.2v.25h.05l1.45,3.15h6l1.6-1,.15-.15,0-.15,0-.3-.3-.25-1.5-.4,1.2-3.15v-.35l-.05-.05-.2-.2H18.9l-2.8,1-2-2.85-.25-.15-.25,0m30,14.9-.1.25-.35,3.5-1.7.35-.25.1-.05.1,0,.2v.25h0L42.6,121h6l1.6-1,.15-.15,0-.15,0-.3-.3-.25-1.5-.4,1.2-3.15v-.35l0-.05-.2-.2h-.35l-2.8,1-2-2.85a.3.3,0,0,0-.25-.15l-.25,0-.25.15m33.7,6.45-.2-.2h-.35l-2.8,1-2-2.85a.3.3,0,0,0-.25-.15l-.25,0-.25.15-.1.25-.35,3.5-1.7.35-.25.1,0,.1,0,.2v.25h0l1.45,3.15h6l1.6-1,.15-.15,0-.15,0-.3-.3-.25-1.5-.4,1.2-3.15v-.35l0,0m-15.1-10,.15-.15,0-.15,0-.3-.3-.25-1.5-.4,1.2-3.15v-.35l0,0-.2-.2h-.35l-2.8,1-2-2.85a.3.3,0,0,0-.25-.15l-.25,0-.25.15-.1.25-.35,3.5-1.7.35-.25.1-.05.1,0,.2v.25h0l1.45,3.15h6l1.6-1"/><path class="cls-2" d="M8.6,50.4v-.25l.05-.2,0-.1.25-.1,1.7-.35L11,45.9l.1-.25.25-.15.25,0,.25.15,2,2.85,2.8-1H17l.2.2.05,0v.35l-1.2,3.15,1.5.4.3.25,0,.3,0,.15-.15.15-1.6,1h-6L8.65,50.4H8.6"/><path class="cls-3" d="M43,35.65h.35l2.85,1,2-2.85.25-.15h.25l.25.15.1.25.4,3.5,1.65.3.25.15,0,.1.1.15,0,.25-.05,0L49.85,41.7h-6l-1.6-1.1-.1-.15-.1-.1.1-.35.25-.2L44,39.35l-1.25-3.1V35.9l0,0,.2-.2"/><path class="cls-4" d="M38.55,51.25,38.7,51l.3-.1.25.1.15.25.85,4.15L41.5,55h.3l.25.2v.45l-.7,1.8H36.5l-1-3.05a.42.42,0,0,1,.05-.35v0a.3.3,0,0,1,.25-.15h.35l1.35.55,1-3.15"/><path class="cls-5" d="M91.6,27.2l.3-.1.25.1.15.25.85,4.15,1.25-.4h.3l.25.2v.45l-.7,1.8H89.4l-1-3,0-.35V30.2l.25-.15h.35l1.35.55,1-3.15.15-.25"/><path class="cls-6" d="M55.05,27l1.25.4.8-4.1.15-.25.3-.15.3.1.15.25,1,3.15,1.4-.55h.35l.25.2v.35l-.9,3.1H55.2l-.7-1.8v-.45l.25-.2.3-.05"/><path class="cls-7" d="M60,44l.25,0a.3.3,0,0,1,.25.15l2,2.85,2.8-1h.35l.2.2.05,0v.35l-1.2,3.15,1.5.4.3.25,0,.3,0,.15-.15.15-1.6,1h-6L57.3,48.9h0v-.25l0-.2.05-.1.25-.1,1.7-.35.35-3.5.1-.25L60,44"/><path class="cls-8" d="M107.4,94.8l.25.1.15.25.85,4.15,1.25-.4h.3l.25.2v.45l-.7,1.8H104.9l-1-3a.42.42,0,0,1,0-.35v0a.3.3,0,0,1,.25-.15h.35l1.35.55,1-3.15.15-.25.3-.1"/><path class="cls-9" d="M71.2,86l.3-.1.25.1.15.25.85,4.15L74,90h.3l.25.2v.45l-.7,1.8H69l-1-3a.42.42,0,0,1,0-.35v0l.25-.15h.35l1.35.55,1-3.15A.3.3,0,0,1,71.2,86"/><path class="cls-10" d="M87.5,82.75h.3l.25.2v.45l-.7,1.8H82.5l-1-3a.42.42,0,0,1,0-.35v0l.25-.15h.35l1.35.55,1-3.15a.3.3,0,0,1,.15-.25l.3-.1.25.1.15.25.85,4.15,1.25-.4"/><path class="cls-11" d="M23.75,62.1l1.35.55,1-3.15.15-.25.3-.1.25.1.15.25.85,4.15,1.25-.4h.3l.25.2v.45l-.7,1.8H24.05l-.95-3.05a.42.42,0,0,1,0-.35v0a.3.3,0,0,1,.25-.15h.35"/><path class="cls-12" d="M13.6,98.15l.25,0,.25.15,2,2.85,2.8-1h.35l.2.2.05.05v.35l-1.2,3.15,1.5.4.3.25,0,.3,0,.15-.15.15-1.6,1h-6l-1.45-3.15h-.05v-.25l.05-.2,0-.1.25-.1,1.7-.35.35-3.5.1-.25.25-.15"/><path class="cls-13" d="M43.6,113.05l.25-.15.25,0a.3.3,0,0,1,.25.15l2,2.85,2.8-1h.35l.2.2,0,.05v.35l-1.2,3.15,1.5.4.3.25,0,.3,0,.15-.15.15-1.6,1h-6l-1.45-3.15h0v-.25l0-.2.05-.1.25-.1,1.7-.35.35-3.5.1-.25"/><path class="cls-14" d="M77.3,119.5l0,0v.35l-1.2,3.15,1.5.4.3.25,0,.3,0,.15-.15.15-1.6,1h-6l-1.45-3.15h0V122l0-.2,0-.1.25-.1,1.7-.35.35-3.5.1-.25.25-.15.25,0a.3.3,0,0,1,.25.15l2,2.85,2.8-1h.35l.2.2"/><path class="cls-15" d="M62.2,109.55l-1.6,1h-6l-1.45-3.15h0v-.25l0-.2.05-.1.25-.1,1.7-.35.35-3.5.1-.25.25-.15.25,0a.3.3,0,0,1,.25.15l2,2.85,2.8-1h.35l.2.2,0,0v.35l-1.2,3.15,1.5.4.3.25,0,.3,0,.15-.15.15"/><path class="cls-16" d="M59.15,116l.15.25.85,4.15,1.25-.4h.3l.25.2v.45l-.7,1.8H56.4l-.95-3a.42.42,0,0,1,0-.35v0l.25-.15h.35l1.35.55,1-3.15.15-.25.3-.1.25.1"/><path class="cls-17" d="M29.2,43.3,44.5,25.15,54,23.5,78.3,35l2.25,7L65.25,60.15l-9.6,1.5L31.3,50.4l-2.1-7.1"/><path class="cls-18" d="M29.2,43.3l2.1,7.1L55.65,61.65V68.1L31.3,56.7l-2.1-7.05V43.3M80.55,42v6.45l-15.3,18V60.15L80.55,42"/><path class="cls-19" d="M80.55,42,78.3,35,54,23.5,44.5,25.15,29.2,43.3v6.35l2.1,7.05L55.65,68.1l9.6-1.6,15.3-18V42M44.15,23.2l9.45-1.65,1.2.15L79.15,33.15l.65.5.4.7,2.25,7,.1.6v6.45l-.45,1.3-15.3,18a2.17,2.17,0,0,1-1.2.7L56,70.1l-1.2-.2L30.45,58.5,29.8,58l-.4-.7-2.1-7-.1-.6V43.3a1.89,1.89,0,0,1,.5-1.3L43,23.85a1.75,1.75,0,0,1,1.15-.65"/><path class="cls-20" d="M65.25,66.5l-9.6,1.6V61.65l9.6-1.5V66.5"/><path class="cls-21" d="M69.1,41.2v-.9a1.89,1.89,0,0,1,.5-1.3L81.45,25l.7-.5,9.5-4.35,1.3-.1a1.89,1.89,0,0,1,1.15.75l9.3,12.8L102,35.2v-.1L92.45,22,83,26.3,71.1,40.3v.05l-2,.85"/><path class="cls-22" d="M69.1,41.2l2-.85v15.2l-2-.95V41.2m32.9-6,1.4-1.6.25.35A2,2,0,0,1,104,35.1V48.05l-2,2.3V35.2m2,16.55v2l3,12.2v.9l-.4.85L92.25,84.55l-1.1.65-1.3-.1L67,74.5a2.18,2.18,0,0,1-1-1,2.15,2.15,0,0,1-.15-1.35L69.1,59V58.4l2,.9L67.85,72.65l10.2,4.75,2,1v-.05l10.6,4.9,14.35-16.9-3-12.3,2-2.3"/><path class="cls-23" d="M71.1,40.35V40.3l9.55-4.15,9.3,13V64.3L71.1,55.55V40.35M102,54l0,.1,3,12.3L90.7,83.25,90,68l12-14M80.1,78.35v.05l-2-1-2-1.05-.2-.15v-6l4.3,1.9v6.2"/><path class="cls-24" d="M92.45,22,102,35.1l-12,14-9.3-13L92.45,22"/><path class="cls-25" d="M92.45,22l-11.8,14.2L71.1,40.3,83,26.3,92.45,22"/><path class="cls-26" d="M102,35.1V50.35L90,64.3V49.1l12-14"/><path class="cls-27" d="M104,48.05v3.7l-2,2.3,0-.1v-3.6l2-2.3M69.1,58.4V54.6l2,.95V59.3l-2-.9"/><path class="cls-28" d="M90.7,83.25l-10.6-4.9v-6.2l-4.3-1.9v6l.2.15,2,1.05-10.2-4.75L71.1,59.3v-.1L90,68l.75,15.25"/><path class="cls-29" d="M90,64.3l12-13.95V54L90,68V64.3"/><path class="cls-30" d="M90,64.3V68L71.1,59.2V55.55L90,64.3"/><path class="cls-28" d="M53.8,27.4l1.35-.4.45-.15.6-.2,2.4-.75L73.25,44.05V45.8l-.35.4-2.05.7-.75-.35-.3-.15-.25-.15L69.1,46l-1-.8-14.2-17.7-.05-.05M68.25,47.6l2.6,1,2.4,3.05v2L58.6,58.3l-4.8-6.15L68.25,47.6m8,.35-.55-.8v-2l14.4-4.6L95,46.7l-11.1,3.55-2.4.75-1,.3L79,50.65l-.85-.45L78,50l-1-1.1L76.25,48M95,71.45,90.1,73,75.7,54.8v-2l2.4-.65,2.4,1.1L95,71.45"/><path class="cls-31" d="M58.6,25.9l-2.4.75-.6.2-.45.15-1.35.4,1.75-1.95,4.25-.95-1.2,1.4M69.1,46l.45.3-1.3,1.35L53.8,52.15l.1,0,1.5-1.6L69.1,46m6.6-.8,1.2-1.35.1-.2,14.55-4.8L90.1,40.55l-14.4,4.6M78,50l.15.2.85.45-.85,1.5-2.4.65L78,50"/><path class="cls-27" d="M78,50,75.7,52.8l-.15-2L77,48.9,78,50M52.3,26.15v0l3.05-3.5a1.64,1.64,0,0,1,.9-.6l4.8-1.5a1.89,1.89,0,0,1,1.2,0,2.09,2.09,0,0,1,1,.65L77.75,39.3l.3.6L92.4,35.15a1.89,1.89,0,0,1,1.2,0,1.73,1.73,0,0,1,1,.7L99.4,42a2.05,2.05,0,0,1,.4,1.25,1.92,1.92,0,0,1-.45,1.25l-1.7,2.1L96.4,45l1.4-1.75L93,37.05l-14.45,4.8L77,43.6l-.85-1.1v-2L61.65,22.4l-4.8,1.5-1.3,1.55-3.25.7M87.2,51.3,99.4,66.65a2.05,2.05,0,0,1,.4,1.25,1.92,1.92,0,0,1-.45,1.25l-1.3,1.6-1.3-1.55h0l1-1.3-14-17.6,3.35,1m-13,4.75-.3-.45.1-.1.2.55M51.9,51.6a1.65,1.65,0,0,1,.45-.8l3-3.25.85-.55,8.45-2.85,3.35,1L56.85,48.9l-1.4,1.55L51.9,51.6"/><path class="cls-22" d="M51.9,51.6l3.55-1.15-.05,0-1.5,1.6-.1,0,4.8,6.15,14.65-4.6,2.3-2.9.15,2v2L90.1,73,95,71.45l.1-.1,1.7-2.15,1.3,1.55-1.55,2-.2.25-.75.4L90.7,74.9l-1.15,0-1-.7-14.4-18.2L74,55.5l-.1.1L59.2,60.2a1.89,1.89,0,0,1-1.2,0l-1-.65-4.8-6.15-.35-.7-.1-.65.1-.45m1.9-24.2.05.05,14.2,17.7-3.35-1L52.25,28.65l-.35-.6-.1-.7a1.64,1.64,0,0,1,.5-1.2l3.25-.7L53.8,27.4M97.65,46.6,96.5,48l-.3.3-.65.3L87.2,51.3l-3.35-1v0L95,46.7,96.4,45l1.25,1.65"/><path class="cls-32" d="M69.55,46.25l.25.15.3.15.75.35,2.05-.7,2.5,2.85.15,1.75-2.3,2.9v-2l-2.4-3.05-2.6-1,1.3-1.35m3.7-2.2L58.6,25.9l1.2-1.4L74.7,42.3l-1.45,1.75m5.7,6.6,1.55.65,1-.3L96.8,69.2h0l-1.7,2.15-.1.1L80.5,53.25l-2.4-1.1.85-1.5M95,46.7,90.1,40.55l1.45-1.75L96.4,45,95,46.7"/><path class="cls-33" d="M68.05,45.15l1,.8L55.4,50.5l.05,0,1.4-1.55,11.2-3.75m5.2.65V44.05L74.7,42.3l1.45-1.75v2l-2.9,3.3M59.8,24.5l-4.25.95,1.3-1.55,4.8-1.5L59.8,24.5M77,43.6l1.55-1.75L93,37.05,91.55,38.8,77,43.6m-1.45,7.2-.15-1.75.85-1.1.75.95-1.45,1.9"/><path class="cls-34" d="M72.9,46.2l.35-.4,2.9-3.3L77,43.6l-.1.2-1.2,1.35v2l.55.8-.85,1.1L72.9,46.2M61.65,22.4l14.5,18.15L74.7,42.3,59.8,24.5l1.85-2.1M93,37.05l4.8,6.15L96.4,45,91.55,38.8,93,37.05M81.45,51l2.4-.75v0l14,17.6-1,1.3L81.45,51"/><path class="cls-19" d="M56.9,80.75l-15.3,18a2.17,2.17,0,0,1-1.2.7l-9.6,1.6-1.2-.2L5.25,89.5,4.6,89l-.4-.7-2.1-7-.1-.6V74.3A1.89,1.89,0,0,1,2.5,73L17.8,54.85A1.75,1.75,0,0,1,19,54.2l9.45-1.65,1.2.15L54,64.15l.65.5.4.7,2.25,7.05.1.6v6.45a2,2,0,0,1-.45,1.3M40.05,97.5l15.3-18V73L53.1,66,28.75,54.5,19.3,56.15,4,74.3v6.35l2.1,7L30.45,99.1l9.6-1.6"/><path class="cls-17" d="M4,74.3,19.3,56.15l9.45-1.65L53.1,66l2.25,7L40.05,91.15l-9.6,1.5L6.1,81.4,4,74.3"/><path class="cls-18" d="M4,74.3l2.1,7.1L30.45,92.65V99.1L6.1,87.7l-2.1-7V74.3M55.35,73v6.45l-15.3,18V91.15L55.35,73"/><path class="cls-20" d="M40.05,97.5l-9.6,1.6V92.65l9.6-1.5V97.5"/><path class="cls-27" d="M94.55,98.25,98.15,94,64.8,78.45l-3.45,4L56.9,87.8l-4.5,5.25L47.85,98.4l-4.05,4.75,33.35,15.6,3.95-4.65,4.5-5.3,4.5-5.3,4.45-5.25m5.6-4-.45,1.1-21,24.75a2.11,2.11,0,0,1-1.1.65l-1.3-.15L43,105l-.85-.8a1.87,1.87,0,0,1,.2-2.3l21-24.7a1.87,1.87,0,0,1,1.1-.65l1.25.15L99,92.2a2,2,0,0,1,.9.8,2.15,2.15,0,0,1,.25,1.2"/><path class="cls-30" d="M61.35,82.5l3.45-4L98.15,94l-3.6,4.25L61.35,82.5m28.75,21-4.5,5.3L52.4,93.05l4.5-5.25,33.2,15.7m-9,10.6-3.95,4.65L43.8,103.15l4.05-4.75L81.1,114.1"/><path class="cls-35" d="M81.1,114.1,47.85,98.4l4.55-5.35L85.6,108.8l-4.5,5.3M94.55,98.25,90.1,103.5,56.9,87.8l4.45-5.3,33.2,15.75"/></g></g></svg>