<svg xmlns="http://www.w3.org/2000/svg" viewBox="0 0 120 140"><defs><style>.cls-1{fill:#bb8044;}.cls-2{fill:#aa753e;}.cls-3{fill:#c68a4e;}.cls-4{fill:#703b27;}.cls-5{fill:#d2704c;}.cls-6{fill:#d5e5e5;}.cls-7{fill:#727979;}.cls-8{fill:#b9c6c6;}.cls-9{fill:#bb6444;}.cls-10{fill:#a6b1b1;}.cls-11{fill-opacity:0.1;}.cls-12{fill:#9c5338;}.cls-13{fill:#fff;}.cls-14{fill:#36c;}.cls-15{fill:#aeaeae;}.cls-16{fill:#855b30;}.cls-17{fill:#a8733d;}.cls-18{fill:#916334;}.cls-19{fill:#115f32;}.cls-20{fill:#168344;}.cls-21{fill:#1b914d;}.cls-22{fill:#10773c;}</style></defs><title>Asset 140</title><g id="Layer_2" data-name="Layer 2"><g id="Layer_1-2" data-name="Layer 1"><path class="cls-1" d="M30.5,56.8l-3.05-6.9-6.8,3,3,6.9,6.85-3m21-28.5,4.35-.7-.7-4.35L50.8,24l.7,4.35m7.15-4.65,7.15.8.8-7-7.1-.8-.85,7m-21.5,24.7L34.6,45.1l-3.25,2.6L34,51l3.2-2.6M41.7,95,35.1,91.4l-3.55,6.7,6.55,3.5L41.7,95m62.5-33.5-.75,6.6,6.55.75.75-6.55-6.55-.8m.35-6.65,1.2,4.45,4.4-1.25L109,53.6l-4.4,1.2M27.4,96.4l1-4.05-4-.95-1,4,4,1M98.1,59.5l-.4,3.15,3.15.4.45-3.1-3.2-.45M94.3,86H89.7l0,4.55H94.3V86m-15,5.5L76.85,97.6,83,100l2.45-6.1L79.3,91.45M105,93.7l1.75,4,4-1.85-1.75-4-4,1.85M88.45,77.3l-1.2,3,2.9,1.2,1.25-2.9-3-1.25m14.8,20.9-7.1,1.1,1,7,7.1-1.1-1-7M120,35v70L60,140,0,105V35L60,0l60,35M42.75,106.7l1.9,1,1.15-2-2-1-1,2M31.2,103.25,26.65,102l-1.2,4.55,4.5,1.2,1.25-4.45M13.75,53.4l-2,.9.85,2.1,2-.95-.85-2.05m7.1-10.7,2.75,3.75,3.85-2.8L24.6,39.9l-3.75,2.8"/><path class="cls-2" d="M37.15,48.35,34,51l-2.6-3.25,3.25-2.6,2.55,3.25m21.5-24.7.85-7,7.1.8-.8,7.05-7.15-.8M27.4,96.4l-4-1,1-4,4,.95-1,4.05m77.15-41.6,4.4-1.2,1.2,4.4-4.4,1.25-1.2-4.45m-.35,6.65,6.55.8L110,68.8l-6.55-.75.75-6.6m-24.9,30,6.15,2.45L83,100l-6.15-2.4,2.45-6.15m15-5.5V90.5H89.75l0-4.55h4.6m9,12.25,1,7-7.1,1.1-1-7,7.1-1.1M20.85,42.7l3.75-2.8,2.85,3.75-3.85,2.8L20.85,42.7m-7.1,10.7.85,2.05-2,.95-.85-2.1,2-.9M31.2,103.25,30,107.7l-4.5-1.2,1.2-4.55,4.55,1.3m11.55,3.45,1-2,2,1-1.15,2-1.9-1"/><path class="cls-3" d="M51.5,28.3,50.8,24l4.35-.7.7,4.35-4.35.7M41.7,95l-3.6,6.65-6.55-3.5,3.55-6.7L41.7,95M98.1,59.5l3.2.45-.45,3.1-3.15-.4.4-3.15M88.45,77.3l3,1.25-1.25,2.9-2.9-1.2,1.2-3M105,93.7l4-1.85,1.75,4-4,1.85-1.75-4M30.5,56.8l-6.85,3-3-6.9,6.8-3,3.05,6.9"/><path class="cls-4" d="M67.4,48.7l2-2.35a1.75,1.75,0,0,1,1.1-.7l1.25.15,5.55,2.6.15.05.2.1,10.2,4.75.85.75L89,55.1V72a2,2,0,0,1-.45,1.3l-2,2.35-3.25.65L87,72V55.1l-5.25-2.45-5-2.3-.15-.05L76.1,50l-5.2-2.4-2.25,2.7-.25,1.1-1-2.7"/><path class="cls-5" d="M68.65,50.3l2.25-2.7L76.1,50l-4.6,1.65L68.65,50.3m13.1,2.35L87,55.1l-2.3,2.65-5.2-2.4,2.25-2.7m-18,14.2.45-.6L67.6,68.8l8.05,3.75L78,69.8l4,1.9-5,6-16.05-7.5,2.85-3.3"/><path class="cls-6" d="M63.7,66.85l-2.85,3.3V72.9L58.3,71.75l4.35-5.15.85.4-.35.4.55-.55M76.1,50l.55.3.15.05,5,2.3L69.1,57.15V52.5l.6-.2.9-.3.9-.35L76.1,50m-20,4,5.05-6,7.3,3.4.7.35-5,5.9-8-3.7M58.3,76.5l6.9,3.2-2.85,3.35-6.85-3.2,2.8-3.35m20,9.3,6.9,3.25-2.85,3.3-6.9-3.2L78.3,85.8m6.9-1.5L79,81.4l4.3-5.15,6.25,3,0,0-4.3,5m4.35-5,2.8,1.3L89.55,84V79.3"/><path class="cls-7" d="M89.55,79.3v-.1l-6.25-3,3.25-.65,3.85,1.8.45.3,2.35,1.1.85.75.3,1v4.8a2,2,0,0,1-.45,1.3l-10,11.75a2.11,2.11,0,0,1-1.1.65L81.5,99,74.6,95.7l-.2-.1-.6-.6a1.89,1.89,0,0,1-.35-1.1V89.15a1.89,1.89,0,0,1,.5-1.3l1.1-1.3-6.4-3L63.9,89.1a2.11,2.11,0,0,1-1.1.65h-.95l-.35-.15-6.85-3.2-.8-.7a1.89,1.89,0,0,1-.35-1.1V79.85A1.82,1.82,0,0,1,54,78.6l2.3-2.8v-4a1.89,1.89,0,0,1,.5-1.3l3.7-4.4L54.9,61.9l-.6-.7-.25-.9V54a1.89,1.89,0,0,1,.5-1.3L59.6,46.7a1.87,1.87,0,0,1,1.1-.65L62,46.2l5.45,2.5,1,2.7L61.1,48l-5.05,6V60.3l8.1,6-.45.6-.55.55.35-.4-.85-.4L58.3,71.75V76.5l-2.8,3.35V84.6l6.85,3.2,5.75-6.75L78.3,85.8l-2.85,3.35V93.9l6.9,3.25,10-11.75V80.6l-2.8-1.3"/><path class="cls-8" d="M64.15,66.25l-8.1-6V54l8,3.7v6.4l11.55,8.5L67.6,68.8l-3.45-2.55m-5.85,5.5,2.55,1.15v3.35L76.9,83.8,79,81.4l6.2,2.9v4.75L78.3,85.8,68.1,81.05,65.2,79.7l-6.9-3.2V71.75m4.05,11.3V87.8L55.5,84.6V79.85l6.85,3.2m20,14.1-6.9-3.25V89.15l6.9,3.2v4.8"/><path class="cls-9" d="M68.4,51.4l.25-1.1,2.85,1.35-.9.35-.9.3-.6.2v-.75l-.7-.35m8.5,32.4L60.85,76.25v-6.1l16.05,7.5V83.8m2.6-28.45,5.2,2.4L82,71.7l-4-1.9.9-4.55-8.1-6-.8-.6,9.55-3.35"/><path class="cls-10" d="M79.5,55.35,70,58.7l-.45-.25.75.5.5.35,8.1,6L78,69.8l-2.3,2.75L64.1,64.05v-6.4l5-5.9v5.4l12.65-4.5-2.25,2.7M65.2,79.7l2.9,1.35L62.35,87.8V83.05L65.2,79.7m20,9.35V84.3l4.3-5,0,0V84l2.8-3.35v4.8l-10,11.75v-4.8l2.85-3.3"/><path class="cls-11" d="M74.4,95.6,61.85,89.75h.95a2.11,2.11,0,0,0,1.1-.65l4.75-5.55,6.4,3L74,87.85a1.89,1.89,0,0,0-.5,1.3V93.9A1.89,1.89,0,0,0,73.8,95l.6.6"/><path class="cls-12" d="M87,55.1V72l-3.7,4.3L79,81.4l-2.1,2.4V77.65l5-6,2.75-14L87,55.1"/><path class="cls-13" d="M70.75,59.3l-.5-.35L70,58.7l.8.6"/><path class="cls-14" d="M70.25,59l-.75-.5.45.25.3.25"/><path class="cls-15" d="M89.55,79.2v.1l0,0,0,0"/><path class="cls-16" d="M69.55,85.2l2.7-3.1,0-3.8L51.7,68.6,49,71.65v3.9L69.5,85.2h0m-17-18.4,20.6,9.7.85.75.3,1.1,0,3.8a2,2,0,0,1-.5,1.3l-2.7,3.1-.65.5-.85.15h0l-.85-.2-20.5-9.65-.8-.7a1.89,1.89,0,0,1-.35-1.1v-3.9a1.89,1.89,0,0,1,.5-1.3l2.7-3a2.11,2.11,0,0,1,1.1-.65l1.25.15"/><path class="cls-1" d="M49,71.65l2.7-3.05,20.6,9.7-2.75,3.1h0L49,71.65"/><path class="cls-17" d="M69.55,85.2h0L49,75.55v-3.9L69.5,81.4h0v3.8"/><path class="cls-18" d="M69.55,85.2V81.4l2.75-3.1,0,3.8-2.7,3.1"/><path class="cls-16" d="M39,62.85l-1.75-.8V61.1l-20.6-9.7L14,54.45v2.7L12.4,56.4,9.7,59.45V62.7L7.7,65v3.9L28.2,78.5h.05L31,75.4,31,73.55,32,74H32l2.7-3.1,0-1.85,1.45.7h0l2.7-3.1,0-3.8m1.7-1.05.3,1.1,0,3.8a2,2,0,0,1-.5,1.3l-2.7,3.1-.65.5-.55.15-.35.5-2.7,3.1L33,75.8l-.5,1-2.7,3.1-.65.5-.85.15H28.2l-.85-.2L6.85,70.65l-.8-.7a1.89,1.89,0,0,1-.35-1.1V65a1.89,1.89,0,0,1,.5-1.3L7.7,62v-2.5a1.89,1.89,0,0,1,.5-1.3l2.7-3a2.09,2.09,0,0,1,1-.65,1.89,1.89,0,0,1,.5-1.3l2.7-3a2.11,2.11,0,0,1,1.1-.65l1.25.15,20.6,9.7.85.75.3.7.6.3.85.75"/><path class="cls-18" d="M39,62.85l0,3.8-2.7,3.1V66l-1.5,1.75v1.3l0,1.85L32,74V71l-1,1.15v1.4L31,75.4l-2.7,3.1V74.7l1.65-1.85.3.15h.05V69.2L33,66.1v1.2l0,1.85,1.15-1.3.35.15h0V64.2l2.75-3.1v.95l0,2.85L39,62.85"/><path class="cls-1" d="M39,62.85,37.2,64.9l0-2.85,1.75.8M7.7,65l2-2.25v.65l20.2,9.5L28.25,74.7H28.2L7.7,65m2-5.5,2.7-3.05,1.55.75L33,66.1l-2.75,3.1H30.2L9.7,59.45m4.25-5,2.7-3.05,20.6,9.7L34.5,64.2h0L14,54.45M34.1,67.85,33,69.15l0-1.85,1.1.55"/><path class="cls-17" d="M34.1,67.85,33,67.3V66.1L14,57.15v-2.7l20.5,9.75h0V68h0l-.35-.15m2.15,1.9h0l-1.45-.7v-1.3L36.25,66v3.75M32,74H32L31,73.55v-1.4L32,71v3m-3.75,4.5H28.2L7.7,68.85V65L28.2,74.7h.05v3.8M9.7,62.7V59.45L30.2,69.2h.05V73H30.2l-.3-.15L9.7,63.35V62.7"/><path class="cls-19" d="M58.5,23.65h0l-.2-.3.25.3m19,14.25-1,.75-14.1,5.6-1.3.1-1.05-.8L53.35,34A1.77,1.77,0,0,1,53,32.8a2,2,0,0,1,.35-1.15l1.5-2.15-1.1-1.6a1.73,1.73,0,0,1-.4-1.25,1.92,1.92,0,0,1,.5-1.2l2-2.2-.2-.7a1.54,1.54,0,0,1,.1-.95l6.1-15.45a1.82,1.82,0,0,1,1-1.1l1.5,0a2,2,0,0,1,1.15,1l9.1,19.75.15,1.05-.4.95-.4.4,1.2,3.2a1.85,1.85,0,0,1,0,1.35l2.3,2.8a2,2,0,0,1,.45,1.15,2.07,2.07,0,0,1-.3,1.2m-5.3-5.45,1-.35-1.85-5-.4.15,1.75-.7L63.6,6.85,57.5,22.3l.75,1.05-3,3.4,2,2.75L55,32.8l6.8,9.6,1.5-.55,0-.05,12.65-5-3.6-4.35"/><path class="cls-20" d="M72.25,32.45l-9.7,3.8-.8,6.15L55,32.8l2.3-3.3,5,6.9.65-6.55V29.8L58.5,23.65l-.25-.3L57.5,22.3,63.6,6.85l-.4,23.5L71,27.3l.4-.15,1.85,5-1,.35"/><path class="cls-21" d="M71,27.3,63.2,30.35l.4-23.5L72.7,26.6,71,27.3m-9.2,15.1.8-6.15,9.7-3.8,3.6,4.35-12.65,5,0,.05-1.5.55"/><path class="cls-22" d="M58.5,23.65l4.35,6.15v.05L62.2,36.4l-5-6.9-2-2.75,3-3.4.2.3h0"/><path class="cls-19" d="M84.4,19.15,88.7,30l.15.9,0,.35L90,32.55a2,2,0,0,1,.45,1.2L90.05,35l-.55.8L90.3,37a2.06,2.06,0,0,1,0,2.3L85.5,46a2,2,0,0,1-1,.75,2.05,2.05,0,0,1-1.25,0l-1-.35-.6-.3-8.35-3.3-1-.75a1.77,1.77,0,0,1-.35-1.2,2,2,0,0,1,.45-1.15L73.85,38A1.87,1.87,0,0,1,74,36.9l.7-1.85-.1-.1-.4-1a1.91,1.91,0,0,1,.2-1l6.4-13.9A1.81,1.81,0,0,1,81.85,18l1.5.05a1.82,1.82,0,0,1,1.05,1.1M87.05,35.8l1.35-1.95-2.05-2.4-.15.2h0l.2-.2.5-.75-4.3-10.85-6.4,13.9,1.25.5-.3-.1L75.8,37.6l.65.25L74,41l8.9,3.5,0,0,1,.35,4.8-6.75-1.6-2.3"/><path class="cls-21" d="M87.05,35.8l1.6,2.3-4.8,6.75-.55-4.3-6.85-2.7-.65-.25,1.3-3.45.3.1,5.45,2.15-.3-16.55,4.3,10.85-.5.75-.2.2L83.1,36v0l.45,4.6,3.5-4.85"/><path class="cls-20" d="M87.05,35.8l-3.5,4.85-.45-4.6v0l3.05-4.35h0l.15-.2,2.05,2.4L87.05,35.8m-4.5-15.95.3,16.55L77.4,34.25l-1.25-.5,6.4-13.9m-6.1,18,6.85,2.7.55,4.3-1-.35,0,0L74,41l2.5-3.1"/><path class="cls-19" d="M37.55,18.05a1.82,1.82,0,0,1,1.05,1.1L42.9,30l.15.9,0,.35,1.15,1.3a2,2,0,0,1,.45,1.2L44.25,35l-.55.8L44.5,37a2.06,2.06,0,0,1,0,2.3L39.7,46l-1,.75a2.05,2.05,0,0,1-1.25,0L36.4,46.4l-.6-.3-8.35-3.3-.95-.75a1.77,1.77,0,0,1-.35-1.2,2,2,0,0,1,.45-1.15L28.05,38a1.87,1.87,0,0,1,.1-1.05l.7-1.85-.1-.1a1.84,1.84,0,0,1-.4-1,1.91,1.91,0,0,1,.2-1L35,19.05A1.81,1.81,0,0,1,36.05,18l1.5.05m3,13.4.5-.75-4.3-10.85-6.4,13.9,1.25.5-.3-.1L30,37.6l.65.25L28.15,41l8.9,3.5,0,0,1,.35,4.8-6.75-1.6-2.3,1.35-1.95-2.05-2.4-.15.2h0l.2-.2"/><path class="cls-21" d="M40.55,31.45l-.2.2L37.3,36v0l.45,4.6,3.5-4.85,1.6,2.3-4.8,6.75-.55-4.3-6.85-2.7L30,37.6l1.3-3.45.3.1,5.45,2.15-.3-16.55,4.3,10.85-.5.75"/><path class="cls-20" d="M40.55,31.45l2.05,2.4L41.25,35.8l-3.5,4.85-.45-4.6v0l3.05-4.35h0l.15-.2m-2.5,13.4-1-.35,0,0L28.15,41l2.5-3.1,6.85,2.7.55,4.3M31.6,34.25l-1.25-.5,6.4-13.9.3,16.55L31.6,34.25"/><path class="cls-19" d="M84.7,89.25l1.5,0a1.82,1.82,0,0,1,1,1.1l4.3,10.85.15.9,0,.35,1.15,1.3a2,2,0,0,1,.45,1.2l-.35,1.25-.55.8.8,1.15a2.06,2.06,0,0,1,0,2.3l-4.8,6.75a2,2,0,0,1-1,.75,2.05,2.05,0,0,1-1.25,0l-1-.35-.6-.3-8.35-3.3-.95-.75a1.77,1.77,0,0,1-.35-1.2,2,2,0,0,1,.45-1.15l1.45-1.75a1.87,1.87,0,0,1,.1-1l.7-1.85-.1-.1a1.84,1.84,0,0,1-.4-1,1.91,1.91,0,0,1,.2-1l6.4-13.9a1.81,1.81,0,0,1,1.1-1m4.5,13.45.5-.75L85.4,91.1,79,105l1.25.5-.3-.1-1.3,3.45.65.25-2.5,3.1,8.9,3.5,0,0,1,.35,4.8-6.75-1.6-2.3,1.35-2-2-2.4-.15.2h0l.2-.2"/><path class="cls-21" d="M89.2,102.7l-.2.2-3,4.35v0l.45,4.6,3.5-4.85,1.6,2.3-4.8,6.75-.55-4.3-6.85-2.7-.65-.25L80,105.4l.3.1,5.45,2.15L85.4,91.1,89.7,102l-.5.75"/><path class="cls-20" d="M89.2,102.7l2,2.4-1.35,2-3.5,4.85L86,107.3v0l3-4.35h0l.15-.2m-2.5,13.4-1-.35,0,0-8.9-3.5,2.5-3.1,6.85,2.7.55,4.3m-6.45-10.6L79,105l6.4-13.9.3,16.55-5.45-2.15"/><path class="cls-16" d="M39,62.85l-1.75-.8V61.1l-20.6-9.7L14,54.45v2.7L12.4,56.4,9.7,59.45V62.7L7.7,65v3.9L28.2,78.5h.05L31,75.4,31,73.55,32,74H32l2.7-3.1,0-1.85,1.45.7h0l2.7-3.1,0-3.8m1.7-1.05.3,1.1,0,3.8a2,2,0,0,1-.5,1.3l-2.7,3.1-.65.5-.55.15-.35.5-2.7,3.1L33,75.8l-.5,1-2.7,3.1-.65.5-.85.15H28.2l-.85-.2L6.85,70.65l-.8-.7a1.89,1.89,0,0,1-.35-1.1V65a1.89,1.89,0,0,1,.5-1.3L7.7,62v-2.5a1.89,1.89,0,0,1,.5-1.3l2.7-3a2.09,2.09,0,0,1,1-.65,1.89,1.89,0,0,1,.5-1.3l2.7-3a2.11,2.11,0,0,1,1.1-.65l1.25.15,20.6,9.7.85.75.3.7.6.3.85.75"/><path class="cls-18" d="M39,62.85l0,3.8-2.7,3.1V66l-1.5,1.75v1.3l0,1.85L32,74V71l-1,1.15v1.4L31,75.4l-2.7,3.1V74.7l1.65-1.85.3.15h.05V69.2L33,66.1v1.2l0,1.85,1.15-1.3.35.15h0V64.2l2.75-3.1v.95l0,2.85L39,62.85"/><path class="cls-1" d="M39,62.85,37.2,64.9l0-2.85,1.75.8M7.7,65l2-2.25v.65l20.2,9.5L28.25,74.7H28.2L7.7,65m2-5.5,2.7-3.05,1.55.75L33,66.1l-2.75,3.1H30.2L9.7,59.45m4.25-5,2.7-3.05,20.6,9.7L34.5,64.2h0L14,54.45M34.1,67.85,33,69.15l0-1.85,1.1.55"/><path class="cls-17" d="M34.1,67.85,33,67.3V66.1L14,57.15v-2.7l20.5,9.75h0V68h0l-.35-.15m2.15,1.9h0l-1.45-.7v-1.3L36.25,66v3.75M32,74H32L31,73.55v-1.4L32,71v3m-3.75,4.5H28.2L7.7,68.85V65L28.2,74.7h.05v3.8M9.7,62.7V59.45L30.2,69.2h.05V73H30.2l-.3-.15L9.7,63.35V62.7"/></g></g></svg>