<svg xmlns="http://www.w3.org/2000/svg" viewBox="0 0 120 140"><defs><style>.cls-1{fill:#a4afaf;}.cls-2{fill:#9ba6a6;}.cls-3{fill:#a9b6b6;}.cls-4{fill:#115f32;}.cls-5{fill:#1b914d;}.cls-6{fill:#198a49;}.cls-7{fill-opacity:0.1;}.cls-8{fill:#bb8044;}</style></defs><title>Asset 89</title><g id="Layer_2" data-name="Layer 2"><g id="Layer_1-2" data-name="Layer 1"><path class="cls-1" d="M43.3,118.7l3.7-4.35-5.9-2.75L37.4,116l5.9,2.75m-16-83.8,9.25,4.35,5.85-6.85-9.3-4.3-5.8,6.8M21.4,71.5l5.85-6.85L18,60.35l-5.8,6.8L21.4,71.5m8.25,9,5.85-6.85-9.3-4.3-5.8,6.8,9.25,4.35M40.5,62.1l-5.9-2.75L30.9,63.7l5.9,2.75,3.7-4.35m-22,16.75L12.6,76.1,8.9,80.45c2,.93,3.93,1.85,5.9,2.75l3.7-4.35M0,35,60,0l60,35v70L60,140,0,105V35m94.25-6.65-5.9-2.75L84.65,30l5.9,2.75,3.7-4.35M82.4,41.5l5.85-6.85L79,30.35l-5.8,6.8L82.4,41.5m14.4-4,3.7-4.35-5.9-2.75L90.9,34.7l5.9,2.75M47,105.6l-5.9-2.75-3.7,4.35L43.3,110,47,105.6M65.4,71.75l9.25,4.35,5.85-6.85L71.2,65l-5.8,6.8m-.05-12.4-3.7,4.35,5.9,2.75,3.7-4.35-5.9-2.75M64.8,17.2l3.7-4.35L62.6,10.1l-3.7,4.35,5.9,2.75m42.05,45.05-3.7,4.35,5.9,2.75,3.7-4.35-5.9-2.75M90.9,66.6l5.9,2.75L100.5,65l-5.9-2.75L90.9,66.6m8,36L93,99.85l-3.7,4.35L95.2,107l3.7-4.35m-12.25-1.1,5.85-6.85-9.3-4.3-5.8,6.8,9.25,4.35m-2,4.1-5.9-2.75-3.7,4.35L81,110l3.7-4.35M33,112.7,27.1,110l-3.7,4.35,5.9,2.75L33,112.7"/><path class="cls-2" d="M27.25,34.9l5.8-6.8,9.3,4.3L36.5,39.25,27.25,34.9M18.5,78.85,14.8,83.2c-2-.9-3.93-1.82-5.9-2.75l3.7-4.35,5.9,2.75m75.75-50.5-3.7,4.35L84.65,30l3.7-4.35,5.9,2.75M64.8,17.2l-5.9-2.75,3.7-4.35,5.9,2.75L64.8,17.2m.55,42.15,5.9,2.75-3.7,4.35-5.9-2.75,3.7-4.35m.05,12.4L71.2,65l9.3,4.3L74.65,76.1,65.4,71.75M47,105.6,43.3,110l-5.9-2.75,3.7-4.35L47,105.6m43.9-39,3.7-4.35L100.5,65l-3.7,4.35L90.9,66.6m-4.25,34.9L77.4,97.15l5.8-6.8,9.3,4.3-5.85,6.85M33,112.7l-3.7,4.35-5.9-2.75L27.1,110,33,112.7"/><path class="cls-3" d="M40.5,62.1l-3.7,4.35L30.9,63.7l3.7-4.35,5.9,2.75M29.65,80.5,20.4,76.15l5.8-6.8,9.3,4.3L29.65,80.5m-8.25-9-9.25-4.35,5.8-6.8,9.3,4.3L21.4,71.5m75.4-34L90.9,34.7l3.7-4.35,5.9,2.75-3.7,4.35m-14.4,4-9.25-4.35,5.8-6.8,9.3,4.3L82.4,41.5m24.45,20.75,5.9,2.75-3.7,4.35-5.9-2.75,3.7-4.35M98.9,102.6,95.2,107l-5.9-2.75L93,99.85l5.9,2.75m-14.25,3L81,110l-5.9-2.75,3.7-4.35,5.9,2.75M43.3,118.7,37.4,116l3.7-4.35,5.9,2.75-3.7,4.35"/><path class="cls-4" d="M39.45,34l-.3-1.2-.5-1.75Q37,25.65,34.7,25l-.65-.1-.65.1q-2.25.64-3.9,6.05L29,32.8l-.3,1.2-1.1,6-.25,2.25-.25,3.1-.2,4.85v3A6.89,6.89,0,0,0,29,58a7.67,7.67,0,0,0,1.3,1l1.45.7v1.75a2.24,2.24,0,0,0,.65,1.65,2.3,2.3,0,0,0,1.7.7h.05a2.39,2.39,0,0,0,2.35-2.35V59.7L38,59l1.15-1a6.89,6.89,0,0,0,2.1-4.75v-3l-.2-4.85-.25-3.1L40.55,40l-1.1-6M28,59.75l-.4-.35a8.75,8.75,0,0,1-2.7-6.1V51.9a76,76,0,0,1,2-19l.15-.6A24.11,24.11,0,0,1,29.5,26q2-3.3,4.55-3.05c1.73-.17,3.27.87,4.6,3.1a26.43,26.43,0,0,1,2.45,6.3l.15.5a79,79,0,0,1,2,19.1v1.4a8.83,8.83,0,0,1-2.65,6.1l-.3.3L38.45,61v.45a4.07,4.07,0,0,1-1.2,3l-.15.15a4.07,4.07,0,0,1-3,1.2h-.05a4.27,4.27,0,0,1-4.35-4.35V61L28,59.75"/><path class="cls-5" d="M28.65,34l.3-1.2.55-1.75q1.65-5.4,3.9-6.05l.65-.1.65.1q2.25.64,3.95,6.05l.5,1.75.3,1.2-.3.1-.2.1-1,.2-1.55.25-2.4.1-2.35-.1-1.45-.2L29.2,34.2,29,34.1l-.3-.1m11.9,6,.25,2.25.25,3.1a4.25,4.25,0,0,1-1.9,1.95L38,47.9l-1.55.45-2.4.25-2.35-.25L30.25,48A5.85,5.85,0,0,1,29,47.3a4.25,4.25,0,0,1-1.9-1.95l.25-3.1L27.55,40l.1,0,1.3.85,1.3.5,1.45.35,2.35.2,2.4-.2L38,41.4l1.15-.5,1.35-.85,0,0m.7,10.9v2.3A6.89,6.89,0,0,1,39.15,58L38,59l-1.55.75-2.4.35L31.7,59.7,30.25,59A7.67,7.67,0,0,1,29,58a6.89,6.89,0,0,1-2.1-4.75V50.9A4.92,4.92,0,0,0,29,54.65l1.3.85,1.45.55,2.35.3,2.4-.3,1.55-.6,1.15-.8a4.92,4.92,0,0,0,2.1-3.75"/><path class="cls-6" d="M41.25,50.9a4.92,4.92,0,0,1-2.1,3.75l-1.15.8-1.55.6-2.4.3-2.35-.3-1.45-.55L29,54.65a4.92,4.92,0,0,1-2.1-3.75v-.7l.2-4.85A4.25,4.25,0,0,0,29,47.3a5.85,5.85,0,0,0,1.3.65l1.45.4,2.35.25,2.4-.25L38,47.9l1.15-.6a4.25,4.25,0,0,0,1.9-1.95l.2,4.85v.7M39.45,34l1.1,6,0,0-1.35.85L38,41.4l-1.55.35-2.4.2-2.35-.2-1.45-.35L29,40.9l-1.3-.85-.1,0,1.1-6,.3.1.25.1,1.05.25,1.45.2,2.35.1,2.4-.1L38,34.4l1-.2.2-.1.3-.1"/><path class="cls-7" d="M40.3,59.7l.7.3q2.8,1.5,2.8,3.6T41,67.15a14.23,14.23,0,0,1-6.8,1.5,14.23,14.23,0,0,1-6.8-1.5q-2.8-1.45-2.8-3.55T27.4,60l.55-.25L29.7,61v.45a4.27,4.27,0,0,0,4.35,4.35h.05a4.07,4.07,0,0,0,3-1.2l.15-.15a4.07,4.07,0,0,0,1.2-3V61l1.85-1.3"/><path class="cls-8" d="M36.45,59.7v1.75A2.39,2.39,0,0,1,34.1,63.8h-.05a2.3,2.3,0,0,1-1.7-.7,2.24,2.24,0,0,1-.65-1.65V59.7l2.35.35,2.4-.35"/><path class="cls-4" d="M70.3,79.7,68.45,81v.45a4.07,4.07,0,0,1-1.2,3l-.15.15a4.07,4.07,0,0,1-3,1.2h0a4.27,4.27,0,0,1-4.35-4.35V81L58,79.75l-.4-.35a8.75,8.75,0,0,1-2.7-6.1V71.9a76,76,0,0,1,2-19l.15-.6A24.11,24.11,0,0,1,59.5,46q1.95-3.3,4.55-3.05c1.73-.17,3.27.87,4.6,3.1a26.43,26.43,0,0,1,2.45,6.3l.15.5a79,79,0,0,1,2,19.1v1.4a8.83,8.83,0,0,1-2.65,6.1l-.3.3M69.45,54l-.3-1.2-.5-1.75q-1.7-5.4-4-6l-.65-.1-.65.1q-2.25.64-3.9,6L59,52.8l-.3,1.2-1.1,6-.25,2.25-.25,3.1-.2,4.85v3A6.89,6.89,0,0,0,59,78l1.3,1,1.45.7v1.75a2.24,2.24,0,0,0,.65,1.65,2.3,2.3,0,0,0,1.7.7h0a2.39,2.39,0,0,0,2.35-2.35V79.7L68,79l1.15-1a6.89,6.89,0,0,0,2.1-4.75v-3l-.2-4.85-.25-3.1L70.55,60l-1.1-6"/><path class="cls-5" d="M58.65,54l.3-1.2.55-1.75q1.65-5.4,3.9-6l.65-.1.65.1q2.25.64,4,6l.5,1.75.3,1.2-.3.1-.2.1-1,.2-1.55.25-2.4.1-2.35-.1-1.45-.2-1-.25L59,54.1l-.3-.1m11.9,6,.25,2.25.25,3.1a4.25,4.25,0,0,1-1.9,2L68,67.9l-1.55.45-2.4.25-2.35-.25L60.25,68A5.85,5.85,0,0,1,59,67.3a4.25,4.25,0,0,1-1.9-2l.25-3.1L57.55,60l.1,0,1.3.85,1.3.5,1.45.35,2.35.2,2.4-.2L68,61.4l1.15-.5,1.35-.85,0,0m.7,10.9v2.3A6.89,6.89,0,0,1,69.15,78L68,79l-1.55.75-2.4.35L61.7,79.7,60.25,79,59,78a6.89,6.89,0,0,1-2.1-4.75V70.9A4.92,4.92,0,0,0,59,74.65l1.3.85,1.45.55,2.35.3,2.4-.3,1.55-.6,1.15-.8a4.92,4.92,0,0,0,2.1-3.75"/><path class="cls-6" d="M71.25,70.9a4.92,4.92,0,0,1-2.1,3.75l-1.15.8-1.55.6-2.4.3-2.35-.3-1.45-.55L59,74.65a4.92,4.92,0,0,1-2.1-3.75v-.7l.2-4.85a4.25,4.25,0,0,0,1.9,2,5.85,5.85,0,0,0,1.3.65l1.45.4,2.35.25,2.4-.25L68,67.9l1.15-.6a4.25,4.25,0,0,0,1.9-2l.2,4.85v.7M69.45,54l1.1,6,0,0-1.35.85L68,61.4l-1.55.35-2.4.2-2.35-.2-1.45-.35L59,60.9l-1.3-.85-.1,0,1.1-6,.3.1.25.1,1,.25,1.45.2,2.35.1,2.4-.1L68,54.4l1-.2.2-.1.3-.1"/><path class="cls-8" d="M66.45,79.7v1.75A2.39,2.39,0,0,1,64.1,83.8h0a2.3,2.3,0,0,1-1.7-.7,2.24,2.24,0,0,1-.65-1.65V79.7l2.35.35,2.4-.35"/><path class="cls-7" d="M70.3,79.7l.7.3q2.81,1.5,2.8,3.6T71,87.15a14.23,14.23,0,0,1-6.8,1.5,14.23,14.23,0,0,1-6.8-1.5q-2.8-1.45-2.8-3.55T57.4,80l.55-.25L59.7,81v.45a4.27,4.27,0,0,0,4.35,4.35h0a4.07,4.07,0,0,0,3-1.2l.15-.15a4.07,4.07,0,0,0,1.2-3V81l1.85-1.3"/><path class="cls-4" d="M96.45,99.7,98,99l1.15-1a6.89,6.89,0,0,0,2.1-4.75v-3l-.2-4.85-.25-3.1L100.55,80l-1.1-6-.3-1.2-.5-1.75q-1.7-5.4-4-6l-.65-.1-.65.1q-2.25.65-3.9,6L89,72.8l-.3,1.2-1.1,6-.25,2.25-.25,3.1-.2,4.85v3A6.89,6.89,0,0,0,89,98l1.3,1,1.45.7v1.75a2.24,2.24,0,0,0,.65,1.65,2.3,2.3,0,0,0,1.7.7h0a2.39,2.39,0,0,0,2.35-2.35V99.7m-8.5,0-.4-.35a8.75,8.75,0,0,1-2.7-6.1V91.9a76,76,0,0,1,2.05-19l.15-.6A24.11,24.11,0,0,1,89.5,66q1.95-3.3,4.55-3.05c1.73-.17,3.27.87,4.6,3.1a26.43,26.43,0,0,1,2.45,6.3l.15.5a79,79,0,0,1,2,19.1v1.4a8.83,8.83,0,0,1-2.65,6.1l-.3.3L98.45,101v.45a4.07,4.07,0,0,1-1.2,3l-.15.15a4.07,4.07,0,0,1-3,1.2h0a4.27,4.27,0,0,1-4.35-4.35V101L88,99.75"/><path class="cls-5" d="M88.65,74l.3-1.2.55-1.75q1.65-5.4,3.9-6l.65-.1.65.1q2.25.65,4,6l.5,1.75.3,1.2-.3.1-.2.1-1,.2-1.55.25-2.4.1-2.35-.1-1.45-.2-1-.25L89,74.1l-.3-.1m11.9,6,.25,2.25.25,3.1a4.25,4.25,0,0,1-1.9,2L98,87.9l-1.55.45-2.4.25-2.35-.25L90.25,88A5.85,5.85,0,0,1,89,87.3a4.25,4.25,0,0,1-1.9-2l.25-3.1L87.55,80l.1,0,1.3.85,1.3.5,1.45.35,2.35.2,2.4-.2L98,81.4l1.15-.5,1.35-.85,0,0m.7,10.9v2.3A6.89,6.89,0,0,1,99.15,98L98,99l-1.55.75-2.4.35L91.7,99.7,90.25,99,89,98a6.89,6.89,0,0,1-2.1-4.75V90.9A4.92,4.92,0,0,0,89,94.65l1.3.85,1.45.55,2.35.3,2.4-.3,1.55-.6,1.15-.8a4.92,4.92,0,0,0,2.1-3.75"/><path class="cls-6" d="M101.25,90.9a4.92,4.92,0,0,1-2.1,3.75l-1.15.8-1.55.6-2.4.3-2.35-.3-1.45-.55L89,94.65a4.92,4.92,0,0,1-2.1-3.75v-.7l.2-4.85a4.25,4.25,0,0,0,1.9,2,5.85,5.85,0,0,0,1.3.65l1.45.4,2.35.25,2.4-.25L98,87.9l1.15-.6a4.25,4.25,0,0,0,1.9-2l.2,4.85v.7M99.45,74l1.1,6,0,0-1.35.85L98,81.4l-1.55.35-2.4.2-2.35-.2-1.45-.35L89,80.9l-1.3-.85-.1,0,1.1-6,.3.1.25.1,1,.25,1.45.2,2.35.1,2.4-.1L98,74.4l1-.2.2-.1.3-.1"/><path class="cls-7" d="M100.3,99.7l.7.3q2.81,1.5,2.8,3.6t-2.8,3.55a16.16,16.16,0,0,1-13.6,0q-2.81-1.45-2.8-3.55t2.8-3.6a3.07,3.07,0,0,1,.55-.25L89.7,101v.45a4.27,4.27,0,0,0,4.35,4.35h0a4.07,4.07,0,0,0,3-1.2l.15-.15a4.07,4.07,0,0,0,1.2-3V101l1.85-1.3"/><path class="cls-8" d="M96.45,99.7v1.75a2.39,2.39,0,0,1-2.35,2.35h0a2.3,2.3,0,0,1-1.7-.7,2.24,2.24,0,0,1-.65-1.65V99.7l2.35.35,2.4-.35"/></g></g></svg>