<svg xmlns="http://www.w3.org/2000/svg" viewBox="0 0 87.3 100.45"><defs><style>.cls-1{fill:#a4afaf;}.cls-2{fill:#a9b6b6;}.cls-3{fill:#9ba6a6;}</style></defs><title>Asset 40</title><g id="Layer_2" data-name="Layer 2"><g id="Layer_1-2" data-name="Layer 1"><path class="cls-1" d="M0,42.5V27.3a3.84,3.84,0,0,1,.6-2.1,3.8,3.8,0,0,1,1.55-1.6l8-4.65h6.2l.45-1,3.35,1.55L26,12.65l-2.8-1.3.1,0h3.05L27.7,8.75,41.5.65A3.9,3.9,0,0,1,43.65,0a4.14,4.14,0,0,1,2.2.65L64,11.25l-1.4-.65-5.8,6.8,9.25,4.35,5.35-6.2L85.2,23.6a4.26,4.26,0,0,1,1.55,1.6,4.07,4.07,0,0,1,.55,2.1V44.55l-2.1,3.3L87.3,51v22.2a4.36,4.36,0,0,1-.55,2.15,4.75,4.75,0,0,1-1.55,1.6l-6.8,4-1.75-.8L73.6,83.7l-6.9,4,1.6-1.9L62.4,83.1l-3.7,4.35,2,1-3,4.55-11.9,7-1.8.55h-.4a4.36,4.36,0,0,1-2.15-.55L2.15,76.9A4.18,4.18,0,0,1,.6,75.3,4.11,4.11,0,0,1,0,73.15V65l2.45-3L1.4,60l.75-.9L.5,58.35l-.5-1v-8l5.05,2.35L10.9,44.9,1.6,40.6,0,42.5m54.85,2.7L49.05,52l9.25,4.35,5.85-6.85-9.3-4.3M51.2,46.7l3.7-4.35L49,39.6,45.3,44l5.9,2.75m23.35.15,5.9,2.75,3.7-4.35-5.9-2.75-3.7,4.35M61.15,77.3l-.1.1,9.25,4.35,5.85-6.85-9.3-4.3-5.7,6.7M27,90.2l3.7-4.35-5.9-2.75-3.7,4.35L27,90.2m-7.8-36.3-9.3-4.3-5.8,6.8,9.25,4.35,5.85-6.85m1.3-7.2,3.7-4.35-5.9-2.75L14.55,44l5.9,2.75"/><path class="cls-2" d="M20.45,46.7,14.55,44l3.7-4.35,5.9,2.75-3.7,4.35M0,42.5l1.6-1.9,9.3,4.3L5.05,51.75,0,49.4V42.5M60.75,88.4l-2-1,3.7-4.35,5.9,2.75-1.6,1.9-1.75,1-4.1-.55-.1.2M73.6,83.7l3.05-3.6,1.75.8-4.8,2.8M71.4,15.55l-5.35,6.2L56.8,17.4l5.8-6.8,1.4.65.6.35,1.65,2.85h3.3l1.85,1.1M19.15,53.9,13.3,60.75,4.05,56.4l5.8-6.8,9.3,4.3"/><path class="cls-3" d="M.5,58.35l1.65.75L1.4,60,.5,58.35m22.7-47,2.8,1.3L20.15,19.5,16.8,18l1.5-3.75,4.9-2.85m51.35,35.5,3.7-4.35,5.9,2.75-3.7,4.35-5.9-2.75M51.2,46.7,45.3,44,49,39.6l5.9,2.75L51.2,46.7m3.65-1.5,9.3,4.3L58.3,56.35,49.05,52l5.8-6.8m6.3,32.1,5.7-6.7,9.3,4.3L70.3,81.75,61.05,77.4l.1-.1M27,90.2l-5.9-2.75,3.7-4.35,5.9,2.75L27,90.2"/></g></g></svg>