<svg xmlns="http://www.w3.org/2000/svg" viewBox="0 0 120 140"><defs><style>.cls-1{fill:#bb6444;}.cls-2{fill:#b55f40;}.cls-3{fill:#c26948;}.cls-4{fill:#593269;}.cls-5{fill:#9b59b6;}.cls-6{fill:#79468e;}.cls-7{fill:#c16ee2;}.cls-8{fill:#ecdcb8;}.cls-9{fill:#fc0;}.cls-10{fill:#d4e2e2;}.cls-11{fill:#cba200;}.cls-12{fill:#727979;}.cls-13{fill:#ecbc00;}.cls-14{fill:#98a3a3;}.cls-15{fill:#acb8b8;}.cls-16{fill:#b9c6c6;}.cls-17{fill:#d9d9d9;}.cls-18{fill:#aeaeae;}.cls-19{fill:#a8b4b4;}</style></defs><title>Asset 121</title><g id="Layer_2" data-name="Layer 2"><g id="Layer_1-2" data-name="Layer 1"><path class="cls-1" d="M70,49.6l-4.5,1.55L67,55.6l4.45-1.5L70,49.6m12-14,2.3,7.25,7.25-2.3L89.2,33.3,82,35.6m3.8,16.55L76.25,50l-2.1,9.55,9.45,2.1,2.15-9.5m-36-10.4,1.85-5-5-1.9-1.9,5,5.05,2m4.75,2.8L59.7,44l-.6-5.3-5.25.65.6,5.25M62.2,14l4.85-2.15L64.9,7.05,60,9.2,62.2,14M23.4,52.15,13.9,50l-2.1,9.55,9.45,2.1,2.15-9.5m64.1-28.6L87,28.85l5.25.5.55-5.25-5.25-.55M40,28.8l3.85,3.65L47.5,28.6,43.65,25,40,28.8m-5.85,8.85,3.35,4.1,4.15-3.35-3.4-4.1-4.1,3.35M43.6,46.2l-7.2,2.3,2.25,7.2,7.25-2.25L43.6,46.2M30.4,24.1l-5.25-.55-.55,5.3,5.25.5.55-5.25m.45,26.2-4.8,2.2,2.15,4.85L33,55.2l-2.15-4.9M20.25,76.75l-6.7-6.15-6.2,6.7,6.7,6.2,6.2-6.75m21-3.4.65-5.6h0l.4-3.7L33,63,31.9,72.3l9.3,1M25.15,86,24.6,91.2l5.25.5.55-5.25L25.15,86m16.5,14.8-3.4-4.1L34.15,100l3.35,4.1,4.15-3.35M12.4,98.65,14.9,89,5.3,86.5,2.8,96.1l9.6,2.55M46.55,97.2l-1.9,5,5.05,1.95,1.85-5-5-1.9M75.9,70.6l-6.2,6.7,6.75,6.2,6.15-6.75L75.9,70.6m-15.9,1,2.2,4.85,4.85-2.2L64.9,69.4,60,71.55M5.4,39.7,2.3,44l4.25,3.1,3.1-4.3-4.25-3M87.5,86,87,91.2l5.25.5.55-5.25L87.5,86m-19.85.55L65.2,96.1l9.55,2.55L77.25,89l-9.6-2.5m-10.5-9.75h0L49.8,78.5l1.7,7.4,7.4-1.75-1.75-7.4M75.1,119.5l9.45,2.1,2.15-9.5L77.2,110l-2.1,9.55m-43-5.35-2.2-4.9-4.75,2.2,2.15,4.85,4.8-2.15m32.85,13.5-.85-5.25-5.2.85.8,5.2,5.25-.8m6.55-11.2L70,112l-4.5,1.55L67,118l4.45-1.55M82,98l2.3,7.25L91.5,103l-2.3-7.3L82,98M45.9,115.8l-2.3-7.2-7.2,2.25,2.25,7.25,7.25-2.3M0,35,60,0l60,35v70L60,140,0,105V35M93.2,50.3l-4.8,2.2,2.15,4.85L95.4,55.2l-2.2-4.9m20.7-13.6-5-1.9-1.9,5,5,2,1.85-5M103.55,73.35l.65-5.6h0l.4-3.7-9.3-1-1.1,9.3,9.3,1m12.1-13.9.6-5.3-5.35-.5-.5,5.3,5.25.5M94.9,80.3l4.35,3.1,3-4.3L98,76l-3.1,4.3m5.7,16.35L96.5,100l3.35,4.1,4.15-3.35-3.4-4.1m13.3,2.45-5-1.9-1.9,5,5,1.95,1.85-5"/><path class="cls-2" d="M62.2,14,60,9.2l4.9-2.15,2.15,4.8L62.2,14M54.45,44.55l-.6-5.25,5.25-.65.6,5.3-5.25.6m-4.75-2.8-5.05-2,1.9-5,5,1.9-1.85,5m36.05,10.4-2.15,9.5-9.45-2.1L76.25,50l9.5,2.15M82,35.6l7.25-2.3,2.3,7.25-7.25,2.3L82,35.6m-12,14,1.5,4.5L67,55.6l-1.55-4.45L70,49.6M43.6,46.2l2.3,7.25L38.65,55.7,36.4,48.5l7.2-2.3m-9.45-8.55,4.1-3.35,3.4,4.1L37.5,41.75l-3.35-4.1M40,28.8,43.65,25,47.5,28.6l-3.65,3.85L40,28.8m1.2,44.55-9.3-1L33,63l9.35,1-.4,3.7h0l-.65,5.6m-21,3.4-6.2,6.75-6.7-6.2,6.2-6.7,6.7,6.15M12.4,98.65,2.8,96.1l2.5-9.6L14.9,89l-2.5,9.65m29.25,2.1L37.5,104.1,34.15,100l4.1-3.35,3.4,4.1M75.9,70.6l6.7,6.15L76.45,83.5,69.7,77.3l6.2-6.7M57.15,76.75l1.75,7.4L51.5,85.9l-1.7-7.4,7.3-1.75h0m10.5,9.75,9.6,2.5-2.5,9.65L65.2,96.1l2.45-9.6M87.5,86l5.25.5L92.2,91.7,87,91.2,87.5,86M5.4,39.7l4.25,3-3.1,4.3L2.3,44,5.4,39.7m66.05,76.75L67,118l-1.55-4.5L70,112l1.5,4.5m-6.55,11.2-5.25.8-.8-5.2,5.2-.85.85,5.25m-32.85-13.5-4.8,2.15-2.15-4.85,4.75-2.2,2.2,4.9m83.6-54.7L110.4,59l.5-5.3,5.35.5-.6,5.3m-12.1,13.9-9.3-1,1.1-9.3,9.3,1-.4,3.7h0l-.65,5.6m-3,23.3,3.4,4.1-4.15,3.35L96.5,100l4.1-3.35"/><path class="cls-3" d="M87.5,23.55l5.25.55-.55,5.25L87,28.85l.55-5.3M23.4,52.15l-2.15,9.5-9.45-2.1L13.9,50l9.5,2.15m7.45-1.85L33,55.2l-4.8,2.15L26.05,52.5l4.8-2.2M30.4,24.1l-.55,5.25-5.25-.5.55-5.3,5.25.55M25.15,86l5.25.5-.55,5.25-5.25-.5L25.15,86M46.55,97.2l5,1.9-1.85,5-5.05-1.95,1.9-5M60,71.55l4.9-2.15,2.15,4.8L62.2,76.4,60,71.55m15.1,48L77.2,110l9.5,2.15-2.15,9.5-9.45-2.1m-29.2-3.7-7.25,2.3-2.25-7.25,7.2-2.25,2.3,7.2M82,98l7.25-2.3,2.3,7.3-7.25,2.25L82,98m32-61.25-1.85,5-5-2,1.9-5,5,1.9M93.2,50.3l2.2,4.9-4.85,2.15L88.4,52.5l4.8-2.2m1.7,30L98,76l4.3,3.1-3,4.3L94.9,80.3m19,18.8-1.85,5-5-1.95,1.9-5,5,1.9"/><path class="cls-4" d="M89.05,81.6v2.6l2.1.8,1.95-1.85v-1.4l5.75-6.1V65.15L89,60.7l-6.25,7v10.8l6.3,3m-7.8-15.15L87.5,59.4a2.11,2.11,0,0,1,1.1-.65l1.25.15,9.85,4.45a1.78,1.78,0,0,1,.85.75l.3,1.05v10.5a2,2,0,0,1-.55,1.4l-5.2,5.5v.6L95,84l-.45.65-2,1.85a2,2,0,0,1-1,.5l-1.1,0-2.1-.8-.95-.75a2.15,2.15,0,0,1-.35-1.15V82.85l-5.15-2.5-.85-.75a2,2,0,0,1-.3-1V67.75a1.89,1.89,0,0,1,.5-1.3"/><path class="cls-5" d="M89.05,81.6l-6.3-3V67.75l9.45,4.5L92,83l-2.9-1.35"/><path class="cls-6" d="M92,83l.25-10.7,6.65-7.1v10.5l-5.75,6.1L92,83"/><path class="cls-7" d="M92.2,72.25l-9.45-4.5,6.25-7,9.85,4.45-6.65,7.1"/><path class="cls-8" d="M89.05,81.6,92,83l1.15-1.2v1.4L91.15,85l-2.1-.8V81.6"/><path class="cls-9" d="M36.8,29.2,52.35,10.6l4.4-.7,24.7,11.75.9,3.3L66.9,43.3v3.25l-4.5,1V44L37.75,32.45l-1-3.25"/><path class="cls-10" d="M36.8,29.2v3.25l1,3.3L62.4,47.5l4.5-1L82.35,28.2V25l-.9-3.3L56.75,9.9l-4.4.7L36.8,29.2m-6.1,2.55L48.8,10.4l8.9-1.7L86.6,22.35,88.75,29,70.65,50.3v58l-2.65.5-.9.1-2.1.4-2,.4-1.5.3V52L32.55,38.55l-1.85-6.8M35,53.2V45.7L58.35,56.5V64L35,53.2m0,37.5V83.2L58.35,94v7.5L35,90.7m0-25V58.2L58.35,69v7.5L35,65.7m0,12.5V70.7L58.35,81.5V89L35,78.2"/><path class="cls-11" d="M66.9,46.55V43.3L82.35,25V28.2L66.9,46.55"/><path class="cls-12" d="M58.55,6.9l28.9,13.65.65.5.4.7,2.15,6.6.1.6V87a2,2,0,0,1-.45,1.3l-5.2,6.1v2.2a2,2,0,0,1-.45,1.3l-18.1,21.35-1.1.65-1.3-.1-28.9-13.35-.8-.75a1.89,1.89,0,0,1-.35-1.1V99.3l-2.4-1.15-.65-.5-.4-.75L28.8,90.35l-.1-.55v-58a1.89,1.89,0,0,1,.5-1.3L47.3,9.1a1.75,1.75,0,0,1,1.15-.65l8.9-1.7,1.2.15m30.2,22-2.15-6.6L57.7,8.7l-8.9,1.7L30.7,31.75V89.8l1.85,6.55,3.55,1.7v6.55L65,118,83.1,96.6V93.65L88.75,87V29m-21.65,80,.9-.1-1.65.3.75-.2"/><path class="cls-13" d="M36.8,29.2l1,3.25L62.4,44V47.5L37.75,35.75l-1-3.3V29.2"/><path class="cls-14" d="M88.75,29V87L83.1,93.65V96.6L65,118v-8.6l1.35-.25,1.65-.3,2.65-.5v-58L88.75,29m-56.2,67.4L30.7,89.8v-58l1.85,6.8v57.8M86.7,43.6V36.1L73.45,51.45V59L86.7,43.6M73.45,89v7.5L86.7,81.1V73.6L73.45,89M86.7,61.1,73.45,76.45V84L86.7,68.6V61.1M73.45,71.45,86.7,56.1V48.6L73.45,64v7.5"/><path class="cls-15" d="M73.45,71.45V64L86.7,48.6v7.5L73.45,71.45M86.7,43.6,73.45,59v-7.5L86.7,36.1v7.5m0,17.5v7.5L73.45,84v-7.5L86.7,61.1M73.45,89,86.7,73.6v7.5L73.45,96.45V89"/><path class="cls-16" d="M36.1,98.1v0l-3.55-1.7V38.55L61.5,52V110L36.1,98.1M35,53.2,58.35,64V56.5L35,45.7v7.5m0,25L58.35,89V81.5L35,70.7v7.5m0-12.5L58.35,76.5V69L35,58.2v7.5m0,25,23.35,10.8V94L35,83.2v7.5"/><path class="cls-17" d="M63,109.7l2-.4v0l-2,.35"/><path class="cls-18" d="M65,109.3l2.1-.4-.75.2-1.35.25v0"/><path class="cls-19" d="M65,118,36.1,104.6V98.1L61.5,110l1.5-.3,2-.35V118"/><path class="cls-4" d="M25.6,100.7l6.65-1V77.9l-3.6-11-13.3,2.6V91.2l3.15,10.6,3.25-.5v1.6l1.15,2.5,2.7-.7v-4m4-35.45a1.88,1.88,0,0,1,.9,1.1l3.6,11,.1.6V99.65a2,2,0,0,1-.45,1.3,2.21,2.21,0,0,1-1.25.7l-4.95.75v2.3a2.05,2.05,0,0,1-.4,1.25,2.42,2.42,0,0,1-1.1.7l-2.7.7-1.35-.15a1.91,1.91,0,0,1-.95-1L20,103.75l-.05-.15-1.1.2a2,2,0,0,1-2.2-1.4L13.45,91.8l-.1-.6V69.55a1.92,1.92,0,0,1,.45-1.25,1.74,1.74,0,0,1,1.2-.7L28.3,65a1.76,1.76,0,0,1,1.35.25"/><path class="cls-7" d="M15.35,69.55,28.65,67l3.6,11L18.5,80.25l-3.15-10.7"/><path class="cls-5" d="M18.5,80.25,32.25,77.9V99.65l-6.65,1-3.85.6-3.25.5V80.25"/><path class="cls-6" d="M18.5,80.25V101.8L15.35,91.2V69.55l3.15,10.7"/><path class="cls-8" d="M25.6,100.7v4l-2.7.7-1.15-2.5v-1.6l3.85-.6"/></g></g></svg>