<svg xmlns="http://www.w3.org/2000/svg" viewBox="0 0 120 140"><defs><style>.cls-1{fill:#bb6444;}.cls-2{fill:#c26948;}.cls-3{fill:#b55f40;}.cls-4{fill:#bb8044;}</style></defs><title>Asset 68</title><g id="Layer_2" data-name="Layer 2"><g id="Layer_1-2" data-name="Layer 1"><path class="cls-1" d="M25.15,23.55l-.55,5.3,5.25.5.55-5.25-5.25-.55M5.4,39.7,2.3,44l4.25,3.1,3.1-4.3-4.25-3m18,12.45L13.9,50l-2.1,9.55,9.45,2.1,2.15-9.5m2.65.35,2.15,4.85L33,55.2l-2.15-4.9-4.8,2.2m39.4-1.35L67,55.6l4.45-1.5L70,49.6l-4.5,1.55M43.6,46.2l-7.2,2.3,2.25,7.2,7.25-2.25L43.6,46.2m-2-7.8-3.4-4.1-4.1,3.35,3.35,4.1,4.15-3.35m12.2.9.6,5.25L59.7,44l-.6-5.3-5.25.65m-7.3-4.5-1.9,5,5.05,2,1.85-5-5-1.9M43.65,25,40,28.8l3.85,3.65L47.5,28.6,43.65,25M62.2,14l4.85-2.15L64.9,7.05,60,9.2,62.2,14M60,0l60,35v70L60,140,0,105V35L60,0M92.2,29.35l.55-5.25-5.25-.55L87,28.85l5.25.5m-6.45,22.8L76.25,50l-2.1,9.55,9.45,2.1,2.15-9.5M82,35.6l2.3,7.25,7.25-2.3L89.2,33.3,82,35.6m25.1,4.2,5,2,1.85-5-5-1.9-1.9,5M93.2,50.3l-4.8,2.2,2.15,4.85L95.4,55.2l-2.2-4.9m10.35,23,.65-5.6h0l.4-3.7-9.3-1-1.1,9.3,9.3,1m12.7-19.2-5.35-.5-.5,5.3,5.25.5.6-5.3m-14,24.95L98,76l-3.1,4.3,4.35,3.1,3-4.3M82.6,76.75,75.9,70.6l-6.2,6.7,6.75,6.2,6.15-6.75M82,98l2.3,7.25L91.5,103l-2.3-7.3L82,98m5-6.75,5.25.5.55-5.25L87.5,86,87,91.2m20.1,11,5,1.95,1.85-5-5-1.9-1.9,5m-6.45-5.5L96.5,100l3.35,4.1,4.15-3.35-3.4-4.1M60,71.55l2.2,4.85,4.85-2.2L64.9,69.4,60,71.55M86.7,112.1,77.2,110l-2.1,9.55,9.45,2.1,2.15-9.5M41.65,100.75l-3.4-4.1L34.15,100l3.35,4.1,4.15-3.35m-.45-27.4.65-5.6h0l.4-3.7L33,63,31.9,72.3l9.3,1m15.95,3.4h0L49.8,78.5l1.7,7.4,7.4-1.75-1.75-7.4m-12.5,25.4,5.05,1.95,1.85-5-5-1.9-1.9,5M5.3,86.5,2.8,96.1l9.6,2.55L14.9,89,5.3,86.5m8.25-15.9-6.2,6.7,6.7,6.2,6.2-6.75-6.7-6.15m54.1,15.9L65.2,96.1l9.55,2.55L77.25,89l-9.6-2.5m-37.25,0L25.15,86,24.6,91.2l5.25.5.55-5.25m33.65,36-5.2.85.8,5.2,5.25-.8-.85-5.25M70,112l-4.5,1.55L67,118l4.45-1.55L70,112m-42.7,4.35,4.8-2.15-2.2-4.9-4.75,2.2,2.15,4.85m11.4,1.8,7.25-2.3-2.3-7.2-7.2,2.25,2.25,7.25"/><path class="cls-2" d="M38.65,118.1l-2.25-7.25,7.2-2.25,2.3,7.2-7.25,2.3M25.15,23.55l5.25.55-.55,5.25-5.25-.5.55-5.3m.9,29,4.8-2.2L33,55.2l-4.8,2.15L26.05,52.5m-2.65-.35-2.15,9.5-9.45-2.1L13.9,50l9.5,2.15m68.8-22.8L87,28.85l.55-5.3,5.25.55-.55,5.25m1,20.95,2.2,4.9-4.85,2.15L88.4,52.5l4.8-2.2m13.85-10.5,1.9-5,5,1.9-1.85,5-5-2M102.3,79.1l-3,4.3L94.9,80.3,98,76l4.3,3.1M82,98l7.25-2.3,2.3,7.3-7.25,2.25L82,98m25.1,4.2,1.9-5,5,1.9-1.85,5-5-1.95M86.7,112.1l-2.15,9.5-9.45-2.1L77.2,110l9.5,2.15M60,71.55l4.9-2.15,2.15,4.8L62.2,76.4,60,71.55m-15.35,30.6,1.9-5,5,1.9-1.85,5-5.05-1.95M30.4,86.45l-.55,5.25-5.25-.5L25.15,86l5.25.5"/><path class="cls-3" d="M5.4,39.7l4.25,3-3.1,4.3L2.3,44,5.4,39.7M62.2,14,60,9.2l4.9-2.15,2.15,4.8L62.2,14M43.65,25,47.5,28.6l-3.65,3.85L40,28.8,43.65,25m2.9,9.85,5,1.9-1.85,5-5.05-2,1.9-5m7.3,4.5,5.25-.65.6,5.3-5.25.6-.6-5.25m-12.2-.9L37.5,41.75l-3.35-4.1,4.1-3.35,3.4,4.1m2,7.8,2.3,7.25L38.65,55.7,36.4,48.5l7.2-2.3m21.85,4.95L70,49.6l1.5,4.5L67,55.6l-1.55-4.45M82,35.6l7.25-2.3,2.3,7.25-7.25,2.3L82,35.6m3.8,16.55-2.15,9.5-9.45-2.1L76.25,50l9.5,2.15m30.5,2-.6,5.3L110.4,59l.5-5.3,5.35.5m-12.7,19.2-9.3-1,1.1-9.3,9.3,1-.4,3.7h0l-.65,5.6m-21,3.4L76.45,83.5,69.7,77.3l6.2-6.7,6.7,6.15M87,91.2,87.5,86l5.25.5L92.2,91.7,87,91.2m13.65,5.45,3.4,4.1-4.15,3.35L96.5,100l4.1-3.35M57.15,76.75l1.75,7.4L51.5,85.9l-1.7-7.4,7.3-1.75h0M41.2,73.35l-9.3-1L33,63l9.35,1-.4,3.7h0l-.65,5.6m.45,27.4L37.5,104.1,34.15,100l4.1-3.35,3.4,4.1m26-14.25,9.6,2.5-2.5,9.65L65.2,96.1l2.45-9.6M13.55,70.6l6.7,6.15-6.2,6.75-6.7-6.2,6.2-6.7M5.3,86.5,14.9,89l-2.5,9.65L2.8,96.1l2.5-9.6m22,29.8-2.15-4.85,4.75-2.2,2.2,4.9-4.8,2.15M70,112l1.5,4.5L67,118l-1.55-4.5L70,112m-5.9,10.45.85,5.25-5.25.8-.8-5.2,5.2-.85"/><path class="cls-4" d="M9,36.85A5.55,5.55,0,0,0,6.85,39,5.63,5.63,0,0,0,6,42V98.05a5.57,5.57,0,0,0,.85,3A5.9,5.9,0,0,0,9,103.2l20.75,12.1,5.25-.8.75,4.3L57,131.2a6,6,0,0,0,3,.8,6.26,6.26,0,0,0,3-.8L80.6,121l.9-5,4.65,1.75,4.7-2.75,1.9-6.25,5.75,1.75,12.55-7.3h0a6.35,6.35,0,0,0,2.2-2.2,5.89,5.89,0,0,0,.8-3V76.75L110.75,69,114,60.5V42a5.83,5.83,0,0,0-3-5.15h0l-14.6-8.5L87,27.5l-5.1-7.65-18.85-11A5.91,5.91,0,0,0,60,8a5.63,5.63,0,0,0-3,.85l-14.4,8.4-.85,4.25H35.3l-8.25,4.85L23.5,34l-6.65-1.7L9,36.85M60,0l60,35v70L60,140,0,105V35L60,0"/></g></g></svg>