<svg xmlns="http://www.w3.org/2000/svg" viewBox="0 0 120 140"><defs><style>.cls-1{fill:#bb8044;}.cls-2{fill:#aa753e;}.cls-3{fill:#c68a4e;}.cls-4{fill:#115f32;}.cls-5{fill:#1b914d;}.cls-6{fill-opacity:0.1;}.cls-7{fill:#924326;}.cls-8{fill:#b9c6c6;}.cls-9{fill:#727979;}.cls-10{fill:#bb5f3c;}.cls-11{fill:#a6b1b1;}.cls-12{fill:#d26f49;}.cls-13{fill:#909a9a;}.cls-14{fill:#d5e5e5;}.cls-15{fill:#390;}.cls-16{fill:#e77a50;}.cls-17{fill:#ff8658;}.cls-18{fill:#727272;}.cls-19{fill:#d9d9d9;}.cls-20{fill:#855b30;}.cls-21{fill:#af783f;}.cls-22{fill:#cd8c4a;}</style></defs><title>Asset 138</title><g id="Layer_2" data-name="Layer 2"><g id="Layer_1-2" data-name="Layer 1"><path class="cls-1" d="M105,93.7l1.75,4,4-1.85-1.75-4-4,1.85M37.15,48.35,34.6,45.1l-3.25,2.6L34,51l3.2-2.6M20.85,42.7l2.75,3.75,3.85-2.8L24.6,39.9l-3.75,2.8m2.8,17.1,6.85-3-3.05-6.9-6.8,3,3,6.9M27.4,96.4l1-4.05-4-.95-1,4,4,1M14.6,55.45l-.85-2.05-2,.9.85,2.1,2-.95m20.5,36-3.55,6.7,6.55,3.5L41.7,95,35.1,91.4M65.8,24.45l.8-7-7.1-.8-.85,7,7.15.8M51.5,28.3l4.35-.7-.7-4.35L50.8,24l.7,4.35M110.15,58,109,53.6l-4.4,1.2,1.2,4.45,4.4-1.25M110,68.8l.75-6.55-6.55-.8-.75,6.6,6.55.75M79.3,91.45,76.85,97.6,83,100l2.45-6.1L79.3,91.45M88.45,77.3l-1.2,3,2.9,1.2,1.25-2.9-3-1.25m12.4-14.25.45-3.1-3.2-.45-.4,3.15,3.15.4M94.3,90.5V86H89.7l0,4.55H94.3m9,7.7-7.1,1.1,1,7,7.1-1.1-1-7M120,35v70L60,140,0,105V35L60,0l60,35M30,107.7l1.25-4.45L26.65,102l-1.2,4.55,4.5,1.2m14.7,0,1.15-2-2-1-1,2,1.9,1"/><path class="cls-2" d="M44.65,107.7l-1.9-1,1-2,2,1-1.15,2m-23.8-65,3.75-2.8,2.85,3.75-3.85,2.8L20.85,42.7m16.3,5.65L34,51l-2.6-3.25,3.25-2.6,2.55,3.25M14.6,55.45l-2,.95-.85-2.1,2-.9.85,2.05m12.8,41-4-1,1-4,4,.95-1,4.05M65.8,24.45l-7.15-.8.85-7,7.1.8-.8,7.05m13.5,67,6.15,2.45L83,100l-6.15-2.4,2.45-6.15M110,68.8l-6.55-.75.75-6.6,6.55.8L110,68.8m.15-10.8-4.4,1.25-1.2-4.45,4.4-1.2,1.2,4.4m-6.9,40.2,1,7-7.1,1.1-1-7,7.1-1.1m-9-7.7H89.75l0-4.55h4.6V90.5M30,107.7l-4.5-1.2,1.2-4.55,4.55,1.3L30,107.7"/><path class="cls-3" d="M23.65,59.8l-3-6.9,6.8-3,3.05,6.9-6.85,3M35.1,91.4,41.7,95l-3.6,6.65-6.55-3.5,3.55-6.7M51.5,28.3,50.8,24l4.35-.7.7,4.35-4.35.7m49.35,34.75-3.15-.4.4-3.15,3.2.45-.45,3.1M88.45,77.3l3,1.25-1.25,2.9-2.9-1.2,1.2-3M105,93.7l4-1.85,1.75,4-4,1.85-1.75-4"/><path class="cls-4" d="M19,51.2a6,6,0,0,1-1.5-3.9v-.9a48.75,48.75,0,0,1,1.5-13q1.85-7.09,5.2-6.65,3.34-.49,5.3,6.65a52.21,52.21,0,0,1,1.4,13v.9a6.53,6.53,0,0,1-1.4,4l-.5.55H28.9l-1.15.9a3.21,3.21,0,0,1-1,2.35l-.15.15a3.51,3.51,0,0,1-2.4.95h-.05a3.38,3.38,0,0,1-2.5-1,3.48,3.48,0,0,1-1-2.45l-1.15-.9h.05L19,51.2m6.8.25a5.1,5.1,0,0,0,1.75-1.1l.2-.15a4.53,4.53,0,0,0,1.15-3V46.4A49.92,49.92,0,0,0,27.5,33.9q-1.39-5.14-3.35-5.15t-3.3,5.15a48.37,48.37,0,0,0-1.4,12.5v.85a4.3,4.3,0,0,0,1.25,3l.15.15a4.34,4.34,0,0,0,1.75,1.1V52.6a1.54,1.54,0,0,0,1.55,1.55h.05a1.35,1.35,0,0,0,1.05-.45,1.44,1.44,0,0,0,.5-1.1V51.45"/><path class="cls-5" d="M25.75,51.45l-1.6.25-1.55-.25a4.34,4.34,0,0,1-1.75-1.1l-.15-.15a4.3,4.3,0,0,1-1.25-3V46.4a48.37,48.37,0,0,1,1.4-12.5q1.35-5.14,3.3-5.15T27.5,33.9a49.92,49.92,0,0,1,1.35,12.5v.85a4.53,4.53,0,0,1-1.15,3l-.2.15a5.1,5.1,0,0,1-1.75,1.1"/><path class="cls-6" d="M29.45,51.25A3.36,3.36,0,0,1,31,54a3.72,3.72,0,0,1-2,3.1,8.34,8.34,0,0,1-4.75,1.3,8.57,8.57,0,0,1-4.8-1.3A3.72,3.72,0,0,1,17.45,54,3.48,3.48,0,0,1,19,51.2l.55.6h-.05l1.15.9a3.48,3.48,0,0,0,1,2.45,3.38,3.38,0,0,0,2.5,1h.05a3.51,3.51,0,0,0,2.4-.95l.15-.15a3.21,3.21,0,0,0,1-2.35l1.15-.9H29l.5-.55"/><path class="cls-1" d="M25.75,51.45V52.6a1.44,1.44,0,0,1-.5,1.1,1.35,1.35,0,0,1-1.05.45h-.05A1.54,1.54,0,0,1,22.6,52.6V51.45l1.55.25,1.6-.25"/><path class="cls-7" d="M25.25,42.85l-1.5-1.35L52,8.05l.85-.6,1,0a1.76,1.76,0,0,1,1,.5l8.8,8,1.4-1.65.85-.6,1,0a1.76,1.76,0,0,1,1,.5l8.75,8,.1-.1,1.35-1.6a2.13,2.13,0,0,1,.85-.6l1-.05a1.76,1.76,0,0,1,1,.5l8.75,8,1.45-1.7a1.67,1.67,0,0,1,.85-.6l1-.1a1.76,1.76,0,0,1,1,.5l13.1,11.9-1.4,1.65v-.2l-13-11.9L89.9,31,88.45,29.6l-8.85-8-2.75,3.25L75.5,23.6l-9-8.1L63.8,18.7l-1.6-1.45-8.7-7.9L25.25,42.8v.05"/><path class="cls-8" d="M25.25,42.85V42.8l8.6,7.75L38.3,54.6V48.9l8.85,8,4.2,3.8V55l8.7,7.95,4.3,3.95V61.1L77.4,72.9v9.2l8.25,3.8v2.3L71.1,81.4V75.9L57.85,69.75V75.2L46,69.7V64.2l-3.8-1.8V68l-17-8V42.85"/><path class="cls-9" d="M25.25,42.85V60l17,8L46,69.7l11.85,5.5L71.1,81.4l14.55,6.8L113.9,54.85v-2.3l-8.2-3.85v-9l1.4-1.65.45.65.15.8v7.9l7,3.3a2.34,2.34,0,0,1,.85.75l.3,1v2.3a2,2,0,0,1-.45,1.3L87.2,89.5l-1.1.65L84.8,90,24.4,61.8l-.8-.7a1.89,1.89,0,0,1-.35-1.1V42.8a1.89,1.89,0,0,1,.5-1.3l1.5,1.35"/><path class="cls-10" d="M62.2,17.25l1.6,1.45L38.3,48.9v5.7l-4.45-4.05L62.2,17.25M75.5,23.6l1.35,1.25L51.35,55V60.7l-4.2-3.8L75.5,23.6m13,6L89.9,31,64.35,61.1v5.75l-4.3-3.95,28.4-33.3"/><path class="cls-11" d="M105.7,39.75v9l-4.6,5.5-.4.4V49.15L98.3,52v5.5L77.4,82.1V72.9l28.3-33.35v.2m8.2,12.8v2.3L85.65,88.2V85.9L113.9,52.55M71.1,81.4,57.85,75.2V69.75L71.1,75.9v5.5M46,69.7,42.2,68V62.4L46,64.2v5.5"/><path class="cls-12" d="M25.25,42.8,53.5,9.35l8.7,7.9L33.85,50.55l-8.6-7.75M63.8,18.7l2.75-3.2,9,8.1L47.15,56.9l-8.85-8L63.8,18.7m13,6.15L79.6,21.6l8.85,8L60.05,62.9,51.35,55l25.5-30.1M89.9,31l2.75-3.3,13,11.9L77.4,72.9,64.35,61.1,89.9,31"/><path class="cls-13" d="M98.3,57.45V52l2.4-2.8V54.6l-.3.35v0l-2.1,2.45"/><path class="cls-14" d="M98.3,57.45,100.4,55v0l.7-.75,4.6-5.5,8.2,3.85L85.65,85.9,77.4,82.1,98.3,57.45"/><path class="cls-15" d="M100.7,54.6l.4-.4-.7.75.3-.35"/><path class="cls-7" d="M7.25,89.9v-.1l-2.8-5.15,0-.05-.2-.4v0l-.3-.55-.1-.2-.25-.6-1-2.3a2.08,2.08,0,0,1-.1-1.1,1.66,1.66,0,0,1,.45-1L21.05,57l.15-.15,4.55-4.15.25-.25a1.82,1.82,0,0,1,1.4-.6h.05l.85.2,9.75,4.6.85.7.2.3.1.2,0,0,0,.15,4.55,8.4.25,1v0a2,2,0,0,1-.45,1.3L39.2,74l-1.85-.9,4.9-5.75L37.7,58.85l-.15-.25-.2-.3-1.1-.5L27.6,53.7h-.05v0l-4.85,4.4L4.8,79.25l-.25.3,1,2.4.35.8.2.4.2.4,3,5.5H9.4v0l-2.15.8"/><path class="cls-10" d="M37.35,58.3l.2.3.15.25,4.55,8.45-4.9,5.75L24.1,88.7l-.25-.4-.05-.15L19.2,79.7,37.35,58.3"/><path class="cls-16" d="M37.35,58.3,19.2,79.7l4.6,8.45.05.15.25.4-4.9,4.4-3-.85,3-2.7.45-.4-.35-.6-3.1-5.7L10,80l-.85-.15-3,2.7-.2.2L5.6,82l-1-2.4,0,0,4.8-4.35,8.75,4.1L36.25,57.8l1.1.5"/><path class="cls-12" d="M4.8,79.25l17.9-21.1,4.85-4.4v0h.05l8.65,4.1L18.15,79.25,9.4,75.15,4.6,79.5l.2-.25"/><path class="cls-11" d="M37.35,73.05v.75L19.2,95.25V93.1l4.9-4.4L37.35,73.05"/><path class="cls-9" d="M37.35,73.05l1.85.9a2,2,0,0,1-.45,1.3L20.6,96.7l-1.1.65-1.3-.15L8.4,92.6l-.8-.7,0-.1a1.76,1.76,0,0,1-.3-1v-.9l2.15-.8v1.55l9.8,4.6L37.35,73.8v-.75"/><path class="cls-17" d="M9.4,89.1v0H9.35l-3-5.5-.2-.4-.2-.4.2-.2,3-2.7L10,80l6.2,2.85,3.1,5.7.3.6-.4.4-3,2.7L9.4,89.1"/><path class="cls-18" d="M4.55,79.55l.25-.3-.2.25,0,0"/><path class="cls-8" d="M19.2,93.1v2.15l-9.8-4.6V89.1l6.8,3.15,3,.85"/><path class="cls-19" d="M19.2,89.55l.4-.4-.3-.6.35.6-.45.4"/><path class="cls-7" d="M27.25,99.4v-.1l-2.8-5.15-.05-.05-.2-.4v0l-.3-.55-.1-.2-.25-.6-1-2.3a2.08,2.08,0,0,1-.1-1.1,1.66,1.66,0,0,1,.45-1L41.05,66.5l.15-.15,4.55-4.15L46,62a1.82,1.82,0,0,1,1.4-.6h.05l.85.2,9.75,4.6.85.7.2.3.1.2,0,.05,0,.15L63.85,76l.25,1v0a2,2,0,0,1-.45,1.3l-4.45,5.2-1.85-.9,4.9-5.75L57.7,68.35l-.15-.25-.2-.3-1.1-.5L47.6,63.2h-.05v0l-4.85,4.4L24.8,88.75l-.25.3,1.05,2.4.35.8.2.4.2.4,3,5.5h0v0l-2.15.8"/><path class="cls-16" d="M26,92.25l-.35-.8-1.05-2.4.05,0,4.8-4.35,8.75,4.1L56.25,67.3l1.1.5L39.2,89.2l4.6,8.45.05.15.25.4-4.9,4.4-3-.85,3-2.7.45-.4-.35-.6-3.1-5.7L30,89.5l-.85-.15-3,2.7-.2.2"/><path class="cls-17" d="M26,92.25l.2-.2,3-2.7.85.15,6.2,2.85,3.1,5.7.3.6-.4.4-3,2.7L29.4,98.6v0h0l-3-5.5-.2-.4-.2-.4"/><path class="cls-12" d="M24.8,88.75l17.9-21.1,4.85-4.4v0h.05l8.65,4.1L38.15,88.75l-8.75-4.1L24.6,89l.2-.25"/><path class="cls-18" d="M24.8,88.75l-.2.25-.05,0,.25-.3"/><path class="cls-9" d="M27.25,99.4l2.15-.8v1.55l9.8,4.6L57.35,83.3v-.75l1.85.9a2,2,0,0,1-.45,1.3L40.6,106.2l-1.1.65-1.3-.15-9.8-4.6-.8-.7-.05-.1a1.76,1.76,0,0,1-.3-1v-.9"/><path class="cls-19" d="M39.3,98.05l.35.6-.45.4.4-.4-.3-.6"/><path class="cls-10" d="M57.35,67.8l.2.3.15.25,4.55,8.45-4.9,5.75L44.1,98.2l-.25-.4-.05-.15L39.2,89.2,57.35,67.8"/><path class="cls-11" d="M39.2,102.6l4.9-4.4L57.35,82.55v.75L39.2,104.75V102.6"/><path class="cls-8" d="M39.2,102.6v2.15l-9.8-4.6V98.6l6.8,3.15,3,.85"/><path class="cls-8" d="M76.85,97.15l.85.45.3.1,5,2.3v6.9l-6.2-2.85V102.5l0-5.35m21.05-9.9h0l2.1,1v1.8L96.8,88.6l1.1-1.35m1.8-.1-1-.75-.05-.05,1.1-1.25v2.05m-16.35,22.7-8-3.75,0-1.8,8,3.7v1.85"/><path class="cls-14" d="M83,100l-5-2.3-.3-.1-.85-.45L97.4,72.8l6.15,2.9L83,100m-6.2,2.5v1.55L83,106.9l3.85-4.6v-.9l.3.1.3.15.45.2.45.25L83.4,108l-.05,0-8-3.7,1.45-1.8m23.25-14.2-2.1-1h0l.2-.2.5-.7.05.05,1,.75,3.9-4.55v-.95l1.45.7-.15.25-.45.5-2.6,3.1-1.8,2.1"/><path class="cls-9" d="M89.45,105.8l-4.55,5.35-1,.65h-.15l-.25,0-1-.2-8-3.75-.85-.75a2.09,2.09,0,0,1-.3-1.1l0-1.8a1.87,1.87,0,0,1,.45-1.2l1-1.25,0-4.65V97a1.82,1.82,0,0,1,.5-1.1L95.9,71.5a1.87,1.87,0,0,1,1.1-.65l1.25.15,6.15,2.9.85.75.3,1,0,4.7.35.15a2,2,0,0,1,.8.75l.3,1v1.8l-.45,1.3-5,6a2.11,2.11,0,0,1-1.1.65L99.2,92l-1.9-.9-7.9,9.35.7.7.25,1v1.8l-.45,1.3-.45.6m-12.6-8.65,0,5.35-1.45,1.8,0,1.8,8,3.75,5-5.95v-1.8l-.45-.25-.45-.2-.3-.15-.3-.1v-1.1l10-11.7,3.25,1.5,5-5.95v-1.8l-1.45-.7,0-6L97.4,72.8,76.85,97.15"/><path class="cls-11" d="M83,106.9V100l20.55-24.3,0,6v.95l-3.9,4.55V85.1l-1.1,1.25-.5.7-.2.2L96.8,88.6l-10,11.7v2L83,106.9m17-16.8V88.3l1.8-2.1,2.6-3.1.45-.5.15-.25v1.8l-5,5.95m-11.7,12v1.8l-5,5.95V108l.05,0,4.95-5.85"/><path class="cls-6" d="M101.6,91.4,89.45,105.8l.45-.6.45-1.3v-1.8l-.25-1-.7-.7,7.9-9.35,1.9.9,1.3.1a2.11,2.11,0,0,0,1.1-.65"/><path class="cls-20" d="M75.85,120.8l-2-11.3-4.1-.1-4.8.85-4.6,1.5-.45,5.1L67,123.5l8.9-2.7m0-11.65,2,11.3a2,2,0,0,1-.3,1.4,2.12,2.12,0,0,1-1.1.9l-8.9,2.7h-1a2,2,0,0,1-.9-.5l-7-6.65-.5-.75-.15-.85.45-5.1a1.79,1.79,0,0,1,.45-1.1,1.91,1.91,0,0,1,1-.65l4.6-1.5.25,0,4.8-.85.4,0,4.1.1a1.82,1.82,0,0,1,1.25.5,2,2,0,0,1,.7,1.15"/><path class="cls-21" d="M69.75,109.4l4.1.1,2,11.3-5.25-6.75-.85-4.65m-9.85,7.45.45-5.1,4.6-1.5-.1,1-4.95,5.6"/><path class="cls-1" d="M59.9,116.85l4.95-5.6.1-1,4.8-.85.85,4.65-2.1.65L67,123.5l-7.05-6.65"/><path class="cls-22" d="M75.85,120.8,67,123.5l1.55-8.8,2.1-.65,5.25,6.75"/></g></g></svg>