<svg xmlns="http://www.w3.org/2000/svg" xmlns:xlink="http://www.w3.org/1999/xlink" viewBox="0 0 120 140"><defs><style>.cls-1{fill:#27ae60;}.cls-2{fill:url(#linear-gradient);}.cls-3{fill:url(#linear-gradient-2);}.cls-4{fill:url(#linear-gradient-3);}.cls-5{fill:url(#linear-gradient-4);}.cls-6{fill:url(#linear-gradient-5);}.cls-7{fill:url(#linear-gradient-6);}.cls-8{fill:url(#linear-gradient-7);}.cls-9{fill:url(#linear-gradient-8);}.cls-10{fill:url(#linear-gradient-9);}.cls-11{fill:url(#linear-gradient-10);}.cls-12{fill:url(#linear-gradient-11);}.cls-13{fill:url(#linear-gradient-12);}.cls-14{fill:url(#linear-gradient-13);}.cls-15{fill:url(#linear-gradient-14);}.cls-16{fill:url(#linear-gradient-15);}.cls-17{fill:#115f32;}.cls-18{fill:#10773c;}.cls-19{fill:#168344;}.cls-20{fill:#1b914d;}.cls-21{fill:#178044;}.cls-22{fill:#cbbd9e;}.cls-23{fill:#936434;}.cls-24{fill:#775029;}.cls-25{fill:#726a59;}.cls-26{fill:#bb8044;}.cls-27{fill:#ecdcb8;}.cls-28{fill:#917f57;}.cls-29{fill:#cdb57c;}.cls-30{fill:#f0d391;}.cls-31{fill:#e0c587;}.cls-32{fill:#703b27;}.cls-33{fill:#9c5338;}.cls-34{fill:#bb6444;}.cls-35{fill:#c68848;}.cls-36{fill-opacity:0.1;}</style><linearGradient id="linear-gradient" x1="-1469.2" y1="49.53" x2="169.2" y2="49.53" gradientTransform="matrix(0, 0, 0, 0, 12.18, 46.43)" gradientUnits="userSpaceOnUse"><stop offset="0" stop-color="#27ae60"/><stop offset="1" stop-color="#30c26d"/></linearGradient><linearGradient id="linear-gradient-2" x1="-1469.2" y1="37.67" x2="169.2" y2="37.67" gradientTransform="matrix(0, 0, 0, 0, 45.68, 34.48)" xlink:href="#linear-gradient"/><linearGradient id="linear-gradient-3" x1="-1469.2" y1="54.17" x2="169.2" y2="54.17" gradientTransform="matrix(0, 0, 0, 0, 37.97, 51.56)" xlink:href="#linear-gradient"/><linearGradient id="linear-gradient-4" x1="-1469.2" y1="26.2" x2="169.2" y2="26.2" gradientTransform="matrix(0, 0, 0, 0, 56.87, 23.61)" xlink:href="#linear-gradient"/><linearGradient id="linear-gradient-5" x1="-1469.2" y1="48.03" x2="169.2" y2="48.03" gradientTransform="matrix(0, 0, 0, 0, 60.83, 44.93)" xlink:href="#linear-gradient"/><linearGradient id="linear-gradient-6" x1="-1469.2" y1="30.38" x2="169.2" y2="30.38" gradientTransform="matrix(0, 0, 0, 0, 90.87, 27.76)" xlink:href="#linear-gradient"/><linearGradient id="linear-gradient-7" x1="-1469.2" y1="81.92" x2="169.2" y2="81.92" gradientTransform="matrix(0, 0, 0, 0, 83.97, 79.31)" xlink:href="#linear-gradient"/><linearGradient id="linear-gradient-8" x1="-1469.2" y1="98.08" x2="169.2" y2="98.08" gradientTransform="matrix(0, 0, 0, 0, 106.37, 95.46)" xlink:href="#linear-gradient"/><linearGradient id="linear-gradient-9" x1="-1469.2" y1="89.17" x2="169.2" y2="89.17" gradientTransform="matrix(0, 0, 0, 0, 70.47, 86.56)" xlink:href="#linear-gradient"/><linearGradient id="linear-gradient-10" x1="-1469.2" y1="121.33" x2="169.2" y2="121.33" gradientTransform="matrix(0, 0, 0, 0, 72.28, 118.23)" xlink:href="#linear-gradient"/><linearGradient id="linear-gradient-11" x1="-1469.2" y1="106.58" x2="169.2" y2="106.58" gradientTransform="matrix(0, 0, 0, 0, 56.68, 103.48)" xlink:href="#linear-gradient"/><linearGradient id="linear-gradient-12" x1="-1469.2" y1="116.92" x2="169.2" y2="116.92" gradientTransform="matrix(0, 0, 0, 0, 44.68, 113.83)" xlink:href="#linear-gradient"/><linearGradient id="linear-gradient-13" x1="-1469.2" y1="119.17" x2="169.2" y2="119.17" gradientTransform="matrix(0, 0, 0, 0, 57.87, 116.56)" xlink:href="#linear-gradient"/><linearGradient id="linear-gradient-14" x1="-1469.2" y1="62.42" x2="169.2" y2="62.42" gradientTransform="matrix(0, 0, 0, 0, 25.52, 59.81)" xlink:href="#linear-gradient"/><linearGradient id="linear-gradient-15" x1="-1469.2" y1="102.17" x2="169.2" y2="102.17" gradientTransform="matrix(0, 0, 0, 0, 14.43, 99.08)" xlink:href="#linear-gradient"/></defs><title>Asset 125</title><g id="Layer_2" data-name="Layer 2"><g id="Layer_1-2" data-name="Layer 1"><path class="cls-1" d="M11.35,45.5l-.25.15-.1.25-.35,3.5L9,49.75l-.25.1,0,.1-.05.2v.25h.05l1.45,3.15h6l1.6-1,.15-.15,0-.15,0-.3-.3-.25-1.5-.4,1.2-3.15v-.35l-.05,0-.2-.2h-.35l-2.8,1-2-2.85a.3.3,0,0,0-.25-.15l-.25,0M42.7,36.25,44,39.35l-1.55.45-.25.2-.1.35.1.1.1.15,1.6,1.1h6l1.45-3.15.05,0,0-.25-.1-.15,0-.1L51,37.85l-1.65-.3-.4-3.5-.1-.25-.25-.15h-.25l-.25.15-2,2.85-2.85-1H43l-.2.2,0,0v.35m-4.15,15-1,3.15-1.35-.55h-.35L35.6,54v0a.42.42,0,0,0-.05.35l1,3.05h4.85l.7-1.8V55.2L41.8,55h-.3l-1.25.4-.85-4.15L39.25,51,39,50.9l-.3.1a.3.3,0,0,0-.15.25M55.05,27l-.3.05-.25.2v.45l.7,1.8h4.85l.9-3.1v-.35l-.25-.2h-.35L59,26.4l-1-3.15L57.85,23l-.3-.1-.3.15-.15.25-.8,4.1L55.05,27M60.5,44.2l-.25-.15L60,44l-.25.15-.1.25-.35,3.5-1.7.35-.25.1-.05.1,0,.2v.25h0l1.45,3.15h6l1.6-1,.15-.15,0-.15,0-.3-.3-.25-1.5-.4,1.2-3.15v-.35l-.05,0-.2-.2H65.3l-2.8,1-2-2.85M91.9,27.1l-.3.1-.15.25-1,3.15-1.35-.55h-.35a.3.3,0,0,0-.25.15v.05a.42.42,0,0,0,0,.35l1,3h4.85l.7-1.8V31.4l-.25-.2h-.3l-1.25.4-.85-4.15-.15-.25-.25-.1M120,35v70L60,140,0,105V35L60,0l60,35M84.55,79l-1,3.15L82.2,81.6h-.35a.3.3,0,0,0-.25.15v0a.42.42,0,0,0,0,.35l1,3h4.85l.7-1.8V83l-.25-.2h-.3l-1.25.4L85.4,79l-.15-.25-.25-.1-.3.1-.15.25M107.4,94.8l-.3.1-.15.25-1,3.15-1.35-.55h-.35l-.25.15v0a.42.42,0,0,0,0,.35l1,3h4.85l.7-1.8V99.1l-.25-.2h-.3l-1.25.4-.85-4.15-.15-.25-.25-.1M68.1,89v0l0,.35,1,3h4.85l.7-1.8V90.2L74.3,90H74l-1.25.4-.85-4.15L71.75,86l-.25-.1-.3.1-.15.25-1,3.15-1.35-.55h-.35a.3.3,0,0,0-.25.15m3.1,28.45-.1.25-.35,3.5-1.7.35-.25.1,0,.1,0,.2v.25h0l1.45,3.15h6l1.6-1,.15-.15,0-.15,0-.3-.3-.25-1.5-.4,1.2-3.15v-.35l0,0-.2-.2h-.35l-2.8,1-2-2.85a.3.3,0,0,0-.25-.15l-.25,0-.25.15m-9.7-12.9h-.35l-2.8,1-2-2.85a.3.3,0,0,0-.25-.15l-.25,0-.25.15-.1.25-.35,3.5-1.7.35-.25.1-.05.1,0,.2v.25h0l1.45,3.15h6l1.6-1,.15-.15,0-.15,0-.3-.3-.25-1.5-.4,1.2-3.15v-.35l0,0-.2-.2M44.1,113l-.25,0-.25.15-.1.25-.35,3.5-1.7.35-.25.1-.05.1,0,.2v.25h0L42.6,121h6l1.6-1,.15-.15,0-.15,0-.3-.3-.25-1.5-.4,1.2-3.15v-.35l0-.05-.2-.2h-.35l-2.8,1-2-2.85a.3.3,0,0,0-.25-.15m17.3,7-1.25.4-.85-4.15-.15-.25-.25-.1-.3.1-.15.25-1,3.15-1.35-.55h-.35a.3.3,0,0,0-.25.15v0l0,.35.95,3h4.85l.7-1.8v-.45l-.25-.2h-.3M26.55,59.15l-.3.1-.15.25-1,3.15-1.35-.55H23.4l-.25.15v0a.42.42,0,0,0,0,.35l.95,3.05H28.9l.7-1.8v-.45l-.25-.2h-.3l-1.25.4L27,59.5l-.15-.25-.25-.1M16.1,101.2l-2-2.85a.3.3,0,0,0-.25-.15l-.25,0-.25.15-.1.25-.35,3.5-1.7.35-.25.1,0,.1-.05.2v.25h.05l1.45,3.15h6l1.6-1,.15-.15,0-.15,0-.3-.3-.25-1.5-.4,1.2-3.15v-.35l-.05-.05-.2-.2H18.9l-2.8,1"/><path class="cls-2" d="M11.35,45.5l.25,0a.3.3,0,0,1,.25.15l2,2.85,2.8-1H17l.2.2.05,0v.35l-1.2,3.15,1.5.4.3.25,0,.3,0,.15-.15.15-1.6,1h-6L8.65,50.4H8.6v-.25l.05-.2,0-.1.25-.1,1.7-.35L11,45.9l.1-.25.25-.15"/><path class="cls-3" d="M42.7,36.25V35.9l0,0,.2-.2h.35l2.85,1,2-2.85.25-.15h.25l.25.15.1.25.4,3.5,1.65.3.25.15,0,.1.1.15,0,.25-.05,0L49.85,41.7h-6l-1.6-1.1-.1-.15-.1-.1.1-.35.25-.2L44,39.35l-1.25-3.1"/><path class="cls-4" d="M38.55,51.25A.3.3,0,0,1,38.7,51l.3-.1.25.1.15.25.85,4.15L41.5,55h.3l.25.2v.45l-.7,1.8H36.5l-1-3.05a.42.42,0,0,1,.05-.35v0l.25-.15h.35l1.35.55,1-3.15"/><path class="cls-5" d="M55.05,27l1.25.4.8-4.1.15-.25.3-.15.3.1.15.25,1,3.15,1.4-.55h.35l.25.2v.35l-.9,3.1H55.2l-.7-1.8v-.45l.25-.2.3-.05"/><path class="cls-6" d="M60.5,44.2l2,2.85,2.8-1h.35l.2.2.05,0v.35l-1.2,3.15,1.5.4.3.25,0,.3,0,.15-.15.15-1.6,1h-6L57.3,48.9h0v-.25l0-.2.05-.1.25-.1,1.7-.35.35-3.5.1-.25L60,44l.25,0,.25.15"/><path class="cls-7" d="M91.9,27.1l.25.1.15.25.85,4.15,1.25-.4h.3l.25.2v.45l-.7,1.8H89.4l-1-3a.42.42,0,0,1,0-.35V30.2a.3.3,0,0,1,.25-.15h.35l1.35.55,1-3.15.15-.25.3-.1"/><path class="cls-8" d="M84.55,79l.15-.25.3-.1.25.1.15.25.85,4.15,1.25-.4h.3l.25.2v.45l-.7,1.8H82.5l-1-3a.42.42,0,0,1,0-.35v0a.3.3,0,0,1,.25-.15h.35l1.35.55,1-3.15"/><path class="cls-9" d="M107.4,94.8l.25.1.15.25.85,4.15,1.25-.4h.3l.25.2v.45l-.7,1.8H104.9l-1-3a.42.42,0,0,1,0-.35v0l.25-.15h.35l1.35.55,1-3.15.15-.25.3-.1"/><path class="cls-10" d="M68.1,89a.3.3,0,0,1,.25-.15h.35l1.35.55,1-3.15L71.2,86l.3-.1.25.1.15.25.85,4.15L74,90h.3l.25.2v.45l-.7,1.8H69l-1-3,0-.35v0"/><path class="cls-11" d="M71.2,117.45l.25-.15.25,0a.3.3,0,0,1,.25.15l2,2.85,2.8-1h.35l.2.2,0,0v.35l-1.2,3.15,1.5.4.3.25,0,.3,0,.15-.15.15-1.6,1h-6l-1.45-3.15h0V122l0-.2,0-.1.25-.1,1.7-.35.35-3.5.1-.25"/><path class="cls-12" d="M61.5,104.55l.2.2,0,0v.35l-1.2,3.15,1.5.4.3.25,0,.3,0,.15-.15.15-1.6,1h-6l-1.45-3.15h0v-.25l0-.2.05-.1.25-.1,1.7-.35.35-3.5.1-.25.25-.15.25,0a.3.3,0,0,1,.25.15l2,2.85,2.8-1h.35"/><path class="cls-13" d="M44.1,113a.3.3,0,0,1,.25.15l2,2.85,2.8-1h.35l.2.2,0,.05v.35l-1.2,3.15,1.5.4.3.25,0,.3,0,.15-.15.15-1.6,1h-6l-1.45-3.15h0v-.25l0-.2.05-.1.25-.1,1.7-.35.35-3.5.1-.25.25-.15.25,0"/><path class="cls-14" d="M61.4,120h.3l.25.2v.45l-.7,1.8H56.4l-.95-3,0-.35v0a.3.3,0,0,1,.25-.15h.35l1.35.55,1-3.15.15-.25.3-.1.25.1.15.25.85,4.15,1.25-.4"/><path class="cls-15" d="M26.55,59.15l.25.1.15.25.85,4.15,1.25-.4h.3l.25.2v.45l-.7,1.8H24.05l-.95-3.05a.42.42,0,0,1,0-.35v0l.25-.15h.35l1.35.55,1-3.15.15-.25.3-.1"/><path class="cls-16" d="M16.1,101.2l2.8-1h.35l.2.2.05.05v.35l-1.2,3.15,1.5.4.3.25,0,.3,0,.15-.15.15-1.6,1h-6l-1.45-3.15h-.05v-.25l.05-.2,0-.1.25-.1,1.7-.35.35-3.5.1-.25.25-.15.25,0a.3.3,0,0,1,.25.15l2,2.85"/><path class="cls-17" d="M82.9,16.6l1.5-.05a2,2,0,0,1,1.15,1.05l9.1,19.75.15,1-.4,1-.4.4L95.2,43a1.85,1.85,0,0,1,0,1.35l2.3,2.8A2,2,0,0,1,98,48.25a2.07,2.07,0,0,1-.3,1.2l-1,.75L82.6,55.8l-1.3.1a2,2,0,0,1-1-.8l-6.8-9.6a1.77,1.77,0,0,1-.4-1.15,2,2,0,0,1,.35-1.15l1.5-2.15-1.1-1.6a1.73,1.73,0,0,1-.4-1.25,1.92,1.92,0,0,1,.5-1.2l1.95-2.2-.2-.7a1.54,1.54,0,0,1,.1-1l6.1-15.45a1.82,1.82,0,0,1,1.05-1.1M78.35,34.9,75.4,38.3l1.95,2.75-2.3,3.3,6.8,9.6,1.5-.55,0,0,12.65-5L92.35,44l1-.35L91.45,38.7l-.4.15,1.75-.7L83.7,18.4,77.6,33.85l.75,1,.25.3h0l-.2-.3"/><path class="cls-18" d="M78.35,34.9l.2.3h0L83,41.35v0L82.3,48l-5-6.9L75.4,38.3l2.95-3.4"/><path class="cls-19" d="M78.35,34.9l-.75-1L83.7,18.4l-.4,23.5,7.75-3,.4-.15,1.85,4.95-1,.35-9.7,3.8L81.85,54l-6.8-9.6,2.3-3.3,5,6.9L83,41.4v0L78.6,35.2l-.25-.3"/><path class="cls-20" d="M83.7,18.4l9.1,19.75-1.75.7-7.75,3,.4-23.5M92.35,44,96,48.35l-12.65,5,0,0-1.5.55.8-6.15,9.7-3.8"/><path class="cls-17" d="M86,39,41.85,18.4l-12.3,3.15L8.55,65.6l-2.2,4.65v-4.2l.2-.85,21.2-44.5a2.19,2.19,0,0,1,.55-.7,1.74,1.74,0,0,1,.75-.35l12.3-3.15,1.35.1L86.85,37.2l.85.75.25.65-2,.5V39"/><path class="cls-21" d="M86,39,73.75,42.15l-44.2-20.6,12.3-3.15L86,39M22.35,48.65,26,50.25l-2.1,4.1L20.4,52.7l2-4.05M35.8,43.9l-3.6,7-6-2.8,3.35-6.95,6.25,2.8m2.6,8.35-2.1,4.1L32.8,54.7l2-4.05,3.65,1.6"/><path class="cls-20" d="M38.4,52.25l-3.65-1.6-2,4.05,3.5,1.65,2.1-4.1M8.55,65.6l21-44,44.2,20.6-12.5,26.2-6.8-3.1-3.4-1.6L42.5,81.9,8.35,66.05l.2-.45M35.8,43.9l-6.25-2.8L26.2,48.05l6,2.8,3.6-7M22.35,48.65l-2,4.05,3.5,1.65,2.1-4.1-3.65-1.6"/><path class="cls-22" d="M64.1,81.25V66.7l9.65-20.25,9.7-2.9v14.7l-19.35,23m-13-13.6v12.2L45.1,87v-7.3l5.95-12"/><path class="cls-23" d="M51.05,67.65l-5.95,12V87l-2.6,3.1V81.9l8.55-18.25v4M86,39V55.25l-2.55,3V43.55l-9.7,2.9L64.1,66.7V81.25L61.25,84.6V68.35l12.5-26.2L86,39"/><path class="cls-24" d="M86,39.1l2-.5,0,.4V55.25a2,2,0,0,1-.45,1.3l-4.1,4.85V58.25l2.55-3V39.1M6.35,70.25l2.2-4.65-.2.45V74.2l3.5,1.65v2.2l-4.35-2-.8-.75a1.89,1.89,0,0,1-.35-1.1v-4M64.1,84.35,62.8,85.9a2.11,2.11,0,0,1-1.1.65l-1.3-.1-2.25-1V83.15l3.1,1.45,2.85-3.35v3.1m-19,5.7-1.05,1.3A2.11,2.11,0,0,1,43,92l-1.3-.1L37.8,90.1V87.85l4.7,2.2L45.1,87v3.1"/><path class="cls-25" d="M45.1,90.05V87l5.95-7.1,7.1,3.3V85.4L51.6,82.35l-6.5,7.7m19-8.8,19.35-23V61.4L64.1,84.35v-3.1M37.8,90.1l-25.95-12v-2.2l25.95,12V90.1"/><path class="cls-26" d="M58.15,83.15v-12l-7.1-3.5v-4l3.4,1.6,6.8,3.1V84.6l-3.1-1.45M37.8,87.85v-5.1L11.85,70.9v4.95L8.35,74.2V66.05L42.5,81.9v8.15l-4.7-2.2"/><path class="cls-27" d="M37.8,87.85l-25.95-12V70.9L37.8,82.75v5.1m13.25-20.2,7.1,3.5v12l-7.1-3.3V67.65"/><path class="cls-28" d="M70.25,69.9l.55-1.2.3-.45,17.25-20.5.65-.5.85-.2H96.1l.85.2,9.45,4.3.55.4,6.15,5.95.5.8L116,65.85l-1.5,1.8L111.7,59.3l-6.15-6L96.1,49.05H89.85L72.6,69.55l0,.15-2.3.2"/><path class="cls-29" d="M72.6,69.55l17.25-20.5H96.1L78.8,69.25l-6.2.3"/><path class="cls-30" d="M105.55,53.3l6.15,6L94.5,79.5l-6.25-5.65,17.3-20.55"/><path class="cls-31" d="M96.1,49.05l9.45,4.25L88.25,73.85l-9.45-4.6,17.3-20.2M111.7,59.3l2.75,8.35L97.15,87.9,94.5,79.5l17.2-20.2"/><path class="cls-32" d="M70.25,69.9l2.3-.2L69.9,75.25v12.1l7.85,3.5,11.6,5.4,7.8,3.8,17.3-20.25V67.65l1.5-1.8.4,1.2.1.6V79.8a2,2,0,0,1-.45,1.3L98.7,101.35a2.11,2.11,0,0,1-1.1.65l-1.3-.1L69.05,89.2l-.8-.75a1.89,1.89,0,0,1-.35-1.1V75.25l.2-.85,2.15-4.5"/><path class="cls-33" d="M97.15,87.9l17.3-20.25V79.8l-17.3,20.25V87.9m-7.8,8.35-11.6-5.4V82.2l11.6,5.45v8.6"/><path class="cls-34" d="M89.35,96.25v-8.6L77.75,82.2v8.65l-7.85-3.5V75.25l2.65-5.55,0-.15,6.2-.3,9.45,4.6L94.5,79.5l2.65,8.4v12.15l-7.8-3.8"/><path class="cls-24" d="M52,85.3l1.25.15L86.55,101a2,2,0,0,1,.9.8,2.15,2.15,0,0,1,.25,1.2,1.94,1.94,0,0,1-.45,1.1l-21,24.75-1.1.65-1.3-.15L30.5,113.75l-.85-.8a1.87,1.87,0,0,1,.2-2.3l21-24.7A1.87,1.87,0,0,1,52,85.3M82.1,107.05l3.6-4.25L52.35,87.25l-3.45,4-4.45,5.3L40,101.85,35.4,107.2l-4,4.75,33.35,15.6,4-4.65,4.5-5.3,4.5-5.3,4.45-5.25"/><path class="cls-35" d="M82.1,107.05l-4.45,5.25L44.45,96.6l4.45-5.3,33.2,15.75M73.15,117.6l-4.5,5.3L35.4,107.2,40,101.85l33.2,15.75"/><path class="cls-26" d="M73.15,117.6,40,101.85l4.5-5.25,33.2,15.7-4.5,5.3M48.9,91.3l3.45-4L85.7,102.8l-3.6,4.25L48.9,91.3m19.75,31.6-4,4.65L31.35,112l4-4.75,33.25,15.7"/><path class="cls-17" d="M57.4,92.8a5.1,5.1,0,0,0,1.75-1.1l.2-.15a4.53,4.53,0,0,0,1.15-3v-.85a49.92,49.92,0,0,0-1.35-12.5q-1.4-5.15-3.35-5.15t-3.3,5.15a48.37,48.37,0,0,0-1.4,12.5v.85a4.3,4.3,0,0,0,1.25,3l.15.15,1.75,1.1V94A1.54,1.54,0,0,0,55.8,95.5h.05a1.35,1.35,0,0,0,1-.45,1.44,1.44,0,0,0,.5-1.1V92.8m-6.8-.25a6,6,0,0,1-1.5-3.9v-.9a48.75,48.75,0,0,1,1.5-13q1.84-7.09,5.2-6.65,3.35-.5,5.3,6.65a52.21,52.21,0,0,1,1.4,13v.9a6.53,6.53,0,0,1-1.4,3.95l-.5.55h-.05l-1.15.9a3.21,3.21,0,0,1-1,2.35l-.15.15a3.51,3.51,0,0,1-2.4,1H55.8a3.38,3.38,0,0,1-2.5-1,3.48,3.48,0,0,1-1-2.45l-1.15-.9h0l-.55-.6"/><path class="cls-20" d="M54.25,92.8,52.5,91.7l-.15-.15a4.3,4.3,0,0,1-1.25-3v-.85a48.37,48.37,0,0,1,1.4-12.5q1.35-5.15,3.3-5.15t3.35,5.15a49.92,49.92,0,0,1,1.35,12.5v.85a4.53,4.53,0,0,1-1.15,3l-.2.15a5.1,5.1,0,0,1-1.75,1.1l-1.6.25-1.55-.25"/><path class="cls-36" d="M61.1,92.6a3.36,3.36,0,0,1,1.5,2.7,3.72,3.72,0,0,1-2,3.1,8.34,8.34,0,0,1-4.75,1.3,8.57,8.57,0,0,1-4.8-1.3,3.72,3.72,0,0,1-1.95-3.1,3.48,3.48,0,0,1,1.5-2.75l.55.6h0l1.15.9a3.48,3.48,0,0,0,1,2.45,3.38,3.38,0,0,0,2.5,1h.05a3.51,3.51,0,0,0,2.4-1l.15-.15a3.21,3.21,0,0,0,1-2.35l1.15-.9h.05l.5-.55"/><path class="cls-26" d="M57.4,92.8V94a1.44,1.44,0,0,1-.5,1.1,1.35,1.35,0,0,1-1,.45H55.8A1.54,1.54,0,0,1,54.25,94V92.8l1.55.25,1.6-.25"/><path class="cls-17" d="M74,100.8a5.1,5.1,0,0,0,1.75-1.1l.2-.15a4.53,4.53,0,0,0,1.15-3v-.85a49.92,49.92,0,0,0-1.35-12.5q-1.4-5.15-3.35-5.15t-3.3,5.15a48.37,48.37,0,0,0-1.4,12.5v.85a4.3,4.3,0,0,0,1.25,3l.15.15a4.34,4.34,0,0,0,1.75,1.1V102a1.54,1.54,0,0,0,1.55,1.55h0a1.35,1.35,0,0,0,1-.45A1.44,1.44,0,0,0,74,102V100.8m3.7-.2-.5.55h0l-1.15.9a3.21,3.21,0,0,1-1,2.35l-.15.15a3.51,3.51,0,0,1-2.4,1h0a3.38,3.38,0,0,1-2.5-1,3.48,3.48,0,0,1-1.05-2.45l-1.15-.9h0l-.55-.6a6,6,0,0,1-1.5-3.9v-.9a48.75,48.75,0,0,1,1.5-13Q69,75.66,72.4,76.1q3.34-.5,5.3,6.65a52.21,52.21,0,0,1,1.4,13v.9a6.53,6.53,0,0,1-1.4,3.95"/><path class="cls-20" d="M70.85,100.8a4.34,4.34,0,0,1-1.75-1.1L69,99.55a4.3,4.3,0,0,1-1.25-3v-.85a48.37,48.37,0,0,1,1.4-12.5q1.35-5.15,3.3-5.15t3.35,5.15a49.92,49.92,0,0,1,1.35,12.5v.85a4.53,4.53,0,0,1-1.15,3l-.2.15A5.1,5.1,0,0,1,74,100.8l-1.6.25-1.55-.25"/><path class="cls-36" d="M67.2,100.55l.55.6h0l1.15.9a3.48,3.48,0,0,0,1.05,2.45,3.38,3.38,0,0,0,2.5,1h0a3.51,3.51,0,0,0,2.4-1l.15-.15a3.21,3.21,0,0,0,1-2.35l1.15-.9h0l.5-.55a3.36,3.36,0,0,1,1.5,2.7,3.72,3.72,0,0,1-2,3.1,8.34,8.34,0,0,1-4.75,1.3,8.57,8.57,0,0,1-4.8-1.3,3.72,3.72,0,0,1-2-3.1,3.48,3.48,0,0,1,1.5-2.75"/><path class="cls-26" d="M74,100.8V102a1.44,1.44,0,0,1-.5,1.1,1.35,1.35,0,0,1-1,.45h0A1.54,1.54,0,0,1,70.85,102V100.8l1.55.25,1.6-.25"/><path class="cls-17" d="M46.4,106.3a5.1,5.1,0,0,0,1.75-1.1l.2-.15a4.53,4.53,0,0,0,1.15-3v-.85a49.92,49.92,0,0,0-1.35-12.5q-1.4-5.15-3.35-5.15t-3.3,5.15a48.37,48.37,0,0,0-1.4,12.5v.85a4.3,4.3,0,0,0,1.25,3l.15.15,1.75,1.1v1.15A1.54,1.54,0,0,0,44.8,109h.05a1.35,1.35,0,0,0,1-.45,1.44,1.44,0,0,0,.5-1.1V106.3m-6.8-.25a6,6,0,0,1-1.5-3.9v-.9a48.75,48.75,0,0,1,1.5-13q1.84-7.09,5.2-6.65,3.35-.5,5.3,6.65a52.21,52.21,0,0,1,1.4,13v.9a6.53,6.53,0,0,1-1.4,3.95l-.5.55h-.05l-1.15.9a3.21,3.21,0,0,1-1,2.35l-.15.15a3.51,3.51,0,0,1-2.4,1H44.8a3.38,3.38,0,0,1-2.5-1,3.48,3.48,0,0,1-1-2.45l-1.15-.9h0l-.55-.6"/><path class="cls-20" d="M43.25,106.3l-1.75-1.1-.15-.15a4.3,4.3,0,0,1-1.25-3v-.85a48.37,48.37,0,0,1,1.4-12.5q1.35-5.15,3.3-5.15t3.35,5.15a49.92,49.92,0,0,1,1.35,12.5v.85a4.53,4.53,0,0,1-1.15,3l-.2.15a5.1,5.1,0,0,1-1.75,1.1l-1.6.25-1.55-.25"/><path class="cls-36" d="M50.1,106.1a3.36,3.36,0,0,1,1.5,2.7,3.72,3.72,0,0,1-2,3.1,8.34,8.34,0,0,1-4.75,1.3,8.57,8.57,0,0,1-4.8-1.3,3.72,3.72,0,0,1-1.95-3.1,3.48,3.48,0,0,1,1.5-2.75l.55.6h0l1.15.9a3.48,3.48,0,0,0,1,2.45,3.38,3.38,0,0,0,2.5,1h.05a3.51,3.51,0,0,0,2.4-1l.15-.15a3.21,3.21,0,0,0,1-2.35l1.15-.9h.05l.5-.55"/><path class="cls-26" d="M46.4,106.3v1.15a1.44,1.44,0,0,1-.5,1.1,1.35,1.35,0,0,1-1,.45H44.8a1.54,1.54,0,0,1-1.55-1.55V106.3l1.55.25,1.6-.25"/><path class="cls-17" d="M56.2,114.05a6,6,0,0,1-1.5-3.9v-.9a48.75,48.75,0,0,1,1.5-13Q58,89.16,61.4,89.6q3.35-.5,5.3,6.65a52.21,52.21,0,0,1,1.4,13v.9a6.53,6.53,0,0,1-1.4,3.95l-.5.55h0l-1.15.9a3.21,3.21,0,0,1-1,2.35l-.15.15a3.51,3.51,0,0,1-2.4,1H61.4a3.38,3.38,0,0,1-2.5-1,3.48,3.48,0,0,1-1-2.45l-1.15-.9h0l-.55-.6m6.8.25a5.1,5.1,0,0,0,1.75-1.1l.2-.15a4.53,4.53,0,0,0,1.15-3v-.85a49.92,49.92,0,0,0-1.35-12.5Q63.36,91.6,61.4,91.6t-3.3,5.15a48.37,48.37,0,0,0-1.4,12.5v.85a4.3,4.3,0,0,0,1.25,3l.15.15a4.34,4.34,0,0,0,1.75,1.1v1.15A1.54,1.54,0,0,0,61.4,117h.05a1.35,1.35,0,0,0,1-.45,1.44,1.44,0,0,0,.5-1.1V114.3"/><path class="cls-20" d="M63,114.3l-1.6.25-1.55-.25a4.34,4.34,0,0,1-1.75-1.1l-.15-.15a4.3,4.3,0,0,1-1.25-3v-.85a48.37,48.37,0,0,1,1.4-12.5q1.35-5.15,3.3-5.15t3.35,5.15a49.92,49.92,0,0,1,1.35,12.5v.85a4.53,4.53,0,0,1-1.15,3l-.2.15A5.1,5.1,0,0,1,63,114.3"/><path class="cls-36" d="M66.7,114.1a3.36,3.36,0,0,1,1.5,2.7,3.72,3.72,0,0,1-2,3.1,8.34,8.34,0,0,1-4.75,1.3,8.57,8.57,0,0,1-4.8-1.3,3.72,3.72,0,0,1-1.95-3.1,3.48,3.48,0,0,1,1.5-2.75l.55.6h0l1.15.9a3.48,3.48,0,0,0,1,2.45,3.38,3.38,0,0,0,2.5,1h.05a3.51,3.51,0,0,0,2.4-1l.15-.15a3.21,3.21,0,0,0,1-2.35l1.15-.9h0l.5-.55"/><path class="cls-26" d="M63,114.3v1.15a1.44,1.44,0,0,1-.5,1.1,1.35,1.35,0,0,1-1,.45H61.4a1.54,1.54,0,0,1-1.55-1.55V114.3l1.55.25,1.6-.25"/></g></g></svg>