<svg xmlns="http://www.w3.org/2000/svg" viewBox="0 0 120 140"><defs><style>.cls-1{fill:#e5d5b2;}.cls-2{fill:#ecdcb8;}.cls-3{fill:#e0d1af;}.cls-4{fill:#727979;}.cls-5{fill:#e6f7f7;}.cls-6{fill:#a6b1b1;}.cls-7{fill:#d5e5e5;}.cls-8{fill:#b9c6c6;}.cls-9{fill:#855b30;}.cls-10{fill:#af783f;}.cls-11{fill:#bb8044;}.cls-12{fill:#cd8c4a;}.cls-13{fill:#f78256;}.cls-14{fill:#4a4f4f;}.cls-15{fill:#d26f49;}.cls-16{fill:#b6603f;}.cls-17{fill:#8e4124;}.cls-18{fill-opacity:0.1;}.cls-19{fill:#2bc46c;}.cls-20{fill:#1a7741;}.cls-21{fill:#27ae60;}</style></defs><title>Asset 102</title><g id="Layer_2" data-name="Layer 2"><g id="Layer_1-2" data-name="Layer 1"><path class="cls-1" d="M62.55,17.85A44.83,44.83,0,0,0,65.9,10.5L85.85,22.15l-2.8.9,0,.05A38.37,38.37,0,0,0,60,38.75a51.77,51.77,0,0,0-6.8,14.3,44.24,44.24,0,0,1-2.4,7.05l-2,3.95Q40.95,77.6,23,83.15l.05,0A39.28,39.28,0,0,0,6,91.9v-22l.85-3A60.49,60.49,0,0,1,9.5,60.1q8.4-18.49,27.55-23.25l0-.05q15.11-4.69,23-15l2.6-3.9M48.3,19l4.35-.7.7,4.35L49,23.3,48.3,19m30.55,24.5-3.15-.4.4-3.15,3.2.45-.45,3.1M78.55,33l4-1.85,1.75,4L80.3,37l-1.75-4m18.55,3.9,0-.05a61.49,61.49,0,0,0,8.35-3.25l5.65,3.3h0A5.83,5.83,0,0,1,114,42v8.7l-.8,2.35a39,39,0,0,1-2.4,7.05l-2,3.95Q101,77.6,83.05,83.15l0,0A38.43,38.43,0,0,0,60,98.8a51.69,51.69,0,0,0-6.8,14.35,42.65,42.65,0,0,1-2.4,7l-2,3.95-1,1.7-30.3-17.65A39,39,0,0,1,37.05,97l0,0q15.11-4.7,23-15.05l2.6-3.9A43.55,43.55,0,0,0,67,67a53.62,53.62,0,0,1,2.6-6.85Q78,41.61,97.1,36.85m-87,12-.85-2.1,2-.9L12.1,48l-2,.95M13.6,44,10.85,40.2l3.75-2.8,2.85,3.75L13.6,44m7.85-3-2.6-3.25,3.25-2.6,2.55,3.25L21.45,41m9.7,48.9-1,4.05-4-1,1-4,4,.95m3.75-8.2,6.6,3.55-3.6,6.65-6.55-3.5,3.55-6.7m77.6-2.85L106,78.05l.75-6.6,6.55.8-.75,6.55M91.4,86.05,90.15,89l-2.9-1.2,1.2-3,3,1.25M97.1,97l0,0a49.44,49.44,0,0,0,17-8.8v10a5.89,5.89,0,0,1-.8,3,6.35,6.35,0,0,1-2.2,2.2h0L66.3,129.3,67,127a53.62,53.62,0,0,1,2.6-6.85Q78,101.7,97.1,97M87.25,95.5l0-4.55h4.6V95.5H87.25M58,72l1,7-7.1,1.1-1-7L58,72m.85-10.5V66H54.25l0-4.55h4.6m18,30L83,93.9,80.5,100l-6.15-2.4,2.45-6.15m-13.5,14.3-1.15,2-1.9-1,1-2,2,1m1.45,16.85-4,1.85-1.75-4,4-1.85,1.75,4"/><path class="cls-2" d="M64.75,122.6l-1.75-4-4,1.85,1.75,4,4-1.85M62.55,17.85,60,21.75q-7.85,10.35-23,15l0,.05Q17.9,41.61,9.5,60.1A60.49,60.49,0,0,0,6.85,67L6,69.9v22a39.28,39.28,0,0,1,17-8.7l-.05,0q18-5.55,25.8-19.1l2-3.95a44.24,44.24,0,0,0,2.4-7.05A51.77,51.77,0,0,1,60,38.75,38.37,38.37,0,0,1,83.1,23.1l0-.05,2.8-.9L65.9,10.5a44.83,44.83,0,0,1-3.35,7.35M48.3,19,49,23.3l4.35-.7-.7-4.35L48.3,19M18.35,24.3l27.5-16h0L60,0l60,35v70L60,140,0,105V35L17.25,25l.05-.05h.05l1-.6M78.55,33l1.75,4,4-1.85-1.75-4-4,1.85m.3,10.5.45-3.1-3.2-.45-.4,3.15,3.15.4m18.25-6.6Q77.94,41.61,69.55,60.1A53.62,53.62,0,0,0,67,67a43.55,43.55,0,0,1-4.4,11L60,81.85Q52.11,92.2,37,96.9l0,0a39,39,0,0,0-19.6,11.2l30.3,17.65,1-1.7,2-3.95a42.65,42.65,0,0,0,2.4-7A51.69,51.69,0,0,1,60,98.8,38.43,38.43,0,0,1,83.1,83.2l0,0q18-5.55,25.75-19.1l2-3.95a39,39,0,0,0,2.4-7.05l.8-2.35V42a5.83,5.83,0,0,0-3-5.15h0l-5.65-3.3a61.49,61.49,0,0,1-8.35,3.25l0,.05m-5.7,49.2-3-1.25-1.2,3,2.9,1.2,1.25-2.9m21.1-7.25.75-6.55-6.55-.8-.75,6.6,6.55.75M34.9,81.65l-3.55,6.7,6.55,3.5,3.6-6.65-6.6-3.55m-3.75,8.2-4-.95-1,4,4,1,1-4.05M21.45,41l3.2-2.6L22.1,35.1l-3.25,2.6L21.45,41M13.6,44l3.85-2.8L14.6,37.4l-3.75,2.8L13.6,44M10.1,48.9l2-.95-.85-2.05-2,.9.85,2.1M97.1,97q-19.15,4.76-27.55,23.2A53.62,53.62,0,0,0,67,127l-.65,2.3,44.75-26.1h0a6.35,6.35,0,0,0,2.2-2.2,5.89,5.89,0,0,0,.8-3v-10a49.44,49.44,0,0,1-17,8.8l0,0m-33.8,8.8-2-1-1,2,1.9,1,1.15-2m13.5-14.3L74.35,97.6,80.5,100,83,93.9,76.8,91.45m-18-30H54.2l0,4.55H58.8V61.45M58,72l-7.1,1.1,1,7L59,79l-1-7M87.25,95.5H91.8V91H87.2l0,4.55"/><path class="cls-3" d="M17.3,24.9l1.05-.6-1,.6H17.3"/><path class="cls-4" d="M54.85,48.8,56.2,49,79.05,59.9l.65.5,4.3,5A2.1,2.1,0,0,1,84,68L66.55,88.65a2.11,2.11,0,0,1-1.1.65l-1.3-.15-27.75-13-.85-.75a2,2,0,0,1-.3-1.05,1.89,1.89,0,0,1,.35-1.1l4.3-6.45.1-.15L53.75,49.5a2,2,0,0,1,1.1-.7m23.3,12.9-1.35-.65L55.3,50.75,42.3,67l-.75.9-4.3,6.45L65,87.35,82.45,66.7l-4.3-5"/><path class="cls-5" d="M78.15,61.7,64,78.4,41.55,67.9l.75-.9,21.3,9.6L76.8,61.05l1.35.65"/><path class="cls-6" d="M78.15,61.7l4.3,5L65,87.35,64,78.4,78.15,61.7"/><path class="cls-7" d="M76.8,61.05,63.6,76.6,42.3,67l13-16.25,21.5,10.3"/><path class="cls-8" d="M41.55,67.9,64,78.4l1,8.95-27.75-13,4.3-6.45"/><path class="cls-9" d="M61,39.8,59,28.5l-4.1-.1-4.8.85-4.6,1.5L45,35.85l7,6.65L61,39.8M49.7,27.3l4.8-.85.4-.05,4.1.1a1.82,1.82,0,0,1,1.25.5,2,2,0,0,1,.7,1.15l2,11.3a2,2,0,0,1-.3,1.4l-1.1.9-8.9,2.7h-1l-.9-.5L43.65,37.3l-.5-.75L43,35.7l.45-5.1a1.79,1.79,0,0,1,.45-1.1l1-.65,4.6-1.5.25-.05"/><path class="cls-10" d="M54.85,28.4l4.1.1,2,11.3L55.7,33.05l-.85-4.65M45,35.85l.45-5.1,4.6-1.5-.1,1-5,5.6"/><path class="cls-11" d="M45,35.85l5-5.6.1-1,4.8-.85.85,4.65-2.1.65-1.55,8.8-7-6.65"/><path class="cls-12" d="M61,39.8l-8.9,2.7,1.55-8.8,2.1-.65L61,39.8"/><path class="cls-13" d="M51.15,57,57,50.2l2.75,1.3,8.35,3.9-5.8,6.8L51.15,57"/><path class="cls-6" d="M51.15,57l-.85,2.85-1.15-2.8,13.9-16.4v7L59.7,51.5,57,50.2,51.15,57m-4.1,3-4.4,5.2V62.8L47,57.7l.65,1.55-.6.7m37.4-9.3v7.2L72.55,71.9l-2-4.85,13.9-16.4M68.45,70l-4.4,5.2V72.8l4.35-5.1.65,1.55-.6.7"/><path class="cls-4" d="M68.45,70l4.1,2,11.9-14.05v-7.2l-8.9-4.15L73,49.6l-8.3-3.9-1.6,1.9v-7l-8.9-4.15L40.3,52.9l2,4.85.5.2-3,3.55v2.35l2.85,1.3,4.4-5.2,1.6.75L45.75,65l-1.45,1.4-.1.1a2.11,2.11,0,0,1-1.1.65L41.85,67,39,65.7,38.15,65a1.89,1.89,0,0,1-.35-1.1V61.5a1.89,1.89,0,0,1,.5-1.3L40.2,58,38.45,53.7a2.08,2.08,0,0,1-.1-1.1,1.66,1.66,0,0,1,.45-1L52.65,35.2a1.87,1.87,0,0,1,1.1-.65L55,34.7l8.9,4.15.85.75.3,1v3.1l.45.15,6.9,3.25,1.65-1.9a1.75,1.75,0,0,1,1.1-.7l1.25.15,8.9,4.15.85.75.3,1v7.2a2,2,0,0,1-.45,1.3L74.1,73.2a2.11,2.11,0,0,1-1.1.65l-1.3-.15L69,72.4l-3.4,4-1.1.65L63.25,77,60.4,75.7,59.55,75a1.89,1.89,0,0,1-.35-1.1v-.4l2,.4,2.85,1.3,4.4-5.2"/><path class="cls-8" d="M68.45,70l.6-.7L68.4,67.7l-2.85-1.35-.85,1L63.65,66.1l-.8-.4-1.2-2.8,8.9,4.15,2,4.85-4.1-2m-.4-14.55L59.7,51.5l3.35-3.9,1.6-1.9L73,49.6l-4.9,5.8m-18.9,1.65,1.15,2.8-.8-.4-.85,1.25L47.05,60l.6-.7L47,57.7l-2.85-1.35L42.8,58l-.5-.2-2-4.85,8.85,4.15"/><path class="cls-7" d="M49.15,57.05,40.3,52.9,54.15,36.5l8.9,4.15-13.9,16.4m13.1,5.15,5.8-6.8L73,49.6l2.6-3.1,8.9,4.15-13.9,16.4-8.9-4.15.6-.7M39.8,61.5l3-3.55,1.35-1.6L47,57.7l-4.35,5.1L39.8,61.5m24.9,5.85.85-1L68.4,67.7l-4.35,5.1L61.2,71.5l2.45-2.9,1.05-1.25"/><path class="cls-14" d="M42.65,65.15l-2.85-1.3V61.5l2.85,1.3v2.35m21.4,10-2.85-1.3V71.5l2.85,1.3v2.35"/><path class="cls-15" d="M51.15,57l11.1,5.2-.6.7,1.2,2.8.8.4v2.5L61.2,71.5v.7L45.75,65l2.9-4.25.85-1.25.8.4L51.15,57"/><path class="cls-16" d="M63.65,66.1l1.05,1.25L63.65,68.6V66.1"/><path class="cls-17" d="M59.2,73.45l-14.3-6.7-.6-.4L45.75,65,61.2,72.2v1.65l-2-.4"/><path class="cls-4" d="M19,56.1V47.9l.25-.95L20,45.7V41.4l-1.4,1.65a2.11,2.11,0,0,1-1.1.65l-1.3-.1-3.9-1.8-.8-.75A1.89,1.89,0,0,1,11.1,40V37.5a1.89,1.89,0,0,1,.5-1.3l4.65-5.5a1.87,1.87,0,0,1,1.1-.65l1,.05,2.1-2.45L21,27.2l1-.55.9-.25,1,.2,2.3,1.1.7.6.5.65a1.83,1.83,0,0,1,.4,1.2V45l.6.8a2,2,0,0,1,.35,1.15v8.35a2,2,0,0,1-.45,1.3l-2.2,2.6-.65.5L25,59.8l-1.3-.15L20.15,58a2.09,2.09,0,0,1-.8-.7A1.89,1.89,0,0,1,19,56.2v-.1m5.5,1.75,2.2-2.6V46.9l-.95-1.35V30.15l-.5-.65L23,28.4,22,29l-3.05,3.6L17.75,32,13.1,37.5V40l3.9,1.8L22,36V46.2L21,47.9v8.3l3.5,1.65"/><path class="cls-6" d="M24.5,57.85v-8.3l-.2-2.3V31.85L22,34.6V36L17,41.75,13.1,40V37.5L17,39.3l4.65-5.5-.4-.15L24.3,30,22,29l1-.55,2.3,1.1.5.65v15.4l.95,1.35v8.35l-2.2,2.6"/><path class="cls-7" d="M22,29,24.3,30l-3.05,3.65.4.15L17,39.3l-3.9-1.8L17.75,32l1.15.55L22,29m2.35,18.3.2,2.3L21,47.9,22,46.2l2.35,1"/><path class="cls-8" d="M24.3,47.25,22,46.2V34.6l2.35-2.75v15.4m.2,2.3v8.3L21,56.2V47.9l3.5,1.65"/><path class="cls-18" d="M25.4,59.65l-5.75,6.8-6.55-3.4L19,56.1v.1a1.89,1.89,0,0,0,.35,1.1,2.09,2.09,0,0,0,.8.7l3.5,1.65,1.3.15.45-.15"/><path class="cls-4" d="M103,98.1l-.45.15-1.3-.15-3.5-1.65-.8-.7a1.89,1.89,0,0,1-.35-1.1v-8.3l.25-.95.7-1.25v-4.3L96.1,81.5a2.11,2.11,0,0,1-1.1.65l-1.3-.1-3.9-1.8a2.51,2.51,0,0,1-.8-.75,1.89,1.89,0,0,1-.35-1.1V76a1.89,1.89,0,0,1,.5-1.3l4.65-5.5a1.87,1.87,0,0,1,1.1-.65l1,0L98,66.1a1.8,1.8,0,0,1,.55-.45l1-.55a1.65,1.65,0,0,1,.9-.25l1,.2,2.3,1.1.7.6.5.65a1.83,1.83,0,0,1,.4,1.2V83.4l.6.8a2,2,0,0,1,.35,1.15V93.7a2,2,0,0,1-.45,1.3l-2.2,2.6-.65.5m-.9-1.8,2.2-2.6V85.35l-1-1.35V68.6l-.5-.65-2.3-1.1-1,.55-3,3.6-1.15-.55L90.65,76V78.4l3.9,1.8,5-5.75v10.2l-1,1.7v8.3l3.5,1.65"/><path class="cls-6" d="M99.5,67.4l1-.55,2.3,1.1.5.65V84l1,1.35V93.7l-2.2,2.6V88l-.2-2.3V70.3L99.5,73.05v1.4l-5,5.75-3.9-1.8V76l3.9,1.8,4.65-5.5-.4-.15,3-3.65-2.35-1"/><path class="cls-7" d="M99.5,67.4l2.35,1-3,3.65.4.15-4.65,5.5L90.65,76l4.65-5.5,1.15.55,3-3.6m-1,18.95,1-1.7,2.35,1,.2,2.3-3.5-1.65"/><path class="cls-8" d="M98.55,86.35l3.5,1.65v8.3l-3.5-1.65v-8.3m1-1.7V73.05l2.35-2.75V85.7l-2.35-1"/><path class="cls-18" d="M103,98.1l-5.75,6.8-6.55-3.4,5.9-7v.1a1.89,1.89,0,0,0,.35,1.1l.8.7,3.5,1.65,1.3.15.45-.15"/><path class="cls-18" d="M58.6,112.6q0-2.05,2.55-3.55a12.22,12.22,0,0,1,6.15-1.45,12.22,12.22,0,0,1,6.15,1.45Q76,110.55,76,112.6c0,1.37-.85,2.53-2.55,3.5a11.93,11.93,0,0,1-6.15,1.5,11.93,11.93,0,0,1-6.15-1.5c-1.7-1-2.55-2.13-2.55-3.5"/><path class="cls-19" d="M63.6,105.65h-.45a4.27,4.27,0,0,1-4.35-4.35V96.05a2,2,0,0,1,.6-1.5,2.05,2.05,0,0,1,2.9,0,2,2,0,0,1,.6,1.5v5.25l.1.15v0l.15,0,.45,0H64a2,2,0,0,1,1.45.6,1.91,1.91,0,0,1,.65,1.45,2,2,0,0,1-.6,1.45,1.91,1.91,0,0,1-1.45.65H63.6"/><path class="cls-20" d="M63.6,105.65v4.9a1.88,1.88,0,0,0,1,1.6,4.43,4.43,0,0,0,2.45.65,4.35,4.35,0,0,0,2.4-.65,1.88,1.88,0,0,0,1-1.6V102.9h.85a4.16,4.16,0,0,0,3-1.25h.05a4.34,4.34,0,0,0,1.25-3.1v-5.3a2.05,2.05,0,0,0-3.5-1.45,1.91,1.91,0,0,0-.65,1.45v5.3l0,.15-.15.1-.85,0v-9.2a3.27,3.27,0,0,0-1-2.4,3.21,3.21,0,0,0-2.4-1.05,3.5,3.5,0,0,0-3.45,3.45v12l-.45,0-.15,0v0l-.1-.15V96.05a2,2,0,0,0-.6-1.5,2.05,2.05,0,0,0-2.9,0,2,2,0,0,0-.6,1.5v5.25a4.27,4.27,0,0,0,4.35,4.35h.45M58,93.15A3.8,3.8,0,0,1,60.85,92l.6,0,.15,0v-2.5a5.11,5.11,0,0,1,1.55-3.75l.05,0a5.18,5.18,0,0,1,3.85-1.65,5.12,5.12,0,0,1,3.85,1.7v0a5.14,5.14,0,0,1,1.55,3.5h.75l.4,0a4,4,0,0,1,2.9,1.2,3.87,3.87,0,0,1,1.15,2.85v5.3a6.33,6.33,0,0,1-1.8,4.5l-.25.25a6.41,6.41,0,0,1-3.15,1.5v5.75a3.67,3.67,0,0,1-1.9,3.3,6.27,6.27,0,0,1-3.5,1,6.37,6.37,0,0,1-3.55-1,3.67,3.67,0,0,1-1.9-3.3v-3a6.1,6.1,0,0,1-2.9-1.65l-.1,0a6.33,6.33,0,0,1-1.8-4.5V96.05a3.85,3.85,0,0,1,1.2-2.9"/><path class="cls-21" d="M63.6,105.65h.45A1.91,1.91,0,0,0,65.5,105a2,2,0,0,0,.6-1.45,1.91,1.91,0,0,0-.65-1.45,2,2,0,0,0-1.45-.6h-.4v-12a3.5,3.5,0,0,1,3.45-3.45,3.21,3.21,0,0,1,2.4,1.05,3.27,3.27,0,0,1,1,2.4v9.2l.85,0,.15-.1,0-.15v-5.3a1.91,1.91,0,0,1,.65-1.45,2.05,2.05,0,0,1,3.5,1.45v5.3a4.34,4.34,0,0,1-1.25,3.1h-.05a4.16,4.16,0,0,1-3,1.25h-.85v7.65a1.88,1.88,0,0,1-1,1.6,4.35,4.35,0,0,1-2.4.65,4.43,4.43,0,0,1-2.45-.65,1.88,1.88,0,0,1-1-1.6v-4.9"/></g></g></svg>