<svg xmlns="http://www.w3.org/2000/svg" viewBox="0 0 120 140"><defs><style>.cls-1{fill:#a4afaf;}.cls-2{fill:#9ba6a6;}.cls-3{fill:#a9b6b6;}.cls-4{fill:#20628e;}.cls-5{fill:#37a6f0;}.cls-6{fill:#2b84bf;}.cls-7{fill:#333;}.cls-8{fill:#bbe4f3;}.cls-9{fill:#c4f0ff;}.cls-10{fill:#3196d9;}.cls-11{fill:#9c4f32;}.cls-12{fill:#ec7c51;}.cls-13{fill:#bb5f3c;}.cls-14{fill:#d26f49;}.cls-15{fill:#166b3a;}.cls-16{fill:#1e8a4b;}.cls-17{fill:#27ae60;}.cls-18{fill:#239f57;}.cls-19{fill:#727979;}.cls-20{fill:#a6b1b1;}.cls-21{fill:#b9c6c6;}.cls-22{fill:#d5e5e5;}.cls-23{fill-opacity:0.1;}</style></defs><title>Asset 95</title><g id="Layer_2" data-name="Layer 2"><g id="Layer_1-2" data-name="Layer 1"><path class="cls-1" d="M18.5,78.85,12.6,76.1,8.9,80.45l5.9,2.75,3.7-4.35m18-39.6,5.85-6.85-9.3-4.3-5.8,6.8,9.25,4.35m22.4-24.8,5.9,2.75,3.7-4.35L62.6,10.1l-3.7,4.35M26.2,69.35l-5.8,6.8,9.25,4.35,5.85-6.85-9.3-4.3m1.05-4.7L18,60.35l-5.8,6.8L21.4,71.5l5.85-6.85M47,105.6l-5.9-2.75-3.7,4.35L43.3,110,47,105.6M61.65,63.7l5.9,2.75,3.7-4.35-5.9-2.75-3.7,4.35m-30.75,0,5.9,2.75,3.7-4.35-5.9-2.75L30.9,63.7M0,35,60,0l60,35v70L60,140,0,105V35m88.35-9.4L84.65,30l5.9,2.75,3.7-4.35-5.9-2.75M96.8,37.45l3.7-4.35-5.9-2.75L90.9,34.7l5.9,2.75m-23.65-.3L82.4,41.5l5.85-6.85L79,30.35l-5.8,6.8M100.5,65l-5.9-2.75L90.9,66.6l5.9,2.75L100.5,65m2.65,1.6,5.9,2.75,3.7-4.35-5.9-2.75-3.7,4.35M77.4,97.15l9.25,4.35,5.85-6.85-9.3-4.3-5.8,6.8M74.65,76.1l5.85-6.85L71.2,65l-5.8,6.8,9.25,4.35M37.4,116l5.9,2.75,3.7-4.35-5.9-2.75L37.4,116M98.9,102.6c-2-.9-3.93-1.82-5.9-2.75l-3.7,4.35L95.2,107l3.7-4.35m-14.25,3-5.9-2.75-3.7,4.35L81,110l3.7-4.35M23.4,114.3l5.9,2.75L33,112.7,27.1,110l-3.7,4.35"/><path class="cls-2" d="M23.4,114.3,27.1,110,33,112.7l-3.7,4.35-5.9-2.75M58.9,14.45l3.7-4.35,5.9,2.75L64.8,17.2l-5.9-2.75M36.5,39.25,27.25,34.9l5.8-6.8,9.3,4.3L36.5,39.25m-18,39.6L14.8,83.2,8.9,80.45l3.7-4.35,5.9,2.75M61.65,63.7l3.7-4.35,5.9,2.75-3.7,4.35-5.9-2.75M47,105.6,43.3,110l-5.9-2.75,3.7-4.35L47,105.6m41.35-80,5.9,2.75-3.7,4.35L84.65,30l3.7-4.35M100.5,65l-3.7,4.35L90.9,66.6l3.7-4.35L100.5,65M74.65,76.1,65.4,71.75,71.2,65l9.3,4.3L74.65,76.1M77.4,97.15l5.8-6.8,9.3,4.3-5.85,6.85L77.4,97.15"/><path class="cls-3" d="M27.25,64.65,21.4,71.5l-9.25-4.35,5.8-6.8,9.3,4.3m-1.05,4.7,9.3,4.3L29.65,80.5,20.4,76.15l5.8-6.8m4.7-5.65,3.7-4.35,5.9,2.75-3.7,4.35L30.9,63.7M73.15,37.15l5.8-6.8,9.3,4.3L82.4,41.5l-9.25-4.35m23.65.3L90.9,34.7l3.7-4.35,5.9,2.75-3.7,4.35m6.35,29.15,3.7-4.35,5.9,2.75-3.7,4.35-5.9-2.75m-18.5,39L81,110l-5.9-2.75,3.7-4.35,5.9,2.75m14.25-3L95.2,107l-5.9-2.75L93,99.85c2,.93,3.93,1.85,5.9,2.75M37.4,116l3.7-4.35,5.9,2.75-3.7,4.35L37.4,116"/><path class="cls-4" d="M38.2,53.25l1.85-2.15a1.5,1.5,0,0,0,.4,1.15c.3.17.63,0,1-.35a5.09,5.09,0,0,0,1-1.8,6.48,6.48,0,0,0,.4-2.15V47.9l5.35-6.2c0,.6.18,1,.45,1.15s.58,0,1-.35a4.58,4.58,0,0,0,1-1.75A6.48,6.48,0,0,0,51,38.6v-.15l.9-1V32.8l-9.6-4.45L39.75,30.6l-2-1.05L32.5,35.7l-1.1,4.2-3.1,4.65v4.3l9.9,4.4m1.25-25L41,26.85a1.72,1.72,0,0,1,1-.45l1.1.15L52.75,31l.85.75.3,1v4.65a2.07,2.07,0,0,1-.5,1.35l-.4.45-.5,2.15A7.28,7.28,0,0,1,51.05,44l.05-.1q-1.65,1.8-3,1l-3.25,3.8-.5,2a6.8,6.8,0,0,1-1.4,2.5q-1.61,1.7-3,1l-.2.25-1.1.65-1.25-.1-9.9-4.4L26.65,50a1.89,1.89,0,0,1-.35-1.1v-4.3a1.89,1.89,0,0,1,.35-1.1l3-4.4,1-3.85.4-.8,5.2-6.15a1.87,1.87,0,0,1,1.1-.65l1.3.2.85.4"/><path class="cls-5" d="M32.5,35.7l5.2-6.15,2,1.05,2.55-2.25,9.6,4.45-2.5,3-1.95-1.35-2.65,3.1-2.35,2.7-10-4.55m-4.2,8.85,3.1-4.65,9.8,4.35-3,4.85-9.9-4.55"/><path class="cls-6" d="M44.8,37.55l2.65-3.1L49.4,35.8l2.5-3v4.65l-.9,1c0-.6-.13-1-.4-1.15s-.6,0-1,.4a5,5,0,0,0-1,1.75,5.92,5.92,0,0,0-.45,2.15v.1l-5.35,6.2c0-.63-.13-1-.4-1.2s-.6-.05-1,.35a6.3,6.3,0,0,0-1.4,3.9v.15L38.2,53.25V49.1l3-4.85,3.6-3.6v-3.1"/><path class="cls-7" d="M51,38.45v.15a6.48,6.48,0,0,1-.4,2.15,4.58,4.58,0,0,1-1,1.75c-.37.4-.68.52-1,.35s-.42-.55-.45-1.15v-.1a5.92,5.92,0,0,1,.45-2.15,5,5,0,0,1,1-1.75c.4-.43.73-.57,1-.4s.4.55.4,1.15M42.85,47.9V48a6.48,6.48,0,0,1-.4,2.15,5.09,5.09,0,0,1-1,1.8c-.37.4-.7.52-1,.35a1.5,1.5,0,0,1-.4-1.15V51a6.3,6.3,0,0,1,1.4-3.9c.4-.4.73-.52,1-.35s.4.57.4,1.2"/><path class="cls-8" d="M42.45,40.25l2.35-2.7v3.1l-3.6,3.6,1.25-4"/><path class="cls-9" d="M42.45,40.25l-1.25,4L31.4,39.9l1.1-4.2,10,4.55"/><path class="cls-10" d="M38.2,53.25l-9.9-4.4v-4.3l9.9,4.55v4.15"/><path class="cls-11" d="M49.35,52.8l3.75-4.2L54,44a2,2,0,0,1,.45-1l4.1-4.8a1.87,1.87,0,0,1,1.1-.65l1.25.15.5.25,2.05-2a1.63,1.63,0,0,1,1-.5l1.2.15,10,4.9.8.75.3,1v5.7a2,2,0,0,1-.45,1.3l-1.1,1.3-.5,2.1a6.8,6.8,0,0,1-1.4,2.5q-1.65,1.8-3,1.05l-3.25,3.8-.5,2.05v.1L65.2,64.6l0,.05c-1,1.2-2,1.57-3,1.1l-1.1.6-1.25-.15L50,61.45l-.85-.75a2,2,0,0,1-.3-1.05V54.1a1.89,1.89,0,0,1,.5-1.3m25.4-10.4-10-4.9-3,2.85-1.7-.8L56,44.35,55,49.5l-4.1,4.6v5.55L60.7,64.4l1.55-1.8c0,.57.17.92.4,1s.63.08,1-.35l1-1.75a6.48,6.48,0,0,0,.4-2.15v0l5.35-6.2c0,.6.18,1,.45,1.15s.58.05,1-.35a5.09,5.09,0,0,0,1-1.8A6.48,6.48,0,0,0,73.2,50v-.1l1.55-1.8V42.4"/><path class="cls-12" d="M74.75,42.4l-2.9,2.75-1.55-.9L68.2,46.7l-2.15,2.4L56,44.35l4.1-4.8,1.7.8,3-2.85,10,4.9M50.85,54.1,55,49.5l9.85,4.85L60.7,59,50.85,54.1"/><path class="cls-9" d="M55,49.5l1-5.15,10.1,4.75L64.8,54.35,55,49.5"/><path class="cls-13" d="M74.75,42.4v5.7L73.2,49.9c0-.6-.13-1-.4-1.15s-.6,0-1,.35a5.73,5.73,0,0,0-1,1.75,6.3,6.3,0,0,0-.45,2.2v.1l-5.35,6.2c0-.63-.13-1-.4-1.2s-.63,0-1,.35a5.53,5.53,0,0,0-1,1.75,6.48,6.48,0,0,0-.4,2.15v.2L60.7,64.4V59l4.1-4.6L68.2,51V46.7l2.1-2.45,1.55.9,2.9-2.75"/><path class="cls-8" d="M66.05,49.1l2.15-2.4V51l-3.4,3.4,1.25-5.25"/><path class="cls-7" d="M73.2,49.9V50a6.48,6.48,0,0,1-.4,2.15,5.09,5.09,0,0,1-1,1.8c-.37.4-.68.52-1,.35s-.42-.55-.45-1.15v-.1a6.3,6.3,0,0,1,.45-2.2,5.73,5.73,0,0,1,1-1.75c.4-.4.73-.52,1-.35s.4.55.4,1.15m-8.15,9.45v0a6.48,6.48,0,0,1-.4,2.15l-1,1.75c-.37.43-.7.55-1,.35s-.37-.48-.4-1v-.2a6.48,6.48,0,0,1,.4-2.15,5.53,5.53,0,0,1,1-1.75c.37-.4.7-.52,1-.35s.4.57.4,1.2"/><path class="cls-14" d="M60.7,64.4l-9.85-4.75V54.1L60.7,59V64.4"/><path class="cls-15" d="M104.55,53.7l10,4.35a1.82,1.82,0,0,1,.9.7l.3,1.1v6.7l-.45,1.3-.5.6-.5,2.3a7.28,7.28,0,0,1-1.45,2.55l.05-.1q-1.65,1.8-3,1l-3.3,3.9-.45,1.95v.1l-1.35,2.35,0,0c-1,1.1-2,1.47-2.85,1.1l-.3.35-1.15.65-1.25-.15-10-4.75a2,2,0,0,1-.85-.7,2.09,2.09,0,0,1-.3-1.1V73.5a1.89,1.89,0,0,1,.35-1.1l2.65-4.1,1.15-4,.4-.75,5.5-6.2.3-.25,4.1-3.2a1.63,1.63,0,0,1,1-.4l1,.15m8.25,14,1-1.15v-6.7l-10-4.35-4.1,3.2-5.5,6.2L93,69.15,90.1,73.5V78l10,4.75,1.8-2.1a1.21,1.21,0,0,0,.4.95c.3.17.63.05,1-.35l1-1.8a6.39,6.39,0,0,0,.4-2.1L110,71q0,.94.45,1.2c.27.17.58,0,1-.35a4.58,4.58,0,0,0,1-1.75,6.48,6.48,0,0,0,.4-2.15V67.7"/><path class="cls-16" d="M112.8,67.7a1.36,1.36,0,0,0-.4-1c-.27-.17-.6,0-1,.4a5,5,0,0,0-1,1.75A5.92,5.92,0,0,0,110,71v0l-5.35,6.35v0c0-.67-.13-1.08-.4-1.25s-.63,0-1,.35a6.45,6.45,0,0,0-1,1.75,6.62,6.62,0,0,0-.4,2.2v.3l-1.8,2.1v-4.5l2.85-4.1,3.15-3.4V67.4l3.7-4.2,4-3.35v6.7l-1,1.15"/><path class="cls-17" d="M113.75,59.85l-4,3.35-3.7,4.2-2,2.35L94.15,64.9l5.5-6.2,4.1-3.2,10,4.35M102.9,74.15l-2.85,4.1-10-4.75L93,69.15l10,5"/><path class="cls-7" d="M110,71v0a5.92,5.92,0,0,1,.45-2.15,5,5,0,0,1,1-1.75c.4-.43.73-.57,1-.4a1.36,1.36,0,0,1,.4,1V68a6.48,6.48,0,0,1-.4,2.15,4.58,4.58,0,0,1-1,1.75c-.37.4-.68.52-1,.35S110,71.63,110,71m-8.15,9.65v-.3a6.62,6.62,0,0,1,.4-2.2,6.45,6.45,0,0,1,1-1.75c.37-.4.7-.52,1-.35s.4.58.4,1.25v0a6.39,6.39,0,0,1-.4,2.1l-1,1.8c-.37.4-.7.52-1,.35a1.21,1.21,0,0,1-.4-.95"/><path class="cls-8" d="M106.05,67.4v3.35l-3.15,3.4,1.1-4.4,2-2.35"/><path class="cls-9" d="M104,69.75l-1.1,4.4-10-5,1.2-4.25L104,69.75"/><path class="cls-18" d="M100.05,78.25v4.5L90.1,78V73.5l10,4.75"/><path class="cls-19" d="M81.75,58.15V50A1.9,1.9,0,0,1,82,49l.7-1.25v-4.3L81.3,45.1a2.11,2.11,0,0,1-1.1.65l-1.3-.1L75,43.85l-.8-.75a1.89,1.89,0,0,1-.35-1.1V39.55a1.89,1.89,0,0,1,.5-1.3L79,32.75a1.87,1.87,0,0,1,1.1-.65l1,0,2.1-2.45a1.8,1.8,0,0,1,.55-.45l1-.55.9-.25.95.2,2.3,1.1.7.6.5.65a1.83,1.83,0,0,1,.4,1.2V47l.6.8A2,2,0,0,1,91.45,49V57.3A2,2,0,0,1,91,58.6l-2.2,2.6-.65.5-.45.15-1.3-.15-3.5-1.65-.8-.7a1.89,1.89,0,0,1-.35-1.1v-.1m5.5,1.75,2.2-2.6V49l-1-1.35V32.2l-.5-.65-2.3-1.1-1,.55-3,3.6-1.15-.55-4.65,5.5V42l3.9,1.8,5-5.75v10.2l-1,1.7v8.3l3.5,1.65"/><path class="cls-20" d="M87.25,59.9V51.6l-.2-2.3V33.9L84.7,36.65v1.4l-5,5.75L75.85,42V39.55l3.9,1.8,4.65-5.5L84,35.7l3-3.65L84.7,31l1-.55,2.3,1.1.5.65V47.6l1,1.35V57.3l-2.2,2.6"/><path class="cls-21" d="M87.25,59.9l-3.5-1.65V50l3.5,1.65v8.3M84.7,48.25V36.65l2.35-2.75V49.3l-2.35-1"/><path class="cls-22" d="M84.7,48.25l2.35,1,.2,2.3L83.75,50l1-1.7m-8.85-8.7,4.65-5.5,1.15.55,3-3.6,2.35,1L84,35.7l.4.15-4.65,5.5-3.9-1.8"/><path class="cls-23" d="M88.15,61.7,82.4,68.5l-6.55-3.4,5.9-6.95v.1a1.89,1.89,0,0,0,.35,1.1l.8.7,3.5,1.65,1.3.15.45-.15"/><path class="cls-11" d="M66.85,104.7a2,2,0,0,1-.3-1V98.1a1.89,1.89,0,0,1,.5-1.3l3.75-4.2.9-4.6a2,2,0,0,1,.45-1l4.1-4.8a1.87,1.87,0,0,1,1.1-.65l1.25.15.5.25,2.05-2a1.63,1.63,0,0,1,1-.5l1.2.15,9.95,4.9a2,2,0,0,1,.8.75l.3,1.05v5.7A2,2,0,0,1,94,93.4l-1.1,1.3-.5,2.1A6.8,6.8,0,0,1,91,99.3q-1.65,1.8-3,1l-3.25,3.8-.5,2v.1l-1.35,2.3-.05.05c-1,1.2-2,1.57-2.95,1.1l-1.1.6-1.25-.15-9.85-4.75-.85-.75m1.7-6.6v5.55l9.85,4.75L80,106.6c0,.57.17.92.4,1.05s.63.08,1-.35l1-1.75a6.48,6.48,0,0,0,.4-2.15v-.05l5.35-6.2c0,.6.18,1,.45,1.15s.58,0,1-.35a5.09,5.09,0,0,0,1-1.8A6.48,6.48,0,0,0,90.9,94v-.1l1.55-1.8V86.4l-10-4.9-3,2.85-1.7-.8-4.1,4.8-1,5.15-4.1,4.6"/><path class="cls-14" d="M68.55,98.1,78.4,103v5.45l-9.85-4.75V98.1"/><path class="cls-13" d="M92.45,86.4v5.7L90.9,93.9c0-.6-.13-1-.4-1.15s-.6,0-1,.35a5.73,5.73,0,0,0-1,1.75,6.3,6.3,0,0,0-.45,2.2v.1l-5.35,6.2c0-.63-.13-1-.4-1.2s-.63-.05-1,.35a5.53,5.53,0,0,0-1,1.75,6.48,6.48,0,0,0-.4,2.15v.2l-1.55,1.8V103l4.1-4.6L85.9,95V90.7L88,88.25l1.55.9,2.9-2.75"/><path class="cls-7" d="M90.9,93.9V94a6.48,6.48,0,0,1-.4,2.15,5.09,5.09,0,0,1-1,1.8c-.37.4-.68.52-1,.35s-.42-.55-.45-1.15v-.1a6.3,6.3,0,0,1,.45-2.2,5.73,5.73,0,0,1,1-1.75c.4-.4.73-.52,1-.35s.4.55.4,1.15m-8.15,9.45v.05a6.48,6.48,0,0,1-.4,2.15l-1,1.75c-.37.43-.7.55-1,.35s-.37-.48-.4-1.05v-.2a6.48,6.48,0,0,1,.4-2.15,5.53,5.53,0,0,1,1-1.75c.37-.4.7-.52,1-.35s.4.57.4,1.2"/><path class="cls-12" d="M68.55,98.1l4.1-4.6,9.85,4.85L78.4,103,68.55,98.1m5.1-9.75,4.1-4.8,1.7.8,3-2.85,10,4.9-2.9,2.75L88,88.25,85.9,90.7l-2.15,2.4-10.1-4.75"/><path class="cls-8" d="M83.75,93.1l2.15-2.4V95l-3.4,3.4,1.25-5.25"/><path class="cls-9" d="M83.75,93.1,82.5,98.35,72.65,93.5l1-5.15,10.1,4.75"/><path class="cls-15" d="M57,73.15l4.1-3.2a1.63,1.63,0,0,1,1-.4l1,.15,10,4.35.9.7.3,1.1v6.7l-.45,1.3-.5.6-.5,2.3a7.28,7.28,0,0,1-1.45,2.55l.05-.1q-1.65,1.8-3,1l-3.3,3.9-.45,1.95v.1L63.3,98.55l0,0c-1,1.1-2,1.47-2.85,1.1l-.3.35a2.38,2.38,0,0,1-1.15.65l-1.25-.15-10-4.75-.85-.7a2.09,2.09,0,0,1-.3-1.1V89.5A1.89,1.89,0,0,1,47,88.4l2.65-4.1,1.15-4,.4-.75,5.5-6.2.3-.25m15.3,2.7-10-4.35-4.1,3.2-5.5,6.2-1.2,4.25L48.6,89.5V94l9.95,4.75,1.8-2.1a1.21,1.21,0,0,0,.4.95c.3.17.63.05,1-.35l1-1.8a6.39,6.39,0,0,0,.4-2.1L68.5,87q0,.94.45,1.2c.27.17.58,0,1-.35a4.58,4.58,0,0,0,1-1.75A6.48,6.48,0,0,0,71.3,84V83.7l1-1.15v-6.7"/><path class="cls-17" d="M72.25,75.85l-4,3.35-3.7,4.2-2,2.35L52.65,80.9l5.5-6.2,4.1-3.2,10,4.35M48.6,89.5l2.85-4.35,9.95,5-2.85,4.1L48.6,89.5"/><path class="cls-18" d="M58.55,98.75,48.6,94V89.5l9.95,4.75v4.5"/><path class="cls-16" d="M58.55,98.75v-4.5l2.85-4.1,3.15-3.4V83.4l3.7-4.2,4-3.35v6.7l-1,1.15a1.36,1.36,0,0,0-.4-1c-.27-.17-.6,0-1,.4a5,5,0,0,0-1,1.75A5.92,5.92,0,0,0,68.5,87v0l-5.35,6.35v0c0-.67-.13-1.08-.4-1.25s-.63,0-1,.35a6.45,6.45,0,0,0-1,1.75,6.62,6.62,0,0,0-.4,2.2v.3l-1.8,2.1"/><path class="cls-7" d="M71.3,83.7V84a6.48,6.48,0,0,1-.4,2.15,4.58,4.58,0,0,1-1,1.75c-.37.4-.68.52-1,.35s-.42-.57-.45-1.2v0A5.92,5.92,0,0,1,69,84.8a5,5,0,0,1,1-1.75c.4-.43.73-.57,1-.4a1.36,1.36,0,0,1,.4,1m-8.15,9.65a6.39,6.39,0,0,1-.4,2.1l-1,1.8c-.37.4-.7.52-1,.35a1.21,1.21,0,0,1-.4-.95v-.3a6.62,6.62,0,0,1,.4-2.2,6.45,6.45,0,0,1,1-1.75c.37-.4.7-.52,1-.35s.4.58.4,1.25v0"/><path class="cls-8" d="M62.5,85.75l2-2.35v3.35l-3.15,3.4,1.1-4.4"/><path class="cls-9" d="M62.5,85.75l-1.1,4.4-9.95-5,1.2-4.25,9.85,4.85"/><path class="cls-15" d="M13.1,52.05l4.1-3.2a1.63,1.63,0,0,1,.95-.4l1.05.15L29.2,53a1.82,1.82,0,0,1,.9.7l.3,1.1v6.7L30,62.75l-.5.6-.5,2.3A7.28,7.28,0,0,1,27.5,68.2l.05-.1q-1.65,1.8-3,1.05l-3.3,3.9-.45,2v.1l-1.35,2.35-.05,0c-1,1.1-1.95,1.47-2.85,1.1l-.3.35-1.15.65-1.25-.15L3.9,74.7,3.05,74a2.09,2.09,0,0,1-.3-1.1V68.4a1.89,1.89,0,0,1,.35-1.1l2.65-4.1,1.15-4,.4-.75,5.5-6.2.3-.25m15.3,2.7-10-4.35-4.1,3.2L8.8,59.8,7.6,64.05,4.75,68.4v4.5l10,4.75,1.8-2.1a1.21,1.21,0,0,0,.4,1c.3.17.63,0,1-.35l1-1.8a6.39,6.39,0,0,0,.4-2.1l5.35-6.35q0,.94.45,1.2c.27.17.58.05.95-.35a4.58,4.58,0,0,0,1-1.75,6.48,6.48,0,0,0,.4-2.15V62.6l.95-1.15v-6.7"/><path class="cls-17" d="M28.4,54.75l-4,3.35-3.7,4.2-2.05,2.35L8.8,59.8l5.5-6.2,4.1-3.2,10,4.35M4.75,68.4,7.6,64.05l10,5-2.85,4.1L4.75,68.4"/><path class="cls-16" d="M28.4,54.75v6.7l-.95,1.15a1.36,1.36,0,0,0-.4-1.05c-.27-.17-.6,0-1,.4a5,5,0,0,0-.95,1.75,5.92,5.92,0,0,0-.45,2.15v.05L19.3,72.25v0c0-.67-.13-1.08-.4-1.25s-.63,0-1,.35a6.45,6.45,0,0,0-1,1.75,6.62,6.62,0,0,0-.4,2.2v.3l-1.8,2.1v-4.5l2.85-4.1,3.15-3.4V62.3l3.7-4.2,4-3.35"/><path class="cls-7" d="M27.45,62.6v.25a6.48,6.48,0,0,1-.4,2.15,4.58,4.58,0,0,1-1,1.75c-.37.4-.68.52-.95.35s-.42-.57-.45-1.2v-.05a5.92,5.92,0,0,1,.45-2.15A5,5,0,0,1,26.05,62c.4-.43.73-.57,1-.4a1.36,1.36,0,0,1,.4,1.05M19.3,72.25a6.39,6.39,0,0,1-.4,2.1l-1,1.8c-.37.4-.7.52-1,.35a1.21,1.21,0,0,1-.4-1v-.3a6.62,6.62,0,0,1,.4-2.2,6.45,6.45,0,0,1,1-1.75c.37-.4.7-.52,1-.35s.4.58.4,1.25v0"/><path class="cls-8" d="M18.65,64.65,20.7,62.3v3.35l-3.15,3.4,1.1-4.4"/><path class="cls-18" d="M14.7,77.65,4.75,72.9V68.4l10,4.75v4.5"/><path class="cls-9" d="M7.6,64.05,8.8,59.8l9.85,4.85-1.1,4.4-10-5"/></g></g></svg>