<svg xmlns="http://www.w3.org/2000/svg" viewBox="0 0 120 140"><defs><style>.cls-1{fill:#ecdcb8;}.cls-2{fill:#e5d5b2;}.cls-3{fill:#e0d1af;}.cls-4{fill:#837965;}.cls-5{fill:#d4ccc3;}.cls-6{fill:#e5dcd2;}.cls-7{fill:#b6aa8e;}.cls-8{fill:#bdb6ae;}.cls-9{fill:#d4c6a5;}.cls-10{fill-opacity:0.1;}.cls-11{fill:#1a7741;}.cls-12{fill:#27ae60;}.cls-13{fill:#2bc46c;}</style></defs><title>Asset 57</title><g id="Layer_2" data-name="Layer 2"><g id="Layer_1-2" data-name="Layer 1"><path class="cls-1" d="M18.35,24.3l27.5-16h0L60,0l60,35v70L60,140,0,105V35L17.25,25l.05-.05h.05l1-.6m87.05,9.25a61.49,61.49,0,0,1-8.35,3.25l0,.05Q77.94,41.61,69.55,60.1A53.62,53.62,0,0,0,67,67a43.55,43.55,0,0,1-4.4,11L60,81.85Q52.11,92.2,37,96.9l0,0a39,39,0,0,0-19.6,11.2l30.3,17.65,1-1.7,2-3.95a42.65,42.65,0,0,0,2.4-7A51.69,51.69,0,0,1,60,98.8,38.43,38.43,0,0,1,83.1,83.2l0,0q18-5.55,25.75-19.1l2-3.95a39,39,0,0,0,2.4-7.05l.8-2.35V42a5.83,5.83,0,0,0-3-5.15h0l-5.65-3.3m7.85,38.7-6.55-.8-.75,6.6,6.55.75.75-6.55M114,88.1a49.44,49.44,0,0,1-17,8.8l0,0q-19.15,4.76-27.55,23.2A53.62,53.62,0,0,0,67,127l-.65,2.3,44.75-26.1h0a6.35,6.35,0,0,0,2.2-2.2,5.89,5.89,0,0,0,.8-3v-10m-30.95-65,2.8-.9L65.9,10.5a44.83,44.83,0,0,1-3.35,7.35L60,21.75q-7.85,10.35-23,15l0,.05Q17.9,41.61,9.5,60.1A60.49,60.49,0,0,0,6.85,67L6,69.9v22a39.28,39.28,0,0,1,17-8.7l-.05,0q18-5.55,25.8-19.1l2-3.95a44.24,44.24,0,0,0,2.4-7.05A51.77,51.77,0,0,1,60,38.75,38.37,38.37,0,0,1,83.1,23.1l0-.05M11.25,45.9l-2,.9.85,2.1,2-.95-.85-2.05M22.1,35.1l-3.25,2.6L21.45,41l3.2-2.6L22.1,35.1m-4.65,6L14.6,37.4l-3.75,2.8L13.6,44l3.85-2.8M63,118.6l-4,1.85,1.75,4,4-1.85-1.75-4M91.4,86.05l-3-1.25-1.2,3,2.9,1.2,1.25-2.9M87.25,95.5H91.8V91H87.2l0,4.55M80.5,100,83,93.9,76.8,91.45,74.35,97.6,80.5,100m-17.2,5.75-2-1-1,2,1.9,1,1.15-2M37.9,91.85l3.6-6.65-6.6-3.55-3.55,6.7,6.55,3.5m-6.75-2-4-.95-1,4,4,1,1-4.05m19.7-16.8,1,7L59,79l-1-7-7.1,1.1m7.95-7V61.45H54.2l0,4.55H58.8M48.3,19,49,23.3l4.35-.7-.7-4.35L48.3,19m31,21.4-3.2-.45-.4,3.15,3.15.4.45-3.1m3.25-9.25-4,1.85,1.75,4,4-1.85-1.75-4"/><path class="cls-2" d="M82.55,31.1l1.75,4L80.3,37l-1.75-4,4-1.85m22.85,2.45,5.65,3.3h0A5.83,5.83,0,0,1,114,42v8.7l-.8,2.35a39,39,0,0,1-2.4,7.05l-2,3.95Q101,77.6,83.05,83.15l0,0A38.43,38.43,0,0,0,60,98.8a51.69,51.69,0,0,0-6.8,14.35,42.65,42.65,0,0,1-2.4,7l-2,3.95-1,1.7-30.3-17.65A39,39,0,0,1,37.05,97l0,0q15.11-4.7,23-15.05l2.6-3.9A43.55,43.55,0,0,0,67,67a53.62,53.62,0,0,1,2.6-6.85Q78,41.61,97.1,36.85l0-.05a61.49,61.49,0,0,0,8.35-3.25m7.85,38.7-.75,6.55L106,78.05l.75-6.6,6.55.8m-30.2-49.2,0,.05A38.37,38.37,0,0,0,60,38.75a51.77,51.77,0,0,0-6.8,14.3,44.24,44.24,0,0,1-2.4,7.05l-2,3.95Q40.95,77.6,23,83.15l.05,0A39.28,39.28,0,0,0,6,91.9v-22l.85-3A60.49,60.49,0,0,1,9.5,60.1q8.4-18.49,27.55-23.25l0-.05q15.11-4.69,23-15l2.6-3.9A44.83,44.83,0,0,0,65.9,10.5L85.85,22.15l-2.8.9M114,88.1v10a5.89,5.89,0,0,1-.8,3,6.35,6.35,0,0,1-2.2,2.2h0L66.3,129.3,67,127a53.62,53.62,0,0,1,2.6-6.85Q78,101.7,97.1,97l0,0a49.44,49.44,0,0,0,17-8.8M79.3,40.35l-.45,3.1-3.15-.4.4-3.15,3.2.45M48.3,19l4.35-.7.7,4.35L49,23.3,48.3,19M58.8,66H54.25l0-4.55h4.6V66m-7.95,7L58,72l1,7-7.1,1.1-1-7m-19.7,16.8-1,4.05-4-1,1-4,4,.95m6.75,2-6.55-3.5,3.55-6.7,6.6,3.55-3.6,6.65m25.4,13.9-1.15,2-1.9-1,1-2,2,1M80.5,100l-6.15-2.4,2.45-6.15L83,93.9,80.5,100m6.75-4.5,0-4.55h4.6V95.5H87.25m4.15-9.45L90.15,89l-2.9-1.2,1.2-3,3,1.25M63,118.6l1.75,4-4,1.85-1.75-4,4-1.85M17.45,41.15,13.6,44,10.85,40.2l3.75-2.8,2.85,3.75m4.65-6,2.55,3.25L21.45,41l-2.6-3.25,3.25-2.6M11.25,45.9,12.1,48l-2,.95-.85-2.1,2-.9"/><path class="cls-3" d="M17.3,24.9l1.05-.6-1,.6H17.3"/><path class="cls-4" d="M74.65,36.9,69.9,34.6l-2.8-2.25L65.9,33.6v1.65l2.2,3.35,3.35,2.65-2.85,5.2V48.7l3,1.55,7.5-3.35,1.3-1.5,3.9.55,2.8-1.05,1-.85V42.5l-2.2-.4-3.2-1.6v-2L75.9,35.4l-1.25,1.5m-.25-2.75a1.75,1.75,0,0,1,1-.7l1.3.15,6.7,3,.85.75.3,1.05v.8l1.9,1,1.85.35a1.87,1.87,0,0,1,1.2.7A1.92,1.92,0,0,1,90,42.5v1.55l-.15.85-.5.65-.95.85-.65.4L85,47.85,84,48l-2.85-.4-.6.65-.65.55L72.4,52.1l-.9.15-.85-.2-3-1.55-.8-.75a2,2,0,0,1-.3-1V46.45a1.9,1.9,0,0,1,.25-1l2.05-3.7-2.05-1.6-.4-.5-2.2-3.35a1.89,1.89,0,0,1-.35-1.1V33.6a1.83,1.83,0,0,1,.55-1.35L65.65,31A1.93,1.93,0,0,1,67,30.35a1.88,1.88,0,0,1,1.35.45L71,32.9l3.2,1.55.25-.3"/><path class="cls-2" d="M65.9,33.6l1.2-1.25,2.8,2.25,4.75,2.3L72.5,39.45l-4.4-3L65.9,33.6m16.7,6.9,3.2,1.6,2.2.4-1,1.2-2.8.35-5.2-1.7L81.3,39.9l1.3.6"/><path class="cls-5" d="M82.6,40.5l-1.3-.6,1.3-1.45v2m-2.25,4.9-1.3,1.5-7.5,3.35v-2l7.5-5.85V45.2l1.3.2"/><path class="cls-6" d="M72.5,39.45l2.15-2.55,1.25-1.5,6.7,3.05L81.3,39.9l-2.25,2.45-7.5,5.85-3-1.75,2.85-5.2,1-1.8"/><path class="cls-7" d="M72.5,39.45l-1,1.8L68.1,38.6l-2.2-3.35V33.6l2.2,2.85,4.4,3M87.05,44.9,84.25,46l-3.9-.55-1.3-.2V42.35l5.2,1.7,2.8-.35v1.2"/><path class="cls-8" d="M71.55,50.25l-3-1.55V46.45l3,1.75v2"/><path class="cls-9" d="M88,42.5v1.55l-1,.85V43.7l1-1.2"/><path class="cls-10" d="M36.7,104.2a3.19,3.19,0,0,1,0-6,9.72,9.72,0,0,1,5-1.25,9.72,9.72,0,0,1,5,1.25,3.19,3.19,0,0,1,0,6,9.72,9.72,0,0,1-5,1.25,9.72,9.72,0,0,1-5-1.25"/><path class="cls-11" d="M46.2,76.9h.5a3.3,3.3,0,0,1,2.4,1,3.43,3.43,0,0,1,1,2.45v3.95A5.15,5.15,0,0,1,48.65,88l-.2.2a5.14,5.14,0,0,1-2.2,1.2v9.7a3.22,3.22,0,0,1-1.5,2.85l-.15.1a5.53,5.53,0,0,1-2.85.7,5.27,5.27,0,0,1-2.8-.7l-.1,0a3.21,3.21,0,0,1-1.65-2.9V95.3l-2-1.2h0a5.11,5.11,0,0,1-1.55-3.75V86.5A3.38,3.38,0,0,1,34.7,84l.1-.1a3.41,3.41,0,0,1,2.35-.9h.05V77.7a4.61,4.61,0,0,1,4.55-4.55A4.42,4.42,0,0,1,45,74.5v0a4.61,4.61,0,0,1,1.2,2.35m-7,16.65V99.1a1.43,1.43,0,0,0,.75,1.2,3.44,3.44,0,0,0,1.8.45l1.8-.45a1.43,1.43,0,0,0,.7-1.2V87.55h.65a3.08,3.08,0,0,0,2.25-1h.05a3.15,3.15,0,0,0,.9-2.25V80.4a1.54,1.54,0,0,0-1.5-1.5,1.5,1.5,0,0,0-1.1.45,1.44,1.44,0,0,0-.45,1.05v3.95l0,.1-.1,0-.65,0V77.7a2.53,2.53,0,0,0-.7-1.8,2.55,2.55,0,0,0-4.35,1.8V90.5l-.35,0-.1,0v0l0-.1V86.5a1.55,1.55,0,0,0-.45-1.15,1.59,1.59,0,0,0-1.1-.4,1.52,1.52,0,0,0-1,.4,1.55,1.55,0,0,0-.45,1.15v3.85a3.16,3.16,0,0,0,3.2,3.2h.35"/><path class="cls-12" d="M39.2,93.55h.35a1.44,1.44,0,0,0,1.05-.45,1.5,1.5,0,0,0,.45-1.1,1.38,1.38,0,0,0-.5-1,1.35,1.35,0,0,0-1-.45h-.3V77.7a2.55,2.55,0,0,1,4.35-1.8,2.53,2.53,0,0,1,.7,1.8v6.75l.65,0,.1,0,0-.1V80.4a1.44,1.44,0,0,1,.45-1.05,1.5,1.5,0,0,1,1.1-.45,1.54,1.54,0,0,1,1.5,1.5v3.95a3.15,3.15,0,0,1-.9,2.25h-.05a3.08,3.08,0,0,1-2.25,1h-.65V99.1a1.43,1.43,0,0,1-.7,1.2l-1.8.45a3.44,3.44,0,0,1-1.8-.45,1.43,1.43,0,0,1-.75-1.2V93.55"/><path class="cls-13" d="M39.2,93.55h-.35a3.16,3.16,0,0,1-3.2-3.2V86.5a1.55,1.55,0,0,1,.45-1.15,1.52,1.52,0,0,1,1-.4,1.59,1.59,0,0,1,1.1.4,1.55,1.55,0,0,1,.45,1.15v3.85l0,.1v0l.1,0,.35,0h.3a1.35,1.35,0,0,1,1,.45,1.38,1.38,0,0,1,.5,1,1.5,1.5,0,0,1-.45,1.1,1.44,1.44,0,0,1-1.05.45H39.2"/><path class="cls-10" d="M32.3,78.2a11.93,11.93,0,0,1-6.15,1.5A11.93,11.93,0,0,1,20,78.2c-1.7-1-2.55-2.13-2.55-3.5s.85-2.55,2.55-3.55a12.22,12.22,0,0,1,6.15-1.45,12.22,12.22,0,0,1,6.15,1.45q2.55,1.5,2.55,3.55c0,1.37-.85,2.53-2.55,3.5"/><path class="cls-11" d="M22.45,63.6l-.45,0-.15,0v-.05l-.1-.15V58.15a2,2,0,0,0-.6-1.5,2.05,2.05,0,0,0-2.9,0,2,2,0,0,0-.6,1.5V63.4A4.27,4.27,0,0,0,22,67.75h.45v4.9a1.88,1.88,0,0,0,1,1.6,4.43,4.43,0,0,0,2.45.65,4.35,4.35,0,0,0,2.4-.65,1.88,1.88,0,0,0,1-1.6V65h.85a4.16,4.16,0,0,0,3.05-1.25h0a4.34,4.34,0,0,0,1.25-3.1v-5.3A2.05,2.05,0,0,0,31,53.9a1.91,1.91,0,0,0-.65,1.45v5.3l-.05.15-.15.1-.85,0v-9.2a3.27,3.27,0,0,0-1-2.4,3.21,3.21,0,0,0-2.4-1,3.5,3.5,0,0,0-3.45,3.45v12m9.6-12.25.4-.05a4,4,0,0,1,2.9,1.2,3.87,3.87,0,0,1,1.15,2.85v5.3a6.33,6.33,0,0,1-1.8,4.5l-.25.25a6.41,6.41,0,0,1-3.15,1.5v5.75A3.67,3.67,0,0,1,29.4,76a6.27,6.27,0,0,1-3.5,1,6.37,6.37,0,0,1-3.55-1,3.67,3.67,0,0,1-1.9-3.3V69.6A6.1,6.1,0,0,1,17.55,68l-.1,0a6.33,6.33,0,0,1-1.8-4.5V58.15a3.85,3.85,0,0,1,1.2-2.9,3.8,3.8,0,0,1,2.85-1.2l.6.05.15,0v-2.5A5.11,5.11,0,0,1,22,47.9l.05,0A5.18,5.18,0,0,1,25.9,46.2a5.12,5.12,0,0,1,3.85,1.7v0a5.14,5.14,0,0,1,1.55,3.5h.75"/><path class="cls-12" d="M22.45,63.6v-12A3.5,3.5,0,0,1,25.9,48.2a3.21,3.21,0,0,1,2.4,1,3.27,3.27,0,0,1,1,2.4v9.2l.85,0,.15-.1.05-.15v-5.3A1.91,1.91,0,0,1,31,53.9a2.05,2.05,0,0,1,3.5,1.45v5.3a4.34,4.34,0,0,1-1.25,3.1h0A4.16,4.16,0,0,1,30.15,65H29.3v7.65a1.88,1.88,0,0,1-1,1.6,4.35,4.35,0,0,1-2.4.65,4.43,4.43,0,0,1-2.45-.65,1.88,1.88,0,0,1-1-1.6v-4.9h.45a1.91,1.91,0,0,0,1.45-.65,2,2,0,0,0,.6-1.45,1.91,1.91,0,0,0-.65-1.45,2,2,0,0,0-1.45-.6h-.4"/><path class="cls-13" d="M22.45,63.6h.4a2,2,0,0,1,1.45.6A1.91,1.91,0,0,1,25,65.65a2,2,0,0,1-.6,1.45,1.91,1.91,0,0,1-1.45.65H22a4.27,4.27,0,0,1-4.35-4.35V58.15a2,2,0,0,1,.6-1.5,2.05,2.05,0,0,1,2.9,0,2,2,0,0,1,.6,1.5V63.4l.1.15v.05l.15,0,.45,0"/></g></g></svg>