<svg xmlns="http://www.w3.org/2000/svg" viewBox="0 0 120 140"><defs><style>.cls-1{fill:#a4afaf;}.cls-2{fill:#9ba6a6;}.cls-3{fill:#a9b6b6;}.cls-4{fill:#115f32;}.cls-5{fill:#168344;}.cls-6{fill:#1b914d;}.cls-7{fill:#10773c;}.cls-8{fill:#8c8a88;}.cls-9{fill:#c2bebb;}.cls-10{fill:#b4b1ae;}.cls-11{fill:#f3f3f3;}.cls-12{fill:#e2dfdc;}.cls-13{fill:#d2cfcc;}.cls-14{fill:#eeebe8;}.cls-15{fill:#a3a19e;}.cls-16{fill:#236c9c;}.cls-17{fill:#54bbff;}.cls-18{fill:#359fe5;}.cls-19{fill:#2e8bc9;}.cls-20{fill:#727979;}.cls-21{fill:#a6b1b1;}.cls-22{fill:#d5e5e5;}.cls-23{fill:#b9c6c6;}.cls-24{fill-opacity:0.1;}</style></defs><title>Asset 103</title><g id="Layer_2" data-name="Layer 2"><g id="Layer_1-2" data-name="Layer 1"><path class="cls-1" d="M88.35,25.6,84.65,30l5.9,2.75,3.7-4.35-5.9-2.75m12.15,7.5-5.9-2.75L90.9,34.7l5.9,2.75,3.7-4.35m-27.35,4L82.4,41.5l5.85-6.85L79,30.35l-5.8,6.8M58.9,14.45l5.9,2.75,3.7-4.35L62.6,10.1l-3.7,4.35M36.5,39.25l5.85-6.85-9.3-4.3-5.8,6.8,9.25,4.35M60,0l60,35v70L60,140,0,105V35L60,0m1.65,63.7,5.9,2.75,3.7-4.35-5.9-2.75-3.7,4.35M71.2,65l-5.8,6.8,9.25,4.35,5.85-6.85L71.2,65m-43.95-.3L18,60.35l-5.8,6.8L21.4,71.5l5.85-6.85M40.5,62.1l-5.9-2.75L30.9,63.7l5.9,2.75,3.7-4.35m-22,16.75L12.6,76.1,8.9,80.45l5.9,2.75,3.7-4.35m7.7-9.5-5.8,6.8,9.25,4.35,5.85-6.85-9.3-4.3m-2.8,45,5.9,2.75L33,112.7,27.1,110l-3.7,4.35m14,1.65,5.9,2.75,3.7-4.35c-2-.9-3.93-1.82-5.9-2.75L37.4,116m5.9-6L47,105.6c-2-.9-3.93-1.82-5.9-2.75l-3.7,4.35L43.3,110M112.75,65l-5.9-2.75-3.7,4.35,5.9,2.75,3.7-4.35M100.5,65l-5.9-2.75L90.9,66.6l5.9,2.75L100.5,65M93,99.85l-3.7,4.35L95.2,107l3.7-4.35L93,99.85m-15.6-2.7,9.25,4.35,5.85-6.85-9.3-4.3-5.8,6.8M81,110l3.7-4.35-5.9-2.75-3.7,4.35L81,110"/><path class="cls-2" d="M88.35,25.6l5.9,2.75-3.7,4.35L84.65,30l3.7-4.35M36.5,39.25,27.25,34.9l5.8-6.8,9.3,4.3L36.5,39.25m22.4-24.8,3.7-4.35,5.9,2.75L64.8,17.2l-5.9-2.75M71.2,65l9.3,4.3L74.65,76.1,65.4,71.75,71.2,65M61.65,63.7l3.7-4.35,5.9,2.75-3.7,4.35-5.9-2.75M18.5,78.85,14.8,83.2,8.9,80.45l3.7-4.35,5.9,2.75m4.9,35.45L27.1,110,33,112.7l-3.7,4.35-5.9-2.75M43.3,110l-5.9-2.75,3.7-4.35c2,.93,3.93,1.85,5.9,2.75L43.3,110M100.5,65l-3.7,4.35L90.9,66.6l3.7-4.35L100.5,65M77.4,97.15l5.8-6.8,9.3,4.3-5.85,6.85L77.4,97.15"/><path class="cls-3" d="M73.15,37.15l5.8-6.8,9.3,4.3L82.4,41.5l-9.25-4.35m27.35-4-3.7,4.35L90.9,34.7l3.7-4.35,5.9,2.75m-60,29-3.7,4.35L30.9,63.7l3.7-4.35,5.9,2.75M27.25,64.65,21.4,71.5l-9.25-4.35,5.8-6.8,9.3,4.3m-1.05,4.7,9.3,4.3L29.65,80.5,20.4,76.15l5.8-6.8M37.4,116l3.7-4.35c2,.93,3.93,1.85,5.9,2.75l-3.7,4.35L37.4,116M112.75,65l-3.7,4.35-5.9-2.75,3.7-4.35,5.9,2.75M93,99.85l5.9,2.75L95.2,107l-5.9-2.75L93,99.85M81,110l-5.9-2.75,3.7-4.35,5.9,2.75L81,110"/><path class="cls-4" d="M91.45,50.25,100.55,70l.15,1-.4,1-.4.4,1.2,3.2a1.85,1.85,0,0,1,0,1.35l2.3,2.8a2,2,0,0,1,.45,1.15,2.07,2.07,0,0,1-.3,1.2l-1,.75-14.1,5.6-1.3.1a2,2,0,0,1-1-.8l-6.8-9.6A1.77,1.77,0,0,1,79,77a2,2,0,0,1,.35-1.15l1.5-2.15-1.1-1.6a1.73,1.73,0,0,1-.4-1.25,1.92,1.92,0,0,1,.5-1.2l2-2.2-.2-.7a1.54,1.54,0,0,1,.1-1l6.1-15.45a1.82,1.82,0,0,1,1-1.1l1.5,0a2,2,0,0,1,1.15,1m6.8,26.4,1-.35-1.85-5-.4.15,1.75-.7L89.6,51.05,83.5,66.5l.75,1,.25.3h0l-.2-.3-3,3.4,2,2.75L81,77l6.8,9.6,1.5-.55,0,0,12.65-5-3.6-4.35"/><path class="cls-5" d="M98.25,76.65l-9.7,3.8-.8,6.15L81,77l2.3-3.3,5,6.9.65-6.55v0L84.5,67.85l-.25-.3-.75-1,6.1-15.45-.4,23.5,7.75-3,.4-.15,1.85,5-1,.35"/><path class="cls-6" d="M98.25,76.65l3.6,4.35L89.2,86l0,0-1.5.55.8-6.15,9.7-3.8M97,71.5l-7.75,3,.4-23.5L98.7,70.8,97,71.5"/><path class="cls-7" d="M84.5,67.85,88.85,74v0L88.2,80.6l-5-6.9L81.3,71l3-3.4.2.3h0"/><path class="cls-8" d="M78.75,84.1l4.5-5.35V31.5l-8.7-4.15V27.2L52.3,16.25,41.5,29.4v.05L32.85,39.9V87.45l3.45,1.6,1.1.55V99l25.35,11.8,16-18.7v-8m6.5-52.6V78.75l-.45,1.3-4,4.75v7.3a2,2,0,0,1-.45,1.3l-16,18.7-.5.45-.6.2-1.3-.1-25.35-11.8-.8-.75A1.89,1.89,0,0,1,35.4,99V90.85L32,89.25l-.8-.7a1.89,1.89,0,0,1-.35-1.1V39.9a1.92,1.92,0,0,1,.45-1.25L39.75,28.4l.2-.25L50.75,15l1.15-.7,1.3.15,22.25,11,.6.45,8,3.85.85.75.3,1.05"/><path class="cls-9" d="M83.25,48.5v4L63.8,75.35v-4L83.25,48.5m0,20v4L63.8,95.35v-4L83.25,68.5"/><path class="cls-10" d="M83.25,68.5,63.8,91.35v-16L83.25,52.5v16m0-37v17L63.8,71.35v-17L83.25,31.5m0,41v6.25l-4.5,5.35-15,17.75v-6.5L83.25,72.5m-4.5,15.15V92.1l-16,18.7v-3.7l16-19.45"/><path class="cls-11" d="M32.85,39.9,41.5,29.45V29.4L52.3,16.25l22.25,11v.15l8.7,4.15L63.8,54.35,32.85,39.9m20.6-19.85L37.9,39l24.75,11.6,15.6-18.3-7-3.3V28.8l-17.8-8.75"/><path class="cls-12" d="M53.45,20.05l17.8,8.75V29l7,3.3-15.6,18.3L37.9,39l15.55-18.9m9.3,90.75L37.4,99V95.55L62.75,107.1v3.7M37.4,89.6l-1.1-.55-3.45-1.6V80.9L63.8,95.35v6.5l-1-.5L39,90.35l-1.6-.75M32.85,76.9v-16L63.8,75.35v16L32.85,76.9m0-20v-17L63.8,54.35v17L32.85,56.9m2-2.5,11.15,5.2V51.05L34.9,45.85V54.4m26.5,3.85-12.85-6v8.5l12.85,6v-8.5M46.05,79.6V71.05L34.9,65.85V74.4l11.15,5.2m2.5-7.35v8.5l12.85,6v-8.5l-12.85-6"/><path class="cls-13" d="M48.55,72.25l12.85,6v8.5l-12.85-6v-8.5M37.4,95.55v-6l1.6.75,23.75,11v5.75L37.4,95.55M34.9,54.4V45.85l11.15,5.2V59.6L34.9,54.4M46.05,79.6,34.9,74.4V65.85l11.15,5.2V79.6M61.4,58.25v8.5l-12.85-6v-8.5l12.85,6"/><path class="cls-14" d="M32.85,80.9v-4L63.8,91.35v4L32.85,80.9m0-20v-4L63.8,71.35v4L32.85,60.9"/><path class="cls-15" d="M78.75,84.1v3.55l-16,19.45v-5.75l1,.5,15-17.75"/><path class="cls-4" d="M13.7,89.1l-.3-.1-1.3,3.45.65.25-2.5,3.1,8.9,3.5,0,0,1,.35L25,93l-1.6-2.3,1.35-2-2.05-2.4-.15.2h-.05l.2-.2.5-.75L18.85,74.7l-6.4,13.9,1.25.5m4.45-16.25,1.5.05A1.82,1.82,0,0,1,20.7,74L25,84.85l.15.9,0,.35,1.15,1.3a2,2,0,0,1,.45,1.2l-.35,1.25-.55.8.8,1.15A2,2,0,0,1,27,93L26.6,94.1l-4.8,6.75a2,2,0,0,1-1,.75,2.05,2.05,0,0,1-1.25,0l-1.05-.35-.6-.3-8.35-3.3-1-.75a1.77,1.77,0,0,1-.35-1.2,2,2,0,0,1,.45-1.15l1.45-1.75a1.87,1.87,0,0,1,.1-1L11,89.9l-.1-.1-.4-1a1.91,1.91,0,0,1,.2-1l6.4-13.9a1.81,1.81,0,0,1,1.1-1.05"/><path class="cls-5" d="M22.45,86.5h.05l.15-.2,2.05,2.4-1.35,2-3.5,4.85-.45-4.6v-.05l3.05-4.35m-2.3,13.2-1-.35,0,0-8.9-3.5,2.5-3.1,6.85,2.7.55,4.3M13.7,89.1l-1.25-.5,6.4-13.9.3,16.55L13.7,89.1"/><path class="cls-6" d="M13.7,89.1l5.45,2.15-.3-16.55,4.3,10.85-.5.75-.2.2L19.4,90.85v.05l.45,4.6,3.5-4.85L25,93l-4.8,6.75-.55-4.3-6.85-2.7-.65-.25L13.4,89l.3.1"/><path class="cls-16" d="M71.9,52.3l6.75,3,.9.7.3,1.1V85.4a2,2,0,0,1-.45,1.3l-2,2.3-1.1.65-1.3-.1-6.6-3-.8-.75a1.89,1.89,0,0,1-.35-1.1V56.45a1.92,1.92,0,0,1,.45-1.25l.35-.45.25-.3,1.2-1.55a1.71,1.71,0,0,1,1-.75l1.3.15m-2.6,4.15v28.2l6.6,3,1.95-2.3V57.1l-6.75-3-1.2,1.55h0l-.65.8"/><path class="cls-17" d="M69.3,56.45l.65-.8h0l1.2-1.55,6.75,3L75.9,59.45l-6.6-3"/><path class="cls-18" d="M69.3,56.45l6.6,3V87.7l-6.6-3V56.45"/><path class="cls-19" d="M77.85,57.1V85.4L75.9,87.7V59.45l1.95-2.35"/><path class="cls-20" d="M84.1,116.65l-.45.15-1.3-.15L78.85,115l-.8-.7a1.89,1.89,0,0,1-.35-1.1v-8.3l.25-1,.7-1.25V98.4l-1.4,1.65a2.11,2.11,0,0,1-1.1.65l-1.3-.1L71,98.8l-.8-.75A1.89,1.89,0,0,1,69.8,97V94.5a1.89,1.89,0,0,1,.5-1.3L75,87.7a1.87,1.87,0,0,1,1.1-.65l1,0,2.1-2.45a1.8,1.8,0,0,1,.55-.45l1-.55.9-.25,1,.2,2.3,1.1.7.6.5.65a1.83,1.83,0,0,1,.4,1.2V102l.6.8a2,2,0,0,1,.35,1.15v8.35a2,2,0,0,1-.45,1.3l-2.2,2.6-.65.5M71.8,94.5V97l3.9,1.8,5-5.75v10.2l-1,1.7v8.3l3.5,1.65,2.2-2.6V103.9l-1-1.35V87.15L84,86.5l-2.3-1.1-1,.55-3.05,3.6L76.45,89,71.8,94.5"/><path class="cls-21" d="M71.8,94.5l3.9,1.8,4.65-5.5-.4-.15L83,87l-2.35-1,1-.55L84,86.5l.5.65v15.4l1,1.35v8.35l-2.2,2.6v-8.3l-.2-2.3V88.85L80.65,91.6V93l-5,5.75L71.8,97V94.5"/><path class="cls-22" d="M71.8,94.5,76.45,89l1.15.55L80.65,86,83,87l-3,3.65.4.15L75.7,96.3l-3.9-1.8m7.9,10.4,1-1.7,2.35,1,.2,2.3-3.5-1.65"/><path class="cls-23" d="M79.7,104.9l3.5,1.65v8.3l-3.5-1.65v-8.3m1-1.7V91.6L83,88.85v15.4l-2.35-1"/><path class="cls-24" d="M84.1,116.65l-5.75,6.8-6.55-3.4,5.9-7v.1a1.89,1.89,0,0,0,.35,1.1l.8.7,3.5,1.65,1.3.15.45-.15"/></g></g></svg>