<svg xmlns="http://www.w3.org/2000/svg" viewBox="0 0 120 140"><defs><style>.cls-1{fill:#a4afaf;}.cls-2{fill:#9ba6a6;}.cls-3{fill:#a9b6b6;}.cls-4{fill:#bb8044;}.cls-5{fill:#115f32;}.cls-6{fill:#1b914d;}.cls-7{fill-opacity:0.1;}.cls-8{fill:#a6b1b1;}.cls-9{fill:#d5e5e5;}.cls-10{fill:#727979;}.cls-11{fill:#b9c6c6;}.cls-12{fill:#197e44;}.cls-13{fill:#219853;}.cls-14{fill:#2abf69;}.cls-15{fill:#353535;}.cls-16{fill:#464646;}.cls-17{fill:#4d4d4d;}.cls-18{fill:#8e4124;}.cls-19{fill:#bb5f3c;}.cls-20{fill:#d26f49;}.cls-21{fill:#688795;}.cls-22{fill:#743a25;}.cls-23{fill:#e5794f;}.cls-24{fill:#a15133;}</style></defs><title>Asset 98</title><g id="Layer_2" data-name="Layer 2"><g id="Layer_1-2" data-name="Layer 1"><path class="cls-1" d="M101.4,37.6l3.65-.75.45-3.7-3.45-1.5-2.45,2.7,1.8,3.25M83.35,40.85l.45-3.7-3.45-1.5-2.45,2.7,1.8,3.25,3.65-.75M77.5,28.1,77.9,20,70.3,17l-5.2,6.35,4.5,6.9,7.9-2.15m34.85,20.65.9-5.75-5.2-2.65-4.1,4.1,2.65,5.2,5.75-.9M32.65,44.3l1.8,3.25,3.65-.75.45-3.7L35.1,41.6l-2.45,2.7M51.7,17.75,43.45,23.9l3.35,9.75,10.3-.15,3-9.85-8.4-5.9M9.15,38.35,11,41.6l3.65-.75.45-3.7-3.45-1.5-2.45,2.7M64.85,43l.9-5.75-5.2-2.65-4.1,4.1,2.65,5.2,5.75-.9M60,0l60,35v70L60,140,0,105V35L60,0m5.75,73.75-5.2-2.65-4.1,4.1,2.65,5.2,5.75-.9.9-5.75M22.25,92l-5.2-2.65L13,93.4l2.65,5.2,5.75-.9.9-5.75m28.6-1.1.45-3.7-3.45-1.5-2.45,2.7,1.8,3.25,3.65-.75m-10.5-19.5,4.5,6.9,7.9-2.15.4-8.15-7.6-3-5.2,6.35M19.45,110.4l3.65-.75.45-3.7-3.45-1.5-2.45,2.7,1.8,3.25m10.2,2.7,1.8,3.25,3.65-.75.45-3.7-3.45-1.5-2.45,2.7m40.2-4.25-4.1,4.1,2.65,5.2,5.75-.9.9-5.75-5.2-2.65M112.4,77.2l-7.6-3L99.6,80.6l4.5,6.9,7.9-2.15.4-8.15m1.6,26.6.45-3.7L111,98.6l-2.45,2.7,1.8,3.25,3.65-.75M97.6,73.6l.45-3.7L94.6,68.4l-2.45,2.7L94,74.35l3.65-.75m5.9,30.2.45-3.7-3.45-1.5-2.45,2.7,1.8,3.25,3.65-.75"/><path class="cls-2" d="M77.5,28.1l-7.9,2.15-4.5-6.9L70.3,17,77.9,20l-.4,8.15m5.85,12.75-3.65.75-1.8-3.25,2.45-2.7,3.45,1.5-.45,3.7M101.4,37.6l-1.8-3.25,2.45-2.7,3.45,1.5-.45,3.7-3.65.75M32.65,44.3l2.45-2.7,3.45,1.5-.45,3.7-3.65.75-1.8-3.25M64.85,43l-5.75.9-2.65-5.2,4.1-4.1,5.2,2.65L64.85,43m.9,30.75-.9,5.75-5.75.9-2.65-5.2,4.1-4.1,5.2,2.65M19.45,110.4l-1.8-3.25,2.45-2.7,3.45,1.5-.45,3.7-3.65.75m50.4-1.55,5.2,2.65-.9,5.75-5.75.9L65.75,113l4.1-4.1M97.6,73.6,94,74.35l-1.8-3.25,2.45-2.7,3.45,1.5-.45,3.7M114,103.8l-3.65.75-1.8-3.25L111,98.6l3.45,1.5-.45,3.7"/><path class="cls-3" d="M112.35,48.75l-5.75.9L104,44.45l4.1-4.1,5.2,2.65-.9,5.75M9.15,38.35l2.45-2.7,3.45,1.5-.45,3.7L11,41.6l-1.8-3.25M51.7,17.75l8.4,5.9-3,9.85-10.3.15L43.45,23.9l8.25-6.15M40.35,71.35,45.55,65l7.6,3-.4,8.15-7.9,2.15-4.5-6.9m10.5,19.5-3.65.75-1.8-3.25,2.45-2.7,3.45,1.5-.45,3.7M22.25,92l-.9,5.75-5.75.9L13,93.4l4.1-4.1L22.25,92m7.4,21.15,2.45-2.7,3.45,1.5-.45,3.7-3.65.75-1.8-3.25M112.4,77.2l-.4,8.15-7.9,2.15-4.5-6.9,5.2-6.35,7.6,3m-8.9,26.6-3.65.75-1.8-3.25,2.45-2.7,3.45,1.5-.45,3.7"/><path class="cls-4" d="M111.05,36.85l-14.6-8.5L87,27.5l-5.1-7.65-18.85-11A5.91,5.91,0,0,0,60,8a5.63,5.63,0,0,0-3,.85l-14.4,8.4-.85,4.25H35.3l-8.25,4.85L23.5,34l-6.65-1.7L9,36.85A5.55,5.55,0,0,0,6.85,39,5.63,5.63,0,0,0,6,42V98.05a5.57,5.57,0,0,0,.85,3A5.9,5.9,0,0,0,9,103.2l20.75,12.1,5.25-.8.75,4.3L57,131.2a6,6,0,0,0,3,.8,6.26,6.26,0,0,0,3-.8L80.6,121l.9-5,4.65,1.75,4.7-2.75,1.9-6.25,5.75,1.75,12.55-7.3h0a6.35,6.35,0,0,0,2.2-2.2,5.89,5.89,0,0,0,.8-3V76.75L110.75,69,114,60.5V42a5.83,5.83,0,0,0-3-5.15h0M60,0l60,35v70L60,140,0,105V35L60,0"/><path class="cls-5" d="M58.2,32.85l-.5.55h-.05l-1.15.9a3.21,3.21,0,0,1-1,2.35l-.15.15a3.51,3.51,0,0,1-2.4,1H52.9a3.38,3.38,0,0,1-2.5-1,3.48,3.48,0,0,1-1-2.45l-1.15-.9h0l-.55-.6a6,6,0,0,1-1.5-3.9V28a48.75,48.75,0,0,1,1.5-13q1.84-7.1,5.2-6.65,3.35-.5,5.3,6.65a52.21,52.21,0,0,1,1.4,13v.9a6.53,6.53,0,0,1-1.4,4m-3.7.2A5.1,5.1,0,0,0,56.25,32l.2-.15a4.53,4.53,0,0,0,1.15-2.95V28a49.92,49.92,0,0,0-1.35-12.5q-1.39-5.14-3.35-5.15T49.6,15.5A48.37,48.37,0,0,0,48.2,28v.85a4.3,4.3,0,0,0,1.25,2.95l.15.15,1.75,1.1V34.2a1.54,1.54,0,0,0,1.55,1.55H53l1-.45a1.44,1.44,0,0,0,.5-1.1V33.05"/><path class="cls-6" d="M54.5,33.05l-1.6.25-1.55-.25L49.6,32l-.15-.15a4.3,4.3,0,0,1-1.25-2.95V28a48.37,48.37,0,0,1,1.4-12.5q1.35-5.14,3.3-5.15t3.35,5.15A49.92,49.92,0,0,1,57.6,28v.85a4.53,4.53,0,0,1-1.15,2.95l-.2.15a5.1,5.1,0,0,1-1.75,1.1"/><path class="cls-4" d="M54.5,33.05V34.2a1.44,1.44,0,0,1-.5,1.1l-1,.45H52.9a1.54,1.54,0,0,1-1.55-1.55V33.05l1.55.25,1.6-.25"/><path class="cls-7" d="M58.2,32.85a3.36,3.36,0,0,1,1.5,2.7,3.72,3.72,0,0,1-2,3.1A8.34,8.34,0,0,1,53,40a8.57,8.57,0,0,1-4.8-1.3,3.72,3.72,0,0,1-1.95-3.1,3.48,3.48,0,0,1,1.5-2.75l.55.6h0l1.15.9a3.48,3.48,0,0,0,1,2.45,3.38,3.38,0,0,0,2.5,1H53a3.51,3.51,0,0,0,2.4-1l.15-.15a3.21,3.21,0,0,0,1-2.35l1.15-.9h.05l.5-.55"/><path class="cls-8" d="M99.85,52.55l1.8-2.1V58l-1.8,2.45v-7.9"/><path class="cls-9" d="M99.85,52.55,55.7,32l2.15-2.1,43.8,20.55-1.8,2.1"/><path class="cls-10" d="M103.35,49.4l.3,1.05V58a2,2,0,0,1-.4,1.2l-1.8,2.45-1.1.75L99,62.3,54.85,41.7l-.8-.75a1.89,1.89,0,0,1-.35-1.1V32a1.82,1.82,0,0,1,.6-1.4l2.15-2.1a2,2,0,0,1,1.1-.55l1.15.15,43.8,20.55.85.75m-3.5,11.05,1.8-2.45V50.45L57.85,29.9,55.7,32v7.85l44.15,20.6"/><path class="cls-11" d="M99.85,60.45,55.7,39.85V32L99.85,52.55v7.9"/><path class="cls-12" d="M49.8,55.25l.35-.55L60.9,42A1.87,1.87,0,0,1,62,41.3l1.2.1,1.95.8.4-.5a2.11,2.11,0,0,1,1.1-.65l1.25.15,7.75,3.7.85.75.3,1.05,1.25.65a2.09,2.09,0,0,1,.8.7l.3.75,3.45,1.55.5.35L81.7,52.3v-.15L78.05,50.5l-1,1V49.1l-2.35-1.2V46.7L67,43l-1.35,1.55-3.25-1.3L51.65,56l.05,0-1.9-.8M67.05,67l-.65-.75-.85-1.75-4.15-2-.75.85A2.1,2.1,0,0,1,59.5,64l-.3,0a2,2,0,0,1-1.05-.3l-1.75-1L55.65,62l-.1-.3V59.5l1.25.5.6-.65V61l1.8.9,1.65-1.8,6.2,2.9v4"/><path class="cls-13" d="M65.65,44.55,67,43l7.75,3.7v2.4L69.9,54.8l-3.35-1.55L65,55.05l4.9,2.35,7.2-8.3v2.4L67.05,63l-6.2-2.9-1.65,1.8v-1.8l7.55-8.7L65,50.5,63.85,52,62,51.15V48.7l3.65-4.15M56.9,56.1l1.8-4,3.65,1.75L58,58.8l-1.1-.55V56.1m15.7-9.2-5.15-2.3L64.3,48.25l5.15,2.3L72.6,46.9"/><path class="cls-14" d="M72.6,46.9l-3.15,3.65-5.15-2.3,3.15-3.65,5.15,2.3M51.65,56,62.4,43.25l3.25,1.3L62,48.7v2.45l1.85.8L65,50.5l1.8.85-7.55,8.7v1.8L57.4,61v-1.6l.6-.55,4.35-4.9L58.7,52.15l-1.8,4-1.25,1.6-3.4-1.4-.6-.3m23.1-8.1,2.35,1.2-7.2,8.3L65,55.05l1.55-1.8L69.9,54.8l4.85-5.7V47.9m2.35,3.6,1-1,3.65,1.65-2.65,3.3L71.15,65l-4.1-2,10-11.45"/><path class="cls-15" d="M49.8,55.25l1.9.8,1,2.3,2.8,1.15v2.15L52,60.2a2,2,0,0,1-1-1l-1.1-2.35a1.77,1.77,0,0,1-.15-1.1l.1-.5m31.9-3,1.35-1.6.4.45a2.15,2.15,0,0,1,.25,1.2l-.45,4.5L82.8,58l-9,10.5a2.11,2.11,0,0,1-1.1.65L71.5,69l-4.1-1.85-.35-.2V63L68.2,65.3l4.1,1.85,9-10.5.45-4.35"/><path class="cls-16" d="M81.7,52.3l-2.65,3.15,2.65-3.3v.15m-30,3.75-.05,0,.6.3-.55-.25"/><path class="cls-17" d="M51.7,56.05l.55.25,3.4,1.4,1.25-1.6v2.15l1.1.55-.6.55-.6.65-1.25-.5-2.8-1.15-1-2.3m30-3.75-.45,4.35-9,10.5L68.2,65.3,67.05,63l4.1,2,7.9-9.5L81.7,52.3"/><path class="cls-18" d="M12.4,42.75l-2.85-5.4a2.1,2.1,0,0,1-.2-1.4,1.7,1.7,0,0,1,.8-1.15L24.4,24.4a1.76,1.76,0,0,1,1.45-.35l14.2,2.05a1.7,1.7,0,0,1,.85.35l.65.65L51.3,45.3l.2,1.1-.35,1-.85,1.2-1.65-1.15.85-1.2-9.75-18.2L25.55,26,11.3,36.4l4,7.55-2,.6-.95-1.8"/><path class="cls-10" d="M12.4,42.75l.95,1.8-6.3,1.8V58.3l13.5,25.35,4.4-1.3L31,80.6l23.7-7V61.65l-7.65-14.4,1.6.2L50.3,48.6l-.15.2L56.5,60.7l.2.95V73.6a2,2,0,0,1-.4,1.2l-1,.75-34.15,10-1.35-.1a1.68,1.68,0,0,1-1-.9L5.3,59.25l-.25-1V46.35a2,2,0,0,1,.4-1.2,1.75,1.75,0,0,1,1-.7l5.9-1.7M24,53.85l-.05,0-.65.4.6-.4.1,0"/><path class="cls-9" d="M13.35,44.55l2-.6.2.4V48.6L24,64.45l21.3-6.3V47l1.8.25,7.65,14.4L20.55,71.75,7.05,46.35l6.3-1.8"/><path class="cls-19" d="M25.55,26l14.2,2.05,9.75,18.2-.85,1.2-1.6-.2L45.25,47l-10-1.55L24,53.85l-.1,0-.6.4-1.4,1.05-.8-.75,14.2-10.4L25.55,26"/><path class="cls-20" d="M25.55,26l9.7,18.2L21.05,54.6,15.5,44.35l-.2-.4-4-7.55L25.55,26"/><path class="cls-11" d="M15.5,44.35,21.05,54.6l.8.75,1.4-1.05.65-.4.05,0v10.6L15.5,48.6V44.35m5.05,39.3L7.05,58.3V46.35l13.5,25.4v11.9"/><path class="cls-21" d="M38.65,52.05v.05l4.05-1.2v5.25l-10.1,2.9v.05l-6.05,1.75v-5.2l12.1-3.6M31,80.6,25,82.35v-8l6-1.75.05,0v8"/><path class="cls-8" d="M31,80.6v-8l-.05,0-6,1.75v8l-4.4,1.3V71.75L54.7,61.65V73.6L31,80.6M24,64.45V53.85l11.3-8.4,10,1.55V58.15L24,64.45m14.7-12.4-12.1,3.6v5.2L32.6,59.1v-.05l10.1-2.9V50.9l-4.05,1.2v-.05"/><path class="cls-12" d="M109.75,67V66.8l-3.65-1.65-.95,1v-2.4l-2.35-1.2v-1.2l-7.75-3.7L93.7,59.2l-3.25-1.3L79.7,70.65l0,0-1.9-.8.35-.55L89,56.6A1.87,1.87,0,0,1,90,56l1.2.1,2,.8.4-.5a2.11,2.11,0,0,1,1.1-.65l1.25.15,7.75,3.7a1.89,1.89,0,0,1,.85.75l.3,1.05,1.25.65.8.7.3.75L110.6,65a1.52,1.52,0,0,1,.5.35L109.75,67M95.1,77.6v4l-.65-.75L93.6,79.1l-4.15-1.95L88.7,78a2.1,2.1,0,0,1-1.15.65l-.3,0-1-.3-1.75-1.05-.75-.75-.1-.3V74.15l1.25.5.6-.65v1.6l1.8.9,1.65-1.8,6.2,2.9"/><path class="cls-16" d="M109.75,66.8V67L107.1,70.1l2.65-3.3m-30,3.9,0,0,.6.3-.55-.25"/><path class="cls-14" d="M79.7,70.65,90.45,57.9l3.25,1.3-3.65,4.15V65.8l1.85.8L93,65.15l1.8.85-7.55,8.7v1.8l-1.8-.9V74l.6-.55,4.35-4.9L86.75,66.8l-1.8,4-1.25,1.6L80.3,71l-.6-.3m23.1-8.1,2.35,1.2L98,72.05l-4.9-2.35,1.55-1.8L98,69.45l4.85-5.7v-1.2m2.35,3.6.95-1,3.65,1.65-2.65,3.3-7.9,9.5-4.1-2,10.05-11.45m-7.65-1-5.15-2.3,3.15-3.65,5.15,2.3L97.5,65.2"/><path class="cls-15" d="M109.75,67l1.35-1.6.4.45a2.15,2.15,0,0,1,.25,1.2l-.45,4.5-.45,1.1L101.9,83.1a2.11,2.11,0,0,1-1.1.65l-1.25-.1-4.1-1.85-.35-.2v-4L96.25,80l4.1,1.85,9-10.5.45-4.35m-31.9,3,1.9.8,1,2.3,2.8,1.15V76.3l-3.55-1.45a2,2,0,0,1-1-1L77.9,71.5a1.77,1.77,0,0,1-.15-1.1l.1-.5"/><path class="cls-13" d="M93.7,59.2l1.35-1.55,7.75,3.7v2.4L98,69.45,94.6,67.9l-1.55,1.8L98,72.05l7.2-8.3v2.4L95.1,77.6l-6.2-2.9-1.65,1.8V74.7L94.8,66,93,65.15,91.9,66.6l-1.85-.8V63.35L93.7,59.2m3.8,6,3.15-3.65-5.15-2.3L92.35,62.9l5.15,2.3M86.05,73.45,85,72.9V70.75l1.8-4,3.65,1.75-4.35,4.9"/><path class="cls-17" d="M86.05,73.45l-.6.55-.6.65-1.25-.5L80.8,73l-1-2.3.55.25,3.4,1.4L85,70.75V72.9l1.1.55m21-3.35L109.75,67l-.45,4.35-9,10.5L96.25,80,95.1,77.6l4.1,2,7.9-9.5"/><path class="cls-22" d="M22.2,77.8l.3,1,.05.55v13.9a2,2,0,0,1-.45,1.3L18.4,98.9a2.17,2.17,0,0,1-1.2.7l-2.35.4-1.2-.15L7.75,97.1l-.65-.5-.4-.75L6.15,94.1l-.1-.6V80.4l2,.9V93.5l.55,1.75L14.5,98l2.35-.4,3.7-4.35V79.6l1.65-1.8"/><path class="cls-10" d="M22.2,77.8l-1.65,1.8v-.25L20,77.55,14.15,74.8l-2.4.4-3.7,4.35V81.3l-2-.9v-.85a1.89,1.89,0,0,1,.5-1.3l3.7-4.35a1.8,1.8,0,0,1,1.2-.65l2.4-.4L15,73l5.85,2.75.65.5L22,77l.25.8"/><path class="cls-19" d="M20.55,79.6v3.2l-3.7,4.35V83.7l3.7-4.35v.25m0,10.15v3.5l-3.7,4.35V94.1l3.7-4.35M8.05,90v-7L8.6,84.8l5.9,2.75v7L8.6,91.8,8.05,90"/><path class="cls-9" d="M8.05,79.55l3.7-4.35,2.4-.4L20,77.55l.55,1.8-3.7,4.35-2.35.4L8.6,81.35l-.55-1.8"/><path class="cls-20" d="M8.05,79.55l.55,1.8,5.9,2.75v3.45l2.35-.4V94.1l-2.35.45V98L8.6,95.25,8.05,93.5V90l.55,1.8,5.9,2.75v-7L8.6,84.8l-.55-1.75v-3.5"/><path class="cls-23" d="M16.85,97.6,14.5,98V94.55l2.35-.45v3.5m0-13.9v3.45l-2.35.4V84.1l2.35-.4"/><path class="cls-24" d="M20.55,82.8v7l-3.7,4.35V87.15l3.7-4.35"/><path class="cls-5" d="M99.65,96.3a6,6,0,0,1-1.5-3.9v-.9a48.75,48.75,0,0,1,1.5-13q1.84-7.09,5.2-6.65,3.34-.5,5.3,6.65a52.21,52.21,0,0,1,1.4,13v.9a6.53,6.53,0,0,1-1.4,3.95l-.5.55h-.05l-1.15.9a3.21,3.21,0,0,1-1,2.35l-.15.15a3.51,3.51,0,0,1-2.4,1h-.05a3.38,3.38,0,0,1-2.5-1,3.48,3.48,0,0,1-1-2.45l-1.15-.9h0l-.55-.6m6.8.25a5.1,5.1,0,0,0,1.75-1.1l.2-.15a4.53,4.53,0,0,0,1.15-3V91.5A49.92,49.92,0,0,0,108.2,79q-1.4-5.15-3.35-5.15T101.55,79a48.37,48.37,0,0,0-1.4,12.5v.85a4.3,4.3,0,0,0,1.25,3l.15.15,1.75,1.1V97.7a1.54,1.54,0,0,0,1.55,1.55h.05a1.35,1.35,0,0,0,1-.45,1.44,1.44,0,0,0,.5-1.1V96.55"/><path class="cls-6" d="M106.45,96.55l-1.6.25-1.55-.25-1.75-1.1-.15-.15a4.3,4.3,0,0,1-1.25-3V91.5a48.37,48.37,0,0,1,1.4-12.5q1.35-5.15,3.3-5.15T108.2,79a49.92,49.92,0,0,1,1.35,12.5v.85a4.53,4.53,0,0,1-1.15,3l-.2.15a5.1,5.1,0,0,1-1.75,1.1"/><path class="cls-4" d="M106.45,96.55V97.7a1.44,1.44,0,0,1-.5,1.1,1.35,1.35,0,0,1-1,.45h-.05a1.54,1.54,0,0,1-1.55-1.55V96.55l1.55.25,1.6-.25"/><path class="cls-7" d="M110.15,96.35a3.36,3.36,0,0,1,1.5,2.7,3.72,3.72,0,0,1-2,3.1,8.34,8.34,0,0,1-4.75,1.3,8.57,8.57,0,0,1-4.8-1.3,3.72,3.72,0,0,1-1.95-3.1,3.48,3.48,0,0,1,1.5-2.75l.55.6h0l1.15.9a3.48,3.48,0,0,0,1,2.45,3.38,3.38,0,0,0,2.5,1h.05a3.51,3.51,0,0,0,2.4-1l.15-.15a3.21,3.21,0,0,0,1-2.35l1.15-.9h.05l.5-.55"/><path class="cls-5" d="M80.25,107.3a6,6,0,0,1-1.5-3.9v-.9a48.75,48.75,0,0,1,1.5-13q1.84-7.09,5.2-6.65,3.35-.5,5.3,6.65a52.21,52.21,0,0,1,1.4,13v.9a6.53,6.53,0,0,1-1.4,3.95l-.5.55h0l-1.15.9a3.21,3.21,0,0,1-1,2.35l-.15.15a3.51,3.51,0,0,1-2.4,1h0a3.38,3.38,0,0,1-2.5-1,3.48,3.48,0,0,1-1-2.45l-1.15-.9h0l-.55-.6m6.8.25a5.1,5.1,0,0,0,1.75-1.1l.2-.15a4.53,4.53,0,0,0,1.15-3v-.85A49.92,49.92,0,0,0,88.8,90q-1.39-5.15-3.35-5.15T82.15,90a48.37,48.37,0,0,0-1.4,12.5v.85a4.3,4.3,0,0,0,1.25,3l.15.15,1.75,1.1v1.15a1.54,1.54,0,0,0,1.55,1.55h0l1-.45a1.44,1.44,0,0,0,.5-1.1v-1.15"/><path class="cls-6" d="M87.05,107.55l-1.6.25-1.55-.25-1.75-1.1L82,106.3a4.3,4.3,0,0,1-1.25-3v-.85A48.37,48.37,0,0,1,82.15,90q1.35-5.15,3.3-5.15T88.8,90a49.92,49.92,0,0,1,1.35,12.5v.85a4.53,4.53,0,0,1-1.15,3l-.2.15a5.1,5.1,0,0,1-1.75,1.1"/><path class="cls-7" d="M90.75,107.35a3.36,3.36,0,0,1,1.5,2.7,3.72,3.72,0,0,1-2,3.1,8.34,8.34,0,0,1-4.75,1.3,8.57,8.57,0,0,1-4.8-1.3,3.72,3.72,0,0,1-2-3.1,3.48,3.48,0,0,1,1.5-2.75l.55.6h0l1.15.9a3.48,3.48,0,0,0,1,2.45,3.38,3.38,0,0,0,2.5,1h0a3.51,3.51,0,0,0,2.4-1l.15-.15a3.21,3.21,0,0,0,1-2.35l1.15-.9h0l.5-.55"/><path class="cls-4" d="M87.05,107.55v1.15a1.44,1.44,0,0,1-.5,1.1l-1,.45h0a1.54,1.54,0,0,1-1.55-1.55v-1.15l1.55.25,1.6-.25"/><path class="cls-5" d="M58.2,120.55a6,6,0,0,1-1.5-3.9v-.9a48.75,48.75,0,0,1,1.5-13Q60,95.66,63.4,96.1q3.34-.5,5.3,6.65a52.21,52.21,0,0,1,1.4,13v.9a6.53,6.53,0,0,1-1.4,3.95l-.5.55h0l-1.15.9a3.21,3.21,0,0,1-1,2.35l-.15.15a3.51,3.51,0,0,1-2.4,1H63.4a3.38,3.38,0,0,1-2.5-1,3.48,3.48,0,0,1-1-2.45l-1.15-.9h0l-.55-.6m6.8.25a5.1,5.1,0,0,0,1.75-1.1l.2-.15a4.53,4.53,0,0,0,1.15-3v-.85a49.92,49.92,0,0,0-1.35-12.5q-1.4-5.15-3.35-5.15t-3.3,5.15a48.37,48.37,0,0,0-1.4,12.5v.85a4.3,4.3,0,0,0,1.25,3l.15.15a4.34,4.34,0,0,0,1.75,1.1V122a1.54,1.54,0,0,0,1.55,1.55h.05l1-.45A1.44,1.44,0,0,0,65,122V120.8"/><path class="cls-6" d="M65,120.8l-1.6.25-1.55-.25a4.34,4.34,0,0,1-1.75-1.1l-.15-.15a4.3,4.3,0,0,1-1.25-3v-.85a48.37,48.37,0,0,1,1.4-12.5q1.35-5.15,3.3-5.15t3.35,5.15a49.92,49.92,0,0,1,1.35,12.5v.85a4.53,4.53,0,0,1-1.15,3l-.2.15A5.1,5.1,0,0,1,65,120.8"/><path class="cls-4" d="M65,120.8V122a1.44,1.44,0,0,1-.5,1.1l-1,.45H63.4A1.54,1.54,0,0,1,61.85,122V120.8l1.55.25,1.6-.25"/><path class="cls-7" d="M68.7,120.6a3.36,3.36,0,0,1,1.5,2.7,3.72,3.72,0,0,1-2,3.1,8.34,8.34,0,0,1-4.75,1.3,8.57,8.57,0,0,1-4.8-1.3,3.72,3.72,0,0,1-1.95-3.1,3.48,3.48,0,0,1,1.5-2.75l.55.6h0l1.15.9a3.48,3.48,0,0,0,1,2.45,3.38,3.38,0,0,0,2.5,1h.05a3.51,3.51,0,0,0,2.4-1l.15-.15a3.21,3.21,0,0,0,1-2.35l1.15-.9h0l.5-.55"/></g></g></svg>