<svg xmlns="http://www.w3.org/2000/svg" viewBox="0 0 120 140"><defs><style>.cls-1{fill:#a4afaf;}.cls-2{fill:#9ba6a6;}.cls-3{fill:#a9b6b6;}.cls-4{fill:#8e9898;}.cls-5{fill:#115f32;}.cls-6{fill:#1b914d;}.cls-7{fill-opacity:0.1;}.cls-8{fill:#bb8044;}.cls-9{fill:#877e75;}.cls-10{fill:#1e5d87;}.cls-11{fill:#d9cbbf;}.cls-12{fill:#2e89c6;}.cls-13{fill:#3aacf7;}.cls-14{fill:#c2b5aa;}.cls-15{fill:#eedfd1;}.cls-16{fill:#e2d4c7;}.cls-17{fill:#f5e6d7;}.cls-18{fill:#b8aca1;}.cls-19{fill:#b9c6c6;}.cls-20{fill:#37a4ec;}.cls-21{fill:#54bbff;}.cls-22{fill:#727979;}.cls-23{fill:#d5e5e5;}.cls-24{fill:#a6b1b1;}</style></defs><title>Asset 148</title><g id="Layer_2" data-name="Layer 2"><g id="Layer_1-2" data-name="Layer 1"><path class="cls-1" d="M120,105,60,140,0,105V35L60,0l60,35v70M27.25,34.9l9.25,4.35,5.85-6.85-9.3-4.3-5.8,6.8M30.9,63.7l5.9,2.75,3.7-4.35-5.9-2.75L30.9,63.7m4.6,10-9.3-4.3-5.8,6.8,9.25,4.35,5.85-6.85M21.4,71.5l5.85-6.85L18,60.35l-5.8,6.8L21.4,71.5M84.65,30l5.9,2.75,3.7-4.35-5.9-2.75L84.65,30M12.6,76.1,8.9,80.45l5.9,2.75,3.7-4.35L12.6,76.1m82-45.75L90.9,34.7l5.9,2.75,3.7-4.35-5.9-2.75M82.4,41.5l5.85-6.85L79,30.35l-5.8,6.8L82.4,41.5m-17,30.25,9.25,4.35,5.85-6.85L71.2,65l-5.8,6.8m5.85-9.65-5.9-2.75-3.7,4.35,5.9,2.75,3.7-4.35M68.5,12.85,62.6,10.1l-3.7,4.35,5.9,2.75,3.7-4.35M103.15,66.6l5.9,2.75,3.7-4.35-5.9-2.75-3.7,4.35M92.5,94.65l-9.3-4.3-5.8,6.8,9.25,4.35,5.85-6.85m2.1-32.4L90.9,66.6l5.9,2.75L100.5,65l-5.9-2.75M47,114.35l-5.9-2.75L37.4,116l5.9,2.75,3.7-4.35M81,110l3.7-4.35-5.9-2.75-3.7,4.35L81,110m8.35-5.75L95.2,107l3.7-4.35L93,99.85l-3.7,4.35m-60,12.85L33,112.7,27.1,110l-3.7,4.35,5.9,2.75M47,105.6l-5.9-2.75-3.7,4.35L43.3,110,47,105.6"/><path class="cls-2" d="M47,105.6,43.3,110l-5.9-2.75,3.7-4.35L47,105.6M27.25,34.9l5.8-6.8,9.3,4.3L36.5,39.25,27.25,34.9M12.6,76.1l5.9,2.75L14.8,83.2,8.9,80.45l3.7-4.35M84.65,30l3.7-4.35,5.9,2.75-3.7,4.35L84.65,30M68.5,12.85,64.8,17.2l-5.9-2.75,3.7-4.35,5.9,2.75M71.25,62.1l-3.7,4.35-5.9-2.75,3.7-4.35,5.9,2.75M65.4,71.75,71.2,65l9.3,4.3L74.65,76.1,65.4,71.75m29.2-9.5L100.5,65l-3.7,4.35L90.9,66.6l3.7-4.35m-2.1,32.4-5.85,6.85L77.4,97.15l5.8-6.8,9.3,4.3m-63.2,22.4-5.9-2.75L27.1,110,33,112.7l-3.7,4.35"/><path class="cls-3" d="M21.4,71.5l-9.25-4.35,5.8-6.8,9.3,4.3L21.4,71.5m14.1,2.15L29.65,80.5,20.4,76.15l5.8-6.8,9.3,4.3m-4.6-10,3.7-4.35,5.9,2.75-3.7,4.35L30.9,63.7M82.4,41.5l-9.25-4.35,5.8-6.8,9.3,4.3L82.4,41.5M94.6,30.35l5.9,2.75-3.7,4.35L90.9,34.7l3.7-4.35m8.55,36.25,3.7-4.35,5.9,2.75-3.7,4.35-5.9-2.75M89.3,104.2,93,99.85l5.9,2.75L95.2,107l-5.9-2.75M81,110l-5.9-2.75,3.7-4.35,5.9,2.75L81,110M47,114.35l-3.7,4.35L37.4,116l3.7-4.35,5.9,2.75"/><path class="cls-4" d="M120,105,60,140,0,105V35L60,0l60,35v70M6.85,39A5.63,5.63,0,0,0,6,42V98.05a5.57,5.57,0,0,0,.85,3A5.9,5.9,0,0,0,9,103.2l46.5,27.15q6.86,3.3,6.7-2.55A72,72,0,0,0,51.35,93.55L69.5,90.3a51.6,51.6,0,0,1,11.2,25.25q.64,4.9,6.35,1.7l24-14h0a6.35,6.35,0,0,0,2.2-2.2,5.89,5.89,0,0,0,.8-3V42a5.83,5.83,0,0,0-3-5.15h0l-48-28A5.91,5.91,0,0,0,60,8a5.63,5.63,0,0,0-3,.85l-48,28A5.55,5.55,0,0,0,6.85,39"/><path class="cls-5" d="M70.65,49.65a6,6,0,0,1-1.5-3.9v-.9a48.75,48.75,0,0,1,1.5-13q1.84-7.09,5.2-6.65,3.34-.49,5.3,6.65a52.21,52.21,0,0,1,1.4,13v.9a6.53,6.53,0,0,1-1.4,4l-.5.55H80.6l-1.15.9a3.21,3.21,0,0,1-1,2.35l-.15.15a3.51,3.51,0,0,1-2.4,1h-.05a3.38,3.38,0,0,1-2.5-1,3.48,3.48,0,0,1-1-2.45l-1.15-.9h0l-.55-.6m6.8.25a5.1,5.1,0,0,0,1.75-1.1l.2-.15a4.53,4.53,0,0,0,1.15-2.95v-.85a49.92,49.92,0,0,0-1.35-12.5q-1.4-5.14-3.35-5.15t-3.3,5.15a48.37,48.37,0,0,0-1.4,12.5v.85a4.3,4.3,0,0,0,1.25,2.95l.15.15a4.34,4.34,0,0,0,1.75,1.1v1.15a1.54,1.54,0,0,0,1.55,1.55h.05a1.35,1.35,0,0,0,1-.45,1.44,1.44,0,0,0,.5-1.1V49.9"/><path class="cls-6" d="M77.45,49.9l-1.6.25L74.3,49.9a4.34,4.34,0,0,1-1.75-1.1l-.15-.15a4.3,4.3,0,0,1-1.25-2.95v-.85a48.37,48.37,0,0,1,1.4-12.5q1.35-5.14,3.3-5.15t3.35,5.15a49.92,49.92,0,0,1,1.35,12.5v.85a4.53,4.53,0,0,1-1.15,2.95l-.2.15a5.1,5.1,0,0,1-1.75,1.1"/><path class="cls-7" d="M81.15,49.7a3.36,3.36,0,0,1,1.5,2.7,3.72,3.72,0,0,1-2,3.1,8.34,8.34,0,0,1-4.75,1.3,8.57,8.57,0,0,1-4.8-1.3,3.72,3.72,0,0,1-1.95-3.1,3.48,3.48,0,0,1,1.5-2.75l.55.6h0l1.15.9a3.48,3.48,0,0,0,1,2.45,3.38,3.38,0,0,0,2.5,1h.05a3.51,3.51,0,0,0,2.4-1l.15-.15a3.21,3.21,0,0,0,1-2.35l1.15-.9h.05l.5-.55"/><path class="cls-8" d="M77.45,49.9v1.15a1.44,1.44,0,0,1-.5,1.1,1.35,1.35,0,0,1-1,.45h-.05a1.54,1.54,0,0,1-1.55-1.55V49.9l1.55.25,1.6-.25"/><path class="cls-5" d="M94,56.25l1.75-1.1L96,55a4.53,4.53,0,0,0,1.15-3V51.2a49.92,49.92,0,0,0-1.35-12.5q-1.4-5.14-3.35-5.15T89.1,38.7a48.37,48.37,0,0,0-1.4,12.5v.85A4.3,4.3,0,0,0,89,55l.15.15a4.34,4.34,0,0,0,1.75,1.1V57.4a1.5,1.5,0,0,0,.45,1.1l1.1.45h0l1-.45a1.44,1.44,0,0,0,.5-1.1V56.25M87.2,56a6,6,0,0,1-1.5-3.9v-.9a48.75,48.75,0,0,1,1.5-13q1.85-7.1,5.2-6.65,3.34-.5,5.3,6.65a52.21,52.21,0,0,1,1.4,13v.9a6.53,6.53,0,0,1-1.4,3.95l-.5.55h0L96,57.5a3.21,3.21,0,0,1-1,2.35l-.15.15a3.51,3.51,0,0,1-2.4,1h0a3.38,3.38,0,0,1-2.5-1,3.48,3.48,0,0,1-1.05-2.45l-1.15-.9h0L87.2,56"/><path class="cls-6" d="M90.85,56.25a4.34,4.34,0,0,1-1.75-1.1L89,55a4.3,4.3,0,0,1-1.25-3V51.2a48.37,48.37,0,0,1,1.4-12.5q1.35-5.14,3.3-5.15t3.35,5.15A49.92,49.92,0,0,1,97.1,51.2v.85A4.53,4.53,0,0,1,96,55l-.2.15L94,56.25l-1.6.25-1.55-.25"/><path class="cls-7" d="M97.7,56.05a3.36,3.36,0,0,1,1.5,2.7,3.72,3.72,0,0,1-2,3.1,8.34,8.34,0,0,1-4.75,1.3,8.57,8.57,0,0,1-4.8-1.3,3.72,3.72,0,0,1-2-3.1A3.48,3.48,0,0,1,87.2,56l.55.6h0l1.15.9A3.48,3.48,0,0,0,89.9,60a3.38,3.38,0,0,0,2.5,1h0a3.51,3.51,0,0,0,2.4-1l.15-.15a3.21,3.21,0,0,0,1-2.35l1.15-.9h0l.5-.55"/><path class="cls-8" d="M94,56.25V57.4a1.44,1.44,0,0,1-.5,1.1l-1,.45h0l-1.1-.45a1.5,1.5,0,0,1-.45-1.1V56.25l1.55.25,1.6-.25"/><path class="cls-9" d="M28.7,69.2V59.8a1.89,1.89,0,0,1,.5-1.3l25-29.3a1.87,1.87,0,0,1,1.1-.65l1.25.15L89.35,44.05l.85.75.3,1.05v8.9h0l-2,.75V45.85L55.65,30.5,30.7,59.8v9.85l-2-.45M75.9,90.6l-.4.4a2.17,2.17,0,0,1-1.2.7L47.55,96.2l-1.2-.15-.55-.25L29.85,88.4l-.8-.75-.1-.2a1.8,1.8,0,0,1-.25-.9v-1.4h.05l1.95.8v.6L47.2,94.2l4.1-.65L69.85,90.4l4.1-.7,5-5.8,1.9.85L75.9,90.6"/><path class="cls-10" d="M28.7,69.2l2,.45L26,79.85v1.8l4.75,2.2V86l-1.95-.8H28.7L25.1,83.5l-.8-.75a1.89,1.89,0,0,1-.35-1.1v-1.8l.2-.85,4.55-9.8M88.5,55.5l2-.75,7,7.6A2.07,2.07,0,0,1,98,63.7v1.8l-.45,1.3-4,4.75L83,84.15l-1.15.65-1,0-1.9-.85,1.35-1.65,1.2.6L96,65.5V63.7l-7.5-8.2"/><path class="cls-11" d="M30.7,69.65V59.8l16.5,7.7v9.8L30.7,69.65m0,16.3v-2.1L42.5,89.3l4.7-5.5V94.2L30.7,86.55V86m27-46.6v-2.6L80.05,47.2,78.4,49.15l-20.75-9.8"/><path class="cls-12" d="M30.7,83.85,26,81.65v-1.8l16.55,7.7L47.2,77.3v6.5l-4.7,5.5L30.7,83.85"/><path class="cls-7" d="M93.6,71.55l3,1.35-15.5,20L75.9,90.6l4.9-5.85,1,0L83,84.15l10.6-12.6M45.8,95.8l-1.65,1.9-17.4-8,2.2-2.3.1.2.8.75L45.8,95.8"/><path class="cls-13" d="M26,79.85l4.75-10.2L47.2,77.3,42.5,87.55,26,79.85m43.9-8.1v5L51.3,79.9v-5l18.55-3.15"/><path class="cls-14" d="M57.65,36.75v2.6L40.7,59.2l-1.35-.8,18.3-21.65"/><path class="cls-15" d="M57.65,36.75,39.35,58.4l1.35.8L57.65,39.35l20.75,9.8h.1l1.55-1.95L57.65,36.75M30.7,59.8l25-29.3L88.5,45.85,74,63,47.2,67.5,30.7,59.8m39.15-12-5.5-2.6-2.5,3L67.55,51l2.3-3.15m-12.4.05-1.7,2,3.8,1.85,1.5-2.1-3.6-1.75"/><path class="cls-16" d="M57.45,47.85l3.6,1.75-1.5,2.1-3.8-1.85,1.7-2m12.4-.05L67.55,51l-5.7-2.75,2.5-3,5.5,2.6"/><path class="cls-17" d="M47.2,77.3V67.5L74,63V89.7l-4.1.7V79.85L51.3,83V93.55l-4.1.65V77.3m22.65-5.55L51.3,74.9v5l18.55-3.15v-5"/><path class="cls-18" d="M88.5,45.85V55.5L74,72.8V63L88.5,45.85M74,89.7V79.25l6.3,3L78.9,83.9l-5,5.8"/><path class="cls-19" d="M51.3,93.55V83l18.55-3.15V90.4L51.3,93.55"/><path class="cls-20" d="M74,79.25V72.8l7.5,8.25L96,63.7v1.8L81.45,82.85l-1.2-.6-6.3-3"/><path class="cls-21" d="M74,72.8,88.5,55.5,96,63.7,81.45,81.05,74,72.8"/><path class="cls-22" d="M73.85,84.1v2.45l3.9,1.8,5-5.75V92.8l-1,1.7v8.3l3.5,1.65,2.2-2.6V93.5l-1-1.35V76.75L86,76.1,83.7,75l-1,.55-3,3.6L78.5,78.6l-4.65,5.5m5.9,18.6V94.5a1.9,1.9,0,0,1,.25-1l.7-1.25V88l-1.4,1.65a2.11,2.11,0,0,1-1.1.65l-1.3-.1L73,88.4l-.8-.75a1.89,1.89,0,0,1-.35-1.1V84.1a1.89,1.89,0,0,1,.5-1.3L77,77.3a1.87,1.87,0,0,1,1.1-.65l1,0,2.1-2.45.55-.45,1-.55a1.65,1.65,0,0,1,.9-.25l.95.2,2.3,1.1.7.6.5.65a1.83,1.83,0,0,1,.4,1.2v14.8l.6.8a2,2,0,0,1,.35,1.15v8.35l-.45,1.3-2.2,2.6-.65.5-.45.15-1.3-.15-3.5-1.65-.8-.7a1.89,1.89,0,0,1-.35-1.1v-.1"/><path class="cls-23" d="M82.7,75.55l2.35,1-3,3.65.4.15-4.65,5.5-3.9-1.8,4.65-5.5,1.15.55,3-3.6m2.35,18.3.2,2.3-3.5-1.65,1-1.7,2.35,1"/><path class="cls-24" d="M85.05,93.85V78.45L82.7,81.2v1.4l-5,5.75-3.9-1.8V84.1l3.9,1.8,4.65-5.5-.4-.15,3-3.65-2.35-1,1-.55L86,76.1l.5.65v15.4l1,1.35v8.35l-2.2,2.6v-8.3l-.2-2.3"/><path class="cls-19" d="M85.05,93.85l-2.35-1V81.2l2.35-2.75v15.4m.2,2.3v8.3l-3.5-1.65V94.5l3.5,1.65"/><path class="cls-7" d="M86.15,106.25l-5.75,6.8-6.55-3.4,5.9-7v.1a1.89,1.89,0,0,0,.35,1.1l.8.7,3.5,1.65,1.3.15.45-.15"/></g></g></svg>