<svg xmlns="http://www.w3.org/2000/svg" viewBox="0 0 120 140"><defs><style>.cls-1{fill:#ecdcb8;}.cls-2{fill:#e5d5b2;}.cls-3{fill:#bb8044;}.cls-4{fill:#aa753e;}.cls-5{fill:#c68a4e;}.cls-6{fill:#e0d1af;}</style></defs><title>Asset 48</title><g id="Layer_2" data-name="Layer 2"><g id="Layer_1-2" data-name="Layer 1"><path class="cls-1" d="M18.35,24.3l27.5-16h0L60,0l60,35v70L60,140,0,105V35L17.25,25l.05-.05h.05l1-.6m85,47a38.54,38.54,0,0,0,5.45-7.25l2-3.95a39,39,0,0,0,2.4-7.05l.8-2.35V42a5.83,5.83,0,0,0-3-5.15h0l-5.65-3.3a61.49,61.49,0,0,1-8.35,3.25l0,.05a44.69,44.69,0,0,0-4.5,1.4l-7-4.1H83.9l-1.35-3-1.6.75-.3-.55L73.1,26.9a42.75,42.75,0,0,1,10-3.8l0-.05,2.8-.9L65.9,10.5a44.83,44.83,0,0,1-3.35,7.35L61.2,20l-1.5-.3-.9.1a3.74,3.74,0,0,0-1.25.55L51.9,23.7l-1.4.2.1.55-6.85,4L42.4,31h-3l-5,2.9L32.6,38.2l-1.2.45H26.2l-8,4.65A4.54,4.54,0,0,0,16.05,47v2.6A43.36,43.36,0,0,0,9.5,60.1,60.49,60.49,0,0,0,6.85,67L6,69.9v22a37.14,37.14,0,0,1,10.05-6.35v7.3a4.11,4.11,0,0,0,.6,2.15,4.18,4.18,0,0,0,1.55,1.6l8,4.7a35.3,35.3,0,0,0-8.7,6.85l30.3,17.65,1-1.7,2-3.95,1.45-3.7,5.35,3.15a4.28,4.28,0,0,0,2.1.55l-.65.3,1.75,4,4-1.85-1.6-3.7q5.35-3.11,10.65-6.25l3.1-4.75.7.1a39.25,39.25,0,0,0-3.8,4.65,45.23,45.23,0,0,0-4.25,7.5A53.62,53.62,0,0,0,67,127l-.65,2.3,44.75-26.1h0a6.35,6.35,0,0,0,2.2-2.2,5.89,5.89,0,0,0,.8-3v-10a46.74,46.74,0,0,1-11,6.65,4.56,4.56,0,0,0,.4-1.9V71.3m9.15,7.5.75-6.55-6.55-.8-.75,6.6,6.55.75M49,23.3l4.35-.7-.7-4.35L48.3,19,49,23.3M21.45,41l3.2-2.6L22.1,35.1l-3.25,2.6L21.45,41M10.1,48.9l2-.95-.85-2.05-2,.9.85,2.1m.75-8.7L13.6,44l3.85-2.8L14.6,37.4l-3.75,2.8"/><path class="cls-2" d="M10.85,40.2l3.75-2.8,2.85,3.75L13.6,44,10.85,40.2m81.75-2a44.69,44.69,0,0,1,4.5-1.4l0-.05a61.49,61.49,0,0,0,8.35-3.25l5.65,3.3h0A5.83,5.83,0,0,1,114,42v8.7l-.8,2.35a39,39,0,0,1-2.4,7.05l-2,3.95a38.54,38.54,0,0,1-5.45,7.25v-.65l-2.1-3.1,2.1-3.3V47a4.07,4.07,0,0,0-.55-2.1,4.26,4.26,0,0,0-1.55-1.6l-8.65-5M103,94.75a46.74,46.74,0,0,0,11-6.65v10a5.89,5.89,0,0,1-.8,3,6.35,6.35,0,0,1-2.2,2.2h0L66.3,129.3,67,127a53.62,53.62,0,0,1,2.6-6.85,45.23,45.23,0,0,1,4.25-7.5A39.25,39.25,0,0,1,77.6,108l3.4.45,15-8.7,1.1-.65,4.2-2.5A4.75,4.75,0,0,0,102.8,95l.15-.25M63.15,118.9l1.6,3.7-4,1.85-1.75-4,.65-.3h.05a4.63,4.63,0,0,0,2.2-.55l1.25-.7M52.2,116.45l-1.45,3.7-2,3.95-1,1.7-30.3-17.65a35.3,35.3,0,0,1,8.7-6.85l2,1.15,2.55,1.45,21.5,12.55M16.05,85.55A37.14,37.14,0,0,0,6,91.9v-22l.85-3A60.49,60.49,0,0,1,9.5,60.1a43.36,43.36,0,0,1,6.55-10.5V77.1l2.45,4.6-2.45,3v.85M31.4,38.65l1.2-.45-.2.45h-1M61.2,20l1.35-2.15A44.83,44.83,0,0,0,65.9,10.5L85.85,22.15l-2.8.9,0,.05a42.75,42.75,0,0,0-10,3.8l-7.4-4.3-3.8-2.25L61.2,20M81,31.85l1.6-.75,1.35,3H82.3L81,31.85M112.5,78.8,106,78.05l.75-6.6,6.55.8-.75,6.55M49,23.3,48.3,19l4.35-.7.7,4.35L49,23.3M21.45,41l-2.6-3.25,3.25-2.6,2.55,3.25L21.45,41M10.1,48.9l-.85-2.1,2-.9L12.1,48l-2,.95"/><path class="cls-3" d="M92.6,38.25l8.65,5a4.26,4.26,0,0,1,1.55,1.6,4.07,4.07,0,0,1,.55,2.1V64.25l-2.1,3.3,2.1,3.1v22.2a4.56,4.56,0,0,1-.4,1.9l-.15.25a4.75,4.75,0,0,1-1.55,1.6l-4.2,2.5-1.2.15.1.5-15,8.7L77.6,108l-.7-.1-3.1,4.75q-5.3,3.15-10.65,6.25l-1.25.7a4.63,4.63,0,0,1-2.2.55h-.05a4.28,4.28,0,0,1-2.1-.55l-5.35-3.15L30.7,103.9l.2-.7-2.75-.75-2-1.15L18.2,96.6A4.18,4.18,0,0,1,16.65,95a4.11,4.11,0,0,1-.6-2.15V84.7l2.45-3-2.45-4.6V47a4.54,4.54,0,0,1,2.15-3.7l8-4.65h6.2l.2-.45,1.75-4.3,5-2.9h3l1.35-2.55,6.85-4,.6,3.8,4.35-.7-.7-4.35-3,.5,5.65-3.35a3.74,3.74,0,0,1,1.25-.55l-.45,3.8h.1l7,.8.2-1.8,7.4,4.3,7.55,4.4.3.55,1.35,2.3h3.3l7,4.1m-4.45,39-1.2,3,2.9,1.2,1.25-2.9-2.95-1.25M79,91.4l-2.45,6.15L82.7,100l2.45-6.1L79,91.4m15-1V85.9H89.4l0,4.55H94M100.55,63l.45-3.1-3.2-.45-.4,3.15,3.15.4M24.3,39.85l-3.75,2.8L23.3,46.4l3.85-2.8L24.3,39.85m2.85,10-6.8,3,3,6.9,6.85-3-3.05-6.9m6.5,1,3.2-2.6L34.3,45.05l-3.25,2.6,2.6,3.25M27.1,96.35l1-4-4.05-1-1,4,4.05,1m4.15,1.7,6.55,3.5,3.6-6.65-6.6-3.55-3.55,6.7m11.2,8.6,1.9,1,1.15-2-2-1-1,2"/><path class="cls-4" d="M42.45,106.65l1-2,2,1-1.15,2-1.9-1M58.8,19.8l.9-.1,1.5.3.7.35,3.8,2.25-.2,1.8-7-.8h-.1l.45-3.8M79,91.4l6.15,2.45L82.7,100l-6.15-2.4L79,91.4m17,8.35-.1-.5,1.2-.15-1.1.65m-2-9.3H89.45l0-4.55H94v4.55M24.3,39.85l2.85,3.75L23.3,46.4l-2.75-3.75,3.75-2.8m9.35,11-2.6-3.25,3.25-2.6,2.55,3.25-3.2,2.6M27.1,96.35l-4.05-1,1-4,4.05,1-1,4m1,6.1,2.75.75-.2.7-2.55-1.45"/><path class="cls-5" d="M50.6,24.45l-.1-.55,1.4-.2,3-.5.7,4.35-4.35.7-.6-3.8m37.55,52.8L91.1,78.5l-1.25,2.9L87,80.2l1.2-3M100.55,63l-3.15-.4.4-3.15,3.2.45-.45,3.1M27.15,49.85l3.05,6.9-6.85,3-3-6.9,6.8-3m4.1,48.2,3.55-6.7,6.6,3.55-3.6,6.65-6.55-3.5"/><path class="cls-6" d="M17.3,24.9l1.05-.6-1,.6H17.3"/></g></g></svg>