<svg xmlns="http://www.w3.org/2000/svg" xmlns:xlink="http://www.w3.org/1999/xlink" viewBox="0 0 120 140"><defs><style>.cls-1{fill:#bb6444;}.cls-2{fill:#b55f40;}.cls-3{fill:#c26948;}.cls-4{fill:#727979;}.cls-5{fill:#f5fcff;}.cls-6{fill:#d5e5e5;}.cls-7{fill:#b9c6c6;}.cls-8{fill:#fc0;}.cls-9{fill:#a0daee;}.cls-10{fill:#c4f0ff;}.cls-11{fill:#81b0bf;}.cls-12{fill:#d7f4ff;}.cls-13{fill:#a6b1b1;}.cls-14{fill:#ddecec;}.cls-15{fill:#bcc9c9;}.cls-16{fill:#856a00;}.cls-17{fill:#cba200;}.cls-18{fill:url(#linear-gradient);}.cls-19{fill:url(#linear-gradient-2);}.cls-20{fill:#d4e2e2;}.cls-21{fill:#ecbc00;}.cls-22{fill:url(#linear-gradient-3);}.cls-23{fill:url(#linear-gradient-4);}.cls-24{fill:#dbaf00;}.cls-25{fill:#593269;}.cls-26{fill:#c16ee2;}.cls-27{fill:#79468e;}.cls-28{fill:#9b59b6;}.cls-29{fill:#ecdcb8;}</style><linearGradient id="linear-gradient" x1="-2509.2" y1="258.14" x2="-870.8" y2="258.14" gradientTransform="matrix(-0.01, -0.01, -0.01, 0.01, 31.78, 46.36)" gradientUnits="userSpaceOnUse"><stop offset="0" stop-color="#b9c6c6"/><stop offset="1" stop-color="#d4e2e2"/></linearGradient><linearGradient id="linear-gradient-2" x1="-2509.2" y1="48.99" x2="-870.8" y2="48.99" gradientTransform="matrix(0.01, -0.01, -0.01, -0.01, 33.97, 47.74)" xlink:href="#linear-gradient"/><linearGradient id="linear-gradient-3" x1="-2509.2" y1="48.99" x2="-870.8" y2="48.99" gradientTransform="matrix(0.01, -0.01, -0.01, -0.01, 66.97, 67.74)" xlink:href="#linear-gradient"/><linearGradient id="linear-gradient-4" x1="-2509.2" y1="258.14" x2="-870.8" y2="258.14" gradientTransform="matrix(-0.01, -0.01, -0.01, 0.01, 64.78, 66.36)" xlink:href="#linear-gradient"/></defs><title>Asset 105</title><g id="Layer_2" data-name="Layer 2"><g id="Layer_1-2" data-name="Layer 1"><path class="cls-1" d="M43.65,25,40,28.8l3.85,3.65L47.5,28.6,43.65,25M5.4,39.7,2.3,44l4.25,3.1,3.1-4.3-4.25-3M30.85,50.3l-4.8,2.2,2.15,4.85L33,55.2l-2.15-4.9m-5.7-26.75-.55,5.3,5.25.5.55-5.25-5.25-.55M53.85,39.3l.6,5.25L59.7,44l-.6-5.3-5.25.65M43.6,46.2l-7.2,2.3,2.25,7.2,7.25-2.25L43.6,46.2m-6.1-4.45,4.15-3.35-3.4-4.1-4.1,3.35,3.35,4.1m14-5-5-1.9-1.9,5,5.05,2,1.85-5M23.4,52.15,13.9,50l-2.1,9.55,9.45,2.1,2.15-9.5m17.8,21.2.65-5.6h0l.4-3.7L33,63,31.9,72.3l9.3,1m8.5,30.75,1.85-5-5-1.9-1.9,5,5.05,1.95M29.85,91.7l.55-5.25L25.15,86,24.6,91.2l5.25.5m-2.6,24.6,4.8-2.15-2.2-4.9-4.75,2.2,2.15,4.85M13.55,70.6l-6.2,6.7,6.7,6.2,6.2-6.75-6.7-6.15M2.8,96.1l9.6,2.55L14.9,89,5.3,86.5,2.8,96.1m47-17.6,1.7,7.4,7.4-1.75-1.75-7.4h0L49.8,78.5M37.5,104.1l4.15-3.35-3.4-4.1L34.15,100l3.35,4.1m1.15,14,7.25-2.3-2.3-7.2-7.2,2.25,2.25,7.25M0,35,60,0l60,35v70L60,140,0,105V35M87.5,23.55,87,28.85l5.25.5.55-5.25-5.25-.55m-1.75,28.6L76.25,50l-2.1,9.55,9.45,2.1,2.15-9.5m5.75-11.6L89.2,33.3,82,35.6l2.3,7.25,7.25-2.3m-20,13.55L70,49.6l-4.5,1.55L67,55.6l4.45-1.5M62.2,14l4.85-2.15L64.9,7.05,60,9.2,62.2,14m51.7,22.7-5-1.9-1.9,5,5,2,1.85-5M93.2,50.3l-4.8,2.2,2.15,4.85L95.4,55.2l-2.2-4.9m23,3.85-5.35-.5-.5,5.3,5.25.5.6-5.3m-14,24.95L98,76l-3.1,4.3,4.35,3.1,3-4.3m1.9-11.35h0l.4-3.7-9.3-1-1.1,9.3,9.3,1,.65-5.6M109,97.2l-1.9,5,5,1.95,1.85-5-5-1.9m-5,3.55-3.4-4.1L96.5,100l3.35,4.1,4.15-3.35M62.2,76.4l4.85-2.2L64.9,69.4,60,71.55l2.2,4.85m5.45,10.1L65.2,96.1l9.55,2.55L77.25,89l-9.6-2.5M75.9,70.6l-6.2,6.7,6.75,6.2,6.15-6.75L75.9,70.6M91.5,103l-2.3-7.3L82,98l2.3,7.25L91.5,103m1.25-16.5L87.5,86,87,91.2l5.25.5.55-5.25m-6,25.65L77.2,110l-2.1,9.55,9.45,2.1,2.15-9.5m-15.25,4.35L70,112l-4.5,1.55L67,118l4.45-1.55m-6.55,11.2-.85-5.25-5.2.85.8,5.2,5.25-.8"/><path class="cls-2" d="M64.9,127.65l-5.25.8-.8-5.2,5.2-.85.85,5.25M5.4,39.7l4.25,3-3.1,4.3L2.3,44,5.4,39.7M43.65,25,47.5,28.6l-3.65,3.85L40,28.8,43.65,25m7.9,11.75-1.85,5-5.05-2,1.9-5,5,1.9m-14,5-3.35-4.1,4.1-3.35,3.4,4.1L37.5,41.75m6.1,4.45,2.3,7.25L38.65,55.7,36.4,48.5l7.2-2.3m10.25-6.9,5.25-.65.6,5.3-5.25.6-.6-5.25M41.2,73.35l-9.3-1L33,63l9.35,1-.4,3.7h0l-.65,5.6M37.5,104.1,34.15,100l4.1-3.35,3.4,4.1L37.5,104.1M49.8,78.5l7.3-1.75h0l1.75,7.4L51.5,85.9l-1.7-7.4M2.8,96.1l2.5-9.6L14.9,89l-2.5,9.65L2.8,96.1M13.55,70.6l6.7,6.15-6.2,6.75-6.7-6.2,6.2-6.7m13.7,45.7-2.15-4.85,4.75-2.2,2.2,4.9-4.8,2.15M62.2,14,60,9.2l4.9-2.15,2.15,4.8L62.2,14m9.25,40.1L67,55.6l-1.55-4.45L70,49.6l1.5,4.5m20-13.55-7.25,2.3L82,35.6l7.25-2.3,2.3,7.25m-5.75,11.6-2.15,9.5-9.45-2.1L76.25,50l9.5,2.15m30.5,2-.6,5.3L110.4,59l.5-5.3,5.35.5m-12,13.6-.65,5.6-9.3-1,1.1-9.3,9.3,1-.4,3.7h0m-.2,33-4.15,3.35L96.5,100l4.1-3.35,3.4,4.1M75.9,70.6l6.7,6.15L76.45,83.5,69.7,77.3l6.2-6.7M67.65,86.5l9.6,2.5-2.5,9.65L65.2,96.1l2.45-9.6m25.1,0L92.2,91.7,87,91.2,87.5,86l5.25.5m-21.3,30L67,118l-1.55-4.5L70,112l1.5,4.5"/><path class="cls-3" d="M25.15,23.55l5.25.55-.55,5.25-5.25-.5.55-5.3m5.7,26.75L33,55.2l-4.8,2.15L26.05,52.5l4.8-2.2M23.4,52.15l-2.15,9.5-9.45-2.1L13.9,50l9.5,2.15M29.85,91.7l-5.25-.5L25.15,86l5.25.5-.55,5.25M49.7,104.1l-5.05-1.95,1.9-5,5,1.9-1.85,5m-11.05,14-2.25-7.25,7.2-2.25,2.3,7.2-7.25,2.3M87.5,23.55l5.25.55-.55,5.25L87,28.85l.55-5.3M93.2,50.3l2.2,4.9-4.85,2.15L88.4,52.5l4.8-2.2m20.7-13.6-1.85,5-5-2,1.9-5,5,1.9M102.3,79.1l-3,4.3L94.9,80.3,98,76l4.3,3.1M109,97.2l5,1.9-1.85,5-5-1.95,1.9-5M62.2,76.4,60,71.55l4.9-2.15,2.15,4.8L62.2,76.4M91.5,103l-7.25,2.25L82,98l7.25-2.3,2.3,7.3m-4.8,9.15-2.15,9.5-9.45-2.1L77.2,110l9.5,2.15"/><path class="cls-4" d="M107.85,40.3,104.9,39l1.4-1.65,2.4,1.15a1.91,1.91,0,0,1,1,1l4.5,9.5.2,1.1-.45,1.05-29.6,35-1.1.65-1.3-.15-47.1-22a1.94,1.94,0,0,1-.95-.9,2,2,0,0,1-.15-1.3l4.55-20.3a2,2,0,0,1,.45-.9l20.5-24.1a1.87,1.87,0,0,1,1.1-.65l1.25.15L64.9,18.1l-1.35,1.6L60.7,18.35,40.2,42.45,38,52.6,36.8,57.7l-1.15,5q23.55,11.06,47.1,22l29.6-35-4.5-9.5"/><path class="cls-5" d="M44.55,42.25,50.7,45.1l6.5,3,3,1.4,11.3,5.2,14.35,6.65L84.4,63.1,43.2,43.8l1.35-1.55"/><path class="cls-6" d="M44.55,42.25,43.2,43.8l-3-1.35,20.5-24.1,2.85,1.35h.05L44.55,42.25M84.4,63.1l1.45-1.75,14.3-16.85L104.8,39l.1,0,2.95,1.3L87.3,64.4l-2.9-1.3"/><path class="cls-7" d="M84.4,63.1l2.9,1.3L85.05,74.7l-3-1.45L84.4,63.1M43.2,43.8,40.85,54,38,52.6,40.2,42.45l3,1.35M36.8,57.7l47.1,22-1.15,5.1q-23.55-11-47.1-22l1.15-5"/><path class="cls-8" d="M36.8,57.7,38,52.6,40.85,54l41.2,19.3,3,1.45-1.15,5-47.1-22"/><path class="cls-9" d="M43.2,43.8,84.4,63.1,82.05,73.25,40.85,54,43.2,43.8"/><path class="cls-10" d="M50.7,45.1l-6.15-2.85L63.6,19.7,88.85,31.5,50.7,45.1M85.85,61.35,71.5,54.7l28.65-10.2L85.85,61.35M60.2,49.5l-3-1.4L95.3,34.5l3,1.4-38,13.6"/><path class="cls-11" d="M88.85,31.5,63.6,19.7h-.05l1.35-1.6,41.4,19.25L104.9,39l-.1,0L98.25,35.9l-3-1.4-6.45-3"/><path class="cls-12" d="M88.85,31.5l6.45,3L57.2,48.1l-6.5-3L88.85,31.5M71.5,54.7,60.2,49.5,98.25,35.9,104.8,39l-4.65,5.55L71.5,54.7"/><path class="cls-13" d="M87.3,64.4l20.55-24.1,4.5,9.5-29.6,35,1.15-5.1,1.15-5L87.3,64.4"/><path class="cls-14" d="M23.15,51.75l4.45-5.2L36,46.7l3.95,5.65-4.55,5.2L27,57.4l-3.8-5.65"/><path class="cls-15" d="M23.15,51.75A25.47,25.47,0,0,0,9.55,58.9H9.5l.05,0L21.2,45.05l2.45-1.25,4,2.75-4.45,5.2m16.75.6L36,46.7l4.45-2.45,2.85,1.4,10.2,14.4Q47,53.9,39.9,52.35"/><path class="cls-13" d="M36,46.7l-8.35-.15-4-2.75,16.75.45L36,46.7"/><path class="cls-4" d="M23.65,43.8,21.2,45.05,9.55,58.85,8.35,57.2,19.7,43.75a1.64,1.64,0,0,1,.6-.45l2.45-1.25.95-.25,16.75.45.85.2,2.85,1.4.75.65,9.9,14-1.35,1.55-10.2-14.4-2.85-1.4L23.65,43.8"/><path class="cls-16" d="M9.55,58.85l-.05,0V72.15L19.85,86.6l21.9.6L53.5,73.35V60.1l0-.05L54.8,58.5l.35.45a2,2,0,0,1,.35,1.15V73.35a2,2,0,0,1-.45,1.3L43.3,88.5l-.75.55-.85.15-21.9-.6L19,88.4l-.7-.6L7.9,73.35a2,2,0,0,1-.4-1.2V58.9A1.89,1.89,0,0,1,8,57.6l.35-.4,1.2,1.65"/><path class="cls-17" d="M53.5,60.1V73.35L41.75,87.2V74L53.5,60.1"/><path class="cls-18" d="M53.5,60.1,41.75,74a41.6,41.6,0,0,0-6.4-16.4l4.55-5.2q7.1,1.55,13.55,7.7l0,.05"/><path class="cls-19" d="M23.15,51.75,27,57.4a32,32,0,0,0-7.1,15.95L9.5,58.9h.05a25.47,25.47,0,0,1,13.6-7.15"/><path class="cls-20" d="M27,57.4l8.4.15A41.6,41.6,0,0,1,41.75,74l-21.9-.6A32,32,0,0,1,27,57.4"/><path class="cls-8" d="M41.75,87.2l-21.9-.6V73.35l21.9.6V87.2"/><path class="cls-21" d="M19.85,86.6,9.5,72.15V58.9L19.85,73.35V86.6"/><path class="cls-4" d="M41.35,77.2,52.7,63.75a1.64,1.64,0,0,1,.6-.45l2.45-1.25,1-.25,16.75.45.85.2,2.85,1.4.75.65,9.9,14-1.35,1.55-10.2-14.4-2.85-1.4L56.65,63.8,54.2,65.05,42.55,78.85l-1.2-1.65"/><path class="cls-16" d="M41.35,77.2l1.2,1.65,0,.05V92.15L52.85,106.6l21.9.6L86.5,93.35V80.1l0,0L87.8,78.5l.35.45a2,2,0,0,1,.35,1.15V93.35a2,2,0,0,1-.45,1.3L76.3,108.5l-.75.55-.85.15-21.9-.6-.85-.2-.7-.6L40.9,93.35a2,2,0,0,1-.4-1.2V78.9a1.89,1.89,0,0,1,.5-1.3l.35-.4"/><path class="cls-15" d="M42.55,78.85,54.2,65.05l2.45-1.25,4,2.75-4.45,5.2a25.47,25.47,0,0,0-13.6,7.15h0l0-.05M73.4,64.25l2.85,1.4,10.2,14.4Q80,73.9,72.9,72.35L69,66.7l4.45-2.45"/><path class="cls-22" d="M42.5,78.9h0a25.47,25.47,0,0,1,13.6-7.15L60,77.4a32,32,0,0,0-7.1,15.95L42.5,78.9"/><path class="cls-21" d="M42.5,78.9,52.85,93.35V106.6L42.5,92.15V78.9"/><path class="cls-8" d="M52.85,106.6V93.35l21.9.6V107.2l-21.9-.6"/><path class="cls-13" d="M56.65,63.8l16.75.45L69,66.7l-8.35-.15-4-2.75"/><path class="cls-14" d="M56.15,71.75l4.45-5.2L69,66.7l4,5.65-4.55,5.2L60,77.4l-3.8-5.65"/><path class="cls-23" d="M74.75,94a41.6,41.6,0,0,0-6.4-16.4l4.55-5.2Q80,73.9,86.45,80.05l0,0L74.75,94"/><path class="cls-20" d="M74.75,94l-21.9-.6A32,32,0,0,1,60,77.4l8.4.15A41.6,41.6,0,0,1,74.75,94"/><path class="cls-17" d="M74.75,94,86.5,80.1V93.35L74.75,107.2V94"/><path class="cls-24" d="M44.05,104.75V95l7.55,3.5V111.9l-7.55-3.55v-3.6"/><path class="cls-8" d="M44.05,95,48.8,84.6l7.55,3.55L51.6,98.45,44.05,95"/><path class="cls-16" d="M44.05,95v9.8l-2-.7V95l.2-.8L47,83.8a1.81,1.81,0,0,1,1.15-1l1.5,0,7.55,3.55.1.05-.95,2v-.25L48.8,84.6,44.05,95"/><path class="cls-4" d="M57.3,86.4l.75.7.3,1.05V105l1,.5.85.75.3,1v2.35a2,2,0,0,1-.45,1.3l-6.35,7.5a2.11,2.11,0,0,1-1.1.65l-1.3-.1L39.4,113.4l-.8-.75a1.89,1.89,0,0,1-.35-1.1v-2.3a1.89,1.89,0,0,1,.5-1.3l3.3-3.9,2,.7-3.8,4.5v2.3l11.9,5.55,6.35-7.5v-2.35l-2.15-1V88.4l.95-2"/><path class="cls-7" d="M52.15,117.1l-11.9-5.55v-2.3l11.9,5.55v2.3"/><path class="cls-6" d="M44.05,104.75v3.6l7.55,3.55,4.75-5.65,2.15,1-6.35,7.55-11.9-5.55,3.8-4.5"/><path class="cls-13" d="M56.35,88.15v18.1L51.6,111.9V98.45l4.75-10.3m-4.2,26.65,6.35-7.55v2.35l-6.35,7.5v-2.3"/><path class="cls-25" d="M108.25,73.5l6.65-1V50.7l-3.6-11L98,42.35V64l3.15,10.6,3.25-.5v1.6l1.15,2.5,2.7-.7v-4M96.45,41.1a1.74,1.74,0,0,1,1.2-.7L111,37.8a1.76,1.76,0,0,1,1.35.25,1.88,1.88,0,0,1,.9,1.1l3.6,11,.1.6V72.45l-.45,1.3a2.21,2.21,0,0,1-1.25.7l-5,.75v2.3a2.05,2.05,0,0,1-.4,1.25,2.42,2.42,0,0,1-1.1.7l-2.7.7L104.7,80a1.91,1.91,0,0,1-1-1l-1.15-2.5,0-.15-1.1.2-1.35-.3a1.86,1.86,0,0,1-.85-1.1L96.1,64.6,96,64V42.35a1.92,1.92,0,0,1,.45-1.25"/><path class="cls-26" d="M101.15,53.05,98,42.35l13.3-2.6,3.6,11-13.75,2.35"/><path class="cls-27" d="M98,42.35l3.15,10.7V74.6L98,64V42.35"/><path class="cls-28" d="M101.15,53.05,114.9,50.7V72.45l-6.65,1-3.85.6-3.25.5V53.05"/><path class="cls-29" d="M108.25,73.5v4l-2.7.7-1.15-2.5V74.1l3.85-.6"/><path class="cls-25" d="M104.4,73.4l.3,1V85a2,2,0,0,1-.55,1.4L99,91.85v.6l-.15.8-.45.65L96.4,95.75l-1,.5-1.1,0-2.1-.8-1-.75a2.15,2.15,0,0,1-.35-1.15V92.15l-5.15-2.5-.85-.75a2,2,0,0,1-.3-1.05V77.05a1.89,1.89,0,0,1,.5-1.3l6.25-7,1.1-.65,1.25.15,9.85,4.45.85.75M92.9,90.9v2.6l2.1.8,2-1.85v-1.4L102.7,85V74.45L92.85,70l-6.25,7v10.8l6.3,3.05"/><path class="cls-29" d="M92.9,90.9l2.9,1.35L97,91.05v1.4L95,94.3l-2.1-.8V90.9"/><path class="cls-27" d="M97,91.05l-1.15,1.2.25-10.7,6.65-7.1V85L97,91.05"/><path class="cls-26" d="M86.6,77.05l6.25-7,9.85,4.45-6.65,7.1-9.45-4.5"/><path class="cls-28" d="M86.6,77.05l9.45,4.5-.25,10.7L92.9,90.9l-6.3-3.05V77.05"/></g></g></svg>