<svg xmlns="http://www.w3.org/2000/svg" viewBox="0 0 120 140"><defs><style>.cls-1{fill:#e0d1af;}.cls-2{fill:#bb8044;}.cls-3{fill:#aa753e;}.cls-4{fill:#ecdcb8;}.cls-5{fill:#e5d5b2;}.cls-6{fill:#c68a4e;}</style></defs><title>Asset 26</title><g id="Layer_2" data-name="Layer 2"><g id="Layer_1-2" data-name="Layer 1"><path class="cls-1" d="M17.05,24.85H17l1.05-.6-1,.6"/><path class="cls-2" d="M13.75,53.4l-2,.9.85,2.1,2-.95-.85-2.05M31,38.65H26.2l-8,4.65A4.54,4.54,0,0,0,16.05,47V77.1l2.45,4.6-2.45,3v8.15a4.11,4.11,0,0,0,.6,2.15,4.18,4.18,0,0,0,1.55,1.6l7.8,4.55,2.1,1.2-1.45-.4-1.2,4.55,4.5,1.2L31,104.05,52,116.3l5.6,3.3,1.75.55h.4a4.63,4.63,0,0,0,2.2-.55l1-.55,10.35-6,.55-.35,2-3,1.5-1.7,3.7.5,15.2-8.9,1,6.75,7.1-1.1-1-7-6.45,1,4.45-2.6A4.75,4.75,0,0,0,102.8,95l.25-.5.3-1.65V70.65l-2.1-3.1,2.1-3.3V47a4.07,4.07,0,0,0-.55-2.1,4.26,4.26,0,0,0-1.55-1.6L92.4,38.15l-6.8-4H82.3L80.9,31.7l-.25-.4L73,26.8l-7-4.05.6-5.35-7.1-.8-.35,3.15a3.68,3.68,0,0,0-1.6.6l-5.9,3.5-.85.1.05.35-7.1,4.15L42.4,31h-3l-5,2.9-1.7,4.15-1.65.6M0,35,60,0l60,35v70L60,140,0,105V35M104.2,61.45l-.75,6.6,6.55.75.75-6.55-6.55-.8m.35-6.65,1.2,4.45,4.4-1.25L109,53.6l-4.4,1.2m2.2,42.9,4-1.85-1.75-4-4,1.85,1.75,4"/><path class="cls-3" d="M13.75,53.4l.85,2.05-2,.95-.85-2.1,2-.9m45.4-33.65.35-3.15,7.1.8L66,22.75l-4.1-2.4A4.75,4.75,0,0,0,61,19.9l-1.25-.2-.55.05M96.8,99.2l6.45-1,1,7-7.1,1.1-1-6.75.6-.35M31,104.05,30,107.7l-4.5-1.2,1.2-4.55,1.45.4,2.9,1.7M104.55,54.8l4.4-1.2,1.2,4.4-4.4,1.25-1.2-4.45m-.35,6.65,6.55.8L110,68.8l-6.55-.75.75-6.6"/><path class="cls-4" d="M16.05,49.2V47a4.54,4.54,0,0,1,2.15-3.7l8-4.65H31a34.41,34.41,0,0,0-5.35,2.6,36.92,36.92,0,0,0-3.95,2.6,39,39,0,0,0-5.65,5.35m16.6-11.15,1.7-4.15,5-2.9h3l1.35-2.55,7.1-4.15.8-.45,5.9-3.5a3.68,3.68,0,0,1,1.6-.6l.55-.05,1.25.2-1.3,1.8-.9,1.15-3.1,3.35-2,1.75a49.44,49.44,0,0,1-16.95,8.8l0,0-4.1,1.25M73,26.8l7.7,4.5.25.4-2.65,1.2,1.75,4,4-1.85-.4-.9h2l6.8,4q-15.75,5.6-23.15,21.9a53.62,53.62,0,0,0-2.6,6.85,43.55,43.55,0,0,1-4.4,11l-2.6,3.9q-6.49,8.6-18,13.3L36.7,96.85l0,.05-.4.1L32,98.35a35.8,35.8,0,0,0-6,2.8L18.2,96.6A4.18,4.18,0,0,1,16.65,95a4.11,4.11,0,0,1-.6-2.15v-7.5a42.48,42.48,0,0,1,6.65-2.2l-.05-.05q18-5.55,25.8-19.1l2-4a44.24,44.24,0,0,0,2.4-7,51.77,51.77,0,0,1,6.8-14.3A37.84,37.84,0,0,1,73,26.8M103.35,71v21.9l-.3,1.65-6.3,2.35,0,.05-.4.1a38.86,38.86,0,0,0-19.1,11l-1.5,1.7c-.9,1.07-1.75,2.18-2.55,3.35l-10.35,6-.2-.5-3.4,1.6-1.75-.55L52,116.3l.9-3.2a51.69,51.69,0,0,1,6.8-14.35L61,97A38.59,38.59,0,0,1,82.8,83.15l0-.05,6-2.2,2-.9a42,42,0,0,0,12.55-9M58.5,66V61.4H53.9L54,66H58.5m-.85,6L50.55,73l1.05,7,7.1-1.1-1.05-7M31.05,88.3l6.55,3.5,3.6-6.65L34.6,81.6l-3.55,6.7m-1.2,5.55,1-4-4.05-1-1,4,4.05,1M75.4,43l3.15.4L79,40.3l-3.2-.45L75.4,43m1.1,48.4-2.45,6.15L80.2,100l2.45-6.1L76.5,91.4M63,105.7l-2-1-1,2,1.9,1,1.15-2m24-18,2.9,1.2L91.1,86l-2.95-1.25-1.2,3m4.55,7.75V90.9H86.9l0,4.55H91.5"/><path class="cls-5" d="M91.5,95.45H87l0-4.55h4.6v4.55M31,38.65l1.65-.6,4.1-1.25,0,0A49.44,49.44,0,0,0,53.65,28l2-1.75,3.1-3.35.9-1.15L61,19.9a4.75,4.75,0,0,1,.95.45l4.1,2.4,7,4.05a37.84,37.84,0,0,0-13.3,11.9A51.77,51.77,0,0,0,52.85,53a44.24,44.24,0,0,1-2.4,7l-2,4q-7.8,13.55-25.8,19.1l.05.05a42.48,42.48,0,0,0-6.65,2.2V84.7l2.45-3-2.45-4.6V49.2a39,39,0,0,1,5.65-5.35,36.92,36.92,0,0,1,3.95-2.6A34.41,34.41,0,0,1,31,38.65M80.9,31.7l1.4,2.45h1.3l.4.9L80,36.9l-1.75-4,2.65-1.2m11.5,6.45,8.85,5.15a4.26,4.26,0,0,1,1.55,1.6,4.07,4.07,0,0,1,.55,2.1V64.25l-2.1,3.3,2.1,3.1V71A42,42,0,0,1,90.8,80l-2,.9-6,2.2,0,.05A38.59,38.59,0,0,0,61,97l-1.3,1.75a51.69,51.69,0,0,0-6.8,14.35l-.9,3.2L31,104.05l-2.9-1.7-2.1-1.2a35.8,35.8,0,0,1,6-2.8L36.35,97l.4-.1,0-.05,4.95-1.75q11.51-4.69,18-13.3l2.6-3.9a43.55,43.55,0,0,0,4.4-11,53.62,53.62,0,0,1,2.6-6.85q7.4-16.3,23.15-21.9M103.05,94.5l-.25.5a4.75,4.75,0,0,1-1.55,1.6L96.8,99.2l-.6.35L81,108.45l-3.7-.5A38.86,38.86,0,0,1,96.4,97l.4-.1,0-.05,6.3-2.35M75.8,109.65l-2,3-.55.35c.8-1.17,1.65-2.28,2.55-3.35m-12.9,9.4-1,.55a4.63,4.63,0,0,1-2.2.55h-.4l3.4-1.6.2.5M57.65,71.9l1.05,7L51.6,80l-1.05-7,7.1-1.1m.85-6H54L53.9,61.4h4.6V66M29.85,93.85l-4.05-1,1-4,4.05,1-1,4m1.2-5.55,3.55-6.7,6.6,3.55L37.6,91.8l-6.55-3.5M75.4,43l.4-3.15,3.2.45-.45,3.1L75.4,43M63,105.7l-1.15,2-1.9-1,1-2,2,1M76.5,91.4l6.15,2.45L80.2,100l-6.15-2.4L76.5,91.4M87,87.7l1.2-3L91.1,86l-1.25,2.9L87,87.7"/><path class="cls-6" d="M50.85,24.3,50.8,24l.85-.1-.8.45m55.9,73.4-1.75-4,4-1.85,1.75,4-4,1.85"/></g></g></svg>