<svg xmlns="http://www.w3.org/2000/svg" xmlns:xlink="http://www.w3.org/1999/xlink" viewBox="0 0 120 140"><defs><style>.cls-1{fill:#bb6444;}.cls-2{fill:#c26948;}.cls-3{fill:#27ae60;}.cls-4{fill:#b55f40;}.cls-5{fill:url(#linear-gradient);}.cls-6{fill:url(#linear-gradient-2);}.cls-7{fill:url(#linear-gradient-3);}.cls-8{fill:url(#linear-gradient-4);}.cls-9{fill:url(#linear-gradient-5);}.cls-10{fill:url(#linear-gradient-6);}.cls-11{fill:url(#linear-gradient-7);}.cls-12{fill:url(#linear-gradient-8);}.cls-13{fill:url(#linear-gradient-9);}.cls-14{fill:url(#linear-gradient-10);}</style><linearGradient id="linear-gradient" x1="-819.2" y1="50.4" x2="819.2" y2="50.4" gradientTransform="matrix(0, 0, 0, 0, 14.83, 49.5)" gradientUnits="userSpaceOnUse"><stop offset="0" stop-color="#27ae60"/><stop offset="1" stop-color="#30c26d"/></linearGradient><linearGradient id="linear-gradient-2" x1="-819.2" y1="37.63" x2="819.2" y2="37.63" gradientTransform="matrix(0, 0, 0, 0, 48.33, 37.6)" xlink:href="#linear-gradient"/><linearGradient id="linear-gradient-3" x1="-819.2" y1="54.13" x2="819.2" y2="54.13" gradientTransform="matrix(0, 0, 0, 0, 40.07, 54.1)" xlink:href="#linear-gradient"/><linearGradient id="linear-gradient-4" x1="-819.2" y1="26.15" x2="819.2" y2="26.15" gradientTransform="matrix(0, 0, 0, 0, 58.97, 26.15)" xlink:href="#linear-gradient"/><linearGradient id="linear-gradient-5" x1="-819.2" y1="47.98" x2="819.2" y2="47.98" gradientTransform="matrix(0, 0, 0, 0, 63.48, 48)" xlink:href="#linear-gradient"/><linearGradient id="linear-gradient-6" x1="-819.2" y1="81.88" x2="819.2" y2="81.88" gradientTransform="matrix(0, 0, 0, 0, 86.07, 81.85)" xlink:href="#linear-gradient"/><linearGradient id="linear-gradient-7" x1="-819.2" y1="106.52" x2="819.2" y2="106.52" gradientTransform="matrix(0, 0, 0, 0, 59.33, 106.55)" xlink:href="#linear-gradient"/><linearGradient id="linear-gradient-8" x1="-819.2" y1="89.13" x2="819.2" y2="89.13" gradientTransform="matrix(0, 0, 0, 0, 72.57, 89.1)" xlink:href="#linear-gradient"/><linearGradient id="linear-gradient-9" x1="-819.2" y1="118" x2="819.2" y2="118" gradientTransform="matrix(0, 0, 0, 0, 59.97, 119.1)" xlink:href="#linear-gradient"/><linearGradient id="linear-gradient-10" x1="-819.2" y1="62.38" x2="819.2" y2="62.38" gradientTransform="matrix(0, 0, 0, 0, 27.62, 62.35)" xlink:href="#linear-gradient"/></defs><title>Asset 62</title><g id="Layer_2" data-name="Layer 2"><g id="Layer_1-2" data-name="Layer 1"><path class="cls-1" d="M29.85,29.35l.55-5.25-5.25-.55-.55,5.3,5.25.5M42.35,31h-3l-5,2.9-2,4.75H26.2l-8,4.65A4.54,4.54,0,0,0,16.05,47v3.5L13.9,50l-2.1,9.55,4.25,1V72.9l-2.5-2.3-6.2,6.7,6.7,6.2,3.45-3.7,1,1.9-2.45,3v8.15a4.11,4.11,0,0,0,.6,2.15,4.18,4.18,0,0,0,1.55,1.6l22.2,13-4,1.25,2.25,7.25,7.25-2.3-1.15-3.65,12.3,7.2.5.25a4.36,4.36,0,0,0,2.15.55h.1l2.1-.55,4.7-2.75L67,118l4.45-1.55-.65-2,3-1.8,3.1-4.75,4.1.55,8.15-4.75L91.5,103l-.15-.55,7.85-4.6L96.5,100l3.35,4.1,4.15-3.35-3.2-3.85.45-.3A4.75,4.75,0,0,0,102.8,95a4.36,4.36,0,0,0,.55-2.15V73.35h.2l.65-5.6h0l.4-3.7-1.3-.15V47a4.07,4.07,0,0,0-.55-2.1,4.26,4.26,0,0,0-1.55-1.6L90.35,37,89.2,33.3,86,34.35l-.35-.2H82.3L80.65,31.3,61.9,20.35a4.14,4.14,0,0,0-2.2-.65,3.9,3.9,0,0,0-2.15.65L46,27.15,43.65,25,40,28.8,42.35,31M9.65,42.75l-4.25-3L2.3,44l4.25,3.1,3.1-4.3M60,9.2,62.2,14l4.85-2.15L64.9,7.05C63.27,7.78,61.63,8.5,60,9.2M92.75,24.1l-5.25-.55L87,28.85l5.25.5.55-5.25m23.5,30.05-5.35-.5-.5,5.3,5.25.5.6-5.3m-4.2-12.4,1.85-5-5-1.9-1.9,5,5,2M120,35v70L60,140,0,105V35L60,0l60,35m-6.1,64.1-5-1.9-1.9,5,5,1.95,1.85-5M77.2,110l-2.1,9.55,9.45,2.1,2.15-9.5L77.2,110M64.05,122.4l-5.2.85.8,5.2,5.25-.8-.85-5.25M14.9,89,5.3,86.5,2.8,96.1l9.6,2.55L14.9,89m10.2,22.45,2.15,4.85,4.8-2.15-2.2-4.9-4.75,2.2"/><path class="cls-2" d="M29.85,29.35l-5.25-.5.55-5.3,5.25.55-.55,5.25m61.5,73.05.15.55-2.35.75,2.2-1.3m-46.6,9.75,1.15,3.65-7.25,2.3-2.25-7.25,4-1.25,4.35,2.55M16.05,60.5l-4.25-1L13.9,50l2.15.5-.3.7.3.1v9.2m76.7-36.4-.55,5.25L87,28.85l.55-5.3,5.25.55m19.3,17.65-5-2,1.9-5,5,1.9-1.85,5M113.9,99.1l-1.85,5-5-1.95,1.9-5,5,1.9M77.2,110l9.5,2.15-2.15,9.5-9.45-2.1L77.2,110"/><path class="cls-3" d="M16.05,47.6V47a4.54,4.54,0,0,1,2.15-3.7l8-4.65h6.2l2-4.75,5-2.9h3l1.35-2.55L46,27.15l11.55-6.8a3.9,3.9,0,0,1,2.15-.65,4.14,4.14,0,0,1,2.2.65l18.75,11,1.65,2.85h3.3l.35.2,4.4,2.6,10.9,6.35a4.26,4.26,0,0,1,1.55,1.6,4.07,4.07,0,0,1,.55,2.1V64.25l-2.1,3.3,2.1,3.1v22.2A4.36,4.36,0,0,1,102.8,95a4.75,4.75,0,0,1-1.55,1.6l-.45.3-1.6.9-7.85,4.6-2.2,1.3L81,108.45l-4.1-.55-3.1,4.75-3,1.8-4.2,2.4-4.7,2.75-2.1.55-.8-4-.15-.25-.25-.1-.3.1-.15.25-1,3.15h-.1l-12.3-7.2L40.4,109.6l-22.2-13A4.18,4.18,0,0,1,16.65,95a4.11,4.11,0,0,1-.6-2.15V84.7l2.45-3-1-1.9-1.45-2.7V53.35l1.35-.9.15-.15.05-.15-.05-.3-.3-.25-1.2-.3-.3-.1.3-.7v0l.9-2.4V47.7l-.05-.05-.2-.2h-.35l-.3.15m26.4-11.8-.05.05v.35l1.25,3.1-1.55.45a.31.31,0,0,0-.25.2l-.1.35.1.1.1.15,1.6,1.1h6L51,38.5l0,0,.05-.25-.05-.1,0-.05,0-.1-.25-.15-1.65-.3-.4-3.5-.1-.25-.25-.15h-.25l-.25.15-1.9,2.8,0,.05L43,35.6h-.35l-.2.2M38.7,50.85l-.3.1-.15.25-1,3.15L35.9,53.8h-.35a.3.3,0,0,0-.25.15v0a.42.42,0,0,0,0,.35l1,3h4.85l.7-1.8v-.45L41.5,55h-.3l-1.25.4V55.3l-.85-4.1L39,51l-.25-.1m16-23.9-.3.05-.25.2v.45l.7,1.8h4.85l.9-3.1V26l-.25-.2h-.35l-1.4.55L57.7,23.2,57.55,23l-.3-.1L57,23l-.15.25-.8,4.1L54.75,27m5.45,17.2A.3.3,0,0,0,60,44l-.25,0-.25.15-.1.25L59,47.85l-1.7.35-.25.1,0,.1,0,.2v.25h0L58.45,52h6l1.6-1h0l.1-.15,0-.15,0-.3-.3-.25-1.5-.4,1.2-3.15V46.2l0-.05-.2-.2H65l-2.8,1-2-2.85m27,38.55L86,83.1,85.1,79,85,78.7l-.25-.1-.3.1-.15.25-1,3.15-1.35-.55h-.35a.3.3,0,0,0-.25.15v0a.42.42,0,0,0,0,.35l1,3.05h4.85l.7-1.8V82.9l-.25-.2h-.3m-34.05,24-.25.1,0,.1-.05.2v.25h.05l1.45,3.15h6l1.6-1,.15-.15.05-.15-.05-.3-.3-.25-1.5-.4,1.2-3.15v-.35l-.05,0-.2-.2h-.35l-2.8,1-2-2.85-.25-.15-.25,0-.25.15-.1.25-.35,3.5-1.7.35M70.9,86l-.15.25-1,3.15L68.4,88.8h-.35a.3.3,0,0,0-.25.15v0l0,.35,1,3.05h4.85l.7-1.8v-.45L74,90h-.3l-1.25.4L71.6,86.2,71.45,86l-.25-.1-.3.1M26.5,59.2l-.25-.1-.3.1-.15.25-1,3.15-1.35-.55H23.1a.3.3,0,0,0-.25.15v0a.42.42,0,0,0-.05.35l.95,3.05H28.6l.7-1.8V63.4l-.25-.2h-.3l-1.25.4-.85-4.15-.15-.25"/><path class="cls-4" d="M42.35,31,40,28.8,43.65,25,46,27.15l-2.25,1.3L42.4,31h0M86,34.35,89.2,33.3,90.35,37,86,34.35m17.4,29.55,1.3.15-.4,3.7h0l-.65,5.6h-.2v-2.7l-2.1-3.1,2.1-3.3V63.9m-2.55,33,3.2,3.85-4.15,3.35L96.5,100l2.7-2.2,1.6-.9m-30,17.55.65,2L67,118l-.4-1.15,4.2-2.4M17.5,79.8l-3.45,3.7-6.7-6.2,6.2-6.7,2.5,2.3v4.2l1.45,2.7m-7.85-37-3.1,4.3L2.3,44,5.4,39.7l4.25,3M60,9.2c1.63-.7,3.27-1.42,4.9-2.15l2.15,4.8L62.2,14,60,9.2m56.25,45-.6,5.3L110.4,59l.5-5.3,5.35.5M64.05,122.4l.85,5.25-5.25.8-.8-5.2,5.2-.85M14.9,89l-2.5,9.65L2.8,96.1l2.5-9.6L14.9,89m10.2,22.45,4.75-2.2,2.2,4.9-4.8,2.15-2.15-4.85"/><path class="cls-5" d="M16.05,50.45V47.6l.3-.15h.35l.2.2.05.05v.35l-.9,2.4m0,.85,1.2.3.3.25.05.3-.05.15-.15.15-1.35.9V51.3"/><path class="cls-6" d="M42.45,35.8l.2-.2H43l2.85,1,0-.05,1.9-2.8.25-.15h.25l.25.15.1.25.4,3.5,1.65.3L51,38l0,.1,0,.05.05.1-.05.25,0,0-1.45,3.15h-6L42,40.55l-.1-.15-.1-.1.1-.35a.31.31,0,0,1,.25-.2l1.55-.45L42.4,36.2v-.35l.05-.05"/><path class="cls-7" d="M38.7,50.85,39,51l.15.25L40,55.3v.05L41.2,55h.3l.25.2v.45l-.7,1.8H36.2l-1-3a.42.42,0,0,1,0-.35v0a.3.3,0,0,1,.25-.15h.35l1.35.55,1-3.15L38.4,51l.3-.1"/><path class="cls-8" d="M54.75,27l1.25.4.8-4.1L57,23l.3-.15.3.1.15.25.95,3.15,1.4-.55h.35l.25.2v.35l-.9,3.1H54.9l-.7-1.8V27.2l.25-.2.3-.05"/><path class="cls-9" d="M60.2,44.15l2,2.85L65,46h.35l.2.2,0,.05v.35L64.4,49.7l1.5.4.3.25,0,.3,0,.15-.1.15h0l-1.6,1h-6L57,48.85h0V48.6l0-.2,0-.1.25-.1,1.7-.35.35-3.5.1-.25L59.7,44,60,44a.3.3,0,0,1,.25.15"/><path class="cls-10" d="M87.2,82.7h.3l.25.2v.45l-.7,1.8H82.2l-1-3.05a.42.42,0,0,1,0-.35v0a.3.3,0,0,1,.25-.15h.35l1.35.55,1-3.15.15-.25.3-.1.25.1.15.25L86,83.1l1.25-.4"/><path class="cls-11" d="M53.15,106.75l1.7-.35.35-3.5.1-.25.25-.15.25,0,.25.15,2,2.85,2.8-1h.35l.2.2.05,0v.35l-1.2,3.15,1.5.4.3.25.05.3-.05.15-.15.15-1.6,1h-6l-1.45-3.15H52.8v-.25l.05-.2,0-.1.25-.1"/><path class="cls-12" d="M70.9,86l.3-.1.25.1.15.25.85,4.15L73.7,90H74l.25.2v.45l-.7,1.8H68.7l-1-3.05,0-.35v0a.3.3,0,0,1,.25-.15h.35l1.35.55,1-3.15L70.9,86"/><path class="cls-13" d="M59.8,120.15h-.1a4.36,4.36,0,0,1-2.15-.55l-.5-.25h.1l1-3.15.15-.25.3-.1.25.1.15.25.8,4"/><path class="cls-14" d="M26.5,59.2l.15.25.85,4.15,1.25-.4h.3l.25.2v.45l-.7,1.8H23.75L22.8,62.6a.42.42,0,0,1,.05-.35v0a.3.3,0,0,1,.25-.15h.35l1.35.55,1-3.15L26,59.2l.3-.1.25.1"/></g></g></svg>