<svg xmlns="http://www.w3.org/2000/svg" viewBox="0 0 120 140"><defs><style>.cls-1{fill:#bb8044;}.cls-2{fill:#aa753e;}.cls-3{fill:#c68a4e;}.cls-4{fill:#115f32;}.cls-5{fill:#1b914d;}.cls-6{fill:#168344;}.cls-7{fill:#10773c;}.cls-8{fill:#797067;}.cls-9{fill:#e0d4c7;}.cls-10{fill:#cbc0b5;}.cls-11{fill:#8a3f23;}.cls-12{fill:#bb5f3c;}.cls-13{fill:#d26f49;}.cls-14{fill:#aeaeae;}.cls-15{fill:#c4b6a7;}.cls-16{fill:#7e562d;}.cls-17{fill:#b87e42;}.cls-18{fill:#a8733c;}.cls-19{fill-opacity:0.1;}.cls-20{fill:#a5a5a8;}.cls-21{fill:#775029;}.cls-22{fill:#917f57;}.cls-23{fill:#855b30;}.cls-24{fill:#f0d391;}.cls-25{fill:#d0b67d;}.cls-26{fill:#a8733d;}</style></defs><title>Asset 142</title><g id="Layer_2" data-name="Layer 2"><g id="Layer_1-2" data-name="Layer 1"><path class="cls-1" d="M109,53.6l-4.4,1.2,1.2,4.45,4.4-1.25L109,53.6M98.1,59.5l-.4,3.15,3.15.4.45-3.1-3.2-.45m-3.8,31V86H89.7l0,4.55H94.3m9,7.7-7.1,1.1,1,7,7.1-1.1-1-7m.2-30.15,6.55.75.75-6.55-6.55-.8-.75,6.6m-48.3-44.8L50.8,24l.7,4.35,4.35-.7-.7-4.35m35,58.2,1.25-2.9-3-1.25-1.2,3,2.9,1.2M109,91.85l-4,1.85,1.75,4,4-1.85-1.75-4M24.6,39.9l-3.75,2.8,2.75,3.75,3.85-2.8L24.6,39.9m10,5.2-3.25,2.6L34,51l3.2-2.6L34.6,45.1m24-21.45,7.15.8.8-7-7.1-.8-.85,7m-38,29.25,3,6.9,6.85-3-3.05-6.9-6.8,3M27.4,96.4l1-4.05-4-.95-1,4,4,1m-13.65-43-2,.9.85,2.1,2-.95-.85-2.05m21.35,38-3.55,6.7,6.55,3.5L41.7,95,35.1,91.4m50.35,2.5L79.3,91.45,76.85,97.6,83,100l2.45-6.1M60,0l60,35v70L60,140,0,105V35L60,0M42.75,106.7l1.9,1,1.15-2-2-1-1,2m-12.8,1,1.25-4.45L26.65,102l-1.2,4.55,4.5,1.2"/><path class="cls-2" d="M30,107.7l-4.5-1.2,1.2-4.55,4.55,1.3L30,107.7m79-54.1,1.2,4.4-4.4,1.25-1.2-4.45,4.4-1.2m-5.5,14.45.75-6.6,6.55.8L110,68.8l-6.55-.75m-.2,30.15,1,7-7.1,1.1-1-7,7.1-1.1m-9-7.7H89.75l0-4.55h4.6V90.5M58.65,23.65l.85-7,7.1.8-.8,7.05-7.15-.8M34.6,45.1l2.55,3.25L34,51l-2.6-3.25,3.25-2.6m-10-5.2,2.85,3.75-3.85,2.8L20.85,42.7l3.75-2.8M13.75,53.4l.85,2.05-2,.95-.85-2.1,2-.9m13.65,43-4-1,1-4,4,.95-1,4.05m58.05-2.5L83,100l-6.15-2.4,2.45-6.15,6.15,2.45m-42.7,12.8,1-2,2,1-1.15,2-1.9-1"/><path class="cls-3" d="M98.1,59.5l3.2.45-.45,3.1-3.15-.4.4-3.15M109,91.85l1.75,4-4,1.85-1.75-4,4-1.85M90.15,81.45l-2.9-1.2,1.2-3,3,1.25-1.25,2.9m-35-58.2.7,4.35-4.35.7L50.8,24l4.35-.7M20.65,52.9l6.8-3,3.05,6.9-6.85,3-3-6.9M35.1,91.4,41.7,95l-3.6,6.65-6.55-3.5,3.55-6.7"/><path class="cls-4" d="M58.55,14.55l9.1,19.75.15,1.05-.4.95-.4.4,1.2,3.2a1.85,1.85,0,0,1,0,1.35l2.3,2.8A2,2,0,0,1,71,45.2a2.07,2.07,0,0,1-.3,1.2l-1,.75-14.1,5.6-1.3.1a2,2,0,0,1-1-.8l-6.8-9.6a1.77,1.77,0,0,1-.4-1.15,2,2,0,0,1,.35-1.15L47.9,38l-1.1-1.6a1.73,1.73,0,0,1-.4-1.25,1.92,1.92,0,0,1,.5-1.2l2-2.2-.2-.7a1.54,1.54,0,0,1,.1-.95l6.1-15.45a1.82,1.82,0,0,1,1-1.1l1.5-.05a2,2,0,0,1,1.15,1.05M65.35,41l1-.35-1.85-5-.4.15,1.75-.7L56.7,15.35,50.6,30.8l.75,1.05-3,3.4,2,2.75-2.3,3.3,6.8,9.6,1.5-.55-.05-.05L69,45.3,65.35,41M51.6,32.15h-.05l-.2-.3.25.3"/><path class="cls-5" d="M65.35,41,69,45.3l-12.65,5,.05.05-1.5.55.8-6.15,9.7-3.8M56.7,15.35,65.8,35.1l-1.75.7L56.3,38.85l.4-23.5"/><path class="cls-6" d="M56.7,15.35l-.4,23.5,7.75-3.05.4-.15,1.85,5-1,.35-9.7,3.8-.8,6.15-6.8-9.6,2.3-3.3,4.95,6.9L56,38.35V38.3L51.6,32.15l-.25-.3L50.6,30.8l6.1-15.45"/><path class="cls-7" d="M50.35,38l-2-2.75,3-3.4.2.3h.05L56,38.3v.05L55.3,44.9,50.35,38"/><path class="cls-4" d="M79.45,40l.5-.75-4.3-10.85-6.4,13.9,1.25.5-.3-.1L68.9,46.1l.65.25-2.5,3.1L76,53l0,0,1,.35,4.8-6.75-1.6-2.3,1.35-1.95-2-2.4-.15.2h0l.2-.2m-11.8,3.5-.4-1a1.91,1.91,0,0,1,.2-1l6.4-13.9A1.81,1.81,0,0,1,75,26.5l1.5.05a1.82,1.82,0,0,1,1,1.1L81.8,38.5l.15.9,0,.35,1.15,1.3a2,2,0,0,1,.45,1.2l-.35,1.25-.55.8.8,1.15a2.06,2.06,0,0,1,0,2.3L78.6,54.5l-1,.75a2.05,2.05,0,0,1-1.25,0l-1-.35-.6-.3-8.35-3.3-.95-.75a1.77,1.77,0,0,1-.35-1.2,2,2,0,0,1,.45-1.15L67,46.45a1.87,1.87,0,0,1,.1-1.05l.7-1.85-.1-.1"/><path class="cls-5" d="M69.55,46.35l-.65-.25,1.3-3.45.3.1L76,44.9l-.3-16.55L80,39.2l-.5.75-.2.2-3,4.35v0l.45,4.6,3.5-4.85,1.6,2.3L77,53.35l-.55-4.3-6.85-2.7"/><path class="cls-6" d="M69.55,46.35l6.85,2.7.55,4.3-1-.35,0,0-8.9-3.5,2.5-3.1m1-3.6-1.25-.5,6.4-13.9L76,44.9,70.5,42.75m9-2.8,2,2.4L80.15,44.3l-3.5,4.85-.45-4.6v0l3-4.35h0l.15-.2"/><path class="cls-8" d="M15.25,59.05V58.5a1.89,1.89,0,0,1,.5-1.3L37.2,31.75a1.87,1.87,0,0,1,1-.65l11-2.6,1.05.05a1.64,1.64,0,0,1,.9.6l11,12.7-1.4,1.6v-.2l-11.1-12.8-11,2.6L17.25,58.5v.1l-2,.45"/><path class="cls-9" d="M49.75,30.45l11.1,12.8L39.2,68.85,28.3,56.05l21.45-25.6m-2.2,16L45.45,49l2.6,2.95,2.1-2.5-2.6-3m3,.55,3.2-3.8-4-4.6L46.5,42.4l4,4.55"/><path class="cls-10" d="M50.5,47l-4-4.55,3.2-3.85,4,4.6L50.5,47m-3-.55,2.6,3-2.1,2.5L45.45,49l2.1-2.55"/><path class="cls-11" d="M62.25,41.85l.1.1a1.89,1.89,0,0,1,.5,1.3v12.6a2,2,0,0,1-.45,1.3L40.75,82.6a2.19,2.19,0,0,1-1.15.7l-1.35-.25-18.9-9L19,74,16.4,72.7,15.55,72a2,2,0,0,1-.3-1V59.05l2-.45V70.9l2.6,1.25h0L25,74.55l3.95,1.9L39.2,81.3,60.85,55.85V43.45l1.4-1.6"/><path class="cls-12" d="M60.85,43.25v12.6L39.2,81.3V68.85l21.65-25.6M25,74.55v-8.4l3.95,2.1v8.2L25,74.55"/><path class="cls-13" d="M25,74.55l-5.05-2.4h0l-2.6-1.25V58.5L28.3,56.05l10.9,12.8V81.3L28.9,76.45v-8.2L25,66.15v8.4m5.45-14.7-.3-.3.3.35v0"/><path class="cls-14" d="M30.4,59.85v0l-.3-.35.3.3"/><path class="cls-15" d="M17.25,58.5,38.7,33.05l11-2.6L28.3,56.05l-11,2.45"/><path class="cls-11" d="M102.3,54.35l.55.7.15.8v10.6l-2,1.9V55.85l1.3-1.5M43.05,71.6V64.3l2,.15v8l-2-.9M93.5,76.8v3.1l-7.65,9.15V86L93.5,76.8"/><path class="cls-8" d="M102.3,54.35l-1.3,1.5L83.55,40.7l-17.4-1.35-21.1,25v.1l-2-.15a1.82,1.82,0,0,1,.5-1.25l21.1-25a2.09,2.09,0,0,1,.75-.55l.9-.15L83.7,38.7a1.88,1.88,0,0,1,1.15.5L102.3,54.35M45.35,78.85,44.2,78.3a2,2,0,0,1-.85-.7,2.09,2.09,0,0,1-.3-1.1V71.6l2,.9v4l.3.15v2.2m9.3,2.2L76.6,91.45v2.2L54.65,83.25v-2.2"/><path class="cls-12" d="M101,55.85v12.5L98.65,70.6l-3.3,4L93.5,76.8,85.85,86,84,88.15l-.15.15-1.95,2L80,93v-5L45.05,72.5V68L80,83V80.5l21-24.65"/><path class="cls-16" d="M101,68.35l2-1.9V78.2a2.07,2.07,0,0,1-.5,1.35l-2.35,2.6a2.37,2.37,0,0,1-1.1.65l-1.25-.2L94.5,81l-.85-.75-.15-.35V76.8l1.85-2.25V79.2l3.3,1.6L101,78.2V68.35M85,100.1l-1.5,1.7a2.11,2.11,0,0,1-1.1.65l-1.3-.15-1.25-.6-2-1L76.9,100a2,2,0,0,1-.3-1V91.45l2.7,1.25-.7-.3v6.5l3.3,1.6,1.95-2.3V88.35l.15-.2L85.85,86V98.2a2,2,0,0,1-.45,1.3l-.45.6M46.6,86.25a2.19,2.19,0,0,1-.9-.75,1.89,1.89,0,0,1-.35-1.1V76.65l2,.95v6.8l3.25,1.35,2-2.3V80.1l2,1v2.4a2.07,2.07,0,0,1-.5,1.35l-2,2.3-1.05.6-1.2-.1L46.6,86.25"/><path class="cls-17" d="M95.35,74.55l3.3-4V80.8l-3.3-1.6V74.55M80,93l2-2.65V100.5l-3.3-1.6V92.4l.7.3L80,93M47.35,77.6l3.25,1.5v6.65L47.35,84.4V77.6"/><path class="cls-18" d="M98.65,70.6,101,68.35V78.2l-2.35,2.6V70.6M81.9,90.35l1.95-2v9.9l-1.95,2.3V90.35M50.6,79.1l1.4.65.65.35v3.35l-2,2.3V79.1"/><path class="cls-19" d="M102.5,79.55,85,100.1l.45-.6a2,2,0,0,0,.45-1.3V89.05L93.5,79.9l.15.35.85.75,3.3,1.6,1.25.2a2.37,2.37,0,0,0,1.1-.65l2.35-2.6M79.8,101.7,46.6,86.25l3.25,1.35,1.2.1,1.05-.6,2-2.3a2.07,2.07,0,0,0,.5-1.35v-.2L76.6,93.65V98.9a2,2,0,0,0,.3,1l.85.75,2,1"/><path class="cls-15" d="M45.05,64.35l21.1-25,17.4,1.35-21.1,25-17.4-1.35"/><path class="cls-13" d="M45.05,64.35l17.4,1.35L80,80.5V83L45.05,68v-3.6"/><path class="cls-9" d="M83.55,40.7,101,55.85,80,80.5,62.45,65.7l21.1-25M45.05,72.5,80,88.05v5l-.65-.3-2.7-1.25L54.65,81.05l-2-1L52,79.75l-1.4-.65-3.25-1.5-2-.95-.3-.15v-4m40.7-19.3L82.9,50.8l-2.3,2.65,2.9,2.4,2.25-2.65M83.55,62,88,65.7l3.5-4.05L87.05,58l-3.5,4M84,64.8l-2.85-2.4-2.3,2.65,2.9,2.4L84,64.8"/><path class="cls-10" d="M84,64.8l-2.25,2.65-2.9-2.4,2.3-2.65L84,64.8M83.55,62l3.5-4,4.4,3.7L88,65.7,83.55,62m2.2-8.8L83.5,55.85l-2.9-2.4,2.3-2.65,2.85,2.4"/><path class="cls-20" d="M83.85,88.3l.15-.15-.15.2v0"/><path class="cls-21" d="M53.45,104.35v-5.1A1.89,1.89,0,0,1,54,98L60.4,90.3a1.87,1.87,0,0,1,1.1-.65l1.25.15,10.5,4.85.85.75.3,1v5.35l-2,1.3V96.45L61.9,91.6l-6.45,7.65v5.85l-2-.75"/><path class="cls-1" d="M55.45,99.25,61.9,91.6l10.5,4.85L66,104.1l-10.5-4.85"/><path class="cls-22" d="M74.4,101.8l1.5.7.4.25.45.5.3,1v3l-.45,1.3-8.7,10.1a2.38,2.38,0,0,1-1.15.65l-1.25-.15L52,112.75l-.85-.7a2.09,2.09,0,0,1-.3-1.1v-2.8a1.89,1.89,0,0,1,.5-1.3l2.1-2.5,2,.75-2.6,3.05V111l13.5,6.45,8.7-10.1v-3l-2.65-1.2,2-1.3"/><path class="cls-23" d="M72.4,96.45v8.45L66,112.55V104.1l6.45-7.65"/><path class="cls-24" d="M66,112.55l6.45-7.65v-1.8l2.65,1.2-8.7,10-13.5-6.2,2.6-3.05v2.6L66,112.55"/><path class="cls-25" d="M75.05,104.3v3l-8.7,10.1L52.85,111v-2.8l13.5,6.2,8.7-10"/><path class="cls-26" d="M55.45,105.1V99.25L66,104.1v8.45l-10.5-4.85v-2.6"/></g></g></svg>