<svg xmlns="http://www.w3.org/2000/svg" xmlns:xlink="http://www.w3.org/1999/xlink" viewBox="0 0 120 140"><defs><style>.cls-1{fill:#27ae60;}.cls-2{fill:url(#linear-gradient);}.cls-3{fill:url(#linear-gradient-2);}.cls-4{fill:url(#linear-gradient-3);}.cls-5{fill:url(#linear-gradient-4);}.cls-6{fill:url(#linear-gradient-5);}.cls-7{fill:url(#linear-gradient-6);}.cls-8{fill:url(#linear-gradient-7);}.cls-9{fill:url(#linear-gradient-8);}.cls-10{fill:url(#linear-gradient-9);}.cls-11{fill:url(#linear-gradient-10);}.cls-12{fill:url(#linear-gradient-11);}.cls-13{fill:url(#linear-gradient-12);}.cls-14{fill:url(#linear-gradient-13);}.cls-15{fill:url(#linear-gradient-14);}.cls-16{fill:url(#linear-gradient-15);}.cls-17{fill:#115f32;}.cls-18{fill:#1b914d;}.cls-19{fill:#168344;}.cls-20{fill:#727979;}.cls-21{fill:#99a3a3;}.cls-22{fill:#d5e5e5;}.cls-23{fill:#b9c6c6;}.cls-24{fill:#178044;}.cls-25{fill:#136d3a;}.cls-26{fill:#c9d7d7;}.cls-27{fill:#d9cbaa;}.cls-28{fill:#b8ac90;}.cls-29{fill:#726a59;}.cls-30{fill:#0f582f;}.cls-31{fill:#10773c;}</style><linearGradient id="linear-gradient" x1="-2769.2" y1="49.53" x2="-1130.8" y2="49.53" gradientTransform="matrix(0, 0, 0, 0, 12.18, 40.18)" gradientUnits="userSpaceOnUse"><stop offset="0" stop-color="#27ae60"/><stop offset="1" stop-color="#30c26d"/></linearGradient><linearGradient id="linear-gradient-2" x1="-2769.2" y1="54.17" x2="-1130.8" y2="54.17" gradientTransform="matrix(0, 0, 0, 0, 37.97, 46.38)" xlink:href="#linear-gradient"/><linearGradient id="linear-gradient-3" x1="-2769.2" y1="26.2" x2="-1130.8" y2="26.2" gradientTransform="matrix(0, 0, 0, 0, 56.87, 18.43)" xlink:href="#linear-gradient"/><linearGradient id="linear-gradient-4" x1="-2769.2" y1="37.67" x2="-1130.8" y2="37.67" gradientTransform="matrix(0, 0, 0, 0, 45.68, 28.13)" xlink:href="#linear-gradient"/><linearGradient id="linear-gradient-5" x1="-2769.2" y1="48.03" x2="-1130.8" y2="48.03" gradientTransform="matrix(0, 0, 0, 0, 60.83, 38.68)" xlink:href="#linear-gradient"/><linearGradient id="linear-gradient-6" x1="-2769.2" y1="30.38" x2="-1130.8" y2="30.38" gradientTransform="matrix(0, 0, 0, 0, 90.87, 22.58)" xlink:href="#linear-gradient"/><linearGradient id="linear-gradient-7" x1="-2769.2" y1="81.92" x2="-1130.8" y2="81.92" gradientTransform="matrix(0, 0, 0, 0, 83.97, 74.13)" xlink:href="#linear-gradient"/><linearGradient id="linear-gradient-8" x1="-2769.2" y1="98.08" x2="-1130.8" y2="98.08" gradientTransform="matrix(0, 0, 0, 0, 106.37, 90.28)" xlink:href="#linear-gradient"/><linearGradient id="linear-gradient-9" x1="-2769.2" y1="89.17" x2="-1130.8" y2="89.17" gradientTransform="matrix(0, 0, 0, 0, 70.47, 81.38)" xlink:href="#linear-gradient"/><linearGradient id="linear-gradient-10" x1="-2769.2" y1="106.58" x2="-1130.8" y2="106.58" gradientTransform="matrix(0, 0, 0, 0, 56.68, 97.23)" xlink:href="#linear-gradient"/><linearGradient id="linear-gradient-11" x1="-2769.2" y1="119.17" x2="-1130.8" y2="119.17" gradientTransform="matrix(0, 0, 0, 0, 57.87, 111.38)" xlink:href="#linear-gradient"/><linearGradient id="linear-gradient-12" x1="-2769.2" y1="121.33" x2="-1130.8" y2="121.33" gradientTransform="matrix(0, 0, 0, 0, 72.28, 111.98)" xlink:href="#linear-gradient"/><linearGradient id="linear-gradient-13" x1="-2769.2" y1="116.92" x2="-1130.8" y2="116.92" gradientTransform="matrix(0, 0, 0, 0, 44.68, 107.58)" xlink:href="#linear-gradient"/><linearGradient id="linear-gradient-14" x1="-2769.2" y1="62.42" x2="-1130.8" y2="62.42" gradientTransform="matrix(0, 0, 0, 0, 25.52, 54.63)" xlink:href="#linear-gradient"/><linearGradient id="linear-gradient-15" x1="-2769.2" y1="102.17" x2="-1130.8" y2="102.17" gradientTransform="matrix(0, 0, 0, 0, 14.43, 92.83)" xlink:href="#linear-gradient"/></defs><title>Asset 135</title><g id="Layer_2" data-name="Layer 2"><g id="Layer_1-2" data-name="Layer 1"><path class="cls-1" d="M120,105,60,140,0,105V35L60,0l60,35v70M8.6,50.15v.25h.05l1.45,3.15h6l1.6-1,.15-.15,0-.15,0-.3-.3-.25-1.5-.4,1.2-3.15v-.35l-.05,0-.2-.2h-.35l-2.8,1-2-2.85-.25-.15-.25,0-.25.15-.1.25-.35,3.5L9,49.75l-.25.1,0,.1-.05.2m29.95,1.1-1,3.15-1.35-.55h-.35a.3.3,0,0,0-.25.15v0a.42.42,0,0,0-.05.35l1,3.05h4.85l.7-1.8V55.2L41.8,55h-.3l-1.25.4-.85-4.15L39.25,51,39,50.9l-.3.1-.15.25M60.7,25.85h-.35L59,26.4l-1-3.15L57.85,23l-.3-.1-.3.15-.15.25-.8,4.1L55.05,27l-.3.05-.25.2v.45l.7,1.8h4.85l.9-3.1v-.35l-.25-.2M49.35,37.55l-.4-3.5-.1-.25-.25-.15h-.25l-.25.15-2,2.85-2.85-1H43l-.2.2,0,0v.35L44,39.35l-1.55.45-.25.2-.1.35.1.1.1.15,1.6,1.1h6l1.45-3.15.05,0,0-.25-.1-.15,0-.1L51,37.85l-1.65-.3m7.9,11.1v.25h0l1.45,3.15h6l1.6-1,.15-.15,0-.15,0-.3-.3-.25-1.5-.4,1.2-3.15v-.35l-.05,0-.2-.2H65.3l-2.8,1-2-2.85a.3.3,0,0,0-.25-.15L60,44l-.25.15-.1.25-.35,3.5-1.7.35-.25.1-.05.1,0,.2M91.9,27.1l-.3.1a.3.3,0,0,0-.15.25l-1,3.15-1.35-.55h-.35l-.25.15v.05a.42.42,0,0,0,0,.35l1,3h4.85l.7-1.8V31.4l-.25-.2h-.3l-1.25.4-.85-4.15-.15-.25-.25-.1M87.5,82.75l-1.25.4L85.4,79l-.15-.25-.25-.1-.3.1a.3.3,0,0,0-.15.25l-1,3.15L82.2,81.6h-.35l-.25.15v0a.42.42,0,0,0,0,.35l1,3h4.85l.7-1.8V83l-.25-.2h-.3M107.65,94.9l-.25-.1-.3.1-.15.25-1,3.15-1.35-.55h-.35a.3.3,0,0,0-.25.15v0a.42.42,0,0,0,0,.35l1,3h4.85l.7-1.8V99.1l-.25-.2h-.3l-1.25.4-.85-4.15-.15-.25M71.75,86l-.25-.1-.3.1a.3.3,0,0,0-.15.25l-1,3.15-1.35-.55h-.35L68.1,89v0a.42.42,0,0,0,0,.35l1,3h4.85l.7-1.8V90.2L74.3,90H74l-1.25.4-.85-4.15L71.75,86m-10,18.8,0,0-.2-.2h-.35l-2.8,1-2-2.85a.3.3,0,0,0-.25-.15l-.25,0-.25.15-.1.25-.35,3.5-1.7.35-.25.1-.05.1,0,.2v.25h0l1.45,3.15h6l1.6-1,.15-.15,0-.15,0-.3-.3-.25-1.5-.4,1.2-3.15v-.35M61.4,120l-1.25.4-.85-4.15-.15-.25-.25-.1-.3.1a.3.3,0,0,0-.15.25l-1,3.15-1.35-.55h-.35l-.25.15v0a.42.42,0,0,0,0,.35l.95,3h4.85l.7-1.8v-.45l-.25-.2h-.3m7.4,1.65,0,.1,0,.2v.25h0l1.45,3.15h6l1.6-1,.15-.15,0-.15,0-.3-.3-.25-1.5-.4,1.2-3.15v-.35l0,0-.2-.2h-.35l-2.8,1-2-2.85-.25-.15-.25,0a.58.58,0,0,0-.25.15l-.1.25-.35,3.5-1.7.35-.25.1M44.35,113.1a.3.3,0,0,0-.25-.15l-.25,0-.25.15-.1.25-.35,3.5-1.7.35-.25.1-.05.1,0,.2v.25h0L42.6,121h6l1.6-1,.15-.15,0-.15,0-.3-.3-.25-1.5-.4,1.2-3.15v-.35l0-.05-.2-.2h-.35l-2.8,1-2-2.85M29.6,63.5v0l-.25-.2h-.3l-1.25.4L27,59.5l-.15-.25-.25-.1-.3.1-.15.25-1,3.15-1.35-.55H23.4a.3.3,0,0,0-.25.15v0a.42.42,0,0,0,0,.35l.95,3.05H28.9l.7-1.8v-.4M16.1,101.2l-2-2.85-.25-.15-.25,0-.25.15-.1.25-.35,3.5-1.7.35-.25.1,0,.1-.05.2v.25h.05l1.45,3.15h6l1.6-1,.15-.15,0-.15,0-.3-.3-.25-1.5-.4,1.2-3.15v-.35l-.05-.05-.2-.2H18.9l-2.8,1"/><path class="cls-2" d="M8.6,50.15l.05-.2,0-.1.25-.1,1.7-.35L11,45.9l.1-.25.25-.15.25,0,.25.15,2,2.85,2.8-1H17l.2.2.05,0v.35l-1.2,3.15,1.5.4.3.25,0,.3,0,.15-.15.15-1.6,1h-6L8.65,50.4H8.6v-.25"/><path class="cls-3" d="M38.55,51.25,38.7,51l.3-.1.25.1.15.25.85,4.15L41.5,55h.3l.25.2v.45l-.7,1.8H36.5l-1-3.05a.42.42,0,0,1,.05-.35v0a.3.3,0,0,1,.25-.15h.35l1.35.55,1-3.15"/><path class="cls-4" d="M60.7,25.85l.25.2v.35l-.9,3.1H55.2l-.7-1.8v-.45l.25-.2.3-.05,1.25.4.8-4.1.15-.25.3-.15.3.1.15.25,1,3.15,1.4-.55h.35"/><path class="cls-5" d="M49.35,37.55l1.65.3.25.15,0,.1.1.15,0,.25-.05,0L49.85,41.7h-6l-1.6-1.1-.1-.15-.1-.1.1-.35.25-.2L44,39.35l-1.25-3.1V35.9l0,0,.2-.2h.35l2.85,1,2-2.85.25-.15h.25l.25.15.1.25.4,3.5"/><path class="cls-6" d="M57.25,48.65l0-.2.05-.1.25-.1,1.7-.35.35-3.5.1-.25L60,44l.25,0a.3.3,0,0,1,.25.15l2,2.85,2.8-1h.35l.2.2.05,0v.35l-1.2,3.15,1.5.4.3.25,0,.3,0,.15-.15.15-1.6,1h-6L57.3,48.9h0v-.25"/><path class="cls-7" d="M91.9,27.1l.25.1.15.25.85,4.15,1.25-.4h.3l.25.2v.45l-.7,1.8H89.4l-1-3a.42.42,0,0,1,0-.35V30.2l.25-.15h.35l1.35.55,1-3.15a.3.3,0,0,1,.15-.25l.3-.1"/><path class="cls-8" d="M87.5,82.75h.3l.25.2v.45l-.7,1.8H82.5l-1-3a.42.42,0,0,1,0-.35v0l.25-.15h.35l1.35.55,1-3.15a.3.3,0,0,1,.15-.25l.3-.1.25.1.15.25.85,4.15,1.25-.4"/><path class="cls-9" d="M107.65,94.9l.15.25.85,4.15,1.25-.4h.3l.25.2v.45l-.7,1.8H104.9l-1-3a.42.42,0,0,1,0-.35v0a.3.3,0,0,1,.25-.15h.35l1.35.55,1-3.15.15-.25.3-.1.25.1"/><path class="cls-10" d="M71.75,86l.15.25.85,4.15L74,90h.3l.25.2v.45l-.7,1.8H69l-1-3a.42.42,0,0,1,0-.35v0l.25-.15h.35l1.35.55,1-3.15A.3.3,0,0,1,71.2,86l.3-.1.25.1"/><path class="cls-11" d="M61.75,104.8v.35l-1.2,3.15,1.5.4.3.25,0,.3,0,.15-.15.15-1.6,1h-6l-1.45-3.15h0v-.25l0-.2.05-.1.25-.1,1.7-.35.35-3.5.1-.25.25-.15.25,0a.3.3,0,0,1,.25.15l2,2.85,2.8-1h.35l.2.2,0,0"/><path class="cls-12" d="M61.4,120h.3l.25.2v.45l-.7,1.8H56.4l-.95-3a.42.42,0,0,1,0-.35v0l.25-.15h.35l1.35.55,1-3.15a.3.3,0,0,1,.15-.25l.3-.1.25.1.15.25.85,4.15,1.25-.4"/><path class="cls-13" d="M68.8,121.65l.25-.1,1.7-.35.35-3.5.1-.25a.58.58,0,0,1,.25-.15l.25,0,.25.15,2,2.85,2.8-1h.35l.2.2,0,0v.35l-1.2,3.15,1.5.4.3.25,0,.3,0,.15-.15.15-1.6,1h-6l-1.45-3.15h0V122l0-.2,0-.1"/><path class="cls-14" d="M44.35,113.1l2,2.85,2.8-1h.35l.2.2,0,.05v.35l-1.2,3.15,1.5.4.3.25,0,.3,0,.15-.15.15-1.6,1h-6l-1.45-3.15h0v-.25l0-.2.05-.1.25-.1,1.7-.35.35-3.5.1-.25.25-.15.25,0a.3.3,0,0,1,.25.15"/><path class="cls-15" d="M29.6,63.5v.4l-.7,1.8H24.05l-.95-3.05a.42.42,0,0,1,0-.35v0a.3.3,0,0,1,.25-.15h.35l1.35.55,1-3.15.15-.25.3-.1.25.1.15.25.85,4.15,1.25-.4h.3l.25.2v0"/><path class="cls-16" d="M16.1,101.2l2.8-1h.35l.2.2.05.05v.35l-1.2,3.15,1.5.4.3.25,0,.3,0,.15-.15.15-1.6,1h-6l-1.45-3.15h-.05v-.25l.05-.2,0-.1.25-.1,1.7-.35.35-3.5.1-.25.25-.15.25,0,.25.15,2,2.85"/><path class="cls-17" d="M34.2,26.65a1.82,1.82,0,0,1,1,1.1l4.3,10.85.15.9-.05.35,1.15,1.3a2,2,0,0,1,.45,1.2,1.84,1.84,0,0,1-.35,1.25l-.55.8.8,1.15a2.06,2.06,0,0,1,0,2.3l-4.8,6.75-1,.75a2.05,2.05,0,0,1-1.25,0L33.05,55l-.6-.3L24.1,51.4a2.16,2.16,0,0,1-1-.75,1.77,1.77,0,0,1-.35-1.2,2,2,0,0,1,.45-1.15l1.45-1.75a1.87,1.87,0,0,1,.1-1l.7-1.85-.1-.1a1.84,1.84,0,0,1-.4-.95,1.91,1.91,0,0,1,.2-1.05l6.4-13.9a1.81,1.81,0,0,1,1.1-1l1.5,0M37,40.25l.2-.2.5-.75L33.4,28.45,27,42.35l1.25.5-.3-.1-1.3,3.45.65.25-2.5,3.1,8.9,3.5-.05.05,1.05.35,4.8-6.75-1.6-2.3,1.35-1.95-2-2.4-.15.2h0"/><path class="cls-18" d="M37,40.25,34,44.6v0l.45,4.6,3.5-4.85,1.6,2.3-4.8,6.75-.55-4.3-6.85-2.7-.65-.25L28,42.75l.3.1L33.7,45l-.3-16.55L37.7,39.3l-.5.75-.2.2"/><path class="cls-19" d="M37,40.25h0l.15-.2,2,2.4L37.9,44.4l-3.5,4.85L34,44.65v0l3-4.35m-3.6-11.8L33.7,45l-5.45-2.15L27,42.35l6.4-13.9m-6.1,18,6.85,2.7.55,4.3-1.05-.35.05-.05-8.9-3.5,2.5-3.1"/><path class="cls-20" d="M37.55,32.7l7.15-8.45a1.87,1.87,0,0,1,1.1-.65l1.25.15L58.4,29a1.78,1.78,0,0,1,.85.75l.3,1.05v7.5l14.75,6.8.15.05V41.85a1.89,1.89,0,0,1,.5-1.3L86.5,26.85a1.87,1.87,0,0,1,1.1-.65l1.25.15L110,36.1l.85.75.3,1v7a2,2,0,0,1-.45,1.3l-2.8,3.3V65.25l4.7,5.35a1.89,1.89,0,0,1,.5,1.3v3.9a2,2,0,0,1-.45,1.3l-13,15.45a2.11,2.11,0,0,1-1.1.65l-1.3-.15L86.6,88,76.35,100,78,104.8l0,1-.4.9-8.95,10.4a2.11,2.11,0,0,1-1.1.65l-1.25-.1-14.15-6.5a2,2,0,0,1-1-1.05,1.72,1.72,0,0,1-.1-1.4l1-2.9L27,94.1l-2.1,2.55a2.11,2.11,0,0,1-1.1.65l-1.25-.1L8.45,90.7a2,2,0,0,1-1-1,1.72,1.72,0,0,1-.1-1.4L9.65,81V66.45a1.82,1.82,0,0,1,.5-1.25l7.15-8.5a1.75,1.75,0,0,1,1.1-.7l1.25.15,4.7,2.15,12.7-15V34a1.89,1.89,0,0,1,.5-1.3M56,38.8l1.55.65v-8.7L46.2,25.55,39.05,34V44L24.9,60.75,18.8,58l-7.15,8.5v14.8l-2.4,7.6,14.1,6.5,3.1-3.7,28,13.1L53,109.3l14.15,6.5,9-10.4-2-5.9,12-14,12,5.7,13-15.45V71.9l-5.2-5.9V48.75l3.25-3.85v-7L88,28.15,76.45,41.85V48L75.2,46.4l-2.6.7.85-.25L56,38.8M51,63l3-3.7,1.5.65.3-.3-3.3,4-2,1.3-.4-.15-3.6-1.7L37.75,73.5,56.6,82.25l.1-.15,1.1-1.65,1,.45,1.1.5-2.7,3.3L34.55,74.2,46,60.55,51,63M75,73.8l-.65.75.4-.5L75,73.8"/><path class="cls-21" d="M50.35,39.2l7.2-8.45v8.7L56,38.8l-4.1,4.8v4.55l9.75,4.55-.65.65-8.45-3.9V51.4L50.35,54V39.2M48,44.45V48.8l-1.1,1.55V52.3L46,60.55,34.55,74.2h0l-1.2-.6-.45-.2-.5-.25L30.1,72.1l-1.5-.9-4.15,5v4.4l30.9,14.55v.9L25.15,81.9v1.95L23,86.45V71.65l7.15-8.5v2.4L48,44.45M109.1,37.9v7l-3.25,3.85V66L96.7,77.1V59.45L87.35,55.2l-.15-.1-7.7-3.45L79,51,76.45,48.6l21.15,10v-7L109.1,37.9m2,34v3.9l-13,15.45V87.1l13-15.2m-25,13.65-12,14-.2-1.1-7.2,8.5V92.1l7.2-8.5V86L88.85,68.15v4.4l-.45.65-1.05,1.5-1.3,6.75v4.1m3.5-48.5-3.9,4.75-.05.05L83,40.55,89.55,33v4.1"/><path class="cls-22" d="M89.55,37.05l10.3,5,.15,0,2.35-3-12.8-6L83,40.55l2.6,1.3.05-.05,3.9-4.75m-32-6.3-7.2,8.45L39.05,34l7.15-8.45,11.35,5.2M51.9,43.6,56,38.8l17.45,8.05-.85.25-8.35,2.35L51.9,43.6M39.05,44l2.4-2.8L48,44.45,30.1,65.55v-2.4L23,71.65l-11.3-5.2L18.8,58l6.1,2.8L39.05,44M24.45,76.2l4.15-5,1.5.9,2.25,1.05.5.25.45.2,1.2.6h0l22.6,10.5,2.7-3.3.1,0,2.35-3,6.35,2.85L73.4,75.7l.95-1.15L75,73.8l7.35-8.65,6.5,3L73.9,86V83.6l-7.2,8.5L55.35,86.85V90.6L24.45,76.2m52-34.35L88,28.15l21.1,9.75L97.6,51.65l-21.15-9.8"/><path class="cls-23" d="M76.45,41.85l21.15,9.8v7l-21.15-10V41.85M50.35,39.2V54l2.2-2.6V49.45L61,53.35,55.85,59.6l-.3.3-1.5-.65L51,63l-.65-9-3.5-1.7V50.35L48,48.8V44.45l-6.5-3.25L39.05,44V34l11.3,5.2m11.3,13.5L51.9,48.15V43.6l12.35,5.85-2.6,3.25M23,71.65v14.8l2.2-2.6V81.9l30.2,14.15v-.9L24.45,80.6V76.2l30.9,14.4V86.85L66.7,92.1v14.8l7.2-8.5.2,1.1,2,5.9-9,10.4-.4-8.9-11.35-5.25-1,3.1L26.45,91.65l-3.1,3.7-.4-8.9-11.3-5.2V66.45L23,71.65M105.85,66l5.2,5.9-13,15.2v4.15l-12-5.7v-4.1l12,5.65-1.35-10L105.85,66M79.5,51.65l7.7,3.45.15.1,9.35,4.25V77.1l-8.3-3.9.45-.65v-4.4l-6.5-3-2.85-3.3V51.65m10-14.6V33l12.8,6-2.35,3-.15,0-10.3-5"/><path class="cls-24" d="M75.2,46.4,76.45,48v.65L79,51l.5.7v10.2l2.85,3.3L75,73.8l-.25.25L63.2,60.55l12-14.15"/><path class="cls-25" d="M75.2,46.4l-12,14.15,11.55,13.5-.4.5L73.4,75.7,62.8,63.5,52.55,66.65V63.6l3.3-4L61,53.35l.65-.65,2.6-3.25L72.6,47.1l2.6-.7"/><path class="cls-26" d="M46.85,52.3l3.5,1.7L51,63l-5-2.4.85-8.25M67.1,115.8,53,109.3l1.45-4.55,1-3.1L66.7,106.9l.4,8.9M23.35,95.35l-14.1-6.5,2.4-7.6L23,86.45l.4,8.9m62.7-13.9,1.3-6.75,1.05-1.5,8.3,3.9,1.35,10-12-5.65"/><path class="cls-27" d="M73.4,75.7l-4.75,5.55L62.3,78.4l-2.35,3-.1,0-1.1-.5V72.45l-4-2v8.6L52.55,78V66.65L62.8,63.5,73.4,75.7"/><path class="cls-28" d="M54.8,79.05v-8.6l4,2V80.9l-1-.45-3-1.4"/><path class="cls-29" d="M54.8,79.05l3,1.4L56.7,82.1l-5-2.35-.8-.7a1.89,1.89,0,0,1-.35-1.1V67.25l2-.65V78l2.25,1.1"/><path class="cls-30" d="M50.55,67.25V64.9l2-1.3v3l-2,.65"/><path class="cls-17" d="M92.55,72.05l9.1,19.75.15,1-.4,1-.4.4,1.2,3.2a1.85,1.85,0,0,1,0,1.35l2.3,2.8a2,2,0,0,1,.45,1.15,2.07,2.07,0,0,1-.3,1.2l-1,.75-14.1,5.6-1.3.1a2,2,0,0,1-1-.8l-6.8-9.6a1.77,1.77,0,0,1-.4-1.15,2,2,0,0,1,.35-1.15l1.5-2.15-1.1-1.6a1.73,1.73,0,0,1-.4-1.25,1.92,1.92,0,0,1,.5-1.2l1.95-2.2-.2-.7a1.54,1.54,0,0,1,.1-1l6.1-15.45a1.82,1.82,0,0,1,1.05-1.1l1.5,0a2,2,0,0,1,1.15,1m-7,17.6h0l-.2-.3.25.3m5.1-16.8L84.6,88.3l.75,1-2.95,3.4,1.95,2.75-2.3,3.3,6.8,9.6,1.5-.55,0,0,12.65-5-3.6-4.35,1-.35-1.85-4.95-.4.15,1.75-.7L90.7,72.85"/><path class="cls-31" d="M85.35,89.35l.2.3h0L90,95.8v0l-.65,6.55-5-6.9L82.4,92.75l2.95-3.4"/><path class="cls-19" d="M85.35,89.35l-.75-1,6.1-15.45-.4,23.5,7.75-3,.4-.15,1.85,4.95-1,.35-9.7,3.8-.8,6.15-6.8-9.6,2.3-3.3,5,6.9L90,95.85v0L85.6,89.65l-.25-.3"/><path class="cls-18" d="M90.7,72.85,99.8,92.6l-1.75.7-7.75,3,.4-23.5m8.65,25.6,3.6,4.35-12.65,5,0,0-1.5.55.8-6.15,9.7-3.8"/></g></g></svg>