<svg xmlns="http://www.w3.org/2000/svg" viewBox="0 0 120 140"><defs><style>.cls-1{fill:#bb8044;}.cls-2{fill:#c68a4e;}.cls-3{fill:#aa753e;}.cls-4{fill:#115f32;}.cls-5{fill:#1b914d;}.cls-6{fill:#168344;}.cls-7{fill:#10773c;}.cls-8{fill:#855b30;}.cls-9{fill:#af783f;}.cls-10{fill:#cd8c4a;}</style></defs><title>Asset 38</title><g id="Layer_2" data-name="Layer 2"><g id="Layer_1-2" data-name="Layer 1"><path class="cls-1" d="M120,105,60,140,0,105V35L60,0l60,35v70M59.5,16.6l-.85,7,7.15.8.8-7-7.1-.8m-4.35,6.65L50.8,24l.7,4.35,4.35-.7-.7-4.35m49.4,31.55,1.2,4.45,4.4-1.25L109,53.6l-4.4,1.2M101.3,60l-3.2-.45-.4,3.15,3.15.4.45-3.1M23.6,46.45l3.85-2.8L24.6,39.9l-3.75,2.8,2.75,3.75m11-1.35-3.25,2.6L34,51l3.2-2.6L34.6,45.1M13.75,53.4l-2,.9.85,2.1,2-.95-.85-2.05m21.35,38-3.55,6.7,6.55,3.5L41.7,95,35.1,91.4M20.65,52.9l3,6.9,6.85-3-3.05-6.9-6.8,3m83.55,8.55-.75,6.6,6.55.75.75-6.55-6.55-.8M26.65,102l-1.2,4.55,4.5,1.2,1.25-4.45L26.65,102M24.35,91.4l-1,4,4,1,1-4.05-4-.95m64.1-14.1-1.2,3,2.9,1.2,1.25-2.9-3-1.25M83,100l2.45-6.1L79.3,91.45,76.85,97.6,83,100m13.15-.7,1,7,7.1-1.1-1-7-7.1,1.1M89.7,86l0,4.55H94.3V86H89.7M105,93.7l1.75,4,4-1.85-1.75-4-4,1.85m-62.25,13,1.9,1,1.15-2-2-1-1,2"/><path class="cls-2" d="M55.15,23.25l.7,4.35-4.35.7L50.8,24l4.35-.7M101.3,60l-.45,3.1-3.15-.4.4-3.15,3.2.45M20.65,52.9l6.8-3,3.05,6.9-6.85,3-3-6.9M35.1,91.4,41.7,95l-3.6,6.65-6.55-3.5,3.55-6.7M88.45,77.3l3,1.25-1.25,2.9-2.9-1.2,1.2-3M105,93.7l4-1.85,1.75,4-4,1.85-1.75-4"/><path class="cls-3" d="M59.5,16.6l7.1.8-.8,7.05-7.15-.8.85-7m45.05,38.2,4.4-1.2,1.2,4.4-4.4,1.25-1.2-4.45m-90.8-1.4.85,2.05-2,.95-.85-2.1,2-.9M34.6,45.1l2.55,3.25L34,51l-2.6-3.25,3.25-2.6m-11,1.35L20.85,42.7l3.75-2.8,2.85,3.75-3.85,2.8m.75,45,4,.95-1,4.05-4-1,1-4M26.65,102l4.55,1.3L30,107.7l-4.5-1.2,1.2-4.55m77.55-40.5,6.55.8L110,68.8l-6.55-.75.75-6.6M89.7,86h4.6V90.5H89.75l0-4.55M96.15,99.3l7.1-1.1,1,7-7.1,1.1-1-7M83,100l-6.15-2.4,2.45-6.15,6.15,2.45L83,100m-40.25,6.7,1-2,2,1-1.15,2-1.9-1"/><path class="cls-4" d="M70.2,26.05,79.3,45.8l.15,1.05-.4.95-.4.4,1.2,3.2a1.85,1.85,0,0,1,0,1.35l2.3,2.8a2,2,0,0,1,.45,1.15,2.07,2.07,0,0,1-.3,1.2l-1,.75-14.1,5.6-1.3.1a2,2,0,0,1-1-.8L58.1,54a1.77,1.77,0,0,1-.4-1.15,2,2,0,0,1,.35-1.15l1.5-2.15-1.1-1.6a1.73,1.73,0,0,1-.4-1.25,1.92,1.92,0,0,1,.5-1.2l2-2.2-.2-.7a1.54,1.54,0,0,1,.1-.95l6.1-15.45a1.82,1.82,0,0,1,1-1.1l1.5-.05a2,2,0,0,1,1.15,1.05M75.7,47.3l1.75-.7-9.1-19.75L62.25,42.3,63,43.35l-3,3.4,2,2.75-2.3,3.3,6.8,9.6,1.5-.55,0-.05,12.65-5L77,52.45l1-.35-1.85-5-.4.15M63.25,43.65h0l-.2-.3.25.3"/><path class="cls-5" d="M68.35,26.85l9.1,19.75-1.75.7L68,50.35l.4-23.5M77,52.45l3.6,4.35L68,61.8l0,.05-1.5.55.8-6.15,9.7-3.8"/><path class="cls-6" d="M77,52.45l-9.7,3.8-.8,6.15-6.8-9.6L62,49.5l5,6.9.65-6.55V49.8l-4.35-6.15-.25-.3-.75-1.05,6.1-15.45L68,50.35,75.7,47.3l.4-.15,1.85,5-1,.35"/><path class="cls-7" d="M62,49.5l-2-2.75,3-3.4.2.3h0L67.6,49.8v.05L67,56.4l-5-6.9"/><path class="cls-4" d="M38.4,66.9l4.8-6.75-1.6-2.3,1.35-2L40.9,53.5l.5-.75L37.1,41.9,30.7,55.8l1.25.5-.3-.1-1.3,3.45.65.25L28.5,63l8.9,3.5,0,0,1,.35m2.3-13.2.2-.2-.15.2h0M43.4,53l0,.35,1.15,1.3L45,55.8a1.84,1.84,0,0,1-.35,1.25l-.55.8.8,1.15a2.06,2.06,0,0,1,0,2.3l-4.8,6.75a2,2,0,0,1-1,.75,2.05,2.05,0,0,1-1.25,0l-1-.35-.6-.3-8.35-3.3-.95-.75a1.77,1.77,0,0,1-.35-1.2A2,2,0,0,1,27,61.75L28.4,60a1.87,1.87,0,0,1,.1-1l.7-1.85-.1-.1a1.84,1.84,0,0,1-.4-1,1.91,1.91,0,0,1,.2-1l6.4-13.9a1.81,1.81,0,0,1,1.1-1.05l1.5.05A1.82,1.82,0,0,1,39,41.2l4.3,10.85.15.9"/><path class="cls-5" d="M37.1,41.9l4.3,10.85-.5.75-.2.2-3.05,4.35v.05l.45,4.6,3.5-4.85,1.6,2.3L38.4,66.9l-.55-4.3L31,59.9l-.65-.25,1.3-3.45.3.1,5.45,2.15L37.1,41.9"/><path class="cls-6" d="M37.1,41.9l.3,16.55L32,56.3l-1.25-.5,6.4-13.9m3.8,11.6L43,55.9l-1.35,2L38.1,62.7l-.45-4.6v-.05L40.7,53.7h0l.15-.2M38.4,66.9l-1-.35,0,0L28.5,63,31,59.9l6.85,2.7.55,4.3"/><path class="cls-8" d="M62.05,33.8l.7.6,4.85,6.85.35.85,2.5,15L74.9,69.6l.1,1-.45,1L65,83l-.7.55-.9.15-18-.5-.9-.2-.65-.65L35.4,70.4l-.35-.85a1.54,1.54,0,0,1,.1-1l4.5-12.4.3-.6,3.25-4L46,38.15a2,2,0,0,1,.45-.9L49.15,34a1.39,1.39,0,0,1,.7-.5l.85-.2,10.45.25.9.25m-17,18.75-3.55,4.3L37,69.25l8.4,11.9,18.05.5L73,70.25l-4.5-12.7L66,42.4,61.1,35.55,50.65,35.3,47.9,38.55l-2.85,14"/><path class="cls-1" d="M45.05,52.55l9.6,8.6L55.3,45.2l-7.4-6.65,2.75-3.25,10.45.25L66,42.4,63.2,45.65,65,61.9l-3.6,4.2-13.6-.4L41.5,56.85l3.55-4.3"/><path class="cls-9" d="M45.05,52.55l2.85-14,7.4,6.65-.65,15.95-9.6-8.6m-3.55,4.3,6.25,8.85L45.4,81.15,37,69.25l4.5-12.4M61.35,66.1,65,61.9,63.2,45.65,66,42.4,68.5,57.55,73,70.25l-9.55,11.4L61.35,66.1"/><path class="cls-10" d="M61.35,66.1l2.1,15.55-18.05-.5L47.75,65.7l13.6.4"/><path class="cls-8" d="M93.1,81.65,102,79l-2-11.3-4.1-.1-4.8.85-4.6,1.5L86.05,75l7,6.65m8.2-15.5a2,2,0,0,1,.7,1.15l2,11.3a2,2,0,0,1-.3,1.4,2.12,2.12,0,0,1-1.1.9l-8.9,2.7h-1l-.9-.5-7-6.65-.5-.75-.15-.85.45-5.1a1.79,1.79,0,0,1,.45-1.1l1-.65,4.6-1.5.25,0,4.8-.85.4,0,4.1.1a1.82,1.82,0,0,1,1.25.5"/><path class="cls-9" d="M95.9,67.55l4.1.1L102,79,96.75,72.2l-.85-4.65M86.05,75l.45-5.1,4.6-1.5-.1,1-5,5.6"/><path class="cls-10" d="M102,79l-8.9,2.7,1.55-8.8,2.1-.65L102,79"/><path class="cls-1" d="M93.1,81.65l-7-6.65,5-5.6.1-1,4.8-.85.85,4.65-2.1.65-1.55,8.8"/><path class="cls-8" d="M38.25,67l-8.1-3.75-8.5,3.3L17.1,75.25l-.6,11.1,12.7,6,13.3-5.2.5-11.1L38.25,67m-8-5.75.75.2,8.1,3.75.95.9,4.75,9.1.2,1-.5,11.1-.35,1.1-.9.7L30,94.25l-.8.1-.8-.2-12.7-6-.85-.75a1.86,1.86,0,0,1-.3-1.15l.6-11.1a2,2,0,0,1,.25-.8L19.9,65.6A1.66,1.66,0,0,1,21,64.65l8.5-3.3.8-.15"/><path class="cls-1" d="M21.65,66.5l8.5-3.3L38.25,67l-.4,7.15-8.5,3.35-.15,14.9-12.7-6,4.8-12.7.35-7.15"/><path class="cls-10" d="M42.5,87.15l-13.3,5.2.15-14.9,8.5-3.35L42.5,87.15"/><path class="cls-9" d="M42.5,87.15,37.85,74.1l.4-7.15L43,76.05l-.5,11.1m-26-.8.6-11.1,4.55-8.75-.35,7.15-4.8,12.7"/><path class="cls-4" d="M75.45,88.65,73.15,92l6.8,9.6,1.5-.55,0,0,12.65-5-3.6-4.35,1-.35-1.85-5-.4.15,1.75-.7L81.8,66,75.7,81.45l.75,1-3,3.4,2,2.75m7-24.5a2,2,0,0,1,1.15,1L92.75,85l.15,1-.4,1-.4.4,1.2,3.2a1.85,1.85,0,0,1,0,1.35l2.3,2.8a2,2,0,0,1,.45,1.15,2.07,2.07,0,0,1-.3,1.2l-1,.75-14.1,5.6-1.3.1a2,2,0,0,1-1.05-.8l-6.8-9.6a1.77,1.77,0,0,1-.4-1.15,2,2,0,0,1,.35-1.15L73,88.65l-1.1-1.6a1.73,1.73,0,0,1-.4-1.25,1.92,1.92,0,0,1,.5-1.2l2-2.2-.2-.7a1.54,1.54,0,0,1,.1-1L80,65.3a1.82,1.82,0,0,1,1-1.1l1.5,0M76.7,82.8h0l-.2-.3.25.3"/><path class="cls-6" d="M76.7,82.8l-.25-.3-.75-1L81.8,66l-.4,23.5,7.75-3,.4-.15,1.85,5-1,.35-9.7,3.8-.8,6.15L73.15,92l2.3-3.3,5,6.9L81.05,89v0L76.7,82.8"/><path class="cls-5" d="M90.45,91.6,94.05,96,81.4,101l0,0-1.5.55.8-6.15,9.7-3.8M81.8,66l9.1,19.75-1.75.7-7.75,3L81.8,66"/><path class="cls-7" d="M75.45,88.65l-2-2.75,3-3.4.2.3h0L81.05,89v0l-.65,6.55-5-6.9"/><path class="cls-4" d="M62.1,65.1a1.82,1.82,0,0,1,1,1.1l4.3,10.85.15.9,0,.35,1.15,1.3a2,2,0,0,1,.45,1.2l-.35,1.25-.55.8.8,1.15a2,2,0,0,1,.35,1.15l-.35,1.15-4.8,6.75-1,.75a2.05,2.05,0,0,1-1.25,0l-1-.35-.6-.3L52,89.85a2.16,2.16,0,0,1-1-.75,1.77,1.77,0,0,1-.35-1.2,2,2,0,0,1,.45-1.15L52.6,85a1.87,1.87,0,0,1,.1-1l.7-1.85-.1-.1a1.84,1.84,0,0,1-.4-1,1.91,1.91,0,0,1,.2-1l6.4-13.9a1.81,1.81,0,0,1,1.1-1l1.5,0m3,13.4-.15.2h0l.2-.2.5-.75L61.3,66.9,54.9,80.8l1.25.5-.3-.1-1.3,3.45.65.25L52.7,88l8.9,3.5-.05,0,1.05.35,4.8-6.75-1.6-2.3,1.35-1.95L65.1,78.5"/><path class="cls-6" d="M65.1,78.5l2.05,2.4L65.8,82.85,62.3,87.7l-.45-4.6v0L64.9,78.7h0l.15-.2M61.3,66.9l.3,16.55L56.15,81.3l-1.25-.5,6.4-13.9m-6.1,18,6.85,2.7.55,4.3-1.05-.35.05,0L52.7,88l2.5-3.1"/><path class="cls-5" d="M55.2,84.9l-.65-.25,1.3-3.45.3.1,5.45,2.15L61.3,66.9l4.3,10.85-.5.75-.2.2-3.05,4.35v0l.45,4.6,3.5-4.85,1.6,2.3L62.6,91.9l-.55-4.3L55.2,84.9"/></g></g></svg>