<svg xmlns="http://www.w3.org/2000/svg" viewBox="0 0 120 140"><defs><style>.cls-1{fill:#a4afaf;}.cls-2{fill:#9ba6a6;}.cls-3{fill:#bb6444;}.cls-4{fill:#b55f40;}.cls-5{fill:#c26948;}.cls-6{fill:#a9b6b6;}</style></defs><title>Asset 80</title><g id="Layer_2" data-name="Layer 2"><g id="Layer_1-2" data-name="Layer 1"><path class="cls-1" d="M58.9,14.45l5.9,2.75,3.7-4.35L62.6,10.1l-3.7,4.35m20.4,16.1L61.9,20.35a4.14,4.14,0,0,0-2.2-.65,3.9,3.9,0,0,0-2.15.65l-11.7,6.9-2.1,1.2L42.4,31h-3l-6.3-2.9-5.8,6.8,5.6,2.65-.45,1.1H26.2l-8,4.65A4.54,4.54,0,0,0,16.05,47V62.6l-3.9,4.55L16.05,69v8.1l.45.8-3.9-1.8L8.9,80.45l5.9,2.75L17.6,80l.9,1.75-2.45,3v8.15a4.11,4.11,0,0,0,.6,2.15,4.18,4.18,0,0,0,1.55,1.6l22.1,12.9,4.1,2.4,13.15,7.7a4.36,4.36,0,0,0,2.15.55,4.63,4.63,0,0,0,2.2-.55l4.5-2.6,4.15-2.45,3.25-1.9,3-4.6L81,110l2.5-2.9,6.25-3.65.4-.1-.8.9L95.2,107l3.7-4.35-4.4-2,3.4-2L100.55,97h0l.65-.4A4.75,4.75,0,0,0,102.8,95a4.36,4.36,0,0,0,.55-2.15V70.65l-2.1-3.1,2.1-3.3V47a4.07,4.07,0,0,0-.55-2.1,4.26,4.26,0,0,0-1.55-1.6L90,36.75l-2.35-1.4.6-.7-9-4.1M0,35,60,0l60,35v70L60,140,0,105V35m88.35-9.4L84.65,30l5.9,2.75,3.7-4.35-5.9-2.75m2.55,9.1,5.9,2.75,3.7-4.35-5.9-2.75L90.9,34.7m15.95,27.55-3.7,4.35,5.9,2.75,3.7-4.35-5.9-2.75M43.3,118.7l3.7-4.35-5.9-2.75L37.4,116l5.9,2.75m-10.3-6L27.1,110l-3.7,4.35,5.9,2.75L33,112.7"/><path class="cls-2" d="M33,112.7l-3.7,4.35-5.9-2.75L27.1,110,33,112.7M58.9,14.45l3.7-4.35,5.9,2.75L64.8,17.2l-5.9-2.75M39.35,31l-5,2.9-1.5,3.65-5.6-2.65,5.8-6.8,6.3,2.9m-22,48.55.25.4L14.8,83.2,8.9,80.45l3.7-4.35,3.9,1.8.85,1.65m71-53.95,5.9,2.75-3.7,4.35L84.65,30l3.7-4.35"/><path class="cls-3" d="M45.85,27.25l11.7-6.9a3.9,3.9,0,0,1,2.15-.65,4.14,4.14,0,0,1,2.2.65l17.4,10.2,1.35.75,1.65,2.85h3.3l.2.1-4.15,1.3L84,42.8l7.25-2.3L90,36.75l11.25,6.55a4.26,4.26,0,0,1,1.55,1.6,4.07,4.07,0,0,1,.55,2.1V63.9L95.05,63,94,72.25l9.3,1,.1-.85v20.4A4.36,4.36,0,0,1,102.8,95a4.75,4.75,0,0,1-1.55,1.6l-.65.4-.3-.4-2.4,2-3.4,2-3.4,2-2.2-7-7.25,2.3,2.3,7.25,5.75-1.75-6.25,3.65L81,108.45l-4.1-.55-.05.15-3,4.6-3.25,1.9-.9-2.65-4.5,1.55L66.4,117l-4.5,2.6a4.63,4.63,0,0,1-2.2.55,4.36,4.36,0,0,1-2.15-.55L44.4,111.9l-1.1-3.35-3,1L18.2,96.6A4.18,4.18,0,0,1,16.65,95a4.11,4.11,0,0,1-.6-2.15V84.7l2.45-3L17.6,80l-.25-.4L20,76.7l-3.9-3.55V60.5L21,61.6l2.15-9.5-7-1.6V47a4.54,4.54,0,0,1,2.15-3.7l8-4.65h6.2l.45-1.1,1.5-3.65,5-2.9H42.1l1.45,1.4,3.65-3.85-1.35-1.3m23.8,22.3-4.5,1.55,1.55,4.45,4.45-1.5-1.5-4.5m-16.1-10.3.6,5.25,5.25-.6-.6-5.3-5.25.65M45.6,53.4l-2.3-7.25-7.2,2.3,2.25,7.2L45.6,53.4m-4.25-15L38,34.25l-4.1,3.35,3.35,4.1,4.15-3.35m8,3.35,1.85-5.05-5-1.9-1.9,5,5,2M32.7,55.15l-2.15-4.9-4.8,2.2L27.9,57.3q2.4-1,4.8-2.15M32.65,63l-1,9.3,9.3,1,.65-5.6h.05L42,64l-9.35-1M61.9,76.35l4.85-2.2-2.15-4.8L59.7,71.5l2.2,4.85m-37,9.55-.55,5.25,5.25.5.55-5.25-5.25-.5m16.5,14.8L38,96.6,33.85,100l3.35,4.1,4.15-3.35M75.6,70.55l-6.2,6.7,6.75,6.2L82.3,76.7l-6.7-6.15M56.85,76.7H56.8l-7.3,1.75,1.7,7.4,7.4-1.75-1.75-7.4M46.25,97.15l-1.9,4.95,5,2,1.85-5-5-1.9m28.2,1.45L77,89l-9.6-2.5-2.45,9.6,9.55,2.55M76,50l-2.1,9.55,9.45,2.1,2.15-9.5L76,50m17,.3-4.8,2.2,2.15,4.85,4.85-2.15-2.2-4.9m9.1,28.8L97.7,76l-3.1,4.3L99,83.35l3-4.3M92.45,86.4l-5.25-.5-.55,5.25,5.25.5.55-5.25"/><path class="cls-4" d="M92.45,86.4l-.55,5.25-5.25-.5.55-5.25,5.25.5M45.85,27.25l1.35,1.3L43.55,32.4,42.1,31h.3l1.35-2.55,2.1-1.2m-29.8,45.9L20,76.7l-2.6,2.85L16.5,77.9l-.45-.8V73.15M66.4,117l-1.25-3.55,4.5-1.55.9,2.65L66.4,117M97.9,98.55l2.4-2,.3.4h0L97.9,98.55m5.45-26.1-.1.85-9.3-1,1.1-9.3,8.3.95v.35l-2.1,3.3,2.1,3.1v1.8M90,36.75l1.2,3.75L84,42.8l-2.3-7.25,4.15-1.3,1.85,1.1L90,36.75m-40.6,5-5-2,1.9-5,5,1.9L49.4,41.7m-8-3.35L37.2,41.7l-3.35-4.1L38,34.25l3.4,4.1m4.25,15-7.25,2.25-2.25-7.2,7.2-2.3,2.3,7.25m7.95-14.15,5.25-.65.6,5.3-5.25.6-.6-5.25m16.1,10.3,1.5,4.5-4.45,1.5L65.15,51.1l4.5-1.55M32.65,63,42,64l-.4,3.7h-.05l-.65,5.6-9.3-1,1-9.3M56.85,76.7l1.75,7.4-7.4,1.75-1.7-7.4,7.3-1.75h.05M75.6,70.55l6.7,6.15-6.15,6.75-6.75-6.2,6.2-6.7M41.35,100.7l-4.15,3.35L33.85,100,38,96.6l3.4,4.1m33.1-2.1L64.9,96.05l2.45-9.6L77,89l-2.5,9.65M76,50l9.5,2.15L83.3,61.6l-9.45-2.1L76,50"/><path class="cls-5" d="M16.05,50.5l7.05,1.6L21,61.6l-4.9-1.1v-10m24.25,59,3-1,1.1,3.35-4.1-2.4m49.4-6.1L84,105.15l-2.3-7.25,7.25-2.3,2.2,7,.1.35-1.1.4-.4.1m-57-48.25q-2.4,1.1-4.8,2.15l-2.15-4.85,4.8-2.2,2.15,4.9M24.85,85.9l5.25.5-.55,5.25-5.25-.5.55-5.25M61.9,76.35,59.7,71.5l4.9-2.15,2.15,4.8-4.85,2.2M46.25,97.15l5,1.9-1.85,5-5-2,1.9-4.95M92.9,50.25l2.2,4.9L90.25,57.3,88.1,52.45l4.8-2.2m9.1,28.8-3,4.3-4.35-3.1L97.7,76l4.3,3.1"/><path class="cls-6" d="M16.05,62.6V69l-3.9-1.85,3.9-4.55m60.8,45.45.05-.15,4.1.55,2.45-1.4L81,110l-4.1-1.9m14.25-5.5,3.4-2,4.4,2L95.2,107l-5.9-2.75.8-.9,1.1-.4-.1-.35m-5.3-68.3-.2-.1H82.3L80.65,31.3l-1.35-.75,9,4.1-.6.7-1.85-1.1m5.1.45,3.7-4.35,5.9,2.75-3.7,4.35L90.9,34.7m15.95,27.55,5.9,2.75-3.7,4.35-5.9-2.75,3.7-4.35M43.3,118.7,37.4,116l3.7-4.35,5.9,2.75-3.7,4.35"/></g></g></svg>