<svg xmlns="http://www.w3.org/2000/svg" viewBox="0 0 120 140"><defs><style>.cls-1{fill:#bb8044;}.cls-2{fill:#aa753e;}.cls-3{fill:#c68a4e;}.cls-4{fill:#115f32;}.cls-5{fill:#168344;}.cls-6{fill:#10773c;}.cls-7{fill:#1b914d;}.cls-8{fill:#727979;}.cls-9{fill:#954f35;}.cls-10{fill:#b9c6c6;}.cls-11{fill:#a6b1b1;}.cls-12{fill:#e27952;}.cls-13{fill:#d2704c;}.cls-14{fill:#bb6444;}.cls-15{fill:#d26f49;}.cls-16{fill:#99a3a3;}.cls-17{fill:#d5e5e5;}.cls-18{fill:#cd8c4a;}.cls-19{fill:#af783f;}.cls-20{fill:#855b30;}</style></defs><title>Asset 131</title><g id="Layer_2" data-name="Layer 2"><g id="Layer_1-2" data-name="Layer 1"><path class="cls-1" d="M34,51l3.2-2.6L34.6,45.1l-3.25,2.6L34,51M59.5,16.6l-.85,7,7.15.8.8-7-7.1-.8M23.6,46.45l3.85-2.8L24.6,39.9l-3.75,2.8,2.75,3.75M55.85,27.6l-.7-4.35L50.8,24l.7,4.35,4.35-.7M60,0l60,35v70L60,140,0,105V35L60,0m50.75,62.25-6.55-.8-.75,6.6,6.55.75.75-6.55m-.6-4.25L109,53.6l-4.4,1.2,1.2,4.45,4.4-1.25M91.4,78.55l-3-1.25-1.2,3,2.9,1.2,1.25-2.9M101.3,60l-3.2-.45-.4,3.15,3.15.4.45-3.1M89.7,86l0,4.55H94.3V86H89.7M76.85,97.6,83,100l2.45-6.1L79.3,91.45,76.85,97.6m33.9-1.75-1.75-4-4,1.85,1.75,4,4-1.85m-7.5,2.35-7.1,1.1,1,7,7.1-1.1-1-7M41.7,95,35.1,91.4l-3.55,6.7,6.55,3.5L41.7,95M14.6,55.45l-.85-2.05-2,.9.85,2.1,2-.95m6-2.55,3,6.9,6.85-3-3.05-6.9-6.8,3m22.1,53.8,1.9,1,1.15-2-2-1-1,2M31.2,103.25,26.65,102l-1.2,4.55,4.5,1.2,1.25-4.45m-2.8-10.9-4-.95-1,4,4,1,1-4.05"/><path class="cls-2" d="M28.4,92.35l-1,4.05-4-1,1-4,4,.95m-4.8-45.9L20.85,42.7l3.75-2.8,2.85,3.75-3.85,2.8M59.5,16.6l7.1.8-.8,7.05-7.15-.8.85-7M34,51l-2.6-3.25,3.25-2.6,2.55,3.25L34,51m76.2,7-4.4,1.25-1.2-4.45,4.4-1.2,1.2,4.4m.6,4.25L110,68.8l-6.55-.75.75-6.6,6.55.8M76.85,97.6l2.45-6.15,6.15,2.45L83,100l-6.15-2.4M89.7,86h4.6V90.5H89.75l0-4.55M103.25,98.2l1,7-7.1,1.1-1-7,7.1-1.1M14.6,55.45l-2,.95-.85-2.1,2-.9.85,2.05m16.6,47.8L30,107.7l-4.5-1.2,1.2-4.55,4.55,1.3m11.55,3.45,1-2,2,1-1.15,2-1.9-1"/><path class="cls-3" d="M55.85,27.6l-4.35.7L50.8,24l4.35-.7.7,4.35M101.3,60l-.45,3.1-3.15-.4.4-3.15,3.2.45m-9.9,18.6-1.25,2.9-2.9-1.2,1.2-3,3,1.25m19.35,17.3-4,1.85-1.75-4,4-1.85,1.75,4m-69-.9-3.6,6.65-6.55-3.5,3.55-6.7L41.7,95M20.65,52.9l6.8-3,3.05,6.9-6.85,3-3-6.9"/><path class="cls-4" d="M100.65,60.4l.95-.35L99.75,55.1l-.4.15,1.75-.7L92,34.8,85.9,50.25l.75,1,.25.3h-.05l-.2-.3-3,3.4,2,2.75-2.3,3.3,6.8,9.6,1.5-.55-.05,0,12.65-5-3.6-4.35M92.7,33a2,2,0,0,1,1.15,1L103,53.75l.15,1-.4,1-.4.4,1.2,3.2a1.85,1.85,0,0,1,0,1.35l2.3,2.8a2,2,0,0,1,.45,1.15,2.07,2.07,0,0,1-.3,1.2l-1,.75L90.9,72.2l-1.3.1a2,2,0,0,1-1-.8l-6.8-9.6a1.77,1.77,0,0,1-.4-1.15,2,2,0,0,1,.35-1.15l1.5-2.15-1.1-1.6a1.73,1.73,0,0,1-.4-1.25,1.92,1.92,0,0,1,.5-1.2l2-2.2-.2-.7a1.54,1.54,0,0,1,.1-1l6.1-15.45a1.82,1.82,0,0,1,1-1.1l1.5,0"/><path class="cls-5" d="M86.9,51.6l-.25-.3-.75-1L92,34.8l-.4,23.5,7.75-3,.4-.15,1.85,4.95-.95.35L91,64.2l-.8,6.15-6.8-9.6,2.3-3.3,4.95,6.9.65-6.55v0L86.9,51.6"/><path class="cls-6" d="M86.65,51.3l.2.3h.05l4.35,6.15v0l-.65,6.55-4.95-6.9-2-2.75,3-3.4"/><path class="cls-7" d="M92,34.8l9.1,19.75-1.75.7-7.75,3L92,34.8m8.65,25.6,3.6,4.35-12.65,5,.05,0-1.5.55L91,64.2l9.7-3.8"/><path class="cls-4" d="M79.65,42.25a1.82,1.82,0,0,1,1,1.1L85,54.2l.15.9-.05.35,1.15,1.3A2,2,0,0,1,86.7,58l-.35,1.25-.55.8.8,1.15a2.06,2.06,0,0,1,0,2.3L81.8,70.2a2,2,0,0,1-1,.75,2.05,2.05,0,0,1-1.25,0l-1-.35-.6-.3L69.55,67l-1-.75a1.77,1.77,0,0,1-.35-1.2,2,2,0,0,1,.45-1.15l1.45-1.75a1.87,1.87,0,0,1,.1-1l.7-1.85-.1-.1-.4-.95a1.91,1.91,0,0,1,.2-1.05l6.4-13.9a1.81,1.81,0,0,1,1.1-1l1.5,0m.5,26.8L85,62.3,83.35,60l1.35-2-2-2.4-.15.2h0l.2-.2.5-.75-4.3-10.85L72.45,58l1.25.5-.3-.1L72.1,61.8l.65.25-2.5,3.1,8.9,3.5-.05,0,1.05.35"/><path class="cls-7" d="M80.15,69.05l-.55-4.3-6.85-2.7-.65-.25,1.3-3.45.3.1,5.45,2.15-.3-16.55,4.3,10.85-.5.75-.2.2-3,4.35v0l.45,4.6L83.35,60,85,62.3l-4.8,6.75"/><path class="cls-5" d="M80.15,69.05,79.1,68.7l.05,0-8.9-3.5,2.5-3.1,6.85,2.7.55,4.3m3.2-9-3.5,4.85-.45-4.6v0l3-4.35h0l.15-.2,2,2.4-1.35,2m-4.5-16,.3,16.55L73.7,58.45,72.45,58l6.4-13.9"/><path class="cls-8" d="M64.8,22.9l-1.5,1.25-5.4-5.6-4.75,6.7-1.85-.8,5-7a1.82,1.82,0,0,1,.9-.7l1.15-.1a2,2,0,0,1,1,.6l5.45,5.7m10,24.7,2-2.45V51.6a2,2,0,0,1-.45,1.3l-2.8,3.3V72.65L78.4,78a1.89,1.89,0,0,1,.5,1.3v4.25a2,2,0,0,1-.45,1.3L65.1,100.65l-1.1.65-1.3-.15L38.3,89.7l-.8-.7a1.89,1.89,0,0,1-.35-1.1V83.7a1.77,1.77,0,0,1,.4-1.15l4.9-6.65V59.3L39.9,57l-.5-.65-.2-.85V49.7l2,.95V55.5l3.25,2.9V76.5l-5.3,7.2v4.2l24.4,11.45L76.9,83.55V79.3l-5.3-5.9v-18l3.25-3.85v-4"/><path class="cls-9" d="M74.85,47.6V44.45l4.8-5.75-7-4.7-9.4-9.85,1.5-1.25L74,32.5l6.8,4.55.7.85.15,1.1-.45,1-4.35,5.15-2,2.45M51.3,24.45l1.85.8L43.25,39.1l-7,7,5,2.3v2.25l-2-.95L35.4,48a2,2,0,0,1-.9-.9,2,2,0,0,1-.2-1.25,1.61,1.61,0,0,1,.55-1.1l7-7L51.3,24.45"/><path class="cls-10" d="M53.15,25.25l4.75-6.7L59,27.8l-5.85-2.55M41.2,50.65V48.4L63,58.55v7.1L41.2,55.5V50.65M71.6,73.4l5.3,5.9L63.55,95.1v4.25L39.15,87.9V83.7l24.4,11.4L62,84.75,44.45,76.5V58.4l4.7,2.2L49.1,71l3.35,5.9L56.9,74.6,57,64.25l5,2.35V84.75L71.6,73.4"/><path class="cls-11" d="M57.9,18.55l5.4,5.6L59,27.8l-1.1-9.25m16.95,25.9V51.6L71.6,55.45,63,65.65v-7.1l11.9-14.1M76.9,79.3v4.25L63.55,99.35V95.1L76.9,79.3"/><path class="cls-12" d="M41.2,48.4l-5-2.3,7-7,18,8.45,1.7,11L41.2,48.4"/><path class="cls-13" d="M72.7,34l7,4.7-4.8,5.75L63,58.55l-1.7-11L72.7,34M43.25,39.1l9.9-13.85L59,27.8l2.25,19.75-18-8.45"/><path class="cls-14" d="M63.3,24.15,72.7,34,61.25,47.55,59,27.8l4.3-3.65"/><path class="cls-15" d="M57,64.25,56.9,74.6l-4.45,2.25L49.1,71l0-10.35L57,64.25"/><path class="cls-16" d="M57,64.25l-7.8-3.65-4.7-2.2L41.2,55.5,63,65.65l8.65-10.2v18L62,84.75V66.6l-5-2.35"/><path class="cls-17" d="M39.15,83.7l5.3-7.2L62,84.75,63.55,95.1,39.15,83.7"/><path class="cls-18" d="M29.65,98.35l1.55-8.8,2.1-.65,5.25,6.75-8.9,2.7"/><path class="cls-19" d="M32.45,84.25l4.1.1,2,11.3L33.3,88.9l-.85-4.65M22.6,91.7l.45-5.1,4.6-1.5-.1,1L22.6,91.7"/><path class="cls-20" d="M22.6,91.7l7,6.65,8.9-2.7-2-11.3-4.1-.1-4.8.85-4.6,1.5-.45,5.1m17.65,5a2.12,2.12,0,0,1-1.1.9l-8.9,2.7H29.2l-.9-.5-7-6.65-.5-.75-.15-.85.45-5.1a1.79,1.79,0,0,1,.45-1.1l.95-.65,4.6-1.5.25,0,4.8-.85.4,0,4.1.1a1.82,1.82,0,0,1,1.25.5,2,2,0,0,1,.7,1.15l2,11.3a2,2,0,0,1-.3,1.4"/><path class="cls-1" d="M29.65,98.35l-7-6.65,4.95-5.6.1-1,4.8-.85.85,4.65-2.1.65-1.55,8.8"/></g></g></svg>