<svg xmlns="http://www.w3.org/2000/svg" xmlns:xlink="http://www.w3.org/1999/xlink" viewBox="0 0 120 140"><defs><style>.cls-1{fill:#27ae60;}.cls-2{fill:url(#linear-gradient);}.cls-3{fill:url(#linear-gradient-2);}.cls-4{fill:url(#linear-gradient-3);}.cls-5{fill:url(#linear-gradient-4);}.cls-6{fill:url(#linear-gradient-5);}.cls-7{fill:url(#linear-gradient-6);}.cls-8{fill:url(#linear-gradient-7);}.cls-9{fill:url(#linear-gradient-8);}.cls-10{fill:url(#linear-gradient-9);}.cls-11{fill:url(#linear-gradient-10);}.cls-12{fill:url(#linear-gradient-11);}.cls-13{fill:url(#linear-gradient-12);}.cls-14{fill:url(#linear-gradient-13);}.cls-15{fill:url(#linear-gradient-14);}.cls-16{fill:url(#linear-gradient-15);}.cls-17{fill:#9a6836;}.cls-18{fill:#bb8044;}.cls-19{fill:#115f32;}.cls-20{fill:#10773c;}.cls-21{fill:#168344;}.cls-22{fill:#1b914d;}.cls-23{fill:#855b30;}.cls-24{fill:#cd8c4a;}.cls-25{fill:#af783f;}.cls-26{fill:#727979;}.cls-27{fill:#b9c6c6;}.cls-28{fill:#d5e5e5;}.cls-29{fill:#99a3a3;}.cls-30{fill:#a8b4b4;}.cls-31{fill:#c4d2d2;}.cls-32{fill:#a6b1b1;}.cls-33{fill:#edffff;}.cls-34{fill:#775029;}.cls-35{fill:#a8733d;}.cls-36{fill:#d26f49;}.cls-37{fill:#bb6444;}.cls-38{fill:#954f35;}.cls-39{fill-opacity:0.1;}</style><linearGradient id="linear-gradient" x1="-2379.2" y1="49.53" x2="-740.8" y2="49.53" gradientTransform="matrix(0, 0, 0, 0, 12.18, 42.05)" gradientUnits="userSpaceOnUse"><stop offset="0" stop-color="#27ae60"/><stop offset="1" stop-color="#30c26d"/></linearGradient><linearGradient id="linear-gradient-2" x1="-2379.2" y1="26.2" x2="-740.8" y2="26.2" gradientTransform="matrix(0, 0, 0, 0, 56.87, 19.99)" xlink:href="#linear-gradient"/><linearGradient id="linear-gradient-3" x1="-2379.2" y1="37.67" x2="-740.8" y2="37.67" gradientTransform="matrix(0, 0, 0, 0, 45.68, 30.03)" xlink:href="#linear-gradient"/><linearGradient id="linear-gradient-4" x1="-2379.2" y1="54.17" x2="-740.8" y2="54.17" gradientTransform="matrix(0, 0, 0, 0, 37.97, 47.94)" xlink:href="#linear-gradient"/><linearGradient id="linear-gradient-5" x1="-2379.2" y1="48.03" x2="-740.8" y2="48.03" gradientTransform="matrix(0, 0, 0, 0, 60.83, 40.55)" xlink:href="#linear-gradient"/><linearGradient id="linear-gradient-6" x1="-2379.2" y1="30.38" x2="-740.8" y2="30.38" gradientTransform="matrix(0, 0, 0, 0, 90.87, 24.14)" xlink:href="#linear-gradient"/><linearGradient id="linear-gradient-7" x1="-2379.2" y1="98.08" x2="-740.8" y2="98.08" gradientTransform="matrix(0, 0, 0, 0, 106.37, 91.84)" xlink:href="#linear-gradient"/><linearGradient id="linear-gradient-8" x1="-2379.2" y1="81.92" x2="-740.8" y2="81.92" gradientTransform="matrix(0, 0, 0, 0, 83.97, 75.69)" xlink:href="#linear-gradient"/><linearGradient id="linear-gradient-9" x1="-2379.2" y1="89.17" x2="-740.8" y2="89.17" gradientTransform="matrix(0, 0, 0, 0, 70.47, 82.94)" xlink:href="#linear-gradient"/><linearGradient id="linear-gradient-10" x1="-2379.2" y1="62.42" x2="-740.8" y2="62.42" gradientTransform="matrix(0, 0, 0, 0, 25.52, 56.19)" xlink:href="#linear-gradient"/><linearGradient id="linear-gradient-11" x1="-2379.2" y1="106.58" x2="-740.8" y2="106.58" gradientTransform="matrix(0, 0, 0, 0, 56.68, 99.1)" xlink:href="#linear-gradient"/><linearGradient id="linear-gradient-12" x1="-2379.2" y1="116.92" x2="-740.8" y2="116.92" gradientTransform="matrix(0, 0, 0, 0, 44.68, 109.45)" xlink:href="#linear-gradient"/><linearGradient id="linear-gradient-13" x1="-2379.2" y1="119.17" x2="-740.8" y2="119.17" gradientTransform="matrix(0, 0, 0, 0, 57.87, 112.94)" xlink:href="#linear-gradient"/><linearGradient id="linear-gradient-14" x1="-2379.2" y1="121.33" x2="-740.8" y2="121.33" gradientTransform="matrix(0, 0, 0, 0, 72.28, 113.85)" xlink:href="#linear-gradient"/><linearGradient id="linear-gradient-15" x1="-2379.2" y1="102.17" x2="-740.8" y2="102.17" gradientTransform="matrix(0, 0, 0, 0, 14.43, 94.7)" xlink:href="#linear-gradient"/></defs><title>Asset 132</title><g id="Layer_2" data-name="Layer 2"><g id="Layer_1-2" data-name="Layer 1"><path class="cls-1" d="M13.35,98.3l-.1.25-.35,3.5-1.7.35-.25.1,0,.1-.05.2v.25h.05l1.45,3.15h6l1.6-1,.15-.15,0-.15,0-.3-.3-.25-1.5-.4,1.2-3.15v-.35l-.05-.05-.2-.2H18.9l-2.8,1-2-2.85a.3.3,0,0,0-.25-.15l-.25,0-.25.15M11.6,45.55l-.25,0-.25.15-.1.25-.35,3.5L9,49.75l-.25.1,0,.1-.05.2v.25h.05l1.45,3.15h6l1.6-1,.15-.15,0-.15,0-.3-.3-.25-1.5-.4,1.2-3.15v-.35l-.05,0-.2-.2h-.35l-2.8,1-2-2.85a.3.3,0,0,0-.25-.15M55.05,27l-.3.05-.25.2v.45l.7,1.8h4.85l.9-3.1v-.35l-.25-.2h-.35L59,26.4l-1-3.15L57.85,23l-.3-.1-.3.15-.15.25-.8,4.1L55.05,27m-12.3,8.85,0,0v.35L44,39.35l-1.55.45-.25.2-.1.35.1.1.1.15,1.6,1.1h6l1.45-3.15.05,0,0-.25-.1-.15,0-.1L51,37.85l-1.65-.3-.4-3.5-.1-.25-.25-.15h-.25l-.25.15-2,2.85-2.85-1H43l-.2.2M38.7,51l-.15.25-1,3.15-1.35-.55h-.35a.3.3,0,0,0-.25.15v0l-.05.35,1,3.05h4.85l.7-1.8V55.2L41.8,55h-.3l-1.25.4-.85-4.15L39.25,51,39,50.9l-.3.1m21.8-6.8a.3.3,0,0,0-.25-.15L60,44l-.25.15-.1.25-.35,3.5-1.7.35-.25.1-.05.1,0,.2v.25h0l1.45,3.15h6l1.6-1,.15-.15,0-.15,0-.3-.3-.25-1.5-.4,1.2-3.15v-.35l-.05,0-.2-.2H65.3l-2.8,1-2-2.85m31.1-17a.3.3,0,0,0-.15.25l-1,3.15-1.35-.55h-.35l-.25.15v.05a.42.42,0,0,0,0,.35l1,3h4.85l.7-1.8V31.4l-.25-.2h-.3l-1.25.4-.85-4.15-.15-.25-.25-.1-.3.1M120,35v70L60,140,0,105V35L60,0l60,35M107.1,94.9l-.15.25-1,3.15-1.35-.55h-.35a.3.3,0,0,0-.25.15v0a.42.42,0,0,0,0,.35l1,3h4.85l.7-1.8V99.1l-.25-.2h-.3l-1.25.4-.85-4.15-.15-.25-.25-.1-.3.1M83.55,82.15,82.2,81.6h-.35l-.25.15v0a.42.42,0,0,0,0,.35l1,3h4.85l.7-1.8V83l-.25-.2h-.3l-1.25.4L85.4,79l-.15-.25-.25-.1-.3.1a.3.3,0,0,0-.15.25l-1,3.15M71.75,86l-.25-.1-.3.1-.15.25-1,3.15-1.35-.55h-.35L68.1,89v0l0,.35,1,3h4.85l.7-1.8V90.2L74.3,90H74l-1.25.4-.85-4.15L71.75,86M26.8,59.25l-.25-.1-.3.1-.15.25-1,3.15-1.35-.55H23.4a.3.3,0,0,0-.25.15v0l0,.35.95,3.05H28.9l.7-1.8v-.45l-.25-.2h-.3l-1.25.4L27,59.5l-.15-.25m35,45.9v-.35l0,0-.2-.2h-.35l-2.8,1-2-2.85-.25-.15-.25,0-.25.15-.1.25-.35,3.5-1.7.35-.25.1-.05.1,0,.2v.25h0l1.45,3.15h6l1.6-1,.15-.15,0-.15,0-.3-.3-.25-1.5-.4,1.2-3.15m-12,9.95-.2-.2h-.35l-2.8,1-2-2.85L44.1,113l-.25,0-.25.15-.1.25-.35,3.5-1.7.35-.25.1-.05.1,0,.2v.25h0L42.6,121h6l1.6-1,.15-.15,0-.15,0-.3-.3-.25-1.5-.4,1.2-3.15v-.35l0-.05M61.4,120l-1.25.4-.85-4.15-.15-.25-.25-.1-.3.1-.15.25-1,3.15-1.35-.55h-.35l-.25.15v0l0,.35.95,3h4.85l.7-1.8v-.45l-.25-.2h-.3m9.8-2.55-.1.25-.35,3.5-1.7.35-.25.1,0,.1,0,.2v.25h0l1.45,3.15h6l1.6-1,.15-.15,0-.15,0-.3-.3-.25-1.5-.4,1.2-3.15v-.35l0,0-.2-.2h-.35l-2.8,1-2-2.85-.25-.15-.25,0-.25.15"/><path class="cls-2" d="M11.6,45.55a.3.3,0,0,1,.25.15l2,2.85,2.8-1H17l.2.2.05,0v.35l-1.2,3.15,1.5.4.3.25,0,.3,0,.15-.15.15-1.6,1h-6L8.65,50.4H8.6v-.25l.05-.2,0-.1.25-.1,1.7-.35L11,45.9l.1-.25.25-.15.25,0"/><path class="cls-3" d="M55.05,27l1.25.4.8-4.1.15-.25.3-.15.3.1.15.25,1,3.15,1.4-.55h.35l.25.2v.35l-.9,3.1H55.2l-.7-1.8v-.45l.25-.2.3-.05"/><path class="cls-4" d="M42.75,35.85l.2-.2h.35l2.85,1,2-2.85.25-.15h.25l.25.15.1.25.4,3.5,1.65.3.25.15,0,.1.1.15,0,.25-.05,0L49.85,41.7h-6l-1.6-1.1-.1-.15-.1-.1.1-.35.25-.2L44,39.35l-1.25-3.1V35.9l0,0"/><path class="cls-5" d="M38.7,51l.3-.1.25.1.15.25.85,4.15L41.5,55h.3l.25.2v.45l-.7,1.8H36.5l-1-3.05.05-.35v0a.3.3,0,0,1,.25-.15h.35l1.35.55,1-3.15L38.7,51"/><path class="cls-6" d="M60.5,44.2l2,2.85,2.8-1h.35l.2.2.05,0v.35l-1.2,3.15,1.5.4.3.25,0,.3,0,.15-.15.15-1.6,1h-6L57.3,48.9h0v-.25l0-.2.05-.1.25-.1,1.7-.35.35-3.5.1-.25L60,44l.25,0a.3.3,0,0,1,.25.15"/><path class="cls-7" d="M91.6,27.2l.3-.1.25.1.15.25.85,4.15,1.25-.4h.3l.25.2v.45l-.7,1.8H89.4l-1-3a.42.42,0,0,1,0-.35V30.2l.25-.15h.35l1.35.55,1-3.15a.3.3,0,0,1,.15-.25"/><path class="cls-8" d="M107.1,94.9l.3-.1.25.1.15.25.85,4.15,1.25-.4h.3l.25.2v.45l-.7,1.8H104.9l-1-3a.42.42,0,0,1,0-.35v0a.3.3,0,0,1,.25-.15h.35l1.35.55,1-3.15.15-.25"/><path class="cls-9" d="M83.55,82.15l1-3.15a.3.3,0,0,1,.15-.25l.3-.1.25.1.15.25.85,4.15,1.25-.4h.3l.25.2v.45l-.7,1.8H82.5l-1-3a.42.42,0,0,1,0-.35v0l.25-.15h.35l1.35.55"/><path class="cls-10" d="M71.75,86l.15.25.85,4.15L74,90h.3l.25.2v.45l-.7,1.8H69l-1-3,0-.35v0l.25-.15h.35l1.35.55,1-3.15L71.2,86l.3-.1.25.1"/><path class="cls-11" d="M26.8,59.25l.15.25.85,4.15,1.25-.4h.3l.25.2v.45l-.7,1.8H24.05l-.95-3.05,0-.35v0a.3.3,0,0,1,.25-.15h.35l1.35.55,1-3.15.15-.25.3-.1.25.1"/><path class="cls-12" d="M61.75,105.15l-1.2,3.15,1.5.4.3.25,0,.3,0,.15-.15.15-1.6,1h-6l-1.45-3.15h0v-.25l0-.2.05-.1.25-.1,1.7-.35.35-3.5.1-.25.25-.15.25,0,.25.15,2,2.85,2.8-1h.35l.2.2,0,0v.35"/><path class="cls-13" d="M49.7,115.1l0,.05v.35l-1.2,3.15,1.5.4.3.25,0,.3,0,.15-.15.15-1.6,1h-6l-1.45-3.15h0v-.25l0-.2.05-.1.25-.1,1.7-.35.35-3.5.1-.25.25-.15.25,0,.25.15,2,2.85,2.8-1h.35l.2.2"/><path class="cls-14" d="M61.4,120h.3l.25.2v.45l-.7,1.8H56.4l-.95-3,0-.35v0l.25-.15h.35l1.35.55,1-3.15.15-.25.3-.1.25.1.15.25.85,4.15,1.25-.4"/><path class="cls-15" d="M71.2,117.45l.25-.15.25,0,.25.15,2,2.85,2.8-1h.35l.2.2,0,0v.35l-1.2,3.15,1.5.4.3.25,0,.3,0,.15-.15.15-1.6,1h-6l-1.45-3.15h0V122l0-.2,0-.1.25-.1,1.7-.35.35-3.5.1-.25"/><path class="cls-16" d="M13.35,98.3l.25-.15.25,0a.3.3,0,0,1,.25.15l2,2.85,2.8-1h.35l.2.2.05.05v.35l-1.2,3.15,1.5.4.3.25,0,.3,0,.15-.15.15-1.6,1h-6l-1.45-3.15h-.05v-.25l.05-.2,0-.1.25-.1,1.7-.35.35-3.5.1-.25"/><path class="cls-17" d="M90.25,66.55,86.1,60.3l-12,1.5L49.75,52.3,19.25,70l.5,7.85,24,5.75,11.6,18,29-8.6,5.9-26.4M50.5,50.45l23.9,9.3,11.45-1.4,1.1.15.85.7L92,65.45l.3.75,0,.8L86.3,93.4l-.5.95L85,94.9l-29,8.6-1.3,0-.95-.8L42.55,85.35,19.3,79.75a1.87,1.87,0,0,1-1.05-.65,2.06,2.06,0,0,1-.5-1.15l-.5-7.85A1.81,1.81,0,0,1,17.5,69a1.7,1.7,0,0,1,.75-.75L48.75,50.6l.85-.3.9.15"/><path class="cls-18" d="M90.25,66.55,84.35,93l-29,8.6-11.6-18-24-5.75L19.25,70,49.75,52.3,74.1,61.8l12-1.5,4.15,6.25"/><path class="cls-19" d="M39.55,50.4l1.75-.7L32.2,30,26.1,45.4l.75,1.05.25.3h-.05l-.2-.3-3,3.4,2,2.75-2.3,3.3,6.8,9.6,1.5-.55-.05,0,12.65-5-3.6-4.35.95-.35-1.85-5-.4.15M22.4,48.55l2-2.2-.2-.7a1.54,1.54,0,0,1,.1-.95l6.1-15.45a1.82,1.82,0,0,1,1-1.1l1.5,0a2,2,0,0,1,1.15,1l9.1,19.75L43.3,50l-.4.95-.4.4,1.2,3.2a1.85,1.85,0,0,1,0,1.35l2.3,2.8a2,2,0,0,1,.45,1.15,2.07,2.07,0,0,1-.3,1.2l-.95.75-14.1,5.6-1.3.1-1.05-.8L22,57.05a1.77,1.77,0,0,1-.4-1.15,2,2,0,0,1,.35-1.15l1.5-2.15L22.3,51a1.73,1.73,0,0,1-.4-1.25,1.92,1.92,0,0,1,.5-1.2"/><path class="cls-20" d="M27.1,46.75l4.35,6.15V53L30.8,59.5l-4.95-6.9-2-2.75,3-3.4.2.3h.05"/><path class="cls-21" d="M27.1,46.75l-.25-.3L26.1,45.4,32.2,30l-.4,23.5,7.75-3.05.4-.15,1.85,5-.95.35-9.7,3.8-.8,6.15-6.8-9.6,2.3-3.3,4.95,6.9L31.45,53V52.9L27.1,46.75"/><path class="cls-22" d="M30.35,65.5l.8-6.15,9.7-3.8,3.6,4.35-12.65,5,.05,0-1.5.55m9.2-15.1L31.8,53.45,32.2,30,41.3,49.7l-1.75.7"/><path class="cls-23" d="M38.4,76l4.1.1a1.82,1.82,0,0,1,1.25.5,2,2,0,0,1,.7,1.15l2,11.3a2,2,0,0,1-.3,1.4,2.12,2.12,0,0,1-1.1.9l-8.9,2.7h-1l-.9-.5L27.15,86.9l-.5-.75-.15-.85L27,80.2a1.79,1.79,0,0,1,.45-1.1,1.91,1.91,0,0,1,1-.65L33,77l.25,0,4.8-.85.4,0m6.05,13.4-2-11.3-4.1-.1-4.8.85L29,80.35l-.45,5.1,7,6.65,8.9-2.7"/><path class="cls-24" d="M44.45,89.4l-8.9,2.7,1.55-8.8,2.1-.65,5.25,6.75"/><path class="cls-18" d="M35.55,92.1l-7-6.65,5-5.6.1-1,4.8-.85.85,4.65-2.1.65-1.55,8.8"/><path class="cls-25" d="M38.35,78l4.1.1,2,11.3L39.2,82.65,38.35,78M28.5,85.45l.45-5.1,4.6-1.5-.1,1-5,5.6"/><path class="cls-26" d="M94.45,40.75l-5.3-5.85V21.15L85,19,84.05,20l-3.6-1.65v-3.9L76,12.2,73.7,15v1.7l-2-.85-2.5,2.8V20.7l.25.15L66.7,19.4l-2.2,2.9v3.05l-2.25,2.8V38L56.9,45.25v4.2L81.3,61,94.45,45v-4.2M62.9,21.1l2.2-2.9a1.89,1.89,0,0,1,1.15-.75l1.3.15.2-.25,2.5-2.8a2.11,2.11,0,0,1,1.1-.65h.7l.1-.15L74.4,11a2,2,0,0,1,1.15-.7l1.3.15,4.5,2.25.8.75.3,1V17.1l1,.45A2,2,0,0,1,84.6,17l1.3.2,4.2,2.2.75.75.3,1v13L96,39.4a2.07,2.07,0,0,1,.5,1.35V45L96,46.25l-13.15,16a2.11,2.11,0,0,1-1.1.65l-1.3-.15-24.4-11.5-.8-.7a1.89,1.89,0,0,1-.35-1.1v-4.2a1.77,1.77,0,0,1,.4-1.15l5-6.7V28.15a1.92,1.92,0,0,1,.45-1.25l1.8-2.25V22.3a2,2,0,0,1,.4-1.2"/><path class="cls-27" d="M62.25,38V28.15l4.2,2V29.3L71,31.25l2.2-2.8-1.1-.55L69,26.25l-.5.8h0l-3.9-1.7V22.3L69,24.5l2.25-2.75-.6-.35-.6-.3-.2-.1-.3-.15-.25-.15V18.65l4.45,2V15l4.5,2.25v3.9l4.25,2V22L86.9,24v9L84.4,31.8V29.3l-2.25-1.15V25.9L77.65,24l-2.25,2.8,4.2,1.95V46.4L62.25,38m26.9-3.1,5.3,5.85L81.3,56.45,79.6,46.4l9.55-11.5M81.3,61,56.9,49.45v-4.2l24.4,11.2V61M77.5,34.3,73,32.35l-2.25,2.8,4.2,2,2.55-2.8"/><path class="cls-28" d="M77.5,34.3,75,37.1l-4.2-2L73,32.35l4.5,1.95M62.25,28.15l2.25-2.8,3.9,1.7h0l.5-.8,3.1,1.65,1.1.55L71,31.25l-4.5-1.95v.85l-4.2-2M64.5,22.3l2.2-2.9,2.8,1.45.3.15.2.1.6.3.6.35L69,24.5,64.5,22.3m4.75-3.65,2.5-2.8,2,.85v3.9l-4.45-2M73.7,15,76,12.2l4.5,2.25-2.25,2.8L73.7,15m6.75,3.35L84.05,20,85,19l4.2,2.2L86.9,24,82.45,22v1.1l-4.25-2,2.25-2.8M56.9,45.25,62.25,38,79.6,46.4l1.7,10.05L56.9,45.25M79.6,28.7l-4.2-1.95L77.65,24l4.5,1.95L79.6,28.7m2.55-.55L84.4,29.3l-2.25,2.8v-4M84.4,31.8,86.9,33l-2.5,2.8V31.8"/><path class="cls-29" d="M80.45,14.45v3.9l-2.25,2.8v-3.9l2.25-2.8m8.7,6.7V34.9L79.6,46.4V28.7l2.55-2.8v6.2l2.25-2.8v6.45L86.9,33V24l2.25-2.8m5.3,19.6V45L81.3,61v-4.5l13.15-15.7"/><path class="cls-26" d="M57.25,50.05l3.5-.4,2.1-2.55a1.74,1.74,0,0,1,1.35-.7,1.68,1.68,0,0,1,1.4.35l1.3,1L68,46.4a2,2,0,0,1,1.1-.7l1.3.15L75.05,48l4.15-.45,1,.2,6.35,2.9,2.45-2.85a1.87,1.87,0,0,1,1.1-.65l1.25.15,7.7,3.6.85.75.3,1.05V71.05a2,2,0,0,1-.45,1.3L78.15,97.9a2.11,2.11,0,0,1-1.1.65l-1.3-.15-7.7-3.6-.8-.7A1.89,1.89,0,0,1,66.9,93v-3a1.72,1.72,0,0,1,.45-1.2l2.4-3.15,2-6.5.4-.7,2.5-2.9,2.4-5L52.25,59l-.75-.6-.1-.2A1.86,1.86,0,0,1,51.1,57a1.93,1.93,0,0,1,.4-1l.1-.1L56,50.7a1.75,1.75,0,0,1,1.3-.65m9.6.85.35-.45-2.8-2.1-2.9,3.5.25-.35-4.3.5L53.1,57.15l26.7,12.5-3.45,7L73.7,79.8l-2.15,6.85-2.65,3.4v3l7.7,3.6L98.25,71.05V52.7l-7.7-3.6-3.4,4L79.4,49.55l-4.7.5-5.15-2.4-2.7,3.25M48.55,66.2l.3,1V72a2,2,0,0,1-.45,1.3l-4.65,5.5a2.11,2.11,0,0,1-1.1.65l-1.3-.15-11.9-5.6-.8-.7a1.89,1.89,0,0,1-.35-1.1V67.2a1.89,1.89,0,0,1,.5-1.3l4.65-5.5a1.87,1.87,0,0,1,1.1-.65l1.25.15,11.9,5.55.85.75M42.2,77.45,46.85,72v-4.7L35,61.7,30.3,67.2v4.65l11.9,5.6M63.5,84.9a2.07,2.07,0,0,1,.5,1.35v5l-1.9,10.4L61.3,103a1.82,1.82,0,0,1-1.4.4l-8.65-.9A2,2,0,0,1,50,101.8a1.93,1.93,0,0,1-.55-1.35v-4.7l0-.35,1.9-10.35a1.86,1.86,0,0,1,.75-1.25,2.16,2.16,0,0,1,1.4-.4l8.65.85a2.22,2.22,0,0,1,1.3.65m-12,10.85v4.7l8.65.9L62,91v-4.7l-8.65-.85-1.9,10.35"/><path class="cls-30" d="M74.7,50.05l4.7-.5L75.05,54.7l-4.7.5,4.35-5.15m-21.6,7.1L57.45,52l4.3-.5-.25.35L60.05,53.5,58.2,56.6l-5.1.55"/><path class="cls-28" d="M61.5,51.85l2.9-3.5,2.8,2.1-.35.45-1.65,2v4.6l-5.15-4,1.45-1.65m10,34.8L73.7,79.8l7.7,3.65-2.15,6.8-7.7-3.6m4.8-10,3.45-7,2.65-5.35,7.65,3.6-6,12.4-7.7-3.6"/><path class="cls-31" d="M76.35,76.7l7.7,3.6L81.4,83.45,73.7,79.8l2.65-3.1m-9.5-25.8,2.7-3.25,5.15,2.4L70.35,55.2,65.2,52.85l1.65-2M79.4,49.55l7.75,3.55,3.4-4,7.7,3.6-4.4,5.1-7.7-3.55v5.6c2.57,1.23,5.13,2.45,7.7,3.65L90.1,67.9l-7.65-3.6,3.7-4.45L75.05,54.7l4.35-5.15M68.9,90.05l2.65-3.4,7.7,3.6-2.65,3.4-7.7-3.6"/><path class="cls-27" d="M68.9,90.05l7.7,3.6V96.6L68.9,93v-3m10.9-20.4L53.1,57.15l5.1-.55,1.85-3.1,5.15,4v-4.6l5.15,2.35,4.7-.5,11.1,5.15-3.7,4.45L79.8,69.65m14-11.85v5.7c-2.57-1.2-5.13-2.42-7.7-3.65v-5.6l7.7,3.55M42.2,77.45l-11.9-5.6V67.2l11.9,5.55v4.7m17.9,23.9-8.65-.9v-4.7l8.65.85v4.75"/><path class="cls-32" d="M60.1,101.35V96.6L62,86.25V91l-1.9,10.4M98.25,52.7V71.05L76.6,96.6V93.65l2.65-3.4,2.15-6.8,2.65-3.15,6-12.4,3.75-4.4V57.8l4.4-5.1M46.85,67.25V72l-4.65,5.5v-4.7l4.65-5.5"/><path class="cls-33" d="M46.85,67.25l-4.65,5.5L30.3,67.2,35,61.7l11.9,5.55m4.6,28.5,1.9-10.35,8.65.85L60.1,96.6l-8.65-.85"/><path class="cls-34" d="M59.2,87.75v-1.4a1.82,1.82,0,0,1,.5-1.25L61,83.6a1.75,1.75,0,0,1,1.1-.7l1.25.15,2,1,1.55-1.75a1.67,1.67,0,0,1,1.1-.6l1.25.15,2.5,1.25.8.75.3,1v2.6L74.2,88a2.15,2.15,0,0,1,1,.7,2,2,0,0,1,.35,1.15v.4l-2,1.9v-2.3l-2.75-1v-4l-2.5-1.25-1.8,2v1.15l-4-1.9-1.25,1.5v2.3l-2-.9m13.55,21.5v3.3a2,2,0,0,1-.4,1.2l-1.5,2-1.1.75-1.3-.1-2.8-1.25-.85-.75a1.89,1.89,0,0,1-.35-1.1v-8.6l2,.2v8.4l2.8,1.25,1.5-2V106l2,3.25"/><path class="cls-18" d="M61.2,86.35l1.25-1.5,4,1.9v.1l2.8,1.25,1.5.75,2.75,1L72,91.6,61.2,86.35m5.25-.75,1.8-2,2.5,1.25-1.5,2-2.8-1.25"/><path class="cls-35" d="M66.45,85.6l2.8,1.25V88.1l-2.8-1.25V85.6M61.2,88.65v-2.3L72,91.6v2.05l-.2-.1-.1,0-1-.45-7-3.25c-.67-.3-1.33-.62-2-1v.05l-.5-.2v0M66.45,103l.25.1.55.15,2,1.25v10l-2.8-1.25V103"/><path class="cls-23" d="M70.75,84.85v4l-1.5-.75V86.85l1.5-2m2.75,5v2.3l-.75.75-.75.75V91.6l1.5-1.75M69.25,104.5l1.5,1.5v6.55l-1.5,2v-10"/><path class="cls-36" d="M69.25,104.5l-2-1.25-.55-.15-.25-.1-4.75-.75V88.85c.67.33,1.33.65,2,1v11.7l3.55.5,3.5,2.75V93.05l1,.45.1,0,.2.1.75-.75v14.35l-2-1.25-1.5-1.5"/><path class="cls-37" d="M72.75,92.9l.75-.75V106.5l-.75.75V92.9m-9-3.1,7,3.25v11.7L67.25,102l-3.55-.5V89.8"/><path class="cls-38" d="M75.5,90.25V106.5A2,2,0,0,1,75,108l-.75.75-1.2.55h-.25l-2-3.25,2,1.25.75-.75V92.15l2-1.9m-11,14.45-3.05-.45-1.2-.7a1.89,1.89,0,0,1-.5-1.3V90l-.15-.25a1.81,1.81,0,0,1-.35-1v-1l2,.9v0l.5.2v13.35l4.75.75v1.9l-2-.2"/><path class="cls-39" d="M72.75,110.2l1.5.7c1.63,1,2.45,2.15,2.45,3.55S75.88,117,74.25,118a11.46,11.46,0,0,1-6,1.45A11.63,11.63,0,0,1,62.35,118c-1.63-1-2.45-2.15-2.45-3.55s.82-2.58,2.45-3.55l2.1-.9v3.3a1.89,1.89,0,0,0,.35,1.1l.85.75,2.8,1.25,1.3.1,1.1-.75,1.5-2a2,2,0,0,0,.4-1.2V110.2"/><path class="cls-19" d="M83.6,78.75l1.5,0a1.82,1.82,0,0,1,1.05,1.1l4.3,10.85.15.9,0,.35,1.15,1.3a2,2,0,0,1,.45,1.2,1.84,1.84,0,0,1-.35,1.25l-.55.8.8,1.15a2,2,0,0,1,.35,1.15L92.05,100l-4.8,6.75-1,.75a2.05,2.05,0,0,1-1.25,0l-1-.35-.6-.3L75,103.55l-1-.75a1.77,1.77,0,0,1-.35-1.2,2,2,0,0,1,.45-1.15L75.6,98.7a1.87,1.87,0,0,1,.1-1l.7-1.85-.1-.1a1.84,1.84,0,0,1-.4-1,1.91,1.91,0,0,1,.2-1l6.4-13.9a1.81,1.81,0,0,1,1.1-1m.7,1.85L77.9,94.5l1.25.5-.3-.1-1.3,3.45.65.25-2.5,3.1,8.9,3.5,0,0,1,.35,4.8-6.75-1.6-2.3,1.35-2L88.1,92.2l.5-.75L84.3,80.6m3.6,11.8.2-.2-.15.2h0"/><path class="cls-21" d="M87.9,92.4h0l.15-.2,2.05,2.4-1.35,2-3.5,4.85-.45-4.6v0L87.9,92.4M79.15,95l-1.25-.5,6.4-13.9.3,16.55L79.15,95m6.45,10.6-1-.35,0,0-8.9-3.5,2.5-3.1,6.85,2.7.55,4.3"/><path class="cls-22" d="M85.6,105.6l-.55-4.3L78.2,98.6l-.65-.25,1.3-3.45.3.1,5.45,2.15L84.3,80.6l4.3,10.85-.5.75-.2.2-3.05,4.35v0l.45,4.6,3.5-4.85,1.6,2.3-4.8,6.75"/></g></g></svg>