<svg xmlns="http://www.w3.org/2000/svg" viewBox="0 0 120 140"><defs><style>.cls-1{fill:#bb8044;}.cls-2{fill:#aa753e;}.cls-3{fill:#c68a4e;}.cls-4{fill:#727979;}.cls-5{fill:#d5e5e5;}.cls-6{fill:#b9c6c6;}.cls-7{fill:#a6b1b1;}.cls-8{fill:#5a6b6b;}.cls-9{fill:#879393;}.cls-10{fill:#a4afaf;}.cls-11{fill:#b5c2c2;}.cls-12{fill:#146236;}.cls-13{fill:#219853;}.cls-14{fill:#27ae60;}.cls-15{fill-opacity:0.1;}.cls-16{fill:#2abf69;}.cls-17{fill:#115f32;}.cls-18{fill:#10773c;}.cls-19{fill:#168344;}.cls-20{fill:#1b914d;}.cls-21{fill:#e5794f;}.cls-22{fill:#743a25;}.cls-23{fill:#bb5f3c;}.cls-24{fill:#d26f49;}.cls-25{fill:#a15133;}.cls-26{fill:#8e4a31;}.cls-27{fill:#d2e0e0;}.cls-28{fill:#efffff;}.cls-29{fill:#f78256;}.cls-30{fill:#b6603f;}.cls-31{fill:#688795;}.cls-32{fill:#d9d9d9;}</style></defs><title>Asset 96</title><g id="Layer_2" data-name="Layer 2"><g id="Layer_1-2" data-name="Layer 1"><path class="cls-1" d="M110.75,62.25l-6.55-.8-.75,6.6,6.55.75.75-6.55M109,53.6l-4.4,1.2,1.2,4.45,4.4-1.25L109,53.6m-11.25,9,3.15.4.45-3.1-3.2-.45-.4,3.15M94.3,90.5V86H89.7l0,4.55H94.3m16.45,5.35-1.75-4-4,1.85,1.75,4,4-1.85m-7.5,2.35-7.1,1.1,1,7,7.1-1.1-1-7M120,105,60,140,0,105V35L60,0l60,35v70M27.45,49.9l-6.8,3,3,6.9,6.85-3-3.05-6.9m7.15-4.8-3.25,2.6L34,51l3.2-2.6L34.6,45.1M13.75,53.4l-2,.9.85,2.1,2-.95-.85-2.05m7.1-10.7,2.75,3.75,3.85-2.8L24.6,39.9l-3.75,2.8M51.5,28.3l4.35-.7-.7-4.35L50.8,24l.7,4.35m7.15-4.65,7.15.8.8-7-7.1-.8-.85,7M91.4,78.55l-3-1.25-1.2,3,2.9,1.2,1.25-2.9m-60.2,24.7L26.65,102l-1.2,4.55,4.5,1.2,1.25-4.45m-2.8-10.9-4-.95-1,4,4,1,1-4.05m50.9-.9L76.85,97.6,83,100l2.45-6.1L79.3,91.45M41.7,95,35.1,91.4l-3.55,6.7,6.55,3.5L41.7,95m2.95,12.75,1.15-2-2-1-1,2,1.9,1"/><path class="cls-2" d="M44.65,107.7l-1.9-1,1-2,2,1-1.15,2M109,53.6l1.2,4.4-4.4,1.25-1.2-4.45,4.4-1.2m1.8,8.65L110,68.8l-6.55-.75.75-6.6,6.55.8M94.3,90.5H89.75l0-4.55h4.6V90.5m9,7.7,1,7-7.1,1.1-1-7,7.1-1.1M20.85,42.7l3.75-2.8,2.85,3.75-3.85,2.8L20.85,42.7m-7.1,10.7.85,2.05-2,.95-.85-2.1,2-.9M34.6,45.1l2.55,3.25L34,51l-2.6-3.25,3.25-2.6m24-21.45.85-7,7.1.8-.8,7.05-7.15-.8M79.3,91.45l6.15,2.45L83,100l-6.15-2.4,2.45-6.15m-50.9.9-1,4.05-4-1,1-4,4,.95m2.8,10.9L30,107.7l-4.5-1.2,1.2-4.55,4.55,1.3"/><path class="cls-3" d="M97.7,62.65l.4-3.15,3.2.45-.45,3.1-3.15-.4m13,33.2-4,1.85-1.75-4,4-1.85,1.75,4M27.45,49.9l3.05,6.9-6.85,3-3-6.9,6.8-3M51.5,28.3,50.8,24l4.35-.7.7,4.35-4.35.7M91.4,78.55l-1.25,2.9-2.9-1.2,1.2-3,3,1.25M41.7,95l-3.6,6.65-6.55-3.5,3.55-6.7L41.7,95"/><path class="cls-4" d="M83.05,45.8,39.25,25.25l-2.15,2.1V35.2L81.25,55.8l1.8-2.45V45.8M35.7,26l2.15-2.1A2,2,0,0,1,39,23.3l1.15.15L83.9,44a2.34,2.34,0,0,1,.85.75l.3,1v7.55a2,2,0,0,1-.4,1.2L82.85,57a2,2,0,0,1-1.1.75l-1.35-.1L36.25,37.05l-.8-.75a1.89,1.89,0,0,1-.35-1.1V27.35a1.82,1.82,0,0,1,.6-1.4"/><path class="cls-5" d="M37.1,27.35l2.15-2.1L83.05,45.8l-1.8,2.1L37.1,27.35"/><path class="cls-6" d="M37.1,27.35,81.25,47.9v7.9L37.1,35.2V27.35"/><path class="cls-7" d="M83.05,45.8v7.55l-1.8,2.45V47.9l1.8-2.1"/><path class="cls-8" d="M63.4,32l1,.2,1.65.75.45.25,7,5.8,0,.1,8.35,7.75a1.79,1.79,0,0,1,.65,1.35,2,2,0,0,1-.45,1.4l-4.35,5.15-.7.55-12,5.55L64.2,61l-.85-.15-8.15-3.8-.75-.65-.35-.95-1.35-11.8a1.26,1.26,0,0,1,0-.8l.4-.75,6.75-8,.4-.35,2.1-1.4A2,2,0,0,1,63.4,32m8.8,8.55L63.55,34l-2.1,1.4-6.75,8,1.35,11.8L64.2,59l12-5.55,4.35-5.15L72.2,40.55"/><path class="cls-9" d="M72.2,40.55l8.35,7.75L76.2,53.45l-4.85-12,.85-1M61.45,35.4l1,8.55L56.05,55.2,54.7,43.4l6.75-8"/><path class="cls-10" d="M61.45,35.4l2.1-1.4,8.65,6.55-.85,1L62.5,44l-1-8.55"/><path class="cls-11" d="M62.5,44l8.85-2.45,4.85,12L64.2,59l-8.15-3.8L62.5,44"/><path class="cls-12" d="M86.65,38l-12.3.1L51.15,65.4l-3.5,10.25,8,3.7v-10l15.85,7.35v10.1l7.85,3.7L102.5,63.1,99,49.6,86.65,38M54.8,81.2l-8-3.7a2,2,0,0,1-1-1,2,2,0,0,1,0-1.45l3.5-10.25.4-.65,23.2-27.35.65-.5.85-.2,12.3-.1a2,2,0,0,1,1.4.55L100.4,48.15l.55,1,3.5,13.5v.95l-.4.85L80.85,91.75a2.11,2.11,0,0,1-1.1.65l-1.3-.15-7.9-3.7-.75-.7a1.89,1.89,0,0,1-.35-1.1V78L57.6,72.45v6.9a2.05,2.05,0,0,1-.4,1.25,2,2,0,0,1-1.1.7l-1.3-.1"/><path class="cls-13" d="M99,49.6l3.5,13.5L79.3,90.45,75.85,77,99,49.6M51.15,65.4l23.2-27.35,12.3-.1L63.5,65.3l-12.35.1"/><path class="cls-14" d="M51.15,65.4l12.35-.1L75.85,77l3.45,13.5-7.85-3.7V76.65L55.6,69.3v10l-8-3.7,3.5-10.25"/><path class="cls-15" d="M54.8,81.2l1.3.1a2,2,0,0,0,1.1-.7,2.05,2.05,0,0,0,.4-1.25v-6.9L69.45,78v8.8a1.89,1.89,0,0,0,.35,1.1l.75.7L54.8,81.2"/><path class="cls-16" d="M86.65,38,99,49.6,75.85,77,63.5,65.3,86.65,38"/><path class="cls-17" d="M25.2,23.55,34.3,43.3l.15,1.05-.4.95-.4.4,1.2,3.2a1.85,1.85,0,0,1,0,1.35l2.3,2.8a2,2,0,0,1,.45,1.15,2.07,2.07,0,0,1-.3,1.2l-.95.75-14.1,5.6-1.3.1-1.05-.8-6.8-9.6a1.77,1.77,0,0,1-.4-1.15,2,2,0,0,1,.35-1.15L14.55,47l-1.1-1.6a1.73,1.73,0,0,1-.4-1.25,1.92,1.92,0,0,1,.5-1.2l1.95-2.2-.2-.7a1.54,1.54,0,0,1,.1-.95l6.1-15.45a1.82,1.82,0,0,1,1.05-1.1l1.5-.05a2,2,0,0,1,1.15,1.05m-1.85.8L17.25,39.8,18,40.85l.25.3H18.2l-.2-.3-2.95,3.4L17,47l-2.3,3.3,6.8,9.6,1.5-.55L23,59.3l12.65-5L32,50l1-.35-1.85-5-.4.15,1.75-.7-9.1-19.75"/><path class="cls-18" d="M18.25,41.15,22.6,47.3v.05L22,53.9,17,47l-1.95-2.75L18,40.85l.2.3h.05"/><path class="cls-19" d="M18.25,41.15l-.25-.3-.75-1.05,6.1-15.45L23,47.85,30.7,44.8l.4-.15,1.85,5L32,50l-9.7,3.8-.8,6.15-6.8-9.6L17,47,22,53.9l.65-6.55V47.3l-4.35-6.15"/><path class="cls-20" d="M21.5,59.9l.8-6.15L32,50l3.6,4.35L23,59.3l.05.05-1.5.55m9.2-15.1L23,47.85l.4-23.5,9.1,19.75-1.75.7"/><path class="cls-17" d="M20,48.2A1.82,1.82,0,0,1,21,49.3l4.3,10.85.15.9-.05.35,1.15,1.3A2,2,0,0,1,27,63.9a1.84,1.84,0,0,1-.35,1.25l-.55.8.8,1.15a2,2,0,0,1,.35,1.15L26.9,69.4l-4.8,6.75-1,.75a2.05,2.05,0,0,1-1.25,0l-1.05-.35-.6-.3L9.85,73,8.9,72.2A1.77,1.77,0,0,1,8.55,71,2,2,0,0,1,9,69.85l1.45-1.75a1.87,1.87,0,0,1,.1-1l.7-1.85-.1-.1a1.84,1.84,0,0,1-.4-.95A1.91,1.91,0,0,1,11,63.1l6.4-13.9a1.81,1.81,0,0,1,1.1-1.05l1.5.05M23.65,66,25,64,23,61.6l-.15.2h-.05l.2-.2.5-.75L19.15,50l-6.4,13.9,1.25.5-.3-.1-1.3,3.45.65.25-2.5,3.1,8.9,3.5-.05.05,1.05.35,4.8-6.75L23.65,66"/><path class="cls-19" d="M23.65,66l-3.5,4.85-.45-4.6v0l3.05-4.35h.05l.15-.2L25,64l-1.35,2m-3.2,9-1.05-.35.05-.05-8.9-3.5,2.5-3.1,6.85,2.7.55,4.3M14,64.4l-1.25-.5L19.15,50l.3,16.55L14,64.4"/><path class="cls-20" d="M14,64.4l5.45,2.15L19.15,50l4.3,10.85-.5.75-.2.2L19.7,66.15v0l.45,4.6L23.65,66l1.6,2.3L20.45,75l-.55-4.3L13.05,68l-.65-.25,1.3-3.45.3.1"/><path class="cls-4" d="M89.05,73.15V72.3a1.89,1.89,0,0,1,.5-1.3l3.7-4.35a1.8,1.8,0,0,1,1.2-.65l2.4-.4,1.15.15,5.85,2.75.65.5.45.75.25.8-1.65,1.8V72.1L103,70.3l-5.85-2.75-2.4.4-3.7,4.35v1.75l-2-.9"/><path class="cls-21" d="M97.5,76.85l2.35-.4V79.9l-2.35.4V76.85m2.35,13.5-2.35.4V87.3l2.35-.45v3.5"/><path class="cls-5" d="M91.05,72.3,94.75,68l2.4-.4L103,70.3l.55,1.8-3.7,4.35-2.35.4L91.6,74.1l-.55-1.8"/><path class="cls-22" d="M105.2,70.55l.3,1,0,.55V86a2,2,0,0,1-.45,1.3l-3.7,4.35a2.17,2.17,0,0,1-1.2.7l-2.35.4-1.2-.15-5.9-2.75-.65-.5-.4-.75-.55-1.75-.1-.6V73.15l2,.9v12.2L91.6,88l5.9,2.75,2.35-.4,3.7-4.35V72.35l1.65-1.8"/><path class="cls-23" d="M103.55,72.1v3.45l-3.7,4.35V76.45l3.7-4.35m0,10.4V86l-3.7,4.35v-3.5l3.7-4.35m-12.5.25v-7l.55,1.75,5.9,2.75v7l-5.9-2.75-.55-1.8"/><path class="cls-24" d="M91.05,74.05V72.3l.55,1.8,5.9,2.75V80.3l2.35-.4v6.95l-2.35.45v3.45L91.6,88l-.55-1.75v-3.5l.55,1.8,5.9,2.75v-7l-5.9-2.75-.55-1.75V74.05"/><path class="cls-25" d="M99.85,86.85V79.9l3.7-4.35v7l-3.7,4.35"/><path class="cls-15" d="M52.15,102.85v3.2l-3,3.25L25.3,98.65l1.1,0,1.05-.6,1.3-1.45,19.25,9,1.2.2,1.1-.55,1.3-1.3a1.78,1.78,0,0,0,.55-1.2"/><path class="cls-26" d="M52.15,102.85a1.78,1.78,0,0,1-.55,1.2l-1.3,1.3-1.1.55-1.2-.2-19.25-9,.8-1.8,5.6,2.6,5.75,2.7,8,3.75,1.3-1.3v-2L43.9,97.7l-5.8-2.65-5.8-2.7L31,91.7l.8-1.85L51,98.8l.85.75.3,1v2.25"/><path class="cls-4" d="M25.3,98.65l-.1-.05h-.05l-7.4-3.3-.85-.75a1.89,1.89,0,0,1-.35-1.1V84.8A1.92,1.92,0,0,1,17,83.55L20.8,79a2,2,0,0,1,1.15-.7l1.3.15L30.65,82l.8.75.3,1v6.1L31,91.7l-1.2-.55v-7.4l-7.4-3.55-3.8,4.6v8.65l7.4,3.3,2.25-2.5v0l1.15.55.2.1-.8,1.8-1.3,1.45-1.05.6-1.1,0"/><path class="cls-7" d="M26,89.4V88.1l3.8-4.35v7.4L26.6,89.7,26,89.4m0,7.35V93.2l2.25,1v0L26,96.75"/><path class="cls-6" d="M26,96.75l-7.4-3.3V84.8L26,88.1v1.3L21.1,87.1l-1.3,1.25V90.4l3.75,1.7L26,93.2v3.55"/><path class="cls-24" d="M48.85,103.9l-8-3.75L42.55,99h.05l6.25,2.9v2.05m-13.7-6.45-5.6-2.6-.2-.1L31,93.55l.05,0,5.8,2.65-1.7,1.2M23.55,92.1,19.8,90.4V88.35l5.5,2.55-1.75,1.2"/><path class="cls-27" d="M23.55,92.1l1.75-1.2L31,93.55l-1.65,1.2L28.2,94.2,26,93.2l-2.4-1.1m17.35,8.05-5.75-2.7,1.7-1.2,5.7,2.7-1.65,1.2"/><path class="cls-28" d="M31,91.7l1.35.65L31,93.55,25.3,90.9l1.3-1.2,3.15,1.45,1.2.55m7.15,3.35,5.8,2.65L42.55,99l-5.7-2.7,1.25-1.2"/><path class="cls-29" d="M38.1,95.05l-1.25,1.2-5.8-2.65-.05,0,1.3-1.2,5.8,2.7m5.8,2.65,6.25,2.9-1.3,1.25L42.6,99h-.05L43.9,97.7M26,89.4l.65.3-1.3,1.2-5.5-2.55,1.3-1.25L26,89.4"/><path class="cls-5" d="M29.75,83.75,26,88.1l-7.4-3.3,3.8-4.6,7.4,3.55"/><path class="cls-30" d="M50.15,100.6v2l-1.3,1.3v-2.05l1.3-1.25"/><path class="cls-4" d="M72.6,102.7,59.1,96.45l-5.65,6.45v8.45l1.9,1,.45.25,4.1,2L67,117.8l5.65-6.75V102.7m1.7-1,.3,1v8.35l-.45,1.3L68.5,119.1a2.11,2.11,0,0,1-1.1.65l-1.3-.15-13.5-6.45-.85-.7a2.09,2.09,0,0,1-.3-1.1V102.9a1.89,1.89,0,0,1,.5-1.3l5.65-6.45a2.11,2.11,0,0,1,1.1-.65l1.25.15,13.5,6.25.85.75"/><path class="cls-5" d="M53.45,102.9l5.65-6.45,13.5,6.25L67,109.45l-13.5-6.55"/><path class="cls-6" d="M53.45,102.9,67,109.45v8.35l-7.05-3.2v-6.25l-4.3-1.9v6l-.25-.1-1.9-1V102.9m11.6,10.85v-3l-4-1.9v2.95l4,1.9"/><path class="cls-31" d="M59.9,114.6l-4.1-2-.2-.15v-6l4.3,1.9v6.25m5.15-.85-4-1.9V108.9l4,1.9v3"/><path class="cls-32" d="M55.8,112.55l-.45-.25.25.1.2.15"/><path class="cls-7" d="M72.6,102.7v8.35L67,117.8v-8.35l5.65-6.75"/></g></g></svg>