<svg xmlns="http://www.w3.org/2000/svg" viewBox="0 0 120 140"><defs><style>.cls-1{fill:#bb8044;}.cls-2{fill:#aa753e;}.cls-3{fill:#c68a4e;}.cls-4{fill:#115f32;}.cls-5{fill:#1b914d;}.cls-6{fill-opacity:0.1;}.cls-7{fill:#727979;}.cls-8{fill:#a6b1b1;}.cls-9{fill:#b9c6c6;}.cls-10{fill:#d5e5e5;}.cls-11{fill:#8e4124;}.cls-12{fill:#d26f49;}.cls-13{fill:#a4afaf;}.cls-14{fill:#879393;}.cls-15{fill:#646b6b;}.cls-16{fill:#688795;}.cls-17{fill:#d9d9d9;}.cls-18{fill:#f78256;}.cls-19{fill:#efffff;}.cls-20{fill:#8e4a31;}.cls-21{fill:#d2e0e0;}.cls-22{fill:#b6603f;}.cls-23{fill:#198a49;}</style></defs><title>Asset 99</title><g id="Layer_2" data-name="Layer 2"><g id="Layer_1-2" data-name="Layer 1"><path class="cls-1" d="M59.5,16.6l-.85,7,7.15.8.8-7-7.1-.8m-4.35,6.65L50.8,24l.7,4.35,4.35-.7-.7-4.35m49.05,38.2-.75,6.6,6.55.75.75-6.55-6.55-.8M31.35,47.7,34,51l3.2-2.6L34.6,45.1l-3.25,2.6M91.4,78.55l-3-1.25-1.2,3,2.9,1.2,1.25-2.9m6.7-19-.4,3.15,3.15.4.45-3.1-3.2-.45M85.45,93.9,79.3,91.45,76.85,97.6,83,100l2.45-6.1M105,93.7l1.75,4,4-1.85-1.75-4-4,1.85m-73.8,9.55L26.65,102l-1.2,4.55,4.5,1.2,1.25-4.45m72.05-5-7.1,1.1,1,7,7.1-1.1-1-7m-9-7.7V86H89.7l0,4.55H94.3M41.7,95,35.1,91.4l-3.55,6.7,6.55,3.5L41.7,95M104.55,54.8l1.2,4.45,4.4-1.25L109,53.6l-4.4,1.2m-59.9,52.9,1.15-2-2-1-1,2,1.9,1M27.4,96.4l1-4.05-4-.95-1,4,4,1M120,105,60,140,0,105V35L60,0l60,35v70M30.5,56.8l-3.05-6.9-6.8,3,3,6.9,6.85-3M24.6,39.9l-3.75,2.8,2.75,3.75,3.85-2.8L24.6,39.9M13.75,53.4l-2,.9.85,2.1,2-.95-.85-2.05"/><path class="cls-2" d="M13.75,53.4l.85,2.05-2,.95-.85-2.1,2-.9M59.5,16.6l7.1.8-.8,7.05-7.15-.8.85-7M31.35,47.7l3.25-2.6,2.55,3.25L34,51l-2.6-3.25M104.2,61.45l6.55.8L110,68.8l-6.55-.75.75-6.6M85.45,93.9,83,100l-6.15-2.4,2.45-6.15,6.15,2.45m8.85-3.4H89.75l0-4.55h4.6V90.5m9,7.7,1,7-7.1,1.1-1-7,7.1-1.1m-72,5L30,107.7l-4.5-1.2,1.2-4.55,4.55,1.3M27.4,96.4l-4-1,1-4,4,.95-1,4.05m17.25,11.3-1.9-1,1-2,2,1-1.15,2m59.9-52.9,4.4-1.2,1.2,4.4-4.4,1.25-1.2-4.45M24.6,39.9l2.85,3.75-3.85,2.8L20.85,42.7l3.75-2.8"/><path class="cls-3" d="M55.15,23.25l.7,4.35-4.35.7L50.8,24l4.35-.7M98.1,59.5l3.2.45-.45,3.1-3.15-.4.4-3.15m-6.7,19-1.25,2.9-2.9-1.2,1.2-3,3,1.25M105,93.7l4-1.85,1.75,4-4,1.85-1.75-4M41.7,95l-3.6,6.65-6.55-3.5,3.55-6.7L41.7,95M30.5,56.8l-6.85,3-3-6.9,6.8-3,3.05,6.9"/><path class="cls-4" d="M19.9,52.65l1.75-1.1.2-.15A4.53,4.53,0,0,0,23,48.45V47.6a49.92,49.92,0,0,0-1.35-12.5Q20.26,30,18.3,30T15,35.1a48.37,48.37,0,0,0-1.4,12.5v.85a4.3,4.3,0,0,0,1.25,2.95l.15.15a4.34,4.34,0,0,0,1.75,1.1V53.8a1.54,1.54,0,0,0,1.55,1.55h.05a1.35,1.35,0,0,0,1-.45,1.44,1.44,0,0,0,.5-1.1V52.65m-6.8-.25a6,6,0,0,1-1.5-3.9v-.9a48.75,48.75,0,0,1,1.5-13q1.85-7.09,5.2-6.65,3.35-.49,5.3,6.65a52.21,52.21,0,0,1,1.4,13v.9a6.53,6.53,0,0,1-1.4,4l-.5.55h-.05l-1.15.9a3.21,3.21,0,0,1-1,2.35l-.15.15a3.51,3.51,0,0,1-2.4,1H18.3a3.38,3.38,0,0,1-2.5-1,3.48,3.48,0,0,1-1.05-2.45L13.6,53h.05l-.55-.6"/><path class="cls-5" d="M16.75,52.65A4.34,4.34,0,0,1,15,51.55l-.15-.15a4.3,4.3,0,0,1-1.25-2.95V47.6A48.37,48.37,0,0,1,15,35.1Q16.35,30,18.3,30t3.35,5.15A49.92,49.92,0,0,1,23,47.6v.85a4.53,4.53,0,0,1-1.15,2.95l-.2.15-1.75,1.1-1.6.25-1.55-.25"/><path class="cls-6" d="M23.6,52.45a3.36,3.36,0,0,1,1.5,2.7,3.72,3.72,0,0,1-2,3.1,8.34,8.34,0,0,1-4.75,1.3,8.57,8.57,0,0,1-4.8-1.3,3.72,3.72,0,0,1-2-3.1,3.48,3.48,0,0,1,1.5-2.75l.55.6H13.6l1.15.9a3.48,3.48,0,0,0,1.05,2.45,3.38,3.38,0,0,0,2.5,1h.05a3.51,3.51,0,0,0,2.4-1l.15-.15a3.21,3.21,0,0,0,1-2.35l1.15-.9h.05l.5-.55"/><path class="cls-1" d="M19.9,52.65V53.8a1.44,1.44,0,0,1-.5,1.1,1.35,1.35,0,0,1-1,.45H18.3a1.54,1.54,0,0,1-1.55-1.55V52.65l1.55.25,1.6-.25"/><path class="cls-7" d="M12.35,58H9.75L45.55,15.6a1.87,1.87,0,0,1,1.1-.65l1.25.15,70.15,32.8a2.34,2.34,0,0,1,.85.75l.3,1.05V58h-2V49.7L47.05,16.9,12.35,58m91.1,0h-2.6l.2-.2-.15-.1L49.45,33.5,28.7,58H26.05L48.9,31.05l52.85,24.8,0-.05L104.3,57l-.85,1"/><path class="cls-8" d="M117.2,58h-7l7-8.25V58M26.05,58H19.1L48.9,22.8v8.25L26.05,58"/><path class="cls-9" d="M48.9,31.05V22.8L109.25,51l-5,6-2.5-1.15,0,.05L48.9,31.05"/><path class="cls-10" d="M110.2,58h-6.75l.85-1,5-6L48.9,22.8,19.1,58H12.35L47.05,16.9,117.2,49.7l-7,8.25"/><path class="cls-7" d="M78.25,36.55V49l.75.15a2.14,2.14,0,0,1,1,.95l7,13.35.2.9v3a2.11,2.11,0,0,1-1.4,2L68,74.6l-1.35-.1a1.91,1.91,0,0,1-1-.9L58.3,60l-.25-1V56a1.87,1.87,0,0,1,.45-1.2,1.75,1.75,0,0,1,1-.7l7.5-2V35.2l2,.25v18l-9,2.45v3.1l7.35,13.6,17.85-5.4v-3L78.2,51l-2,.55V36.3l2,.25"/><path class="cls-11" d="M78.25,36.55l-2-.25V34.15L75,23.85l0-.25a4.35,4.35,0,0,0-.85-2.15,1.67,1.67,0,0,0-1.35-.85,1.79,1.79,0,0,0-1.4.85,4.35,4.35,0,0,0-.85,2.15l0,.25-1.35,10.3v1.3l-2-.25V34.15l0-.25,1.3-10.1.1-.65a6.05,6.05,0,0,1,1.2-2.9,3.37,3.37,0,0,1,3-1.65,3.16,3.16,0,0,1,2.9,1.6,6,6,0,0,1,1.3,3.1l0,.3,1.3,10.3v2.65"/><path class="cls-12" d="M76.25,47.05v2a2.14,2.14,0,0,1-1,1.65,4.63,4.63,0,0,1-5,0A2.13,2.13,0,0,1,69.05,49v-2a2.15,2.15,0,0,0,1.1,1.7,4.63,4.63,0,0,0,5,0,2.16,2.16,0,0,0,1-1.7m-7.2-11.6v-1.3l1.35-10.3,0-.25a4.35,4.35,0,0,1,.85-2.15,1.79,1.79,0,0,1,1.4-.85,1.67,1.67,0,0,1,1.35.85,4.35,4.35,0,0,1,.85,2.15l0,.25,1.3,10.3v1.5l-.2.6-.85.85a4.63,4.63,0,0,1-5,0,2,2,0,0,1-1.1-1.65"/><path class="cls-13" d="M69.05,35.45a2,2,0,0,0,1.1,1.65,4.63,4.63,0,0,0,5,0l.85-.85.2-.6v3.7a2.14,2.14,0,0,1-1,1.65,4.9,4.9,0,0,1-5,0,2.13,2.13,0,0,1-1.1-1.65v-3.9"/><path class="cls-14" d="M76.25,39.35v7.7a2.16,2.16,0,0,1-1,1.7,4.63,4.63,0,0,1-5,0,2.15,2.15,0,0,1-1.1-1.7v-7.7A2.13,2.13,0,0,0,70.15,41a4.9,4.9,0,0,0,5,0,2.14,2.14,0,0,0,1-1.65m0,9.65V59.7c0,.5-.35.93-1,1.3a6.07,6.07,0,0,1-5,0c-.73-.37-1.1-.8-1.1-1.3V49a2.13,2.13,0,0,0,1.1,1.65,4.63,4.63,0,0,0,5,0,2.14,2.14,0,0,0,1-1.65"/><path class="cls-10" d="M76.25,51.5l2-.55,7,13.35L67.4,69.55,60.05,56l9-2.45v2.2a9.13,9.13,0,0,0-2,.9,4.27,4.27,0,0,0-2.25,3.55,4.16,4.16,0,0,0,2.25,3.5,9.59,9.59,0,0,0,5.4,1.45A9.83,9.83,0,0,0,78,63.65a4.16,4.16,0,0,0,2.25-3.5A4.27,4.27,0,0,0,78,56.6a9.63,9.63,0,0,0-1.7-.75V51.5"/><path class="cls-8" d="M85.25,64.3v3L67.4,72.65v-3.1L85.25,64.3"/><path class="cls-9" d="M67.4,72.65l-7.35-13.6V56l7.35,13.6v3.1m8.85-16.8a9.63,9.63,0,0,1,1.7.75,4.27,4.27,0,0,1,2.25,3.55A4.16,4.16,0,0,1,78,63.65,9.83,9.83,0,0,1,72.5,65.1a9.59,9.59,0,0,1-5.4-1.45,4.16,4.16,0,0,1-2.25-3.5A4.27,4.27,0,0,1,67.1,56.6a9.13,9.13,0,0,1,2-.9v1.75A2.69,2.69,0,0,0,67.6,59.7,2.61,2.61,0,0,0,69.05,62a6,6,0,0,0,3.45.95A6.27,6.27,0,0,0,76,62a2.61,2.61,0,0,0,1.45-2.25,2.47,2.47,0,0,0-1.2-2.05v-1.8"/><path class="cls-15" d="M69.05,57.45V59.7c0,.5.37.93,1.1,1.3a6.07,6.07,0,0,0,5,0c.7-.37,1-.8,1-1.3V57.65a2.47,2.47,0,0,1,1.2,2.05A2.61,2.61,0,0,1,76,62a6.27,6.27,0,0,1-3.5.95A6,6,0,0,1,69.05,62,2.61,2.61,0,0,1,67.6,59.7a2.69,2.69,0,0,1,1.45-2.25"/><path class="cls-11" d="M48.85,43.5V42l-1.3-10.3,0-.25a4.35,4.35,0,0,0-.85-2.15,1.67,1.67,0,0,0-1.35-.85,1.79,1.79,0,0,0-1.4.85,4.35,4.35,0,0,0-.85,2.15l0,.25L41.65,42v1.3l-2-.25V42l.05-.25L41,31.6l.1-.65a6.05,6.05,0,0,1,1.2-2.9,3.37,3.37,0,0,1,3-1.65A3.16,3.16,0,0,1,48.2,28a6,6,0,0,1,1.3,3.1l0,.3,1.3,10.3v2.65l-2-.25v-.6"/><path class="cls-12" d="M48.85,43.5l-.2.55-.85.85a4.63,4.63,0,0,1-5,0,2,2,0,0,1-1.1-1.65V42L43,31.65l0-.25a4.35,4.35,0,0,1,.85-2.15,1.79,1.79,0,0,1,1.4-.85,1.67,1.67,0,0,1,1.35.85,4.35,4.35,0,0,1,.85,2.15l0,.25L48.85,42V43.5m0,11.35V56.8a2.14,2.14,0,0,1-1.05,1.65,4.63,4.63,0,0,1-5,0,2.13,2.13,0,0,1-1.1-1.65V54.85a2.15,2.15,0,0,0,1.1,1.7,4.63,4.63,0,0,0,5,0,2.16,2.16,0,0,0,1.05-1.7"/><path class="cls-7" d="M48.85,54.85V44.1l2,.25v12.4l.75.15a2.14,2.14,0,0,1,1,1l7,13.35.2.9v3a2,2,0,0,1-.4,1.2l-1,.75L40.6,82.4l-1.35-.1a1.91,1.91,0,0,1-1-.9L30.9,67.8l-.25-1v-3.1a1.87,1.87,0,0,1,.45-1.2,1.75,1.75,0,0,1,1-.7l7.5-2.05V43l2,.25v18l-9,2.45v3.1L40,80.45l17.85-5.4v-3L50.8,58.75l-1.95.55V54.85"/><path class="cls-14" d="M48.85,54.85a2.16,2.16,0,0,1-1.05,1.7,4.63,4.63,0,0,1-5,0,2.15,2.15,0,0,1-1.1-1.7v-7.7a2.13,2.13,0,0,0,1.1,1.65,4.9,4.9,0,0,0,5,0,2.14,2.14,0,0,0,1.05-1.65v7.7m0,1.95V67.5c0,.5-.35.93-1.05,1.3a6.07,6.07,0,0,1-5,0c-.73-.37-1.1-.8-1.1-1.3V56.8a2.13,2.13,0,0,0,1.1,1.65,4.63,4.63,0,0,0,5,0,2.14,2.14,0,0,0,1.05-1.65"/><path class="cls-13" d="M48.85,43.5v3.65A2.14,2.14,0,0,1,47.8,48.8a4.9,4.9,0,0,1-5,0,2.13,2.13,0,0,1-1.1-1.65v-3.9a2,2,0,0,0,1.1,1.65,4.63,4.63,0,0,0,5,0l.85-.85.2-.55"/><path class="cls-9" d="M40,80.45l-7.35-13.6v-3.1L40,77.35v3.1m8.85-16.8a9.63,9.63,0,0,1,1.7.75A4.27,4.27,0,0,1,52.8,68a4.16,4.16,0,0,1-2.25,3.5A9.83,9.83,0,0,1,45.1,72.9a9.59,9.59,0,0,1-5.4-1.45A4.16,4.16,0,0,1,37.45,68,4.27,4.27,0,0,1,39.7,64.4a9.13,9.13,0,0,1,1.95-.9v1.75A2.69,2.69,0,0,0,40.2,67.5a2.61,2.61,0,0,0,1.45,2.25,6,6,0,0,0,3.45,1,6.27,6.27,0,0,0,3.5-1,2.61,2.61,0,0,0,1.45-2.25,2.47,2.47,0,0,0-1.2-2v-1.8"/><path class="cls-10" d="M48.85,63.65V59.3l1.95-.55L57.85,72.1,40,77.35l-7.35-13.6,9-2.45v2.2a9.13,9.13,0,0,0-1.95.9A4.27,4.27,0,0,0,37.45,68a4.16,4.16,0,0,0,2.25,3.5,9.59,9.59,0,0,0,5.4,1.45,9.83,9.83,0,0,0,5.45-1.45A4.16,4.16,0,0,0,52.8,68a4.27,4.27,0,0,0-2.25-3.55,9.63,9.63,0,0,0-1.7-.75"/><path class="cls-15" d="M48.85,65.45a2.47,2.47,0,0,1,1.2,2,2.61,2.61,0,0,1-1.45,2.25,6.27,6.27,0,0,1-3.5,1,6,6,0,0,1-3.45-1A2.61,2.61,0,0,1,40.2,67.5a2.69,2.69,0,0,1,1.45-2.25V67.5c0,.5.37.93,1.1,1.3a6.07,6.07,0,0,0,5,0c.7-.37,1.05-.8,1.05-1.3v-2"/><path class="cls-8" d="M57.85,72.1v3L40,80.45v-3.1L57.85,72.1"/><path class="cls-7" d="M117.2,58h2a2,2,0,0,1-.45,1.3L74.6,111.3a2.11,2.11,0,0,1-1.1.65l-1.25-.1-12.6-5.8-.85-.75a1.89,1.89,0,0,1-.35-1.1V95.85a1.89,1.89,0,0,1,.5-1.3l3.1-3.6a1.87,1.87,0,0,1,1.1-.65l1.25.15,6.4,3,29.45-34.85.1-.1.5-.5h2.6L71.3,95.85l-7.75-3.6-3.1,3.6v8.35l12.6,5.8L117.2,58M26.05,58H28.7l-1.2,1.4-3.8,4.5L19.9,68.4l-.5.4-.65.25-.15,0L48.8,83.25l.85.75.3,1V93.3l-.45,1.3-3,3.6a2.11,2.11,0,0,1-1.1.65l-1.3-.15L2.15,79.05l-.8-.7A1.89,1.89,0,0,1,1,77.25V69a1.89,1.89,0,0,1,.5-1.3L9.75,58h2.6L3,69v8.25L45,96.9l3-3.6V85.05L15.75,70l2.5-2.9.1,0,3.8-4.55,3.8-4.5.1-.1"/><path class="cls-10" d="M103.45,58h6.75l-37.15,43.8-12.6-5.9,3.1-3.6,7.75,3.6L103.45,58M15.75,70,48,85.05l-3,3.6L3,69l9.35-11H19.1l-8.25,9.7,4.9,2.3"/><path class="cls-8" d="M15.75,70l-4.9-2.3L19.1,58h7l-.1.1-3.8,4.5-3.8,4.55-.1,0L15.75,70M110.2,58h7L73.05,110v-8.25L110.2,58M48,85.05V93.3l-3,3.6V88.65l3-3.6"/><path class="cls-9" d="M73.05,110l-12.6-5.8V95.85l12.6,5.9V110M45,96.9,3,77.25V69L45,88.65V96.9"/><path class="cls-7" d="M15.6,92.3l4.1,2,7.05,3.2L32.4,90.8V82.45L18.9,76.2l-5.65,6.45V91.1l1.9,1,.45.25M34.1,81.4l.3,1V90.8L34,92.1,28.3,98.85a2.11,2.11,0,0,1-1.1.65l-1.3-.15L12.4,92.9l-.85-.7a2.09,2.09,0,0,1-.3-1.1V82.65a1.89,1.89,0,0,1,.5-1.3L17.4,74.9a2.11,2.11,0,0,1,1.1-.65l1.25.15,13.5,6.25.85.75"/><path class="cls-8" d="M26.75,89.2l5.65-6.75V90.8l-5.65,6.75V89.2"/><path class="cls-10" d="M26.75,89.2l-13.5-6.55L18.9,76.2l13.5,6.25L26.75,89.2"/><path class="cls-9" d="M13.25,82.65l13.5,6.55v8.35l-7-3.2V88.1l-4.3-1.9v6l-.25-.1-1.9-1V82.65m11.6,7.9-4.05-1.9V91.6l4.05,1.9v-3"/><path class="cls-16" d="M24.85,90.55v3L20.8,91.6V88.65l4.05,1.9M15.6,92.3l-.2-.15v-6l4.3,1.9v6.25l-4.1-2"/><path class="cls-17" d="M15.6,92.3l-.45-.25.25.1.2.15"/><path class="cls-7" d="M37.9,103.8l-.1,0h0l-7.4-3.3-.85-.75a1.89,1.89,0,0,1-.35-1.1V90a1.92,1.92,0,0,1,.45-1.25l3.8-4.6a2,2,0,0,1,1.15-.7l1.3.15,7.4,3.55.8.75.3,1.05V95l-.8,1.85-1.2-.55V88.9L35,85.35,31.15,90V98.6l7.4,3.3,2.25-2.5v-.05L42,99.9l.2.1-.8,1.8-1.3,1.45-1,.6-1.1,0"/><path class="cls-10" d="M31.15,90l3.8-4.6,7.4,3.55-3.8,4.35L31.15,90"/><path class="cls-12" d="M42.15,100l-.2-.1,1.65-1.2,0,0,5.8,2.65-1.7,1.2-5.6-2.6M32.4,93.5l5.5,2.55-1.75,1.2-3.75-1.7v-2m22.75,10.6h.05l6.25,2.9v2l-8-3.75,1.65-1.2"/><path class="cls-9" d="M38.55,101.9l-7.4-3.3V90l7.4,3.3v1.3l-4.85-2.3L32.4,93.5v2l3.75,1.7,2.4,1.1v3.55"/><path class="cls-18" d="M32.4,93.5l1.3-1.25,4.85,2.3.65.3-1.3,1.2L32.4,93.5m11.2,5.2,1.3-1.2,5.8,2.7-1.25,1.2-5.8-2.65,0,0m11.55,5.4,1.35-1.25,6.25,2.9L61.45,107l-6.25-2.9h-.05"/><path class="cls-19" d="M55.15,104.1l-5.7-2.7,1.25-1.2,5.8,2.65-1.35,1.25m-12.8-7.8,1.2.55,1.35.65-1.3,1.2-5.7-2.65,1.3-1.2,3.15,1.45"/><path class="cls-20" d="M44.35,95l19.25,9,.85.75.3,1v2.3a1.73,1.73,0,0,1-.55,1.15l-1.3,1.3-1.1.55-1.2-.2-19.25-9,.8-1.8,5.6,2.6,5.75,2.7,8,3.75,1.3-1.3v-2l-6.25-2.9-5.8-2.65-5.8-2.7-1.35-.65.8-1.85"/><path class="cls-8" d="M40.8,99.35v.05l-2.25,2.5V98.35l2.25,1M42.35,88.9v7.4L39.2,94.85l-.65-.3v-1.3l3.8-4.35"/><path class="cls-21" d="M42,99.9l-1.15-.55-2.25-1-2.4-1.1,1.75-1.2,5.7,2.65L42,99.9m5.8,2.7,1.7-1.2,5.7,2.7-1.65,1.2-5.75-2.7"/><path class="cls-6" d="M64.75,108.05v3.15l-3,3.25L37.9,103.8l1.1,0,1-.6,1.3-1.45,19.25,9,1.2.2,1.1-.55,1.3-1.3a1.73,1.73,0,0,0,.55-1.15"/><path class="cls-22" d="M61.45,107l1.3-1.25v2l-1.3,1.3v-2"/><path class="cls-4" d="M105.15,91.35l-.5.55h-.05l-1.15.9a3.21,3.21,0,0,1-1,2.35l-.15.15a3.51,3.51,0,0,1-2.4,1h-.05a3.38,3.38,0,0,1-2.5-1,3.48,3.48,0,0,1-1-2.45l-1.15-.9h0l-.55-.6a6,6,0,0,1-1.5-3.9v-.9a48.75,48.75,0,0,1,1.5-13q1.84-7.09,5.2-6.65,3.34-.5,5.3,6.65a52.21,52.21,0,0,1,1.4,13v.9a6.53,6.53,0,0,1-1.4,3.95m-3.7.2,1.75-1.1.2-.15a4.53,4.53,0,0,0,1.15-3V86.5A49.92,49.92,0,0,0,103.2,74q-1.4-5.15-3.35-5.15T96.55,74a48.37,48.37,0,0,0-1.4,12.5v.85a4.3,4.3,0,0,0,1.25,3l.15.15a4.34,4.34,0,0,0,1.75,1.1V92.7a1.54,1.54,0,0,0,1.55,1.55h.05a1.35,1.35,0,0,0,1-.45,1.44,1.44,0,0,0,.5-1.1V91.55"/><path class="cls-5" d="M101.45,91.55l-1.6.25-1.55-.25a4.34,4.34,0,0,1-1.75-1.1l-.15-.15a4.3,4.3,0,0,1-1.25-3V86.5A48.37,48.37,0,0,1,96.55,74q1.35-5.15,3.3-5.15T103.2,74a49.92,49.92,0,0,1,1.35,12.5v.85a4.53,4.53,0,0,1-1.15,3l-.2.15-1.75,1.1"/><path class="cls-1" d="M101.45,91.55V92.7a1.44,1.44,0,0,1-.5,1.1,1.35,1.35,0,0,1-1,.45h-.05A1.54,1.54,0,0,1,98.3,92.7V91.55l1.55.25,1.6-.25"/><path class="cls-6" d="M105.15,91.35a3.36,3.36,0,0,1,1.5,2.7,3.72,3.72,0,0,1-2,3.1,8.34,8.34,0,0,1-4.75,1.3,8.57,8.57,0,0,1-4.8-1.3,3.72,3.72,0,0,1-1.95-3.1,3.48,3.48,0,0,1,1.5-2.75l.55.6h0l1.15.9a3.48,3.48,0,0,0,1,2.45,3.38,3.38,0,0,0,2.5,1h.05a3.51,3.51,0,0,0,2.4-1l.15-.15a3.21,3.21,0,0,0,1-2.35l1.15-.9h.05l.5-.55"/><path class="cls-4" d="M95.25,77.55l-.3-1.2-.5-1.75q-1.7-5.4-4-6l-.65-.1-.65.1q-2.25.65-3.9,6l-.55,1.75-.3,1.2-1.1,6L83.1,85.8l-.25,3.1-.2,4.85v3a6.89,6.89,0,0,0,2.1,4.75l1.3,1,1.45.7V105a2.24,2.24,0,0,0,.65,1.65,2.3,2.3,0,0,0,1.7.7h.05A2.39,2.39,0,0,0,92.25,105v-1.75l1.55-.75,1.15-1a6.89,6.89,0,0,0,2.1-4.75v-3l-.2-4.85-.25-3.1-.25-2.25-1.1-6M83.75,103.3l-.4-.35a8.75,8.75,0,0,1-2.7-6.1v-1.4a76,76,0,0,1,2-19l.15-.6A24.11,24.11,0,0,1,85.3,69.5q2-3.3,4.55-3c1.73-.17,3.27.87,4.6,3.1a26.43,26.43,0,0,1,2.45,6.3l.15.5a79,79,0,0,1,2,19.1v1.4A8.83,8.83,0,0,1,96.4,103l-.3.3-1.85,1.3V105a4.07,4.07,0,0,1-1.2,3l-.15.15a4.07,4.07,0,0,1-3,1.2h-.05A4.27,4.27,0,0,1,85.5,105v-.45l-1.75-1.25"/><path class="cls-5" d="M84.45,77.55l.3-1.2.55-1.75q1.65-5.4,3.9-6l.65-.1.65.1q2.25.65,4,6l.5,1.75.3,1.2-.3.1-.2.1-1,.2-1.55.25-2.4.1-2.35-.1L86.05,78l-1-.25-.25-.1-.3-.1m11.9,6,.25,2.25.25,3.1A4.25,4.25,0,0,1,95,90.85l-1.15.6-1.55.45-2.4.25L87.5,91.9l-1.45-.4a5.85,5.85,0,0,1-1.3-.65,4.25,4.25,0,0,1-1.9-1.95l.25-3.1.25-2.25.1,0,1.3.85,1.3.5,1.45.35,2.35.2,2.4-.2L93.8,85l1.15-.5,1.35-.85,0,0m.7,10.9v2.3A6.89,6.89,0,0,1,95,101.5l-1.15,1-1.55.75-2.4.35-2.35-.35-1.45-.7-1.3-1a6.89,6.89,0,0,1-2.1-4.75v-2.3a4.92,4.92,0,0,0,2.1,3.75l1.3.85,1.45.55,2.35.3,2.4-.3L93.8,99,95,98.2a4.92,4.92,0,0,0,2.1-3.75"/><path class="cls-23" d="M97.05,94.45A4.92,4.92,0,0,1,95,98.2L93.8,99l-1.55.6-2.4.3-2.35-.3-1.45-.55-1.3-.85a4.92,4.92,0,0,1-2.1-3.75v-.7l.2-4.85a4.25,4.25,0,0,0,1.9,1.95,5.85,5.85,0,0,0,1.3.65l1.45.4,2.35.25,2.4-.25,1.55-.45,1.15-.6a4.25,4.25,0,0,0,1.9-1.95l.2,4.85v.7m-1.8-16.9,1.1,6,0,0L95,84.45,93.8,85l-1.55.35-2.4.2-2.35-.2L86.05,85l-1.3-.5-1.3-.85-.1,0,1.1-6,.3.1.25.1,1,.25,1.45.2,2.35.1,2.4-.1L93.8,78l1-.2.2-.1.3-.1"/><path class="cls-6" d="M96.1,103.25l.7.3q2.81,1.5,2.8,3.6t-2.8,3.55a16.16,16.16,0,0,1-13.6,0q-2.81-1.45-2.8-3.55t2.8-3.6l.55-.25,1.75,1.25V105a4.27,4.27,0,0,0,4.35,4.35h.05a4.07,4.07,0,0,0,3-1.2l.15-.15a4.07,4.07,0,0,0,1.2-3v-.45l1.85-1.3"/><path class="cls-1" d="M92.25,103.25V105a2.39,2.39,0,0,1-2.35,2.35h-.05a2.3,2.3,0,0,1-1.7-.7A2.24,2.24,0,0,1,87.5,105v-1.75l2.35.35,2.4-.35"/></g></g></svg>