<svg xmlns="http://www.w3.org/2000/svg" viewBox="0 0 120 140"><defs><style>.cls-1{fill:#bb6444;}.cls-2{fill:#c26948;}.cls-3{fill:#b55f40;}.cls-4{fill:#a4afaf;}.cls-5{fill:#9ba6a6;}.cls-6{fill:#a9b6b6;}</style></defs><title>Asset 63</title><g id="Layer_2" data-name="Layer 2"><g id="Layer_1-2" data-name="Layer 1"><path class="cls-1" d="M30.4,24.1l-5.25-.55-.55,5.3,5.25.5.55-5.25m2.45,13.55-.45,1H26.2l-8,4.65A4.54,4.54,0,0,0,16.05,47v3.5L13.9,50l-2.1,9.55,4.25,1V72.9l-2.5-2.3-6.2,6.7,6.7,6.2,3.45-3.7,1,1.9-2.45,3v8.15a4.11,4.11,0,0,0,.6,2.15,4.18,4.18,0,0,0,1.55,1.6l22.25,13-4.05,1.25,2.25,7.25,7.25-2.3-1.15-3.7,12.8,7.5a4.36,4.36,0,0,0,2.15.55,4.63,4.63,0,0,0,2.2-.55l4.7-2.75L67,118l4.45-1.55-.65-2,3-1.8,3-4.55.1-.2,4.1.55,1.75-1,6.45-3.75,2.3-.75-.15-.5,3.1-1.85,4.7-2.75L96.5,100l3.35,4.1,4.15-3.35-3.2-3.85.45-.3A4.75,4.75,0,0,0,102.8,95a4.36,4.36,0,0,0,.55-2.15V73.35h.2l.65-5.6h0l.4-3.7-1.3-.15V47a4.07,4.07,0,0,0-.55-2.1,4.26,4.26,0,0,0-1.55-1.6L90.35,37,89.2,33.3,86,34.35l-.35-.2H82.3L80.65,31.3l-.6-.35L61.9,20.35a4.14,4.14,0,0,0-2.2-.65,3.9,3.9,0,0,0-2.15.65L46,27.15,43.65,25,40,28.8,42.35,31h-3l-.1.05-4.9,2.85-1.5,3.75m-23.2,5.1-4.25-3L2.3,44l4.25,3.1,3.1-4.3M62.2,14l4.85-2.15L64.9,7.05,60,9.2,62.2,14M60,0l60,35v70L60,140,0,105V35L60,0M92.2,29.35l.55-5.25-5.25-.55L87,28.85l5.25.5m24,24.8-5.35-.5-.5,5.3,5.25.5.6-5.3M113.9,36.7l-5-1.9-1.9,5,5,2,1.85-5M84.55,121.6l2.15-9.5L77.2,110l-2.1,9.55,9.45,2.1M113.9,99.1l-5-1.9-1.9,5,5,1.95,1.85-5m-49,28.55-.85-5.25-5.2.85.8,5.2,5.25-.8m-32.85-13.5-2.2-4.9-4.75,2.2,2.15,4.85,4.8-2.15M14.9,89,5.3,86.5,2.8,96.1l9.6,2.55L14.9,89"/><path class="cls-2" d="M30.4,24.1l-.55,5.25-5.25-.5.55-5.3,5.25.55m61,78.35.15.5-2.3.75.45-.3,1.7-1m-46.6,9.65,1.15,3.7-7.25,2.3-2.25-7.25,4.05-1.25,4.3,2.5M16.05,60.5l-4.25-1L13.9,50l2.15.5v10M92.2,29.35,87,28.85l.55-5.3,5.25.55-.55,5.25m21.7,7.35-1.85,5-5-2,1.9-5,5,1.9m0,62.4-1.85,5-5-1.95,1.9-5,5,1.9M84.55,121.6l-9.45-2.1L77.2,110l9.5,2.15-2.15,9.5"/><path class="cls-3" d="M42.35,31,40,28.8,43.65,25,46,27.15l-2.25,1.3L42.4,31h0M86,34.35,89.2,33.3,90.35,37l-2.9-1.7-1.5-.9m17.4,29.55,1.3.15-.4,3.7h0l-.65,5.6h-.2v-2.7l-2.1-3.1,2.1-3.3V63.9m-2.55,33,3.2,3.85-4.15,3.35L96.5,100l2.65-2.15,1.65-.95m-30,17.55.65,2L67,118l-.4-1.15,4.2-2.4M17.5,79.8l-3.45,3.7-6.7-6.2,6.2-6.7,2.5,2.3v4.2l.5,1,.9,1.65.05.1m-7.85-37-3.1,4.3L2.3,44,5.4,39.7l4.25,3M62.2,14,60,9.2l4.9-2.15,2.15,4.8L62.2,14m54.05,40.15-.6,5.3L110.4,59l.5-5.3,5.35.5M14.9,89l-2.5,9.65L2.8,96.1l2.5-9.6L14.9,89m17.15,25.15-4.8,2.15-2.15-4.85,4.75-2.2,2.2,4.9m32.85,13.5-5.25.8-.8-5.2,5.2-.85.85,5.25"/><path class="cls-4" d="M16.05,50.5V47a4.54,4.54,0,0,1,2.15-3.7l8-4.65h6.2l.45-1L36.2,39.2l5.85-6.85-2.8-1.3.1-.05h3l1.35-2.55L46,27.15l11.55-6.8a3.9,3.9,0,0,1,2.15-.65,4.14,4.14,0,0,1,2.2.65L80.05,31l-1.4-.65-5.8,6.8,9.25,4.35,5.35-6.2,2.9,1.7,10.9,6.35a4.26,4.26,0,0,1,1.55,1.6,4.07,4.07,0,0,1,.55,2.1V64.25l-2.1,3.3,2.1,3.1v22.2A4.36,4.36,0,0,1,102.8,95a4.75,4.75,0,0,1-1.55,1.6l-.45.3-1.65.95-4.7,2.75-1.75-.8-3,3.6-.45.3-6.45,3.75,1.6-1.9-5.9-2.75-3.7,4.35,2,.95-3,4.55-3,1.8-4.2,2.4-4.7,2.75a4.63,4.63,0,0,1-2.2.55,4.36,4.36,0,0,1-2.15-.55l-12.8-7.5-4.3-2.5L18.2,96.6A4.18,4.18,0,0,1,16.65,95a4.11,4.11,0,0,1-.6-2.15V84.7l2.45-3-1-1.9-.05-.1.75-.9-1.65-.75-.5-1v-8l5.05,2.35L27,64.6l-9.3-4.3-1.6,1.9V50.5M77.2,97l-.1.1,9.25,4.35L92.2,94.6l-9.3-4.3L77.2,97M94.3,62.2l-3.7,4.35,5.9,2.75L100.2,65,94.3,62.2M65.1,71.7l9.25,4.35L80.2,69.2l-9.3-4.3-5.8,6.8M71,62.05l-5.9-2.75-3.7,4.35,5.9,2.75L71,62.05M36.5,66.4l3.7-4.35L34.3,59.3l-3.7,4.35,5.9,2.75m4.3,36.4-3.7,4.35L43,109.9l3.7-4.35-5.9-2.75M29.35,80.45,35.2,73.6l-9.3-4.3-5.8,6.8,9.25,4.35"/><path class="cls-5" d="M32.85,37.65l1.5-3.75,4.9-2.85,2.8,1.3L36.2,39.2l-3.35-1.55M94.3,62.2,100.2,65,96.5,69.3l-5.9-2.75,3.7-4.35M77.2,97l5.7-6.7,9.3,4.3-5.85,6.85L77.1,97.1l.1-.1M71,62.05l-3.7,4.35-5.9-2.75,3.7-4.35L71,62.05M65.1,71.7l5.8-6.8,9.3,4.3-5.85,6.85L65.1,71.7M40.8,102.8l5.9,2.75L43,109.9l-5.9-2.75,3.7-4.35M16.55,78.05l1.65.75-.75.9-.9-1.65"/><path class="cls-6" d="M80.05,31l.6.35,1.65,2.85h3.3l.35.2,1.5.9-5.35,6.2L72.85,37.1l5.8-6.8,1.4.65m14.4,69.65-3.1,1.85-1.7,1,3-3.6,1.75.8m-11.7,6.85-1.75,1-4.1-.55-.1.2-2-.95,3.7-4.35,5.9,2.75-1.6,1.9M16.05,69.1V62.2l1.6-1.9L27,64.6,21.1,71.45,16.05,69.1M36.5,66.4l-5.9-2.75,3.7-4.35,5.9,2.75L36.5,66.4m-7.15,14L20.1,76.1l5.8-6.8,9.3,4.3-5.85,6.85"/></g></g></svg>