<svg xmlns="http://www.w3.org/2000/svg" viewBox="0 0 120 140"><defs><style>.cls-1{fill:#bb6444;}.cls-2{fill:#c26948;}.cls-3{fill:#b55f40;}.cls-4{fill:#593269;}.cls-5{fill:#c16ee2;}.cls-6{fill:#9b59b6;}.cls-7{fill:#79468e;}.cls-8{fill:#ecdcb8;}.cls-9{fill:#727979;}.cls-10{fill:#d5e5e5;}.cls-11{fill:#a6b1b1;}.cls-12{fill:#8c9595;}.cls-13{fill:#b9c6c6;}.cls-14{fill:#e9fafa;}.cls-15{fill:#1f5e87;}.cls-16{fill:#3090d0;}.cls-17{fill:#3aacf7;}</style></defs><title>Asset 118</title><g id="Layer_2" data-name="Layer 2"><g id="Layer_1-2" data-name="Layer 1"><path class="cls-1" d="M32.05,114.15l-2.2-4.9-4.75,2.2,2.15,4.85,4.8-2.15M93.2,50.3l-4.8,2.2,2.15,4.85L95.4,55.2l-2.2-4.9m-.45-26.2-5.25-.55L87,28.85l5.25.5.55-5.25m-7,28.05L76.25,50l-2.1,9.55,9.45,2.1,2.15-9.5m5.75-11.6L89.2,33.3,82,35.6l2.3,7.25,7.25-2.3m15.55-.75,5,2,1.85-5-5-1.9-1.9,5m-24.45,37L75.9,70.6l-6.2,6.7,6.75,6.2,6.15-6.75m28.3-23.1-.5,5.3,5.25.5.6-5.3-5.35-.5M95.35,63l-1.1,9.3,9.3,1,.65-5.6h0l.4-3.7-9.3-1M89.2,95.65,82,98l2.3,7.25L91.5,103l-2.3-7.3m3.55-9.2L87.5,86,87,91.2l5.25.5.55-5.25m-18,12.2L77.25,89l-9.6-2.5L65.2,96.1l9.55,2.55M99.25,83.4l3-4.3L98,76l-3.1,4.3,4.35,3.1m1.35,13.25L96.5,100l3.35,4.1,4.15-3.35-3.4-4.1m8.35.55-1.9,5,5,1.95,1.85-5-5-1.9M70,49.6l-4.5,1.55L67,55.6l4.45-1.5L70,49.6m-15.5-5.05L59.7,44l-.6-5.3-5.25.65.6,5.25m-8.55,8.9L43.6,46.2l-7.2,2.3,2.25,7.2,7.25-2.25M41.65,38.4l-3.4-4.1-4.1,3.35,3.35,4.1,4.15-3.35m4.9-3.6-1.9,5,5.05,2,1.85-5-5-1.9m1-6.2L43.65,25,40,28.8l3.85,3.65L47.5,28.6M62.2,14l4.85-2.15L64.9,7.05,60,9.2,62.2,14M30.4,24.1l-5.25-.55-.55,5.3,5.25.5.55-5.25M5.4,39.7,2.3,44l4.25,3.1,3.1-4.3-4.25-3M30.85,50.3l-4.8,2.2,2.15,4.85L33,55.2l-2.15-4.9M23.4,52.15,13.9,50l-2.1,9.55,9.45,2.1,2.15-9.5M5.3,86.5,2.8,96.1l9.6,2.55L14.9,89,5.3,86.5m15-9.75-6.7-6.15-6.2,6.7,6.7,6.2,6.2-6.75m46.8-2.55L64.9,69.4,60,71.55l2.2,4.85,4.85-2.2M29.85,91.7l.55-5.25L25.15,86,24.6,91.2l5.25.5m8.4,5L34.15,100l3.35,4.1,4.15-3.35-3.4-4.1m3.6-28.9h0l.4-3.7L33,63,31.9,72.3l9.3,1,.65-5.6m15.3,9h0L49.8,78.5l1.7,7.4,7.4-1.75-1.75-7.4M51.55,99.1l-5-1.9-1.9,5,5.05,1.95,1.85-5M70,112l-4.5,1.55L67,118l4.45-1.55L70,112m-5.9,10.45-5.2.85.8,5.2,5.25-.8-.85-5.25M45.9,115.8l-2.3-7.2-7.2,2.25,2.25,7.25,7.25-2.3M0,105V35L60,0l60,35v70L60,140,0,105m84.55,16.6,2.15-9.5L77.2,110l-2.1,9.55,9.45,2.1"/><path class="cls-2" d="M84.55,121.6l-9.45-2.1L77.2,110l9.5,2.15-2.15,9.5m8.2-97.5-.55,5.25L87,28.85l.55-5.3,5.25.55m.45,26.2,2.2,4.9-4.85,2.15L88.4,52.5l4.8-2.2m13.85-10.5,1.9-5,5,1.9-1.85,5-5-2M89.2,95.65l2.3,7.3-7.25,2.25L82,98l7.25-2.3m10-12.25L94.9,80.3,98,76l4.3,3.1-3,4.3M109,97.2l5,1.9-1.85,5-5-1.95,1.9-5M30.4,24.1l-.55,5.25-5.25-.5.55-5.3,5.25.55m-7,28.05-2.15,9.5-9.45-2.1L13.9,50l9.5,2.15m7.45-1.85L33,55.2l-4.8,2.15L26.05,52.5l4.8-2.2m-1,41.4-5.25-.5L25.15,86l5.25.5-.55,5.25m37.2-17.5L62.2,76.4,60,71.55l4.9-2.15,2.15,4.8M51.55,99.1l-1.85,5-5.05-1.95,1.9-5,5,1.9M45.9,115.8l-7.25,2.3-2.25-7.25,7.2-2.25,2.3,7.2"/><path class="cls-3" d="M91.5,40.55l-7.25,2.3L82,35.6l7.25-2.3,2.3,7.25m-5.75,11.6-2.15,9.5-9.45-2.1L76.25,50l9.5,2.15M95.35,63l9.3,1-.4,3.7h0l-.65,5.6-9.3-1,1.1-9.3m15.55-9.35,5.35.5-.6,5.3L110.4,59l.5-5.3M82.6,76.75,76.45,83.5,69.7,77.3l6.2-6.7,6.7,6.15m-7.85,21.9L65.2,96.1l2.45-9.6,9.6,2.5-2.5,9.65m18-12.2L92.2,91.7,87,91.2,87.5,86l5.25.5m7.85,10.2,3.4,4.1-4.15,3.35L96.5,100l4.1-3.35M62.2,14,60,9.2l4.9-2.15,2.15,4.8L62.2,14M47.5,28.6l-3.65,3.85L40,28.8,43.65,25,47.5,28.6m-1,6.2,5,1.9-1.85,5-5.05-2,1.9-5m-4.9,3.6L37.5,41.75l-3.35-4.1,4.1-3.35,3.4,4.1M45.9,53.45,38.65,55.7,36.4,48.5l7.2-2.3,2.3,7.25m8.55-8.9-.6-5.25,5.25-.65.6,5.3-5.25.6M70,49.6l1.5,4.5L67,55.6l-1.55-4.45L70,49.6M5.4,39.7l4.25,3-3.1,4.3L2.3,44,5.4,39.7M20.25,76.75l-6.2,6.75-6.7-6.2,6.2-6.7,6.7,6.15M5.3,86.5,14.9,89l-2.5,9.65L2.8,96.1l2.5-9.6m51.85-9.75,1.75,7.4L51.5,85.9l-1.7-7.4,7.3-1.75h0m-15.3-9-.65,5.6-9.3-1L33,63l9.35,1-.4,3.7h0m-3.6,28.9,3.4,4.1L37.5,104.1,34.15,100l4.1-3.35m25.8,25.75.85,5.25-5.25.8-.8-5.2,5.2-.85M70,112l1.5,4.5L67,118l-1.55-4.5L70,112m-37.9,2.2-4.8,2.15-2.15-4.85,4.75-2.2,2.2,4.9"/><path class="cls-4" d="M12,33.25a1.74,1.74,0,0,1,1.2-.7L26.45,30a1.76,1.76,0,0,1,1.35.25,1.88,1.88,0,0,1,.9,1.1l3.6,11,.1.6V64.6A2,2,0,0,1,32,65.9a2.21,2.21,0,0,1-1.25.7l-4.95.75v2.3a2.05,2.05,0,0,1-.4,1.25,2.42,2.42,0,0,1-1.1.7l-2.7.7-1.35-.15a1.91,1.91,0,0,1-.95-1L18.1,68.7l-.05-.15-1.1.2-1.35-.3a1.86,1.86,0,0,1-.85-1.1L11.6,56.75l-.1-.6V34.5A1.92,1.92,0,0,1,12,33.25m18.45,9.6-3.6-11L13.5,34.5V56.15l3.15,10.6,3.25-.5v1.6l1.15,2.5,2.7-.7v-4L30.4,64.6V42.85"/><path class="cls-5" d="M30.4,42.85,16.65,45.2,13.5,34.5l13.3-2.6,3.6,11"/><path class="cls-6" d="M30.4,42.85V64.6l-6.65,1.05-3.85.6-3.25.5V45.2L30.4,42.85"/><path class="cls-7" d="M13.5,34.5l3.15,10.7V66.75L13.5,56.15V34.5"/><path class="cls-8" d="M23.75,65.65v4l-2.7.7-1.15-2.5v-1.6l3.85-.6"/><path class="cls-4" d="M89.35,47,95.6,39.9a2.11,2.11,0,0,1,1.1-.65L98,39.4l9.85,4.45.85.75.3,1v10.5a2,2,0,0,1-.55,1.4l-5.2,5.5v.6l-.15.8-.45.65L100.65,67a2,2,0,0,1-1,.5l-1.1,0-2.1-.8-1-.75a2.15,2.15,0,0,1-.35-1.15V63.35L90,60.85l-.85-.75a2,2,0,0,1-.3-1.05V48.25a1.89,1.89,0,0,1,.5-1.3m17.6-1.3L97.1,41.2l-6.25,7v10.8l6.3,3.05v2.6l2.1.8,2-1.85v-1.4l5.75-6.1V45.65"/><path class="cls-5" d="M107,45.65l-6.65,7.1-9.45-4.5,6.25-7L107,45.65"/><path class="cls-7" d="M100.3,52.75l6.65-7.1v10.5l-5.75,6.1-1.15,1.2.25-10.7"/><path class="cls-6" d="M100.3,52.75l-.25,10.7-2.9-1.35-6.3-3.05V48.25l9.45,4.5"/><path class="cls-8" d="M100.05,63.45l1.15-1.2v1.4l-2,1.85-2.1-.8V62.1l2.9,1.35"/><path class="cls-9" d="M52.65,45.45,49.3,40.6V31.5l-3.6-1.75L29,49.6v9.15l3.9,5.75L26.8,71.6l3.3,10.7-6.6,8.15L56.35,105.8l6.7-8L77.8,95.4,98.5,71.05l-2.5-8,.35-.4v-9.2L92.7,51.8,89,56.25l-26.6-12.4-9.7,1.6m39.6,4.4,1.3.15,3.65,1.65.85.75.3,1.05v9.2l-.15.8,2.2,7,0,1-.4.9L79.35,96.7a2.17,2.17,0,0,1-1.2.7L64.1,99.7l-6.2,7.4a2.11,2.11,0,0,1-1.1.65l-1.3-.15L22.65,92.25l-.85-.8a1.86,1.86,0,0,1-.3-1.15A1.94,1.94,0,0,1,22,89.2l5.95-7.3-3-9.7,0-1a2,2,0,0,1,.45-.9l5.05-6L27.3,59.9A2.15,2.15,0,0,1,27,58.75V49.6a1.89,1.89,0,0,1,.5-1.3L44.2,28.45a1.87,1.87,0,0,1,1.1-.65l1.3.15,3.6,1.75.8.75.3,1.05V40l2.3,3.3,8.45-1.4,1.15.15L88.45,53.8l2.75-3.3a1.87,1.87,0,0,1,1-.65"/><path class="cls-10" d="M89,56.25,92.7,51.8l3.65,1.65L79.55,73.3,76,71.6,89,56.25M77.8,95.4,63.05,97.85,63,87l12-2,2.9,10.5M56.35,105.8,23.5,90.45l6.6-8.15L26.8,71.6l6.8-6,2.75,8.85L63,87l-6.6,18.85M29,49.6,45.7,29.75l3.6,1.75L32.55,51.35c-1.2-.57-2.4-1.15-3.6-1.75m20.35-9,3.35,4.85,1.35,2L37.25,67.3l-4.7-6.85L49.3,40.6"/><path class="cls-11" d="M49.3,40.6,32.55,60.45v-9.1L49.3,31.5v9.1M96.35,53.45v9.2l-.35.4L93.2,66.4l5.3,4.65L77.8,95.4,74.9,84.9l4.65-2.45V73.3l16.8-19.85m-33.3,44.4-6.7,8L63,87l.1,10.9M76,77.7v3l-4.7,2.6L76,77.7"/><path class="cls-12" d="M96,63.05l2.5,8L93.2,66.4,96,63.05M26.8,71.6l6.05-7.1.75,1.1-6.8,6"/><path class="cls-13" d="M32.85,64.5,29,58.75V49.6c1.2.6,2.4,1.18,3.6,1.75v9.1l4.7,6.85L33.6,65.6l-.75-1.1M76,71.6l3.55,1.7v9.15L74.9,84.9l-3.6-1.6L76,80.7V71.6"/><path class="cls-14" d="M52.65,45.45l9.7-1.6L89,56.25,76,71.6v6.1l-4.7,5.6,3.6,1.6L63,87l-26.6-12.5L33.6,65.6l3.65,1.7L54,47.5l-1.35-2"/><path class="cls-4" d="M110.65,59.15l.3,1.05V70.7a2,2,0,0,1-.55,1.4l-5.2,5.5v.6l-.15.8-.45.65-1.95,1.85a2,2,0,0,1-1,.5l-1.1,0-2.1-.8-1-.75a2.15,2.15,0,0,1-.35-1.15V77.9L92,75.4l-.85-.75a2,2,0,0,1-.3-1.05V62.8a1.89,1.89,0,0,1,.5-1.3l6.25-7a2.11,2.11,0,0,1,1.1-.65L100,54l9.85,4.45a1.78,1.78,0,0,1,.85.75m-11.5,17.5v2.6l2.1.8,2-1.85V76.8L109,70.7V60.2L99.1,55.75l-6.25,7V73.6l6.3,3.05"/><path class="cls-6" d="M99.15,76.65l-6.3-3.05V62.8l9.45,4.5L102.05,78l-2.9-1.35"/><path class="cls-7" d="M103.2,76.8,102.05,78l.25-10.7L109,60.2V70.7l-5.75,6.1"/><path class="cls-8" d="M103.2,76.8v1.4l-2,1.85-2.1-.8v-2.6l2.9,1.35,1.15-1.2"/><path class="cls-5" d="M92.85,62.8l6.25-7L109,60.2l-6.65,7.1-9.45-4.5"/><path class="cls-15" d="M49.8,48.05h2.6l-4.85,5.8H45l4.8-5.8M62.9,56.3l1,1.85L59,64,58,62.1v-.05L62.9,56.3"/><path class="cls-9" d="M62.9,56.3l.05,0,3-3.6-3-5.9L56.8,44l-3.35,2.8-1.05,1.3H49.8l2.1-2.55.3-.25,3.35-2.8a1.52,1.52,0,0,1,1-.45l1.1.15L63.8,45l1,.9,3,5.9L68,52.9,67.55,54l-3.65,4.2-1-1.85M45,53.85h2.55L42.4,60.1l3.1,5.65,6.15,2.8,3.1-2.8L58,62.1,59,64l-2.65,3.1-.2.2L53,70.05a2.06,2.06,0,0,1-1,.5l-1.1-.15L44.7,67.6a1.94,1.94,0,0,1-1-.9l-3.1-5.65a2,2,0,0,1-.25-1.15,1.72,1.72,0,0,1,.45-1l4.15-5"/><path class="cls-10" d="M52.4,48.05l1.05-1.3L56.8,44l-3.45,4.1h-1M63,46.75l3,5.9-3,3.6L59.8,50.6l0-.05,3.2-3.8M58,62.1l-3.2,3.65-3.1-5.65,3.15-3.7L58,62.05v.05m-15.55-2,5.15-6.25h.85l-2.9,3.4L42.4,60.1"/><path class="cls-16" d="M47.55,53.85l4.85-5.8h1l-5,5.8h-.85M63,56.25l-.05,0L58,62.05,54.8,56.4l5-5.85,0,.05L63,56.25"/><path class="cls-14" d="M56.8,44,63,46.75l-3.2,3.8-6.35-2.5h0L56.8,44m-8.4,9.9,6.4,2.55-3.15,3.7L45.5,57.25l2.9-3.4"/><path class="cls-17" d="M48.4,53.85l5-5.8h0l6.35,2.5-5,5.85-6.4-2.55"/><path class="cls-13" d="M51.65,60.1l3.1,5.65-3.1,2.8-6.15-2.8L42.4,60.1l3.1-2.85,6.15,2.85"/><path class="cls-9" d="M64.3,55.45l2.1-2.55.3-.25,3.35-2.8a1.52,1.52,0,0,1,1-.45l1.1.15,6.15,2.8a1.92,1.92,0,0,1,1,.9l3,5.9.2,1.15-.45,1.05-3.65,4.2-1-1.85,0-.05,3-3.6-3-5.9-6.15-2.8L68,54.15l-1,1.3H64.3m9.15,15.9-2.65,3.1-.2.2-3.1,2.8a2.06,2.06,0,0,1-1,.5l-1.1-.15L59.2,75a1.94,1.94,0,0,1-1-.9l-3.1-5.65a2,2,0,0,1-.25-1.15,1.72,1.72,0,0,1,.45-1l4.15-5h2.55L56.9,67.5,60,73.15,66.15,76l3.1-2.8,3.2-3.65,1,1.85"/><path class="cls-14" d="M71.3,51.35l6.15,2.8L74.25,58l-6.35-2.5h-.05l3.45-4.1m-8.4,9.9,6.4,2.55-3.15,3.7L60,64.65l2.9-3.4"/><path class="cls-10" d="M62.9,61.25,60,64.65,56.9,67.5l5.15-6.25h.85m4-5.8,1-1.3,3.35-2.8-3.45,4.1H66.9m10.55-1.3,3,5.9-3,3.6L74.3,58l0,0,3.2-3.8M69.3,63.8l3.15,5.65v0l-3.2,3.65-3.1-5.65,3.15-3.7"/><path class="cls-16" d="M77.45,63.65l0,.05-5,5.75L69.3,63.8l5-5.85,0,0,3.15,5.65m-9.6-8.2-4.95,5.8h-.85l4.85-5.8h.95"/><path class="cls-15" d="M78.4,65.55l-5,5.8-1-1.85v0l5-5.75,1,1.85m-18.9-4.3,4.8-5.8h2.6l-4.85,5.8H59.5"/><path class="cls-17" d="M67.85,55.45h.05L74.25,58l-5,5.85-6.4-2.55,4.95-5.8"/><path class="cls-13" d="M66.15,67.5l3.1,5.65L66.15,76,60,73.15,56.9,67.5,60,64.65l6.15,2.85"/><path class="cls-9" d="M57.65,41.7l2.1-2.55.3-.25,3.35-2.8a1.52,1.52,0,0,1,1-.45l1.1.15,6.15,2.8a1.92,1.92,0,0,1,.95.9l3.05,5.9.2,1.15L75.4,47.6l-3.65,4.2-1-1.85,0-.05,3-3.6-3-5.9-6.15-2.8L61.3,40.4l-1,1.3h-2.6M66.8,57.6l-2.65,3.1-.2.2-3.1,2.8-1.05.5-1.1-.15-6.15-2.8a1.94,1.94,0,0,1-.95-.9L48.5,54.7a2,2,0,0,1-.25-1.15,1.72,1.72,0,0,1,.45-1l4.15-5H55.4l-5.15,6.25,3.1,5.65,6.15,2.8,3.1-2.8,3.2-3.65,1,1.85"/><path class="cls-14" d="M64.65,37.6l6.15,2.8-3.2,3.8-6.35-2.5h0l3.45-4.1m-8.4,9.9,6.4,2.55-3.15,3.7L53.35,50.9l2.9-3.4"/><path class="cls-17" d="M56.25,47.5l5-5.8h0l6.35,2.5-4.95,5.85-6.4-2.55"/><path class="cls-10" d="M56.25,47.5l-2.9,3.4-3.1,2.85L55.4,47.5h.85m4-5.8,1-1.3,3.35-2.8L61.2,41.7h-1M70.8,40.4l3,5.9-3,3.6-3.15-5.65-.05,0,3.2-3.8M59.5,53.75l3.15-3.7L65.8,55.7v0L62.6,59.4l-3.1-5.65"/><path class="cls-16" d="M70.8,49.9l0,.05-5,5.75-3.15-5.65L67.6,44.2l.05,0L70.8,49.9m-9.6-8.2-5,5.8H55.4l4.85-5.8h1"/><path class="cls-15" d="M71.75,51.8l-5,5.8-1-1.85v0l5-5.75,1,1.85m-18.9-4.3,4.8-5.8h2.6L55.4,47.5H52.85"/><path class="cls-13" d="M50.25,53.75l3.1-2.85,6.15,2.85,3.1,5.65-3.1,2.8-6.15-2.8-3.1-5.65"/></g></g></svg>