<svg xmlns="http://www.w3.org/2000/svg" xmlns:xlink="http://www.w3.org/1999/xlink" viewBox="0 0 120 140"><defs><style>.cls-1{fill:#27ae60;}.cls-2{fill:url(#linear-gradient);}.cls-3{fill:url(#linear-gradient-2);}.cls-4{fill:url(#linear-gradient-3);}.cls-5{fill:url(#linear-gradient-4);}.cls-6{fill:url(#linear-gradient-5);}.cls-7{fill:url(#linear-gradient-6);}.cls-8{fill:url(#linear-gradient-7);}.cls-9{fill:url(#linear-gradient-8);}.cls-10{fill:url(#linear-gradient-9);}.cls-11{fill:url(#linear-gradient-10);}.cls-12{fill:url(#linear-gradient-11);}.cls-13{fill:url(#linear-gradient-12);}.cls-14{fill:url(#linear-gradient-13);}.cls-15{fill:url(#linear-gradient-14);}.cls-16{fill:url(#linear-gradient-15);}.cls-17{fill:#855b30;}.cls-18{fill:#af783f;}.cls-19{fill:#bb8044;}.cls-20{fill:#cd8c4a;}.cls-21{fill:#115f32;}.cls-22{fill:#1b914d;}.cls-23{fill-opacity:0.1;}</style><linearGradient id="linear-gradient" x1="-2769.2" y1="49.52" x2="-1130.8" y2="49.52" gradientTransform="matrix(0, 0, 0, 0, 17.34, 40.18)" gradientUnits="userSpaceOnUse"><stop offset="0" stop-color="#27ae60"/><stop offset="1" stop-color="#30c26d"/></linearGradient><linearGradient id="linear-gradient-2" x1="-2769.2" y1="62.42" x2="-1130.8" y2="62.42" gradientTransform="matrix(0, 0, 0, 0, 29.72, 54.63)" xlink:href="#linear-gradient"/><linearGradient id="linear-gradient-3" x1="-2769.2" y1="54.18" x2="-1130.8" y2="54.18" gradientTransform="matrix(0, 0, 0, 0, 42.17, 46.38)" xlink:href="#linear-gradient"/><linearGradient id="linear-gradient-4" x1="-2769.2" y1="102.17" x2="-1130.8" y2="102.17" gradientTransform="matrix(0, 0, 0, 0, 19.59, 92.83)" xlink:href="#linear-gradient"/><linearGradient id="linear-gradient-5" x1="-2769.2" y1="30.38" x2="-1130.8" y2="30.38" gradientTransform="matrix(0, 0, 0, 0, 95.07, 22.58)" xlink:href="#linear-gradient"/><linearGradient id="linear-gradient-6" x1="-2769.2" y1="26.2" x2="-1130.8" y2="26.2" gradientTransform="matrix(0, 0, 0, 0, 61.07, 18.43)" xlink:href="#linear-gradient"/><linearGradient id="linear-gradient-7" x1="-2769.2" y1="37.68" x2="-1130.8" y2="37.68" gradientTransform="matrix(0, 0, 0, 0, 50.84, 28.13)" xlink:href="#linear-gradient"/><linearGradient id="linear-gradient-8" x1="-2769.2" y1="48.02" x2="-1130.8" y2="48.02" gradientTransform="matrix(0, 0, 0, 0, 65.99, 38.68)" xlink:href="#linear-gradient"/><linearGradient id="linear-gradient-9" x1="-2769.2" y1="89.17" x2="-1130.8" y2="89.17" gradientTransform="matrix(0, 0, 0, 0, 74.67, 81.38)" xlink:href="#linear-gradient"/><linearGradient id="linear-gradient-10" x1="-2769.2" y1="106.58" x2="-1130.8" y2="106.58" gradientTransform="matrix(0, 0, 0, 0, 61.84, 97.23)" xlink:href="#linear-gradient"/><linearGradient id="linear-gradient-11" x1="-2769.2" y1="81.92" x2="-1130.8" y2="81.92" gradientTransform="matrix(0, 0, 0, 0, 88.17, 74.13)" xlink:href="#linear-gradient"/><linearGradient id="linear-gradient-12" x1="-2769.2" y1="98.08" x2="-1130.8" y2="98.08" gradientTransform="matrix(0, 0, 0, 0, 110.57, 90.28)" xlink:href="#linear-gradient"/><linearGradient id="linear-gradient-13" x1="-2769.2" y1="121.33" x2="-1130.8" y2="121.33" gradientTransform="matrix(0, 0, 0, 0, 77.44, 111.98)" xlink:href="#linear-gradient"/><linearGradient id="linear-gradient-14" x1="-2769.2" y1="119.17" x2="-1130.8" y2="119.17" gradientTransform="matrix(0, 0, 0, 0, 62.07, 111.38)" xlink:href="#linear-gradient"/><linearGradient id="linear-gradient-15" x1="-2769.2" y1="116.92" x2="-1130.8" y2="116.92" gradientTransform="matrix(0, 0, 0, 0, 49.84, 107.58)" xlink:href="#linear-gradient"/></defs><title>Asset 16</title><g id="Layer_2" data-name="Layer 2"><g id="Layer_1-2" data-name="Layer 1"><path class="cls-1" d="M120,105,60,140,0,105V35L60,0l60,35v70M11.6,45.55l-.25,0-.25.15-.1.25-.35,3.5L9,49.75l-.25.1,0,.1-.05.2v.25h.05l1.45,3.15h6l1.6-1,.15-.15,0-.15,0-.3-.3-.25-1.5-.4,1.2-3.15v-.35l-.05,0-.2-.2h-.35l-2.8,1-2-2.85-.25-.15M23.15,62.3a.42.42,0,0,0,0,.35l.95,3.05H28.9l.7-1.8v-.45l-.25-.2h-.3l-1.25.4L27,59.5l-.15-.25-.25-.1-.3.1-.15.25-1,3.15-1.35-.55H23.4a.3.3,0,0,0-.25.15v0M36.2,53.85h-.35a.3.3,0,0,0-.25.15v0a.42.42,0,0,0-.05.35l1,3.05h4.85l.7-1.8V55.2L41.8,55h-.3l-1.25.4-.85-4.15L39.25,51,39,50.9l-.3.1-.15.25-1,3.15-1.35-.55M13.6,98.15l-.25.15-.1.25-.35,3.5-1.7.35-.25.1,0,.1-.05.2v.25h.05l1.45,3.15h6l1.6-1,.15-.15,0-.15,0-.3-.3-.25-1.5-.4,1.2-3.15v-.35l-.05-.05-.2-.2H18.9l-2.8,1-2-2.85-.25-.15-.25,0m75.15-68.1-.25.15v.05a.42.42,0,0,0,0,.35l1,3h4.85l.7-1.8V31.4l-.25-.2h-.3l-1.25.4-.85-4.15-.15-.25-.25-.1-.3.1a.3.3,0,0,0-.15.25l-1,3.15-1.35-.55h-.35m-28.7-.55.9-3.1v-.35l-.25-.2h-.35L59,26.4l-1-3.15L57.85,23l-.3-.1-.3.15-.15.25-.8,4.1L55.05,27l-.3.05-.25.2v.45l.7,1.8h4.85M42.7,36.25,44,39.35l-1.55.45-.25.2-.1.35.1.1.1.15,1.6,1.1h6l1.45-3.15.05,0,0-.25-.1-.15,0-.1L51,37.85l-1.65-.3-.4-3.5-.1-.25-.25-.15h-.25l-.25.15-2,2.85-2.85-1H43l-.2.2,0,0v.35M57.25,48.9h0l1.45,3.15h6l1.6-1,.15-.15,0-.15,0-.3-.3-.25-1.5-.4,1.2-3.15v-.35l-.05,0-.2-.2H65.3l-2.8,1-2-2.85a.3.3,0,0,0-.25-.15L60,44l-.25.15-.1.25-.35,3.5-1.7.35-.25.1-.05.1,0,.2v.25m14.25,37-.3.1a.3.3,0,0,0-.15.25l-1,3.15-1.35-.55h-.35L68.1,89v0a.42.42,0,0,0,0,.35l1,3h4.85l.7-1.8V90.2L74.3,90H74l-1.25.4-.85-4.15L71.75,86l-.25-.1M56.35,102.75a.3.3,0,0,0-.25-.15l-.25,0-.25.15-.1.25-.35,3.5-1.7.35-.25.1-.05.1,0,.2v.25h0l1.45,3.15h6l1.6-1,.15-.15,0-.15,0-.3-.3-.25-1.5-.4,1.2-3.15v-.35l0,0-.2-.2h-.35l-2.8,1-2-2.85m28.35-24a.3.3,0,0,0-.15.25l-1,3.15L82.2,81.6h-.35l-.25.15v0a.42.42,0,0,0,0,.35l1,3h4.85l.7-1.8V83l-.25-.2h-.3l-1.25.4L85.4,79l-.15-.25-.25-.1-.3.1M109.9,98.9l-1.25.4-.85-4.15-.15-.25-.25-.1-.3.1-.15.25-1,3.15-1.35-.55h-.35a.3.3,0,0,0-.25.15v0a.42.42,0,0,0,0,.35l1,3h4.85l.7-1.8V99.1l-.25-.2h-.3M71.2,117.45l-.1.25-.35,3.5-1.7.35-.25.1,0,.1,0,.2v.25h0l1.45,3.15h6l1.6-1,.15-.15,0-.15,0-.3-.3-.25-1.5-.4,1.2-3.15v-.35l0,0-.2-.2h-.35l-2.8,1-2-2.85-.25-.15-.25,0a.58.58,0,0,0-.25.15m-11.05,3-.85-4.15-.15-.25-.25-.1-.3.1a.3.3,0,0,0-.15.25l-1,3.15-1.35-.55h-.35l-.25.15v0a.42.42,0,0,0,0,.35l.95,3h4.85l.7-1.8v-.45l-.25-.2h-.3l-1.25.4M49.7,115.1l-.2-.2h-.35l-2.8,1-2-2.85a.3.3,0,0,0-.25-.15l-.25,0-.25.15-.1.25-.35,3.5-1.7.35-.25.1-.05.1,0,.2v.25h0L42.6,121h6l1.6-1,.15-.15,0-.15,0-.3-.3-.25-1.5-.4,1.2-3.15v-.35l0-.05"/><path class="cls-2" d="M11.6,45.55l.25.15,2,2.85,2.8-1H17l.2.2.05,0v.35l-1.2,3.15,1.5.4.3.25,0,.3,0,.15-.15.15-1.6,1h-6L8.65,50.4H8.6v-.25l.05-.2,0-.1.25-.1,1.7-.35L11,45.9l.1-.25.25-.15.25,0"/><path class="cls-3" d="M23.15,62.3v0a.3.3,0,0,1,.25-.15h.35l1.35.55,1-3.15.15-.25.3-.1.25.1.15.25.85,4.15,1.25-.4h.3l.25.2v.45l-.7,1.8H24.05l-.95-3.05a.42.42,0,0,1,0-.35"/><path class="cls-4" d="M36.2,53.85l1.35.55,1-3.15L38.7,51l.3-.1.25.1.15.25.85,4.15L41.5,55h.3l.25.2v.45l-.7,1.8H36.5l-1-3.05a.42.42,0,0,1,.05-.35v0a.3.3,0,0,1,.25-.15h.35"/><path class="cls-5" d="M13.6,98.15l.25,0,.25.15,2,2.85,2.8-1h.35l.2.2.05.05v.35l-1.2,3.15,1.5.4.3.25,0,.3,0,.15-.15.15-1.6,1h-6l-1.45-3.15h-.05v-.25l.05-.2,0-.1.25-.1,1.7-.35.35-3.5.1-.25.25-.15"/><path class="cls-6" d="M88.75,30.05h.35l1.35.55,1-3.15a.3.3,0,0,1,.15-.25l.3-.1.25.1.15.25.85,4.15,1.25-.4h.3l.25.2v.45l-.7,1.8H89.4l-1-3a.42.42,0,0,1,0-.35V30.2l.25-.15"/><path class="cls-7" d="M60.05,29.5H55.2l-.7-1.8v-.45l.25-.2.3-.05,1.25.4.8-4.1.15-.25.3-.15.3.1.15.25,1,3.15,1.4-.55h.35l.25.2v.35l-.9,3.1"/><path class="cls-8" d="M42.7,36.25V35.9l0,0,.2-.2h.35l2.85,1,2-2.85.25-.15h.25l.25.15.1.25.4,3.5,1.65.3.25.15,0,.1.1.15,0,.25-.05,0L49.85,41.7h-6l-1.6-1.1-.1-.15-.1-.1.1-.35.25-.2L44,39.35l-1.25-3.1"/><path class="cls-9" d="M57.25,48.9v-.25l0-.2.05-.1.25-.1,1.7-.35.35-3.5.1-.25L60,44l.25,0a.3.3,0,0,1,.25.15l2,2.85,2.8-1h.35l.2.2.05,0v.35l-1.2,3.15,1.5.4.3.25,0,.3,0,.15-.15.15-1.6,1h-6L57.3,48.9h0"/><path class="cls-10" d="M71.5,85.9l.25.1.15.25.85,4.15L74,90h.3l.25.2v.45l-.7,1.8H69l-1-3a.42.42,0,0,1,0-.35v0l.25-.15h.35l1.35.55,1-3.15A.3.3,0,0,1,71.2,86l.3-.1"/><path class="cls-11" d="M56.35,102.75l2,2.85,2.8-1h.35l.2.2,0,0v.35l-1.2,3.15,1.5.4.3.25,0,.3,0,.15-.15.15-1.6,1h-6l-1.45-3.15h0v-.25l0-.2.05-.1.25-.1,1.7-.35.35-3.5.1-.25.25-.15.25,0a.3.3,0,0,1,.25.15"/><path class="cls-12" d="M84.7,78.75l.3-.1.25.1.15.25.85,4.15,1.25-.4h.3l.25.2v.45l-.7,1.8H82.5l-1-3a.42.42,0,0,1,0-.35v0l.25-.15h.35l1.35.55,1-3.15a.3.3,0,0,1,.15-.25"/><path class="cls-13" d="M109.9,98.9h.3l.25.2v.45l-.7,1.8H104.9l-1-3a.42.42,0,0,1,0-.35v0a.3.3,0,0,1,.25-.15h.35l1.35.55,1-3.15.15-.25.3-.1.25.1.15.25.85,4.15,1.25-.4"/><path class="cls-14" d="M71.2,117.45a.58.58,0,0,1,.25-.15l.25,0,.25.15,2,2.85,2.8-1h.35l.2.2,0,0v.35l-1.2,3.15,1.5.4.3.25,0,.3,0,.15-.15.15-1.6,1h-6l-1.45-3.15h0V122l0-.2,0-.1.25-.1,1.7-.35.35-3.5.1-.25"/><path class="cls-15" d="M60.15,120.4l1.25-.4h.3l.25.2v.45l-.7,1.8H56.4l-.95-3a.42.42,0,0,1,0-.35v0l.25-.15h.35l1.35.55,1-3.15a.3.3,0,0,1,.15-.25l.3-.1.25.1.15.25.85,4.15"/><path class="cls-16" d="M49.7,115.1l0,.05v.35l-1.2,3.15,1.5.4.3.25,0,.3,0,.15-.15.15-1.6,1h-6l-1.45-3.15h0v-.25l0-.2.05-.1.25-.1,1.7-.35.35-3.5.1-.25.25-.15.25,0a.3.3,0,0,1,.25.15l2,2.85,2.8-1h.35l.2.2"/><path class="cls-17" d="M84.15,31.85l.7.6L89.7,39.3l.35.85,2.5,15L97,67.65l.1,1-.45.95L87.1,81l-.7.55-.9.15-18-.5-.9-.2-.65-.65-8.4-11.9-.35-.85a1.54,1.54,0,0,1,.1-.95l4.5-12.4.3-.6L65.3,49.7l2.75-13.5a2,2,0,0,1,.45-.9l2.75-3.25a1.39,1.39,0,0,1,.7-.5l.85-.2,10.45.25.9.25m1.4,47.85L95.1,68.3,90.6,55.6,88.05,40.45,83.2,33.6l-10.45-.25L70,36.6l-2.85,14L63.6,54.9,59.1,67.3l8.4,11.9,18,.5"/><path class="cls-18" d="M85.55,79.7l-2.1-15.55,3.6-4.2L85.3,43.7l2.75-3.25L90.6,55.6l4.5,12.7L85.55,79.7m-18-.5L59.1,67.3l4.5-12.4,6.25,8.85L67.5,79.2m-.35-28.6L70,36.6l7.4,6.65-.65,16-9.6-8.6"/><path class="cls-19" d="M67.15,50.6l9.6,8.6.65-16L70,36.6l2.75-3.25,10.45.25,4.85,6.85L85.3,43.7,87.05,60l-3.6,4.2-13.6-.4L63.6,54.9l3.55-4.3"/><path class="cls-20" d="M85.55,79.7l-18-.5,2.35-15.45,13.6.4,2.1,15.55"/><path class="cls-17" d="M23.25,82.25l-4.6,1.5-.45,5.1,7.05,6.65,8.9-2.7-2-11.3-4.1-.1-4.8.85M28.1,79.4l4.1.1a1.82,1.82,0,0,1,1.25.5,2,2,0,0,1,.7,1.15l2,11.3a2,2,0,0,1-.3,1.4l-1.1.9-8.9,2.7H24.8a2,2,0,0,1-.9-.5l-7-6.65-.5-.75-.15-.85.45-5.1a1.79,1.79,0,0,1,.45-1.1,1.91,1.91,0,0,1,.95-.65l4.6-1.5.25,0,4.8-.85.4,0"/><path class="cls-19" d="M18.2,88.85l4.95-5.6.1-1,4.8-.85.85,4.65-2.1.65-1.55,8.8-7-6.65"/><path class="cls-18" d="M18.2,88.85l.45-5.1,4.6-1.5-.1,1-4.95,5.6m10.7-2.8-.85-4.65,4.1.1,2,11.3L28.9,86.05"/><path class="cls-20" d="M28.9,86.05l5.25,6.75-8.9,2.7,1.55-8.8,2.1-.65"/><path class="cls-21" d="M37.65,63.7a6,6,0,0,1-1.5-3.9v-.9a48.75,48.75,0,0,1,1.5-13q1.85-7.09,5.2-6.65,3.34-.49,5.3,6.65a52.21,52.21,0,0,1,1.4,13v.9a6.53,6.53,0,0,1-1.4,4l-.5.55h0l-1.15.9a3.21,3.21,0,0,1-1,2.35l-.15.15a3.51,3.51,0,0,1-2.4,1h0a3.38,3.38,0,0,1-2.5-1A3.48,3.48,0,0,1,39.3,65.2l-1.15-.9h.05l-.55-.6m6.8.25a5.1,5.1,0,0,0,1.75-1.1l.2-.15a4.53,4.53,0,0,0,1.15-3V58.9A49.92,49.92,0,0,0,46.2,46.4q-1.39-5.15-3.35-5.15t-3.3,5.15a48.37,48.37,0,0,0-1.4,12.5v.85a4.3,4.3,0,0,0,1.25,3l.15.15A4.34,4.34,0,0,0,41.3,64V65.1a1.54,1.54,0,0,0,1.55,1.55h0A1.35,1.35,0,0,0,44,66.2a1.44,1.44,0,0,0,.5-1.1V64"/><path class="cls-22" d="M44.45,64l-1.6.25L41.3,64a4.34,4.34,0,0,1-1.75-1.1l-.15-.15a4.3,4.3,0,0,1-1.25-3V58.9a48.37,48.37,0,0,1,1.4-12.5q1.35-5.15,3.3-5.15T46.2,46.4a49.92,49.92,0,0,1,1.35,12.5v.85a4.53,4.53,0,0,1-1.15,3l-.2.15A5.1,5.1,0,0,1,44.45,64"/><path class="cls-23" d="M48.15,63.75a3.36,3.36,0,0,1,1.5,2.7,3.72,3.72,0,0,1-2,3.1,8.34,8.34,0,0,1-4.75,1.3,8.57,8.57,0,0,1-4.8-1.3,3.72,3.72,0,0,1-2-3.1,3.48,3.48,0,0,1,1.5-2.75l.55.6h-.05l1.15.9a3.48,3.48,0,0,0,1.05,2.45,3.38,3.38,0,0,0,2.5,1h0a3.51,3.51,0,0,0,2.4-1l.15-.15a3.21,3.21,0,0,0,1-2.35l1.15-.9h0l.5-.55"/><path class="cls-19" d="M44.45,64V65.1a1.44,1.44,0,0,1-.5,1.1,1.35,1.35,0,0,1-1.05.45h0A1.54,1.54,0,0,1,41.3,65.1V64l1.55.25,1.6-.25"/><path class="cls-21" d="M93.75,83.9v1.15A1.54,1.54,0,0,0,95.3,86.6h0a1.35,1.35,0,0,0,1.05-.45,1.44,1.44,0,0,0,.5-1.1V83.9l1.75-1.1.2-.15a4.53,4.53,0,0,0,1.15-3v-.85a49.92,49.92,0,0,0-1.35-12.5q-1.4-5.14-3.35-5.15T92,66.35a48.37,48.37,0,0,0-1.4,12.5v.85a4.3,4.3,0,0,0,1.25,3l.15.15a4.34,4.34,0,0,0,1.75,1.1m-3.65-.25a6,6,0,0,1-1.5-3.9v-.9a48.75,48.75,0,0,1,1.5-13q1.84-7.09,5.2-6.65,3.35-.5,5.3,6.65a52.21,52.21,0,0,1,1.4,13v.9a6.53,6.53,0,0,1-1.4,4l-.5.55h0l-1.15.9a3.21,3.21,0,0,1-1,2.35l-.15.15a3.51,3.51,0,0,1-2.4.95h0a3.38,3.38,0,0,1-2.5-1,3.48,3.48,0,0,1-1-2.45l-1.15-.9h.05l-.55-.6"/><path class="cls-23" d="M100.6,83.7a3.36,3.36,0,0,1,1.5,2.7,3.72,3.72,0,0,1-2,3.1,8.34,8.34,0,0,1-4.75,1.3,8.57,8.57,0,0,1-4.8-1.3,3.72,3.72,0,0,1-2-3.1,3.48,3.48,0,0,1,1.5-2.75l.55.6H90.6l1.15.9a3.48,3.48,0,0,0,1,2.45,3.38,3.38,0,0,0,2.5,1h0a3.51,3.51,0,0,0,2.4-.95l.15-.15a3.21,3.21,0,0,0,1-2.35l1.15-.9h0l.5-.55"/><path class="cls-22" d="M93.75,83.9A4.34,4.34,0,0,1,92,82.8l-.15-.15a4.3,4.3,0,0,1-1.25-3v-.85A48.37,48.37,0,0,1,92,66.35q1.35-5.14,3.3-5.15t3.35,5.15A49.92,49.92,0,0,1,100,78.85v.85a4.53,4.53,0,0,1-1.15,3l-.2.15L96.9,83.9l-1.6.25-1.55-.25"/><path class="cls-19" d="M93.75,83.9l1.55.25,1.6-.25v1.15a1.44,1.44,0,0,1-.5,1.1,1.35,1.35,0,0,1-1.05.45h0a1.54,1.54,0,0,1-1.55-1.55V83.9"/></g></g></svg>