<svg xmlns="http://www.w3.org/2000/svg" viewBox="0 0 87.3 100.45"><defs><style>.cls-1{fill:#bb6444;}.cls-2{fill:#b55f40;}.cls-3{fill:#c26948;}</style></defs><title>Asset 41</title><g id="Layer_2" data-name="Layer 2"><g id="Layer_1-2" data-name="Layer 1"><path class="cls-1" d="M29.8,7.55,41.5.65A3.9,3.9,0,0,1,43.65,0a4.14,4.14,0,0,1,2.2.65l18.75,11,1.65,2.85h3.3l.2.1-4.15,1.3,2.3,7.25,7.25-2.3L74,17.05,85.2,23.6a4.26,4.26,0,0,1,1.55,1.6,4.07,4.07,0,0,1,.55,2.1V44.2l-8.3-1-1.1,9.3,9.3,1.05.1-.85v20.4a4.36,4.36,0,0,1-.55,2.15,4.75,4.75,0,0,1-1.55,1.6l-.65.4-.3-.4-2.4,1.95-6.8,4-2.2-6.95L65.6,78.2l2.3,7.25,5.75-1.75-8.7,5-4.1-.55L57.75,93l-3.25,1.9-.9-2.65-4.5,1.55,1.25,3.55-4.5,2.6-1.8.55h-.4a4.36,4.36,0,0,1-2.15-.55L28.35,92.2l-1.1-3.35-3,1L2.15,76.9A4.18,4.18,0,0,1,.6,75.3,4.11,4.11,0,0,1,0,73.15V65l2.45-3L1.3,59.85,3.9,57,0,53.45V40.8l4.9,1.1,2.15-9.5L0,30.8V27.3a3.84,3.84,0,0,1,.6-2.1,3.8,3.8,0,0,1,1.55-1.6l8-4.65h6.2L18.3,14.2l5-2.9h2.75l1.45,1.4,3.65-3.85L29.8,7.55M35.2,17l-5-1.9-1.9,5L33.35,22,35.2,17M11.85,37.6l4.8-2.15-2.15-4.9-4.8,2.2,2.15,4.85m13,16L25.5,48h.05l.4-3.7-9.35-1-1.05,9.3,9.3,1.05m8.6,5.15,1.7,7.4,7.4-1.75L40.8,57h0l-7.3,1.75M21.15,22l4.15-3.35-3.4-4.1L17.8,17.9,21.15,22m-1.1,6.75L22.3,36l7.25-2.25-2.3-7.25-7.2,2.3m-6,38L8.8,66.2l-.55,5.25,5.25.5.55-5.25m7.1,17.65L25.3,81l-3.4-4.1-4.1,3.35,3.35,4.1m12.2,0,1.85-5-5-1.9-1.9,5,5.05,1.95M69.4,32.4l-9.5-2.15L57.8,39.8l9.45,2.1,2.15-9.5M38.1,24.8l5.25-.6-.6-5.3-5.25.65.6,5.25M50.65,35.85l4.45-1.5-1.5-4.5L49.1,31.4l1.55,4.45m26.2-5.3-4.8,2.2L74.2,37.6l4.85-2.15-2.2-4.9M86,59.35l-4.3-3.1-3.1,4.3,4.35,3.1,3-4.3M60.1,63.75,66.25,57l-6.7-6.15-6.2,6.7,6.75,6.2m16.3,3-5.25-.5-.55,5.25,5.25.5.55-5.25M45.85,56.65l4.85-2.2-2.15-4.8-4.9,2.15,2.2,4.85M58.4,78.9l2.5-9.65-9.6-2.5-2.45,9.6L58.4,78.9"/><path class="cls-2" d="M58.4,78.9l-9.55-2.55,2.45-9.6,9.6,2.5L58.4,78.9M26.05,11.3h.3L27.7,8.75l2.1-1.2,1.35,1.3L27.5,12.7l-1.45-1.4m43.7,3.25,4.2,2.5,1.2,3.75L67.9,23.1l-2.3-7.25,4.15-1.3M87.3,44.2v.35l-2.1,3.3L87.3,51v1.8l-.1.85-9.3-1.05,1.1-9.3,8.3,1M84.55,77.3h0l-2.65,1.55,2.4-1.95.3.4m-30,17.55L50.35,97.3,49.1,93.75l4.5-1.55.9,2.65m-53.2-35L0,57.4V53.45L3.9,57,1.3,59.85M35.2,17,33.35,22,28.3,20.05l1.9-5,5,1.9M20.05,28.75l7.2-2.3,2.3,7.25L22.3,36l-2.25-7.2M21.15,22,17.8,17.9l4.1-3.35,3.4,4.1L21.15,22m12.3,36.75L40.75,57h0l1.75,7.4-7.4,1.75-1.7-7.4m-8.6-5.15-9.3-1.05,1.05-9.3,9.35,1-.4,3.7H25.5l-.65,5.6m-3.7,30.75-3.35-4.1,4.1-3.35L25.3,81l-4.15,3.35m29.5-48.5L49.1,31.4l4.5-1.55,1.5,4.5-4.45,1.5M38.1,24.8l-.6-5.25,5.25-.65.6,5.3-5.25.6m31.3,7.6-2.15,9.5L57.8,39.8l2.1-9.55,9.5,2.15m7,34.3L75.85,72l-5.25-.5.55-5.25,5.25.5m-16.3-3-6.75-6.2,6.2-6.7L66.25,57,60.1,63.75"/><path class="cls-3" d="M75.05,82.85l.1.35-1.5.5L67.9,85.45,65.6,78.2l7.25-2.3,2.2,6.95M28.35,92.2l-4.1-2.4,3-1,1.1,3.35M0,40.8v-10l7.05,1.6L4.9,41.9,0,40.8m11.85-3.2L9.7,32.75l4.8-2.2,2.15,4.9-4.8,2.15m2.2,29.1L13.5,72l-5.25-.5L8.8,66.2l5.25.5m19.3,17.65L28.3,82.4l1.9-5,5,1.9-1.85,5m43.5-53.8,2.2,4.9L74.2,37.6l-2.15-4.85,4.8-2.2M86,59.35l-3,4.3-4.35-3.1,3.1-4.3,4.3,3.1m-40.1-2.7-2.2-4.85,4.9-2.15,2.15,4.8-4.85,2.2"/></g></g></svg>