<svg xmlns="http://www.w3.org/2000/svg" viewBox="0 0 120 140"><defs><style>.cls-1{fill:#bb6444;}.cls-2{fill:#b55f40;}.cls-3{fill:#c26948;}.cls-4{fill:#c16ee2;}.cls-5{fill:#79468e;}.cls-6{fill:#593269;}.cls-7{fill:#9b59b6;}.cls-8{fill:#ecdcb8;}.cls-9{fill:#434343;}.cls-10{fill:#cad9d9;}.cls-11{fill:#727979;}.cls-12{fill:#b9c6c6;}.cls-13{fill:#ecbc00;}.cls-14{fill:#856a00;}.cls-15{fill:#fc0;}.cls-16{fill:#743e29;}.cls-17{fill:#ad5c3e;}.cls-18{fill:#d06e4b;}.cls-19{fill:#a6b1b1;}.cls-20{fill:#909a9a;}.cls-21{fill:#390;}.cls-22{fill:#d5e5e5;}</style></defs><title>Asset 115</title><g id="Layer_2" data-name="Layer 2"><g id="Layer_1-2" data-name="Layer 1"><path class="cls-1" d="M84.55,121.6l2.15-9.5L77.2,110l-2.1,9.55,9.45,2.1m-37-93L43.65,25,40,28.8l3.85,3.65L47.5,28.6M30.4,24.1l-5.25-.55-.55,5.3,5.25.5.55-5.25m3.75,13.55,3.35,4.1,4.15-3.35-3.4-4.1-4.1,3.35M30.85,50.3l-4.8,2.2,2.15,4.85L33,55.2l-2.15-4.9m11,17.45.4-3.7L33,63,31.9,72.3l9.3,1,.65-5.6h0m15.25,9h0L49.8,78.5l1.7,7.4,7.4-1.75-1.75-7.4M2.8,96.1l9.6,2.55L14.9,89,5.3,86.5,2.8,96.1M7.35,77.3l6.7,6.2,6.2-6.75-6.7-6.15-6.2,6.7M2.3,44l4.25,3.1,3.1-4.3-4.25-3L2.3,44M53.85,39.3l.6,5.25L59.7,44l-.6-5.3-5.25.65m-8,14.15L43.6,46.2l-7.2,2.3,2.25,7.2,7.25-2.25M44.65,39.8l5.05,2,1.85-5-5-1.9-1.9,5m1.9,57.4-1.9,5,5.05,1.95,1.85-5-5-1.9M30.4,86.45,25.15,86,24.6,91.2l5.25.5.55-5.25m11.25,14.3-3.4-4.1L34.15,100l3.35,4.1,4.15-3.35m2,7.85-7.2,2.25,2.25,7.25,7.25-2.3-2.3-7.2M13.9,50l-2.1,9.55,9.45,2.1,2.15-9.5L13.9,50m18.15,64.15-2.2-4.9-4.75,2.2,2.15,4.85,4.8-2.15M0,35,60,0l60,35v70L60,140,0,105V35M92.75,24.1l-5.25-.55L87,28.85l5.25.5.55-5.25M113.9,36.7l-5-1.9-1.9,5,5,2,1.85-5M70,49.6l-4.5,1.55L67,55.6l4.45-1.5L70,49.6M62.2,14l4.85-2.15L64.9,7.05,60,9.2,62.2,14m31,36.3-4.8,2.2,2.15,4.85L95.4,55.2l-2.2-4.9M75.9,70.6l-6.2,6.7,6.75,6.2,6.15-6.75L75.9,70.6M95.35,63l-1.1,9.3,9.3,1,.65-5.6h0l.4-3.7-9.3-1m-9.6-10.85L76.25,50l-2.1,9.55,9.45,2.1,2.15-9.5m5.75-11.6L89.2,33.3,82,35.6l2.3,7.25,7.25-2.3M67.05,74.2,64.9,69.4,60,71.55l2.2,4.85,4.85-2.2m.6,12.3L65.2,96.1l9.55,2.55L77.25,89l-9.6-2.5M89.2,95.65,82,98l2.3,7.25L91.5,103l-2.3-7.3m3.55-9.2L87.5,86,87,91.2l5.25.5.55-5.25M98,76l-3.1,4.3,4.35,3.1,3-4.3L98,76m18.25-21.85-5.35-.5-.5,5.3,5.25.5.6-5.3M109,97.2l-1.9,5,5,1.95,1.85-5-5-1.9m-5,3.55-3.4-4.1L96.5,100l3.35,4.1,4.15-3.35m-32.55,15.7L70,112l-4.5,1.55L67,118l4.45-1.55m-7.4,6-5.2.85.8,5.2,5.25-.8-.85-5.25"/><path class="cls-2" d="M47.5,28.6l-3.65,3.85L40,28.8,43.65,25,47.5,28.6m-13.35,9,4.1-3.35,3.4,4.1L37.5,41.75l-3.35-4.1m10.5,2.15,1.9-5,5,1.9-1.85,5-5.05-2M45.9,53.45,38.65,55.7,36.4,48.5l7.2-2.3,2.3,7.25m8-14.15,5.25-.65.6,5.3-5.25.6-.6-5.25M2.3,44,5.4,39.7l4.25,3-3.1,4.3L2.3,44M7.35,77.3l6.2-6.7,6.7,6.15-6.2,6.75-6.7-6.2M2.8,96.1l2.5-9.6L14.9,89l-2.5,9.65L2.8,96.1M57.15,76.75l1.75,7.4L51.5,85.9l-1.7-7.4,7.3-1.75h0m-15.25-9h0l-.65,5.6-9.3-1L33,63l9.35,1-.4,3.7m-.25,33L37.5,104.1,34.15,100l4.1-3.35,3.4,4.1m-9.6,13.4-4.8,2.15-2.15-4.85,4.75-2.2,2.2,4.9M62.2,14,60,9.2l4.9-2.15,2.15,4.8L62.2,14M70,49.6l1.5,4.5L67,55.6l-1.55-4.45L70,49.6M91.5,40.55l-7.25,2.3L82,35.6l7.25-2.3,2.3,7.25m-5.75,11.6-2.15,9.5-9.45-2.1L76.25,50l9.5,2.15M95.35,63l9.3,1-.4,3.7h0l-.65,5.6-9.3-1,1.1-9.3M75.9,70.6l6.7,6.15L76.45,83.5,69.7,77.3l6.2-6.7M67.65,86.5l9.6,2.5-2.5,9.65L65.2,96.1l2.45-9.6m25.1,0L92.2,91.7,87,91.2,87.5,86l5.25.5m23.5-32.3-.6,5.3L110.4,59l.5-5.3,5.35.5M104,100.75l-4.15,3.35L96.5,100l4.1-3.35,3.4,4.1M64.05,122.4l.85,5.25-5.25.8-.8-5.2,5.2-.85m7.4-6L67,118l-1.55-4.5L70,112l1.5,4.5"/><path class="cls-3" d="M30.4,24.1l-.55,5.25-5.25-.5.55-5.3,5.25.55m.45,26.2L33,55.2l-4.8,2.15L26.05,52.5l4.8-2.2M30.4,86.45l-.55,5.25-5.25-.5L25.15,86l5.25.5M46.55,97.2l5,1.9-1.85,5-5.05-1.95,1.9-5M13.9,50l9.5,2.15-2.15,9.5-9.45-2.1L13.9,50m29.7,58.6,2.3,7.2-7.25,2.3-2.25-7.25,7.2-2.25m70.3-71.9-1.85,5-5-2,1.9-5,5,1.9M92.75,24.1l-.55,5.25L87,28.85l.55-5.3,5.25.55m.45,26.2,2.2,4.9-4.85,2.15L88.4,52.5l4.8-2.2M67.05,74.2,62.2,76.4,60,71.55l4.9-2.15,2.15,4.8M89.2,95.65l2.3,7.3-7.25,2.25L82,98l7.25-2.3M98,76l4.3,3.1-3,4.3L94.9,80.3,98,76m11,21.2,5,1.9-1.85,5-5-1.95,1.9-5m-24.4,24.4-9.45-2.1L77.2,110l9.5,2.15-2.15,9.5"/><path class="cls-4" d="M56.2,24.45l-3.15-10.7,13.3-2.6,3.6,11L56.2,24.45"/><path class="cls-5" d="M56.2,24.45V46L53.05,35.4V13.75l3.15,10.7"/><path class="cls-6" d="M70,22.1l-3.6-11-13.3,2.6V35.4L56.2,46l3.25-.5v1.6l1.15,2.5,2.7-.7v-4l6.65-1V22.1M51.5,12.5a1.74,1.74,0,0,1,1.2-.7L66,9.2a1.76,1.76,0,0,1,1.35.25,1.88,1.88,0,0,1,.9,1.1l3.6,11,.1.6V43.85a2,2,0,0,1-.45,1.3,2.21,2.21,0,0,1-1.25.7l-5,.75v2.3a2.05,2.05,0,0,1-.4,1.25,2.42,2.42,0,0,1-1.1.7l-2.7.7-1.35-.15a1.91,1.91,0,0,1-1-.95L57.65,48l0-.15-1.1.2-1.35-.3a1.86,1.86,0,0,1-.85-1.1L51.15,36l-.1-.6V13.75a1.92,1.92,0,0,1,.45-1.25"/><path class="cls-7" d="M56.2,24.45,70,22.1V43.85l-6.65,1-3.85.6L56.2,46V24.45"/><path class="cls-8" d="M63.3,44.9v4l-2.7.7-1.15-2.5V45.5l3.85-.6"/><path class="cls-6" d="M73.2,54v2.6l2.1.8,2-1.85V54.1L83,48V37.5l-9.85-4.45L66.9,40.1V50.9L73.2,54M72.75,31.1l1.25.15,9.85,4.45.85.75.3,1V48a2,2,0,0,1-.55,1.4l-5.2,5.5v.6l-.15.8-.45.65-2,1.85-1,.5-1.1,0-2.1-.8a2,2,0,0,1-1.3-1.9V55.2l-5.15-2.5L65.2,52a2,2,0,0,1-.3-1.05V40.1a1.89,1.89,0,0,1,.5-1.3l6.25-7a2.11,2.11,0,0,1,1.1-.65"/><path class="cls-7" d="M66.9,40.1l9.45,4.5L76.1,55.3,73.2,54,66.9,50.9V40.1"/><path class="cls-4" d="M66.9,40.1l6.25-7.05L83,37.5l-6.65,7.1L66.9,40.1"/><path class="cls-5" d="M76.35,44.6,83,37.5V48l-5.75,6.1L76.1,55.3l.25-10.7"/><path class="cls-8" d="M73.2,54l2.9,1.35,1.15-1.2v1.4l-2,1.85-2.1-.8V54"/><path class="cls-9" d="M84.55,25.4l2.7.1,1.3,1.75L87.1,29l-2.75-.1L83.1,27.1l1.45-1.7"/><path class="cls-10" d="M84.55,25.4,83.1,27.1l1.25,1.8,2.75.1,1.45-1.75-1.3-1.75-2.7-.1M81,27.05l2.6-3.1,4.9.15,2.25,3.2-2.6,3.1,1,29.9-6.85-.15,1-29.9L81,27.05"/><path class="cls-11" d="M81,27.05,79,55.6v0l-1.8-2.55L79,26.9a1.68,1.68,0,0,1,.5-1.1l2.6-3.1.7-.55.85-.2,4.9.15.9.25.7.6,2.25,3.2.35,1.05,1.85,26.7L92.7,56.05v0l-2-28.7-2.25-3.2L83.55,24,81,27.05"/><path class="cls-12" d="M81,27.05l2.3,3.2-1,29.9L79,55.6l2-28.55m9.75.25,2,28.7-3.65,4.3-1-29.9,2.6-3.1"/><path class="cls-13" d="M79,55.65v0l3.25,4.55L81.1,90,77,84.2l2-28.55M92.7,56v0l2,28.6L90,90.25l-.9-29.95L92.7,56"/><path class="cls-14" d="M77.15,53.1,79,55.65,77,84.2,81.1,90l8.85.25,4.7-5.6-2-28.6,1.85-2.15,2.1,30.65A2,2,0,0,1,96.2,86l-4.7,5.6-.7.55-.9.15L81.05,92l-.9-.2-.65-.65-4.1-5.8a1.9,1.9,0,0,1-.4-1.3L77.15,53.1"/><path class="cls-15" d="M82.2,60.15l6.85.15.9,30L81.1,90l1.1-29.85"/><path class="cls-16" d="M39.4,33.55,34.55,26.7,24.1,26.45,21.35,29.7l-2.85,14L15,48l-4.5,12.4,8.4,11.9,18,.5,9.55-11.4L42,48.7,39.4,33.55m-3.2-8,4.85,6.85.35.85,2.5,15,4.45,12.5.1,1-.45,1L38.45,74.1l-.7.55-.9.15-18-.5-.9-.2-.65-.65-8.4-11.9L8.5,60.7a1.54,1.54,0,0,1,.1-1l4.5-12.4.3-.6,3.25-4L19.4,29.3l.45-.9,2.75-3.25.7-.5.85-.2,10.45.25.9.25.7.6"/><path class="cls-1" d="M21.35,29.7l2.75-3.25,10.45.25,4.85,6.85L36.65,36.8,38.4,53.05l-3.6,4.2-13.6-.4L15,48l3.55-4.3,9.6,8.6.65-15.95-7.4-6.65"/><path class="cls-17" d="M21.35,29.7l7.4,6.65L28.1,52.3l-9.6-8.6,2.85-14m18,3.85L42,48.7l4.5,12.7L36.9,72.8,34.8,57.25l3.6-4.2L36.65,36.8l2.75-3.25M18.85,72.3l-8.4-11.9L15,48l6.25,8.85L18.85,72.3"/><path class="cls-18" d="M18.85,72.3,21.2,56.85l13.6.4L36.9,72.8l-18-.5"/><path class="cls-14" d="M15.6,62.9,43.85,29.45a2.13,2.13,0,0,1,.85-.6l1-.05a1.76,1.76,0,0,1,1,.5l8.8,8,1.4-1.65.85-.6,1,0a1.76,1.76,0,0,1,1,.5L68.5,43.4l.1-.1L70,41.7l.85-.6,1-.05a1.76,1.76,0,0,1,1,.5l8.75,8L83,47.8a1.67,1.67,0,0,1,.85-.6l1.05-.1a1.76,1.76,0,0,1,.95.5L99,59.5l-1.4,1.65V61l-13-11.9-2.75,3.3L80.3,51l-8.85-8L68.7,46.25,67.35,45,58.4,36.9l-2.75,3.2-1.6-1.45-8.7-7.9L17.1,64.2v0L15.6,62.9"/><path class="cls-13" d="M54.05,38.65l1.6,1.45L30.15,70.3V76L25.7,72l28.35-33.3M67.35,45l1.35,1.25L43.2,76.35V82.1L39,78.3,67.35,45m13,6,1.45,1.35L56.2,82.5v5.75l-4.3-4L80.3,51"/><path class="cls-15" d="M80.3,51,51.9,84.3l-8.7-8,25.5-30.1L71.45,43l8.85,8M17.1,64.2,45.35,30.75l8.7,7.9L25.7,72,17.1,64.2M55.65,40.1l2.75-3.2L67.35,45,39,78.3l-8.85-8,25.5-30.2m26.1,12.25,2.75-3.3,13,11.9L69.25,94.3l-13-11.8L81.75,52.35"/><path class="cls-12" d="M17.1,64.25v0L25.7,72l4.45,4V70.3l8.85,8,4.2,3.8V76.35l8.7,8,4.3,4V82.5l13,11.8v9.2l8.25,3.8v2.3L63,102.8V97.3L49.7,91.15V96.6L37.85,91.1V85.6l-3.8-1.8v5.55L17.1,81.4V64.25"/><path class="cls-11" d="M17.1,64.25V81.4l16.95,7.95,3.8,1.75L49.7,96.6,63,102.8l14.55,6.8,28.25-33.35V74l-8.2-3.85V61.15L99,59.5l.45.65.15.8v7.9l7,3.3.85.75.3,1v2.3a2,2,0,0,1-.45,1.3L79.05,110.9a2.11,2.11,0,0,1-1.1.65l-1.3-.15L16.25,83.2a2.09,2.09,0,0,1-.8-.7,1.89,1.89,0,0,1-.35-1.1V64.2a1.89,1.89,0,0,1,.5-1.3l1.5,1.35"/><path class="cls-19" d="M97.55,61V70.1L93,75.6l-.4.4V70.55l-2.4,2.8v5.5L69.25,103.5V94.3L97.55,61m-63.5,28.4V83.8l3.8,1.8v5.5l-3.8-1.75M49.7,96.6V91.15L63,97.3v5.5L49.7,96.6m27.8,13v-2.3L105.75,74v2.3L77.5,109.6"/><path class="cls-20" d="M90.15,78.85v-5.5l2.4-2.8V76l-.3.35v.05l-2.1,2.45"/><path class="cls-21" d="M92.25,76.35l.3-.35.4-.4-.7.75"/><path class="cls-22" d="M92.25,76.35l.7-.75,4.6-5.5,8.2,3.85L77.5,107.3l-8.25-3.8,20.9-24.65,2.1-2.45v-.05"/><path class="cls-6" d="M95.1,84.2V62.55a1.92,1.92,0,0,1,.45-1.25,1.74,1.74,0,0,1,1.2-.7l13.3-2.6a1.76,1.76,0,0,1,1.35.25,1.88,1.88,0,0,1,.9,1.1l3.6,10.95.1.6V92.65a2,2,0,0,1-.45,1.3l-1.25.7-5,.75v2.3A2.05,2.05,0,0,1,109,99l-1.1.7-2.7.7-1.35-.15a1.91,1.91,0,0,1-1-1l-1.15-2.5,0-.15-1.1.2-1.35-.3a1.86,1.86,0,0,1-.85-1.1L95.2,84.8l-.1-.6m2-21.65V84.2l3.15,10.6,3.25-.5v1.6l1.15,2.5,2.7-.7v-4l6.65-1V70.9l-3.6-11-13.3,2.6"/><path class="cls-5" d="M97.1,62.55l3.15,10.7V94.8L97.1,84.2V62.55"/><path class="cls-4" d="M97.1,62.55,110.4,60l3.6,11-13.75,2.35L97.1,62.55"/><path class="cls-7" d="M114,70.9V92.65l-6.65,1-3.85.6-3.25.5V73.25L114,70.9"/><path class="cls-8" d="M107.35,93.7v4l-2.7.7-1.15-2.5V94.3l3.85-.6"/></g></g></svg>