<svg xmlns="http://www.w3.org/2000/svg" viewBox="0 0 120 140"><defs><style>.cls-1{fill:#a4afaf;}.cls-2{fill:#9ba6a6;}.cls-3{fill:#a9b6b6;}.cls-4{fill:#115f32;}.cls-5{fill:#1b914d;}.cls-6{fill-opacity:0.1;}.cls-7{fill:#bb8044;}.cls-8{fill:#877e75;}.cls-9{fill:#eedfd1;}.cls-10{fill:#d9cbbf;}.cls-11{fill:#b8aca1;}.cls-12{fill:#1e5d87;}.cls-13{fill:#3aacf7;}.cls-14{fill:#2e89c6;}</style></defs><title>Asset 161</title><g id="Layer_2" data-name="Layer 2"><g id="Layer_1-2" data-name="Layer 1"><path class="cls-1" d="M95.2,107l3.7-4.35L93,99.85l-3.7,4.35L95.2,107m24.8-2L60,140,0,105V35L60,0l60,35v70M79,30.35l-5.8,6.8L82.4,41.5l5.85-6.85L79,30.35m9.4-4.75L84.65,30l5.9,2.75,3.7-4.35-5.9-2.75M58.9,14.45l5.9,2.75,3.7-4.35L62.6,10.1l-3.7,4.35m32,20.25,5.9,2.75,3.7-4.35-5.9-2.75L90.9,34.7m-63.65.2,9.25,4.35,5.85-6.85-9.3-4.3-5.8,6.8M30.9,63.7l5.9,2.75,3.7-4.35-5.9-2.75L30.9,63.7m4.6,10-9.3-4.3-5.8,6.8,9.25,4.35,5.85-6.85M21.4,71.5l5.85-6.85L18,60.35l-5.8,6.8L21.4,71.5m2,42.8,5.9,2.75L33,112.7,27.1,110l-3.7,4.35M12.6,76.1,8.9,80.45l5.9,2.75,3.7-4.35L12.6,76.1m90.55-9.5,5.9,2.75,3.7-4.35-5.9-2.75-3.7,4.35M65.4,71.75l9.25,4.35,5.85-6.85L71.2,65l-5.8,6.8m-3.75-8,5.9,2.75,3.7-4.35-5.9-2.75-3.7,4.35m30.85,31-9.3-4.3-5.8,6.8,9.25,4.35,5.85-6.85m2.1-32.4L90.9,66.6l5.9,2.75L100.5,65l-5.9-2.75M47,114.35l-5.9-2.75L37.4,116l5.9,2.75,3.7-4.35m0-8.75-5.9-2.75-3.7,4.35L43.3,110,47,105.6m31.75-2.75-3.7,4.35L81,110l3.7-4.35-5.9-2.75"/><path class="cls-2" d="M58.9,14.45l3.7-4.35,5.9,2.75L64.8,17.2l-5.9-2.75M88.35,25.6l5.9,2.75-3.7,4.35L84.65,30l3.7-4.35m-61.1,9.3,5.8-6.8,9.3,4.3L36.5,39.25,27.25,34.9M12.6,76.1l5.9,2.75L14.8,83.2,8.9,80.45l3.7-4.35m10.8,38.2L27.1,110,33,112.7l-3.7,4.35-5.9-2.75m71.2-52L100.5,65l-3.7,4.35L90.9,66.6l3.7-4.35m-2.1,32.4-5.85,6.85L77.4,97.15l5.8-6.8,9.3,4.3M61.65,63.7l3.7-4.35,5.9,2.75-3.7,4.35-5.9-2.75m3.75,8L71.2,65l9.3,4.3L74.65,76.1,65.4,71.75M47,105.6,43.3,110l-5.9-2.75,3.7-4.35L47,105.6"/><path class="cls-3" d="M79,30.35l9.3,4.3L82.4,41.5l-9.25-4.35,5.8-6.8m12,4.35,3.7-4.35,5.9,2.75-3.7,4.35L90.9,34.7M21.4,71.5l-9.25-4.35,5.8-6.8,9.3,4.3L21.4,71.5m14.1,2.15L29.65,80.5,20.4,76.15l5.8-6.8,9.3,4.3m-4.6-10,3.7-4.35,5.9,2.75-3.7,4.35L30.9,63.7m72.25,2.9,3.7-4.35,5.9,2.75-3.7,4.35-5.9-2.75M47,114.35l-3.7,4.35L37.4,116l3.7-4.35,5.9,2.75m31.75-11.5,5.9,2.75L81,110l-5.9-2.75,3.7-4.35M95.2,107l-5.9-2.75L93,99.85l5.9,2.75L95.2,107"/><path class="cls-4" d="M89.5,81.35a5.1,5.1,0,0,0,1.75-1.1l.2-.15a4.53,4.53,0,0,0,1.15-2.95V76.3a49.92,49.92,0,0,0-1.35-12.5q-1.4-5.14-3.35-5.15T84.6,63.8a48.37,48.37,0,0,0-1.4,12.5v.85a4.3,4.3,0,0,0,1.25,2.95l.15.15,1.75,1.1V82.5a1.54,1.54,0,0,0,1.55,1.55h0a1.35,1.35,0,0,0,1-.45,1.44,1.44,0,0,0,.5-1.1V81.35m-6.8-.25a6,6,0,0,1-1.5-3.9v-.9a48.75,48.75,0,0,1,1.5-13q1.85-7.09,5.2-6.65,3.34-.49,5.3,6.65a52.21,52.21,0,0,1,1.4,13v.9a6.53,6.53,0,0,1-1.4,4l-.5.55h0l-1.15.9a3.21,3.21,0,0,1-1,2.35l-.15.15a3.51,3.51,0,0,1-2.4,1h0a3.38,3.38,0,0,1-2.5-1,3.48,3.48,0,0,1-1.05-2.45l-1.15-.9h0l-.55-.6"/><path class="cls-5" d="M86.35,81.35l-1.75-1.1-.15-.15a4.3,4.3,0,0,1-1.25-2.95V76.3a48.37,48.37,0,0,1,1.4-12.5q1.35-5.14,3.3-5.15t3.35,5.15A49.92,49.92,0,0,1,92.6,76.3v.85a4.53,4.53,0,0,1-1.15,2.95l-.2.15a5.1,5.1,0,0,1-1.75,1.1l-1.6.25-1.55-.25"/><path class="cls-6" d="M93.2,81.15a3.36,3.36,0,0,1,1.5,2.7,3.72,3.72,0,0,1-2,3.1A8.34,8.34,0,0,1,88,88.25a8.57,8.57,0,0,1-4.8-1.3,3.72,3.72,0,0,1-2-3.1,3.48,3.48,0,0,1,1.5-2.75l.55.6h0l1.15.9a3.48,3.48,0,0,0,1.05,2.45,3.38,3.38,0,0,0,2.5,1h0a3.51,3.51,0,0,0,2.4-1L90.5,85a3.21,3.21,0,0,0,1-2.35l1.15-.9h0l.5-.55"/><path class="cls-7" d="M89.5,81.35V82.5a1.44,1.44,0,0,1-.5,1.1,1.35,1.35,0,0,1-1,.45h0a1.54,1.54,0,0,1-1.55-1.55V81.35l1.55.25,1.6-.25"/><path class="cls-8" d="M51.75,112.7l-2.1-1-.55-2.45,18.1,8.45L86,95.85V57.45l-8.75-4V20.9L53.75,10,41.9,24.35v29.1l-8.75,9.9V101.8l6.9,3.2-1.4,1.55.05-.1-.1.1-6.3-2.9-.8-.75a1.89,1.89,0,0,1-.35-1.1V63.35l.15-.7.35-.6L39.9,52.7V24.35l.1-.65a1.4,1.4,0,0,1,.35-.6L52.2,8.75l.5-.45.6-.25,1.3.15L78.05,19.1l.85.75.2.5.1.55V52.15l7.6,3.5a1.78,1.78,0,0,1,.85.75l.2.5.1.55v38.4l-.1.7-.35.6L68.75,119a2.11,2.11,0,0,1-1.1.65l-.65,0-.65-.2-14.6-6.8"/><path class="cls-9" d="M33.15,63.35l8.75-9.9v8.7l23.4,10.9L77.2,58.7V53.45l8.75,4L67.2,79.35l-34.05-16m8.75-39L53.75,10,77.2,20.9,65.3,35.3,41.9,24.35m12,17.9v-7.8l8.65,4v7.8l-8.65-4m-9.85-12.4,7.65,3.6v7.8l-7.65-3.6v-7.8m0,10.5L51.7,44v7.8l-7.65-3.6v-7.8M55.7,14.2l-7.9,9.55,15.55,7.3,7.95-9.6L55.7,14.2M36.55,69.45l11.8,5.6v8.4L36.55,77.9V69.45m0,10.75,11.8,5.6v8.4l-11.8-5.55V80.2M44.15,103l-7.6-3.55V91l11.8,5.6v3.7l-2,0-.2.15-2,2.5m6.4-1v-4.4l13.5,6.35v8.35l-12.6-5.9.15-.2V104.7a4.5,4.5,0,0,0-.9-2.55l-.15-.2M62.55,49v7.8l-8.65-4V45l8.65,4m0,10.5v7.8l-8.65-4v-7.8l8.65,4m-18.5-.85v-7.8l7.65,3.6v7.8l-7.65-3.6m6.5,17.4,13.5,6.35v8.35l-13.5-6.3v-8.4m0,10.75,13.5,6.35v8.35l-13.5-6.3V86.8"/><path class="cls-10" d="M50.55,86.8v8.4l13.5,6.3V93.15L50.55,86.8M40.05,105l-6.9-3.2V63.35l34.05,16V117.7l-18.1-8.45,2.35-2.9,12.6,5.9V103.9l-13.5-6.35V102a5.08,5.08,0,0,0-2-1.6l0,0-.15,0v-3.7L36.55,91V99.4l7.6,3.55-2.35,2.9L40.05,105M41.9,53.45V24.35L65.3,35.3V73.05L41.9,62.15v-8.7M55.7,14.2l15.6,7.25-7.95,9.6L47.8,23.75l7.9-9.55M44.05,40.35v7.8l7.65,3.6V44l-7.65-3.6m0-10.5v7.8l7.65,3.6v-7.8l-7.65-3.6m9.85,12.4,8.65,4V38.5l-8.65-4v7.8m-17.35,38v8.45l11.8,5.55V85.8l-11.8-5.6m0-10.75V77.9l11.8,5.55v-8.4l-11.8-5.6M62.55,49,53.9,45v7.8l8.65,4V49m0,10.5-8.65-4v7.8l8.65,4V59.5m-18.5-.85,7.65,3.6v-7.8l-7.65-3.6v7.8m6.5,17.4v8.4l13.5,6.3V82.4l-13.5-6.35"/><path class="cls-11" d="M77.2,20.9V58.7L65.3,73.05V35.3L77.2,20.9M86,57.45v38.4L67.2,117.7V79.35L86,57.45"/><path class="cls-12" d="M39,113.05l-.5-.2-.85-.75a1.89,1.89,0,0,1-.35-1.1v-1.45a4,4,0,0,1,.4-1.9l.9-1.1h0l1.4-1.55,1.75.85-1.65,2-.1.1-.55.6-.2,1V111l6.15,2.65,3.65-4.4.55,2.45L47,115l-.45.4-.6.25-.7.05-.6-.15L39,113.05"/><path class="cls-13" d="M48.35,100.25l.15,0,0,0a5.08,5.08,0,0,1,2,1.6l.15.2a4.5,4.5,0,0,1,.9,2.55v1.45l-.15.2-2.35,2.9-3.65,4.4V112.2a4.5,4.5,0,0,0-.9-2.55,5.33,5.33,0,0,0-2.15-1.8l0,0-1.4-.25-.15,0-.6.2-.05,0,1.65-2,2.35-2.9,2-2.5.2-.15,2,0"/><path class="cls-14" d="M45.45,113.65,39.3,111v-1.45l.2-1,.55-.6.1-.1.05,0,.6-.2.15,0,1.4.25,0,0a5.33,5.33,0,0,1,2.15,1.8,4.5,4.5,0,0,1,.9,2.55v1.45"/><path class="cls-6" d="M51.75,112.7l-5.2,6-9-4.05L39,113.05l5.65,2.45.6.15.7-.05.6-.25L47,115l2.65-3.25,2.1,1"/><path class="cls-4" d="M24.3,88.65l1.75-1.1.2-.15a4.53,4.53,0,0,0,1.15-3V83.6a49.92,49.92,0,0,0-1.35-12.5Q24.66,66,22.7,66T19.4,71.1A48.37,48.37,0,0,0,18,83.6v.85a4.3,4.3,0,0,0,1.25,3l.15.15a4.34,4.34,0,0,0,1.75,1.1V89.8a1.54,1.54,0,0,0,1.55,1.55h.05a1.35,1.35,0,0,0,1.05-.45,1.44,1.44,0,0,0,.5-1.1V88.65m-6.8-.25A6,6,0,0,1,16,84.5v-.9a48.75,48.75,0,0,1,1.5-13q1.84-7.09,5.2-6.65Q26,63.46,28,70.6a52.21,52.21,0,0,1,1.4,13v.9a6.53,6.53,0,0,1-1.4,4l-.5.55h-.05l-1.15.9a3.21,3.21,0,0,1-1,2.35l-.15.15a3.51,3.51,0,0,1-2.4.95H22.7a3.38,3.38,0,0,1-2.5-1,3.48,3.48,0,0,1-1.05-2.45L18,89h.05l-.55-.6"/><path class="cls-5" d="M21.15,88.65a4.34,4.34,0,0,1-1.75-1.1l-.15-.15a4.3,4.3,0,0,1-1.25-3V83.6a48.37,48.37,0,0,1,1.4-12.5Q20.75,66,22.7,66t3.35,5.15A49.92,49.92,0,0,1,27.4,83.6v.85a4.53,4.53,0,0,1-1.15,3l-.2.15-1.75,1.1-1.6.25-1.55-.25"/><path class="cls-6" d="M28,88.45a3.36,3.36,0,0,1,1.5,2.7,3.72,3.72,0,0,1-2,3.1,8.34,8.34,0,0,1-4.75,1.3,8.57,8.57,0,0,1-4.8-1.3A3.72,3.72,0,0,1,16,91.15a3.48,3.48,0,0,1,1.5-2.75l.55.6H18l1.15.9a3.48,3.48,0,0,0,1.05,2.45,3.38,3.38,0,0,0,2.5,1h.05a3.51,3.51,0,0,0,2.4-.95l.15-.15a3.21,3.21,0,0,0,1-2.35l1.15-.9h.05l.5-.55"/><path class="cls-7" d="M24.3,88.65V89.8a1.44,1.44,0,0,1-.5,1.1,1.35,1.35,0,0,1-1.05.45H22.7a1.54,1.54,0,0,1-1.55-1.55V88.65l1.55.25,1.6-.25"/><path class="cls-4" d="M82.7,102.9A6,6,0,0,1,81.2,99v-.9a48.75,48.75,0,0,1,1.5-13q1.85-7.09,5.2-6.65,3.34-.49,5.3,6.65a52.21,52.21,0,0,1,1.4,13V99a6.53,6.53,0,0,1-1.4,4l-.5.55h0l-1.15.9a3.21,3.21,0,0,1-1,2.35l-.15.15a3.51,3.51,0,0,1-2.4.95h0a3.38,3.38,0,0,1-2.5-1,3.48,3.48,0,0,1-1.05-2.45l-1.15-.9h0l-.55-.6m6.8.25a5.1,5.1,0,0,0,1.75-1.1l.2-.15a4.53,4.53,0,0,0,1.15-3V98.1a49.92,49.92,0,0,0-1.35-12.5q-1.4-5.14-3.35-5.15T84.6,85.6a48.37,48.37,0,0,0-1.4,12.5V99a4.3,4.3,0,0,0,1.25,3l.15.15,1.75,1.1v1.15a1.54,1.54,0,0,0,1.55,1.55h0a1.35,1.35,0,0,0,1-.45,1.44,1.44,0,0,0,.5-1.1v-1.15"/><path class="cls-5" d="M89.5,103.15l-1.6.25-1.55-.25-1.75-1.1-.15-.15a4.3,4.3,0,0,1-1.25-3V98.1a48.37,48.37,0,0,1,1.4-12.5q1.35-5.14,3.3-5.15t3.35,5.15A49.92,49.92,0,0,1,92.6,98.1V99a4.53,4.53,0,0,1-1.15,3l-.2.15a5.1,5.1,0,0,1-1.75,1.1"/><path class="cls-6" d="M93.2,103a3.36,3.36,0,0,1,1.5,2.7,3.72,3.72,0,0,1-2,3.1,8.34,8.34,0,0,1-4.75,1.3,8.57,8.57,0,0,1-4.8-1.3,3.72,3.72,0,0,1-2-3.1,3.48,3.48,0,0,1,1.5-2.75l.55.6h0l1.15.9a3.48,3.48,0,0,0,1.05,2.45,3.38,3.38,0,0,0,2.5,1h0a3.51,3.51,0,0,0,2.4-.95l.15-.15a3.21,3.21,0,0,0,1-2.35l1.15-.9h0l.5-.55"/><path class="cls-7" d="M89.5,103.15v1.15a1.44,1.44,0,0,1-.5,1.1,1.35,1.35,0,0,1-1,.45h0a1.54,1.54,0,0,1-1.55-1.55v-1.15l1.55.25,1.6-.25"/></g></g></svg>