<svg xmlns="http://www.w3.org/2000/svg" viewBox="0 0 120 140"><defs><style>.cls-1{fill:#ecdcb8;}.cls-2{fill:#e5d5b2;}.cls-3{fill:#e0d1af;}.cls-4{fill-opacity:0.1;}.cls-5{fill:#1a7741;}.cls-6{fill:#27ae60;}.cls-7{fill:#2bc46c;}</style></defs><title>Asset 54</title><g id="Layer_2" data-name="Layer 2"><g id="Layer_1-2" data-name="Layer 1"><path class="cls-1" d="M18.35,24.3l27.5-16h0L60,0l60,35v70L60,140,0,105V35L17.25,25l.05-.05h.05l1-.6M97.1,36.85Q77.94,41.61,69.55,60.1A53.62,53.62,0,0,0,67,67a43.55,43.55,0,0,1-4.4,11L60,81.85Q52.11,92.2,37,96.9l0,0a39,39,0,0,0-19.6,11.2l30.3,17.65,1-1.7,2-3.95a42.65,42.65,0,0,0,2.4-7A51.69,51.69,0,0,1,60,98.8,38.43,38.43,0,0,1,83.1,83.2l0,0q18-5.55,25.75-19.1l2-3.95a39,39,0,0,0,2.4-7.05l.8-2.35V42a5.83,5.83,0,0,0-3-5.15h0l-5.65-3.3a61.49,61.49,0,0,1-8.35,3.25l0,.05M112.5,78.8l.75-6.55-6.55-.8-.75,6.6,6.55.75M97.1,97q-19.15,4.76-27.55,23.2A53.62,53.62,0,0,0,67,127l-.65,2.3,44.75-26.1h0a6.35,6.35,0,0,0,2.2-2.2,5.89,5.89,0,0,0,.8-3v-10a49.44,49.44,0,0,1-17,8.8l0,0M91.8,95.5V91H87.2l0,4.55H91.8M90.15,89l1.25-2.9-3-1.25-1.2,3,2.9,1.2m-4.3-66.8L65.9,10.5a44.83,44.83,0,0,1-3.35,7.35L60,21.75q-7.85,10.35-23,15l0,.05Q17.9,41.61,9.5,60.1A60.49,60.49,0,0,0,6.85,67L6,69.9v22a39.28,39.28,0,0,1,17-8.7l-.05,0q18-5.55,25.8-19.1l2-3.95a44.24,44.24,0,0,0,2.4-7.05A51.77,51.77,0,0,1,60,38.75,38.37,38.37,0,0,1,83.1,23.1l0-.05,2.8-.9M63,118.6l-4,1.85,1.75,4,4-1.85-1.75-4m11.35-21L80.5,100,83,93.9,76.8,91.45,74.35,97.6m-13,7.15-1,2,1.9,1,1.15-2-2-1M59,79l-1-7-7.1,1.1,1,7L59,79m-4.8-17.5,0,4.55H58.8V61.45H54.2M31.35,88.35l6.55,3.5,3.6-6.65-6.6-3.55-3.55,6.7m-4.25.55-1,4,4,1,1-4.05-4-.95m-15.85-43-2,.9.85,2.1,2-.95-.85-2.05M13.6,44l3.85-2.8L14.6,37.4l-3.75,2.8L13.6,44m11-5.6L22.1,35.1l-3.25,2.6L21.45,41l3.2-2.6m51.05,4.7,3.15.4.45-3.1-3.2-.45-.4,3.15M53.35,22.6l-.7-4.35L48.3,19,49,23.3l4.35-.7m29.2,8.5-4,1.85,1.75,4,4-1.85-1.75-4"/><path class="cls-2" d="M82.55,31.1l1.75,4L80.3,37l-1.75-4,4-1.85M97.1,36.85l0-.05a61.49,61.49,0,0,0,8.35-3.25l5.65,3.3h0A5.83,5.83,0,0,1,114,42v8.7l-.8,2.35a39,39,0,0,1-2.4,7.05l-2,3.95Q101,77.6,83.05,83.15l0,0A38.43,38.43,0,0,0,60,98.8a51.69,51.69,0,0,0-6.8,14.35,42.65,42.65,0,0,1-2.4,7l-2,3.95-1,1.7-30.3-17.65A39,39,0,0,1,37.05,97l0,0q15.11-4.7,23-15.05l2.6-3.9A43.55,43.55,0,0,0,67,67a53.62,53.62,0,0,1,2.6-6.85Q78,41.61,97.1,36.85M112.5,78.8,106,78.05l.75-6.6,6.55.8-.75,6.55M97.1,97l0,0a49.44,49.44,0,0,0,17-8.8v10a5.89,5.89,0,0,1-.8,3,6.35,6.35,0,0,1-2.2,2.2h0L66.3,129.3,67,127a53.62,53.62,0,0,1,2.6-6.85Q78,101.7,97.1,97m-6.95-8-2.9-1.2,1.2-3,3,1.25L90.15,89M91.8,95.5H87.25l0-4.55h4.6V95.5m-6-73.35-2.8.9,0,.05A38.37,38.37,0,0,0,60,38.75a51.77,51.77,0,0,0-6.8,14.3,44.24,44.24,0,0,1-2.4,7.05l-2,3.95Q40.95,77.6,23,83.15l.05,0A39.28,39.28,0,0,0,6,91.9v-22l.85-3A60.49,60.49,0,0,1,9.5,60.1q8.4-18.49,27.55-23.25l0-.05q15.11-4.69,23-15l2.6-3.9A44.83,44.83,0,0,0,65.9,10.5L85.85,22.15m-32.5.45L49,23.3,48.3,19l4.35-.7.7,4.35M75.7,43.05l.4-3.15,3.2.45-.45,3.1-3.15-.4m-51.05-4.7L21.45,41l-2.6-3.25,3.25-2.6,2.55,3.25M13.6,44,10.85,40.2l3.75-2.8,2.85,3.75L13.6,44M11.25,45.9,12.1,48l-2,.95-.85-2.1,2-.9m15.85,43,4,.95-1,4.05-4-1,1-4m4.25-.55,3.55-6.7,6.6,3.55-3.6,6.65-6.55-3.5M54.2,61.45h4.6V66H54.25l0-4.55M59,79l-7.1,1.1-1-7L58,72l1,7m2.3,25.8,2,1-1.15,2-1.9-1,1-2m13-7.15,2.45-6.15L83,93.9,80.5,100l-6.15-2.4M63,118.6l1.75,4-4,1.85-1.75-4,4-1.85"/><path class="cls-3" d="M17.3,24.9l1.05-.6-1,.6H17.3"/><path class="cls-4" d="M46.65,92.4a11.93,11.93,0,0,1-6.15,1.5,11.93,11.93,0,0,1-6.15-1.5c-1.7-1-2.55-2.13-2.55-3.5s.85-2.55,2.55-3.55A12.22,12.22,0,0,1,40.5,83.9a12.22,12.22,0,0,1,6.15,1.45q2.55,1.5,2.55,3.55c0,1.37-.85,2.53-2.55,3.5"/><path class="cls-5" d="M36.8,77.8l-.45,0-.15,0v0l-.1-.15V72.35a2,2,0,0,0-.6-1.5,2.05,2.05,0,0,0-2.9,0,2,2,0,0,0-.6,1.5V77.6A4.27,4.27,0,0,0,36.35,82h.45v4.9a1.88,1.88,0,0,0,1,1.6,4.43,4.43,0,0,0,2.45.65,4.35,4.35,0,0,0,2.4-.65,1.88,1.88,0,0,0,1-1.6V79.2h.85a4.16,4.16,0,0,0,3-1.25h.05a4.34,4.34,0,0,0,1.25-3.1v-5.3a2.05,2.05,0,0,0-3.5-1.45,1.91,1.91,0,0,0-.65,1.45v5.3l-.05.15-.15.1-.85,0v-9.2a3.27,3.27,0,0,0-1-2.4,3.21,3.21,0,0,0-2.4-1.05,3.5,3.5,0,0,0-3.45,3.45v12m10-12.3a4,4,0,0,1,2.9,1.2,3.87,3.87,0,0,1,1.15,2.85v5.3a6.33,6.33,0,0,1-1.8,4.5l-.25.25a6.41,6.41,0,0,1-3.15,1.5v5.75a3.67,3.67,0,0,1-1.9,3.3,6.27,6.27,0,0,1-3.5.95,6.37,6.37,0,0,1-3.55-.95,3.67,3.67,0,0,1-1.9-3.3v-3a6.1,6.1,0,0,1-2.9-1.65l-.1-.05A6.33,6.33,0,0,1,30,77.6V72.35a3.85,3.85,0,0,1,1.2-2.9,3.8,3.8,0,0,1,2.85-1.2l.6,0,.15,0v-2.5a5.11,5.11,0,0,1,1.55-3.75l0-.05a5.18,5.18,0,0,1,3.85-1.65,5.12,5.12,0,0,1,3.85,1.7v-.05a5.14,5.14,0,0,1,1.55,3.5h.75l.4,0"/><path class="cls-6" d="M36.8,77.8v-12a3.5,3.5,0,0,1,3.45-3.45,3.21,3.21,0,0,1,2.4,1.05,3.27,3.27,0,0,1,1,2.4v9.2l.85,0,.15-.1.05-.15v-5.3a1.91,1.91,0,0,1,.65-1.45,2.05,2.05,0,0,1,3.5,1.45v5.3A4.34,4.34,0,0,1,47.6,78h-.05a4.16,4.16,0,0,1-3,1.25h-.85v7.65a1.88,1.88,0,0,1-1,1.6,4.35,4.35,0,0,1-2.4.65,4.43,4.43,0,0,1-2.45-.65,1.88,1.88,0,0,1-1-1.6V82h.45a1.91,1.91,0,0,0,1.45-.65,2,2,0,0,0,.6-1.45,1.91,1.91,0,0,0-.65-1.45,2,2,0,0,0-1.45-.6h-.4"/><path class="cls-7" d="M36.8,77.8h.4a2,2,0,0,1,1.45.6,1.91,1.91,0,0,1,.65,1.45,2,2,0,0,1-.6,1.45,1.91,1.91,0,0,1-1.45.65h-.9A4.27,4.27,0,0,1,32,77.6V72.35a2,2,0,0,1,.6-1.5,2.05,2.05,0,0,1,2.9,0,2,2,0,0,1,.6,1.5V77.6l.1.15v0l.15,0,.45,0"/><path class="cls-4" d="M83.8,55.6a9.72,9.72,0,0,1-5-1.25,3.19,3.19,0,0,1,0-6,10.83,10.83,0,0,1,10.1,0,3.19,3.19,0,0,1,0,6,9.72,9.72,0,0,1-5,1.25"/><path class="cls-6" d="M81.25,40.65V27.85a2.55,2.55,0,0,1,4.35-1.8,2.53,2.53,0,0,1,.7,1.8V34.6l.65,0,.1,0,0-.1V30.55a1.44,1.44,0,0,1,.45-1.05,1.5,1.5,0,0,1,1.1-.45,1.54,1.54,0,0,1,1.5,1.5V34.5a3.15,3.15,0,0,1-.9,2.25h0a3.08,3.08,0,0,1-2.25,1H86.3V49.25a1.43,1.43,0,0,1-.7,1.2l-1.8.45L82,50.45a1.43,1.43,0,0,1-.75-1.2V43.7h.35l1.05-.45a1.5,1.5,0,0,0,.45-1.1,1.38,1.38,0,0,0-.5-1,1.35,1.35,0,0,0-1-.45h-.3"/><path class="cls-5" d="M81.25,40.65l-.35.05-.1-.05v0l0-.1V36.65a1.55,1.55,0,0,0-.45-1.15,1.59,1.59,0,0,0-1.1-.4,1.52,1.52,0,0,0-1,.4,1.55,1.55,0,0,0-.45,1.15V40.5a3.16,3.16,0,0,0,3.2,3.2h.35v5.55a1.43,1.43,0,0,0,.75,1.2l1.8.45,1.8-.45a1.43,1.43,0,0,0,.7-1.2V37.7H87a3.08,3.08,0,0,0,2.25-1h0a3.15,3.15,0,0,0,.9-2.25V30.55a1.54,1.54,0,0,0-1.5-1.5,1.5,1.5,0,0,0-1.1.45,1.44,1.44,0,0,0-.45,1.05V34.5l0,.1-.1,0-.65,0V27.85a2.53,2.53,0,0,0-.7-1.8,2.55,2.55,0,0,0-4.35,1.8v12.8m10.9-10.1V34.5a5.15,5.15,0,0,1-1.45,3.65l-.2.2a5.14,5.14,0,0,1-2.2,1.2v9.7a3.22,3.22,0,0,1-1.5,2.85l-.15.1a5.53,5.53,0,0,1-2.85.7,5.27,5.27,0,0,1-2.8-.7l-.1-.05a3.21,3.21,0,0,1-1.65-2.9v-3.8l-2-1.2h0A5.11,5.11,0,0,1,75.7,40.5V36.65a3.38,3.38,0,0,1,1-2.55l.1-.1a3.41,3.41,0,0,1,2.35-.9h0V27.85A4.61,4.61,0,0,1,83.8,23.3a4.42,4.42,0,0,1,3.25,1.35v.05a4.61,4.61,0,0,1,1.2,2.35h.5a3.3,3.3,0,0,1,2.4,1.05,3.43,3.43,0,0,1,1,2.45"/><path class="cls-7" d="M81.25,40.65h.3a1.35,1.35,0,0,1,1,.45,1.38,1.38,0,0,1,.5,1,1.5,1.5,0,0,1-.45,1.1l-1.05.45h-.7a3.16,3.16,0,0,1-3.2-3.2V36.65a1.55,1.55,0,0,1,.45-1.15,1.52,1.52,0,0,1,1-.4,1.59,1.59,0,0,1,1.1.4,1.55,1.55,0,0,1,.45,1.15V40.5l0,.1v0l.1.05.35-.05"/></g></g></svg>