<svg xmlns="http://www.w3.org/2000/svg" viewBox="0 0 120 140"><defs><style>.cls-1{fill:#bb6444;}.cls-2{fill:#ecdcb8;}.cls-3{fill:#e5d5b2;}.cls-4{fill:#b55f40;}.cls-5{fill:#c26948;}.cls-6{fill:#e0d1af;}</style></defs><title>Asset 64</title><g id="Layer_2" data-name="Layer 2"><g id="Layer_1-2" data-name="Layer 1"><path class="cls-1" d="M61,19.9l-1.25-.2a3.9,3.9,0,0,0-2.15.65L46,27.15,43.65,25,40,28.8,42.35,31h-3l-5,2.9-1.7,4.15-1.65.6H26.2l-8,4.65A4.54,4.54,0,0,0,16.05,47v3.5L13.9,50l-2.1,9.55,4.25,1V72.9l-2.5-2.3-6.2,6.7,6.7,6.2,3.45-3.7,1,1.9-2.45,3v8.15a4.11,4.11,0,0,0,.6,2.15,4.18,4.18,0,0,0,1.55,1.6l7.8,4.55,14.45,8.45-4.05,1.25,2.25,7.25,7.25-2.3-1.2-3.7L52,116.3l5.6,3.3a4.54,4.54,0,0,0,1.75.55h.4a4.63,4.63,0,0,0,2.2-.55l1-.55,3.75-2.15L67,118l4.45-1.55-.65-2L73.25,113l.55-.35,2-3,1.5-1.7,3.7.5,8.15-4.75L91.5,103l-.15-.55,7.85-4.6L96.5,100l3.35,4.1,4.15-3.35-3.2-3.85.45-.3A4.75,4.75,0,0,0,102.8,95l.25-.5.3-1.65V73.35h.2l.65-5.6h0l.4-3.7-1.3-.15V47a4.07,4.07,0,0,0-.55-2.1,4.26,4.26,0,0,0-1.55-1.6L92.4,38.15,90.35,37,89.2,33.3l-3.3,1.05-.3-.2H82.3L80.9,31.7l-.25-.4L73,26.8,61.9,20.35,61,19.9M60,9.2,62.2,14q2.44-1,4.85-2.15L64.9,7.05,60,9.2M29.85,29.35l.55-5.25-5.25-.55-.55,5.3,5.25.5m62.35,0,.55-5.25-5.25-.55L87,28.85l5.25.5M109,34.8l-1.9,5,5,2,1.85-5-5-1.9m7.3,19.35-5.35-.5-.5,5.3,5.25.5.6-5.3M120,35v70L60,140,0,105V35L60,0l60,35M5.4,39.7,2.3,44l4.25,3.1,3.1-4.3-4.25-3M5.3,86.5,2.8,96.1l9.6,2.55L14.9,89,5.3,86.5m19.8,25,2.15,4.85,4.8-2.15-2.2-4.9-4.75,2.2m86.95-7.35,1.85-5-5-1.9-1.9,5,5,1.95m-53.2,19.15.8,5.2,5.25-.8-.85-5.25-5.2.85M77.2,110l-2.1,9.55,9.45,2.1,2.15-9.5L77.2,110"/><path class="cls-2" d="M46,27.15l11.55-6.8a3.9,3.9,0,0,1,2.15-.65l1.25.2-1.3,1.8Q52.56,31,39.5,35.8l-2.8,1,0,0-2.35.65-1.75.6,1.7-4.15,5-2.9h3l1.35-2.55L46,27.15m27-.35,7.7,4.5.25.4-2.65,1.2,1.75,4,4-1.85-.4-.9h2l.3.2L90.35,37l2.05,1.2-1.5.55a38.27,38.27,0,0,0-6.85,3.55,40.5,40.5,0,0,0-14.8,17.8,53.62,53.62,0,0,0-2.6,6.85L65.5,70.75,63.35,75.9l-1.1,2-2.6,3.9-1,1.3L57.4,84.5q-7.65,8.3-20.7,12.35l0,.05-.4.1A41.27,41.27,0,0,0,26,101.15L18.2,96.6A4.18,4.18,0,0,1,16.65,95a4.11,4.11,0,0,1-.6-2.15v-7.5a42.48,42.48,0,0,1,6.65-2.2l-.05-.05a48.56,48.56,0,0,0,18.2-9.8l.4-.35a36.42,36.42,0,0,0,7.2-9l2-4a44.24,44.24,0,0,0,2.4-7,58.62,58.62,0,0,1,3.45-8.65,37.38,37.38,0,0,1,2.9-5l.45-.7A37.84,37.84,0,0,1,73,26.8m30.4,46.55v19.5l-.3,1.65a65.79,65.79,0,0,1-6.3,2.35l0,.05-.4.1a39.72,39.72,0,0,0-6.1,2,36.38,36.38,0,0,0-6.85,3.65A38.45,38.45,0,0,0,77.3,108l-1.5,1.7c-.9,1.07-1.75,2.18-2.55,3.35l-2.45,1.45-4.15,2.45-3.75,2.15-.2-.5-3.4,1.6a4.54,4.54,0,0,1-1.75-.55L52,116.3l.9-3.2a51.69,51.69,0,0,1,6.8-14.35L61,97a37.66,37.66,0,0,1,5.5-5.7,35.13,35.13,0,0,1,5.3-3.75,41.24,41.24,0,0,1,11-4.4l0-.05a48.17,48.17,0,0,0,18.45-10L103.35,71v2.4M16.05,49.2V47a4.54,4.54,0,0,1,2.15-3.7l8-4.65H31A37.87,37.87,0,0,0,16.05,49.2M75.4,43l3.15.4L79,40.3l-3.2-.45L75.4,43M26.8,88.85l-1,4,4.05,1,1-4-4.05-1m61.35-4.1-1.2,3,2.9,1.2L91.1,86l-2.95-1.25M86.9,90.9l0,4.55H91.5V90.9H86.9m-4.25,2.95L76.5,91.4l-2.45,6.15L80.2,100l2.45-6.1M63,105.7l-2-1-1,2,1.9,1,1.15-2M31.05,88.3l6.55,3.5,3.6-6.65L34.6,81.6l-3.55,6.7M50.55,73l1.05,7,7.1-1.1-1.05-7L50.55,73m8-7V61.4H53.9L54,66H58.5"/><path class="cls-3" d="M58.5,66H54L53.9,61.4h4.6V66M61,19.9l.95.45L73,26.8a37.84,37.84,0,0,0-13.3,11.9l-.45.7a37.38,37.38,0,0,0-2.9,5A58.62,58.62,0,0,0,52.85,53a44.24,44.24,0,0,1-2.4,7l-2,4a36.42,36.42,0,0,1-7.2,9l-.4.35a48.56,48.56,0,0,1-18.2,9.8l.05.05a42.48,42.48,0,0,0-6.65,2.2V84.7l2.45-3-1-1.9-1.45-2.7V49.2A37.87,37.87,0,0,1,31,38.65l1.65-.6,1.75-.6,2.35-.65,0,0,2.8-1Q52.55,31,59.65,21.7L61,19.9m20,11.8,1.4,2.45h1.3l.4.9L80,36.9l-1.75-4,2.65-1.2m11.5,6.45,8.85,5.15a4.26,4.26,0,0,1,1.55,1.6,4.07,4.07,0,0,1,.55,2.1V64.25l-2.1,3.3,2.1,3.1V71L101.2,73.1a48.17,48.17,0,0,1-18.45,10l0,.05a41.24,41.24,0,0,0-11,4.4,35.13,35.13,0,0,0-5.3,3.75A37.66,37.66,0,0,0,61,97l-1.3,1.75a51.69,51.69,0,0,0-6.8,14.35l-.9,3.2-7.25-4.2-4.25-2.5L26,101.15A41.27,41.27,0,0,1,36.35,97l.4-.1,0-.05q13-4,20.7-12.35l1.25-1.4,1-1.3,2.6-3.9,1.1-2,2.15-5.15,1.15-3.85a53.62,53.62,0,0,1,2.6-6.85,40.5,40.5,0,0,1,14.8-17.8A38.27,38.27,0,0,1,90.9,38.7l1.5-.55M103.05,94.5l-.25.5a4.75,4.75,0,0,1-1.55,1.6l-.45.3-1.6.9-7.85,4.6-2.2,1.3L81,108.45l-3.7-.5a38.45,38.45,0,0,1,6.15-5.25,36.38,36.38,0,0,1,6.85-3.65,39.72,39.72,0,0,1,6.1-2l.4-.1,0-.05a65.79,65.79,0,0,0,6.3-2.35M75.8,109.65l-2,3-.55.35c.8-1.17,1.65-2.28,2.55-3.35m-12.9,9.4-1,.55a4.63,4.63,0,0,1-2.2.55h-.4l3.4-1.6.2.5M75.4,43l.4-3.15,3.2.45-.45,3.1L75.4,43M26.8,88.85l4.05,1-1,4-4.05-1,1-4m55.85,5L80.2,100l-6.15-2.4L76.5,91.4l6.15,2.45M86.9,90.9h4.6v4.55H87l0-4.55m1.25-6.15L91.1,86l-1.25,2.9L87,87.7l1.2-3M50.55,73l7.1-1.1,1.05,7L51.6,80l-1.05-7M31.05,88.3l3.55-6.7,6.6,3.55L37.6,91.8l-6.55-3.5m32,17.4-1.15,2-1.9-1,1-2,2,1"/><path class="cls-4" d="M85.9,34.35l3.3-1.05L90.35,37l-4.45-2.6M103.35,63.9l1.3.15-.4,3.7h0l-.65,5.6h-.2v-2.7l-2.1-3.1,2.1-3.3V63.9m-2.55,33,3.2,3.85-4.15,3.35L96.5,100l2.7-2.2,1.6-.9m-30,17.55.65,2L67,118l-.35-1.1,4.15-2.45M17.5,79.8l-3.45,3.7-6.7-6.2,6.2-6.7,2.5,2.3v4.2l1.45,2.7M42.35,31,40,28.8,43.65,25,46,27.15l-2.25,1.3L42.4,31h0M60,9.2l4.9-2.15,2.15,4.8q-2.4,1.1-4.85,2.15L60,9.2m56.25,45-.6,5.3L110.4,59l.5-5.3,5.35.5M5.4,39.7l4.25,3-3.1,4.3L2.3,44,5.4,39.7M5.3,86.5,14.9,89l-2.5,9.65L2.8,96.1l2.5-9.6m19.8,25,4.75-2.2,2.2,4.9-4.8,2.15-2.15-4.85m33.75,11.8,5.2-.85.85,5.25-5.25.8-.8-5.2"/><path class="cls-5" d="M91.35,102.4l.15.55-2.35.75,2.2-1.3M44.7,112.1l1.2,3.7-7.25,2.3-2.25-7.25,4.05-1.25,4.25,2.5M16.05,60.5l-4.25-1L13.9,50l2.15.5v10m13.8-31.15-5.25-.5.55-5.3,5.25.55-.55,5.25m62.35,0L87,28.85l.55-5.3,5.25.55-.55,5.25M109,34.8l5,1.9-1.85,5-5-2,1.9-5m3.1,69.3-5-1.95,1.9-5,5,1.9-1.85,5M77.2,110l9.5,2.15-2.15,9.5-9.45-2.1L77.2,110"/><path class="cls-6" d="M18.05,24.25l-1,.6H17l1.05-.6"/></g></g></svg>