<svg xmlns="http://www.w3.org/2000/svg" viewBox="0 0 120 140"><defs><style>.cls-1{fill:#ecdcb8;}.cls-2{fill:#e5d5b2;}.cls-3{fill:#e0d1af;}.cls-4{fill:#775029;}.cls-5{fill:#bb8044;}.cls-6{fill:#a8733d;}.cls-7{fill:#855b30;}.cls-8{fill-opacity:0.1;}.cls-9{fill:#5b4c3c;}.cls-10{fill:#d8a36d;}.cls-11{fill:#be9060;}.cls-12{fill:#d9d9d9;}.cls-13{fill:#a07a50;}.cls-14{fill:#266030;}.cls-15{fill:#348442;}.cls-16{fill:#449d54;}.cls-17{fill:#3d8e4b;}.cls-18{fill:#95724a;}.cls-19{fill:#515151;}.cls-20{fill:#27ae60;}.cls-21{fill:#1a7741;}.cls-22{fill:#2bc46c;}.cls-23{fill:#c4f0ff;}</style></defs><title>Asset 150</title><g id="Layer_2" data-name="Layer 2"><g id="Layer_1-2" data-name="Layer 1"><path class="cls-1" d="M48.3,19,49,23.3l4.35-.7-.7-4.35L48.3,19M18.35,24.3l27.5-16h0L60,0l60,35v70L60,140,0,105V35L17.25,25l.05-.05h.05l1-.6M21.45,41l3.2-2.6L22.1,35.1l-3.25,2.6L21.45,41M12.1,48l-.85-2.05-2,.9.85,2.1,2-.95m5.35-6.8L14.6,37.4l-3.75,2.8L13.6,44l3.85-2.8m19.6-4.3Q17.9,41.61,9.5,60.1A60.49,60.49,0,0,0,6.85,67L6,69.9v22a39.28,39.28,0,0,1,17-8.7l-.05,0q18-5.55,25.8-19.1l2-3.95a44.24,44.24,0,0,0,2.4-7.05A51.77,51.77,0,0,1,60,38.75,38.37,38.37,0,0,1,83.1,23.1l0-.05,2.8-.9L65.9,10.5a44.83,44.83,0,0,1-3.35,7.35L60,21.75q-7.85,10.35-23,15l0,.05M58.8,61.45H54.2l0,4.55H58.8V61.45m20-18,.45-3.1-3.2-.45-.4,3.15,3.15.4m3.7-12.35c-1.33.63-2.67,1.25-4,1.85l1.75,4,4-1.85-1.75-4M67,67a43.55,43.55,0,0,1-4.4,11L60,81.85Q52.11,92.2,37,96.9l0,0a39,39,0,0,0-19.6,11.2l30.3,17.65,1-1.7,2-3.95a42.65,42.65,0,0,0,2.4-7A51.69,51.69,0,0,1,60,98.8,38.43,38.43,0,0,1,83.1,83.2l0,0q18-5.55,25.75-19.1l2-3.95a39,39,0,0,0,2.4-7.05l.8-2.35V42a5.83,5.83,0,0,0-3-5.15h0l-5.65-3.3a61.49,61.49,0,0,1-8.35,3.25l0,.05Q77.94,41.61,69.55,60.1A53.62,53.62,0,0,0,67,67M63,118.6l-4,1.85,1.75,4,4-1.85-1.75-4m-1.7-13.85-1,2,1.9,1,1.15-2-2-1M34.9,81.65l-3.55,6.7,6.55,3.5,3.6-6.65-6.6-3.55M27.1,88.9l-1,4,4,1,1-4.05-4-.95m60.1,2,0,4.55H91.8V91H87.2m-10.4.5L74.35,97.6,80.5,100,83,93.9,76.8,91.45m14.6-5.4-3-1.25-1.2,3,2.9,1.2,1.25-2.9m-39.5-6L59,79l-1-7-7.1,1.1,1,7M66.3,129.3l44.75-26.1h0a6.35,6.35,0,0,0,2.2-2.2,5.89,5.89,0,0,0,.8-3v-10a49.44,49.44,0,0,1-17,8.8l0,0q-19.15,4.76-27.55,23.2A53.62,53.62,0,0,0,67,127l-.65,2.3m46.2-50.5.75-6.55-6.55-.8-.75,6.6,6.55.75"/><path class="cls-2" d="M112.5,78.8,106,78.05l.75-6.6,6.55.8-.75,6.55M48.3,19l4.35-.7.7,4.35L49,23.3,48.3,19M17.45,41.15,13.6,44,10.85,40.2l3.75-2.8,2.85,3.75M12.1,48l-2,.95-.85-2.1,2-.9L12.1,48m9.35-7-2.6-3.25,3.25-2.6,2.55,3.25L21.45,41m15.6-4.1,0-.05q15.11-4.69,23-15l2.6-3.9A44.83,44.83,0,0,0,65.9,10.5L85.85,22.15l-2.8.9,0,.05A38.37,38.37,0,0,0,60,38.75a51.77,51.77,0,0,0-6.8,14.3,44.24,44.24,0,0,1-2.4,7.05l-2,3.95Q40.95,77.6,23,83.15l.05,0A39.28,39.28,0,0,0,6,91.9v-22l.85-3A60.49,60.49,0,0,1,9.5,60.1q8.4-18.49,27.55-23.25m45.5-5.75,1.75,4L80.3,37l-1.75-4c1.33-.6,2.67-1.22,4-1.85m-3.7,12.35-3.15-.4.4-3.15,3.2.45-.45,3.1m-20,18V66H54.25l0-4.55h4.6M67,67a53.62,53.62,0,0,1,2.6-6.85Q78,41.61,97.1,36.85l0-.05a61.49,61.49,0,0,0,8.35-3.25l5.65,3.3h0A5.83,5.83,0,0,1,114,42v8.7l-.8,2.35a39,39,0,0,1-2.4,7.05l-2,3.95Q101,77.6,83.05,83.15l0,0A38.43,38.43,0,0,0,60,98.8a51.69,51.69,0,0,0-6.8,14.35,42.65,42.65,0,0,1-2.4,7l-2,3.95-1,1.7-30.3-17.65A39,39,0,0,1,37.05,97l0,0q15.11-4.7,23-15.05l2.6-3.9A43.55,43.55,0,0,0,67,67M51.9,80.05l-1-7L58,72l1,7-7.1,1.1m39.5,6L90.15,89l-2.9-1.2,1.2-3,3,1.25m-14.6,5.4L83,93.9,80.5,100l-6.15-2.4,2.45-6.15M87.2,91h4.6V95.5H87.25l0-4.55m-60.1-2,4,.95-1,4.05-4-1,1-4m7.8-7.25,6.6,3.55-3.6,6.65-6.55-3.5,3.55-6.7m26.4,23.1,2,1-1.15,2-1.9-1,1-2M63,118.6l1.75,4-4,1.85-1.75-4,4-1.85m3.3,10.7L67,127a53.62,53.62,0,0,1,2.6-6.85Q78,101.7,97.1,97l0,0a49.44,49.44,0,0,0,17-8.8v10a5.89,5.89,0,0,1-.8,3,6.35,6.35,0,0,1-2.2,2.2h0L66.3,129.3"/><path class="cls-3" d="M17.3,24.9l1.05-.6-1,.6H17.3"/><path class="cls-4" d="M44,38.6l-.9.55-1.2,0L41,38.75,33.25,47.9v2.65L33,51.6l-.25.3L31,54a2.24,2.24,0,0,1-1.1.6L28.6,54.4,26,53.1l-.85-.75a2,2,0,0,1-.3-1.05V41.65a1.93,1.93,0,0,1,.55-1.35l1.9-2.1a1.67,1.67,0,0,1,1.1-.6h.85l8.7-10V26.2a1.89,1.89,0,0,1,.5-1.3L40,23.05l1-.65,1.2.1,2.6,1.05a1.72,1.72,0,0,1,.9.75,1.89,1.89,0,0,1,.35,1.1v10l-.45,1.3L44.1,38.5l-.15.1M39.9,28.3,29.7,40.05l-1-.5-1.9,2.1V51.3l2.65,1.3,1.8-2.05v-3.4L42,34.45,40.45,36.4l2.1.8,1.55-1.85v-10l-2.6-1L39.9,26.2v2.1"/><path class="cls-5" d="M39.9,28.3l2.65,1.05L31.25,42.7V40.85l-1.8,1.85L26.8,41.65l1.9-2.1,1,.5L39.9,28.3m0-2.1,1.6-1.85,2.6,1-1.55,2.1L39.9,26.2"/><path class="cls-6" d="M26.8,41.65l2.65,1.05v9.9L26.8,51.3V41.65m15.75-12.3L39.9,28.3V26.2l2.65,1.3v1.85m0,7.85-2.1-.8L42,34.45l.55-.65v3.4"/><path class="cls-7" d="M42.55,37.2V33.8l-.55.65L31.25,47.15v3.4l-1.8,2.05V42.7l1.8-1.85V42.7l11.3-13.35V27.5l1.55-2.1v10L42.55,37.2"/><path class="cls-8" d="M44,38.6l-11,13,.25-1.05V47.9L41,38.75l.85.35,1.2,0,.9-.55"/><path class="cls-9" d="M39.4,48.9V36.7a1.89,1.89,0,0,1,.5-1.3l3-3.5a1.87,1.87,0,0,1,1.1-.65l1.25.15,3.25,1.5,3.25-1.6.85-.2.85.2.1.05.55,2.45-1.5-.7-4.1,2-4.1-1.9-3,3.5V49.45l-2-.55M93.6,38.55l.2.2a2.07,2.07,0,0,1,.5,1.35v19a2,2,0,0,1-.45,1.3l-30.3,35.8a2.11,2.11,0,0,1-1.1.65l-1.3-.1L29.85,82.2l-.8-.75a1.89,1.89,0,0,1-.35-1.1V77.9a1.89,1.89,0,0,1,.5-1.3l4.85-5.75V58.4a1.65,1.65,0,0,1,.25-.9l1.8.85-.05,0V71.6L30.7,77.9v2.45L62,95l30.3-35.8v-19l1.3-1.55M39.1,62.3l2.3,1.05V65.3l-2.3,2.75V62.3"/><path class="cls-10" d="M41.4,36.7l3-3.5,4.1,1.9-3,3.5-4.1-1.9m11.15-3.6,1.5.7,9.6,4.5,3.8,1.75,4,5.85,4.1,1.9-3,3.5-4-1.9-4.1-5.85-15-7,3-3.45M30.7,77.9l5.35-6.3,1.85.9,1.2-1.4v-3l2.3-2.75L53.65,71l6.75,3.15,5.05,2.4v8.8l1.85.9L62,92.55,30.7,77.9m41.9,2-4.1,4.95V78l4.1,2M50.05,71.35l-3.3-1.6-5.35,6.3,3.5,1.65,5.15-6.35m-6.3,9.85,3.5,1.65L52.4,76.5l-3.3-1.6-5.35,6.3"/><path class="cls-11" d="M43.75,81.2l5.35-6.3,3.3,1.6-5.15,6.35-3.5-1.65M41.4,49.45V36.7l4.1,1.9,4-2.05,15,7,4.1,5.85,4,1.9V64.1L41.4,49.45m2.35-9.8V44.2l26.5,12.4V52.05l-2.8-1.3-4.1-5.85L50.7,39l-4.1,2-2.85-1.35M62,95,30.7,80.35V77.9L62,92.55V95M36.05,71.6V58.4L67.3,73.05v13.2l-1.85-.9v-8.8l-5.05-2.4v-1.9l-6.75-3.2v2L41.4,65.3V63.35L39.1,62.3l-1.2-.55V72.5l-1.85-.9M72.6,79.9l-4.1-2V73.5l4.1-7V79.9M50.05,71.35,44.9,77.7l-3.5-1.65,5.35-6.3,3.3,1.6"/><path class="cls-12" d="M43.75,39.65,46.6,41l4.1-2L63.35,44.9l4.1,5.85,2.8,1.3V56.6L43.75,44.2V39.65"/><path class="cls-13" d="M48.45,35.1l4.1-2-3,3.45-4,2.05,3-3.5M88.15,56l-6,7.1v3.75l6-7.1V56M72.6,64.1V51.3l3-3.5V59.85L92.3,40.1v19L62,95v-2.4l5.3-6.3V73.05l5.3-9M68.5,78v6.9l4.1-4.95V66.5l-4.1,7V78M37.9,72.5V61.75l1.2.55v8.8l-1.2,1.4"/><path class="cls-14" d="M53.5,31.35l6.1-7.15a1.8,1.8,0,0,1,1.2-.65L76.35,21l1,.05a1.77,1.77,0,0,1,.85.55L93.6,38.55,92.3,40.1,76.65,23,61.1,25.5l-7.05,8.3-.55-2.45M34.3,57.5l.05-.1,5-8.5,2,.55-5.3,8.9-1.8-.85"/><path class="cls-15" d="M54.05,33.8l7.05-8.3L76.65,23l-13,15.35-9.6-4.5"/><path class="cls-16" d="M76.65,23,92.3,40.1,75.6,59.85V47.8l-4.1-1.9-4-5.85-3.8-1.75L76.65,23m0,7.3-2.7,3,4,4.3,2.55-3L76.7,30.25m3,11L75.8,37l-2.7,3,4,4.3,2.55-3M36.05,58.4l.05,0,5.3-8.9L72.6,64.1l-5.3,9L36.05,58.4"/><path class="cls-17" d="M79.65,41.2l-2.55,3-4-4.3,2.7-3,3.85,4.25m-3-11,3.85,4.25-2.55,3-4-4.3,2.7-3"/><path class="cls-18" d="M88.15,56v3.75l-6,7.1V63.1l6-7.1"/><path class="cls-19" d="M53.65,71v-2l6.75,3.2v1.9L53.65,71"/><path class="cls-8" d="M89.8,86.7A12.22,12.22,0,0,1,96,88.15q2.55,1.5,2.55,3.55c0,1.37-.85,2.53-2.55,3.5a13.36,13.36,0,0,1-12.3,0c-1.7-1-2.55-2.13-2.55-3.5s.85-2.55,2.55-3.55A12.22,12.22,0,0,1,89.8,86.7"/><path class="cls-20" d="M86.1,80.6V68.65a3.5,3.5,0,0,1,3.45-3.45,3.21,3.21,0,0,1,2.4,1,3.27,3.27,0,0,1,1,2.4v9.2l.85.05.15-.1,0-.15v-5.3a1.91,1.91,0,0,1,.65-1.45,2.05,2.05,0,0,1,3.5,1.45v5.3a4.34,4.34,0,0,1-1.25,3.1h-.05a4.16,4.16,0,0,1-3,1.25H93v7.65a1.88,1.88,0,0,1-1,1.6,4.35,4.35,0,0,1-2.4.65,4.43,4.43,0,0,1-2.45-.65,1.88,1.88,0,0,1-1-1.6v-4.9h.45A1.91,1.91,0,0,0,88,84.1a2,2,0,0,0,.6-1.45A1.91,1.91,0,0,0,88,81.2a2,2,0,0,0-1.45-.6h-.4"/><path class="cls-21" d="M86.1,84.75v4.9a1.88,1.88,0,0,0,1,1.6,4.43,4.43,0,0,0,2.45.65,4.35,4.35,0,0,0,2.4-.65,1.88,1.88,0,0,0,1-1.6V82h.85a4.16,4.16,0,0,0,3-1.25h.05a4.34,4.34,0,0,0,1.25-3.1v-5.3a2.05,2.05,0,0,0-3.5-1.45A1.91,1.91,0,0,0,94,72.35v5.3l0,.15-.15.1L93,77.85v-9.2a3.27,3.27,0,0,0-1-2.4,3.21,3.21,0,0,0-2.4-1,3.5,3.5,0,0,0-3.45,3.45V80.6l-.45.05-.15-.05v0l-.1-.15V75.15a2,2,0,0,0-.6-1.5,2.05,2.05,0,0,0-2.9,0,2,2,0,0,0-.6,1.5V80.4a4.27,4.27,0,0,0,4.35,4.35h.45m-.4-19.9a5.18,5.18,0,0,1,3.85-1.65,5.12,5.12,0,0,1,3.85,1.7v-.05A5.14,5.14,0,0,1,95,68.35h.75l.4,0A4,4,0,0,1,99,69.5a3.87,3.87,0,0,1,1.15,2.85v5.3a6.33,6.33,0,0,1-1.8,4.5l-.25.25A6.41,6.41,0,0,1,95,83.9v5.75a3.67,3.67,0,0,1-1.9,3.3,6.27,6.27,0,0,1-3.5,1A6.37,6.37,0,0,1,86,93a3.67,3.67,0,0,1-1.9-3.3V86.6A6.1,6.1,0,0,1,81.2,85l-.1,0a6.33,6.33,0,0,1-1.8-4.5V75.15a3.85,3.85,0,0,1,1.2-2.9,3.8,3.8,0,0,1,2.85-1.2l.6,0,.15.05v-2.5a5.11,5.11,0,0,1,1.55-3.75l0-.05"/><path class="cls-22" d="M86.1,80.6h.4a2,2,0,0,1,1.45.6,1.91,1.91,0,0,1,.65,1.45A2,2,0,0,1,88,84.1a1.91,1.91,0,0,1-1.45.65h-.9A4.27,4.27,0,0,1,81.3,80.4V75.15a2,2,0,0,1,.6-1.5,2.05,2.05,0,0,1,2.9,0,2,2,0,0,1,.6,1.5V80.4l.1.15v0l.15.05.45-.05"/><path class="cls-4" d="M42.25,91.1l28.6,13.4a2,2,0,0,1,1.1,2.25l-1.15,4.9-.4.85-4,4.8-1.1.65L64,117.8,35.35,104.4l-1-.9-1.1-2.25a1.9,1.9,0,0,1-.15-1.15,1.72,1.72,0,0,1,.45-1l6.3-7.45A1.87,1.87,0,0,1,41,91l1.25.15m-7.15,9.25,1.1,2.25L64.85,116l4-4.8L70,106.3,41.4,92.9l-6.3,7.45"/><path class="cls-6" d="M35.1,100.35l28.6,13.4L70,106.3l-1.15,4.9-4,4.8L36.2,102.6l-1.1-2.25"/><path class="cls-23" d="M66.8,106.85,63,111.35,38.3,99.8l3.8-4.5,24.7,11.55"/><path class="cls-5" d="M66.8,106.85,42.1,95.3l-3.8,4.5L63,111.35l3.85-4.5m-31.7-6.5,6.3-7.45L70,106.3l-6.3,7.45-28.6-13.4"/><path class="cls-8" d="M14.15,69.25a9.74,9.74,0,0,1,5-1.2,10,10,0,0,1,5.05,1.2,3.08,3.08,0,0,1,0,5.8,10,10,0,0,1-5.05,1.2,9.74,9.74,0,0,1-5-1.2c-1.4-.8-2.1-1.77-2.1-2.9s.7-2.1,2.1-2.9"/><path class="cls-21" d="M15.85,62.55l-.45.35A5.1,5.1,0,0,0,19,71.6a5.09,5.09,0,0,0,3.6-8.7,4.57,4.57,0,0,0-.8-.65l.05-.75a3.11,3.11,0,0,0-5.3-2.2,3,3,0,0,0-.9,2.2l.2,1m8-1.25.2.2a6.79,6.79,0,0,1,2.05,5A7,7,0,0,1,19,73.6a6.79,6.79,0,0,1-5-2,7.15,7.15,0,0,1-.35-9.75v-.3a5.12,5.12,0,0,1,5.1-5.1,5,5,0,0,1,3.65,1.5,4.81,4.81,0,0,1,1.45,3.4"/><path class="cls-22" d="M15.85,62.55l-.2-1A3.11,3.11,0,0,1,21,59.3a3,3,0,0,1,.9,2.2l-.05.75L21,63.7a3.14,3.14,0,0,1-4.4,0l-.7-1.15"/><path class="cls-20" d="M15.85,62.55l.7,1.15a3.14,3.14,0,0,0,4.4,0l.85-1.45a4.57,4.57,0,0,1,.8.65A5.1,5.1,0,0,1,19,71.6a5.09,5.09,0,0,1-3.6-8.7l.45-.35"/></g></g></svg>