<svg xmlns="http://www.w3.org/2000/svg" viewBox="0 0 120 140"><defs><style>.cls-1{fill:#ecdcb8;}.cls-2{fill:#e5d5b2;}.cls-3{fill:#e0d1af;}.cls-4{fill:#775029;}.cls-5{fill:#bb8044;}.cls-6{fill:#855b30;}.cls-7{fill:#c68848;}.cls-8{fill:#5a6b6b;}.cls-9{fill:#a8733d;}.cls-10{fill:#af783f;}.cls-11{fill:#cd8c4a;}</style></defs><title>Asset 59</title><g id="Layer_2" data-name="Layer 2"><g id="Layer_1-2" data-name="Layer 1"><path class="cls-1" d="M18.35,24.3l27.5-16h0L60,0l60,35v70L60,140,0,105V35L17.25,25l.05-.05h.05l1-.6M97.1,36.85Q77.94,41.61,69.55,60.1A53.62,53.62,0,0,0,67,67a43.55,43.55,0,0,1-4.4,11L60,81.85Q52.11,92.2,37,96.9l0,0a39,39,0,0,0-19.6,11.2l30.3,17.65,1-1.7,2-3.95a42.65,42.65,0,0,0,2.4-7A51.69,51.69,0,0,1,60,98.8,38.43,38.43,0,0,1,83.1,83.2l0,0q18-5.55,25.75-19.1l2-3.95a39,39,0,0,0,2.4-7.05l.8-2.35V42a5.83,5.83,0,0,0-3-5.15h0l-5.65-3.3a61.49,61.49,0,0,1-8.35,3.25l0,.05M90.15,89l1.25-2.9-3-1.25-1.2,3,2.9,1.2M112.5,78.8l.75-6.55-6.55-.8-.75,6.6,6.55.75M97.1,97q-19.15,4.76-27.55,23.2A53.62,53.62,0,0,0,67,127l-.65,2.3,44.75-26.1h0a6.35,6.35,0,0,0,2.2-2.2,5.89,5.89,0,0,0,.8-3v-10a49.44,49.44,0,0,1-17,8.8l0,0M91.8,95.5V91H87.2l0,4.55H91.8m-6-73.35L65.9,10.5a44.83,44.83,0,0,1-3.35,7.35L60,21.75q-7.85,10.35-23,15l0,.05Q17.9,41.61,9.5,60.1A60.49,60.49,0,0,0,6.85,67L6,69.9v22a39.28,39.28,0,0,1,17-8.7l-.05,0q18-5.55,25.8-19.1l2-3.95a44.24,44.24,0,0,0,2.4-7.05A51.77,51.77,0,0,1,60,38.75,38.37,38.37,0,0,1,83.1,23.1l0-.05,2.8-.9M64.75,122.6l-1.75-4-4,1.85,1.75,4,4-1.85m9.6-25L80.5,100,83,93.9,76.8,91.45,74.35,97.6m-13,7.15-1,2,1.9,1,1.15-2-2-1M50.85,73.05l1,7L59,79l-1-7-7.1,1.1m7.95-7V61.45H54.2l0,4.55H58.8M37.9,91.85l3.6-6.65-6.6-3.55-3.55,6.7,6.55,3.5M27.1,88.9l-1,4,4,1,1-4.05-4-.95m-15.85-43-2,.9.85,2.1,2-.95-.85-2.05m3.35-8.5-3.75,2.8L13.6,44l3.85-2.8L14.6,37.4m4.25.3L21.45,41l3.2-2.6L22.1,35.1l-3.25,2.6M75.7,43.05l3.15.4.45-3.1-3.2-.45-.4,3.15M53.35,22.6l-.7-4.35L48.3,19,49,23.3l4.35-.7m29.2,8.5-4,1.85,1.75,4,4-1.85-1.75-4"/><path class="cls-2" d="M82.55,31.1l1.75,4L80.3,37l-1.75-4,4-1.85M97.1,36.85l0-.05a61.49,61.49,0,0,0,8.35-3.25l5.65,3.3h0A5.83,5.83,0,0,1,114,42v8.7l-.8,2.35a39,39,0,0,1-2.4,7.05l-2,3.95Q101,77.6,83.05,83.15l0,0A38.43,38.43,0,0,0,60,98.8a51.69,51.69,0,0,0-6.8,14.35,42.65,42.65,0,0,1-2.4,7l-2,3.95-1,1.7-30.3-17.65A39,39,0,0,1,37.05,97l0,0q15.11-4.7,23-15.05l2.6-3.9A43.55,43.55,0,0,0,67,67a53.62,53.62,0,0,1,2.6-6.85Q78,41.61,97.1,36.85M112.5,78.8,106,78.05l.75-6.6,6.55.8-.75,6.55M90.15,89l-2.9-1.2,1.2-3,3,1.25L90.15,89m6.95,8,0,0a49.44,49.44,0,0,0,17-8.8v10a5.89,5.89,0,0,1-.8,3,6.35,6.35,0,0,1-2.2,2.2h0L66.3,129.3,67,127a53.62,53.62,0,0,1,2.6-6.85Q78,101.7,97.1,97M91.8,95.5H87.25l0-4.55h4.6V95.5m-6-73.35-2.8.9,0,.05A38.37,38.37,0,0,0,60,38.75a51.77,51.77,0,0,0-6.8,14.3,44.24,44.24,0,0,1-2.4,7.05l-2,3.95Q40.95,77.6,23,83.15l.05,0A39.28,39.28,0,0,0,6,91.9v-22l.85-3A60.49,60.49,0,0,1,9.5,60.1q8.4-18.49,27.55-23.25l0-.05q15.11-4.69,23-15l2.6-3.9A44.83,44.83,0,0,0,65.9,10.5L85.85,22.15m-32.5.45L49,23.3,48.3,19l4.35-.7.7,4.35M75.7,43.05l.4-3.15,3.2.45-.45,3.1-3.15-.4M18.85,37.7l3.25-2.6,2.55,3.25L21.45,41l-2.6-3.25m-4.25-.3,2.85,3.75L13.6,44,10.85,40.2l3.75-2.8m-3.35,8.5L12.1,48l-2,.95-.85-2.1,2-.9m15.85,43,4,.95-1,4.05-4-1,1-4m10.8,2.95-6.55-3.5,3.55-6.7,6.6,3.55-3.6,6.65M58.8,66H54.25l0-4.55h4.6V66m-7.95,7L58,72l1,7-7.1,1.1-1-7m10.45,31.7,2,1-1.15,2-1.9-1,1-2m13-7.15,2.45-6.15L83,93.9,80.5,100l-6.15-2.4m-9.6,25-4,1.85-1.75-4,4-1.85,1.75,4"/><path class="cls-3" d="M17.3,24.9l1.05-.6-1,.6H17.3"/><path class="cls-4" d="M51.3,47.75,49,44.45l-1.15-8.3L46.2,33.9l-7.55-.2-2,2.35L34.2,49.25,31.4,52.6,29.65,65.4l5.8,8,12.2.4,6.55-7.7L51.3,47.75m-.45-4L53,46.6l.35.85L56.2,65.8l-.05.85-.4.75L49.2,75.1l-.75.55-.85.15-12.2-.4-.85-.2-.7-.6-5.8-8a1.82,1.82,0,0,1-.35-1.45l1.75-12.8a1.52,1.52,0,0,1,.45-1l2.4-3,2.4-12.7a2,2,0,0,1,.45-1l2-2.35.7-.5.85-.2,7.55.2.9.25.7.6L49.45,35l.35.9,1.05,7.8"/><path class="cls-5" d="M36.65,36.05l2-2.35,7.55.2,1.6,2.25L49,44.45l2.35,3.3-2.4,2.8-7.45-1.1.15-9.2-5-4.2M31.4,52.6l2.8-3.35,6.9,5.9,8.6,1.4-.15.15-.1,0v0l-.05.05,0,0-2.5,3-10.5-.3-5-6.95"/><path class="cls-6" d="M51.3,47.75,54.2,66.1l-6.55,7.7-.8-13.95,2.5-3,.1,0v-.1l.1,0,.15-.15v0l-.8-6,2.4-2.8"/><path class="cls-7" d="M47.65,73.8l-12.2-.4.9-13.85,10.5.3.8,13.95m-6.2-24.35,7.45,1.1.8,6v0l-8.6-1.4.35-5.7"/><path class="cls-8" d="M49.4,56.85h.05l-.1,0,0,0"/><path class="cls-9" d="M35.45,73.4l-5.8-8L31.4,52.6l5,6.95-.9,13.85M34.2,49.25l2.45-13.2,5,4.2-.15,9.2-.35,5.7-6.9-5.9"/><path class="cls-6" d="M62.15,105.8,71.7,94.4,67.2,81.7,64.65,66.55,59.8,59.7l-10.45-.25L46.6,62.7l-2.85,14L40.2,81,35.7,93.4l8.4,11.9,18,.5M60.75,58l.7.6L66.3,65.4l.35.85,2.5,15,4.45,12.5.1,1-.45,1L63.7,107.1l-.7.55-.9.15-18.05-.5-.9-.2-.65-.65-8.4-11.9-.35-.85a1.54,1.54,0,0,1,.1-1l4.5-12.4.3-.6,3.25-4,2.75-13.5a2,2,0,0,1,.45-.9l2.75-3.25.7-.5.85-.2,10.45.25.9.25"/><path class="cls-10" d="M43.75,76.7l2.85-14L54,69.35l-.65,16-9.6-8.6m20.9-10.15L67.2,81.7l4.5,12.7-9.55,11.4-2.1-15.55,3.6-4.2L61.9,69.8l2.75-3.25M44.1,105.3,35.7,93.4,40.2,81l6.25,8.85L44.1,105.3"/><path class="cls-5" d="M46.6,62.7l2.75-3.25,10.45.25,4.85,6.85L61.9,69.8l1.75,16.25-3.6,4.2-13.6-.4L40.2,81l3.55-4.3,9.6,8.6.65-16L46.6,62.7"/><path class="cls-11" d="M62.15,105.8l-18-.5,2.35-15.45,13.6.4,2.1,15.55"/><path class="cls-6" d="M90,35.15l2,11.3a2,2,0,0,1-.3,1.4,2.12,2.12,0,0,1-1.1.9l-8.9,2.7h-1l-.9-.5-7-6.65-.5-.75-.15-.85.45-5.1A1.79,1.79,0,0,1,73,36.5l1-.65,4.6-1.5.25-.05,4.8-.85.4-.05,4.1.1a1.82,1.82,0,0,1,1.25.5,2,2,0,0,1,.7,1.15M90,46.8,88,35.5l-4.1-.1-4.8.85-4.6,1.5-.45,5.1,7,6.65L90,46.8"/><path class="cls-10" d="M90,46.8l-5.25-6.75L83.9,35.4l4.1.1,2,11.3m-16-3.95.45-5.1,4.6-1.5-.1,1-5,5.6"/><path class="cls-5" d="M74.05,42.85l5-5.6.1-1,4.8-.85.85,4.65-2.1.65L81.1,49.5l-7-6.65"/><path class="cls-11" d="M90,46.8l-8.9,2.7,1.55-8.8,2.1-.65L90,46.8"/></g></g></svg>