<svg xmlns="http://www.w3.org/2000/svg" xmlns:xlink="http://www.w3.org/1999/xlink" viewBox="0 0 120 140"><defs><style>.cls-1{fill:#27ae60;}.cls-2{fill:url(#linear-gradient);}.cls-3{fill:url(#linear-gradient-2);}.cls-4{fill:url(#linear-gradient-3);}.cls-5{fill:url(#linear-gradient-4);}.cls-6{fill:url(#linear-gradient-5);}.cls-7{fill:url(#linear-gradient-6);}.cls-8{fill:url(#linear-gradient-7);}.cls-9{fill:url(#linear-gradient-8);}.cls-10{fill:url(#linear-gradient-9);}.cls-11{fill:url(#linear-gradient-10);}.cls-12{fill:url(#linear-gradient-11);}.cls-13{fill:url(#linear-gradient-12);}.cls-14{fill:url(#linear-gradient-13);}.cls-15{fill:url(#linear-gradient-14);}.cls-16{fill:url(#linear-gradient-15);}.cls-17{fill:#115f32;}.cls-18{fill:#168344;}.cls-19{fill:#10773c;}.cls-20{fill:#1b914d;}</style><linearGradient id="linear-gradient" x1="-2249.2" y1="26.2" x2="-610.8" y2="26.2" gradientTransform="matrix(0, 0, 0, 0, 61.07, 20.5)" gradientUnits="userSpaceOnUse"><stop offset="0" stop-color="#27ae60"/><stop offset="1" stop-color="#30c26d"/></linearGradient><linearGradient id="linear-gradient-2" x1="-2249.2" y1="37.68" x2="-610.8" y2="37.68" gradientTransform="matrix(0, 0, 0, 0, 50.84, 30.67)" xlink:href="#linear-gradient"/><linearGradient id="linear-gradient-3" x1="-2249.2" y1="54.18" x2="-610.8" y2="54.18" gradientTransform="matrix(0, 0, 0, 0, 42.17, 48.45)" xlink:href="#linear-gradient"/><linearGradient id="linear-gradient-4" x1="-2249.2" y1="48.02" x2="-610.8" y2="48.02" gradientTransform="matrix(0, 0, 0, 0, 65.99, 41.18)" xlink:href="#linear-gradient"/><linearGradient id="linear-gradient-5" x1="-2249.2" y1="49.52" x2="-610.8" y2="49.52" gradientTransform="matrix(0, 0, 0, 0, 17.34, 42.68)" xlink:href="#linear-gradient"/><linearGradient id="linear-gradient-6" x1="-2249.2" y1="62.42" x2="-610.8" y2="62.42" gradientTransform="matrix(0, 0, 0, 0, 29.72, 56.7)" xlink:href="#linear-gradient"/><linearGradient id="linear-gradient-7" x1="-2249.2" y1="102.17" x2="-610.8" y2="102.17" gradientTransform="matrix(0, 0, 0, 0, 19.59, 95.33)" xlink:href="#linear-gradient"/><linearGradient id="linear-gradient-8" x1="-2249.2" y1="89.17" x2="-610.8" y2="89.17" gradientTransform="matrix(0, 0, 0, 0, 74.67, 83.45)" xlink:href="#linear-gradient"/><linearGradient id="linear-gradient-9" x1="-2249.2" y1="106.58" x2="-610.8" y2="106.58" gradientTransform="matrix(0, 0, 0, 0, 61.84, 99.73)" xlink:href="#linear-gradient"/><linearGradient id="linear-gradient-10" x1="-2249.2" y1="30.38" x2="-610.8" y2="30.38" gradientTransform="matrix(0, 0, 0, 0, 95.07, 24.65)" xlink:href="#linear-gradient"/><linearGradient id="linear-gradient-11" x1="-2249.2" y1="81.92" x2="-610.8" y2="81.92" gradientTransform="matrix(0, 0, 0, 0, 88.17, 76.2)" xlink:href="#linear-gradient"/><linearGradient id="linear-gradient-12" x1="-2249.2" y1="98.08" x2="-610.8" y2="98.08" gradientTransform="matrix(0, 0, 0, 0, 110.57, 92.35)" xlink:href="#linear-gradient"/><linearGradient id="linear-gradient-13" x1="-2249.2" y1="121.33" x2="-610.8" y2="121.33" gradientTransform="matrix(0, 0, 0, 0, 77.44, 114.48)" xlink:href="#linear-gradient"/><linearGradient id="linear-gradient-14" x1="-2249.2" y1="119.17" x2="-610.8" y2="119.17" gradientTransform="matrix(0, 0, 0, 0, 62.07, 113.45)" xlink:href="#linear-gradient"/><linearGradient id="linear-gradient-15" x1="-2249.2" y1="116.92" x2="-610.8" y2="116.92" gradientTransform="matrix(0, 0, 0, 0, 49.84, 110.08)" xlink:href="#linear-gradient"/></defs><title>Asset 12</title><g id="Layer_2" data-name="Layer 2"><g id="Layer_1-2" data-name="Layer 1"><path class="cls-1" d="M49.7,115.1l-.2-.2h-.35l-2.8,1-2-2.85a.3.3,0,0,0-.25-.15l-.25,0-.25.15-.1.25-.35,3.5-1.7.35-.25.1-.05.1,0,.2v.25h0L42.6,121h6l1.6-1,.15-.15,0-.15,0-.3-.3-.25-1.5-.4,1.2-3.15v-.35l0-.05M58,23.25,57.85,23l-.3-.1-.3.15-.15.25-.8,4.1L55.05,27l-.3.05-.25.2v.45l.7,1.8h4.85l.9-3.1v-.35l-.25-.2h-.35L59,26.4l-1-3.15M43,35.65l-.2.2,0,0v.35L44,39.35l-1.55.45-.25.2-.1.35.1.1.1.15,1.6,1.1h6l1.45-3.15.05,0,0-.25-.1-.15,0-.1L51,37.85l-1.65-.3-.4-3.5-.1-.25-.25-.15h-.25l-.25.15-2,2.85-2.85-1H43M39,50.9l-.3.1a.3.3,0,0,0-.15.25l-1,3.15-1.35-.55h-.35L35.6,54v0l-.05.35,1,3.05h4.85l.7-1.8V55.2L41.8,55h-.3l-1.25.4-.85-4.15L39.25,51,39,50.9M65.65,46H65.3l-2.8,1-2-2.85-.25-.15L60,44l-.25.15-.1.25-.35,3.5-1.7.35-.25.1-.05.1,0,.2v.25h0l1.45,3.15h6l1.6-1,.15-.15,0-.15,0-.3-.3-.25-1.5-.4,1.2-3.15v-.35l-.05,0-.2-.2M8.7,49.85l0,.1-.05.2v.25h.05l1.45,3.15h6l1.6-1,.15-.15,0-.15,0-.3-.3-.25-1.5-.4,1.2-3.15v-.35l-.05,0-.2-.2h-.35l-2.8,1-2-2.85a.3.3,0,0,0-.25-.15l-.25,0-.25.15-.1.25-.35,3.5L9,49.75l-.25.1m14.45,12.4v0l0,.35.95,3.05H28.9l.7-1.8v-.45l-.25-.2h-.3l-1.25.4L27,59.5l-.15-.25-.25-.1-.3.1-.15.25-1,3.15-1.35-.55H23.4l-.25.15M11.2,102.4l-.25.1,0,.1-.05.2v.25h.05l1.45,3.15h6l1.6-1,.15-.15,0-.15,0-.3-.3-.25-1.5-.4,1.2-3.15v-.35l-.05-.05-.2-.2H18.9l-2.8,1-2-2.85a.3.3,0,0,0-.25-.15l-.25,0-.25.15-.1.25-.35,3.5-1.7.35M71.5,85.9l-.3.1-.15.25-1,3.15-1.35-.55h-.35a.3.3,0,0,0-.25.15v0l0,.35,1,3h4.85l.7-1.8V90.2L74.3,90H74l-1.25.4-.85-4.15L71.75,86l-.25-.1m-9.8,18.85-.2-.2h-.35l-2.8,1-2-2.85a.3.3,0,0,0-.25-.15l-.25,0-.25.15-.1.25-.35,3.5-1.7.35-.25.1-.05.1,0,.2v.25h0l1.45,3.15h6l1.6-1,.15-.15,0-.15,0-.3-.3-.25-1.5-.4,1.2-3.15v-.35l0,0M0,35,60,0l60,35v70L60,140,0,105V35m95-3.6-.25-.2h-.3l-1.25.4-.85-4.15-.15-.25-.25-.1-.3.1-.15.25-1,3.15-1.35-.55h-.35a.3.3,0,0,0-.25.15v.05l0,.35,1,3h4.85l.7-1.8V31.4M82.5,85.2h4.85l.7-1.8V83l-.25-.2h-.3l-1.25.4L85.4,79l-.15-.25-.25-.1-.3.1-.15.25-1,3.15L82.2,81.6h-.35a.3.3,0,0,0-.25.15v0l0,.35,1,3m24.9,9.6-.3.1a.3.3,0,0,0-.15.25l-1,3.15-1.35-.55h-.35l-.25.15v0l0,.35,1,3h4.85l.7-1.8V99.1l-.25-.2h-.3l-1.25.4-.85-4.15-.15-.25-.25-.1M77.3,119.5l-.2-.2h-.35l-2.8,1-2-2.85-.25-.15-.25,0-.25.15-.1.25-.35,3.5-1.7.35-.25.1,0,.1,0,.2v.25h0l1.45,3.15h6l1.6-1,.15-.15,0-.15,0-.3-.3-.25-1.5-.4,1.2-3.15v-.35l0,0m-18.85-3.25-1,3.15-1.35-.55h-.35a.3.3,0,0,0-.25.15v0l0,.35.95,3h4.85l.7-1.8v-.45l-.25-.2h-.3l-1.25.4-.85-4.15-.15-.25-.25-.1-.3.1-.15.25"/><path class="cls-2" d="M58,23.25l1,3.15,1.4-.55h.35l.25.2v.35l-.9,3.1H55.2l-.7-1.8v-.45l.25-.2.3-.05,1.25.4.8-4.1.15-.25.3-.15.3.1.15.25"/><path class="cls-3" d="M43,35.65h.35l2.85,1,2-2.85.25-.15h.25l.25.15.1.25.4,3.5,1.65.3.25.15,0,.1.1.15,0,.25-.05,0L49.85,41.7h-6l-1.6-1.1-.1-.15-.1-.1.1-.35.25-.2L44,39.35l-1.25-3.1V35.9l0,0,.2-.2"/><path class="cls-4" d="M39,50.9l.25.1.15.25.85,4.15L41.5,55h.3l.25.2v.45l-.7,1.8H36.5l-1-3.05.05-.35v0l.25-.15h.35l1.35.55,1-3.15A.3.3,0,0,1,38.7,51l.3-.1"/><path class="cls-5" d="M65.65,46l.2.2.05,0v.35l-1.2,3.15,1.5.4.3.25,0,.3,0,.15-.15.15-1.6,1h-6L57.3,48.9h0v-.25l0-.2.05-.1.25-.1,1.7-.35.35-3.5.1-.25L60,44l.25,0,.25.15,2,2.85,2.8-1h.35"/><path class="cls-6" d="M8.7,49.85l.25-.1,1.7-.35L11,45.9l.1-.25.25-.15.25,0a.3.3,0,0,1,.25.15l2,2.85,2.8-1H17l.2.2.05,0v.35l-1.2,3.15,1.5.4.3.25,0,.3,0,.15-.15.15-1.6,1h-6L8.65,50.4H8.6v-.25l.05-.2,0-.1"/><path class="cls-7" d="M23.15,62.25l.25-.15h.35l1.35.55,1-3.15.15-.25.3-.1.25.1.15.25.85,4.15,1.25-.4h.3l.25.2v.45l-.7,1.8H24.05l-.95-3.05,0-.35v0"/><path class="cls-8" d="M11.2,102.4l1.7-.35.35-3.5.1-.25.25-.15.25,0a.3.3,0,0,1,.25.15l2,2.85,2.8-1h.35l.2.2.05.05v.35l-1.2,3.15,1.5.4.3.25,0,.3,0,.15-.15.15-1.6,1h-6l-1.45-3.15h-.05v-.25l.05-.2,0-.1.25-.1"/><path class="cls-9" d="M71.5,85.9l.25.1.15.25.85,4.15L74,90h.3l.25.2v.45l-.7,1.8H69l-1-3,0-.35v0a.3.3,0,0,1,.25-.15h.35l1.35.55,1-3.15L71.2,86l.3-.1"/><path class="cls-10" d="M61.7,104.75l0,0v.35l-1.2,3.15,1.5.4.3.25,0,.3,0,.15-.15.15-1.6,1h-6l-1.45-3.15h0v-.25l0-.2.05-.1.25-.1,1.7-.35.35-3.5.1-.25.25-.15.25,0a.3.3,0,0,1,.25.15l2,2.85,2.8-1h.35l.2.2"/><path class="cls-11" d="M95,31.4v.45l-.7,1.8H89.4l-1-3,0-.35V30.2a.3.3,0,0,1,.25-.15h.35l1.35.55,1-3.15.15-.25.3-.1.25.1.15.25.85,4.15,1.25-.4h.3l.25.2"/><path class="cls-12" d="M82.5,85.2l-1-3,0-.35v0a.3.3,0,0,1,.25-.15h.35l1.35.55,1-3.15.15-.25.3-.1.25.1.15.25.85,4.15,1.25-.4h.3l.25.2v.45l-.7,1.8H82.5"/><path class="cls-13" d="M107.4,94.8l.25.1.15.25.85,4.15,1.25-.4h.3l.25.2v.45l-.7,1.8H104.9l-1-3,0-.35v0l.25-.15h.35l1.35.55,1-3.15a.3.3,0,0,1,.15-.25l.3-.1"/><path class="cls-14" d="M77.3,119.5l0,0v.35l-1.2,3.15,1.5.4.3.25,0,.3,0,.15-.15.15-1.6,1h-6l-1.45-3.15h0V122l0-.2,0-.1.25-.1,1.7-.35.35-3.5.1-.25.25-.15.25,0,.25.15,2,2.85,2.8-1h.35l.2.2"/><path class="cls-15" d="M58.45,116.25l.15-.25.3-.1.25.1.15.25.85,4.15,1.25-.4h.3l.25.2v.45l-.7,1.8H56.4l-.95-3,0-.35v0a.3.3,0,0,1,.25-.15h.35l1.35.55,1-3.15"/><path class="cls-16" d="M49.7,115.1l0,.05v.35l-1.2,3.15,1.5.4.3.25,0,.3,0,.15-.15.15-1.6,1h-6l-1.45-3.15h0v-.25l0-.2.05-.1.25-.1,1.7-.35.35-3.5.1-.25.25-.15.25,0a.3.3,0,0,1,.25.15l2,2.85,2.8-1h.35l.2.2"/><path class="cls-17" d="M89.05,23.1l9.1,19.75.15,1-.4,1-.4.4,1.2,3.2a1.85,1.85,0,0,1,0,1.35l2.3,2.8a2,2,0,0,1,.45,1.15,2.07,2.07,0,0,1-.3,1.2l-1,.75L86.1,61.3l-1.3.1a2,2,0,0,1-1-.8L77,51a1.77,1.77,0,0,1-.4-1.15,2,2,0,0,1,.35-1.15l1.5-2.15L77.3,45a1.73,1.73,0,0,1-.4-1.25,1.92,1.92,0,0,1,.5-1.2l1.95-2.2-.2-.7a1.54,1.54,0,0,1,.1-1l6.1-15.45a1.82,1.82,0,0,1,1.05-1.1l1.5-.05a2,2,0,0,1,1.15,1.05m-8.2,23.45-2.3,3.3,6.8,9.6,1.5-.55,0,0,12.65-5-3.6-4.35,1-.35L95,44.2l-.4.15,1.75-.7L87.2,23.9,81.1,39.35l.75,1,.25.3h0l-.2-.3L78.9,43.8l1.95,2.75"/><path class="cls-18" d="M80.85,46.55l5,6.9.65-6.55v0L82.1,40.7l-.25-.3-.75-1L87.2,23.9l-.4,23.5,7.75-3,.4-.15,1.85,4.95-1,.35-9.7,3.8-.8,6.15-6.8-9.6,2.3-3.3"/><path class="cls-19" d="M80.85,46.55,78.9,43.8l2.95-3.4.2.3h0l4.35,6.15v0l-.65,6.55-5-6.9"/><path class="cls-20" d="M85.35,59.45l.8-6.15,9.7-3.8,3.6,4.35-12.65,5,0,0-1.5.55m9.2-15.1-7.75,3,.4-23.5,9.1,19.75-1.75.7"/><path class="cls-17" d="M89.05,40.8l9.1,19.75.15,1.05-.4.95-.4.4,1.2,3.2a1.85,1.85,0,0,1,0,1.35l2.3,2.8a2,2,0,0,1,.45,1.15,2.07,2.07,0,0,1-.3,1.2l-1,.75L86.1,79l-1.3.1a2,2,0,0,1-1-.8L77,68.7a1.77,1.77,0,0,1-.4-1.15,2,2,0,0,1,.35-1.15l1.5-2.15-1.1-1.6a1.73,1.73,0,0,1-.4-1.25,1.92,1.92,0,0,1,.5-1.2L79.35,58l-.2-.7a1.54,1.54,0,0,1,.1-.95l6.1-15.45a1.82,1.82,0,0,1,1.05-1.1l1.5,0a2,2,0,0,1,1.15,1m-7,17.6h0l-.2-.3.25.3m5.1-16.8L81.1,57.05l.75,1.05L78.9,61.5l1.95,2.75-2.3,3.3,6.8,9.6,1.5-.55,0,0,12.65-5-3.6-4.35,1-.35L95,61.9l-.4.15,1.75-.7L87.2,41.6"/><path class="cls-19" d="M81.85,58.1l.2.3h0l4.35,6.15v0l-.65,6.55-5-6.9L78.9,61.5l2.95-3.4"/><path class="cls-18" d="M81.85,58.1l-.75-1.05L87.2,41.6l-.4,23.5,7.75-3,.4-.15,1.85,4.95-1,.35L86.15,71l-.8,6.15-6.8-9.6,2.3-3.3,5,6.9.65-6.55v0L82.1,58.4l-.25-.3"/><path class="cls-20" d="M87.2,41.6l9.1,19.75-1.75.7-7.75,3,.4-23.5m8.65,25.6,3.6,4.35-12.65,5,0,0-1.5.55.8-6.15,9.7-3.8"/><path class="cls-17" d="M68.55,41.8l4.3,10.85.15.9,0,.35,1.15,1.3a2,2,0,0,1,.45,1.2l-.35,1.25-.55.8.8,1.15a2.06,2.06,0,0,1,0,2.3l-4.8,6.75a2,2,0,0,1-1,.75,2.05,2.05,0,0,1-1.25,0l-1.05-.35-.6-.3-8.35-3.3-.95-.75a1.77,1.77,0,0,1-.35-1.2,2,2,0,0,1,.45-1.15L58,60.6a1.87,1.87,0,0,1,.1-1.05l.7-1.85-.1-.1-.4-1a1.91,1.91,0,0,1,.2-1l6.4-13.9A1.81,1.81,0,0,1,66,40.65l1.5.05a1.82,1.82,0,0,1,1,1.1m-1.85.7L60.3,56.4l1.25.5-.3-.1L60,60.25l.65.25-2.5,3.1L67,67.1l0,.05,1,.35,4.8-6.75-1.6-2.3,1.35-2-2-2.4-.15.2h0l.2-.2.5-.75L66.7,42.5"/><path class="cls-18" d="M66.7,42.5,67,59.05,61.55,56.9l-1.25-.5,6.4-13.9m3.8,11.6,2,2.4-1.35,2L67.7,63.3l-.45-4.6v-.05l3-4.35h0l.15-.2M68,67.5l-1-.35,0-.05-8.9-3.5,2.5-3.1,6.85,2.7L68,67.5"/><path class="cls-20" d="M68,67.5l-.55-4.3L60.6,60.5,60,60.25l1.3-3.45.3.1L67,59.05,66.7,42.5,71,53.35l-.5.75-.2.2-3,4.35v.05l.45,4.6,3.5-4.85,1.6,2.3L68,67.5"/><path class="cls-17" d="M14.25,50.35a1.82,1.82,0,0,1,1.05,1.1L19.6,62.3l.15.9-.05.35,1.15,1.3.45,1.2L21,67.3l-.55.8.8,1.15a2,2,0,0,1,.35,1.15l-.35,1.15L16.4,78.3a2,2,0,0,1-1,.75,2.05,2.05,0,0,1-1.25,0L13.1,78.7l-.6-.3L4.15,75.1l-1-.75a1.77,1.77,0,0,1-.35-1.2A2,2,0,0,1,3.3,72l1.45-1.75a1.87,1.87,0,0,1,.1-1l.7-1.85-.1-.1-.4-1a1.91,1.91,0,0,1,.2-1l6.4-13.9a1.81,1.81,0,0,1,1.1-1.05l1.5.05M18,68.1l1.35-1.95-2.05-2.4-.15.2h-.05l.2-.2.5-.75-4.3-10.85-6.4,13.9,1.25.5-.3-.1L6.7,69.9l.65.25-2.5,3.1,8.9,3.5-.05,0,1.05.35,4.8-6.75L18,68.1"/><path class="cls-18" d="M18,68.1,14.45,73,14,68.35v0L17.05,64h.05l.15-.2,2.05,2.4L18,68.1m-3.2,9.05L13.7,76.8l.05,0-8.9-3.5,2.5-3.1,6.85,2.7.55,4.3M8.3,66.55l-1.25-.5,6.4-13.9.3,16.55L8.3,66.55"/><path class="cls-20" d="M8.3,66.55l5.45,2.15-.3-16.55L17.75,63l-.5.75-.2.2L14,68.3v0l.45,4.6L18,68.1l1.6,2.3-4.8,6.75-.55-4.3-6.85-2.7L6.7,69.9,8,66.45l.3.1"/><path class="cls-17" d="M30.3,82.55l1.75-.7L23,62.1l-6.1,15.45.75,1-3,3.4,2,2.75-2.3,3.3,6.8,9.6,1.5-.55-.05,0,12.65-5L31.6,87.7l.95-.35L30.7,82.4l-.4.15M22.15,60.3l1.5,0a2,2,0,0,1,1.15,1l9.1,19.75.15,1-.4,1-.4.4,1.2,3.2a1.85,1.85,0,0,1,0,1.35l2.3,2.8A2,2,0,0,1,37.2,92a2.07,2.07,0,0,1-.3,1.2L36,93.9l-14.1,5.6-1.3.1a2,2,0,0,1-1.05-.8l-6.8-9.6a1.77,1.77,0,0,1-.4-1.15,2,2,0,0,1,.35-1.15l1.5-2.15-1.1-1.6a1.73,1.73,0,0,1-.4-1.25,1.92,1.92,0,0,1,.5-1.2l1.95-2.2-.2-.7a1.54,1.54,0,0,1,.1-1L21.1,61.4a1.82,1.82,0,0,1,1-1.1M17.6,78.6l.25.3H17.8l-.2-.3"/><path class="cls-18" d="M17.6,78.6l-.75-1L23,62.1l-.4,23.5,7.75-3,.4-.15,1.85,4.95-.95.35-9.7,3.8-.8,6.15-6.8-9.6,2.3-3.3,4.95,6.9.65-6.55v0L17.85,78.9l-.25-.3"/><path class="cls-19" d="M17.6,78.6l.2.3h.05l4.35,6.15v0l-.65,6.55-4.95-6.9-2-2.75,3-3.4"/><path class="cls-20" d="M21.1,97.65l.8-6.15,9.7-3.8,3.6,4.35-12.65,5,.05,0-1.5.55m9.2-15.1-7.75,3L23,62.1l9.1,19.75-1.75.7"/><path class="cls-17" d="M70.75,110.05l6.4-13.9a1.81,1.81,0,0,1,1.1-1.05l1.5.05a1.82,1.82,0,0,1,1,1.1l4.3,10.85.15.9,0,.35,1.15,1.3a2,2,0,0,1,.45,1.2,1.84,1.84,0,0,1-.35,1.25l-.55.8.8,1.15a2,2,0,0,1,.35,1.15l-.35,1.15-4.8,6.75-1,.75a2.05,2.05,0,0,1-1.25,0l-1.05-.35-.6-.3-8.35-3.3-1-.75a1.77,1.77,0,0,1-.35-1.2,2,2,0,0,1,.45-1.15l1.45-1.75a1.87,1.87,0,0,1,.1-1l.7-1.85-.1-.1-.4-1a1.91,1.91,0,0,1,.2-1m12-1.5-.15.2h0l.2-.2.5-.75L79,97l-6.4,13.9,1.25.5-.3-.1-1.3,3.45.65.25-2.5,3.1,8.9,3.5,0,0,1,.35,4.8-6.75-1.6-2.3,1.35-2-2-2.4"/><path class="cls-20" d="M82.75,108.55l-.2.2-3,4.35v.05l.45,4.6,3.5-4.85,1.6,2.3L80.25,122l-.55-4.3L72.85,115l-.65-.25,1.3-3.45.3.1,5.45,2.15L79,97l4.3,10.85-.5.75"/><path class="cls-18" d="M82.75,108.55l2,2.4-1.35,2L80,117.75l-.45-4.6v-.05l3-4.35h0l.15-.2M79,97l.3,16.55-5.45-2.15-1.25-.5L79,97m-6.1,18,6.85,2.7.55,4.3-1-.35,0,0-8.9-3.5,2.5-3.1"/><path class="cls-17" d="M53.35,38.2l.95-.35-1.85-5-.4.15,1.75-.7L44.7,12.6,38.6,28.05l.75,1.05-3,3.4,2,2.75-2.3,3.3,6.8,9.6,1.5-.55-.05-.05,12.65-5-3.6-4.35M43.9,10.8l1.5-.05a2,2,0,0,1,1.15,1.05l9.1,19.75.15,1.05-.4.95L55,34l1.2,3.2a1.85,1.85,0,0,1,0,1.35l2.3,2.8A2,2,0,0,1,59,42.45a2.07,2.07,0,0,1-.3,1.2l-.95.75L43.6,50l-1.3.1a2,2,0,0,1-1-.8l-6.8-9.6a1.77,1.77,0,0,1-.4-1.15,2,2,0,0,1,.35-1.15l1.5-2.15-1.1-1.6a1.73,1.73,0,0,1-.4-1.25,1.92,1.92,0,0,1,.5-1.2l2-2.2-.2-.7a1.54,1.54,0,0,1,.1-.95l6.1-15.45a1.82,1.82,0,0,1,1-1.1M39.35,29.1l.25.3h-.05l-.2-.3"/><path class="cls-18" d="M39.35,29.1l-.75-1.05L44.7,12.6l-.4,23.5,7.75-3.05.4-.15,1.85,5-.95.35L43.65,42l-.8,6.15-6.8-9.6,2.3-3.3,4.95,6.9L44,35.6v-.05L39.6,29.4l-.25-.3"/><path class="cls-19" d="M39.35,29.1l.2.3h.05L44,35.55v.05l-.65,6.55-4.95-6.9-2-2.75,3-3.4"/><path class="cls-20" d="M44.7,12.6l9.1,19.75-1.75.7L44.3,36.1l.4-23.5m8.65,25.6L57,42.55l-12.65,5,.05.05-1.5.55.8-6.15,9.7-3.8"/></g></g></svg>