<svg xmlns="http://www.w3.org/2000/svg" viewBox="0 0 120 140"><defs><style>.cls-1{fill:#bb6444;}.cls-2{fill:#c26948;}.cls-3{fill:#b55f40;}.cls-4{fill:#7b412c;}.cls-5{fill:#d4714d;}.cls-6{fill:#a6583b;}.cls-7{fill:#5a6b6b;}</style></defs><title>Asset 78</title><g id="Layer_2" data-name="Layer 2"><g id="Layer_1-2" data-name="Layer 1"><path class="cls-1" d="M65.45,113.5,67,118l4.45-1.55L70,112l-4.5,1.55M25.15,23.55l-.55,5.3,5.25.5.55-5.25-5.25-.55M2.3,44l4.25,3.1,3.1-4.3-4.25-3L2.3,44m21.1,8.2L13.9,50l-2.1,9.55,9.45,2.1,2.15-9.5m2.65.35,2.15,4.85L33,55.2l-2.15-4.9-4.8,2.2m39.4-1.35L67,55.6l4.45-1.5L70,49.6l-4.5,1.55M59.7,44l-.6-5.3-5.25.65.6,5.25L59.7,44M36.4,48.5l2.25,7.2,7.25-2.25L43.6,46.2l-7.2,2.3M34.15,37.65l3.35,4.1,4.15-3.35-3.4-4.1-4.1,3.35m12.4-2.85-1.9,5,5.05,2,1.85-5-5-1.9M43.65,25,40,28.8l3.85,3.65L47.5,28.6,43.65,25M62.2,14l4.85-2.15L64.9,7.05,60,9.2,62.2,14M60,0l60,35v70L60,140,0,105V35L60,0M88.4,52.5l2.15,4.85L95.4,55.2l-2.2-4.9-4.8,2.2m3.8-23.15.55-5.25-5.25-.55L87,28.85l5.25.5m-6.45,22.8L76.25,50l-2.1,9.55,9.45,2.1,2.15-9.5M82,35.6l2.3,7.25,7.25-2.3L89.2,33.3,82,35.6m27-.8-1.9,5,5,2,1.85-5-5-1.9m7.3,19.35-5.35-.5-.5,5.3,5.25.5.6-5.3M98,76l-3.1,4.3,4.35,3.1,3-4.3L98,76m14,28.1,1.85-5-5-1.9-1.9,5,5,1.95m-37.3-5.45L77.25,89l-9.6-2.5L65.2,96.1l9.55,2.55m7.85-21.9L75.9,70.6l-6.2,6.7,6.75,6.2,6.15-6.75m21-3.4.65-5.6h0l.4-3.7-9.3-1-1.1,9.3,9.3,1M82,98l2.3,7.25L91.5,103l-2.3-7.3L82,98m18.65-1.3L96.5,100l3.35,4.1,4.15-3.35-3.4-4.1M87.5,86,87,91.2l5.25.5.55-5.25L87.5,86m-.8,26.15L77.2,110l-2.1,9.55,9.45,2.1,2.15-9.5M57.15,76.75h0L49.8,78.5l1.7,7.4,7.4-1.75-1.75-7.4M60,71.55l2.2,4.85,4.85-2.2L64.9,69.4,60,71.55M34.15,100l3.35,4.1,4.15-3.35-3.4-4.1L34.15,100M41.9,67.75l.4-3.7L33,63,31.9,72.3l9.3,1,.65-5.6h0m2.75,34.4,5.05,1.95,1.85-5-5-1.9-1.9,5M5.3,86.5,2.8,96.1l9.6,2.55L14.9,89,5.3,86.5m15-9.75-6.7-6.15-6.2,6.7,6.7,6.2,6.2-6.75m4.9,9.2L24.6,91.2l5.25.5.55-5.25L25.15,86m38.9,36.45-5.2.85.8,5.2,5.25-.8-.85-5.25m-34.2-13.15-4.75,2.2,2.15,4.85,4.8-2.15-2.2-4.9m13.75-.65-7.2,2.25,2.25,7.25,7.25-2.3-2.3-7.2"/><path class="cls-2" d="M43.6,108.6l2.3,7.2-7.25,2.3-2.25-7.25,7.2-2.25m-18.45-85,5.25.55-.55,5.25-5.25-.5.55-5.3m.9,29,4.8-2.2L33,55.2l-4.8,2.15L26.05,52.5m-2.65-.35-2.15,9.5-9.45-2.1L13.9,50l9.5,2.15m68.8-22.8L87,28.85l.55-5.3,5.25.55-.55,5.25M88.4,52.5l4.8-2.2,2.2,4.9-4.85,2.15L88.4,52.5M109,34.8l5,1.9-1.85,5-5-2,1.9-5m3.1,69.3-5-1.95,1.9-5,5,1.9-1.85,5M98,76l4.3,3.1-3,4.3L94.9,80.3,98,76M82,98l7.25-2.3,2.3,7.3-7.25,2.25L82,98M86.7,112.1l-2.15,9.5-9.45-2.1L77.2,110l9.5,2.15M60,71.55l4.9-2.15,2.15,4.8L62.2,76.4,60,71.55m-15.35,30.6,1.9-5,5,1.9-1.85,5-5.05-1.95M25.15,86l5.25.5-.55,5.25-5.25-.5L25.15,86"/><path class="cls-3" d="M2.3,44,5.4,39.7l4.25,3-3.1,4.3L2.3,44M62.2,14,60,9.2l4.9-2.15,2.15,4.8L62.2,14M43.65,25,47.5,28.6l-3.65,3.85L40,28.8,43.65,25m2.9,9.85,5,1.9-1.85,5-5.05-2,1.9-5m-12.4,2.85,4.1-3.35,3.4,4.1L37.5,41.75l-3.35-4.1M36.4,48.5l7.2-2.3,2.3,7.25L38.65,55.7,36.4,48.5M59.7,44l-5.25.6-.6-5.25,5.25-.65.6,5.3m5.75,7.2L70,49.6l1.5,4.5L67,55.6l-1.55-4.45M82,35.6l7.25-2.3,2.3,7.25-7.25,2.3L82,35.6m3.8,16.55-2.15,9.5-9.45-2.1L76.25,50l9.5,2.15m30.5,2-.6,5.3L110.4,59l.5-5.3,5.35.5m-12.7,19.2-9.3-1,1.1-9.3,9.3,1-.4,3.7h0l-.65,5.6m-21,3.4L76.45,83.5,69.7,77.3l6.2-6.7,6.7,6.15m-7.85,21.9L65.2,96.1l2.45-9.6,9.6,2.5-2.5,9.65M87.5,86l5.25.5L92.2,91.7,87,91.2,87.5,86m13.1,10.7,3.4,4.1-4.15,3.35L96.5,100l4.1-3.35M57.15,76.75l1.75,7.4L51.5,85.9l-1.7-7.4,7.3-1.75h0m-15.25-9h0l-.65,5.6-9.3-1L33,63l9.35,1-.4,3.7M34.15,100l4.1-3.35,3.4,4.1L37.5,104.1,34.15,100M20.25,76.75l-6.2,6.75-6.7-6.2,6.2-6.7,6.7,6.15M5.3,86.5,14.9,89l-2.5,9.65L2.8,96.1l2.5-9.6m24.55,22.75,2.2,4.9-4.8,2.15-2.15-4.85,4.75-2.2m34.2,13.15.85,5.25-5.25.8-.8-5.2,5.2-.85m1.4-8.9L70,112l1.5,4.5L67,118l-1.55-4.5"/><path class="cls-4" d="M86.15,57.5l.8.2,4.85,2.35.7.6.35.8.45,2.2,2.15,1a1.91,1.91,0,0,1,1,.95l2.2,4.6.2,1-.45,9.25-.35,1a1.82,1.82,0,0,1-.9.7l-11,4.35-.8.15-.8-.2L74,81.5a1.89,1.89,0,0,1-.85-.75,1.86,1.86,0,0,1-.3-1.15l.5-9.25.2-.75,2.1-4.45a2,2,0,0,1,1.05-1l1.85-.75.5-2.3.45-.9a2,2,0,0,1,.8-.55l5.1-2,.8-.15m8.45,9-3-1.4.45,2.45L90.9,61.85,86.05,59.5l-5.1,2-.7,3.2L77.4,66l-2.1,4.45-.5,9.25,10.5,5,11-4.35.45-9.25-2.2-4.6"/><path class="cls-1" d="M94.6,66.45l-.4,7.4L85.4,77.3l-.1,7.35-10.5-5L77,73.4l.4-7.4,2.85-1.3.7-3.2,5.1-2,4.85,2.35-.2,4.2-5.15,2,0,7.1,6.25-2.45.3-5.25-.45-2.45,3,1.4"/><path class="cls-5" d="M96.35,80.3l-11,4.35.1-7.35,8.8-3.45,2.15,6.45m-4.6-7.55L85.5,75.2l0-7.1,5.15-2,1,6.7"/><path class="cls-6" d="M91.75,72.75l-1-6.7.2-4.2,1.15,5.65-.3,5.25m2.85-6.3,2.2,4.6-.45,9.25L94.2,73.85l.4-7.4M74.8,79.7l.5-9.25L77.4,66,77,73.4l-2.2,6.3"/><path class="cls-1" d="M72,99.8l-12.7-6,4.8-12.7L64.4,74l8.5-3.3q4,1.91,8.1,3.75l-.4,7.15L72.1,84.9,72,99.8"/><path class="cls-6" d="M80.6,81.55,81,74.4l4.75,9.1-.5,11.1-4.65-13M64.4,74l-.35,7.15-4.8,12.7.6-11.1L64.4,74"/><path class="cls-4" d="M64.4,74,59.85,82.7l-.6,11.1,12.7,6,13.3-5.2.5-11.1L81,74.4q-4.05-1.84-8.1-3.75L64.4,74m9.35-5.1,8.1,3.75,1,.9,4.75,9.1.2,1-.5,11.1-.35,1.1-.55.5-.35.2-13.3,5.2-.8.1-.8-.2-12.7-6-.85-.75a1.86,1.86,0,0,1-.3-1.15l.6-11.1a2,2,0,0,1,.25-.8l4.55-8.75a1.66,1.66,0,0,1,1.05-1l8.5-3.3.8-.15.75.2"/><path class="cls-5" d="M72,99.8l.15-14.9,8.5-3.35,4.65,13L72,99.8"/><path class="cls-4" d="M26.5,50.5l2.4-3,2.4-12.7a2,2,0,0,1,.45-1l2-2.35a1.39,1.39,0,0,1,.7-.5l.85-.2,7.55.2.9.25.7.6,1.6,2.25.35.9,1.05,7.8,2.1,2.9.35.85L52.8,65l0,.85-.4.75-6.55,7.7-.75.55L44.2,75,32,74.55l-.85-.2-.7-.6-5.8-8a1.82,1.82,0,0,1-.35-1.45l1.75-12.8a1.52,1.52,0,0,1,.45-1m21.4-3.6-2.35-3.3L44.4,35.3l-1.6-2.25-7.55-.2-2,2.35L30.8,48.4,28,51.75l-1.75,12.8,5.8,8,12.2.4,6.55-7.7L47.9,46.9"/><path class="cls-1" d="M47.9,46.9l-2.4,2.8-7.45-1.1.15-9.2-5-4.2,2-2.35,7.55.2,1.6,2.25,1.15,8.3,2.35,3.3M28,51.75l2.8-3.35,6.9,5.9,8.6,1.4-.15.15-.1,0V56l0,0,0,0-2.5,3L33,58.7l-5-7"/><path class="cls-6" d="M28,51.75l5,7-.9,13.85-5.8-8L28,51.75M47.9,46.9l2.9,18.35L44.25,73l-.8-14,2.5-3,.1,0v-.1l.1,0,.15-.15v-.05l-.8-5.95,2.4-2.8M30.8,48.4l2.45-13.2,5,4.2-.15,9.2-.35,5.7-6.9-5.9"/><path class="cls-5" d="M44.25,73l-12.2-.4L33,58.7l10.5.3.8,14M38.05,48.6l7.45,1.1.8,5.95v.05l-8.6-1.4.35-5.7"/><path class="cls-7" d="M46,56h0l-.1,0,0,0"/></g></g></svg>