<svg xmlns="http://www.w3.org/2000/svg" viewBox="0 0 120 140"><defs><style>.cls-1{fill:#bb8044;}.cls-2{fill:#aa753e;}.cls-3{fill:#c68a4e;}.cls-4{fill:#115f32;}.cls-5{fill:#1b914d;}.cls-6{fill:#168344;}.cls-7{fill:#10773c;}</style></defs><title>Asset 32</title><g id="Layer_2" data-name="Layer 2"><g id="Layer_1-2" data-name="Layer 1"><path class="cls-1" d="M11.75,54.3l.85,2.1,2-.95-.85-2.05-2,.9m15.7-10.65L24.6,39.9l-3.75,2.8,2.75,3.75,3.85-2.8m-6.8,9.25,3,6.9,6.85-3-3.05-6.9-6.8,3m16.5-4.55L34.6,45.1l-3.25,2.6L34,51l3.2-2.6M55.85,27.6l-.7-4.35L50.8,24l.7,4.35,4.35-.7m21,70L83,100l2.45-6.1L79.3,91.45,76.85,97.6M89.7,86l0,4.55H94.3V86H89.7M59.5,16.6l-.85,7,7.15.8.8-7-7.1-.8m29,60.7-1.2,3,2.9,1.2,1.25-2.9-3-1.25M26.65,102l-1.2,4.55,4.5,1.2,1.25-4.45L26.65,102M24.35,91.4l-1,4,4,1,1-4.05-4-.95m10.75,0-3.55,6.7,6.55,3.5L41.7,95,35.1,91.4m9.55,16.3,1.15-2-2-1-1,2,1.9,1M0,105V35L60,0l60,35v70L60,140,0,105M101.3,60l-3.2-.45-.4,3.15,3.15.4.45-3.1m2,38.25-7.1,1.1,1,7,7.1-1.1-1-7m.2-30.15,6.55.75.75-6.55-6.55-.8-.75,6.6m1.1-13.25,1.2,4.45,4.4-1.25L109,53.6l-4.4,1.2M109,91.85l-4,1.85,1.75,4,4-1.85-1.75-4"/><path class="cls-2" d="M27.45,43.65l-3.85,2.8L20.85,42.7l3.75-2.8,2.85,3.75M11.75,54.3l2-.9.85,2.05-2,.95-.85-2.1m25.4-5.95L34,51l-2.6-3.25,3.25-2.6,2.55,3.25M59.5,16.6l7.1.8-.8,7.05-7.15-.8.85-7M89.7,86h4.6V90.5H89.75l0-4.55M76.85,97.6l2.45-6.15,6.15,2.45L83,100l-6.15-2.4m-52.5-6.2,4,.95-1,4.05-4-1,1-4M26.65,102l4.55,1.3L30,107.7l-4.5-1.2,1.2-4.55m18,5.75-1.9-1,1-2,2,1-1.15,2m59.9-52.9,4.4-1.2,1.2,4.4-4.4,1.25-1.2-4.45m-1.1,13.25.75-6.6,6.55.8L110,68.8l-6.55-.75m-.2,30.15,1,7-7.1,1.1-1-7,7.1-1.1"/><path class="cls-3" d="M20.65,52.9l6.8-3,3.05,6.9-6.85,3-3-6.9m35.2-25.3-4.35.7L50.8,24l4.35-.7.7,4.35m32.6,49.7,3,1.25-1.25,2.9-2.9-1.2,1.2-3M35.1,91.4,41.7,95l-3.6,6.65-6.55-3.5,3.55-6.7M101.3,60l-.45,3.1-3.15-.4.4-3.15,3.2.45m7.7,31.9,1.75,4-4,1.85-1.75-4,4-1.85"/><path class="cls-4" d="M87.25,64.55,88,62.7l-.1-.1a1.84,1.84,0,0,1-.4-1,1.91,1.91,0,0,1,.2-1l6.4-13.9a1.81,1.81,0,0,1,1.1-1.05l1.5.05a1.82,1.82,0,0,1,1,1.1L102,57.65l.15.9-.05.35,1.15,1.3.45,1.2-.35,1.25-.55.8.8,1.15a2,2,0,0,1,.35,1.15l-.35,1.15-4.8,6.75a2,2,0,0,1-1,.75,2.05,2.05,0,0,1-1.25,0l-1-.35-.6-.3-8.35-3.3-1-.75a1.77,1.77,0,0,1-.35-1.2,2,2,0,0,1,.45-1.15l1.45-1.75a1.87,1.87,0,0,1,.1-1M90.7,61.9l-.3-.1-1.3,3.45.65.25-2.5,3.1,8.9,3.5-.05.05,1.05.35,4.8-6.75-1.6-2.3,1.35-2-2-2.4-.15.2h0l.2-.2.5-.75L95.85,47.5l-6.4,13.9,1.25.5"/><path class="cls-5" d="M90.7,61.9l5.45,2.15-.3-16.55,4.3,10.85-.5.75-.2.2-3,4.35v.05l.45,4.6,3.5-4.85,1.6,2.3-4.8,6.75-.55-4.3-6.85-2.7-.65-.25,1.3-3.45.3.1"/><path class="cls-6" d="M90.7,61.9l-1.25-.5,6.4-13.9.3,16.55L90.7,61.9m9-2.8,2,2.4-1.35,2-3.5,4.85-.45-4.6v-.05l3-4.35h0l.15-.2m-2.5,13.4-1.05-.35.05-.05-8.9-3.5,2.5-3.1,6.85,2.7.55,4.3"/><path class="cls-4" d="M21.8,60.45,26.1,71.3l.15.9-.05.35,1.15,1.3a2,2,0,0,1,.45,1.2,1.84,1.84,0,0,1-.35,1.25l-.55.8.8,1.15a2.06,2.06,0,0,1,0,2.3L22.9,87.3a2,2,0,0,1-1,.75,2.05,2.05,0,0,1-1.25,0l-1-.35-.6-.3-8.35-3.3-1-.75a1.77,1.77,0,0,1-.35-1.2A2,2,0,0,1,9.8,81l1.45-1.75a1.87,1.87,0,0,1,.1-1l.7-1.85-.1-.1a1.84,1.84,0,0,1-.4-1,1.91,1.91,0,0,1,.2-1l6.4-13.9a1.81,1.81,0,0,1,1.1-1.05l1.5.05a1.82,1.82,0,0,1,1.05,1.1m1.95,12.3.5-.75L20,61.15l-6.4,13.9,1.25.5-.3-.1L13.2,78.9l.65.25-2.5,3.1,8.9,3.5-.05,0,1.05.35,4.8-6.75-1.6-2.3,1.35-1.95-2.05-2.4-.15.2h-.05l.2-.2"/><path class="cls-6" d="M23.75,72.75l2.05,2.4L24.45,77.1,21,82l-.45-4.6v0L23.55,73h.05l.15-.2m-2.5,13.4L20.2,85.8l.05,0-8.9-3.5,2.5-3.1,6.85,2.7.55,4.3M14.8,75.55l-1.25-.5L20,61.15l.3,16.55L14.8,75.55"/><path class="cls-5" d="M14.8,75.55l5.45,2.15L20,61.15,24.25,72l-.5.75-.2.2L20.5,77.3v0L21,82l3.5-4.85,1.6,2.3-4.8,6.75-.55-4.3-6.85-2.7-.65-.25,1.3-3.45.3.1"/><path class="cls-4" d="M31.45,62,33,62a2,2,0,0,1,1.15,1l9.1,19.75.15,1-.4,1-.4.4,1.2,3.2a1.85,1.85,0,0,1,0,1.35l2.3,2.8a2,2,0,0,1,.45,1.15,2.07,2.07,0,0,1-.3,1.2l-1,.75-14.1,5.6-1.3.1-1.05-.8L22,90.9a1.77,1.77,0,0,1-.4-1.15A2,2,0,0,1,22,88.6l1.5-2.15-1.1-1.6A1.73,1.73,0,0,1,22,83.6a1.92,1.92,0,0,1,.5-1.2l1.95-2.2-.2-.7a1.54,1.54,0,0,1,.1-1L30.4,63.1A1.82,1.82,0,0,1,31.45,62M40.9,89.4l1-.35L40,84.1l-.4.15,1.75-.7L32.25,63.8l-6.1,15.45.75,1,.25.3h0l-.2-.3L24,83.7l1.95,2.75-2.3,3.3,6.8,9.6,1.5-.55,0,0,12.65-5L40.9,89.4"/><path class="cls-5" d="M40.9,89.4l3.6,4.35-12.65,5,0,0-1.5.55.8-6.15,9.7-3.8M32.25,63.8l9.1,19.75-1.75.7-7.75,3,.4-23.5"/><path class="cls-6" d="M32.25,63.8l-.4,23.5,7.75-3,.4-.15,1.85,5-1,.35-9.7,3.8-.8,6.15-6.8-9.6,2.3-3.3,5,6.9.65-6.55v0L27.15,80.6l-.25-.3-.75-1,6.1-15.45"/><path class="cls-7" d="M25.9,86.45,24,83.7l2.95-3.4.2.3h0l4.35,6.15v0l-.65,6.55-5-6.9"/></g></g></svg>