<svg xmlns="http://www.w3.org/2000/svg" viewBox="0 0 120 140"><defs><style>.cls-1{fill:#bb6444;}.cls-2{fill:#c26948;}.cls-3{fill:#b55f40;}.cls-4{fill:#593269;}.cls-5{fill:#c16ee2;}.cls-6{fill:#79468e;}.cls-7{fill:#ecdcb8;}.cls-8{fill:#9b59b6;}</style></defs><title>Asset 72</title><g id="Layer_2" data-name="Layer 2"><g id="Layer_1-2" data-name="Layer 1"><path class="cls-1" d="M25.15,23.55l-.55,5.3,5.25.5.55-5.25-5.25-.55M5.4,39.7,2.3,44l4.25,3.1,3.1-4.3-4.25-3M26.05,52.5l2.15,4.85L33,55.2l-2.15-4.9-4.8,2.2m10.35-4,2.25,7.2,7.25-2.25L43.6,46.2l-7.2,2.3M34.15,37.65l3.35,4.1,4.15-3.35-3.4-4.1-4.1,3.35M23.4,52.15,13.9,50l-2.1,9.55,9.45,2.1,2.15-9.5m42.05-1L67,55.6l4.45-1.5L70,49.6l-4.5,1.55M46.55,34.8l-1.9,5,5.05,2,1.85-5-5-1.9M59.7,44l-.6-5.3-5.25.65.6,5.25L59.7,44M43.85,32.45,47.5,28.6,43.65,25,40,28.8l3.85,3.65M62.2,14l4.85-2.15L64.9,7.05,60,9.2,62.2,14m30,15.35.55-5.25-5.25-.55L87,28.85l5.25.5m-3,3.95L82,35.6l2.3,7.25,7.25-2.3L89.2,33.3m4,17-4.8,2.2,2.15,4.85Q93,56.3,95.4,55.2l-2.2-4.9m23,3.85-5.35-.5-.5,5.3,5.25.5.6-5.3m-9.2-14.35,5,2,1.85-5-5-1.9-1.9,5M85.75,52.15,76.25,50l-2.1,9.55,9.45,2.1,2.15-9.5M120,35v70L60,140,0,105V35L60,0l60,35M104.25,67.75l.4-3.7-9.3-1-1.1,9.3,9.3,1,.65-5.6h0M98,76l-3.1,4.3,4.35,3.1,3-4.3L98,76M92.2,91.7l.55-5.25L87.5,86,87,91.2l5.25.5M91.5,103l-2.3-7.3L82,98l2.3,7.25L91.5,103m9.1-6.3L96.5,100l3.35,4.1,4.15-3.35-3.4-4.1m6.45,5.5,5,1.95,1.85-5-5-1.9-1.9,5M75.9,70.6l-6.2,6.7,6.75,6.2,6.15-6.75L75.9,70.6m-8.85,3.6L64.9,69.4,60,71.55l2.2,4.85,4.85-2.2m-9.9,2.55h0L49.8,78.5l1.7,7.4,7.4-1.75-1.75-7.4M41.2,73.35l.65-5.6h0l.4-3.7L33,63,31.9,72.3l9.3,1m3.45,28.8,5.05,1.95,1.85-5-5-1.9-1.9,5m20.25,25.5-.85-5.25-5.2.85.8,5.2,5.25-.8M70,112l-4.5,1.55L67,118l4.45-1.55L70,112M65.2,96.1l9.55,2.55L77.25,89l-9.6-2.5L65.2,96.1M45.9,115.8l-2.3-7.2-7.2,2.25,2.25,7.25,7.25-2.3M77.2,110l-2.1,9.55,9.45,2.1,2.15-9.5L77.2,110M5.3,86.5,2.8,96.1l9.6,2.55L14.9,89,5.3,86.5m8.25-15.9-6.2,6.7,6.7,6.2,6.2-6.75-6.7-6.15M25.15,86,24.6,91.2l5.25.5.55-5.25L25.15,86m2.1,30.35,4.8-2.15-2.2-4.9-4.75,2.2,2.15,4.85m11-19.65L34.15,100l3.35,4.1,4.15-3.35-3.4-4.1"/><path class="cls-2" d="M25.15,23.55l5.25.55-.55,5.25-5.25-.5.55-5.3m.9,29,4.8-2.2L33,55.2l-4.8,2.15L26.05,52.5m-2.65-.35-2.15,9.5-9.45-2.1L13.9,50l9.5,2.15m68.8-22.8L87,28.85l.55-5.3,5.25.55-.55,5.25m1,20.95,2.2,4.9Q93,56.3,90.55,57.35L88.4,52.5l4.8-2.2m13.85-10.5,1.9-5,5,1.9-1.85,5-5-2M98,76l4.3,3.1-3,4.3L94.9,80.3,98,76m-6.5,27-7.25,2.25L82,98l7.25-2.3,2.3,7.3m15.55-.8,1.9-5,5,1.9-1.85,5-5-1.95m-40-27.95L62.2,76.4,60,71.55l4.9-2.15,2.15,4.8m-22.4,28,1.9-5,5,1.9-1.85,5-5.05-1.95M77.2,110l9.5,2.15-2.15,9.5-9.45-2.1L77.2,110M45.9,115.8l-7.25,2.3-2.25-7.25,7.2-2.25,2.3,7.2M25.15,86l5.25.5-.55,5.25-5.25-.5L25.15,86"/><path class="cls-3" d="M5.4,39.7l4.25,3-3.1,4.3L2.3,44,5.4,39.7m28.75-2.05,4.1-3.35,3.4,4.1L37.5,41.75l-3.35-4.1M36.4,48.5l7.2-2.3,2.3,7.25L38.65,55.7,36.4,48.5M62.2,14,60,9.2l4.9-2.15,2.15,4.8L62.2,14M43.85,32.45,40,28.8,43.65,25,47.5,28.6l-3.65,3.85M59.7,44l-5.25.6-.6-5.25,5.25-.65.6,5.3M46.55,34.8l5,1.9-1.85,5-5.05-2,1.9-5m18.9,16.35L70,49.6l1.5,4.5L67,55.6l-1.55-4.45M89.2,33.3l2.3,7.25-7.25,2.3L82,35.6l7.25-2.3m27.05,20.85-.6,5.3L110.4,59l.5-5.3,5.35.5m-30.5-2-2.15,9.5-9.45-2.1L76.25,50l9.5,2.15m18.5,15.6h0l-.65,5.6-9.3-1,1.1-9.3,9.3,1-.4,3.7m-12,24L87,91.2,87.5,86l5.25.5L92.2,91.7m8.4,5,3.4,4.1-4.15,3.35L96.5,100l4.1-3.35M75.9,70.6l6.7,6.15L76.45,83.5,69.7,77.3l6.2-6.7M41.2,73.35l-9.3-1L33,63l9.35,1-.4,3.7h0l-.65,5.6m15.95,3.4,1.75,7.4L51.5,85.9l-1.7-7.4,7.3-1.75h0M65.2,96.1l2.45-9.6,9.6,2.5-2.5,9.65L65.2,96.1M70,112l1.5,4.5L67,118l-1.55-4.5L70,112m-5,15.7-5.25.8-.8-5.2,5.2-.85.85,5.25M13.55,70.6l6.7,6.15-6.2,6.75-6.7-6.2,6.2-6.7M5.3,86.5,14.9,89l-2.5,9.65L2.8,96.1l2.5-9.6m33,10.15,3.4,4.1L37.5,104.1,34.15,100l4.1-3.35m-11,19.65-2.15-4.85,4.75-2.2,2.2,4.9-4.8,2.15"/><path class="cls-4" d="M62,38.1V48.9L68.3,52v2.6l2.1.8,1.95-1.85V52.1L78.1,46V35.5l-9.85-4.45L62,38.1m7.1-8.85L79,33.7a1.78,1.78,0,0,1,.85.75l.3,1V46a2,2,0,0,1-.55,1.4l-5.2,5.5v.6l-.15.8-.45.65-2,1.85-1,.5-1.1,0-2.1-.8-.95-.75a2.15,2.15,0,0,1-.35-1.15V53.2l-5.15-2.5L60.3,50A2,2,0,0,1,60,48.9V38.1a1.89,1.89,0,0,1,.5-1.3l6.25-7a2.11,2.11,0,0,1,1.1-.65l1.25.15"/><path class="cls-5" d="M78.1,35.5l-6.65,7.1L62,38.1l6.25-7L78.1,35.5"/><path class="cls-6" d="M78.1,35.5V46l-5.75,6.1L71.2,53.3l.25-10.7,6.65-7.1"/><path class="cls-7" d="M71.2,53.3l1.15-1.2v1.4L70.4,55.35l-2.1-.8V52l2.9,1.35"/><path class="cls-8" d="M62,38.1l9.45,4.5L71.2,53.3,68.3,52,62,48.9V38.1"/><path class="cls-4" d="M78.9,23.55,92.2,21a1.76,1.76,0,0,1,1.35.25,1.88,1.88,0,0,1,.9,1.1l3.6,11,.1.6V55.6a2,2,0,0,1-.45,1.3,2.21,2.21,0,0,1-1.25.7l-5,.75v2.3a2.05,2.05,0,0,1-.4,1.25,2.42,2.42,0,0,1-1.1.7l-2.7.7L86,63.15a1.91,1.91,0,0,1-1-.95l-1.15-2.5,0-.15-1.1.2a2,2,0,0,1-2.2-1.4l-3.15-10.6-.1-.6V25.5a1.92,1.92,0,0,1,.45-1.25,1.74,1.74,0,0,1,1.2-.7m.35,1.95V47.15l3.15,10.6,3.25-.5v1.6l1.15,2.5,2.7-.7v-4l6.65-1V33.85l-3.6-11-13.3,2.6"/><path class="cls-6" d="M79.25,25.5,82.4,36.2V57.75l-3.15-10.6V25.5"/><path class="cls-8" d="M96.15,33.85V55.6l-6.65,1-3.85.6-3.25.5V36.2l13.75-2.35"/><path class="cls-7" d="M89.5,56.65v4l-2.7.7-1.15-2.5v-1.6l3.85-.6"/><path class="cls-5" d="M79.25,25.5l13.3-2.6,3.6,11L82.4,36.2,79.25,25.5"/><path class="cls-5" d="M13.8,54.9l13.3-2.6,3.6,11L17,65.6,13.8,54.9"/><path class="cls-4" d="M13.8,54.9V76.55L17,87.15l3.25-.5v1.6l1.15,2.5,2.7-.7v-4l6.65-1V63.25l-3.6-11L13.8,54.9m14.3-4.3a1.88,1.88,0,0,1,.9,1.1l3.6,10.95.1.6V85a2,2,0,0,1-.45,1.3A2.21,2.21,0,0,1,31,87l-4.95.75v2.3a2.05,2.05,0,0,1-.4,1.25,2.42,2.42,0,0,1-1.1.7l-2.7.7-1.35-.15a1.91,1.91,0,0,1-.95-1L18.4,89.1l0-.15-1.1.2a2,2,0,0,1-2.2-1.4L11.9,77.15l-.1-.6V54.9a1.92,1.92,0,0,1,.45-1.25,1.74,1.74,0,0,1,1.2-.7l13.3-2.6a1.76,1.76,0,0,1,1.35.25"/><path class="cls-8" d="M17,65.6,30.7,63.25V85l-6.65,1-3.85.6-3.25.5V65.6"/><path class="cls-7" d="M24.05,86.05v4l-2.7.7-1.15-2.5v-1.6l3.85-.6"/><path class="cls-6" d="M13.8,54.9,17,65.6V87.15L13.8,76.55V54.9"/><path class="cls-4" d="M50.2,81.2l.3,1v10.5a2,2,0,0,1-.55,1.4l-5.2,5.5v.6l-.15.8-.45.65-1.95,1.85-1,.5-1.1,0-2.1-.8-1-.75a2.15,2.15,0,0,1-.35-1.15V100l-5.15-2.5a1.89,1.89,0,0,1-.85-.75,2,2,0,0,1-.3-1V84.85a1.89,1.89,0,0,1,.5-1.3l6.25-7a2.11,2.11,0,0,1,1.1-.65L39.5,76l9.85,4.45a1.78,1.78,0,0,1,.85.75M38.7,98.7v2.6l2.1.8,2-1.85v-1.4l5.75-6.1V82.25L38.65,77.8l-6.25,7v10.8l6.3,3"/><path class="cls-7" d="M38.7,98.7l2.9,1.35,1.15-1.2v1.4l-2,1.85-2.1-.8V98.7"/><path class="cls-6" d="M42.75,98.85l-1.15,1.2.25-10.7,6.65-7.1v10.5l-5.75,6.1"/><path class="cls-8" d="M41.6,100.05,38.7,98.7l-6.3-3V84.85l9.45,4.5-.25,10.7"/><path class="cls-5" d="M32.4,84.85l6.25-7,9.85,4.45-6.65,7.1-9.45-4.5"/><path class="cls-4" d="M108.2,68.8l.3,1v10.5a2,2,0,0,1-.55,1.4l-5.2,5.5v.6l-.15.8-.45.65-2,1.85-1,.5-1.1-.05L96,90.8a2,2,0,0,1-1.3-1.9V87.55l-5.15-2.5-.85-.75a2,2,0,0,1-.3-1V72.45a1.89,1.89,0,0,1,.5-1.3l6.25-7.05a2.11,2.11,0,0,1,1.1-.65l1.25.15,9.85,4.45.85.75m-7.45,17.65,5.75-6.1V69.85L96.65,65.4l-6.25,7v10.8l6.3,3v2.6l2.1.8,2-1.85v-1.4"/><path class="cls-6" d="M100.75,86.45l-1.15,1.2L99.85,77l6.65-7.1v10.5l-5.75,6.1"/><path class="cls-5" d="M106.5,69.85,99.85,77l-9.45-4.5,6.25-7,9.85,4.45"/><path class="cls-8" d="M99.85,77l-.25,10.7L96.7,86.3l-6.3-3V72.45L99.85,77"/><path class="cls-7" d="M99.6,87.65l1.15-1.2v1.4l-2,1.85-2.1-.8V86.3l2.9,1.35"/></g></g></svg>