<svg xmlns="http://www.w3.org/2000/svg" viewBox="0 0 120 140"><defs><style>.cls-1{fill:#e5d5b2;}.cls-2{fill:#ecdcb8;}.cls-3{fill:#e0d1af;}.cls-4{fill-opacity:0.1;}.cls-5{fill:#27ae60;}.cls-6{fill:#1a7741;}.cls-7{fill:#2bc46c;}.cls-8{fill:#266030;}.cls-9{fill:#d8a36d;}.cls-10{fill:#5b4c3c;}.cls-11{fill:#348442;}.cls-12{fill:#d9d9d9;}.cls-13{fill:#be9060;}.cls-14{fill:#3d8e4b;}.cls-15{fill:#449d54;}.cls-16{fill:#a07a50;}.cls-17{fill:#917249;}.cls-18{fill:#b48e5c;}.cls-19{fill:#95724a;}.cls-20{fill:#775029;}.cls-21{fill:#a8733d;}.cls-22{fill:#855b30;}.cls-23{fill:#bb8044;}.cls-24{fill:#464646;}.cls-25{fill:#8a3f23;}.cls-26{fill:#d26f49;}.cls-27{fill:#666;}.cls-28{fill:#bb5f3c;}.cls-29{fill:gray;}</style></defs><title>Asset 151</title><g id="Layer_2" data-name="Layer 2"><g id="Layer_1-2" data-name="Layer 1"><path class="cls-1" d="M83.05,23.05l0,.05A38.37,38.37,0,0,0,60,38.75a51.77,51.77,0,0,0-6.8,14.3,44.24,44.24,0,0,1-2.4,7.05l-2,3.95Q40.95,77.6,23,83.15l.05,0A39.28,39.28,0,0,0,6,91.9v-22l.85-3A60.49,60.49,0,0,1,9.5,60.1q8.4-18.49,27.55-23.25l0-.05q15.11-4.69,23-15l2.6-3.9A44.83,44.83,0,0,0,65.9,10.5L85.85,22.15l-2.8.9m-29.7-.45L49,23.3,48.3,19l4.35-.7.7,4.35m29.2,8.5,1.75,4L80.3,37l-1.75-4,4-1.85M79.3,40.35l-.45,3.1-3.15-.4.4-3.15,3.2.45m26.1-6.8,5.65,3.3h0A5.83,5.83,0,0,1,114,42v8.7l-.8,2.35a39,39,0,0,1-2.4,7.05l-2,3.95Q101,77.6,83.05,83.15l0,0A38.43,38.43,0,0,0,60,98.8a51.69,51.69,0,0,0-6.8,14.35,42.65,42.65,0,0,1-2.4,7l-2,3.95-1,1.7-30.3-17.65A39,39,0,0,1,37.05,97l0,0q15.11-4.7,23-15.05l2.6-3.9A43.55,43.55,0,0,0,67,67a53.62,53.62,0,0,1,2.6-6.85Q78,41.61,97.1,36.85l0-.05a61.49,61.49,0,0,0,8.35-3.25M10.1,48.9l-.85-2.1,2-.9L12.1,48l-2,.95M13.6,44,10.85,40.2l3.75-2.8,2.85,3.75L13.6,44m5.25-6.25,3.25-2.6,2.55,3.25L21.45,41l-2.6-3.25M41.5,85.2l-3.6,6.65-6.55-3.5,3.55-6.7,6.6,3.55M26.1,92.9l1-4,4,.95-1,4.05-4-1m87.15-20.65-.75,6.55L106,78.05l.75-6.6,6.55.8M91.4,86.05,90.15,89l-2.9-1.2,1.2-3,3,1.25M87.2,91h4.6V95.5H87.25l0-4.55m9.9,6,0,0a49.44,49.44,0,0,0,17-8.8v10a5.89,5.89,0,0,1-.8,3,6.35,6.35,0,0,1-2.2,2.2h0L66.3,129.3,67,127a53.62,53.62,0,0,1,2.6-6.85Q78,101.7,97.1,97M58.8,66H54.25l0-4.55h4.6V66M58,72l1,7-7.1,1.1-1-7L58,72M76.8,91.45,83,93.9,80.5,100l-6.15-2.4,2.45-6.15M63,118.6l1.75,4-4,1.85-1.75-4,4-1.85m-2.75-11.9,1-2,2,1-1.15,2-1.9-1"/><path class="cls-2" d="M60.25,106.7l1.9,1,1.15-2-2-1-1,2m22.8-83.65,2.8-.9L65.9,10.5a44.83,44.83,0,0,1-3.35,7.35L60,21.75q-7.85,10.35-23,15l0,.05Q17.9,41.61,9.5,60.1A60.49,60.49,0,0,0,6.85,67L6,69.9v22a39.28,39.28,0,0,1,17-8.7l-.05,0q18-5.55,25.8-19.1l2-3.95a44.24,44.24,0,0,0,2.4-7.05A51.77,51.77,0,0,1,60,38.75,38.37,38.37,0,0,1,83.1,23.1l0-.05M18.35,24.3l27.5-16h0L60,0l60,35v70L60,140,0,105V35L17.25,25l.05-.05h.05l1-.6m61,16.05-3.2-.45-.4,3.15,3.15.4.45-3.1m3.25-9.25-4,1.85,1.75,4,4-1.85-1.75-4m-29.2-8.5-.7-4.35L48.3,19,49,23.3l4.35-.7M105.4,33.55a61.49,61.49,0,0,1-8.35,3.25l0,.05Q77.94,41.61,69.55,60.1A53.62,53.62,0,0,0,67,67a43.55,43.55,0,0,1-4.4,11L60,81.85Q52.11,92.2,37,96.9l0,0a39,39,0,0,0-19.6,11.2l30.3,17.65,1-1.7,2-3.95a42.65,42.65,0,0,0,2.4-7A51.69,51.69,0,0,1,60,98.8,38.43,38.43,0,0,1,83.1,83.2l0,0q18-5.55,25.75-19.1l2-3.95a39,39,0,0,0,2.4-7.05l.8-2.35V42a5.83,5.83,0,0,0-3-5.15h0l-5.65-3.3M87.2,91l0,4.55H91.8V91H87.2m4.2-4.9-3-1.25-1.2,3,2.9,1.2,1.25-2.9m21.85-13.8-6.55-.8-.75,6.6,6.55.75.75-6.55M26.1,92.9l4,1,1-4.05-4-.95-1,4m15.4-7.7-6.6-3.55-3.55,6.7,6.55,3.5,3.6-6.65M18.85,37.7,21.45,41l3.2-2.6L22.1,35.1l-3.25,2.6M13.6,44l3.85-2.8L14.6,37.4l-3.75,2.8L13.6,44M10.1,48.9l2-.95-.85-2.05-2,.9.85,2.1M97.1,97q-19.15,4.76-27.55,23.2A53.62,53.62,0,0,0,67,127l-.65,2.3,44.75-26.1h0a6.35,6.35,0,0,0,2.2-2.2,5.89,5.89,0,0,0,.8-3v-10a49.44,49.44,0,0,1-17,8.8l0,0M63,118.6l-4,1.85,1.75,4,4-1.85-1.75-4M76.8,91.45,74.35,97.6,80.5,100,83,93.9,76.8,91.45M58,72l-7.1,1.1,1,7L59,79l-1-7m.85-6V61.45H54.2l0,4.55H58.8"/><path class="cls-3" d="M17.3,24.9l1.05-.6-1,.6H17.3"/><path class="cls-4" d="M31.1,65.45Q33.65,67,33.65,69c0,1.37-.85,2.53-2.55,3.5A11.93,11.93,0,0,1,25,74a11.93,11.93,0,0,1-6.15-1.5c-1.7-1-2.55-2.13-2.55-3.5s.85-2.55,2.55-3.55A12.22,12.22,0,0,1,25,64a12.22,12.22,0,0,1,6.15,1.45"/><path class="cls-5" d="M21.25,57.9V46A3.5,3.5,0,0,1,24.7,42.5a3.21,3.21,0,0,1,2.4,1,3.27,3.27,0,0,1,1,2.4v9.2l.85.05.15-.1,0-.15v-5.3a1.91,1.91,0,0,1,.65-1.45,2.05,2.05,0,0,1,3.5,1.45V55a4.34,4.34,0,0,1-1.25,3.1h0A4.16,4.16,0,0,1,29,59.3H28.1V67a1.88,1.88,0,0,1-1,1.6,4.35,4.35,0,0,1-2.4.65,4.43,4.43,0,0,1-2.45-.65,1.88,1.88,0,0,1-1-1.6v-4.9h.45a1.91,1.91,0,0,0,1.45-.65,2,2,0,0,0,.6-1.45,1.91,1.91,0,0,0-.65-1.45,2,2,0,0,0-1.45-.6h-.4"/><path class="cls-6" d="M21.25,57.9,20.8,58l-.15-.05v0l-.1-.15V52.45A2,2,0,0,0,20,51a2.05,2.05,0,0,0-2.9,0,2,2,0,0,0-.6,1.5V57.7a4.27,4.27,0,0,0,4.35,4.35h.45V67a1.88,1.88,0,0,0,1,1.6,4.43,4.43,0,0,0,2.45.65,4.35,4.35,0,0,0,2.4-.65,1.88,1.88,0,0,0,1-1.6V59.3H29A4.16,4.16,0,0,0,32,58.05h0A4.34,4.34,0,0,0,33.3,55v-5.3a2.05,2.05,0,0,0-3.5-1.45,1.91,1.91,0,0,0-.65,1.45V55l0,.15-.15.1-.85-.05V46a3.27,3.27,0,0,0-1-2.4,3.21,3.21,0,0,0-2.4-1A3.5,3.5,0,0,0,21.25,46V57.9m-.4-15.75A5.18,5.18,0,0,1,24.7,40.5a5.12,5.12,0,0,1,3.85,1.7v-.05a5.14,5.14,0,0,1,1.55,3.5h.75l.4,0a4,4,0,0,1,2.9,1.2,3.87,3.87,0,0,1,1.15,2.85V55a6.33,6.33,0,0,1-1.8,4.5l-.25.25a6.41,6.41,0,0,1-3.15,1.5V67a3.67,3.67,0,0,1-1.9,3.3,6.27,6.27,0,0,1-3.5,1,6.37,6.37,0,0,1-3.55-1,3.67,3.67,0,0,1-1.9-3.3V63.9a6.1,6.1,0,0,1-2.9-1.65l-.1,0a6.33,6.33,0,0,1-1.8-4.5V52.45a3.85,3.85,0,0,1,1.2-2.9,3.8,3.8,0,0,1,2.85-1.2l.6,0,.15.05V46A5.11,5.11,0,0,1,20.8,42.2l.05-.05"/><path class="cls-7" d="M21.25,57.9h.4a2,2,0,0,1,1.45.6A1.91,1.91,0,0,1,23.75,60a2,2,0,0,1-.6,1.45,1.91,1.91,0,0,1-1.45.65h-.9a4.27,4.27,0,0,1-4.35-4.35V52.45a2,2,0,0,1,.6-1.5A2.05,2.05,0,0,1,20,51a2,2,0,0,1,.6,1.5V57.7l.1.15v0l.15.05.45-.05"/><path class="cls-8" d="M47.3,33.45l8-9.5a1.74,1.74,0,0,1,1.35-.7L72.6,22l.85.15a2.42,2.42,0,0,1,.75.45L90,38.55l-1.3,1.55L72.75,24l-16,1.3-9,10.65-.5-2.45m-20,25.3.15-.25,7.2-11.2v-.45l2,.95v.05L29.1,59.55v.05l-1.8-.85"/><path class="cls-9" d="M40.75,36.8l2.6-3L47.8,35.9l10.65,5,8.7,4L64.55,48,40.75,36.8M26.5,90.6l2.6-3.1,1.9.85L32.2,87v-3.1l4.2-4.95.75.3,22,10.3v12l1.9.85-2.6,3.1L26.5,90.6M36.65,44l2.6-3,1.5.7V45.9L36.65,44M68.6,58.9l-4-1.9,2.6-3,4,1.9-2.6,3m-35.45,5,1.9.9L32.2,68.15l1,.5,2.45-3,.35-.4v0l23.1,10.8v6.7L31,69.55l1.2-1.4v-3.1l.95-1.15M31,73.85l1.2-1.45v-.6L59.15,84.4V87L31,73.85m37.6.8L62.25,82.2V76l1.9.9,2.6-3.1,1.85.9M49.2,96.75l3.5,1.65,5.15-6.35-3.3-1.6-5.35,6.3m1.5-9.55L48.3,90l3.5,1.65,2.3-2.8L50.7,87.2m17.9,6.25-6.25,7.45-.1.1V90.5l6.35,3m0-14.5L62.25,86.5V83.9l4.85-5.7,1.5.75"/><path class="cls-10" d="M90,38.55l.25.25a2,2,0,0,1,.55,1.4V72.25a2,2,0,0,1-.45,1.3L60,109.3a2.11,2.11,0,0,1-1.1.65l-1.3-.15-31.95-15-.8-.7a1.89,1.89,0,0,1-.35-1.1V90.6a1.82,1.82,0,0,1,.5-1.25l2.1-2.55V59.55l.2-.8,1.8.85V87.5l-2.6,3.1v2.45l32,15,30.3-35.75v-32l-.1-.1L90,38.55m-55.3,8.3V44a1.89,1.89,0,0,1,.5-1.3l2.6-3a1.62,1.62,0,0,1,1-.6V36.8a1.89,1.89,0,0,1,.5-1.3l2.6-3A2.11,2.11,0,0,1,43,31.8l1.3.15,3,1.5.5,2.45-4.45-2.15-2.6,3v4.85l-1.5-.7-2.6,3V47.8l-2-.95M32.2,63.45l.95.45-.95,1.15v-1.6M36.4,78.9l-4.2,4.95V76.9l2.1,1,.55.25,1.55.75"/><path class="cls-11" d="M47.8,35.9l9-10.65,16-1.3-14.3,16.9-10.65-5"/><path class="cls-12" d="M44.35,48.65V41.3L61,49.1v7.3l-16.6-7.75"/><path class="cls-13" d="M44.35,48.65,61,56.4V49.1l-16.6-7.8v7.35M40.75,36.8,64.55,48v9l4,1.9v3.9L36.65,47.85V44l4.1,1.95V36.8M58.45,108l-31.95-15V90.6l32,14.9V108M29.1,87.5V59.55l1,.5,1,.45,29.95,14v27.9l-1.9-.85v-12l-22-10.3-2.3-1-.55-.25-2.1-1L31,76.35v12l-1.9-.85m3.1-24L31,62.9v6.65l28.15,13.2v-6.7l-23.1-10.8-1-.45-1.9-.9-.95-.45m0,8.35L31,71.25v2.6L59.15,87V84.4L32.2,71.8M62.25,76l0-1,6.3-9.7v9.35l-1.85-.9-2.6,3.1-1.9-.9M50.7,87.2l3.4,1.65-2.3,2.8L48.3,90l2.4-2.8m-1.5,9.55,5.35-6.3,3.3,1.6L52.7,98.4l-3.5-1.65m13-6.25V89l6.35-7.5v12l-6.35-3M67.4,77.8l1.2-1.45V79l-1.5-.75.3-.4"/><path class="cls-14" d="M69.05,47.05l2.7-3L75.6,48.3l-2.55,3.05-4-4.3M36.7,54.1,41.1,56l-2.5,4.3-2.5-1.2-1-.45-1-.5,2.6-4"/><path class="cls-15" d="M36.7,54.1l-2.6,4,1,.5,1,.45,2.5,1.2L41.1,56l-4.4-1.9M72.75,24,88.65,40.1l.1.1L71.2,61v-5.1l-4-1.9V44.9l-8.7-4L72.75,24m-3.7,23.1,4,4.3L75.6,48.3l-3.85-4.25-2.7,3m-32.4.8L68.6,62.8,61.05,74.5,31.1,60.5l-1-.45-1-.5,7.55-11.7"/><path class="cls-16" d="M64.55,48l2.6-3.05V54l-2.6,3V48m24.2-7.75V72.25L58.45,108v-2.5l2.6-3.1V74.5L68.6,62.8V58.9l2.6-3V61L88.75,40.2M31,69.55V62.9l1.2.55v4.7L31,69.55m4-4.75,1,.45-.35.45-2.45,3-1-.5,2.85-3.35m-2.85,7v.6L31,73.85v-2.6l1.2.55m0,12V87L31,88.35v-12l1.2.55v6.95m53-12.15V68L76.9,77.7v3.75l8.25-9.75m-9.9-1.15,6-7.1V59.7l-6,7.1v3.75m2.4-1.15-6,7.1v3.75l6-7.1V69.4M68.6,74.65V65.3L62.3,75l0,1V82.2l6.35-7.55m0,18.8v-12L62.25,89v12l.1-.1,6.25-7.45M67.1,78.2l-4.85,5.7v2.6L68.6,79v-2.6L67.4,77.8l-.35.4h0"/><path class="cls-17" d="M36.05,65.25v0l-.35.4.35-.45"/><path class="cls-18" d="M37.15,79.2l-.75-.3-1.55-.75,2.3,1m29.95-1h0l.35-.4-.3.4"/><path class="cls-19" d="M85.15,71.7,76.9,81.45V77.7L85.15,68V71.7m-7.5-2.3v3.75l-6,7.1V76.5l6-7.1m-2.4,1.15V66.8l6-7.1v3.75l-6,7.1"/><path class="cls-20" d="M94.1,82.5l-.9.55L92,83l-.85-.35L83.4,91.8v2.65l-.25,1-.25.3-1.8,2-1.1.6-1.25-.15L76.1,97l-.85-.75a2,2,0,0,1-.3-1V85.55a1.93,1.93,0,0,1,.55-1.35l1.9-2.1a1.67,1.67,0,0,1,1.1-.6h.85l8.7-10V70.1a1.89,1.89,0,0,1,.5-1.3L90.15,67a1.87,1.87,0,0,1,1-.65l1.2.1,2.6,1,.9.75a1.89,1.89,0,0,1,.35,1.1v10l-.45,1.3L94.25,82.4l-.15.1m-4-12.4v2.1L79.85,84l-1-.5L77,85.55V95.2l2.65,1.3,1.8-2v-3.4l10.75-12.7-1.55,2,2.1.8,1.55-1.85v-10l-2.6-1-1.6,1.85"/><path class="cls-21" d="M90.05,70.1l2.65,1.3v1.85l-2.65-1V70.1M79.6,86.6v9.9L77,95.2V85.55l2.65,1m12.55-8.25.55-.65v3.4l-2.1-.8,1.55-2"/><path class="cls-22" d="M92.15,78.35,81.4,91.05v3.4l-1.8,2V86.6l1.8-1.85V86.6L92.7,73.25V71.4l1.55-2.1v10L92.7,81.1V77.7l-.55.65"/><path class="cls-23" d="M92.7,71.4l-2.65-1.3,1.6-1.85,2.6,1L92.7,71.4m-2.65.8,2.65,1L81.4,86.6V84.75L79.6,86.6l-2.65-1,1.9-2.1,1,.5L90.05,72.2"/><path class="cls-4" d="M94.1,82.5l-10.95,13,.25-1V91.8l7.75-9.15L92,83l1.2,0,.9-.55"/><path class="cls-24" d="M89.4,75.05l.1-.2.7-.7,6.9-4.45a1.8,1.8,0,0,1,1-.35l1,.2,11,5.15.85.75-1.7,1.1v0l-11-5.15-6.9,4.45v.1l-1.85-.85"/><path class="cls-25" d="M89.4,75.05l1.85.85V91.35L94,92.7l5.35,2.45,3,1.35,6.9-8.15V76.55l1.7-1.1.3,1V88.35l-.45,1.3-6.9,8.15-1.1.65-1.3-.15-11-5.15-.8-.7a1.89,1.89,0,0,1-.35-1.1V75.8a1.86,1.86,0,0,1,.15-.75"/><path class="cls-26" d="M91.25,75.9v-.1l11,5.15V96.5l-3-1.35V87.1L94,84.65v8l-2.7-1.35V75.9"/><path class="cls-27" d="M94,92.7v-8L99.3,87.1v8.05L94,92.7"/><path class="cls-28" d="M109.15,76.5V88.35l-6.9,8.15V81l6.9-4.45"/><path class="cls-29" d="M109.15,76.5,102.25,81l-11-5.15,6.9-4.45,11,5.15"/></g></g></svg>