<svg xmlns="http://www.w3.org/2000/svg" viewBox="0 0 120 140"><defs><style>.cls-1{fill:#a4afaf;}.cls-2{fill:#9ba6a6;}.cls-3{fill:#a9b6b6;}.cls-4{fill:#115f32;}.cls-5{fill:#1b914d;}.cls-6{fill:#198a49;}.cls-7{fill-opacity:0.1;}.cls-8{fill:#bb8044;}</style></defs><title>Asset 88</title><g id="Layer_2" data-name="Layer 2"><g id="Layer_1-2" data-name="Layer 1"><path class="cls-1" d="M37.4,116l5.9,2.75,3.7-4.35-5.9-2.75L37.4,116M0,35,60,0l60,35v70L60,140,0,105V35M58.9,14.45l5.9,2.75,3.7-4.35L62.6,10.1l-3.7,4.35M88.35,25.6,84.65,30l5.9,2.75,3.7-4.35-5.9-2.75M82.4,41.5l5.85-6.85L79,30.35l-5.8,6.8L82.4,41.5M33.05,28.1l-5.8,6.8,9.25,4.35,5.85-6.85-9.3-4.3M12.15,67.15,21.4,71.5l5.85-6.85L18,60.35l-5.8,6.8M29.65,80.5l5.85-6.85-9.3-4.3-5.8,6.8,9.25,4.35M30.9,63.7l5.9,2.75,3.7-4.35-5.9-2.75L30.9,63.7m30.75,0,5.9,2.75,3.7-4.35-5.9-2.75-3.7,4.35m13,12.4,5.85-6.85L71.2,65l-5.8,6.8,9.25,4.35M47,105.6l-5.9-2.75-3.7,4.35L43.3,110,47,105.6M18.5,78.85,12.6,76.1,8.9,80.45l5.9,2.75,3.7-4.35M84.65,105.6l-5.9-2.75-3.7,4.35L81,110l3.7-4.35M83.2,90.35l-5.8,6.8,9.25,4.35,5.85-6.85-9.3-4.3m20-23.75,5.9,2.75,3.7-4.35-5.9-2.75-3.7,4.35M90.9,34.7l5.9,2.75,3.7-4.35-5.9-2.75L90.9,34.7m0,31.9,5.9,2.75L100.5,65l-5.9-2.75L90.9,66.6m8,36L93,99.85l-3.7,4.35L95.2,107l3.7-4.35M29.3,117.05,33,112.7,27.1,110l-3.7,4.35,5.9,2.75"/><path class="cls-2" d="M29.3,117.05l-5.9-2.75L27.1,110,33,112.7l-3.7,4.35M88.35,25.6l5.9,2.75-3.7,4.35L84.65,30l3.7-4.35M58.9,14.45l3.7-4.35,5.9,2.75L64.8,17.2l-5.9-2.75M33.05,28.1l9.3,4.3L36.5,39.25,27.25,34.9l5.8-6.8M18.5,78.85,14.8,83.2,8.9,80.45l3.7-4.35,5.9,2.75M47,105.6,43.3,110l-5.9-2.75,3.7-4.35L47,105.6M74.65,76.1,65.4,71.75,71.2,65l9.3,4.3L74.65,76.1m-13-12.4,3.7-4.35,5.9,2.75-3.7,4.35-5.9-2.75M83.2,90.35l9.3,4.3-5.85,6.85L77.4,97.15l5.8-6.8M90.9,66.6l3.7-4.35L100.5,65l-3.7,4.35L90.9,66.6"/><path class="cls-3" d="M82.4,41.5l-9.25-4.35,5.8-6.8,9.3,4.3L82.4,41.5M30.9,63.7l3.7-4.35,5.9,2.75-3.7,4.35L30.9,63.7M29.65,80.5,20.4,76.15l5.8-6.8,9.3,4.3L29.65,80.5M12.15,67.15l5.8-6.8,9.3,4.3L21.4,71.5l-9.25-4.35m72.5,38.45L81,110l-5.9-2.75,3.7-4.35,5.9,2.75M90.9,34.7l3.7-4.35,5.9,2.75-3.7,4.35L90.9,34.7m12.25,31.9,3.7-4.35,5.9,2.75-3.7,4.35-5.9-2.75m-4.25,36L95.2,107l-5.9-2.75L93,99.85l5.9,2.75M37.4,116l3.7-4.35,5.9,2.75-3.7,4.35L37.4,116"/><path class="cls-4" d="M47.65,68l-.4-.35a8.75,8.75,0,0,1-2.7-6.1V60.1a76,76,0,0,1,2.05-19l.15-.6a24.11,24.11,0,0,1,2.45-6.35q1.95-3.3,4.55-3c1.73-.17,3.27.87,4.6,3.1a26.43,26.43,0,0,1,2.45,6.3L61,41a79,79,0,0,1,2,19.1v1.4a8.83,8.83,0,0,1-2.65,6.1l-.3.3-1.85,1.3v.45a4.07,4.07,0,0,1-1.2,3l-.15.15a4.07,4.07,0,0,1-3,1.2h0a4.27,4.27,0,0,1-4.35-4.35V69.2A11.08,11.08,0,0,1,47.65,68M59.15,42.2l-.3-1.2-.5-1.75q-1.7-5.4-4-6l-.65-.1-.65.1q-2.25.64-3.9,6L48.65,41l-.3,1.2-1.1,6L47,50.45l-.25,3.1-.2,4.85v3a6.89,6.89,0,0,0,2.1,4.75l1.3,1,1.45.7v1.75a2.24,2.24,0,0,0,.65,1.65,2.3,2.3,0,0,0,1.7.7h0a2.39,2.39,0,0,0,2.35-2.35V67.9l1.55-.75,1.15-1A6.89,6.89,0,0,0,61,61.4v-3l-.2-4.85-.25-3.1-.25-2.25-1.1-6"/><path class="cls-5" d="M59.15,42.2l-.3.1-.2.1-.95.2-1.55.25-2.4.1-2.35-.1L50,42.65,48.9,42.4l-.25-.1-.3-.1.3-1.2.55-1.75q1.65-5.4,3.9-6l.65-.1.65.1q2.25.64,4,6l.5,1.75.3,1.2m1.1,6,.25,2.25.25,3.1a4.25,4.25,0,0,1-1.9,2l-1.15.6-1.55.45-2.4.25-2.35-.25L50,56.15a5.85,5.85,0,0,1-1.3-.65,4.25,4.25,0,0,1-1.9-2l.25-3.1.25-2.25.1,0,1.3.85,1.3.5L51.4,50l2.35.2,2.4-.2,1.55-.35,1.15-.5,1.35-.85,0,0M61,59.1v2.3a6.89,6.89,0,0,1-2.1,4.75l-1.15,1-1.55.75-2.4.35L51.4,67.9,50,67.2l-1.3-1a6.89,6.89,0,0,1-2.1-4.75V59.1a4.92,4.92,0,0,0,2.1,3.75l1.3.85,1.45.55,2.35.3,2.4-.3,1.55-.6,1.15-.8A4.92,4.92,0,0,0,61,59.1"/><path class="cls-6" d="M61,59.1a4.92,4.92,0,0,1-2.1,3.75l-1.15.8-1.55.6-2.4.3-2.35-.3L50,63.7l-1.3-.85a4.92,4.92,0,0,1-2.1-3.75v-.7l.2-4.85a4.25,4.25,0,0,0,1.9,2,5.85,5.85,0,0,0,1.3.65l1.45.4,2.35.25,2.4-.25,1.55-.45,1.15-.6a4.25,4.25,0,0,0,1.9-2L61,58.4v.7m-1.8-16.9,1.1,6,0,0-1.35.85-1.15.5L56.15,50l-2.4.2L51.4,50,50,49.6l-1.3-.5-1.3-.85-.1,0,1.1-6,.3.1.25.1,1.05.25,1.45.2,2.35.1,2.4-.1,1.55-.25.95-.2.2-.1.3-.1"/><path class="cls-7" d="M60,67.9l.7.3q2.8,1.5,2.8,3.6t-2.8,3.55a14.23,14.23,0,0,1-6.8,1.5,14.23,14.23,0,0,1-6.8-1.5q-2.81-1.45-2.8-3.55t2.8-3.6l.55-.25A11.08,11.08,0,0,0,49.4,69.2v.45A4.27,4.27,0,0,0,53.75,74h0a4.07,4.07,0,0,0,3-1.2l.15-.15a4.07,4.07,0,0,0,1.2-3V69.2L60,67.9"/><path class="cls-8" d="M56.15,67.9v1.75A2.39,2.39,0,0,1,53.8,72h0a2.3,2.3,0,0,1-1.7-.7,2.24,2.24,0,0,1-.65-1.65V67.9l2.35.35,2.4-.35"/><path class="cls-4" d="M46.9,78.35l1.75-1.1.2-.15A4.53,4.53,0,0,0,50,74.15V73.3a49.92,49.92,0,0,0-1.35-12.5q-1.4-5.14-3.35-5.15T42,60.8a48.37,48.37,0,0,0-1.4,12.5v.85a4.3,4.3,0,0,0,1.25,2.95l.15.15a4.34,4.34,0,0,0,1.75,1.1V79.5a1.5,1.5,0,0,0,.45,1.1l1.1.45h.05a1.35,1.35,0,0,0,1-.45,1.44,1.44,0,0,0,.5-1.1V78.35m-6.8-.25a6,6,0,0,1-1.5-3.9v-.9a48.75,48.75,0,0,1,1.5-13q1.84-7.09,5.2-6.65,3.35-.49,5.3,6.65a52.21,52.21,0,0,1,1.4,13v.9a6.53,6.53,0,0,1-1.4,4l-.5.55h-.05l-1.15.9a3.21,3.21,0,0,1-1,2.35l-.15.15a3.51,3.51,0,0,1-2.4,1H45.3a3.38,3.38,0,0,1-2.5-1,3.48,3.48,0,0,1-1-2.45l-1.15-.9h0l-.55-.6"/><path class="cls-5" d="M43.75,78.35A4.34,4.34,0,0,1,42,77.25l-.15-.15a4.3,4.3,0,0,1-1.25-2.95V73.3A48.37,48.37,0,0,1,42,60.8q1.35-5.14,3.3-5.15t3.35,5.15A49.92,49.92,0,0,1,50,73.3v.85a4.53,4.53,0,0,1-1.15,2.95l-.2.15-1.75,1.1-1.6.25-1.55-.25"/><path class="cls-7" d="M50.6,78.15a3.36,3.36,0,0,1,1.5,2.7,3.72,3.72,0,0,1-2,3.1,8.34,8.34,0,0,1-4.75,1.3,8.57,8.57,0,0,1-4.8-1.3,3.72,3.72,0,0,1-1.95-3.1,3.48,3.48,0,0,1,1.5-2.75l.55.6h0l1.15.9a3.48,3.48,0,0,0,1,2.45,3.38,3.38,0,0,0,2.5,1h.05a3.51,3.51,0,0,0,2.4-1L47.9,82a3.21,3.21,0,0,0,1-2.35l1.15-.9h.05l.5-.55"/><path class="cls-8" d="M46.9,78.35V79.5a1.44,1.44,0,0,1-.5,1.1,1.35,1.35,0,0,1-1,.45H45.3l-1.1-.45a1.5,1.5,0,0,1-.45-1.1V78.35l1.55.25,1.6-.25"/><path class="cls-4" d="M71.55,76.05a6,6,0,0,1-1.5-3.9v-.9a48.75,48.75,0,0,1,1.5-13q1.85-7.09,5.2-6.65,3.34-.49,5.3,6.65a52.21,52.21,0,0,1,1.4,13v.9a6.53,6.53,0,0,1-1.4,3.95l-.5.55h0l-1.15.9a3.21,3.21,0,0,1-1,2.35l-.15.15a3.51,3.51,0,0,1-2.4,1h0a3.38,3.38,0,0,1-2.5-1,3.48,3.48,0,0,1-1-2.45l-1.15-.9h0l-.55-.6m6.8.25a5.1,5.1,0,0,0,1.75-1.1l.2-.15a4.53,4.53,0,0,0,1.15-3v-.85a49.92,49.92,0,0,0-1.35-12.5q-1.39-5.14-3.35-5.15t-3.3,5.15a48.37,48.37,0,0,0-1.4,12.5v.85a4.3,4.3,0,0,0,1.25,3l.15.15,1.75,1.1v1.15A1.54,1.54,0,0,0,76.75,79h0l1-.45a1.44,1.44,0,0,0,.5-1.1V76.3"/><path class="cls-5" d="M78.35,76.3l-1.6.25L75.2,76.3l-1.75-1.1-.15-.15a4.3,4.3,0,0,1-1.25-3v-.85a48.37,48.37,0,0,1,1.4-12.5q1.35-5.14,3.3-5.15t3.35,5.15a49.92,49.92,0,0,1,1.35,12.5v.85a4.53,4.53,0,0,1-1.15,3l-.2.15a5.1,5.1,0,0,1-1.75,1.1"/><path class="cls-7" d="M82.05,76.1a3.36,3.36,0,0,1,1.5,2.7,3.72,3.72,0,0,1-2,3.1,8.34,8.34,0,0,1-4.75,1.3A8.57,8.57,0,0,1,72,81.9a3.72,3.72,0,0,1-2-3.1,3.48,3.48,0,0,1,1.5-2.75l.55.6h0l1.15.9a3.48,3.48,0,0,0,1,2.45,3.38,3.38,0,0,0,2.5,1h0a3.51,3.51,0,0,0,2.4-1l.15-.15a3.21,3.21,0,0,0,1-2.35l1.15-.9h0l.5-.55"/><path class="cls-8" d="M78.35,76.3v1.15a1.44,1.44,0,0,1-.5,1.1l-1,.45h0a1.54,1.54,0,0,1-1.55-1.55V76.3l1.55.25,1.6-.25"/><path class="cls-4" d="M72.35,83.55l-1.85,1.3v.45a4.07,4.07,0,0,1-1.2,3l-.15.15a4.07,4.07,0,0,1-3,1.2H66.1a4.27,4.27,0,0,1-4.35-4.35v-.45L60,83.6l-.4-.35a8.75,8.75,0,0,1-2.7-6.1v-1.4a76,76,0,0,1,2.05-19l.15-.6a24.11,24.11,0,0,1,2.45-6.35q2-3.3,4.55-3c1.73-.17,3.27.87,4.6,3.1a26.43,26.43,0,0,1,2.45,6.3l.15.5a79,79,0,0,1,2,19.1v1.4a8.83,8.83,0,0,1-2.65,6.1l-.3.3m-.85-25.7-.3-1.2-.5-1.75q-1.7-5.4-4-6l-.65-.1-.65.1q-2.25.65-3.9,6L61,56.65l-.3,1.2-1.1,6-.25,2.25-.25,3.1-.2,4.85v3A6.89,6.89,0,0,0,61,81.8l1.3,1,1.45.7V85.3A2.24,2.24,0,0,0,64.4,87a2.3,2.3,0,0,0,1.7.7h.05A2.39,2.39,0,0,0,68.5,85.3V83.55l1.55-.75,1.15-1a6.89,6.89,0,0,0,2.1-4.75v-3l-.2-4.85-.25-3.1-.25-2.25-1.1-6"/><path class="cls-5" d="M71.5,57.85l-.3.1-.2.1-1,.2-1.55.25-2.4.1-2.35-.1-1.45-.2-1-.25L61,58l-.3-.1.3-1.2.55-1.75q1.65-5.4,3.9-6l.65-.1.65.1q2.25.65,4,6l.5,1.75.3,1.2m1.1,6,.25,2.25.25,3.1a4.25,4.25,0,0,1-1.9,2l-1.15.6-1.55.45-2.4.25-2.35-.25-1.45-.4L61,71.15a4.25,4.25,0,0,1-1.9-2l.25-3.1.25-2.25.1,0,1.3.85,1.3.5,1.45.35,2.35.2,2.4-.2,1.55-.35,1.15-.5,1.35-.85,0,0m.7,10.9v2.3a6.89,6.89,0,0,1-2.1,4.75l-1.15,1-1.55.75-2.4.35-2.35-.35-1.45-.7-1.3-1a6.89,6.89,0,0,1-2.1-4.75v-2.3A4.92,4.92,0,0,0,61,78.5l1.3.85,1.45.55,2.35.3,2.4-.3,1.55-.6,1.15-.8a4.92,4.92,0,0,0,2.1-3.75"/><path class="cls-6" d="M71.5,57.85l1.1,6,0,0-1.35.85-1.15.5-1.55.35-2.4.2-2.35-.2-1.45-.35-1.3-.5-1.3-.85-.1,0,1.1-6,.3.1.25.1,1,.25,1.45.2,2.35.1,2.4-.1,1.55-.25,1-.2.2-.1.3-.1M73.1,69.2l.2,4.85v.7a4.92,4.92,0,0,1-2.1,3.75l-1.15.8-1.55.6-2.4.3-2.35-.3-1.45-.55L61,78.5a4.92,4.92,0,0,1-2.1-3.75v-.7l.2-4.85a4.25,4.25,0,0,0,1.9,2l1.3.65,1.45.4,2.35.25,2.4-.25,1.55-.45,1.15-.6a4.25,4.25,0,0,0,1.9-2"/><path class="cls-8" d="M68.5,83.55V85.3a2.39,2.39,0,0,1-2.35,2.35H66.1a2.3,2.3,0,0,1-1.7-.7,2.24,2.24,0,0,1-.65-1.65V83.55l2.35.35,2.4-.35"/><path class="cls-7" d="M72.35,83.55l.7.3q2.81,1.5,2.8,3.6T73.05,91a14.23,14.23,0,0,1-6.8,1.5,14.23,14.23,0,0,1-6.8-1.5q-2.81-1.45-2.8-3.55t2.8-3.6L60,83.6l1.75,1.25v.45a4.27,4.27,0,0,0,4.35,4.35h.05a4.07,4.07,0,0,0,3-1.2l.15-.15a4.07,4.07,0,0,0,1.2-3v-.45l1.85-1.3"/><path class="cls-4" d="M79.45,42a5.1,5.1,0,0,0,1.75-1.1l.2-.15a4.53,4.53,0,0,0,1.15-3V36.9A49.92,49.92,0,0,0,81.2,24.4q-1.4-5.14-3.35-5.15t-3.3,5.15a48.37,48.37,0,0,0-1.4,12.5v.85a4.3,4.3,0,0,0,1.25,3l.15.15A4.34,4.34,0,0,0,76.3,42V43.1a1.54,1.54,0,0,0,1.55,1.55h.05a1.35,1.35,0,0,0,1-.45,1.44,1.44,0,0,0,.5-1.1V42m-6.8-.25a6,6,0,0,1-1.5-3.9v-.9a48.75,48.75,0,0,1,1.5-13q1.84-7.09,5.2-6.65,3.34-.49,5.3,6.65a52.21,52.21,0,0,1,1.4,13v.9a6.53,6.53,0,0,1-1.4,4l-.5.55H82.6l-1.15.9a3.21,3.21,0,0,1-1,2.35l-.15.15a3.51,3.51,0,0,1-2.4.95h-.05a3.38,3.38,0,0,1-2.5-1,3.48,3.48,0,0,1-1-2.45l-1.15-.9h0l-.55-.6"/><path class="cls-5" d="M76.3,42a4.34,4.34,0,0,1-1.75-1.1l-.15-.15a4.3,4.3,0,0,1-1.25-3V36.9a48.37,48.37,0,0,1,1.4-12.5q1.35-5.14,3.3-5.15T81.2,24.4a49.92,49.92,0,0,1,1.35,12.5v.85a4.53,4.53,0,0,1-1.15,3l-.2.15A5.1,5.1,0,0,1,79.45,42l-1.6.25L76.3,42"/><path class="cls-7" d="M83.15,41.75a3.36,3.36,0,0,1,1.5,2.7,3.72,3.72,0,0,1-2,3.1,8.34,8.34,0,0,1-4.75,1.3,8.57,8.57,0,0,1-4.8-1.3,3.72,3.72,0,0,1-1.95-3.1,3.48,3.48,0,0,1,1.5-2.75l.55.6h0l1.15.9a3.48,3.48,0,0,0,1,2.45,3.38,3.38,0,0,0,2.5,1h.05a3.51,3.51,0,0,0,2.4-.95l.15-.15a3.21,3.21,0,0,0,1-2.35l1.15-.9h.05l.5-.55"/><path class="cls-8" d="M79.45,42V43.1a1.44,1.44,0,0,1-.5,1.1,1.35,1.35,0,0,1-1,.45h-.05A1.54,1.54,0,0,1,76.3,43.1V42l1.55.25,1.6-.25"/><path class="cls-4" d="M26.9,92.75l-.5.55h0l-1.15.9a3.21,3.21,0,0,1-1,2.35l-.15.15a3.51,3.51,0,0,1-2.4,1h0a3.38,3.38,0,0,1-2.5-1,3.48,3.48,0,0,1-1.05-2.45l-1.15-.9H17l-.55-.6a6,6,0,0,1-1.5-3.9v-.9a48.75,48.75,0,0,1,1.5-13q1.84-7.09,5.2-6.65,3.34-.5,5.3,6.65a52.21,52.21,0,0,1,1.4,13v.9a6.53,6.53,0,0,1-1.4,4m-3.7.2L25,91.85l.2-.15a4.53,4.53,0,0,0,1.15-3V87.9A49.92,49.92,0,0,0,25,75.4q-1.39-5.15-3.35-5.15T18.3,75.4a48.37,48.37,0,0,0-1.4,12.5v.85a4.3,4.3,0,0,0,1.25,3l.15.15A4.34,4.34,0,0,0,20.05,93V94.1a1.54,1.54,0,0,0,1.55,1.55h0a1.35,1.35,0,0,0,1.05-.45,1.44,1.44,0,0,0,.5-1.1V93"/><path class="cls-5" d="M20.05,93a4.34,4.34,0,0,1-1.75-1.1l-.15-.15a4.3,4.3,0,0,1-1.25-3V87.9a48.37,48.37,0,0,1,1.4-12.5q1.35-5.15,3.3-5.15T25,75.4A49.92,49.92,0,0,1,26.3,87.9v.85a4.53,4.53,0,0,1-1.15,3l-.2.15L23.2,93l-1.6.25L20.05,93"/><path class="cls-8" d="M20.05,93l1.55.25L23.2,93V94.1a1.44,1.44,0,0,1-.5,1.1,1.35,1.35,0,0,1-1.05.45h0a1.54,1.54,0,0,1-1.55-1.55V93"/><path class="cls-7" d="M26.9,92.75a3.36,3.36,0,0,1,1.5,2.7,3.72,3.72,0,0,1-2,3.1,8.34,8.34,0,0,1-4.75,1.3,8.57,8.57,0,0,1-4.8-1.3,3.72,3.72,0,0,1-2-3.1,3.48,3.48,0,0,1,1.5-2.75l.55.6H16.9l1.15.9a3.48,3.48,0,0,0,1.05,2.45,3.38,3.38,0,0,0,2.5,1h0a3.51,3.51,0,0,0,2.4-1l.15-.15a3.21,3.21,0,0,0,1-2.35l1.15-.9h0l.5-.55"/><path class="cls-4" d="M83.35,94.1A5.1,5.1,0,0,0,85.1,93l.2-.15a4.53,4.53,0,0,0,1.15-2.95v-.85a49.92,49.92,0,0,0-1.35-12.5q-1.39-5.14-3.35-5.15t-3.3,5.15a48.37,48.37,0,0,0-1.4,12.5v.85a4.3,4.3,0,0,0,1.25,2.95l.15.15a4.34,4.34,0,0,0,1.75,1.1v1.15a1.54,1.54,0,0,0,1.55,1.55h0l1-.45a1.44,1.44,0,0,0,.5-1.1V94.1m-6.8-.25a6,6,0,0,1-1.5-3.9v-.9a48.75,48.75,0,0,1,1.5-13q1.85-7.1,5.2-6.65,3.34-.5,5.3,6.65a52.21,52.21,0,0,1,1.4,13V90a6.53,6.53,0,0,1-1.4,4l-.5.55h0l-1.15.9a3.21,3.21,0,0,1-1,2.35l-.15.15a3.51,3.51,0,0,1-2.4,1h0a3.38,3.38,0,0,1-2.5-1,3.48,3.48,0,0,1-1-2.45l-1.15-.9h0l-.55-.6"/><path class="cls-5" d="M80.2,94.1A4.34,4.34,0,0,1,78.45,93l-.15-.15a4.3,4.3,0,0,1-1.25-2.95v-.85a48.37,48.37,0,0,1,1.4-12.5q1.35-5.14,3.3-5.15t3.35,5.15a49.92,49.92,0,0,1,1.35,12.5v.85a4.53,4.53,0,0,1-1.15,2.95l-.2.15a5.1,5.1,0,0,1-1.75,1.1l-1.6.25L80.2,94.1"/><path class="cls-7" d="M87.05,93.9a3.36,3.36,0,0,1,1.5,2.7,3.72,3.72,0,0,1-2,3.1A8.34,8.34,0,0,1,81.8,101,8.57,8.57,0,0,1,77,99.7a3.72,3.72,0,0,1-2-3.1,3.48,3.48,0,0,1,1.5-2.75l.55.6h0l1.15.9a3.48,3.48,0,0,0,1,2.45,3.38,3.38,0,0,0,2.5,1h0a3.51,3.51,0,0,0,2.4-1l.15-.15a3.21,3.21,0,0,0,1-2.35l1.15-.9h0l.5-.55"/><path class="cls-8" d="M83.35,94.1v1.15a1.44,1.44,0,0,1-.5,1.1l-1,.45h0a1.54,1.54,0,0,1-1.55-1.55V94.1l1.55.25,1.6-.25"/></g></g></svg>