<svg xmlns="http://www.w3.org/2000/svg" viewBox="0 0 120 140"><defs><style>.cls-1{fill:#bb6444;}.cls-2{fill:#b55f40;}.cls-3{fill:#c26948;}.cls-4{fill:#593269;}.cls-5{fill:#c16ee2;}.cls-6{fill:#79468e;}.cls-7{fill:#9b59b6;}.cls-8{fill:#ecdcb8;}.cls-9{fill:#81b0bf;}.cls-10{fill:#d5e5e5;}.cls-11{fill:#727979;}.cls-12{fill:#d7f4ff;}.cls-13{fill:#c4f0ff;}.cls-14{fill:#f5fcff;}.cls-15{fill:#b9c6c6;}.cls-16{fill:#fc0;}.cls-17{fill:#a0daee;}.cls-18{fill:#a6b1b1;}.cls-19{fill:#743a25;}.cls-20{fill:#d26f49;}.cls-21{fill:#bb5f3c;}.cls-22{fill:#e5794f;}.cls-23{fill:#a15133;}</style></defs><title>Asset 116</title><g id="Layer_2" data-name="Layer 2"><g id="Layer_1-2" data-name="Layer 1"><path class="cls-1" d="M70,49.6l-4.5,1.55L67,55.6l4.45-1.5L70,49.6m12-14,2.3,7.25,7.25-2.3L89.2,33.3,82,35.6m3.8,16.55L76.25,50l-2.1,9.55,9.45,2.1,2.15-9.5m-36-10.4,1.85-5-5-1.9-1.9,5,5.05,2m10,2.2-.6-5.3-5.25.65.6,5.25L59.7,44M62.2,14q2.44-1,4.85-2.15L64.9,7.05,60,9.2,62.2,14m25.3,9.55L87,28.85l5.25.5.55-5.25-5.25-.55m-40,5.05L43.65,25,40,28.8l3.85,3.65L47.5,28.6M23.4,52.15,13.9,50l-2.1,9.55,9.45,2.1,2.15-9.5M43.6,46.2l-7.2,2.3,2.25,7.2,7.25-2.25L43.6,46.2m-6.1-4.45,4.15-3.35-3.4-4.1-4.1,3.35,3.35,4.1M30.85,50.3l-4.8,2.2,2.15,4.85L33,55.2l-2.15-4.9M24.6,28.85l5.25.5.55-5.25-5.25-.55-.55,5.3m-4.35,47.9-6.7-6.15-6.2,6.7,6.7,6.2,6.2-6.75m22-12.7L33,63,31.9,72.3l9.3,1,.65-5.6h0l.4-3.7M25.15,86,24.6,91.2l5.25.5.55-5.25L25.15,86m16.5,14.8-3.4-4.1L34.15,100l3.35,4.1,4.15-3.35M12.4,98.65,14.9,89,5.3,86.5,2.8,96.1l9.6,2.55M46.55,97.2l-1.9,5,5.05,1.95,1.85-5-5-1.9m10.6-20.45h0L49.8,78.5l1.7,7.4,7.4-1.75-1.75-7.4m25.45,0L75.9,70.6l-6.2,6.7,6.75,6.2,6.15-6.75M64.9,69.4,60,71.55l2.2,4.85,4.85-2.2L64.9,69.4m2.75,17.1L65.2,96.1l9.55,2.55L77.25,89l-9.6-2.5M89.2,95.65,82,98l2.3,7.25L91.5,103l-2.3-7.3M5.4,39.7,2.3,44l4.25,3.1,3.1-4.3-4.25-3M87.5,86,87,91.2l5.25.5.55-5.25L87.5,86M77.2,110l-2.1,9.55,9.45,2.1,2.15-9.5L77.2,110m-52.1,1.5,2.15,4.85,4.8-2.15-2.2-4.9-4.75,2.2m39.8,16.2-.85-5.25-5.2.85.8,5.2,5.25-.8m6.55-11.2L70,112l-4.5,1.55L67,118l4.45-1.55m-32.8,1.65,7.25-2.3-2.3-7.2-7.2,2.25,2.25,7.25M0,105V35L60,0l60,35v70L60,140,0,105M107.05,39.8l5,2,1.85-5-5-1.9-1.9,5m-3.5,33.55.65-5.6h0l.4-3.7-9.3-1-1.1,9.3,9.3,1m7.35-19.7-.5,5.3,5.25.5.6-5.3-5.35-.5M99.25,83.4l3-4.3L98,76l-3.1,4.3,4.35,3.1m-8.7-26.05L95.4,55.2l-2.2-4.9-4.8,2.2,2.15,4.85m10,39.3L96.5,100l3.35,4.1,4.15-3.35-3.4-4.1m8.35.55-1.9,5,5,1.95,1.85-5-5-1.9"/><path class="cls-2" d="M62.2,14,60,9.2l4.9-2.15,2.15,4.8q-2.4,1.1-4.85,2.15M59.7,44l-5.25.6-.6-5.25,5.25-.65.6,5.3m-10-2.2-5.05-2,1.9-5,5,1.9-1.85,5m36.05,10.4-2.15,9.5-9.45-2.1L76.25,50l9.5,2.15M82,35.6l7.25-2.3,2.3,7.25-7.25,2.3L82,35.6m-12,14,1.5,4.5L67,55.6l-1.55-4.45L70,49.6M47.5,28.6l-3.65,3.85L40,28.8,43.65,25,47.5,28.6m-10,13.15-3.35-4.1,4.1-3.35,3.4,4.1L37.5,41.75m6.1,4.45,2.3,7.25L38.65,55.7,36.4,48.5l7.2-2.3M42.3,64.05l-.4,3.7h0l-.65,5.6-9.3-1L33,63l9.35,1m-22,12.7-6.2,6.75-6.7-6.2,6.2-6.7,6.7,6.15M12.4,98.65,2.8,96.1l2.5-9.6L14.9,89l-2.5,9.65m29.25,2.1L37.5,104.1,34.15,100l4.1-3.35,3.4,4.1m40.95-24L76.45,83.5,69.7,77.3l6.2-6.7,6.7,6.15m-25.45,0,1.75,7.4L51.5,85.9l-1.7-7.4,7.3-1.75h0m10.5,9.75,9.6,2.5-2.5,9.65L65.2,96.1l2.45-9.6M87.5,86l5.25.5L92.2,91.7,87,91.2,87.5,86M5.4,39.7l4.25,3-3.1,4.3L2.3,44,5.4,39.7m66.05,76.75L67,118l-1.55-4.5L70,112l1.5,4.5m-6.55,11.2-5.25.8-.8-5.2,5.2-.85.85,5.25m-39.8-16.2,4.75-2.2,2.2,4.9-4.8,2.15-2.15-4.85m85.8-57.8,5.35.5-.6,5.3L110.4,59l.5-5.3m-7.35,19.7-9.3-1,1.1-9.3,9.3,1-.4,3.7h0l-.65,5.6m-3,23.3,3.4,4.1-4.15,3.35L96.5,100l4.1-3.35"/><path class="cls-3" d="M87.5,23.55l5.25.55-.55,5.25L87,28.85l.55-5.3M23.4,52.15l-2.15,9.5-9.45-2.1L13.9,50l9.5,2.15m1.2-23.3.55-5.3,5.25.55-.55,5.25-5.25-.5M30.85,50.3,33,55.2l-4.8,2.15L26.05,52.5l4.8-2.2M25.15,86l5.25.5-.55,5.25-5.25-.5L25.15,86M46.55,97.2l5,1.9-1.85,5-5.05-1.95,1.9-5M64.9,69.4l2.15,4.8L62.2,76.4,60,71.55l4.9-2.15M89.2,95.65l2.3,7.3-7.25,2.25L82,98l7.25-2.3M77.2,110l9.5,2.15-2.15,9.5-9.45-2.1L77.2,110M38.65,118.1l-2.25-7.25,7.2-2.25,2.3,7.2-7.25,2.3m68.4-78.3,1.9-5,5,1.9-1.85,5-5-2M90.55,57.35,88.4,52.5l4.8-2.2,2.2,4.9-4.85,2.15m8.7,26.05L94.9,80.3,98,76l4.3,3.1-3,4.3M109,97.2l5,1.9-1.85,5-5-1.95,1.9-5"/><path class="cls-4" d="M13.85,35.4l13.3-2.6a1.76,1.76,0,0,1,1.35.25,1.88,1.88,0,0,1,.9,1.1l3.6,11,.1.6V67.45a2,2,0,0,1-.45,1.3,2.21,2.21,0,0,1-1.25.7l-4.95.75v2.3a2.05,2.05,0,0,1-.4,1.25l-1.1.7-2.7.7L20.9,75a1.91,1.91,0,0,1-.95-1l-1.15-2.5-.05-.15-1.1.2a2,2,0,0,1-2.2-1.4L12.3,59.6l-.1-.6V37.35a1.92,1.92,0,0,1,.45-1.25,1.74,1.74,0,0,1,1.2-.7M31.1,45.7l-3.6-11-13.3,2.6V59l3.15,10.6,3.25-.5v1.6l1.15,2.5,2.7-.7v-4l6.65-1V45.7"/><path class="cls-5" d="M31.1,45.7,17.35,48.05,14.2,37.35l13.3-2.6,3.6,11"/><path class="cls-6" d="M14.2,37.35l3.15,10.7V69.6L14.2,59V37.35"/><path class="cls-7" d="M17.35,48.05,31.1,45.7V67.45l-6.65,1-3.85.6-3.25.5V48.05"/><path class="cls-8" d="M24.45,68.5v4l-2.7.7L20.6,70.7V69.1l3.85-.6"/><path class="cls-4" d="M94.05,65.9l6.65-1.05V43.1l-3.6-11-13.3,2.6V56.4L87,67l3.25-.5v1.6l1.15,2.5,2.7-.7v-4M82.25,33.5a1.74,1.74,0,0,1,1.2-.7l13.3-2.6a1.76,1.76,0,0,1,1.35.25,1.88,1.88,0,0,1,.9,1.1l3.6,11,.1.6V64.85a2,2,0,0,1-.45,1.3,2.21,2.21,0,0,1-1.25.7l-5,.75v2.3a2.05,2.05,0,0,1-.4,1.25,2.42,2.42,0,0,1-1.1.7l-2.7.7L90.5,72.4a1.91,1.91,0,0,1-1-1L88.4,69l-.05-.15-1.1.2a2,2,0,0,1-2.2-1.4L81.9,57l-.1-.6V34.75a1.92,1.92,0,0,1,.45-1.25"/><path class="cls-5" d="M87,45.45,83.8,34.75l13.3-2.6,3.6,11L87,45.45"/><path class="cls-6" d="M87,45.45V67L83.8,56.4V34.75L87,45.45"/><path class="cls-7" d="M87,45.45,100.7,43.1V64.85L94.05,65.9l-3.85.6L87,67V45.45"/><path class="cls-8" d="M94.05,65.9v4l-2.7.7L90.2,68.1V66.5l3.85-.6"/><path class="cls-9" d="M75.8,49.3,50.55,37.5h0l1.35-1.6,41.4,19.25-1.4,1.65-.1,0-6.55-3-3-1.4-6.45-3"/><path class="cls-10" d="M91.75,56.75l.1,0,3,1.3L74.25,82.2l-2.9-1.3,1.45-1.75L87.1,62.3l4.65-5.55M50.5,37.5h0l-19,22.55L30.15,61.6l-3-1.35,20.5-24.1L50.5,37.5"/><path class="cls-11" d="M50.5,37.5l-2.85-1.35-20.5,24.1L24.9,70.4l-1.15,5.1-1.15,5,47.1,22,29.6-35-4.5-9.5-3-1.3,1.4-1.65,2.4,1.15a1.91,1.91,0,0,1,.95,1l4.5,9.5.2,1.1-.45,1.05-29.6,35a2.11,2.11,0,0,1-1.1.65l-1.3-.15L21.75,82.35a1.94,1.94,0,0,1-.95-.9,2,2,0,0,1-.15-1.3l4.55-20.3.45-.9,20.5-24.1a1.87,1.87,0,0,1,1.1-.65l1.25.15,3.35,1.55L50.5,37.5"/><path class="cls-12" d="M75.8,49.3l6.45,3L44.15,65.9l-6.5-3L75.8,49.3m9.4,4.4,6.55,3L87.1,62.3,58.45,72.5l-11.3-5.2L85.2,53.7"/><path class="cls-13" d="M85.2,53.7,47.15,67.3l-3-1.4,38.1-13.6,3,1.4M50.55,37.5,75.8,49.3,37.65,62.9,31.5,60.05l19-22.55M72.8,79.15,58.45,72.5,87.1,62.3,72.8,79.15"/><path class="cls-14" d="M72.8,79.15,71.35,80.9,30.15,61.6l1.35-1.55,6.15,2.85,6.5,3,3,1.4,11.3,5.2L72.8,79.15"/><path class="cls-15" d="M24.9,70.4l2.25-10.15,3,1.35L27.8,71.75,24.9,70.4m-1.15,5.1,47.1,22-1.15,5.1-47.1-22,1.15-5M72,92.5l-3-1.45L71.35,80.9l2.9,1.3L72,92.5"/><path class="cls-16" d="M72,92.5l-1.15,5-47.1-22,1.15-5.1,2.9,1.35L69,91.05l3,1.45"/><path class="cls-17" d="M30.15,61.6l41.2,19.3L69,91.05,27.8,71.75,30.15,61.6"/><path class="cls-18" d="M70.85,97.5l1.15-5,2.25-10.3L94.8,58.1l4.5,9.5-29.6,35,1.15-5.1"/><path class="cls-4" d="M104.1,77.65l5.75-6.1V61.05L100,56.6l-6.25,7v10.8l6.3,3v2.6l2.1.8,1.95-1.85v-1.4m7.75-16.6v10.5a2,2,0,0,1-.55,1.4l-5.2,5.5v.6l-.15.8-.45.65-2,1.85a2,2,0,0,1-1,.5l-1.1,0-2.1-.8-.95-.75a2.15,2.15,0,0,1-.35-1.15V78.75l-5.15-2.5-.85-.75a2,2,0,0,1-.3-1V63.65a1.89,1.89,0,0,1,.5-1.3L98.5,55.3l1.1-.65,1.25.15,9.85,4.45.85.75.3,1"/><path class="cls-5" d="M93.75,63.65l6.25-7,9.85,4.45-6.65,7.1-9.45-4.5"/><path class="cls-7" d="M93.75,63.65l9.45,4.5L103,78.85l-2.9-1.35-6.3-3V63.65"/><path class="cls-6" d="M103.2,68.15l6.65-7.1v10.5l-5.75,6.1L103,78.85l.25-10.7"/><path class="cls-8" d="M104.1,77.65v1.4l-1.95,1.85-2.1-.8V77.5l2.9,1.35,1.15-1.2"/><path class="cls-19" d="M67.4,89.2l.3,1,0,.55v13.9a2,2,0,0,1-.45,1.3l-3.7,4.35a2.17,2.17,0,0,1-1.2.7l-2.35.4-1.2-.15L53,108.5a1.94,1.94,0,0,1-.65-.5l-.4-.75-.55-1.75-.1-.6V91.8l2,.9v12.2l.55,1.75,5.9,2.75,2.35-.4,3.7-4.35V91l1.65-1.8"/><path class="cls-11" d="M67.4,89.2,65.75,91v-.25L65.2,89,59.35,86.2l-2.4.4L53.25,91V92.7l-2-.9V91a1.89,1.89,0,0,1,.5-1.3l3.7-4.35a1.8,1.8,0,0,1,1.2-.65l2.4-.4,1.15.15,5.85,2.75.65.5.45.75.25.8"/><path class="cls-10" d="M53.25,91,57,86.6l2.4-.4L65.2,89l.55,1.8-3.7,4.35-2.35.4-5.9-2.75L53.25,91"/><path class="cls-20" d="M53.25,91l.55,1.8,5.9,2.75V99L53.8,96.2l-.55-1.75V91M59.7,109.4l-5.9-2.75-.55-1.75v-3.5l.55,1.8L59.7,106V99l2.35-.4v7L59.7,106v3.45"/><path class="cls-21" d="M65.75,90.75V94.2l-3.7,4.35V95.1l3.7-4.35M53.25,101.4v-7l.55,1.75L59.7,99v7l-5.9-2.75-.55-1.8m12.5-.25v3.5L62.05,109v-3.5l3.7-4.35"/><path class="cls-22" d="M59.7,99V95.5l2.35-.4v3.45L59.7,99m2.35,10-2.35.4V106l2.35-.45V109"/><path class="cls-23" d="M65.75,94.2v7l-3.7,4.35v-7l3.7-4.35"/><path class="cls-11" d="M64.25,97.8V97a1.89,1.89,0,0,1,.5-1.3l3.7-4.35a1.8,1.8,0,0,1,1.2-.65l2.4-.4,1.15.15,5.85,2.75.65.5.45.75.25.8L78.75,97v-.25L78.2,95,72.35,92.2l-2.4.4L66.25,97V98.7l-2-.9"/><path class="cls-20" d="M66.25,98.7V97l.55,1.8,5.9,2.75V105l2.35-.4v7L72.7,112v-7l-5.9-2.75-.55-1.75V98.7m6.45,16.7-5.9-2.75-.55-1.75v-3.5l.55,1.8L72.7,112v3.45"/><path class="cls-19" d="M72.7,115.4l2.35-.4,3.7-4.35V97l1.65-1.8.3,1,0,.55v13.9a2,2,0,0,1-.45,1.3l-3.7,4.35a2.17,2.17,0,0,1-1.2.7l-2.35.4-1.2-.15L66,114.5l-.65-.5-.4-.75-.55-1.75-.1-.6V97.8l2,.9v12.2l.55,1.75,5.9,2.75"/><path class="cls-10" d="M66.25,97,70,92.6l2.4-.4L78.2,95l.55,1.8-3.7,4.35-2.35.4-5.9-2.75L66.25,97"/><path class="cls-21" d="M78.75,96.75v3.45l-3.7,4.35V101.1l3.7-4.35m-12.5,3.7.55,1.75L72.7,105v7l-5.9-2.75-.55-1.8v-7m12.5,6.7v3.5L75.05,115v-3.5l3.7-4.35"/><path class="cls-22" d="M72.7,105V101.5l2.35-.4v3.45l-2.35.4m0,7,2.35-.45V115l-2.35.4V112"/><path class="cls-23" d="M75.05,104.55l3.7-4.35v7l-3.7,4.35v-7"/></g></g></svg>