<svg xmlns="http://www.w3.org/2000/svg" viewBox="0 0 120 140"><defs><style>.cls-1{fill:#a4afaf;}.cls-2{fill:#9ba6a6;}.cls-3{fill:#a9b6b6;}.cls-4{fill:#27ae60;}.cls-5{fill:#14723c;}.cls-6{fill:#178044;}.cls-7{fill:#105f32;}.cls-8{fill:#0e4f29;}.cls-9{fill:#e2dfdc;}.cls-10{fill:#706e6c;}.cls-11{fill:#b4b1ae;}.cls-12{fill:#115f32;}.cls-13{fill-opacity:0.1;}.cls-14{fill:#1b914d;}.cls-15{fill:#bb8044;}</style></defs><title>Asset 144</title><g id="Layer_2" data-name="Layer 2"><g id="Layer_1-2" data-name="Layer 1"><path class="cls-1" d="M43.3,118.7l3.7-4.35c-2-.9-3.93-1.82-5.9-2.75L37.4,116l5.9,2.75M64.8,17.2l3.7-4.35L62.6,10.1l-3.7,4.35,5.9,2.75M42.35,32.4l-9.3-4.3-5.8,6.8,9.25,4.35,5.85-6.85m-21,39.1,5.85-6.85L18,60.35l-5.8,6.8L21.4,71.5M14.8,83.2l3.7-4.35L12.6,76.1,8.9,80.45l5.9,2.75m5.6-7,9.25,4.35,5.85-6.85-9.3-4.3-5.8,6.8M71.2,65l-5.8,6.8,9.25,4.35,5.85-6.85L71.2,65m-3.65,1.5,3.7-4.35-5.9-2.75-3.7,4.35,5.9,2.75m-27-4.35-5.9-2.75L30.9,63.7l5.9,2.75,3.7-4.35M84.65,30l5.9,2.75,3.7-4.35-5.9-2.75L84.65,30m24.4,39.4,3.7-4.35-5.9-2.75-3.7,4.35,5.9,2.75M96.8,37.45l3.7-4.35-5.9-2.75L90.9,34.7l5.9,2.75m-14.4,4,5.85-6.85L79,30.35l-5.8,6.8L82.4,41.5m.8,48.85-5.8,6.8,9.25,4.35,5.85-6.85-9.3-4.3M100.5,65l-5.9-2.75L90.9,66.6l5.9,2.75L100.5,65M120,35v70L60,140,0,105V35L60,0l60,35M75.05,107.2,81,110l3.7-4.35-5.9-2.75-3.7,4.35M95.2,107l3.7-4.35L93,99.85l-3.7,4.35L95.2,107M23.4,114.3l5.9,2.75L33,112.7,27.1,110l-3.7,4.35M43.3,110,47,105.6c-2-.9-3.93-1.82-5.9-2.75l-3.7,4.35L43.3,110"/><path class="cls-2" d="M42.35,32.4,36.5,39.25,27.25,34.9l5.8-6.8,9.3,4.3M64.8,17.2l-5.9-2.75,3.7-4.35,5.9,2.75L64.8,17.2m-50,66L8.9,80.45l3.7-4.35,5.9,2.75L14.8,83.2M67.55,66.45l-5.9-2.75,3.7-4.35,5.9,2.75-3.7,4.35M71.2,65l9.3,4.3L74.65,76.1,65.4,71.75,71.2,65M84.65,30l3.7-4.35,5.9,2.75-3.7,4.35L84.65,30M100.5,65l-3.7,4.35L90.9,66.6l3.7-4.35L100.5,65M83.2,90.35l9.3,4.3-5.85,6.85L77.4,97.15l5.8-6.8M43.3,110l-5.9-2.75,3.7-4.35c2,.93,3.93,1.85,5.9,2.75L43.3,110M23.4,114.3,27.1,110,33,112.7l-3.7,4.35-5.9-2.75"/><path class="cls-3" d="M21.4,71.5l-9.25-4.35,5.8-6.8,9.3,4.3L21.4,71.5m-1,4.65,5.8-6.8,9.3,4.3L29.65,80.5,20.4,76.15M40.5,62.1l-3.7,4.35L30.9,63.7l3.7-4.35,5.9,2.75M82.4,41.5l-9.25-4.35,5.8-6.8,9.3,4.3L82.4,41.5m14.4-4L90.9,34.7l3.7-4.35,5.9,2.75-3.7,4.35m12.25,31.9-5.9-2.75,3.7-4.35,5.9,2.75-3.7,4.35M95.2,107l-5.9-2.75L93,99.85l5.9,2.75L95.2,107m-20.15.25,3.7-4.35,5.9,2.75L81,110l-5.9-2.75M43.3,118.7,37.4,116l3.7-4.35c2,.93,3.93,1.85,5.9,2.75l-3.7,4.35"/><path class="cls-4" d="M32.1,98.35a1.88,1.88,0,0,1,.5-1.15l21-24.7a1.87,1.87,0,0,1,1.1-.65L56,72,89.3,87.55a2,2,0,0,1,.9.8,2.15,2.15,0,0,1,.25,1.2L90,90.65,69,115.4l-1.1.65-1.3-.15L33.25,100.3l-.85-.8a1.86,1.86,0,0,1-.3-1.15"/><path class="cls-5" d="M33.7,49.7,47.25,33.6l6,29.3-4.4,4.9L33.7,49.7m23.8,5.1,4.1-4.9,5.9-3.55,1.6,7.1L65,58.4,61.2,53.85l-3.7.95M75,63.1l4.1-4.9,6.15-3.6,1.35,7.1-3.9,4.75L78.9,62.1l-3.9,1"/><path class="cls-6" d="M75,63.1v4.7l7.7,3.55,3.9-9.65-1.35-7.1L79.1,58.2,75,63.1M47.25,33.6,97,57,87.8,79,53.2,62.9l-6-29.3M69.1,53.45l-1.6-7.1L61.6,49.9l-4.1,4.9v4.75L65,63.1l4.15-9.65"/><path class="cls-7" d="M18.45,53.65,41.15,26.7,106.05,57l.4.2L97,57,47.25,33.6,33.7,49.7,18.45,53.65"/><path class="cls-8" d="M18.45,53.65h-.1l-2,.5v-.5a1.89,1.89,0,0,1,.5-1.3L39.65,25.4a1.87,1.87,0,0,1,1.1-.65L42,24.9l65.3,30.5a2.34,2.34,0,0,1,.85.75l.3.85h-2.4L41.15,26.7l-22.7,27"/><path class="cls-9" d="M18.45,53.65,33.7,49.7,48.8,67.8V78.65L44,76.35V69l-7.9-3.85v7.5l-6.25-3V62.45l-7.9-4V66l-3.55-1.7V53.65h.1M57.5,54.8l3.7-.95L65,58.4v4.7L57.5,59.55V54.8M53.2,73.5V62.9L87.8,79V89.65L63.2,78.2v-7l-4-2.1v7.25l-6-2.85m49-11.65V69.6l-7.9,8.9V71l7.9-9.15M75,63.1l3.9-1,3.8,4.35v4.9L75,67.8V63.1"/><path class="cls-10" d="M16.35,54.15l2-.5v10.6L21.9,66l7.9,3.75,6.25,3,7.9,3.7,4.85,2.3,4.4-5.15,6,2.85,4,1.85L87.8,89.65,106.45,67.8V57.2l-.4-.2h2.4V67.8a2,2,0,0,1-.45,1.3L89.35,91l-1.1.65L87,91.45,53.75,76l-3.4,4-1.1.65L48,80.45,17.5,66.05l-.8-.7a1.89,1.89,0,0,1-.35-1.1V54.15"/><path class="cls-11" d="M97,57l9.45.2V67.8L87.8,89.65V79L97,57M65,58.4l4.15-4.95L65,63.1V58.4M29.8,69.7,21.9,66V58.5l7.9,4V69.7m6.25,3v-7.5L44,69v7.35l-7.9-3.7m12.75,6V67.8l4.4-4.9V73.5l-4.4,5.15m10.45-2.3V69.1l4,2.1v7l-4-1.85m43-14.5L94.3,71v7.5l7.9-8.9V61.85m-19.5,4.6,3.9-4.75-3.9,9.65v-4.9"/><path class="cls-12" d="M71.45,91A6,6,0,0,1,70,87.1v-.9a48.75,48.75,0,0,1,1.5-13q1.85-7.1,5.2-6.65Q80,66.06,82,73.2a52.21,52.21,0,0,1,1.4,13v.9a6.53,6.53,0,0,1-1.4,4l-.5.55h0l-1.15.9a3.21,3.21,0,0,1-1,2.35L79.1,95a3.51,3.51,0,0,1-2.4,1h0a3.38,3.38,0,0,1-2.5-1A3.48,3.48,0,0,1,73.1,92.5L72,91.6h0l-.55-.6m6.8.25L80,90.15l.2-.15a4.53,4.53,0,0,0,1.15-3V86.2A49.92,49.92,0,0,0,80,73.7q-1.4-5.15-3.35-5.15t-3.3,5.15A48.37,48.37,0,0,0,72,86.2v.85a4.3,4.3,0,0,0,1.25,3l.15.15a4.34,4.34,0,0,0,1.75,1.1V92.4A1.54,1.54,0,0,0,76.65,94h0a1.35,1.35,0,0,0,1-.45,1.44,1.44,0,0,0,.5-1.1V91.25"/><path class="cls-13" d="M82,91.05a3.36,3.36,0,0,1,1.5,2.7,3.72,3.72,0,0,1-2,3.1,8.34,8.34,0,0,1-4.75,1.3,8.57,8.57,0,0,1-4.8-1.3,3.72,3.72,0,0,1-2-3.1A3.48,3.48,0,0,1,71.45,91l.55.6h0l1.15.9A3.48,3.48,0,0,0,74.15,95a3.38,3.38,0,0,0,2.5,1h0a3.51,3.51,0,0,0,2.4-1l.15-.15a3.21,3.21,0,0,0,1-2.35l1.15-.9h0l.5-.55"/><path class="cls-14" d="M75.1,91.25a4.34,4.34,0,0,1-1.75-1.1L73.2,90a4.3,4.3,0,0,1-1.25-3V86.2a48.37,48.37,0,0,1,1.4-12.5q1.35-5.15,3.3-5.15T80,73.7a49.92,49.92,0,0,1,1.35,12.5v.85a4.53,4.53,0,0,1-1.15,3l-.2.15-1.75,1.1-1.6.25-1.55-.25"/><path class="cls-15" d="M75.1,91.25l1.55.25,1.6-.25V92.4a1.44,1.44,0,0,1-.5,1.1,1.35,1.35,0,0,1-1,.45h0A1.54,1.54,0,0,1,75.1,92.4V91.25"/><path class="cls-12" d="M68.75,104.25l1.75-1.1.2-.15a4.53,4.53,0,0,0,1.15-3V99.2A49.92,49.92,0,0,0,70.5,86.7q-1.4-5.15-3.35-5.15t-3.3,5.15a48.37,48.37,0,0,0-1.4,12.5v.85a4.3,4.3,0,0,0,1.25,3l.15.15a4.34,4.34,0,0,0,1.75,1.1v1.15A1.54,1.54,0,0,0,67.15,107h0a1.35,1.35,0,0,0,1-.45,1.44,1.44,0,0,0,.5-1.1v-1.15M62,104a6,6,0,0,1-1.5-3.9v-.9a48.75,48.75,0,0,1,1.5-13q1.84-7.1,5.2-6.65,3.34-.49,5.3,6.65a52.21,52.21,0,0,1,1.4,13v.9a6.53,6.53,0,0,1-1.4,4l-.5.55h0l-1.15.9a3.21,3.21,0,0,1-1,2.35l-.15.15a3.51,3.51,0,0,1-2.4,1h0a3.38,3.38,0,0,1-2.5-1,3.48,3.48,0,0,1-1.05-2.45l-1.15-.9h0L62,104"/><path class="cls-14" d="M65.6,104.25a4.34,4.34,0,0,1-1.75-1.1L63.7,103a4.3,4.3,0,0,1-1.25-3V99.2a48.37,48.37,0,0,1,1.4-12.5q1.35-5.15,3.3-5.15T70.5,86.7a49.92,49.92,0,0,1,1.35,12.5v.85a4.53,4.53,0,0,1-1.15,3l-.2.15-1.75,1.1-1.6.25-1.55-.25"/><path class="cls-13" d="M72.45,104.05a3.36,3.36,0,0,1,1.5,2.7,3.72,3.72,0,0,1-2,3.1,8.34,8.34,0,0,1-4.75,1.3,8.57,8.57,0,0,1-4.8-1.3,3.72,3.72,0,0,1-1.95-3.1A3.48,3.48,0,0,1,62,104l.55.6h0l1.15.9A3.48,3.48,0,0,0,64.65,108a3.38,3.38,0,0,0,2.5,1h0a3.51,3.51,0,0,0,2.4-1l.15-.15a3.21,3.21,0,0,0,1-2.35l1.15-.9h0l.5-.55"/><path class="cls-15" d="M68.75,104.25v1.15a1.44,1.44,0,0,1-.5,1.1,1.35,1.35,0,0,1-1,.45h0a1.54,1.54,0,0,1-1.55-1.55v-1.15l1.55.25,1.6-.25"/></g></g></svg>