<svg xmlns="http://www.w3.org/2000/svg" viewBox="0 0 120 140"><defs><style>.cls-1{fill:#e5d5b2;}.cls-2{fill:#ecdcb8;}.cls-3{fill:#e0d1af;}.cls-4{fill:#bb8044;}.cls-5{fill:#266030;}.cls-6{fill:#3d8e4b;}.cls-7{fill:#449d54;}.cls-8{fill:#727979;}.cls-9{fill:#5b4c3c;}.cls-10{fill:#be9060;}.cls-11{fill:#a07a50;}.cls-12{fill:#d8a36d;}.cls-13{fill:#348442;}.cls-14{fill:#d9d9d9;}.cls-15{fill:#95724a;}.cls-16{fill:#40a351;}.cls-17{fill:#d2a66b;}.cls-18{fill:#a6b1b1;}.cls-19{fill:#9ba6a6;}.cls-20{fill-opacity:0.1;}.cls-21{fill:#1a7741;}.cls-22{fill:#27ae60;}.cls-23{fill:#2bc46c;}</style></defs><title>Asset 152</title><g id="Layer_2" data-name="Layer 2"><g id="Layer_1-2" data-name="Layer 1"><path class="cls-1" d="M83.05,23.05l0,.05A38.37,38.37,0,0,0,60,38.75a51.77,51.77,0,0,0-6.8,14.3,44.24,44.24,0,0,1-2.4,7.05l-2,3.95Q40.95,77.6,23,83.15l.05,0A39.28,39.28,0,0,0,6,91.9v-22l.85-3A60.49,60.49,0,0,1,9.5,60.1q8.4-18.49,27.55-23.25l0-.05q15.11-4.69,23-15l2.6-3.9A44.83,44.83,0,0,0,65.9,10.5L85.85,22.15l-2.8.9m-7.35,20,.4-3.15,3.2.45-.45,3.1-3.15-.4M78.55,33l4-1.85,1.75,4L80.3,37l-1.75-4m18.55,3.9,0-.05a61.49,61.49,0,0,0,8.35-3.25l5.65,3.3h0A5.83,5.83,0,0,1,114,42v8.7l-.8,2.35a39,39,0,0,1-2.4,7.05l-2,3.95Q101,77.6,83.05,83.15l0,0A38.43,38.43,0,0,0,60,98.8a51.69,51.69,0,0,0-6.8,14.35,42.65,42.65,0,0,1-2.4,7l-2,3.95-1,1.7-30.3-17.65A39,39,0,0,1,37.05,97l0,0q15.11-4.7,23-15.05l2.6-3.9A43.55,43.55,0,0,0,67,67a53.62,53.62,0,0,1,2.6-6.85Q78,41.61,97.1,36.85m-85.85,9L12.1,48l-2,.95-.85-2.1,2-.9m-.4-5.7,3.75-2.8,2.85,3.75L13.6,44,10.85,40.2m8-2.5,3.25-2.6,2.55,3.25L21.45,41l-2.6-3.25m34.5-15.1L49,23.3,48.3,19l4.35-.7.7,4.35M58.8,66H54.25l0-4.55h4.6V66M41.5,85.2l-3.6,6.65-6.55-3.5,3.55-6.7,6.6,3.55M59,79l-7.1,1.1-1-7L58,72l1,7M31.15,89.85l-1,4.05-4-1,1-4,4,.95m32.15,15.9-1.15,2-1.9-1,1-2,2,1M63,118.6l1.75,4-4,1.85-1.75-4,4-1.85m3.3,10.7L67,127a53.62,53.62,0,0,1,2.6-6.85Q78,101.7,97.1,97l0,0a49.44,49.44,0,0,0,17-8.8v10a5.89,5.89,0,0,1-.8,3,6.35,6.35,0,0,1-2.2,2.2h0L66.3,129.3m47-57.05-.75,6.55L106,78.05l.75-6.6,6.55.8M91.4,86.05,90.15,89l-2.9-1.2,1.2-3,3,1.25M83,93.9,80.5,100l-6.15-2.4,2.45-6.15L83,93.9m4.3,1.6,0-4.55h4.6V95.5H87.25"/><path class="cls-2" d="M87.25,95.5H91.8V91H87.2l0,4.55m-4.2-72.45,2.8-.9L65.9,10.5a44.83,44.83,0,0,1-3.35,7.35L60,21.75q-7.85,10.35-23,15l0,.05Q17.9,41.61,9.5,60.1A60.49,60.49,0,0,0,6.85,67L6,69.9v22a39.28,39.28,0,0,1,17-8.7l-.05,0q18-5.55,25.8-19.1l2-3.95a44.24,44.24,0,0,0,2.4-7.05A51.77,51.77,0,0,1,60,38.75,38.37,38.37,0,0,1,83.1,23.1l0-.05M78.55,33l1.75,4,4-1.85-1.75-4-4,1.85M75.7,43.05l3.15.4.45-3.1-3.2-.45-.4,3.15m21.4-6.2Q77.94,41.61,69.55,60.1A53.62,53.62,0,0,0,67,67a43.55,43.55,0,0,1-4.4,11L60,81.85Q52.11,92.2,37,96.9l0,0a39,39,0,0,0-19.6,11.2l30.3,17.65,1-1.7,2-3.95a42.65,42.65,0,0,0,2.4-7A51.69,51.69,0,0,1,60,98.8,38.43,38.43,0,0,1,83.1,83.2l0,0q18-5.55,25.75-19.1l2-3.95a39,39,0,0,0,2.4-7.05l.8-2.35V42a5.83,5.83,0,0,0-3-5.15h0l-5.65-3.3a61.49,61.49,0,0,1-8.35,3.25l0,.05M10.85,40.2,13.6,44l3.85-2.8L14.6,37.4l-3.75,2.8m.4,5.7-2,.9.85,2.1,2-.95-.85-2.05m7.1-21.6,27.5-16h0L60,0l60,35v70L60,140,0,105V35L17.25,25l.05-.05h.05l1-.6M63,118.6l-4,1.85,1.75,4,4-1.85-1.75-4m.3-12.85-2-1-1,2,1.9,1,1.15-2M31.15,89.85l-4-.95-1,4,4,1,1-4.05M59,79l-1-7-7.1,1.1,1,7L59,79M41.5,85.2l-6.6-3.55-3.55,6.7,6.55,3.5,3.6-6.65M58.8,66V61.45H54.2l0,4.55H58.8M53.35,22.6l-.7-4.35L48.3,19,49,23.3l4.35-.7M18.85,37.7,21.45,41l3.2-2.6L22.1,35.1l-3.25,2.6M66.3,129.3l44.75-26.1h0a6.35,6.35,0,0,0,2.2-2.2,5.89,5.89,0,0,0,.8-3v-10a49.44,49.44,0,0,1-17,8.8l0,0q-19.15,4.76-27.55,23.2A53.62,53.62,0,0,0,67,127l-.65,2.3M83,93.9,76.8,91.45,74.35,97.6,80.5,100,83,93.9m8.45-7.85-3-1.25-1.2,3,2.9,1.2,1.25-2.9m21.85-13.8-6.55-.8-.75,6.6,6.55.75.75-6.55"/><path class="cls-3" d="M17.3,24.9l1.05-.6-1,.6H17.3"/><path class="cls-4" d="M111.05,36.85l-14.6-8.5L87,27.5l-5.1-7.65-18.85-11A5.91,5.91,0,0,0,60,8a5.63,5.63,0,0,0-3,.85l-14.4,8.4-.85,4.25H35.3l-8.25,4.85L23.5,34l-6.65-1.7L9,36.85A5.55,5.55,0,0,0,6.85,39,5.63,5.63,0,0,0,6,42V98.05a5.57,5.57,0,0,0,.85,3A5.9,5.9,0,0,0,9,103.2l20.75,12.1,5.25-.8.75,4.3L57,131.2a6,6,0,0,0,3,.8,6.26,6.26,0,0,0,3-.8L80.6,121l.9-5,4.65,1.75,4.7-2.75,1.9-6.25,5.75,1.75,12.55-7.3h0a6.35,6.35,0,0,0,2.2-2.2,5.89,5.89,0,0,0,.8-3V76.75L110.75,69,114,60.5V42a5.83,5.83,0,0,0-3-5.15h0M60,0l60,35v70L60,140,0,105V35L60,0"/><path class="cls-5" d="M35.35,41l8.5-10a2,2,0,0,1,1.3-.7l13.1-1.25,2-2.35.65-.5.8-.2,16.55-.65.8.15.65.45L96.15,42l-1.3,1.5L78.3,27.35,61.75,28,59.25,31,45.35,32.3,36,43.35,35.35,41M25.7,77.45v0l-3.65-1.7-.8-.75a1.89,1.89,0,0,1-.35-1.1v-2l.1-.6,2.45-7.75.35-.65,1.9-2.3v-.45l2,1v.2l-2.35,2.85L22.9,71.8v2l4.8,2.25v2.3l-2-1"/><path class="cls-6" d="M84.45,40,81.9,43l-4-4.3,2.7-3L84.45,40m-3,6.7,1.7-1.9,2.45,2.7L84,49.4,81.4,46.65"/><path class="cls-7" d="M81.4,46.65,84,49.4l1.6-1.95-2.45-2.7-1.7,1.9m-3.1-19.3L94.85,43.5,78.45,62.85V47.75L62.7,66.4V62.15l-2.8-1.3V57.7l-2.8-4.5L46.85,48.45l15-17.75,7.2,7.45,9.2-10.8M84.45,40,80.6,35.7l-2.7,3,4,4.3,2.55-3"/><path class="cls-8" d="M96.15,42l.1.1a1.82,1.82,0,0,1,.6,1.4V62.3a2,2,0,0,1-.45,1.3l-18,21.2V81.65L94.85,62.3V43.5l1.3-1.5"/><path class="cls-9" d="M78.45,84.8,56,111.3l-1.1.65-1.3-.15L20.5,96.3l-.8-.7a1.89,1.89,0,0,1-.35-1.1V91.75a1.89,1.89,0,0,1,.5-1.3l5.85-7v-6l2,1v5.85l-6.35,7.5V94.5L54.45,110l24-28.35V84.8M25.7,60.05V48.85a1.89,1.89,0,0,1,.5-1.3l1.9-2.2a1.87,1.87,0,0,1,1.1-.65H30l.95-1.1.4-.4,2.8-1.85a2,2,0,0,1,.95-.35h.3L36,43.35,35.2,43l-2.8,1.85-1.85,2.2L32,46.1l-1.4,1-.95-.45-1.9,2.2V61l-2-1M53.45,88.2l-20.9-9.85-1.3,1.75-.1.1V77.7l-.7-.35,25.6,12-2.6-1.1"/><path class="cls-10" d="M53.45,88.2l2.6,1.1,4.8-5.6v16l-2.1-1v-8.1L53,88l.5.2M32,46.1l1.4-.9L55.2,55.4l2.85,4.5v3.15l2.8,1.3V76.7L40.15,67l-3.1-1.45L27.7,61.2V48.85l2.85,1.35V47.1l1.4-1m1.1,2.7v4.5L30.2,52v3.4L58.35,68.55v-3.4l-2.8-1.3v-4.5L54,56.8l-19.3-9-1.6,1M41,91l-2.3,2.8L35.2,92.1l2.4-2.8L41,91m-5.7-1.3L31.8,88l2.4-2.8,3.4,1.65-2.3,2.8M29.8,85.2l-2.1-1v-8.2l2.1,1V85.2m-8.45,6.55,33.1,15.5V110L21.35,94.5V91.75m40.8.5V82.1l3.6-4.2V94l-3.6-1.7"/><path class="cls-11" d="M62.15,92.25v5.9l3.6-4.2v-16l-3.6,4.2V92.25M32,46.1l-1.4.95,1.85-2.2L35.2,43l-1.85,2.2-1.4.9m28.9,30.6V64.35l1.85-2.2V66.4L78.45,47.75v33.9L54.45,110v-2.75l5.95-7,.15-.15v0l.3-.35v-23m-2.8-13.65V59.9l1.85-2.2v3.15l-1.85,2.2m14.4-1.85L64.2,71V74.7L72.45,65V61.2M70.2,69.75V73.5l6-7.1V62.65l-6,7.1M31.15,80.2v3.45L29.8,85.2V77.05l.65.3.7.35v2.5"/><path class="cls-12" d="M31.15,80.2l.1-.1,1.3-1.75,20.9,9.85L53,88l5.8,2.65v8.1l2.1,1-.3.35v0l-.15.15-5.95,7-33.1-15.5,6.35-7.5,2.1,1,1.35-1.55V80.2M35.2,43l.8.35h0l10.9,5.1L57.1,53.2l2.8,4.5-1.85,2.2L55.2,55.4,33.35,45.2,35.2,43m-4.65,4.1v3.1L27.7,48.85l1.9-2.2.95.45m30.3,17.25-2.8-1.3,1.85-2.2,2.8,1.3-1.85,2.2M35.3,89.65l2.3-2.8L34.2,85.2,31.8,88l3.5,1.65M41,91,37.6,89.3l-2.4,2.8,3.5,1.65L41,91"/><path class="cls-13" d="M36,43.35,45.35,32.3,59.25,31,61.75,28l16.55-.65-9.2,10.8L61.9,30.7l-15,17.75L36,43.35h0M60.85,83.7l-4.8,5.6-25.6-12-.65-.3-2.1-1v0l-4.8-2.25v-2l2.45-7.75,33.1,15.5,2.4-2.85v7"/><path class="cls-14" d="M33.05,48.8l1.6-1,19.3,9,1.6,2.55v4.5l2.8,1.3v3.4L30.2,55.4V52l2.85,1.3V48.8"/><path class="cls-15" d="M70.2,69.75l6-7.1V66.4l-6,7.1V69.75m2.25-8.55V65L64.2,74.7V71l8.25-9.75"/><path class="cls-16" d="M27.7,61.2l9.35,4.3L40.15,67l20.7,9.75-2.4,2.85-33.1-15.5L27.7,61.2"/><path class="cls-17" d="M65.75,94l-3.6,4.2v-5.9l3.6,1.7"/><path class="cls-18" d="M78.45,62.85,94.85,43.5V62.3L78.45,81.65V62.85m7.65,1.8V68.9l3.75-4.35v-3.7l-3.75,3.8M88.35,57V61.2l3.75-4.35v-3.7L88.35,57"/><path class="cls-19" d="M88.35,57l3.75-3.8v3.7L88.35,61.2V57m-2.25,7.7,3.75-3.8v3.7L86.1,68.9V64.65"/><path class="cls-20" d="M85.35,95.45A12.22,12.22,0,0,1,91.5,96.9q2.55,1.5,2.55,3.55c0,1.37-.85,2.53-2.55,3.5a13.36,13.36,0,0,1-12.3,0c-1.7-1-2.55-2.13-2.55-3.5s.85-2.55,2.55-3.55a12.22,12.22,0,0,1,6.15-1.45"/><path class="cls-21" d="M74.85,83.9a3.85,3.85,0,0,1,1.2-2.9,3.8,3.8,0,0,1,2.85-1.2l.6,0,.15.05V77.4a5.11,5.11,0,0,1,1.55-3.75l0-.05A5.18,5.18,0,0,1,85.1,72,5.12,5.12,0,0,1,89,73.65V73.6a5.14,5.14,0,0,1,1.55,3.5h.75l.4,0a4,4,0,0,1,2.9,1.2A3.87,3.87,0,0,1,95.7,81.1v5.3a6.33,6.33,0,0,1-1.8,4.5l-.25.25a6.41,6.41,0,0,1-3.15,1.5V98.4a3.67,3.67,0,0,1-1.9,3.3,6.27,6.27,0,0,1-3.5,1,6.37,6.37,0,0,1-3.55-1,3.67,3.67,0,0,1-1.9-3.3V95.35a6.1,6.1,0,0,1-2.9-1.65l-.1,0a6.33,6.33,0,0,1-1.8-4.5V83.9m6.8,9.6v4.9a1.88,1.88,0,0,0,1,1.6,4.43,4.43,0,0,0,2.45.65,4.35,4.35,0,0,0,2.4-.65,1.88,1.88,0,0,0,1-1.6V90.75h.85A4.16,4.16,0,0,0,92.4,89.5h0a4.34,4.34,0,0,0,1.25-3.1V81.1a2.05,2.05,0,0,0-3.5-1.45,1.91,1.91,0,0,0-.65,1.45v5.3l0,.15-.15.1-.85-.05V77.4a3.27,3.27,0,0,0-1-2.4,3.21,3.21,0,0,0-2.4-1,3.5,3.5,0,0,0-3.45,3.45V89.35l-.45.05-.15-.05v0l-.1-.15V83.9a2,2,0,0,0-.6-1.5,2.05,2.05,0,0,0-2.9,0,2,2,0,0,0-.6,1.5v5.25A4.27,4.27,0,0,0,81.2,93.5h.45"/><path class="cls-22" d="M81.65,93.5h.45a1.91,1.91,0,0,0,1.45-.65,2,2,0,0,0,.6-1.45A1.91,1.91,0,0,0,83.5,90a2,2,0,0,0-1.45-.6h-.4V77.4A3.5,3.5,0,0,1,85.1,74a3.21,3.21,0,0,1,2.4,1,3.27,3.27,0,0,1,1,2.4v9.2l.85.05.15-.1,0-.15V81.1a1.91,1.91,0,0,1,.65-1.45,2.05,2.05,0,0,1,3.5,1.45v5.3a4.34,4.34,0,0,1-1.25,3.1h0a4.16,4.16,0,0,1-3.05,1.25H88.5V98.4a1.88,1.88,0,0,1-1,1.6,4.35,4.35,0,0,1-2.4.65,4.43,4.43,0,0,1-2.45-.65,1.88,1.88,0,0,1-1-1.6V93.5"/><path class="cls-23" d="M81.65,93.5H81.2a4.27,4.27,0,0,1-4.35-4.35V83.9a2,2,0,0,1,.6-1.5,2.05,2.05,0,0,1,2.9,0,2,2,0,0,1,.6,1.5v5.25l.1.15v0l.15.05.45-.05h.4a2,2,0,0,1,1.45.6,1.91,1.91,0,0,1,.65,1.45,2,2,0,0,1-.6,1.45,1.91,1.91,0,0,1-1.45.65h-.45"/></g></g></svg>