<svg xmlns="http://www.w3.org/2000/svg" viewBox="0 0 120 140"><defs><style>.cls-1{fill:#bb6444;}.cls-2{fill:#c26948;}.cls-3{fill:#b55f40;}.cls-4{fill:#727979;}.cls-5{fill:#a6b1b1;}.cls-6{fill:#d5e5e5;}.cls-7{fill:#b9c6c6;}.cls-8{fill-opacity:0.1;}</style></defs><title>Asset 75</title><g id="Layer_2" data-name="Layer 2"><g id="Layer_1-2" data-name="Layer 1"><path class="cls-1" d="M27.25,116.3l4.8-2.15-2.2-4.9-4.75,2.2,2.15,4.85m65-86.95.55-5.25-5.25-.55L87,28.85l5.25.5m-6.45,22.8L76.25,50l-2.1,9.55,9.45,2.1,2.15-9.5m5.75-11.6L89.2,33.3,82,35.6l2.3,7.25,7.25-2.3M59.7,44l-.6-5.3-5.25.65.6,5.25L59.7,44M70,49.6l-4.5,1.55L67,55.6l4.45-1.5L70,49.6M62.2,14l4.85-2.15L64.9,7.05,60,9.2,62.2,14M88.4,52.5l2.15,4.85L95.4,55.2l-2.2-4.9-4.8,2.2m27.85,1.65-5.35-.5-.5,5.3,5.25.5.6-5.3m-9.2-14.35,5,2,1.85-5-5-1.9-1.9,5M120,35v70L60,140,0,105V35L60,0l60,35M104.25,67.75l.4-3.7-9.3-1-1.1,9.3,9.3,1,.65-5.6h0M113.9,99.1l-5-1.9-1.9,5,5,1.95,1.85-5m-11.6-20L98,76l-3.1,4.3,4.35,3.1,3-4.3m1.7,21.65-3.4-4.1L96.5,100l3.35,4.1,4.15-3.35M62.2,76.4l4.85-2.2L64.9,69.4,60,71.55l2.2,4.85m5.45,10.1L65.2,96.1l9.55,2.55L77.25,89l-9.6-2.5m-10.5-9.75h0L49.8,78.5l1.7,7.4,7.4-1.75-1.75-7.4M75.9,70.6l-6.2,6.7,6.75,6.2,6.15-6.75L75.9,70.6M82,98l2.3,7.25L91.5,103l-2.3-7.3L82,98M92.2,91.7l.55-5.25L87.5,86,87,91.2l5.25.5m-5.5,20.4L77.2,110l-2.1,9.55,9.45,2.1,2.15-9.5M43.65,25,40,28.8l3.85,3.65L47.5,28.6,43.65,25M5.4,39.7,2.3,44l4.25,3.1,3.1-4.3-4.25-3M70,112l-4.5,1.55L67,118l4.45-1.55L70,112m-5.9,10.45-5.2.85.8,5.2,5.25-.8-.85-5.25m-38-69.9,2.15,4.85L33,55.2l-2.15-4.9-4.8,2.2m-.9-28.95-.55,5.3,5.25.5.55-5.25-5.25-.55M43.6,46.2l-7.2,2.3,2.25,7.2,7.25-2.25L43.6,46.2m-2-7.8-3.4-4.1-4.1,3.35,3.35,4.1,4.15-3.35m8.05,3.35,1.85-5-5-1.9-1.9,5,5.05,2M23.4,52.15,13.9,50l-2.1,9.55,9.45,2.1,2.15-9.5m18.5,15.6.4-3.7L33,63,31.9,72.3l9.3,1,.65-5.6h0m2.75,34.4,5.05,1.95,1.85-5-5-1.9-1.9,5M30.4,86.45,25.15,86,24.6,91.2l5.25.5.55-5.25m-23-9.15,6.7,6.2,6.2-6.75-6.7-6.15-6.2,6.7M2.8,96.1l9.6,2.55L14.9,89,5.3,86.5,2.8,96.1m38.85,4.65-3.4-4.1L34.15,100l3.35,4.1,4.15-3.35m-3,17.35,7.25-2.3-2.3-7.2-7.2,2.25,2.25,7.25"/><path class="cls-2" d="M38.65,118.1l-2.25-7.25,7.2-2.25,2.3,7.2-7.25,2.3M92.2,29.35,87,28.85l.55-5.3,5.25.55-.55,5.25M88.4,52.5l4.8-2.2,2.2,4.9-4.85,2.15L88.4,52.5m18.65-12.7,1.9-5,5,1.9-1.85,5-5-2M102.3,79.1l-3,4.3L94.9,80.3,98,76l4.3,3.1m11.6,20-1.85,5-5-1.95,1.9-5,5,1.9M62.2,76.4,60,71.55l4.9-2.15,2.15,4.8L62.2,76.4M82,98l7.25-2.3,2.3,7.3-7.25,2.25L82,98M86.7,112.1l-2.15,9.5-9.45-2.1L77.2,110l9.5,2.15M25.15,23.55l5.25.55-.55,5.25-5.25-.5.55-5.3m.9,29,4.8-2.2L33,55.2l-4.8,2.15L26.05,52.5m-2.65-.35-2.15,9.5-9.45-2.1L13.9,50l9.5,2.15m7,34.3-.55,5.25-5.25-.5L25.15,86l5.25.5m14.25,15.7,1.9-5,5,1.9-1.85,5-5.05-1.95"/><path class="cls-3" d="M62.2,14,60,9.2l4.9-2.15,2.15,4.8L62.2,14M70,49.6l1.5,4.5L67,55.6l-1.55-4.45L70,49.6M59.7,44l-5.25.6-.6-5.25,5.25-.65.6,5.3m31.8-3.4-7.25,2.3L82,35.6l7.25-2.3,2.3,7.25m-5.75,11.6-2.15,9.5-9.45-2.1L76.25,50l9.5,2.15m30.5,2-.6,5.3L110.4,59l.5-5.3,5.35.5m-12,13.6h0l-.65,5.6-9.3-1,1.1-9.3,9.3,1-.4,3.7m-.25,33-4.15,3.35L96.5,100l4.1-3.35,3.4,4.1M75.9,70.6l6.7,6.15L76.45,83.5,69.7,77.3l6.2-6.7M57.15,76.75l1.75,7.4L51.5,85.9l-1.7-7.4,7.3-1.75h0m10.5,9.75,9.6,2.5-2.5,9.65L65.2,96.1l2.45-9.6M92.2,91.7,87,91.2,87.5,86l5.25.5L92.2,91.7M64.05,122.4l.85,5.25-5.25.8-.8-5.2,5.2-.85M70,112l1.5,4.5L67,118l-1.55-4.5L70,112M5.4,39.7l4.25,3-3.1,4.3L2.3,44,5.4,39.7M43.65,25,47.5,28.6l-3.65,3.85L40,28.8,43.65,25m6.05,16.8-5.05-2,1.9-5,5,1.9-1.85,5M41.65,38.4,37.5,41.75l-3.35-4.1,4.1-3.35,3.4,4.1m2,7.8,2.3,7.25L38.65,55.7,36.4,48.5l7.2-2.3M41.9,67.75h0l-.65,5.6-9.3-1L33,63l9.35,1-.4,3.7m-.25,33L37.5,104.1,34.15,100l4.1-3.35,3.4,4.1M2.8,96.1l2.5-9.6L14.9,89l-2.5,9.65L2.8,96.1M7.35,77.3l6.2-6.7,6.7,6.15-6.2,6.75-6.7-6.2m19.9,39-2.15-4.85,4.75-2.2,2.2,4.9-4.8,2.15"/><path class="cls-4" d="M42.3,53.9l2.2-2.6V43l-1-1.35V26.2l-.5-.65-2.3-1.1-1,.55-3,3.6-1.15-.55-4.65,5.5V36l3.9,1.8,5-5.75v10.2l-1,1.7v8.3l3.5,1.65m-5.5-1.75V44a1.9,1.9,0,0,1,.25-1l.7-1.25v-4.3l-1.4,1.65-1.1.65-1.3-.1-3.9-1.8-.8-.75A1.89,1.89,0,0,1,28.9,36V33.55a1.89,1.89,0,0,1,.5-1.3l4.65-5.5a1.87,1.87,0,0,1,1.1-.65l1,0,2.1-2.45.55-.45,1-.55a1.65,1.65,0,0,1,.9-.25l.95.2,2.3,1.1.7.6.5.65a1.83,1.83,0,0,1,.4,1.2V41l.6.8A2,2,0,0,1,46.5,43V51.3a2,2,0,0,1-.45,1.3l-2.2,2.6-.65.5-.45.15-1.3-.15L38,54.05l-.8-.7a1.89,1.89,0,0,1-.35-1.1v-.1"/><path class="cls-5" d="M39.75,25l1-.55,2.3,1.1.5.65V41.6l1,1.35V51.3l-2.2,2.6V45.6l-.2-2.3V27.9l-2.35,2.75v1.4l-5,5.75L30.9,36V33.55l3.9,1.8,4.65-5.5-.4-.15,3.05-3.65L39.75,25"/><path class="cls-6" d="M39.75,25l2.35,1.05L39.05,29.7l.4.15-4.65,5.5-3.9-1.8,4.65-5.5,1.15.55,3-3.6m-1,19,1-1.7,2.35,1,.2,2.3L38.8,44"/><path class="cls-7" d="M38.8,44l3.5,1.65v8.3l-3.5-1.65V44m1-1.7V30.65L42.1,27.9V43.3l-2.35-1"/><path class="cls-8" d="M43.2,55.7l-5.75,6.8L30.9,59.1l5.9-7v.1a1.89,1.89,0,0,0,.35,1.1l.8.7,3.5,1.65,1.3.15.45-.15"/><path class="cls-4" d="M93.2,95.7l-.45.15-1.3-.15L88,94.05a2.09,2.09,0,0,1-.8-.7,1.89,1.89,0,0,1-.35-1.1V84a1.9,1.9,0,0,1,.25-1l.7-1.25v-4.3l-1.4,1.65a2.11,2.11,0,0,1-1.1.65l-1.3-.1-3.9-1.8-.8-.75A1.89,1.89,0,0,1,78.9,76V73.55a1.89,1.89,0,0,1,.5-1.3l4.65-5.5a1.87,1.87,0,0,1,1.1-.65l1,.05,2.1-2.45.55-.45,1-.55a1.65,1.65,0,0,1,.9-.25l1,.2,2.3,1.1.7.6.5.65a1.83,1.83,0,0,1,.4,1.2V81l.6.8A2,2,0,0,1,96.5,83V91.3a2,2,0,0,1-.45,1.3l-2.2,2.6-.65.5M89.75,65l-3,3.6-1.15-.55-4.65,5.5V76l3.9,1.8,5-5.75v10.2l-1,1.7v8.3l3.5,1.65,2.2-2.6V83l-1-1.35V66.2l-.5-.65-2.3-1.1-1,.55"/><path class="cls-6" d="M89.75,65l2.35,1-3,3.65.4.15-4.65,5.5-3.9-1.8,4.65-5.5,1.15.55,3-3.6m-1,19,1-1.7,2.35,1,.2,2.3L88.8,84"/><path class="cls-5" d="M89.75,65l1-.55,2.3,1.1.5.65V81.6l1,1.35V91.3l-2.2,2.6V85.6l-.2-2.3V67.9l-2.35,2.75v1.4l-5,5.75L80.9,76V73.55l3.9,1.8,4.65-5.5-.4-.15,3-3.65-2.35-1"/><path class="cls-7" d="M92.3,93.9l-3.5-1.65V84l3.5,1.65v8.3M89.75,82.25V70.65L92.1,67.9V83.3l-2.35-1"/><path class="cls-8" d="M93.2,95.7l-5.75,6.8L80.9,99.1l5.9-6.95v.1a1.89,1.89,0,0,0,.35,1.1,2.09,2.09,0,0,0,.8.7l3.5,1.65,1.3.15.45-.15"/></g></g></svg>