<svg xmlns="http://www.w3.org/2000/svg" viewBox="0 0 120 140"><defs><style>.cls-1{fill:#bb8044;}.cls-2{fill:#aa753e;}.cls-3{fill:#c68a4e;}.cls-4{fill:#a4afaf;}</style></defs><title>Asset 31</title><g id="Layer_2" data-name="Layer 2"><g id="Layer_1-2" data-name="Layer 1"><path class="cls-1" d="M88.45,77.3l-1.2,3,2.9,1.2,1.25-2.9-3-1.25m-76.7-23,.85,2.1,2-.95-.85-2.05-2,.9m44.1-26.7-.7-4.35L50.8,24l.7,4.35,4.35-.7M24.6,39.9l-3.75,2.8,2.75,3.75,3.85-2.8L24.6,39.9m10,5.2-3.25,2.6L34,51l3.2-2.6L34.6,45.1m.5,46.3-3.55,6.7,6.55,3.5L41.7,95,35.1,91.4M20.65,52.9l3,6.9,6.85-3-3.05-6.9-6.8,3m22.1,53.8,1.9,1,1.15-2-2-1-1,2M26.65,102l-1.2,4.55,4.5,1.2,1.25-4.45L26.65,102M24.35,91.4l-1,4,4,1,1-4.05-4-.95M0,35,60,0l60,35v70L60,140,0,105V35M104.55,54.8l1.2,4.45,4.4-1.25L109,53.6l-4.4,1.2m-45-38.2-.85,7,7.15.8.8-7-7.1-.8M101.3,60l-3.2-.45-.4,3.15,3.15.4.45-3.1m3,45.25-1-7-7.1,1.1,1,7,7.1-1.1m-.1-43.75-.75,6.6,6.55.75.75-6.55-6.55-.8m6.55,34.4-1.75-4-4,1.85,1.75,4,4-1.85M83,100l2.45-6.1L79.3,91.45,76.85,97.6,83,100m6.7-14,0,4.55H94.3V86H89.7"/><path class="cls-2" d="M11.75,54.3l2-.9.85,2.05-2,.95-.85-2.1M34.6,45.1l2.55,3.25L34,51l-2.6-3.25,3.25-2.6m-10-5.2,2.85,3.75-3.85,2.8L20.85,42.7l3.75-2.8m-.25,51.5,4,.95-1,4.05-4-1,1-4M26.65,102l4.55,1.3L30,107.7l-4.5-1.2,1.2-4.55m16.1,4.75,1-2,2,1-1.15,2-1.9-1M59.5,16.6l7.1.8-.8,7.05-7.15-.8.85-7m45.05,38.2,4.4-1.2,1.2,4.4-4.4,1.25-1.2-4.45m-.35,6.65,6.55.8L110,68.8l-6.55-.75.75-6.6m.1,43.75-7.1,1.1-1-7,7.1-1.1,1,7M89.7,86h4.6V90.5H89.75l0-4.55M83,100l-6.15-2.4,2.45-6.15,6.15,2.45L83,100"/><path class="cls-3" d="M55.85,27.6l-4.35.7L50.8,24l4.35-.7.7,4.35M20.65,52.9l6.8-3,3.05,6.9-6.85,3-3-6.9M35.1,91.4,41.7,95l-3.6,6.65-6.55-3.5,3.55-6.7M101.3,60l-.45,3.1-3.15-.4.4-3.15,3.2.45m9.45,35.9-4,1.85-1.75-4,4-1.85,1.75,4M88.45,77.3l3,1.25-1.25,2.9-2.9-1.2,1.2-3"/><path class="cls-4" d="M6.85,39A5.63,5.63,0,0,0,6,42V98.05a5.57,5.57,0,0,0,.85,3A5.9,5.9,0,0,0,9,103.2l20.75,12.1,5.25-.8.75,4.3L57,131.2a6,6,0,0,0,3,.8,6.26,6.26,0,0,0,3-.8L80.6,121l.9-5,4.65,1.75,4.7-2.75,1.9-6.25,5.75,1.75,12.55-7.3h0a6.35,6.35,0,0,0,2.2-2.2,5.89,5.89,0,0,0,.8-3V76.75L110.75,69,114,60.5V42a5.83,5.83,0,0,0-3-5.15h0l-14.6-8.5L87,27.5l-5.1-7.65-18.85-11A5.91,5.91,0,0,0,60,8a5.63,5.63,0,0,0-3,.85l-14.4,8.4-.85,4.25H35.3l-8.25,4.85L23.5,34l-6.65-1.7L9,36.85A5.55,5.55,0,0,0,6.85,39M0,35,60,0l60,35v70L60,140,0,105V35"/></g></g></svg>