<svg xmlns="http://www.w3.org/2000/svg" viewBox="0 0 120 140"><defs><style>.cls-1{fill:#ecdcb8;}.cls-2{fill:#e5d5b2;}.cls-3{fill:#e0d1af;}.cls-4{fill:#9a6937;}.cls-5{fill:#a3703a;}.cls-6{fill:#af783f;}.cls-7{fill:#fff;fill-opacity:0.2;}.cls-8{fill:#cd8c4a;}.cls-9{fill:#c48646;}</style></defs><title>Asset 61</title><g id="Layer_2" data-name="Layer 2"><g id="Layer_1-2" data-name="Layer 1"><path class="cls-1" d="M18.35,24.3l27.5-16h0L60,0l60,35v70L60,140,0,105V35L17.25,25l.05-.05h.05l1-.6M114,42a5.83,5.83,0,0,0-3-5.15h0l-5.65-3.3a61.49,61.49,0,0,1-8.35,3.25l0,.05Q77.94,41.61,69.55,60.1A53.62,53.62,0,0,0,67,67a43.55,43.55,0,0,1-4.4,11L60,81.85Q52.11,92.2,37,96.9l0,0a39,39,0,0,0-19.6,11.2l30.3,17.65,1-1.7,2-3.95a42.65,42.65,0,0,0,2.4-7A51.69,51.69,0,0,1,60,98.8,38.43,38.43,0,0,1,83.1,83.2l0,0q18-5.55,25.75-19.1l2-3.95a39,39,0,0,0,2.4-7.05l.8-2.35V42M85.85,22.15,65.9,10.5a44.83,44.83,0,0,1-3.35,7.35L60,21.75q-7.85,10.35-23,15l0,.05Q17.9,41.61,9.5,60.1A60.49,60.49,0,0,0,6.85,67L6,69.9v22a39.28,39.28,0,0,1,17-8.7l-.05,0q18-5.55,25.8-19.1l2-3.95a44.24,44.24,0,0,0,2.4-7.05A51.77,51.77,0,0,1,60,38.75,38.37,38.37,0,0,1,83.1,23.1l0-.05,2.8-.9M87.2,91l0,4.55H91.8V91H87.2m1.25-6.15-1.2,3,2.9,1.2,1.25-2.9-3-1.25M76.8,91.45,74.35,97.6,80.5,100,83,93.9,76.8,91.45m29.9-20-.75,6.6,6.55.75.75-6.55-6.55-.8M76.1,39.9l-.4,3.15,3.15.4.45-3.1-3.2-.45m6.45-8.8-4,1.85,1.75,4c1.33-.6,2.67-1.22,4-1.85l-1.75-4M97.1,97q-19.15,4.76-27.55,23.2A53.62,53.62,0,0,0,67,127l-.65,2.3,44.75-26.1h0a6.35,6.35,0,0,0,2.2-2.2,5.89,5.89,0,0,0,.8-3v-10a49.44,49.44,0,0,1-17,8.8l0,0M63,118.6l-4,1.85,1.75,4,4-1.85-1.75-4m-1.7-13.85-1,2,1.9,1,1.15-2-2-1M37.9,91.85l3.6-6.65-6.6-3.55-3.55,6.7,6.55,3.5M59,79l-1-7-7.1,1.1,1,7L59,79m-4.8-17.5,0,4.55H58.8V61.45H54.2M27.1,88.9l-1,4,4,1,1-4.05-4-.95M13.6,44l3.85-2.8L14.6,37.4l-3.75,2.8L13.6,44m7.85-3,3.2-2.6L22.1,35.1l-3.25,2.6L21.45,41M9.25,46.8l.85,2.1,2-.95-.85-2.05-2,.9m44.1-24.2-.7-4.35L48.3,19,49,23.3l4.35-.7"/><path class="cls-2" d="M53.35,22.6,49,23.3,48.3,19l4.35-.7.7,4.35m32.5-.45-2.8.9,0,.05A38.37,38.37,0,0,0,60,38.75a51.77,51.77,0,0,0-6.8,14.3,44.24,44.24,0,0,1-2.4,7.05l-2,3.95Q40.95,77.6,23,83.15l.05,0A39.28,39.28,0,0,0,6,91.9v-22l.85-3A60.49,60.49,0,0,1,9.5,60.1q8.4-18.49,27.55-23.25l0-.05q15.11-4.69,23-15l2.6-3.9A44.83,44.83,0,0,0,65.9,10.5L85.85,22.15M114,42v8.7l-.8,2.35a39,39,0,0,1-2.4,7.05l-2,3.95Q101,77.6,83.05,83.15l0,0A38.43,38.43,0,0,0,60,98.8a51.69,51.69,0,0,0-6.8,14.35,42.65,42.65,0,0,1-2.4,7l-2,3.95-1,1.7-30.3-17.65A39,39,0,0,1,37.05,97l0,0q15.11-4.7,23-15.05l2.6-3.9A43.55,43.55,0,0,0,67,67a53.62,53.62,0,0,1,2.6-6.85Q78,41.61,97.1,36.85l0-.05a61.49,61.49,0,0,0,8.35-3.25l5.65,3.3h0A5.83,5.83,0,0,1,114,42M82.55,31.1l1.75,4c-1.33.63-2.67,1.25-4,1.85l-1.75-4,4-1.85M76.1,39.9l3.2.45-.45,3.1-3.15-.4.4-3.15m30.6,31.55,6.55.8-.75,6.55L106,78.05l.75-6.6m-29.9,20L83,93.9,80.5,100l-6.15-2.4,2.45-6.15M88.45,84.8l3,1.25L90.15,89l-2.9-1.2,1.2-3M87.2,91h4.6V95.5H87.25l0-4.55m9.9,6,0,0a49.44,49.44,0,0,0,17-8.8v10a5.89,5.89,0,0,1-.8,3,6.35,6.35,0,0,1-2.2,2.2h0L66.3,129.3,67,127a53.62,53.62,0,0,1,2.6-6.85Q78,101.7,97.1,97M9.25,46.8l2-.9L12.1,48l-2,.95-.85-2.1M21.45,41l-2.6-3.25,3.25-2.6,2.55,3.25L21.45,41M13.6,44,10.85,40.2l3.75-2.8,2.85,3.75L13.6,44m13.5,45,4,.95-1,4.05-4-1,1-4M54.2,61.45h4.6V66H54.25l0-4.55M59,79l-7.1,1.1-1-7L58,72l1,7M37.9,91.85l-6.55-3.5,3.55-6.7,6.6,3.55-3.6,6.65m23.4,12.9,2,1-1.15,2-1.9-1,1-2M63,118.6l1.75,4-4,1.85-1.75-4,4-1.85"/><path class="cls-3" d="M17.3,24.9l1.05-.6-1,.6H17.3"/><path class="cls-4" d="M116.4,96,120,35h0v70l-1.85-3.75L116.3,97.5l.1-1.5M0,105V35l.1,0L4.35,87.4l.15,1.85L2.6,96,0,105"/><path class="cls-5" d="M118.15,101.25,120,105,60,140V128.85l58.15-27.6"/><path class="cls-6" d="M118.15,101.25,60,128.85V110.6l56.3-13.1,1.85,3.75"/><path class="cls-7" d="M116.4,96l-.1,1.5L60,110.6,4.5,89.25,4.35,87.4l55.9,20.45L116.4,96"/><path class="cls-8" d="M2.6,96l1.9-6.7L60,110.6v18.25L2.6,96"/><path class="cls-9" d="M2.6,96,60,128.85V140L0,105l2.6-9"/></g></g></svg>