<svg xmlns="http://www.w3.org/2000/svg" viewBox="0 0 120 140"><defs><style>.cls-1{fill:#ecdcb8;}.cls-2{fill:#e5d5b2;}.cls-3{fill:#e0d1af;}.cls-4{fill-opacity:0.1;}.cls-5{fill:#1a7741;}.cls-6{fill:#27ae60;}.cls-7{fill:#2bc46c;}</style></defs><title>Asset 55</title><g id="Layer_2" data-name="Layer 2"><g id="Layer_1-2" data-name="Layer 1"><path class="cls-1" d="M17.3,24.9h.05l1-.6,27.5-16h0L60,0l60,35v70L60,140,0,105V35L17.25,25l.05-.05m65.75-1.85,2.8-.9L65.9,10.5a44.83,44.83,0,0,1-3.35,7.35L60,21.75q-7.85,10.35-23,15l0,.05Q17.9,41.61,9.5,60.1A60.49,60.49,0,0,0,6.85,67L6,69.9v22a39.28,39.28,0,0,1,17-8.7l-.05,0q18-5.55,25.8-19.1l2-3.95a44.24,44.24,0,0,0,2.4-7.05A51.77,51.77,0,0,1,60,38.75,38.37,38.37,0,0,1,83.1,23.1l0-.05m14,13.8Q77.94,41.61,69.55,60.1A53.62,53.62,0,0,0,67,67a43.55,43.55,0,0,1-4.4,11L60,81.85Q52.11,92.2,37,96.9l0,0a39,39,0,0,0-19.6,11.2l30.3,17.65,1-1.7,2-3.95a42.65,42.65,0,0,0,2.4-7A51.69,51.69,0,0,1,60,98.8,38.43,38.43,0,0,1,83.1,83.2l0,0q18-5.55,25.75-19.1l2-3.95a39,39,0,0,0,2.4-7.05l.8-2.35V42a5.83,5.83,0,0,0-3-5.15h0l-5.65-3.3a61.49,61.49,0,0,1-8.35,3.25l0,.05m-5.7,49.2-3-1.25-1.2,3,2.9,1.2,1.25-2.9m.4,9.45V91H87.2l0,4.55H91.8m20.7-16.7.75-6.55-6.55-.8-.75,6.6,6.55.75M62.15,107.7l1.15-2-2-1-1,2,1.9,1m12.2-10.1L80.5,100,83,93.9,76.8,91.45,74.35,97.6M59,79l-1-7-7.1,1.1,1,7L59,79M54.25,66H58.8V61.45H54.2l0,4.55m21.45-23,3.15.4.45-3.1-3.2-.45-.4,3.15M52.65,18.25,48.3,19,49,23.3l4.35-.7-.7-4.35M84.3,35.1l-1.75-4-4,1.85,1.75,4,4-1.85M97.1,97q-19.15,4.76-27.55,23.2A53.62,53.62,0,0,0,67,127l-.65,2.3,44.75-26.1h0a6.35,6.35,0,0,0,2.2-2.2,5.89,5.89,0,0,0,.8-3v-10a49.44,49.44,0,0,1-17,8.8l0,0M64.75,122.6l-1.75-4-4,1.85,1.75,4,4-1.85M26.1,92.9l4,1,1-4.05-4-.95-1,4m5.25-4.55,6.55,3.5,3.6-6.65-6.6-3.55-3.55,6.7m-6.7-50L22.1,35.1l-3.25,2.6L21.45,41l3.2-2.6M10.85,40.2,13.6,44l3.85-2.8L14.6,37.4l-3.75,2.8M12.1,48l-.85-2.05-2,.9.85,2.1,2-.95"/><path class="cls-2" d="M12.1,48l-2,.95-.85-2.1,2-.9L12.1,48m85-11.1,0-.05a61.49,61.49,0,0,0,8.35-3.25l5.65,3.3h0A5.83,5.83,0,0,1,114,42v8.7l-.8,2.35a39,39,0,0,1-2.4,7.05l-2,3.95Q101,77.6,83.05,83.15l0,0A38.43,38.43,0,0,0,60,98.8a51.69,51.69,0,0,0-6.8,14.35,42.65,42.65,0,0,1-2.4,7l-2,3.95-1,1.7-30.3-17.65A39,39,0,0,1,37.05,97l0,0q15.11-4.7,23-15.05l2.6-3.9A43.55,43.55,0,0,0,67,67a53.62,53.62,0,0,1,2.6-6.85Q78,41.61,97.1,36.85m-14-13.8,0,.05A38.37,38.37,0,0,0,60,38.75a51.77,51.77,0,0,0-6.8,14.3,44.24,44.24,0,0,1-2.4,7.05l-2,3.95Q40.95,77.6,23,83.15l.05,0A39.28,39.28,0,0,0,6,91.9v-22l.85-3A60.49,60.49,0,0,1,9.5,60.1q8.4-18.49,27.55-23.25l0-.05q15.11-4.69,23-15l2.6-3.9A44.83,44.83,0,0,0,65.9,10.5L85.85,22.15l-2.8.9M84.3,35.1,80.3,37l-1.75-4,4-1.85,1.75,4M52.65,18.25l.7,4.35L49,23.3,48.3,19l4.35-.7M75.7,43.05l.4-3.15,3.2.45-.45,3.1-3.15-.4M54.25,66l0-4.55h4.6V66H54.25M59,79l-7.1,1.1-1-7L58,72l1,7M74.35,97.6l2.45-6.15L83,93.9,80.5,100l-6.15-2.4m-12.2,10.1-1.9-1,1-2,2,1-1.15,2M112.5,78.8,106,78.05l.75-6.6,6.55.8-.75,6.55M91.8,95.5H87.25l0-4.55h4.6V95.5m-.4-9.45L90.15,89l-2.9-1.2,1.2-3,3,1.25M97.1,97l0,0a49.44,49.44,0,0,0,17-8.8v10a5.89,5.89,0,0,1-.8,3,6.35,6.35,0,0,1-2.2,2.2h0L66.3,129.3,67,127a53.62,53.62,0,0,1,2.6-6.85Q78,101.7,97.1,97M10.85,40.2l3.75-2.8,2.85,3.75L13.6,44,10.85,40.2m13.8-1.85L21.45,41l-2.6-3.25,3.25-2.6,2.55,3.25m6.7,50,3.55-6.7,6.6,3.55-3.6,6.65-6.55-3.5M26.1,92.9l1-4,4,.95-1,4.05-4-1m38.65,29.7-4,1.85-1.75-4,4-1.85,1.75,4"/><path class="cls-3" d="M17.3,24.9l1.05-.6-1,.6H17.3"/><path class="cls-4" d="M24.8,97.4c0-1.13.7-2.1,2.1-2.9a9.74,9.74,0,0,1,5-1.2A10,10,0,0,1,37,94.5a3.08,3.08,0,0,1,0,5.8,10,10,0,0,1-5.05,1.2,9.74,9.74,0,0,1-5-1.2c-1.4-.8-2.1-1.77-2.1-2.9"/><path class="cls-5" d="M35.15,83.15a4.81,4.81,0,0,1,1.45,3.4l.2.2a6.79,6.79,0,0,1,2.05,5,7,7,0,0,1-7.1,7.1,6.79,6.79,0,0,1-5-2,7.15,7.15,0,0,1-.35-9.75v-.3a5.12,5.12,0,0,1,5.1-5.1,5,5,0,0,1,3.65,1.5M28.6,87.8l-.45.35a5.09,5.09,0,1,0,7.2,7.2,5.07,5.07,0,0,0,0-7.2l-.8-.65.05-.75a3.1,3.1,0,1,0-6.2,0l.2,1"/><path class="cls-6" d="M28.6,87.8A3.27,3.27,0,0,0,29.3,89a3.14,3.14,0,0,0,4.4,0l.85-1.45.8.65a5.09,5.09,0,1,1-7.2,7.2,5.07,5.07,0,0,1,0-7.2l.45-.35"/><path class="cls-7" d="M28.6,87.8l-.2-1a3.1,3.1,0,1,1,6.2,0l-.05.75L33.7,89a3.14,3.14,0,0,1-4.4,0,3.27,3.27,0,0,1-.7-1.15"/><path class="cls-4" d="M66.1,112.85a3.55,3.55,0,0,1-2.1,3,10.83,10.83,0,0,1-10.1,0,3.19,3.19,0,0,1,0-6,10.83,10.83,0,0,1,10.1,0,3.55,3.55,0,0,1,2.1,3"/><path class="cls-6" d="M56.4,102.15V89.35a2.55,2.55,0,0,1,4.35-1.8,2.53,2.53,0,0,1,.7,1.8V96.1l.65.05.1-.05,0-.1v-4a1.44,1.44,0,0,1,.45-1,1.5,1.5,0,0,1,1.1-.45,1.54,1.54,0,0,1,1.5,1.5v4a3.15,3.15,0,0,1-.9,2.25h-.05a3.08,3.08,0,0,1-2.25,1h-.65v11.55a1.43,1.43,0,0,1-.7,1.2l-1.8.45a3.44,3.44,0,0,1-1.8-.45,1.43,1.43,0,0,1-.75-1.2V105.2h.35a1.44,1.44,0,0,0,1-.45,1.5,1.5,0,0,0,.45-1.1,1.38,1.38,0,0,0-.5-1.05,1.35,1.35,0,0,0-1-.45h-.3"/><path class="cls-5" d="M56.4,102.15l-.35,0-.1,0v-.05l-.05-.1V98.15A1.55,1.55,0,0,0,55.45,97a1.59,1.59,0,0,0-1.1-.4,1.52,1.52,0,0,0-1.05.4,1.55,1.55,0,0,0-.45,1.15V102a3.16,3.16,0,0,0,3.2,3.2h.35v5.55a1.43,1.43,0,0,0,.75,1.2,3.44,3.44,0,0,0,1.8.45l1.8-.45a1.43,1.43,0,0,0,.7-1.2V99.2h.65a3.08,3.08,0,0,0,2.25-1h.05A3.15,3.15,0,0,0,65.3,96v-4a1.54,1.54,0,0,0-1.5-1.5,1.5,1.5,0,0,0-1.1.45,1.44,1.44,0,0,0-.45,1v4l0,.1-.1.05-.65-.05V89.35a2.53,2.53,0,0,0-.7-1.8,2.55,2.55,0,0,0-4.35,1.8v12.8m-.65-16A4.27,4.27,0,0,1,59,84.8a4.42,4.42,0,0,1,3.25,1.35v0a4.61,4.61,0,0,1,1.2,2.35h.5a3.3,3.3,0,0,1,2.4,1,3.43,3.43,0,0,1,1,2.45v4a5.15,5.15,0,0,1-1.45,3.65l-.2.2a5.14,5.14,0,0,1-2.2,1.2v9.7A3.22,3.22,0,0,1,62,113.6l-.15.1a5.53,5.53,0,0,1-2.85.7,5.27,5.27,0,0,1-2.8-.7l-.1,0a3.21,3.21,0,0,1-1.65-2.9V107a4.75,4.75,0,0,1-1.95-1.2H52.4A5.11,5.11,0,0,1,50.85,102V98.15a3.38,3.38,0,0,1,1-2.55l.1-.1a3.41,3.41,0,0,1,2.35-.9h0V89.35a4.27,4.27,0,0,1,1.35-3.2"/><path class="cls-7" d="M56.4,102.15h.3a1.35,1.35,0,0,1,1,.45,1.38,1.38,0,0,1,.5,1.05,1.5,1.5,0,0,1-.45,1.1,1.44,1.44,0,0,1-1,.45h-.7a3.16,3.16,0,0,1-3.2-3.2V98.15A1.55,1.55,0,0,1,53.3,97a1.52,1.52,0,0,1,1.05-.4,1.59,1.59,0,0,1,1.1.4,1.55,1.55,0,0,1,.45,1.15V102l.05.1v.05l.1,0,.35,0"/></g></g></svg>