<svg xmlns="http://www.w3.org/2000/svg" viewBox="0 0 120 140"><defs><style>.cls-1{fill:#ecdcb8;}.cls-2{fill:#e5d5b2;}.cls-3{fill:#e0d1af;}.cls-4{fill-opacity:0.1;}.cls-5{fill:#1a7741;}.cls-6{fill:#27ae60;}.cls-7{fill:#2bc46c;}.cls-8{fill:#666;}.cls-9{fill:#464646;}.cls-10{fill:#d8a36d;}.cls-11{fill:#8a8a8a;}.cls-12{fill:gray;}.cls-13{fill:#be9060;}.cls-14{fill:#5b4c3c;}.cls-15{fill:#a07a50;}.cls-16{fill:#d26f49;}.cls-17{fill:#30c;}.cls-18{fill:#bb5f3c;}.cls-19{fill:#515151;}.cls-20{fill:#d2a66b;}</style></defs><title>Asset 155</title><g id="Layer_2" data-name="Layer 2"><g id="Layer_1-2" data-name="Layer 1"><path class="cls-1" d="M48.3,19,49,23.3l4.35-.7-.7-4.35L48.3,19M18.35,24.3l27.5-16h0L60,0l60,35v70L60,140,0,105V35L17.25,25l.05-.05h.05l1-.6M21.45,41l3.2-2.6L22.1,35.1l-3.25,2.6L21.45,41M14.6,37.4l-3.75,2.8L13.6,44l3.85-2.8L14.6,37.4M9.25,46.8l.85,2.1,2-.95-.85-2.05-2,.9m27.8-9.95Q17.9,41.61,9.5,60.1A60.49,60.49,0,0,0,6.85,67L6,69.9v22a39.28,39.28,0,0,1,17-8.7l-.05,0q18-5.55,25.8-19.1l2-3.95a44.24,44.24,0,0,0,2.4-7.05A51.77,51.77,0,0,1,60,38.75,38.37,38.37,0,0,1,83.1,23.1l0-.05,2.8-.9L65.9,10.5a44.83,44.83,0,0,1-3.35,7.35L60,21.75q-7.85,10.35-23,15l0,.05m38.65,6.2,3.15.4.45-3.1-3.2-.45-.4,3.15M82.55,31.1l-4,1.85,1.75,4,4-1.85-1.75-4M67,67a43.55,43.55,0,0,1-4.4,11L60,81.85Q52.11,92.2,37,96.9l0,0a39,39,0,0,0-19.6,11.2l30.3,17.65,1-1.7,2-3.95a42.65,42.65,0,0,0,2.4-7A51.69,51.69,0,0,1,60,98.8,38.43,38.43,0,0,1,83.1,83.2l0,0q18-5.55,25.75-19.1l2-3.95a39,39,0,0,0,2.4-7.05l.8-2.35V42a5.83,5.83,0,0,0-3-5.15h0l-5.65-3.3a61.49,61.49,0,0,1-8.35,3.25l0,.05Q77.94,41.61,69.55,60.1A53.62,53.62,0,0,0,67,67m-3.65,38.8-2-1-1,2,1.9,1,1.15-2m1.45,16.85-1.75-4-4,1.85,1.75,4,4-1.85M37.9,91.85l3.6-6.65-6.6-3.55-3.55,6.7,6.55,3.5M27.1,88.9l-1,4,4,1,1-4.05-4-.95m60.1,2,0,4.55H91.8V91H87.2M83,93.9,76.8,91.45,74.35,97.6,80.5,100,83,93.9m5.5-9.1-1.2,3,2.9,1.2,1.25-2.9-3-1.25M58,72l-7.1,1.1,1,7L59,79l-1-7M54.2,61.45l0,4.55H58.8V61.45H54.2M66.3,129.3l44.75-26.1h0a6.35,6.35,0,0,0,2.2-2.2,5.89,5.89,0,0,0,.8-3v-10a49.44,49.44,0,0,1-17,8.8l0,0q-19.15,4.76-27.55,23.2A53.62,53.62,0,0,0,67,127l-.65,2.3m47-57.05-6.55-.8-.75,6.6,6.55.75.75-6.55"/><path class="cls-2" d="M113.25,72.25l-.75,6.55L106,78.05l.75-6.6,6.55.8M48.3,19l4.35-.7.7,4.35L49,23.3,48.3,19M9.25,46.8l2-.9L12.1,48l-2,.95-.85-2.1m5.35-9.4,2.85,3.75L13.6,44,10.85,40.2l3.75-2.8M21.45,41l-2.6-3.25,3.25-2.6,2.55,3.25L21.45,41m15.6-4.1,0-.05q15.11-4.69,23-15l2.6-3.9A44.83,44.83,0,0,0,65.9,10.5L85.85,22.15l-2.8.9,0,.05A38.37,38.37,0,0,0,60,38.75a51.77,51.77,0,0,0-6.8,14.3,44.24,44.24,0,0,1-2.4,7.05l-2,3.95Q40.95,77.6,23,83.15l.05,0A39.28,39.28,0,0,0,6,91.9v-22l.85-3A60.49,60.49,0,0,1,9.5,60.1q8.4-18.49,27.55-23.25m45.5-5.75,1.75,4L80.3,37l-1.75-4,4-1.85M75.7,43.05l.4-3.15,3.2.45-.45,3.1-3.15-.4M67,67a53.62,53.62,0,0,1,2.6-6.85Q78,41.61,97.1,36.85l0-.05a61.49,61.49,0,0,0,8.35-3.25l5.65,3.3h0A5.83,5.83,0,0,1,114,42v8.7l-.8,2.35a39,39,0,0,1-2.4,7.05l-2,3.95Q101,77.6,83.05,83.15l0,0A38.43,38.43,0,0,0,60,98.8a51.69,51.69,0,0,0-6.8,14.35,42.65,42.65,0,0,1-2.4,7l-2,3.95-1,1.7-30.3-17.65A39,39,0,0,1,37.05,97l0,0q15.11-4.7,23-15.05l2.6-3.9A43.55,43.55,0,0,0,67,67M54.2,61.45h4.6V66H54.25l0-4.55M58,72l1,7-7.1,1.1-1-7L58,72M88.45,84.8l3,1.25L90.15,89l-2.9-1.2,1.2-3M83,93.9,80.5,100l-6.15-2.4,2.45-6.15L83,93.9m4.25-3h4.6V95.5H87.25l0-4.55m-60.1-2,4,.95-1,4.05-4-1,1-4m10.8,2.95-6.55-3.5,3.55-6.7,6.6,3.55-3.6,6.65M64.75,122.6l-4,1.85-1.75-4,4-1.85,1.75,4M63.3,105.75l-1.15,2-1.9-1,1-2,2,1m3,23.55L67,127a53.62,53.62,0,0,1,2.6-6.85Q78,101.7,97.1,97l0,0a49.44,49.44,0,0,0,17-8.8v10a5.89,5.89,0,0,1-.8,3,6.35,6.35,0,0,1-2.2,2.2h0L66.3,129.3"/><path class="cls-3" d="M17.3,24.9l1.05-.6-1,.6H17.3"/><path class="cls-4" d="M79.25,57.85a3.19,3.19,0,0,1,0-6,10.83,10.83,0,0,1,10.1,0,3.19,3.19,0,0,1,0,6,10.83,10.83,0,0,1-10.1,0"/><path class="cls-5" d="M87.55,28.2a4.61,4.61,0,0,1,1.2,2.35h.5a3.3,3.3,0,0,1,2.4,1.05,3.43,3.43,0,0,1,1,2.45v4a5.15,5.15,0,0,1-1.45,3.65l-.2.2a5.14,5.14,0,0,1-2.2,1.2v9.7a3.22,3.22,0,0,1-1.5,2.85l-.15.1a5.53,5.53,0,0,1-2.85.7,5.27,5.27,0,0,1-2.8-.7l-.1-.05a3.21,3.21,0,0,1-1.65-2.9V49a4.75,4.75,0,0,1-2-1.2h0A5.11,5.11,0,0,1,76.2,44V40.15a3.38,3.38,0,0,1,1-2.55l.1-.1a3.41,3.41,0,0,1,2.35-.9h0V31.35A4.61,4.61,0,0,1,84.3,26.8a4.42,4.42,0,0,1,3.25,1.35v.05m-5.8,19v5.55A1.43,1.43,0,0,0,82.5,54a3.82,3.82,0,0,0,3.6,0,1.43,1.43,0,0,0,.7-1.2V41.2h.65a3.08,3.08,0,0,0,2.25-1h0a3.15,3.15,0,0,0,.9-2.25v-4a1.54,1.54,0,0,0-1.5-1.5,1.5,1.5,0,0,0-1.1.45,1.44,1.44,0,0,0-.45,1v4l0,.1-.1,0-.65,0V31.35a2.53,2.53,0,0,0-.7-1.8,2.55,2.55,0,0,0-4.35,1.8v12.8l-.35.05-.1-.05v0l0-.1V40.15A1.55,1.55,0,0,0,80.8,39l-1.1-.4a1.52,1.52,0,0,0-1,.4,1.55,1.55,0,0,0-.45,1.15V44a3.16,3.16,0,0,0,3.2,3.2h.35"/><path class="cls-6" d="M81.75,47.2h.35a1.44,1.44,0,0,0,1.05-.45,1.5,1.5,0,0,0,.45-1.1,1.38,1.38,0,0,0-.5-1,1.35,1.35,0,0,0-1-.45h-.3V31.35a2.55,2.55,0,0,1,4.35-1.8,2.53,2.53,0,0,1,.7,1.8V38.1l.65,0,.1,0,0-.1v-4a1.44,1.44,0,0,1,.45-1,1.5,1.5,0,0,1,1.1-.45,1.54,1.54,0,0,1,1.5,1.5v4a3.15,3.15,0,0,1-.9,2.25h0a3.08,3.08,0,0,1-2.25,1H86.8V52.75a1.43,1.43,0,0,1-.7,1.2,3.83,3.83,0,0,1-3.6,0,1.43,1.43,0,0,1-.75-1.2V47.2"/><path class="cls-7" d="M81.75,47.2H81.4A3.16,3.16,0,0,1,78.2,44V40.15A1.55,1.55,0,0,1,78.65,39a1.52,1.52,0,0,1,1-.4l1.1.4a1.55,1.55,0,0,1,.45,1.15V44l0,.1v0l.1.05.35-.05h.3a1.35,1.35,0,0,1,1,.45,1.38,1.38,0,0,1,.5,1,1.5,1.5,0,0,1-.45,1.1,1.44,1.44,0,0,1-1.05.45h-.35"/><path class="cls-8" d="M18.35,51.9l-4.35-2L30.85,30l5.5-.1L22.7,46,83.6,74.45,89.1,85l-3.6-1.7-1-.5-1.65-.75L58.55,70.7l-5.1-2.4L52.7,68,37.8,61v0l-6-2.85v0L21.35,53.3l-3-1.4"/><path class="cls-9" d="M18.35,51.9l-3.2.7-2-1-.85-.8a1.87,1.87,0,0,1,.2-2.3L29.35,28.7l.65-.5.45-.15.4-.05,5.5-.1.75.15.1.05L98.1,56.55l.4.25,8.7,6.75a1.74,1.74,0,0,1,.6.85l.15,1-.45,1L106,68.25l-3.25.7L106,65.1l-8.7-6.75L36.35,29.9l-5.5.1L14,49.85l4.35,2"/><path class="cls-10" d="M18.35,51.9l3,1.4v8.85L31.75,67l6,2.85L53.2,77l5.35-6.3L82.8,82.05v8.8l1.65.8,1-1.25V83.3L89.1,85l7.75-9.15.7.35,1-1.25V73.8l.4-.5L102.7,69l8.5,4-22.85,27L9.05,62.85l9.3-11m15.9-16.25,1.3-1.55L85.7,57.55,84.4,59.1,34.25,35.65M60.1,83.15c.77.37,1.53.72,2.3,1l3.4-4.15-2.2-1-3.5,4.15m4.15-6.5-2.2-1.05-3.5,4.15,2.3,1,3.4-4.15m32.6,4.5,2.3,1,6.8-8.3-2.2-1.05-6.9,8.3"/><path class="cls-11" d="M85.7,57.55,35.55,34.1l-1.3,1.55v5.6L84.4,64.7l1.3-1.55v-5.6M36.35,29.9l60.9,28.45L83.6,74.45,22.7,46,36.35,29.9m-2.8,13.9-2.9-1.35-2.1,2.45,2.8,1.35,2.2-2.45m42,24.25,3.8,1.8,3-3.3L78.4,64.7l-2.85,3.35"/><path class="cls-12" d="M75.55,68.05,78.4,64.7l3.9,1.85-3,3.3-3.8-1.8m21.7-9.7L106,65.1,102.7,69,99,73.3l-.4.45-1,1.25-.7.85L89.1,85,83.6,74.45l13.65-16.1M33.55,43.8l-2.2,2.45-2.8-1.35,2.1-2.45,2.9,1.35"/><path class="cls-13" d="M34.25,35.65,84.4,59.1v5.6L34.25,41.25v-5.6M82.8,82.05l1.65.75v8.85l-1.65-.8v-8.8m-18.55-5.4-3.4,4.15-2.3-1,3.5-4.15,2.2,1.05m-4.15,6.5L63.6,79l2.2,1L62.4,84.2c-.77-.33-1.53-.68-2.3-1m-51-20.3L88.35,99.9v2.2l-79.3-37v-2.2M97.55,76.2l-.7-.35.7-.85v1.2m-.7,5,6.9-8.3L106,73.9l-6.8,8.3-2.3-1"/><path class="cls-14" d="M106,68.25l6.1,2.85.85.75.3,1.05v2.2a2,2,0,0,1-.45,1.3l-22.85,27a2.11,2.11,0,0,1-1.1.65l-1.3-.15L8.2,66.85l-.8-.7a1.89,1.89,0,0,1-.35-1.1v-2.2a1.89,1.89,0,0,1,.5-1.3l7.6-8.95,3.2-.7-9.3,11v2.2l79.3,37.05,22.85-27V72.9l-8.5-4,3.25-.7"/><path class="cls-15" d="M84.4,59.1l1.3-1.55v5.6L84.4,64.7V59.1m0,23.7,1,.5v7.1l-1,1.25V82.8m3.9,17.1,22.85-27v2.2l-22.85,27V99.9M98.6,73.8V75l-1,1.25V75l1-1.25v0"/><path class="cls-16" d="M53.2,68.2V77L37.8,69.85V61l14.9,7,.5.25M31.75,67l-10.4-4.85V53.3l10.4,4.85V67"/><path class="cls-17" d="M52.7,68l.75.35-.25-.1L52.7,68"/><path class="cls-18" d="M53.45,68.3l5.1,2.4L53.2,77V68.2l.25.1"/><path class="cls-19" d="M37.8,61v8.85l-6-2.85V58.1l6,2.85v0"/><path class="cls-20" d="M99,73.3l-.4.5v0l.4-.45"/><path class="cls-14" d="M64.8,92.55l5-5.85a1.87,1.87,0,0,1,1.1-.65l1.25.15,8,3.75.85.75.3,1v8.6a2,2,0,0,1-.45,1.3l-4.9,5.8a2.11,2.11,0,0,1-1.1.65l-1.3-.1-8-3.75-.8-.75a1.89,1.89,0,0,1-.35-1.1V93.85a1.89,1.89,0,0,1,.5-1.3m14.45-.8-8-3.75-5,5.85v8.55l8,3.75,4.9-5.8v-8.6"/><path class="cls-10" d="M79.25,91.75l-4.9,5.85-8-3.75,5-5.85,8,3.75"/><path class="cls-15" d="M79.25,91.75v8.6l-4.9,5.8V97.6l4.9-5.85"/><path class="cls-13" d="M66.3,93.85l8,3.75v8.55l-8-3.75V93.85"/><path class="cls-14" d="M64.85,95.7l-5.4-5.8-7.6,3.95v8.55l5.4,5.8,7.6-4V95.7m-6.3-7.55L59.8,88l1.15.6,5.4,5.8a2,2,0,0,1,.5,1.35v8.55l-.3,1-.75.75-7.6,4-1.3.2-1.1-.6-5.4-5.8a2,2,0,0,1-.55-1.4V93.85a1.76,1.76,0,0,1,.3-1l.8-.75,7.6-3.95"/><path class="cls-10" d="M51.85,93.85l7.6-3.95,5.4,5.8-7.6,4-5.4-5.8"/><path class="cls-15" d="M57.25,99.65l7.6-4v8.55l-7.6,4V99.65"/><path class="cls-13" d="M57.25,99.65v8.55l-5.4-5.8V93.85l5.4,5.8"/></g></g></svg>