<svg xmlns="http://www.w3.org/2000/svg" xmlns:xlink="http://www.w3.org/1999/xlink" viewBox="0 0 120 140"><defs><style>.cls-1{fill:#27ae60;}.cls-2{fill:url(#linear-gradient);}.cls-3{fill:url(#linear-gradient-2);}.cls-4{fill:url(#linear-gradient-3);}.cls-5{fill:url(#linear-gradient-4);}.cls-6{fill:url(#linear-gradient-5);}.cls-7{fill:url(#linear-gradient-6);}.cls-8{fill:url(#linear-gradient-7);}.cls-9{fill:url(#linear-gradient-8);}.cls-10{fill:url(#linear-gradient-9);}.cls-11{fill:url(#linear-gradient-10);}.cls-12{fill:url(#linear-gradient-11);}.cls-13{fill:url(#linear-gradient-12);}.cls-14{fill:url(#linear-gradient-13);}.cls-15{fill:url(#linear-gradient-14);}.cls-16{fill:url(#linear-gradient-15);}.cls-17{fill:#9a6937;}.cls-18{fill:#fff;fill-opacity:0.2;}.cls-19{fill:#cd8c4a;}.cls-20{fill:#c48646;}.cls-21{fill:#af783f;}.cls-22{fill:#a3703a;}</style><linearGradient id="linear-gradient" x1="-2899.2" y1="26.2" x2="-1260.8" y2="26.2" gradientTransform="matrix(0, 0, 0, 0, 61.07, 17.92)" gradientUnits="userSpaceOnUse"><stop offset="0" stop-color="#27ae60"/><stop offset="1" stop-color="#30c26d"/></linearGradient><linearGradient id="linear-gradient-2" x1="-2899.2" y1="37.68" x2="-1260.8" y2="37.68" gradientTransform="matrix(0, 0, 0, 0, 50.84, 27.49)" xlink:href="#linear-gradient"/><linearGradient id="linear-gradient-3" x1="-2899.2" y1="54.18" x2="-1260.8" y2="54.18" gradientTransform="matrix(0, 0, 0, 0, 42.17, 45.87)" xlink:href="#linear-gradient"/><linearGradient id="linear-gradient-4" x1="-2899.2" y1="48.02" x2="-1260.8" y2="48.02" gradientTransform="matrix(0, 0, 0, 0, 65.99, 38.05)" xlink:href="#linear-gradient"/><linearGradient id="linear-gradient-5" x1="-2899.2" y1="49.52" x2="-1260.8" y2="49.52" gradientTransform="matrix(0, 0, 0, 0, 17.34, 39.55)" xlink:href="#linear-gradient"/><linearGradient id="linear-gradient-6" x1="-2899.2" y1="62.42" x2="-1260.8" y2="62.42" gradientTransform="matrix(0, 0, 0, 0, 29.72, 54.12)" xlink:href="#linear-gradient"/><linearGradient id="linear-gradient-7" x1="-2899.2" y1="102.17" x2="-1260.8" y2="102.17" gradientTransform="matrix(0, 0, 0, 0, 19.59, 92.2)" xlink:href="#linear-gradient"/><linearGradient id="linear-gradient-8" x1="-2899.2" y1="89.17" x2="-1260.8" y2="89.17" gradientTransform="matrix(0, 0, 0, 0, 74.67, 80.87)" xlink:href="#linear-gradient"/><linearGradient id="linear-gradient-9" x1="-2899.2" y1="106.58" x2="-1260.8" y2="106.58" gradientTransform="matrix(0, 0, 0, 0, 61.84, 96.6)" xlink:href="#linear-gradient"/><linearGradient id="linear-gradient-10" x1="-2899.2" y1="30.38" x2="-1260.8" y2="30.38" gradientTransform="matrix(0, 0, 0, 0, 95.07, 22.07)" xlink:href="#linear-gradient"/><linearGradient id="linear-gradient-11" x1="-2899.2" y1="81.92" x2="-1260.8" y2="81.92" gradientTransform="matrix(0, 0, 0, 0, 88.17, 73.62)" xlink:href="#linear-gradient"/><linearGradient id="linear-gradient-12" x1="-2899.2" y1="98.08" x2="-1260.8" y2="98.08" gradientTransform="matrix(0, 0, 0, 0, 110.57, 89.77)" xlink:href="#linear-gradient"/><linearGradient id="linear-gradient-13" x1="-2899.2" y1="121.33" x2="-1260.8" y2="121.33" gradientTransform="matrix(0, 0, 0, 0, 77.44, 111.35)" xlink:href="#linear-gradient"/><linearGradient id="linear-gradient-14" x1="-2899.2" y1="119.17" x2="-1260.8" y2="119.17" gradientTransform="matrix(0, 0, 0, 0, 62.07, 110.87)" xlink:href="#linear-gradient"/><linearGradient id="linear-gradient-15" x1="-2899.2" y1="116.92" x2="-1260.8" y2="116.92" gradientTransform="matrix(0, 0, 0, 0, 49.84, 106.95)" xlink:href="#linear-gradient"/></defs><title>Asset 17</title><g id="Layer_2" data-name="Layer 2"><g id="Layer_1-2" data-name="Layer 1"><path class="cls-1" d="M57.85,23l-.3-.1-.3.15-.15.25-.8,4.1L55.05,27l-.3.05-.25.2v.45l.7,1.8h4.85l.9-3.1v-.35l-.25-.2h-.35L59,26.4l-1-3.15L57.85,23M42.7,36.25,44,39.35l-1.55.45-.25.2-.1.35.1.1.1.15,1.6,1.1h6l1.45-3.15.05,0,0-.25-.1-.15,0-.1L51,37.85l-1.65-.3-.4-3.5-.1-.25-.25-.15h-.25l-.25.15-2,2.85-2.85-1H43l-.2.2,0,0v.35M39.25,51,39,50.9l-.3.1a.3.3,0,0,0-.15.25l-1,3.15-1.35-.55h-.35L35.6,54v0a.42.42,0,0,0-.05.35l1,3.05h4.85l.7-1.8V55.2L41.8,55h-.3l-1.25.4-.85-4.15L39.25,51M64.7,49.75l1.2-3.15v-.35l-.05,0-.2-.2H65.3l-2.8,1-2-2.85-.25-.15L60,44l-.25.15-.1.25-.35,3.5-1.7.35-.25.1-.05.1,0,.2v.25h0l1.45,3.15h6l1.6-1,.15-.15,0-.15,0-.3-.3-.25-1.5-.4M9,49.75l-.25.1,0,.1-.05.2v.25h.05l1.45,3.15h6l1.6-1,.15-.15,0-.15,0-.3-.3-.25-1.5-.4,1.2-3.15v-.35l-.05,0-.2-.2h-.35l-2.8,1-2-2.85a.3.3,0,0,0-.25-.15l-.25,0-.25.15-.1.25-.35,3.5L9,49.75M23.15,62.3a.42.42,0,0,0,0,.35l.95,3.05H28.9l.7-1.8v-.45l-.25-.2h-.3l-1.25.4L27,59.5l-.15-.25-.25-.1-.3.1-.15.25-1,3.15-1.35-.55H23.4l-.25.15v0M13.6,98.15l-.25.15-.1.25-.35,3.5-1.7.35-.25.1,0,.1-.05.2v.25h.05l1.45,3.15h6l1.6-1,.15-.15,0-.15,0-.3-.3-.25-1.5-.4,1.2-3.15v-.35l-.05-.05-.2-.2H18.9l-2.8,1-2-2.85a.3.3,0,0,0-.25-.15l-.25,0m55.1-9.3h-.35a.3.3,0,0,0-.25.15v0a.42.42,0,0,0,0,.35l1,3h4.85l.7-1.8V90.2L74.3,90H74l-1.25.4-.85-4.15L71.75,86l-.25-.1-.3.1-.15.25-1,3.15-1.35-.55m-12.35,13.9a.3.3,0,0,0-.25-.15l-.25,0-.25.15-.1.25-.35,3.5-1.7.35-.25.1-.05.1,0,.2v.25h0l1.45,3.15h6l1.6-1,.15-.15,0-.15,0-.3-.3-.25-1.5-.4,1.2-3.15v-.35l0,0-.2-.2h-.35l-2.8,1-2-2.85M0,35,60,0l60,35h0v70L60,140,0,105V35m91.45-7.55-1,3.15-1.35-.55h-.35a.3.3,0,0,0-.25.15v.05a.42.42,0,0,0,0,.35l1,3h4.85l.7-1.8V31.4l-.25-.2h-.3l-1.25.4-.85-4.15-.15-.25-.25-.1-.3.1a.3.3,0,0,0-.15.25M84.55,79l-1,3.15L82.2,81.6h-.35a.3.3,0,0,0-.25.15v0a.42.42,0,0,0,0,.35l1,3h4.85l.7-1.8V83l-.25-.2h-.3l-1.25.4L85.4,79l-.15-.25-.25-.1-.3.1-.15.25M104,98a.42.42,0,0,0,0,.35l1,3h4.85l.7-1.8V99.1l-.25-.2h-.3l-1.25.4-.85-4.15-.15-.25-.25-.1-.3.1a.3.3,0,0,0-.15.25l-1,3.15-1.35-.55h-.35l-.25.15v0m-32.8,19.5-.1.25-.35,3.5-1.7.35-.25.1,0,.1,0,.2v.25h0l1.45,3.15h6l1.6-1,.15-.15,0-.15,0-.3-.3-.25-1.5-.4,1.2-3.15v-.35l0,0-.2-.2h-.35l-2.8,1-2-2.85-.25-.15-.25,0-.25.15M61.4,120l-1.25.4-.85-4.15-.15-.25-.25-.1-.3.1a.3.3,0,0,0-.15.25l-1,3.15-1.35-.55h-.35a.3.3,0,0,0-.25.15v0a.42.42,0,0,0,0,.35l.95,3h4.85l.7-1.8v-.45l-.25-.2h-.3m-12.25-5.1-2.8,1-2-2.85a.3.3,0,0,0-.25-.15l-.25,0-.25.15-.1.25-.35,3.5-1.7.35-.25.1-.05.1,0,.2v.25h0L42.6,121h6l1.6-1,.15-.15,0-.15,0-.3-.3-.25-1.5-.4,1.2-3.15v-.35l0-.05-.2-.2h-.35"/><path class="cls-2" d="M57.85,23l.15.25,1,3.15,1.4-.55h.35l.25.2v.35l-.9,3.1H55.2l-.7-1.8v-.45l.25-.2.3-.05,1.25.4.8-4.1.15-.25.3-.15.3.1"/><path class="cls-3" d="M42.7,36.25V35.9l0,0,.2-.2h.35l2.85,1,2-2.85.25-.15h.25l.25.15.1.25.4,3.5,1.65.3.25.15,0,.1.1.15,0,.25-.05,0L49.85,41.7h-6l-1.6-1.1-.1-.15-.1-.1.1-.35.25-.2L44,39.35l-1.25-3.1"/><path class="cls-4" d="M39.25,51l.15.25.85,4.15L41.5,55h.3l.25.2v.45l-.7,1.8H36.5l-1-3.05a.42.42,0,0,1,.05-.35v0l.25-.15h.35l1.35.55,1-3.15A.3.3,0,0,1,38.7,51l.3-.1.25.1"/><path class="cls-5" d="M64.7,49.75l1.5.4.3.25,0,.3,0,.15-.15.15-1.6,1h-6L57.3,48.9h0v-.25l0-.2.05-.1.25-.1,1.7-.35.35-3.5.1-.25L60,44l.25,0,.25.15,2,2.85,2.8-1h.35l.2.2.05,0v.35l-1.2,3.15"/><path class="cls-6" d="M9,49.75l1.7-.35L11,45.9l.1-.25.25-.15.25,0a.3.3,0,0,1,.25.15l2,2.85,2.8-1H17l.2.2.05,0v.35l-1.2,3.15,1.5.4.3.25,0,.3,0,.15-.15.15-1.6,1h-6L8.65,50.4H8.6v-.25l.05-.2,0-.1.25-.1"/><path class="cls-7" d="M23.15,62.3v0l.25-.15h.35l1.35.55,1-3.15.15-.25.3-.1.25.1.15.25.85,4.15,1.25-.4h.3l.25.2v.45l-.7,1.8H24.05l-.95-3.05a.42.42,0,0,1,0-.35"/><path class="cls-8" d="M13.6,98.15l.25,0a.3.3,0,0,1,.25.15l2,2.85,2.8-1h.35l.2.2.05.05v.35l-1.2,3.15,1.5.4.3.25,0,.3,0,.15-.15.15-1.6,1h-6l-1.45-3.15h-.05v-.25l.05-.2,0-.1.25-.1,1.7-.35.35-3.5.1-.25.25-.15"/><path class="cls-9" d="M68.7,88.85l1.35.55,1-3.15L71.2,86l.3-.1.25.1.15.25.85,4.15L74,90h.3l.25.2v.45l-.7,1.8H69l-1-3a.42.42,0,0,1,0-.35v0a.3.3,0,0,1,.25-.15h.35"/><path class="cls-10" d="M56.35,102.75l2,2.85,2.8-1h.35l.2.2,0,0v.35l-1.2,3.15,1.5.4.3.25,0,.3,0,.15-.15.15-1.6,1h-6l-1.45-3.15h0v-.25l0-.2.05-.1.25-.1,1.7-.35.35-3.5.1-.25.25-.15.25,0a.3.3,0,0,1,.25.15"/><path class="cls-11" d="M91.45,27.45a.3.3,0,0,1,.15-.25l.3-.1.25.1.15.25.85,4.15,1.25-.4h.3l.25.2v.45l-.7,1.8H89.4l-1-3a.42.42,0,0,1,0-.35V30.2a.3.3,0,0,1,.25-.15h.35l1.35.55,1-3.15"/><path class="cls-12" d="M84.55,79l.15-.25.3-.1.25.1.15.25.85,4.15,1.25-.4h.3l.25.2v.45l-.7,1.8H82.5l-1-3a.42.42,0,0,1,0-.35v0a.3.3,0,0,1,.25-.15h.35l1.35.55,1-3.15"/><path class="cls-13" d="M104,98v0l.25-.15h.35l1.35.55,1-3.15a.3.3,0,0,1,.15-.25l.3-.1.25.1.15.25.85,4.15,1.25-.4h.3l.25.2v.45l-.7,1.8H104.9l-1-3a.42.42,0,0,1,0-.35"/><path class="cls-14" d="M71.2,117.45l.25-.15.25,0,.25.15,2,2.85,2.8-1h.35l.2.2,0,0v.35l-1.2,3.15,1.5.4.3.25,0,.3,0,.15-.15.15-1.6,1h-6l-1.45-3.15h0V122l0-.2,0-.1.25-.1,1.7-.35.35-3.5.1-.25"/><path class="cls-15" d="M61.4,120h.3l.25.2v.45l-.7,1.8H56.4l-.95-3a.42.42,0,0,1,0-.35v0a.3.3,0,0,1,.25-.15h.35l1.35.55,1-3.15a.3.3,0,0,1,.15-.25l.3-.1.25.1.15.25.85,4.15,1.25-.4"/><path class="cls-16" d="M49.15,114.9h.35l.2.2,0,.05v.35l-1.2,3.15,1.5.4.3.25,0,.3,0,.15-.15.15-1.6,1h-6l-1.45-3.15h0v-.25l0-.2.05-.1.25-.1,1.7-.35.35-3.5.1-.25.25-.15.25,0a.3.3,0,0,1,.25.15l2,2.85,2.8-1"/><path class="cls-17" d="M120,105l-1.85-3.75L116.3,97.5l.1-1.5L120,35h0v70M0,105V35l.1,0L4.35,87.4l.15,1.85L2.6,96,0,105"/><path class="cls-18" d="M4.5,89.25,4.35,87.4l55.9,20.45L116.4,96l-.1,1.5L60,110.6,4.5,89.25"/><path class="cls-19" d="M4.5,89.25,60,110.6v18.25L2.6,96l1.9-6.7"/><path class="cls-20" d="M0,105l2.6-9L60,128.85V140L0,105"/><path class="cls-21" d="M60,110.6l56.3-13.1,1.85,3.75L60,128.85V110.6"/><path class="cls-22" d="M120,105,60,140V128.85l58.15-27.6L120,105"/></g></g></svg>