<svg xmlns="http://www.w3.org/2000/svg" viewBox="0 0 120 140"><defs><style>.cls-1{fill:#bb8044;}.cls-2{fill:#aa753e;}.cls-3{fill:#c68a4e;}.cls-4{fill:#a4afaf;}.cls-5{fill:#879393;}.cls-6{fill:#5a6b6b;}.cls-7{fill:#b5c2c2;}.cls-8{fill:#115f32;}.cls-9{fill:#1b914d;}.cls-10{fill:#198a49;}.cls-11{fill-opacity:0.1;}.cls-12{fill:#775029;}.cls-13{fill:#916334;}.cls-14{fill:#a8733d;}.cls-15{fill:#c8d7d7;}.cls-16{fill:#99a3a3;}.cls-17{fill:#fdfdfd;}.cls-18{fill:#b9c6c6;}</style></defs><title>Asset 160</title><g id="Layer_2" data-name="Layer 2"><g id="Layer_1-2" data-name="Layer 1"><path class="cls-1" d="M20.85,42.7l2.75,3.75,3.85-2.8L24.6,39.9l-3.75,2.8m16.3,5.65L34.6,45.1l-3.25,2.6L34,51l3.2-2.6m18-25.1L50.8,24l.7,4.35,4.35-.7-.7-4.35M79.3,91.45,76.85,97.6,83,100l2.45-6.1L79.3,91.45M59.5,16.6l-.85,7,7.15.8.8-7-7.1-.8m-29,40.2-3.05-6.9-6.8,3,3,6.9,6.85-3M24.35,91.4l-1,4,4,1,1-4.05-4-.95M14.6,55.45l-.85-2.05-2,.9.85,2.1,2-.95M41.7,95,35.1,91.4l-3.55,6.7,6.55,3.5L41.7,95m1,11.75,1.9,1,1.15-2-2-1-1,2m-12.8,1,1.25-4.45L26.65,102l-1.2,4.55,4.5,1.2M0,35,60,0l60,35v70L60,140,0,105V35M110,68.8l.75-6.55-6.55-.8-.75,6.6,6.55.75m.15-10.8L109,53.6l-4.4,1.2,1.2,4.45,4.4-1.25m-20,23.45,1.25-2.9-3-1.25-1.2,3,2.9,1.2M105,93.7l1.75,4,4-1.85-1.75-4-4,1.85M101.3,60l-3.2-.45-.4,3.15,3.15.4.45-3.1M96.15,99.3l1,7,7.1-1.1-1-7-7.1,1.1m-6.4-8.8H94.3V86H89.7l0,4.55"/><path class="cls-2" d="M89.75,90.5l0-4.55h4.6V90.5H89.75M37.15,48.35,34,51l-2.6-3.25,3.25-2.6,2.55,3.25M20.85,42.7l3.75-2.8,2.85,3.75-3.85,2.8L20.85,42.7M59.5,16.6l7.1.8-.8,7.05-7.15-.8.85-7M79.3,91.45l6.15,2.45L83,100l-6.15-2.4,2.45-6.15m-64.7-36-2,.95-.85-2.1,2-.9.85,2.05m9.75,36,4,.95-1,4.05-4-1,1-4M30,107.7l-4.5-1.2,1.2-4.55,4.55,1.3L30,107.7m12.8-1,1-2,2,1-1.15,2-1.9-1M110.15,58l-4.4,1.25-1.2-4.45,4.4-1.2,1.2,4.4M110,68.8l-6.55-.75.75-6.6,6.55.8L110,68.8M96.15,99.3l7.1-1.1,1,7-7.1,1.1-1-7"/><path class="cls-3" d="M55.15,23.25l.7,4.35-4.35.7L50.8,24l4.35-.7M30.5,56.8l-6.85,3-3-6.9,6.8-3,3.05,6.9M41.7,95l-3.6,6.65-6.55-3.5,3.55-6.7L41.7,95m59.6-35-.45,3.1-3.15-.4.4-3.15,3.2.45M105,93.7l4-1.85,1.75,4-4,1.85-1.75-4M90.15,81.45l-2.9-1.2,1.2-3,3,1.25-1.25,2.9"/><path class="cls-4" d="M60.75,82.35l-24-11.3L45.85,47.1l.65-13.5,16-6.2L77.8,34.45,77.05,48l-16,6.3-.25,28.1"/><path class="cls-5" d="M46.5,33.6l-.65,13.5L36.8,71.05,38,50.1,46.5,33.6M77.05,48l.75-13.5,9,17.15-1,20.95L77.05,48"/><path class="cls-6" d="M45.8,31.75l16.05-6.2,1.55.05,15.25,7,.95.9,9,17.15.2,1-1,21-.35,1.1a2.33,2.33,0,0,1-.9.7l-25,9.8-.8.1-.8-.2L36,72.85l-.85-.75A1.86,1.86,0,0,1,34.8,71L36,50a2,2,0,0,1,.25-.8l8.55-16.5a1.66,1.66,0,0,1,1-1m-9,39.3,24,11.3,25-9.8,1-20.95-9-17.15L62.55,27.4l-16,6.2L38,50.1,36.8,71.05"/><path class="cls-7" d="M60.75,82.35,61,54.25l16-6.3,8.75,24.6-25,9.8"/><path class="cls-6" d="M45.3,32l4.85,6.85.35.85,2.5,15,4.45,12.5.1,1-.45,1-9.55,11.4-.7.55-.9.15-18.05-.5-.9-.2-.65-.65L18,68l-.35-.85a1.54,1.54,0,0,1,.1-1l4.5-12.4.3-.6,3.25-4,2.75-13.5.45-.9L31.7,31.6l.7-.5.85-.2,10.45.25.9.25.7.6m3.2,8-4.85-6.85L33.2,32.9l-2.75,3.25-2.85,14-3.55,4.3-4.5,12.4L28,78.75l18.05.5,9.55-11.4-4.5-12.7L48.5,40"/><path class="cls-4" d="M48.5,40l-2.75,3.25L47.5,59.5l-3.6,4.2-13.6-.4-6.25-8.85,3.55-4.3,9.6,8.6.65-16-7.4-6.65L33.2,32.9l10.45.25L48.5,40"/><path class="cls-5" d="M48.5,40l2.55,15.15,4.5,12.7L46,79.25,43.9,63.7l3.6-4.2L45.75,43.25,48.5,40M28,78.75l-8.4-11.9,4.5-12.4L30.3,63.3,28,78.75m-.35-28.6,2.85-14,7.4,6.65-.65,16-9.6-8.6"/><path class="cls-7" d="M46,79.25l-18-.5L30.3,63.3l13.6.4L46,79.25"/><path class="cls-8" d="M100.6,65.2l1.55-.75,1.15-1a6.89,6.89,0,0,0,2.1-4.75v-3l-.2-4.85-.25-3.1-.25-2.25-1.1-6-.3-1.2-.5-1.75q-1.69-5.4-4-6l-.65-.1-.65.1q-2.25.64-3.9,6L93.1,38.3l-.3,1.2-1.1,6-.25,2.25-.25,3.1L91,55.7v3a6.89,6.89,0,0,0,2.1,4.75l1.3,1,1.45.7V67a2.24,2.24,0,0,0,.65,1.65,2.3,2.3,0,0,0,1.7.7h0A2.39,2.39,0,0,0,100.6,67V65.2m-8.5,0-.4-.35A8.75,8.75,0,0,1,89,58.8V57.4a76,76,0,0,1,2-19l.15-.6a24.11,24.11,0,0,1,2.45-6.35q1.95-3.3,4.55-3.05c1.73-.17,3.27.87,4.6,3.1a26.43,26.43,0,0,1,2.45,6.3l.15.5a79,79,0,0,1,2,19.1v1.4a8.83,8.83,0,0,1-2.65,6.1l-.3.3-1.85,1.3V67a4.07,4.07,0,0,1-1.2,3l-.15.15a4.07,4.07,0,0,1-3,1.2h0A4.27,4.27,0,0,1,93.85,67V66.5L92.1,65.25"/><path class="cls-9" d="M92.8,39.5l.3-1.2.55-1.75q1.65-5.4,3.9-6l.65-.1.65.1q2.25.64,4,6l.5,1.75.3,1.2-.3.1-.2.1-.95.2-1.55.25-2.4.1-2.35-.1L94.4,40l-1.05-.25-.25-.1-.3-.1m11.9,6,.25,2.25.25,3.1a4.25,4.25,0,0,1-1.9,1.95l-1.15.6-1.55.45-2.4.25-2.35-.25-1.45-.4-1.3-.65a4.25,4.25,0,0,1-1.9-1.95l.25-3.1.25-2.25.1,0,1.3.85,1.3.5,1.45.35,2.35.2,2.4-.2,1.55-.35,1.15-.5,1.35-.85,0,0m.7,10.9v2.3a6.89,6.89,0,0,1-2.1,4.75l-1.15,1-1.55.75-2.4.35-2.35-.35-1.45-.7-1.3-1A6.89,6.89,0,0,1,91,58.7V56.4a4.92,4.92,0,0,0,2.1,3.75l1.3.85,1.45.55,2.35.3,2.4-.3,1.55-.6,1.15-.8a4.92,4.92,0,0,0,2.1-3.75"/><path class="cls-10" d="M105.4,56.4a4.92,4.92,0,0,1-2.1,3.75l-1.15.8-1.55.6-2.4.3-2.35-.3L94.4,61l-1.3-.85A4.92,4.92,0,0,1,91,56.4v-.7l.2-4.85a4.25,4.25,0,0,0,1.9,1.95l1.3.65,1.45.4,2.35.25,2.4-.25,1.55-.45,1.15-.6a4.25,4.25,0,0,0,1.9-1.95l.2,4.85v.7m-1.8-16.9,1.1,6,0,0-1.35.85-1.15.5-1.55.35-2.4.2-2.35-.2L94.4,46.9l-1.3-.5-1.3-.85-.1,0,1.1-6,.3.1.25.1L94.4,40l1.45.2,2.35.1,2.4-.1,1.55-.25.95-.2.2-.1.3-.1"/><path class="cls-11" d="M104.45,65.2l.7.3Q108,67,108,69.1t-2.8,3.55a16.16,16.16,0,0,1-13.6,0q-2.8-1.45-2.8-3.55t2.8-3.6l.55-.25,1.75,1.25V67A4.27,4.27,0,0,0,98.2,71.3h0a4.07,4.07,0,0,0,3-1.2l.15-.15a4.07,4.07,0,0,0,1.2-3V66.5l1.85-1.3"/><path class="cls-1" d="M100.6,65.2V67a2.39,2.39,0,0,1-2.35,2.35h0a2.3,2.3,0,0,1-1.7-.7A2.24,2.24,0,0,1,95.85,67V65.2l2.35.35,2.4-.35"/><path class="cls-5" d="M94.25,55.85l4,25.8L89.1,92.5,88,72.9l3.5-4.15.1,0,.05-.1v0l.1-.1.2-.2v0l-1.1-8.35,3.4-4M71.9,92,63.8,80.7l2.45-18,7,9.75L71.9,92M70.15,58l3.5-18.55,6.9,5.9-.15,12.9-.55,8L70.15,58"/><path class="cls-4" d="M70.15,58l9.7,8.3,12.1,2-.2.2-.1.1-.05,0,0,.05,0,.1L88,72.9l-14.8-.45-7-9.75,3.9-4.7m3.5-18.55,2.8-3.35,10.6.3,2.25,3.2L91,51.25l3.3,4.6-3.4,4L80.4,58.25l.15-12.9-6.9-5.9"/><path class="cls-6" d="M73.65,39.45,70.15,58l-3.9,4.7-2.45,18L71.9,92l17.2.55,9.2-10.85-4-25.8L91,51.25,89.3,39.6l-2.25-3.2-10.6-.3-2.8,3.35m-1.5-1.25L75,34.85l.7-.55.85-.2,10.6.3.9.25.7.6L91,38.45l.35.9,1.55,11.1L95.9,54.7l.35.85,4,25.8,0,.85-.4.75L90.65,93.8l-.75.55-.85.15L71.85,94l-.85-.2-.7-.6L62.2,81.9a1.82,1.82,0,0,1-.35-1.45l2.45-18a1.69,1.69,0,0,1,.4-1l3.6-4.3,3.4-18,.45-.9M91.5,68.75l0-.1,0,0-.1,0m.1-.15.05,0v0H91.6"/><path class="cls-7" d="M89.1,92.5,71.9,92l1.3-19.5L88,72.9l1.1,19.6M80.4,58.25l10.45,1.6L92,68.2v0l-12.1-2,.55-8"/><path class="cls-12" d="M66.3,67.8a2.38,2.38,0,0,1,.25,1.25l-.25,1.6v13.6a2,2,0,0,1-.45,1.3L53.15,100.3a2.11,2.11,0,0,1-1.1.65l-1.3-.15-1.7-.8-.45,1-2.55,3-1,.65-1.2,0-.3-.1.15.75v.8l-.45,1.3-2.55,3a2.1,2.1,0,0,1-1.15.65l-1.3-.15-.65-.35-.45.6-1,.65-1.25-.1-3.05-1.3-.9-.75a1.89,1.89,0,0,1-.35-1.1V107.3L30,108l-1.1.65-1.2-.1-3.05-1.3-.9-.75a1.89,1.89,0,0,1-.35-1.1v-1.5l.05-.25a2,2,0,0,1-.3-1v-1a1.93,1.93,0,0,1,.55-1.35l2.55-2.8a1.67,1.67,0,0,1,1.1-.6l1.15.1.1,0,0,0,0-.2-.1-.6v-.75a2,2,0,0,1,.4-1.2l2-2.6-.8-.7a1.89,1.89,0,0,1-.35-1.1V76.3l-.85-.4a2,2,0,0,1-.9-.85,1.84,1.84,0,0,1-.2-1.2l.25-2a1.7,1.7,0,0,1,.65-1.25L43.45,58.1a1.72,1.72,0,0,1,1-.45l1.1.15L65.4,67a1.73,1.73,0,0,1,.9.85M51.6,99,64.3,84.25V70.55l.25-1.8L44.75,59.6,30,72.05l-.25,2,3,1.45-1-.45V89.85l4.1,1.8-1.55,1.5-1.5-.75-2.3,3v.75l.75.5-2.2,2.7-1.35-.65-2.55,2.8v1l1,.45-.7.85v1.5l3.05,1.3,1.55-1.8,3.3,1.55-.75.75v1.5L35.6,110l1.5-1.8,2,1,2.55-3v-.8l-1.55-.75,2.3-2.55,2,.75,2.55-3V99l-1.55-.5,1.25-1.8L51.6,99m-4.85-14v5l-5,6.35-.15,0L38.4,95l8.35-9.9m-8.2,15.1-1,1.15-1.35,1.45-3.1-1.45,2.25-2.55,3.2,1.4"/><path class="cls-13" d="M64.55,68.75l-.25,1.8v13.7L51.6,99V81.7l-2.05,1.55.55-1.8,14.45-12.7M47.05,99v.75l-2.55,3v-.75l2.55-3m-5.35,6.35v.8l-2.55,3v-1l2.55-2.8m-5.1-14.6V78.4L44,81.7l-7.4,9"/><path class="cls-14" d="M36.6,90.75l-.75.9-4.1-1.8V75.1l1,.45-3-1.45.25-2,20.1,9.4-.55,1.8L51.6,81.7V99l-4.85-2.3V83.25L44,81.7l-7.4-3.3V90.75m7.9,12-2-.75v-1l2,1v.75m-5.35,6.4-2-1,.1-.85,1.95.85v1m-5.85-2.8L30,104.85l.1-.85,3.7,1.6-.5.8M26.1,103l-1-.45v-1l1.55.75-.6.7m5.15-6.3-.75-.5v-.75l1.3.55-.55.7m4.1,1L39,99.45l-.3.5-.15.2-3.2-1.4v-1"/><path class="cls-1" d="M35.35,97.75l2.55-3,.5.25,3.15,1.45.15,0-3,3.5.3-.5-3.65-1.7m10.15.75,1.55.5-2.55,3-2-1L45,98.25l.5.25m-5.35,6.1,1.55.75-2.55,2.8-1.95-.85,2.45-3,.5.25m-15-3,2.55-2.8,1.35.65-2.35,2.9-1.55-.75m5.35-6.1,2.3-3,1.5.75L31.8,96l-1.3-.55M30,72.05,44.75,59.6l19.8,9.15L50.1,81.45,30,72.05m3.1,29.25,3.1,1.45,1.35-1.45-3.75,4.3L30.1,104l2.45-3,.55.25"/><path class="cls-15" d="M32.55,107.15l.75-.75.5-.8,3.75-4.3,1-1.15.15-.2,3-3.5,5-6.35v5.35l-4.1,4.9-.45.45-.25.35-6.35,7.5-3.05-1.5m-7.15-3.3.7-.85.6-.7,2.35-2.9,2.2-2.7.55-.7,2.5-2.85,1.55-1.5.75-.9,7.4-9,2.75,1.55v.25l-8.6,10.35-2.1,2.5-1.6,1.85-6,6.9-3.05-1.25"/><path class="cls-16" d="M46.75,96.7,45.5,98.5l-.5-.25-2.55,2.8v1l-2.3,2.55-.5-.25-2.45,3-.1.85L35.6,110v-1.3l6.35-7.5.7-.8,4.1-4.9V96.7M30,104.85l-1.55,1.8V105.1l6-6.9,1.6-1.85,2.1-2.5,8.6-10.35v1.55L38.4,95l-.5-.25-2.55,3v1L33.1,101.3l-.55-.25-2.45,3-.1.85"/><path class="cls-17" d="M42,101.15l.25-.35.45-.45-.7.8"/><path class="cls-18" d="M35.6,110l-3.05-1.3v-1.5l3.05,1.5V110m-7.15-3.3-3.05-1.3v-1.5l3.05,1.25v1.55"/><path class="cls-6" d="M77.5,102.45,74.85,87.8l-5.3-.1-6.25,1-5.95,2-.55,6.55L66,106l11.55-3.5M54.8,97.2l.55-6.55a1.72,1.72,0,0,1,.45-1.05,1.82,1.82,0,0,1,.9-.7l5.95-2.05.35,0,6.25-1,.35,0,5.3.1a1.82,1.82,0,0,1,1.25.5,2,2,0,0,1,.7,1.15L79.5,102.1a2,2,0,0,1-.3,1.4l-1.1.9-11.55,3.5h-1a2.5,2.5,0,0,1-.9-.5l-9.15-8.6-.5-.7a1.79,1.79,0,0,1-.15-.9"/><path class="cls-5" d="M56.8,97.35l.55-6.55,5.95-2,0,1.35L56.8,97.35M69.55,87.7l5.3.1,2.65,14.65-6.85-8.8-1.1-6"/><path class="cls-4" d="M63.3,88.75l6.25-1,1.1,6L68,94.5,66,106l-9.15-8.6,6.45-7.25,0-1.35"/><path class="cls-7" d="M77.5,102.45,66,106,68,94.5l2.7-.85,6.85,8.8"/><path class="cls-8" d="M11.2,77a6,6,0,0,1-1.5-3.9v-.9a48.75,48.75,0,0,1,1.5-13q1.85-7.1,5.2-6.65,3.34-.49,5.3,6.65a52.21,52.21,0,0,1,1.4,13v.9a6.53,6.53,0,0,1-1.4,4l-.5.55h-.05L20,78.5a3.21,3.21,0,0,1-1,2.35l-.15.15a3.51,3.51,0,0,1-2.4,1H16.4a3.38,3.38,0,0,1-2.5-1,3.48,3.48,0,0,1-1.05-2.45l-1.15-.9h.05L11.2,77m6.8.25a5.1,5.1,0,0,0,1.75-1.1L20,76a4.53,4.53,0,0,0,1.15-3V72.2a49.92,49.92,0,0,0-1.35-12.5q-1.39-5.14-3.35-5.15T13.1,59.7a48.37,48.37,0,0,0-1.4,12.5v.85A4.3,4.3,0,0,0,13,76l.15.15a4.34,4.34,0,0,0,1.75,1.1V78.4A1.54,1.54,0,0,0,16.4,80h.05a1.35,1.35,0,0,0,1.05-.45,1.44,1.44,0,0,0,.5-1.1V77.25"/><path class="cls-9" d="M18,77.25l-1.6.25-1.55-.25a4.34,4.34,0,0,1-1.75-1.1L13,76a4.3,4.3,0,0,1-1.25-3V72.2a48.37,48.37,0,0,1,1.4-12.5q1.35-5.14,3.3-5.15t3.35,5.15A49.92,49.92,0,0,1,21.1,72.2v.85A4.53,4.53,0,0,1,20,76l-.2.15A5.1,5.1,0,0,1,18,77.25"/><path class="cls-1" d="M18,77.25V78.4a1.44,1.44,0,0,1-.5,1.1,1.35,1.35,0,0,1-1.05.45H16.4a1.54,1.54,0,0,1-1.55-1.55V77.25l1.55.25,1.6-.25"/><path class="cls-11" d="M21.7,77.05a3.36,3.36,0,0,1,1.5,2.7,3.72,3.72,0,0,1-2,3.1,8.34,8.34,0,0,1-4.75,1.3,8.57,8.57,0,0,1-4.8-1.3,3.72,3.72,0,0,1-2-3.1A3.48,3.48,0,0,1,11.2,77l.55.6H11.7l1.15.9A3.48,3.48,0,0,0,13.9,81a3.38,3.38,0,0,0,2.5,1h.05a3.51,3.51,0,0,0,2.4-1l.15-.15a3.21,3.21,0,0,0,1-2.35l1.15-.9h.05l.5-.55"/></g></g></svg>