<svg xmlns="http://www.w3.org/2000/svg" viewBox="0 0 120 140"><defs><style>.cls-1{fill:#bb8044;}.cls-2{fill:#aa753e;}.cls-3{fill:#c68a4e;}.cls-4{fill:#727979;}.cls-5{fill:#d5e5e5;}.cls-6{fill:#e6f7f7;}.cls-7{fill:#b9c6c6;}.cls-8{fill:#a6b1b1;}.cls-9{fill:#8e4124;}.cls-10{fill:#f78256;}.cls-11{fill:#d9d9d9;}.cls-12{fill:#fff;}.cls-13{fill:#d26f49;}.cls-14{fill:#4a4f4f;}.cls-15{fill:#b6603f;}.cls-16{fill:#115f32;}.cls-17{fill:#1b914d;}.cls-18{fill:#198a49;}.cls-19{fill-opacity:0.1;}</style></defs><title>Asset 100</title><g id="Layer_2" data-name="Layer 2"><g id="Layer_1-2" data-name="Layer 1"><path class="cls-1" d="M91.4,78.55l-3-1.25-1.2,3,2.9,1.2,1.25-2.9M13.75,53.4l-2,.9.85,2.1,2-.95-.85-2.05m13.7-3.5-6.8,3,3,6.9,6.85-3-3.05-6.9m28.4-22.3-.7-4.35L50.8,24l.7,4.35,4.35-.7M31.2,103.25,26.65,102l-1.2,4.55,4.5,1.2,1.25-4.45m5.95-54.9L34.6,45.1l-3.25,2.6L34,51l3.2-2.6M20.85,42.7l2.75,3.75,3.85-2.8L24.6,39.9l-3.75,2.8M35.1,91.4l-3.55,6.7,6.55,3.5L41.7,95,35.1,91.4m7.65,15.3,1.9,1,1.15-2-2-1-1,2M28.4,92.35l-4-.95-1,4,4,1,1-4.05M0,35,60,0l60,35v70L60,140,0,105V35M109,53.6l-4.4,1.2,1.2,4.45,4.4-1.25L109,53.6M59.5,16.6l-.85,7,7.15.8.8-7-7.1-.8m41.35,46.45.45-3.1-3.2-.45-.4,3.15,3.15.4m2.6,5,6.55.75.75-6.55-6.55-.8-.75,6.6M109,91.85l-4,1.85,1.75,4,4-1.85-1.75-4M96.15,99.3l1,7,7.1-1.1-1-7-7.1,1.1M83,100l2.45-6.1L79.3,91.45,76.85,97.6,83,100m6.75-9.5H94.3V86H89.7l0,4.55"/><path class="cls-2" d="M13.75,53.4l.85,2.05-2,.95-.85-2.1,2-.9m7.1-10.7,3.75-2.8,2.85,3.75-3.85,2.8L20.85,42.7m16.3,5.65L34,51l-2.6-3.25,3.25-2.6,2.55,3.25m-5.95,54.9L30,107.7l-4.5-1.2,1.2-4.55,4.55,1.3m-2.8-10.9-1,4.05-4-1,1-4,4,.95M42.75,106.7l1-2,2,1-1.15,2-1.9-1M59.5,16.6l7.1.8-.8,7.05-7.15-.8.85-7M109,53.6l1.2,4.4-4.4,1.25-1.2-4.45,4.4-1.2m-5.5,14.45.75-6.6,6.55.8L110,68.8l-6.55-.75M89.75,90.5l0-4.55h4.6V90.5H89.75M83,100l-6.15-2.4,2.45-6.15,6.15,2.45L83,100m13.15-.7,7.1-1.1,1,7-7.1,1.1-1-7"/><path class="cls-3" d="M55.85,27.6l-4.35.7L50.8,24l4.35-.7.7,4.35M27.45,49.9l3.05,6.9-6.85,3-3-6.9,6.8-3M35.1,91.4,41.7,95l-3.6,6.65-6.55-3.5,3.55-6.7m65.75-28.35-3.15-.4.4-3.15,3.2.45-.45,3.1M109,91.85l1.75,4-4,1.85-1.75-4,4-1.85M91.4,78.55l-1.25,2.9-2.9-1.2,1.2-3,3,1.25"/><path class="cls-4" d="M54.75,53.2l22.85,11,.65.5,4.3,5a2.1,2.1,0,0,1,0,2.6L65.1,92.9l-1.1.65-1.3-.15L35,80.4l-.85-.75a2,2,0,0,1-.3-1.05,1.89,1.89,0,0,1,.35-1.1l4.3-6.45.1-.15L52.3,53.75a2,2,0,0,1,1.1-.7l1.35.15m-14.65,19L35.8,78.6l27.75,13L81,71l-4.3-5-1.35-.65L53.85,55l-13,16.25-.75.9"/><path class="cls-5" d="M40.85,71.25,53.85,55l21.5,10.3L62.15,80.85l-21.3-9.6"/><path class="cls-6" d="M40.85,71.25l21.3,9.6L75.35,65.3,76.7,66,62.55,82.65,40.1,72.15l.75-.9"/><path class="cls-7" d="M63.55,91.6,35.8,78.6l4.3-6.45,22.45,10.5,1,8.95"/><path class="cls-8" d="M63.55,91.6l-1-8.95L76.7,66,81,71,63.55,91.6"/><path class="cls-9" d="M43.35,60.3l.1-.3,5.4-10.8.3-.4L55,42a1.87,1.87,0,0,1,1.1-.65l1.25.15,1.85.85.5,2.45-3.2-1.5-5.8,6.8-5.4,10.8,2,1-.1.15-3.85-1.7m29.05-6,1.2,4.45v.95l-.4.85L67,67.85V68l-2-.85,6.7-7.9L70.2,53.75l2.2.5"/><path class="cls-10" d="M50.65,50.1l5.8-6.8,3.2,1.5,8.55,4,.75.35L63.2,56,50.65,50.1"/><path class="cls-11" d="M55.65,66.1,55.8,66l.05-.1h0v.05l0,0-.2.15"/><path class="cls-12" d="M55.85,65.85l.25-.25-.2.25h0"/><path class="cls-7" d="M52.15,70.2l3.5-4.1.2-.15,0,0L60,67.75v6.1L52.2,70.2h-.05"/><path class="cls-13" d="M47.3,61.85l-2-1,5.4-10.8L63.2,56l-.05,13.3L60,67.75,55.9,65.9v-.05l.2-.25,1.55-1.9,1.45-6.4-5.7-2.65-6.1,7.2"/><path class="cls-8" d="M56.1,65.6l-.25.25-.05.1-.15.15-3.5,4.1,0,.15L52,70.5l-4.35,5V70.9L59.1,57.3l-1.45,6.4L56.1,65.6M60,67.75l3.2,1.5L65,67.1V68l-5,5.9v-6.1m8.25-19,4.5-5.35L74.2,49l-4,4.75L69,49.15l-.75-.35"/><path class="cls-4" d="M43.35,60.3,47.2,62l-5.3,6.25V72.9l5.7,2.65,4.35-5,.15-.15,0-.15h.05L60,73.85,65,68V67.1L67,68a2,2,0,0,1-.45,1.3l-5,5.9a2.11,2.11,0,0,1-1.1.65l-1.3-.15-6.35-3-3.6,4.2a2.11,2.11,0,0,1-1.1.65l-1.3-.1-5.7-2.65-.8-.75a1.89,1.89,0,0,1-.35-1.1V68.25a1.89,1.89,0,0,1,.5-1.3l3.7-4.4-.5-.5-.35-1,.1-.75m16.3-15.5-.5-2.45,3.5-4.15a1.75,1.75,0,0,1,1.1-.7l1.25.15,8.55,4,.7.55.4.75,1.5,5.55v1l-.4.85-3.35,4-2.2-.5,4-4.75-1.5-5.55-8.55-4-4.5,5.35"/><path class="cls-5" d="M59.65,44.8l4.5-5.35,8.55,4L68.2,48.8l-8.55-4M47.2,62l.1-.15,6.1-7.2,5.7,2.65L47.6,70.9l-5.7-2.65L47.2,62"/><path class="cls-14" d="M47.6,70.9v4.65L41.9,72.9V68.25l5.7,2.65"/><path class="cls-15" d="M63.15,69.25,63.2,56,69,49.15l1.25,4.6,1.45,5.45L65,67.1l-1.8,2.15"/><path class="cls-16" d="M12.5,37.5l-1.1,6-.25,2.25-.25,3.1-.2,4.85v3a6.89,6.89,0,0,0,2.1,4.75l1.3,1,1.45.7V65a2.24,2.24,0,0,0,.65,1.65,2.3,2.3,0,0,0,1.7.7H18A2.39,2.39,0,0,0,20.3,65V63.2l1.55-.75,1.15-1a6.89,6.89,0,0,0,2.1-4.75v-3l-.2-4.85-.25-3.1L24.4,43.5l-1.1-6L23,36.3l-.5-1.75q-1.7-5.4-3.95-6l-.65-.1-.65.1q-2.25.64-3.9,6L12.8,36.3l-.3,1.2m-.7,25.75-.4-.35a8.75,8.75,0,0,1-2.7-6.1V55.4a76,76,0,0,1,2.05-19l.15-.6a24.11,24.11,0,0,1,2.45-6.35q2-3.3,4.55-3.05c1.73-.17,3.27.87,4.6,3.1A26.43,26.43,0,0,1,25,35.8l.15.5a79,79,0,0,1,2,19.1v1.4a8.83,8.83,0,0,1-2.65,6.1l-.3.3L22.3,64.5V65a4.07,4.07,0,0,1-1.2,3L21,68.1a4.07,4.07,0,0,1-3,1.2H17.9A4.27,4.27,0,0,1,13.55,65V64.5L11.8,63.25"/><path class="cls-17" d="M23.3,37.5l-.3.1-.2.1-.95.2-1.55.25-2.4.1-2.35-.1L14.1,38l-1-.25-.25-.1-.3-.1.3-1.2.55-1.75q1.65-5.4,3.9-6l.65-.1.65.1q2.25.64,3.95,6L23,36.3l.3,1.2m-11.9,6,.1,0,1.3.85,1.3.5,1.45.35,2.35.2,2.4-.2,1.55-.35L23,44.4l1.35-.85,0,0,.25,2.25.25,3.1A4.25,4.25,0,0,1,23,50.8l-1.15.6-1.55.45-2.4.25-2.35-.25-1.45-.4-1.3-.65a4.25,4.25,0,0,1-1.9-1.95l.25-3.1.25-2.25M25.1,54.4v2.3A6.89,6.89,0,0,1,23,61.45l-1.15,1-1.55.75-2.4.35-2.35-.35-1.45-.7-1.3-1a6.89,6.89,0,0,1-2.1-4.75V54.4a4.92,4.92,0,0,0,2.1,3.75l1.3.85,1.45.55,2.35.3,2.4-.3,1.55-.6,1.15-.8a4.92,4.92,0,0,0,2.1-3.75"/><path class="cls-18" d="M25.1,54.4A4.92,4.92,0,0,1,23,58.15l-1.15.8-1.55.6-2.4.3-2.35-.3L14.1,59l-1.3-.85a4.92,4.92,0,0,1-2.1-3.75v-.7l.2-4.85a4.25,4.25,0,0,0,1.9,1.95l1.3.65,1.45.4,2.35.25,2.4-.25,1.55-.45L23,50.8a4.25,4.25,0,0,0,1.9-1.95l.2,4.85v.7M12.5,37.5l.3.1.25.1,1,.25,1.45.2,2.35.1,2.4-.1,1.55-.25.95-.2.2-.1.3-.1,1.1,6,0,0L23,44.4l-1.15.5-1.55.35-2.4.2-2.35-.2L14.1,44.9l-1.3-.5-1.3-.85-.1,0,1.1-6"/><path class="cls-1" d="M20.3,63.2V65A2.39,2.39,0,0,1,18,67.3H17.9a2.3,2.3,0,0,1-1.7-.7A2.24,2.24,0,0,1,15.55,65V63.2l2.35.35,2.4-.35"/><path class="cls-19" d="M24.15,63.2l.7.3q2.8,1.5,2.8,3.6t-2.8,3.55a14.23,14.23,0,0,1-6.8,1.5,14.23,14.23,0,0,1-6.8-1.5q-2.8-1.45-2.8-3.55t2.8-3.6l.55-.25,1.75,1.25V65A4.27,4.27,0,0,0,17.9,69.3H18a4.07,4.07,0,0,0,3-1.2L21.1,68a4.07,4.07,0,0,0,1.2-3V64.5l1.85-1.3"/><path class="cls-16" d="M12.9,76.45a5.1,5.1,0,0,0,1.75-1.1l.2-.15a4.53,4.53,0,0,0,1.15-3V71.4a49.92,49.92,0,0,0-1.35-12.5q-1.39-5.15-3.35-5.15T8,58.9A48.37,48.37,0,0,0,6.6,71.4v.85a4.3,4.3,0,0,0,1.25,3l.15.15a4.34,4.34,0,0,0,1.75,1.1V77.6a1.54,1.54,0,0,0,1.55,1.55h0l1.05-.45a1.44,1.44,0,0,0,.5-1.1V76.45M6.1,76.2a6,6,0,0,1-1.5-3.9v-.9a48.75,48.75,0,0,1,1.5-13q1.85-7.09,5.2-6.65,3.34-.49,5.3,6.65a52.21,52.21,0,0,1,1.4,13v.9a6.53,6.53,0,0,1-1.4,4l-.5.55h-.05l-1.15.9a3.21,3.21,0,0,1-1,2.35l-.15.15a3.51,3.51,0,0,1-2.4,1h0a3.38,3.38,0,0,1-2.5-1A3.48,3.48,0,0,1,7.75,77.7L6.6,76.8h.05l-.55-.6"/><path class="cls-17" d="M9.75,76.45A4.34,4.34,0,0,1,8,75.35l-.15-.15a4.3,4.3,0,0,1-1.25-3V71.4A48.37,48.37,0,0,1,8,58.9q1.35-5.15,3.3-5.15t3.35,5.15A49.92,49.92,0,0,1,16,71.4v.85a4.53,4.53,0,0,1-1.15,3l-.2.15a5.1,5.1,0,0,1-1.75,1.1l-1.6.25-1.55-.25"/><path class="cls-19" d="M16.6,76.25A3.36,3.36,0,0,1,18.1,79a3.72,3.72,0,0,1-2,3.1,8.34,8.34,0,0,1-4.75,1.3,8.57,8.57,0,0,1-4.8-1.3A3.72,3.72,0,0,1,4.6,79,3.48,3.48,0,0,1,6.1,76.2l.55.6H6.6l1.15.9A3.48,3.48,0,0,0,8.8,80.15a3.38,3.38,0,0,0,2.5,1h0a3.51,3.51,0,0,0,2.4-1l.15-.15a3.21,3.21,0,0,0,1-2.35l1.15-.9h.05l.5-.55"/><path class="cls-1" d="M12.9,76.45V77.6a1.44,1.44,0,0,1-.5,1.1l-1.05.45h0A1.54,1.54,0,0,1,9.75,77.6V76.45l1.55.25,1.6-.25"/><path class="cls-16" d="M95.4,92.9A6,6,0,0,1,93.9,89v-.9a48.75,48.75,0,0,1,1.5-13q1.84-7.09,5.2-6.65,3.34-.49,5.3,6.65a52.21,52.21,0,0,1,1.4,13V89a6.53,6.53,0,0,1-1.4,4l-.5.55h-.05l-1.15.9a3.21,3.21,0,0,1-1,2.35l-.15.15a3.51,3.51,0,0,1-2.4.95h-.05a3.38,3.38,0,0,1-2.5-1,3.48,3.48,0,0,1-1-2.45l-1.15-.9h0l-.55-.6m6.8.25,1.75-1.1.2-.15a4.53,4.53,0,0,0,1.15-3V88.1A49.92,49.92,0,0,0,104,75.6q-1.4-5.14-3.35-5.15T97.3,75.6a48.37,48.37,0,0,0-1.4,12.5V89a4.3,4.3,0,0,0,1.25,3l.15.15a4.34,4.34,0,0,0,1.75,1.1V94.3a1.54,1.54,0,0,0,1.55,1.55h.05a1.35,1.35,0,0,0,1-.45,1.44,1.44,0,0,0,.5-1.1V93.15"/><path class="cls-17" d="M102.2,93.15l-1.6.25-1.55-.25a4.34,4.34,0,0,1-1.75-1.1l-.15-.15a4.3,4.3,0,0,1-1.25-3V88.1a48.37,48.37,0,0,1,1.4-12.5q1.35-5.14,3.3-5.15T104,75.6a49.92,49.92,0,0,1,1.35,12.5V89a4.53,4.53,0,0,1-1.15,3l-.2.15-1.75,1.1"/><path class="cls-19" d="M105.9,93a3.36,3.36,0,0,1,1.5,2.7,3.72,3.72,0,0,1-2,3.1,8.34,8.34,0,0,1-4.75,1.3,8.57,8.57,0,0,1-4.8-1.3,3.72,3.72,0,0,1-1.95-3.1,3.48,3.48,0,0,1,1.5-2.75l.55.6h0l1.15.9a3.48,3.48,0,0,0,1,2.45,3.38,3.38,0,0,0,2.5,1h.05a3.51,3.51,0,0,0,2.4-.95l.15-.15a3.21,3.21,0,0,0,1-2.35l1.15-.9h.05l.5-.55"/><path class="cls-1" d="M102.2,93.15V94.3a1.44,1.44,0,0,1-.5,1.1,1.35,1.35,0,0,1-1,.45h-.05a1.54,1.54,0,0,1-1.55-1.55V93.15l1.55.25,1.6-.25"/></g></g></svg>