<svg xmlns="http://www.w3.org/2000/svg" xmlns:xlink="http://www.w3.org/1999/xlink" viewBox="0 0 120 140"><defs><style>.cls-1{fill:#bb8044;}.cls-2{fill:#27ae60;}.cls-3{fill:#aa753e;}.cls-4{fill:url(#linear-gradient);}.cls-5{fill:#c68a4e;}.cls-6{fill:url(#linear-gradient-2);}.cls-7{fill:url(#linear-gradient-3);}.cls-8{fill:url(#linear-gradient-4);}.cls-9{fill:url(#linear-gradient-5);}.cls-10{fill:url(#linear-gradient-6);}.cls-11{fill:url(#linear-gradient-7);}.cls-12{fill:url(#linear-gradient-8);}.cls-13{fill:url(#linear-gradient-9);}.cls-14{fill:url(#linear-gradient-10);}</style><linearGradient id="linear-gradient" x1="-819.2" y1="26.15" x2="819.2" y2="26.15" gradientTransform="matrix(0, 0, 0, 0, 60.17, 26.15)" gradientUnits="userSpaceOnUse"><stop offset="0" stop-color="#27ae60"/><stop offset="1" stop-color="#30c26d"/></linearGradient><linearGradient id="linear-gradient-2" x1="-819.2" y1="37.63" x2="819.2" y2="37.63" gradientTransform="matrix(0, 0, 0, 0, 49.8, 37.6)" xlink:href="#linear-gradient"/><linearGradient id="linear-gradient-3" x1="-819.2" y1="47.97" x2="819.2" y2="47.97" gradientTransform="matrix(0, 0, 0, 0, 64.95, 48)" xlink:href="#linear-gradient"/><linearGradient id="linear-gradient-4" x1="-819.2" y1="50.4" x2="819.2" y2="50.4" gradientTransform="matrix(0, 0, 0, 0, 16.3, 49.5)" xlink:href="#linear-gradient"/><linearGradient id="linear-gradient-5" x1="-819.2" y1="62.38" x2="819.2" y2="62.38" gradientTransform="matrix(0, 0, 0, 0, 28.82, 62.35)" xlink:href="#linear-gradient"/><linearGradient id="linear-gradient-6" x1="-819.2" y1="54.13" x2="819.2" y2="54.13" gradientTransform="matrix(0, 0, 0, 0, 41.27, 54.1)" xlink:href="#linear-gradient"/><linearGradient id="linear-gradient-7" x1="-819.2" y1="81.88" x2="819.2" y2="81.88" gradientTransform="matrix(0, 0, 0, 0, 87.27, 81.85)" xlink:href="#linear-gradient"/><linearGradient id="linear-gradient-8" x1="-819.2" y1="106.52" x2="819.2" y2="106.52" gradientTransform="matrix(0, 0, 0, 0, 60.8, 106.55)" xlink:href="#linear-gradient"/><linearGradient id="linear-gradient-9" x1="-819.2" y1="89.13" x2="819.2" y2="89.13" gradientTransform="matrix(0, 0, 0, 0, 73.77, 89.1)" xlink:href="#linear-gradient"/><linearGradient id="linear-gradient-10" x1="-819.2" y1="118" x2="819.2" y2="118" gradientTransform="matrix(0, 0, 0, 0, 61.17, 119.1)" xlink:href="#linear-gradient"/></defs><title>Asset 23</title><g id="Layer_2" data-name="Layer 2"><g id="Layer_1-2" data-name="Layer 1"><path class="cls-1" d="M59.8,120.15l2.1-.55,11.9-6.95,3.1-4.75,4.1.55,15.2-8.9,1,6.75,7.1-1.1-1-7-6.45,1,4.45-2.6A4.75,4.75,0,0,0,102.8,95a4.36,4.36,0,0,0,.55-2.15V70.65l-2.1-3.1,2.1-3.3V47a4.07,4.07,0,0,0-.55-2.1,4.26,4.26,0,0,0-1.55-1.6L85.6,34.15H82.3L80.65,31.3,66,22.75l.6-5.35-7.1-.8-.35,3.15a3.68,3.68,0,0,0-1.6.6l-5.9,3.5-.85.1.05.35-7.1,4.15L42.4,31h-3l-5,2.9-2,4.75H26.2l-8,4.65A4.54,4.54,0,0,0,16.05,47v3.45l-.3.75.3.1V77.1l2.45,4.6-2.45,3v8.15a4.11,4.11,0,0,0,.6,2.15,4.18,4.18,0,0,0,1.55,1.6l9.8,5.75-1.35-.4-1.2,4.55,4.5,1.2L31,104.1l26.05,15.25.5.25a4.36,4.36,0,0,0,2.15.55h.1M110.15,58,109,53.6l-4.4,1.2,1.2,4.45,4.4-1.25M120,35v70L60,140,0,105V35L60,0l60,35M12.6,56.4l2-.95-.85-2.05-2,.9.85,2.1M110,68.8l.75-6.55-6.55-.8-.75,6.6,6.55.75m-3.25,28.9,4-1.85-1.75-4-4,1.85,1.75,4"/><path class="cls-2" d="M66,22.75,80.65,31.3l1.65,2.85h3.3l15.65,9.15a4.26,4.26,0,0,1,1.55,1.6,4.07,4.07,0,0,1,.55,2.1V64.25l-2.1,3.3,2.1,3.1v22.2A4.36,4.36,0,0,1,102.8,95a4.75,4.75,0,0,1-1.55,1.6L96.8,99.2l-.6.35L81,108.45l-4.1-.55-3.1,4.75L61.9,119.6l-2.1.55-.8-4-.15-.25-.25-.1-.3.1-.15.25-1,3.15h-.1L31,104.1l-3-1.75L18.2,96.6A4.18,4.18,0,0,1,16.65,95a4.11,4.11,0,0,1-.6-2.15V84.7l2.45-3-2.45-4.6V53.35l1.35-.9.15-.15.05-.15-.05-.3-.3-.25-1.2-.3-.3-.1.3-.75.9-2.4V47.7l-.05-.05-.2-.2h-.35l-.3.15V47a4.54,4.54,0,0,1,2.15-3.7l8-4.65h6.2l2-4.75,5-2.9h3l1.35-2.55,7.1-4.15.8-.45,5.9-3.5a3.68,3.68,0,0,1,1.6-.6l.55-.05a4.14,4.14,0,0,1,2.2.65l4.1,2.4m-8.75.1L57,23l-.15.25-.8,4.1L54.75,27l-.3.05-.25.2v.45l.7,1.8h4.85l.9-3.1V26l-.25-.2h-.35l-1.4.55L57.7,23.2,57.55,23l-.3-.1M47.8,33.75,45.85,36.6,43,35.6h-.35l-.2.2-.05.05v.35l1.25,3.1-1.55.45a.31.31,0,0,0-.25.2l-.1.35.1.1.1.15,1.6,1.1h6L51,38.5l0,0,.05-.25-.1-.15,0-.1-.25-.15-1.65-.3-.4-3.5-.1-.25-.25-.15h-.25l-.25.15M57.3,48.2l-.25.1,0,.1,0,.2v.25h0L58.45,52h6l1.6-1,.15-.15,0-.15,0-.3-.3-.25-1.5-.4,1.2-3.15V46.2l0-.05-.2-.2H65l-2.8,1-2-2.85A.3.3,0,0,0,60,44l-.25,0-.25.15-.1.25L59,47.85l-1.7.35M26,59.2l-.15.25-1,3.15-1.35-.55H23.1a.3.3,0,0,0-.25.15v0a.42.42,0,0,0-.05.35l.95,3.05H28.6l.7-1.8V63.4l-.25-.2h-.3l-1.25.4-.85-4.15-.15-.25-.25-.1-.3.1M38.7,50.85l-.3.1-.15.25-1,3.15L35.9,53.8h-.35a.3.3,0,0,0-.25.15v0a.42.42,0,0,0,0,.35l1,3h4.85l.7-1.8v-.45L41.5,55h-.3l-1.25.4L39.1,51.2,39,51l-.25-.1M86,83.1,85.1,79,85,78.7l-.25-.1-.3.1-.15.25-1,3.15-1.35-.55h-.35a.3.3,0,0,0-.25.15v0a.42.42,0,0,0,0,.35l1,3.05h4.85l.7-1.8V82.9l-.25-.2h-.3L86,83.1m-32.8,23.65-.25.1,0,.1-.05.2v.25h.05l1.45,3.15h6l1.6-1,.15-.15.05-.15-.05-.3-.3-.25-1.5-.4,1.2-3.15v-.35l-.05,0-.2-.2h-.35l-2.8,1-2-2.85-.25-.15-.25,0-.25.15-.1.25-.35,3.5-1.7.35M71.2,85.85l-.3.1-.15.25-1,3.15L68.4,88.8h-.35a.3.3,0,0,0-.25.15v0l0,.35,1,3.05h4.85l.7-1.8v-.45L74,90h-.3l-1.25.4L71.6,86.2,71.45,86l-.25-.1"/><path class="cls-3" d="M96.8,99.2l6.45-1,1,7-7.1,1.1-1-6.75.6-.35M31,104.1,30,107.7l-4.5-1.2,1.2-4.55,1.35.4,3,1.75M59.15,19.75l.35-3.15,7.1.8L66,22.75l-4.1-2.4a4.14,4.14,0,0,0-2.2-.65l-.55.05m51,38.25-4.4,1.25-1.2-4.45,4.4-1.2,1.2,4.4M12.6,56.4l-.85-2.1,2-.9.85,2.05-2,.95M110,68.8l-6.55-.75.75-6.6,6.55.8L110,68.8"/><path class="cls-4" d="M57.25,22.85l.3.1.15.25.95,3.15,1.4-.55h.35l.25.2v.35l-.9,3.1H54.9l-.7-1.8V27.2l.25-.2.3-.05,1.25.4.8-4.1L57,23l.3-.15"/><path class="cls-5" d="M50.85,24.3,50.8,24l.85-.1-.8.45m55.9,73.4-1.75-4,4-1.85,1.75,4-4,1.85"/><path class="cls-6" d="M47.8,33.75l.25-.15h.25l.25.15.1.25.4,3.5,1.65.3L51,38l0,.1.1.15-.05.25,0,0-1.45,3.15h-6L42,40.55l-.1-.15-.1-.1.1-.35a.31.31,0,0,1,.25-.2l1.55-.45L42.4,36.2v-.35l.05-.05.2-.2H43l2.85,1,1.95-2.85"/><path class="cls-7" d="M57.3,48.2l1.7-.35.35-3.5.1-.25L59.7,44,60,44a.3.3,0,0,1,.25.15l2,2.85L65,46h.35l.2.2,0,.05v.35L64.4,49.7l1.5.4.3.25,0,.3,0,.15-.15.15-1.6,1h-6L57,48.85h0V48.6l0-.2,0-.1.25-.1"/><path class="cls-8" d="M16.05,53.35V51.3l1.2.3.3.25.05.3-.05.15-.15.15-1.35.9m0-2.9V47.6l.3-.15h.35l.2.2.05.05v.35l-.9,2.4"/><path class="cls-9" d="M26,59.2l.3-.1.25.1.15.25.85,4.15,1.25-.4h.3l.25.2v.45l-.7,1.8H23.75L22.8,62.6a.42.42,0,0,1,.05-.35v0a.3.3,0,0,1,.25-.15h.35l1.35.55,1-3.15L26,59.2"/><path class="cls-10" d="M38.7,50.85,39,51l.15.25L40,55.35,41.2,55h.3l.25.2v.45l-.7,1.8H36.2l-1-3a.42.42,0,0,1,0-.35v0a.3.3,0,0,1,.25-.15h.35l1.35.55,1-3.15L38.4,51l.3-.1"/><path class="cls-11" d="M86,83.1l1.25-.4h.3l.25.2v.45l-.7,1.8H82.2l-1-3.05a.42.42,0,0,1,0-.35v0a.3.3,0,0,1,.25-.15h.35l1.35.55,1-3.15.15-.25.3-.1.25.1.15.25L86,83.1"/><path class="cls-12" d="M53.15,106.75l1.7-.35.35-3.5.1-.25.25-.15.25,0,.25.15,2,2.85,2.8-1h.35l.2.2.05,0v.35l-1.2,3.15,1.5.4.3.25.05.3-.05.15-.15.15-1.6,1h-6l-1.45-3.15H52.8v-.25l.05-.2,0-.1.25-.1"/><path class="cls-13" d="M71.2,85.85l.25.1.15.25.85,4.15L73.7,90H74l.25.2v.45l-.7,1.8H68.7l-1-3.05,0-.35v0a.3.3,0,0,1,.25-.15h.35l1.35.55,1-3.15L70.9,86l.3-.1"/><path class="cls-14" d="M59.8,120.15h-.1a4.36,4.36,0,0,1-2.15-.55l-.5-.25h.1l1-3.15.15-.25.3-.1.25.1.15.25.8,4"/></g></g></svg>