<svg xmlns="http://www.w3.org/2000/svg" viewBox="0 0 120 140"><defs><style>.cls-1{fill:#ecdcb8;}.cls-2{fill:#e5d5b2;}.cls-3{fill:#e0d1af;}.cls-4{fill:#bb6444;}</style></defs><title>Asset 52</title><g id="Layer_2" data-name="Layer 2"><g id="Layer_1-2" data-name="Layer 1"><path class="cls-1" d="M17.3,24.9h.05l1-.6,27.5-16h0L60,0l60,35v70L60,140,0,105V35q8.65-5,17.25-10l.05-.05M113.2,39a6,6,0,0,0-2.2-2.15h0l-5.65-3.3a61.49,61.49,0,0,1-8.35,3.25l0,.05Q77.94,41.61,69.55,60.1A53.62,53.62,0,0,0,67,67a43.55,43.55,0,0,1-4.4,11L60,81.85Q52.11,92.2,37,96.9l0,0a39,39,0,0,0-19.6,11.2l30.3,17.65,1-1.7,2-3.95a42.65,42.65,0,0,0,2.4-7A51.69,51.69,0,0,1,60,98.8,38.43,38.43,0,0,1,83.1,83.2l0,0q18-5.55,25.75-19.1l2-3.95a39,39,0,0,0,2.4-7.05l.8-2.35V42a6,6,0,0,0-.8-3m-.7,39.8.75-6.55-6.55-.8-.75,6.6,6.55.75m1.5,9.3a49.44,49.44,0,0,1-17,8.8l0,0q-19.15,4.76-27.55,23.2A53.62,53.62,0,0,0,67,127l-.65,2.3,44.75-26.1h0a6.35,6.35,0,0,0,2.2-2.2,5.89,5.89,0,0,0,.8-3v-10m-30.95-65,2.8-.9L65.9,10.5a44.83,44.83,0,0,1-3.35,7.35L60,21.75q-7.85,10.35-23,15l0,.05Q17.9,41.61,9.5,60.1A60.49,60.49,0,0,0,6.85,67L6,69.9v22a39.28,39.28,0,0,1,17-8.7l-.05,0q18-5.55,25.8-19.1l2-3.95a44.24,44.24,0,0,0,2.4-7.05A51.77,51.77,0,0,1,60,38.75,38.37,38.37,0,0,1,83.1,23.1l0-.05M11.25,45.9l-2,.9.85,2.1,2-.95-.85-2.05m3.35-8.5-3.75,2.8L13.6,44l3.85-2.8L14.6,37.4m4.25.3L21.45,41l3.2-2.6L22.1,35.1l-3.25,2.6M63,118.6l-4,1.85,1.75,4,4-1.85-1.75-4M91.8,91H87.2l0,4.55H91.8V91m-4.55-3.2,2.9,1.2,1.25-2.9-3-1.25-1.2,3M74.35,97.6,80.5,100,83,93.9,76.8,91.45,74.35,97.6m-13,7.15-1,2,1.9,1,1.15-2-2-1M30.15,93.9l1-4.05-4-.95-1,4,4,1m7.75-2.05,3.6-6.65-6.6-3.55-3.55,6.7,6.55,3.5m13-18.8,1,7L59,79l-1-7-7.1,1.1m7.95-7V61.45H54.2l0,4.55H58.8M52.65,18.25,48.3,19,49,23.3l4.35-.7-.7-4.35M76.1,39.9l-.4,3.15,3.15.4.45-3.1-3.2-.45m6.45-8.8-4,1.85,1.75,4,4-1.85-1.75-4"/><path class="cls-2" d="M113.2,39a6,6,0,0,1,.8,3v8.7l-.8,2.35a39,39,0,0,1-2.4,7.05l-2,3.95Q101,77.6,83.05,83.15l0,0A38.43,38.43,0,0,0,60,98.8a51.69,51.69,0,0,0-6.8,14.35,42.65,42.65,0,0,1-2.4,7l-2,3.95-1,1.7-30.3-17.65A39,39,0,0,1,37.05,97l0,0q15.11-4.7,23-15.05l2.6-3.9A43.55,43.55,0,0,0,67,67a53.62,53.62,0,0,1,2.6-6.85Q78,41.61,97.1,36.85l0-.05a61.49,61.49,0,0,0,8.35-3.25l5.65,3.3h0A6,6,0,0,1,113.2,39m-.7,39.8L106,78.05l.75-6.6,6.55.8-.75,6.55M83.05,23.05l0,.05A38.37,38.37,0,0,0,60,38.75a51.77,51.77,0,0,0-6.8,14.3,44.24,44.24,0,0,1-2.4,7.05l-2,3.95Q40.95,77.6,23,83.15l.05,0A39.28,39.28,0,0,0,6,91.9v-22l.85-3A60.49,60.49,0,0,1,9.5,60.1q8.4-18.49,27.55-23.25l0-.05q15.11-4.69,23-15l2.6-3.9A44.83,44.83,0,0,0,65.9,10.5L85.85,22.15l-2.8.9M114,88.1v10a5.89,5.89,0,0,1-.8,3,6.35,6.35,0,0,1-2.2,2.2h0L66.3,129.3,67,127a53.62,53.62,0,0,1,2.6-6.85Q78,101.7,97.1,97l0,0a49.44,49.44,0,0,0,17-8.8m-31.45-57,1.75,4L80.3,37l-1.75-4,4-1.85M76.1,39.9l3.2.45-.45,3.1-3.15-.4.4-3.15M52.65,18.25l.7,4.35L49,23.3,48.3,19l4.35-.7M58.8,66H54.25l0-4.55h4.6V66m-7.95,7L58,72l1,7-7.1,1.1-1-7m-13,18.8-6.55-3.5,3.55-6.7,6.6,3.55-3.6,6.65M30.15,93.9l-4-1,1-4,4,.95-1,4.05M61.3,104.75l2,1-1.15,2-1.9-1,1-2m13-7.15,2.45-6.15L83,93.9,80.5,100l-6.15-2.4m12.9-9.85,1.2-3,3,1.25L90.15,89l-2.9-1.2M91.8,91V95.5H87.25l0-4.55h4.6M63,118.6l1.75,4-4,1.85-1.75-4,4-1.85M18.85,37.7l3.25-2.6,2.55,3.25L21.45,41l-2.6-3.25m-4.25-.3,2.85,3.75L13.6,44,10.85,40.2l3.75-2.8m-3.35,8.5L12.1,48l-2,.95-.85-2.1,2-.9"/><path class="cls-3" d="M17.3,24.9l1.05-.6-1,.6H17.3"/><path class="cls-4" d="M60,8a5.63,5.63,0,0,0-3,.85l-14.4,8.4-.85,4.25H35.3l-8.25,4.85L23.5,34l-6.65-1.7L9,36.85A5.55,5.55,0,0,0,6.85,39,5.63,5.63,0,0,0,6,42V98.05a5.57,5.57,0,0,0,.85,3A5.9,5.9,0,0,0,9,103.2l20.75,12.1,5.25-.8.75,4.3L57,131.2a6,6,0,0,0,3,.8,6.26,6.26,0,0,0,3-.8L80.6,121l.9-5,4.65,1.75,4.7-2.75,1.9-6.25,5.75,1.75,12.55-7.3h0a6.35,6.35,0,0,0,2.2-2.2,5.89,5.89,0,0,0,.8-3V76.75L110.75,69,114,60.5V42a5.83,5.83,0,0,0-3-5.15h0l-14.6-8.5L87,27.5l-5.1-7.65-18.85-11A5.91,5.91,0,0,0,60,8m60,97L60,140,0,105V35L60,0l60,35v70"/></g></g></svg>