<svg xmlns="http://www.w3.org/2000/svg" viewBox="0 0 120 140"><defs><style>.cls-1{fill:#bb6444;}.cls-2{fill:#c26948;}.cls-3{fill:#bb8044;}.cls-4{fill:#aa753e;}.cls-5{fill:#b55f40;}.cls-6{fill:#c68a4e;}</style></defs><title>Asset 65</title><g id="Layer_2" data-name="Layer 2"><g id="Layer_1-2" data-name="Layer 1"><path class="cls-1" d="M87.5,23.55,87,28.85l5.25.5.55-5.25-5.25-.55M58.8,19.8l-1.25.55L51.9,23.7l-1.4.2.1.55L46,27.15,43.65,25,40,28.8,42.35,31h-3l-5,2.9-2,4.75H26.2l-8,4.65A4.54,4.54,0,0,0,16.05,47v3.5L13.9,50l-2.1,9.55,4.25,1V72.9l-2.5-2.3-6.2,6.7,6.7,6.2,3.45-3.7,1,1.9-2.45,3v8.15a4.11,4.11,0,0,0,.6,2.15,4.18,4.18,0,0,0,1.55,1.6l10,5.85,2.55,1.45,9.75,5.7-4.05,1.25,2.25,7.25,7.25-2.3-1.15-3.7,12.8,7.5a4.36,4.36,0,0,0,2.15.55,4.63,4.63,0,0,0,2.2-.55l4.7-2.75L67,118l4.45-1.55-.65-2,3-1.8,3.1-4.75,4.1.55,8.25-4.8,2.25-.7-.15-.5,4.6-2.7,1.1-.65,2-1.2L96.5,100l3.35,4.1,4.15-3.35-3.2-3.85.45-.3A4.75,4.75,0,0,0,102.8,95a4.36,4.36,0,0,0,.55-2.15V73.35h.2l.65-5.6h0l.4-3.7-1.3-.15V47a4.07,4.07,0,0,0-.55-2.1,4.26,4.26,0,0,0-1.55-1.6L90.35,37,89.2,33.3,86,34.35l-.35-.2H82.3L80.65,31.3l-15-8.7-3.8-2.25a4.14,4.14,0,0,0-2.2-.65l-.9.1M62.2,14l4.85-2.15L64.9,7.05,60,9.2,62.2,14m44.85,25.8,5,2,1.85-5-5-1.9-1.9,5m9.2,14.35-5.35-.5-.5,5.3,5.25.5.6-5.3M120,35v70L60,140,0,105V35L60,0l60,35m-8,69.1,1.85-5-5-1.9-1.9,5,5,1.95m-27.5,17.5,2.15-9.5L77.2,110l-2.1,9.55,9.45,2.1M64.9,127.65l-.85-5.25-5.2.85.8,5.2,5.25-.8M9.65,42.75l-4.25-3L2.3,44l4.25,3.1,3.1-4.3M30.4,24.1l-5.25-.55-.55,5.3,5.25.5.55-5.25M5.3,86.5,2.8,96.1l9.6,2.55L14.9,89,5.3,86.5m19.8,25,2.15,4.85,4.8-2.15-2.2-4.9-4.75,2.2"/><path class="cls-2" d="M87.5,23.55l5.25.55-.55,5.25L87,28.85l.55-5.3m-71.45,27v10l-4.25-1L13.9,50l2.15.5m24.4,59.1,4.3,2.5,1.15,3.7-7.25,2.3-2.25-7.25,4.05-1.25m48.8-5.95,2.1-1.2.15.5-2.25.7m17.8-63.85,1.9-5,5,1.9-1.85,5-5-2m5,64.3-5-1.95,1.9-5,5,1.9-1.85,5m-27.5,17.5-9.45-2.1L77.2,110l9.5,2.15-2.15,9.5M30.4,24.1l-.55,5.25-5.25-.5.55-5.3,5.25.55"/><path class="cls-3" d="M58.8,19.8l-.45,3.8,7.15.8.2-1.8,15,8.7,1.65,2.85h3.3l.35.2,4.4,2.6,10.9,6.35a4.26,4.26,0,0,1,1.55,1.6,4.07,4.07,0,0,1,.55,2.1V64.25l-2.1,3.3,2.1,3.1v22.2A4.36,4.36,0,0,1,102.8,95a4.75,4.75,0,0,1-1.55,1.6l-.45.3-1.7,1-2,1.2-1.2.15.1.5-4.6,2.7-2.1,1.2L81,108.45l-4.1-.55-3.1,4.75-3,1.8-4.2,2.4-4.7,2.75a4.63,4.63,0,0,1-2.2.55,4.36,4.36,0,0,1-2.15-.55l-12.8-7.5-4.3-2.5-9.75-5.7.2-.7-2.75-.75L18.2,96.6A4.18,4.18,0,0,1,16.65,95a4.11,4.11,0,0,1-.6-2.15V84.7l2.45-3-1-1.9-1.45-2.7V47a4.54,4.54,0,0,1,2.15-3.7l8-4.65h6.2l2-4.75,5-2.9h3l1.35-2.55L46,27.15l4.6-2.7.6,3.8,4.35-.7-.7-4.35-3,.5,5.65-3.35,1.25-.55M100.55,63l.45-3.1-3.2-.45-.4,3.15,3.15.4M88.15,77.25l-1.2,3,2.9,1.2,1.25-2.9-2.95-1.25M94,90.45V85.9H89.4l0,4.55H94m-15,1-2.45,6.15L82.7,100l2.45-6.1L79,91.4M24.3,39.85l-3.75,2.8L23.3,46.4l3.85-2.8L24.3,39.85m2.85,10-6.8,3,3,6.9,6.85-3-3.05-6.9m1,42.45-4.05-1-1,4,4.05,1,1-4m2.95-44.65,2.6,3.25,3.2-2.6L34.3,45.05l-3.25,2.6m.2,50.4,6.55,3.5,3.6-6.65-6.6-3.55-3.55,6.7M43.5,104.7l-1,2,1.9,1,1.15-2-2-1"/><path class="cls-4" d="M43.5,104.7l2,1-1.15,2-1.9-1,1-2M65.7,22.6l-.2,1.8-7.15-.8.45-3.8.9-.1a4.14,4.14,0,0,1,2.2.65l3.8,2.25M28.15,102.45l2.75.75-.2.7-2.55-1.45M96,99.75l-.1-.5,1.2-.15-1.1.65M79,91.4l6.15,2.45L82.7,100l-6.15-2.4L79,91.4m15-1H89.45l0-4.55H94v4.55M24.3,39.85l2.85,3.75L23.3,46.4l-2.75-3.75,3.75-2.8m6.75,7.8,3.25-2.6,2.55,3.25-3.2,2.6-2.6-3.25M28.1,92.3l-1,4-4.05-1,1-4,4.05,1"/><path class="cls-5" d="M46,27.15l-2.25,1.3L42.4,31h0L40,28.8,43.65,25,46,27.15M16.05,72.9v4.2l1.45,2.7-3.45,3.7-6.7-6.2,6.2-6.7,2.5,2.3M66.6,116.85l4.2-2.4.65,2L67,118l-.4-1.15M99.1,97.9l1.7-1,3.2,3.85-4.15,3.35L96.5,100l2.6-2.1m4.25-24.55v-2.7l-2.1-3.1,2.1-3.3V63.9l1.3.15-.4,3.7h0l-.65,5.6h-.2M90.35,37,86,34.35,89.2,33.3,90.35,37M62.2,14,60,9.2l4.9-2.15,2.15,4.8L62.2,14m54.05,40.15-.6,5.3L110.4,59l.5-5.3,5.35.5M64.9,127.65l-5.25.8-.8-5.2,5.2-.85.85,5.25M9.65,42.75l-3.1,4.3L2.3,44,5.4,39.7l4.25,3M5.3,86.5,14.9,89l-2.5,9.65L2.8,96.1l2.5-9.6m19.8,25,4.75-2.2,2.2,4.9-4.8,2.15-2.15-4.85"/><path class="cls-6" d="M51.9,23.7l3-.5.7,4.35-4.35.7-.6-3.8-.1-.55,1.4-.2M100.55,63l-3.15-.4.4-3.15,3.2.45-.45,3.1M88.15,77.25,91.1,78.5l-1.25,2.9L87,80.2l1.2-3m-61-27.4,3.05,6.9-6.85,3-3-6.9,6.8-3m4.1,48.2,3.55-6.7,6.6,3.55-3.6,6.65-6.55-3.5"/></g></g></svg>