<svg xmlns="http://www.w3.org/2000/svg" viewBox="0 0 120 140"><defs><style>.cls-1{fill:#a4afaf;}.cls-2{fill:#9ba6a6;}.cls-3{fill:#a9b6b6;}</style></defs><title>Asset 83</title><g id="Layer_2" data-name="Layer 2"><g id="Layer_1-2" data-name="Layer 1"><path class="cls-1" d="M0,35,60,0l60,35v70L60,140,0,105V35M58.9,14.45l5.9,2.75,3.7-4.35L62.6,10.1l-3.7,4.35M88.35,25.6,84.65,30l5.9,2.75,3.7-4.35-5.9-2.75M82.4,41.5l5.85-6.85L79,30.35l-5.8,6.8L82.4,41.5M33.05,28.1l-5.8,6.8,9.25,4.35,5.85-6.85-9.3-4.3M26.2,69.35l-5.8,6.8,9.25,4.35,5.85-6.85-9.3-4.3M40.5,62.1l-5.9-2.75L30.9,63.7l5.9,2.75,3.7-4.35m-22,16.75L12.6,76.1,8.9,80.45l5.9,2.75,3.7-4.35M18,60.35l-5.8,6.8L21.4,71.5l5.85-6.85L18,60.35m65.25,30-5.8,6.8,9.25,4.35,5.85-6.85-9.3-4.3M61.65,63.7l5.9,2.75,3.7-4.35-5.9-2.75-3.7,4.35m13,12.4,5.85-6.85L71.2,65l-5.8,6.8,9.25,4.35M47,105.6l-5.9-2.75-3.7,4.35L43.3,110,47,105.6m56.15-39,5.9,2.75,3.7-4.35-5.9-2.75-3.7,4.35m-4.25,36L93,99.85l-3.7,4.35L95.2,107l3.7-4.35m1.6-69.5-5.9-2.75L90.9,34.7l5.9,2.75,3.7-4.35M84.65,105.6c-2-.9-3.93-1.82-5.9-2.75l-3.7,4.35L81,110l3.7-4.35M100.5,65l-5.9-2.75L90.9,66.6l5.9,2.75L100.5,65M37.4,116l5.9,2.75,3.7-4.35-5.9-2.75L37.4,116m-14-1.65,5.9,2.75L33,112.7,27.1,110l-3.7,4.35"/><path class="cls-2" d="M23.4,114.3,27.1,110,33,112.7l-3.7,4.35-5.9-2.75M88.35,25.6l5.9,2.75-3.7,4.35L84.65,30l3.7-4.35M58.9,14.45l3.7-4.35,5.9,2.75L64.8,17.2l-5.9-2.75M33.05,28.1l9.3,4.3L36.5,39.25,27.25,34.9l5.8-6.8M18.5,78.85,14.8,83.2,8.9,80.45l3.7-4.35,5.9,2.75M47,105.6,43.3,110l-5.9-2.75,3.7-4.35L47,105.6M74.65,76.1,65.4,71.75,71.2,65l9.3,4.3L74.65,76.1m-13-12.4,3.7-4.35,5.9,2.75-3.7,4.35-5.9-2.75M83.2,90.35l9.3,4.3-5.85,6.85L77.4,97.15l5.8-6.8M100.5,65l-3.7,4.35L90.9,66.6l3.7-4.35L100.5,65"/><path class="cls-3" d="M82.4,41.5l-9.25-4.35,5.8-6.8,9.3,4.3L82.4,41.5M40.5,62.1l-3.7,4.35L30.9,63.7l3.7-4.35,5.9,2.75M26.2,69.35l9.3,4.3L29.65,80.5,20.4,76.15l5.8-6.8m-8.25-9,9.3,4.3L21.4,71.5l-9.25-4.35,5.8-6.8m66.7,45.25L81,110l-5.9-2.75,3.7-4.35c2,.93,3.93,1.85,5.9,2.75M100.5,33.1l-3.7,4.35L90.9,34.7l3.7-4.35,5.9,2.75m-1.6,69.5L95.2,107l-5.9-2.75L93,99.85l5.9,2.75m4.25-36,3.7-4.35,5.9,2.75-3.7,4.35-5.9-2.75M37.4,116l3.7-4.35,5.9,2.75-3.7,4.35L37.4,116"/></g></g></svg>