<svg xmlns="http://www.w3.org/2000/svg" viewBox="0 0 120 140"><defs><style>.cls-1{fill:#ecdcb8;}.cls-2{fill:#e5d5b2;}.cls-3{fill:#e0d1af;}.cls-4{fill-opacity:0.1;}.cls-5{fill:#1a7741;}.cls-6{fill:#27ae60;}.cls-7{fill:#2bc46c;}</style></defs><title>Asset 56</title><g id="Layer_2" data-name="Layer 2"><g id="Layer_1-2" data-name="Layer 1"><path class="cls-1" d="M18.35,24.3l27.5-16h0L60,0l60,35v70L60,140,0,105V35L17.25,25l.05-.05h.05l1-.6M114,42a5.83,5.83,0,0,0-3-5.15h0l-5.65-3.3a61.49,61.49,0,0,1-8.35,3.25l0,.05Q77.94,41.61,69.55,60.1A53.62,53.62,0,0,0,67,67a43.55,43.55,0,0,1-4.4,11L60,81.85Q52.11,92.2,37,96.9l0,0a39,39,0,0,0-19.6,11.2l30.3,17.65,1-1.7,2-3.95a42.65,42.65,0,0,0,2.4-7A51.69,51.69,0,0,1,60,98.8,38.43,38.43,0,0,1,83.1,83.2l0,0q18-5.55,25.75-19.1l2-3.95a39,39,0,0,0,2.4-7.05l.8-2.35V42M85.85,22.15,65.9,10.5a44.83,44.83,0,0,1-3.35,7.35L60,21.75q-7.85,10.35-23,15l0,.05Q17.9,41.61,9.5,60.1A60.49,60.49,0,0,0,6.85,67L6,69.9v22a39.28,39.28,0,0,1,17-8.7l-.05,0q18-5.55,25.8-19.1l2-3.95a44.24,44.24,0,0,0,2.4-7.05A51.77,51.77,0,0,1,60,38.75,38.37,38.37,0,0,1,83.1,23.1l0-.05,2.8-.9M83,93.9,76.8,91.45,74.35,97.6,80.5,100,83,93.9m4.3-6.15,2.9,1.2,1.25-2.9-3-1.25-1.2,3m0,7.75H91.8V91H87.2l0,4.55m19.45-24-.75,6.6,6.55.75.75-6.55-6.55-.8M76.1,39.9l-.4,3.15,3.15.4.45-3.1-3.2-.45m6.45-8.8-4,1.85,1.75,4,4-1.85-1.75-4M97.1,97q-19.15,4.76-27.55,23.2A53.62,53.62,0,0,0,67,127l-.65,2.3,44.75-26.1h0a6.35,6.35,0,0,0,2.2-2.2,5.89,5.89,0,0,0,.8-3v-10a49.44,49.44,0,0,1-17,8.8l0,0M63,118.6l-4,1.85,1.75,4,4-1.85-1.75-4m-1.7-13.85-1,2,1.9,1,1.15-2-2-1M37.9,91.85l3.6-6.65-6.6-3.55-3.55,6.7,6.55,3.5m16.3-30.4,0,4.55H58.8V61.45H54.2M59,79l-1-7-7.1,1.1,1,7L59,79m-28.85,15,1-4.05-4-.95-1,4,4,1M13.6,44l3.85-2.8L14.6,37.4l-3.75,2.8L13.6,44m5.25-6.25L21.45,41l3.2-2.6L22.1,35.1l-3.25,2.6M12.1,48l-.85-2.05-2,.9.85,2.1,2-.95m40.55-29.7L48.3,19,49,23.3l4.35-.7-.7-4.35"/><path class="cls-2" d="M52.65,18.25l.7,4.35L49,23.3,48.3,19l4.35-.7m33.2,3.9-2.8.9,0,.05A38.37,38.37,0,0,0,60,38.75a51.77,51.77,0,0,0-6.8,14.3,44.24,44.24,0,0,1-2.4,7.05l-2,3.95Q40.95,77.6,23,83.15l.05,0A39.28,39.28,0,0,0,6,91.9v-22l.85-3A60.49,60.49,0,0,1,9.5,60.1q8.4-18.49,27.55-23.25l0-.05q15.11-4.69,23-15l2.6-3.9A44.83,44.83,0,0,0,65.9,10.5L85.85,22.15M114,42v8.7l-.8,2.35a39,39,0,0,1-2.4,7.05l-2,3.95Q101,77.6,83.05,83.15l0,0A38.43,38.43,0,0,0,60,98.8a51.69,51.69,0,0,0-6.8,14.35,42.65,42.65,0,0,1-2.4,7l-2,3.95-1,1.7-30.3-17.65A39,39,0,0,1,37.05,97l0,0q15.11-4.7,23-15.05l2.6-3.9A43.55,43.55,0,0,0,67,67a53.62,53.62,0,0,1,2.6-6.85Q78,41.61,97.1,36.85l0-.05a61.49,61.49,0,0,0,8.35-3.25l5.65,3.3h0A5.83,5.83,0,0,1,114,42M82.55,31.1l1.75,4L80.3,37l-1.75-4,4-1.85M76.1,39.9l3.2.45-.45,3.1-3.15-.4.4-3.15m30.6,31.55,6.55.8-.75,6.55L106,78.05l.75-6.6m-19.45,24,0-4.55h4.6V95.5H87.25m0-7.75,1.2-3,3,1.25L90.15,89l-2.9-1.2M83,93.9,80.5,100l-6.15-2.4,2.45-6.15L83,93.9M97.1,97l0,0a49.44,49.44,0,0,0,17-8.8v10a5.89,5.89,0,0,1-.8,3,6.35,6.35,0,0,1-2.2,2.2h0L66.3,129.3,67,127a53.62,53.62,0,0,1,2.6-6.85Q78,101.7,97.1,97m-85-49-2,.95-.85-2.1,2-.9L12.1,48M18.85,37.7l3.25-2.6,2.55,3.25L21.45,41l-2.6-3.25M13.6,44,10.85,40.2l3.75-2.8,2.85,3.75L13.6,44m16.55,50-4-1,1-4,4,.95-1,4.05M59,79l-7.1,1.1-1-7L58,72l1,7m-4.8-17.5h4.6V66H54.25l0-4.55M37.9,91.85l-6.55-3.5,3.55-6.7,6.6,3.55-3.6,6.65m23.4,12.9,2,1-1.15,2-1.9-1,1-2M63,118.6l1.75,4-4,1.85-1.75-4,4-1.85"/><path class="cls-3" d="M17.3,24.9l1.05-.6-1,.6H17.3"/><path class="cls-4" d="M35.15,56.8A11.93,11.93,0,0,1,29,55.3c-1.7-1-2.55-2.13-2.55-3.5s.85-2.55,2.55-3.55a12.22,12.22,0,0,1,6.15-1.45,12.22,12.22,0,0,1,6.15,1.45q2.55,1.5,2.55,3.55c0,1.37-.85,2.53-2.55,3.5a11.93,11.93,0,0,1-6.15,1.5"/><path class="cls-5" d="M40.3,28.45h.75l.4-.05a4,4,0,0,1,2.9,1.2,3.87,3.87,0,0,1,1.15,2.85v5.3a6.33,6.33,0,0,1-1.8,4.5l-.25.25A6.41,6.41,0,0,1,40.3,44v5.75a3.67,3.67,0,0,1-1.9,3.3,6.27,6.27,0,0,1-3.5,1,6.37,6.37,0,0,1-3.55-1,3.67,3.67,0,0,1-1.9-3.3v-3a6.1,6.1,0,0,1-2.9-1.65l-.1,0a6.33,6.33,0,0,1-1.8-4.5V35.25a3.85,3.85,0,0,1,1.2-2.9,3.8,3.8,0,0,1,2.85-1.2l.6.05.15.05v-2.5A5.11,5.11,0,0,1,31,25l.05-.05A5.18,5.18,0,0,1,34.9,23.3,5.12,5.12,0,0,1,38.75,25V25a5.14,5.14,0,0,1,1.55,3.5m-8.85,16.4v4.9a1.88,1.88,0,0,0,1,1.6A4.43,4.43,0,0,0,34.9,52a4.35,4.35,0,0,0,2.4-.65,1.88,1.88,0,0,0,1-1.6V42.1h.85a4.16,4.16,0,0,0,3.05-1.25h0a4.34,4.34,0,0,0,1.25-3.1v-5.3A2.05,2.05,0,0,0,40,31a1.91,1.91,0,0,0-.65,1.45v5.3l-.05.15-.15.1-.85,0v-9.2a3.27,3.27,0,0,0-1-2.4,3.21,3.21,0,0,0-2.4-1.05,3.5,3.5,0,0,0-3.45,3.45v12l-.45,0-.15,0v-.05l-.1-.15V35.25a2,2,0,0,0-.6-1.5,2.05,2.05,0,0,0-2.9,0,2,2,0,0,0-.6,1.5V40.5A4.27,4.27,0,0,0,31,44.85h.45"/><path class="cls-6" d="M31.45,44.85h.45a1.91,1.91,0,0,0,1.45-.65,2,2,0,0,0,.6-1.45,1.91,1.91,0,0,0-.65-1.45,2,2,0,0,0-1.45-.6h-.4v-12A3.5,3.5,0,0,1,34.9,25.3a3.21,3.21,0,0,1,2.4,1.05,3.27,3.27,0,0,1,1,2.4V38l.85,0,.15-.1.05-.15v-5.3A1.91,1.91,0,0,1,40,31a2.05,2.05,0,0,1,3.5,1.45v5.3a4.34,4.34,0,0,1-1.25,3.1h0a4.16,4.16,0,0,1-3.05,1.25H38.3v7.65a1.88,1.88,0,0,1-1,1.6,4.35,4.35,0,0,1-2.4.65,4.43,4.43,0,0,1-2.45-.65,1.88,1.88,0,0,1-1-1.6v-4.9"/><path class="cls-7" d="M31.45,44.85H31a4.27,4.27,0,0,1-4.35-4.35V35.25a2,2,0,0,1,.6-1.5,2.05,2.05,0,0,1,2.9,0,2,2,0,0,1,.6,1.5V40.5l.1.15v.05l.15,0,.45,0h.4a2,2,0,0,1,1.45.6A1.91,1.91,0,0,1,34,42.75a2,2,0,0,1-.6,1.45,1.91,1.91,0,0,1-1.45.65h-.45"/><path class="cls-4" d="M13.9,69.2A9.72,9.72,0,0,1,19,68,9.72,9.72,0,0,1,24,69.2a3.19,3.19,0,0,1,0,6A9.72,9.72,0,0,1,19,76.45a9.72,9.72,0,0,1-5-1.25,3.19,3.19,0,0,1,0-6"/><path class="cls-5" d="M11.9,55l.1-.1a3.41,3.41,0,0,1,2.35-.9h.05V48.7a4.27,4.27,0,0,1,1.35-3.2A4.27,4.27,0,0,1,19,44.15,4.42,4.42,0,0,1,22.2,45.5v0a4.61,4.61,0,0,1,1.2,2.35h.5A3.3,3.3,0,0,1,26.3,49a3.43,3.43,0,0,1,1,2.45v4A5.15,5.15,0,0,1,25.85,59l-.2.2a5.14,5.14,0,0,1-2.2,1.2v9.7A3.22,3.22,0,0,1,22,73l-.15.1a5.53,5.53,0,0,1-2.85.7,5.27,5.27,0,0,1-2.8-.7l-.1,0a3.21,3.21,0,0,1-1.65-2.9V66.3l-2-1.2h0a5.11,5.11,0,0,1-1.55-3.75V57.5A3.38,3.38,0,0,1,11.9,55m4.5,9.6V70.1a1.43,1.43,0,0,0,.75,1.2,3.44,3.44,0,0,0,1.8.45l1.8-.45a1.43,1.43,0,0,0,.7-1.2V58.55h.65a3.08,3.08,0,0,0,2.25-.95h0a3.15,3.15,0,0,0,.9-2.25v-4a1.54,1.54,0,0,0-1.5-1.5,1.5,1.5,0,0,0-1.1.45,1.44,1.44,0,0,0-.45,1v4l-.05.1-.1,0-.65,0V48.7a2.53,2.53,0,0,0-.7-1.8,2.55,2.55,0,0,0-4.35,1.8V61.5l-.35,0-.1,0v0l0-.1V57.5a1.55,1.55,0,0,0-.45-1.15,1.59,1.59,0,0,0-1.1-.4,1.52,1.52,0,0,0-1,.4,1.55,1.55,0,0,0-.45,1.15v3.85a3.16,3.16,0,0,0,3.2,3.2h.35"/><path class="cls-6" d="M16.4,64.55h.35l1.05-.45a1.5,1.5,0,0,0,.45-1.1,1.38,1.38,0,0,0-.5-1,1.35,1.35,0,0,0-1.05-.45h-.3V48.7a2.55,2.55,0,0,1,4.35-1.8,2.53,2.53,0,0,1,.7,1.8v6.75l.65,0,.1,0,.05-.1v-4a1.44,1.44,0,0,1,.45-1,1.5,1.5,0,0,1,1.1-.45,1.54,1.54,0,0,1,1.5,1.5v4a3.15,3.15,0,0,1-.9,2.25h0a3.08,3.08,0,0,1-2.25.95h-.65V70.1a1.43,1.43,0,0,1-.7,1.2l-1.8.45a3.44,3.44,0,0,1-1.8-.45,1.43,1.43,0,0,1-.75-1.2V64.55"/><path class="cls-7" d="M16.4,64.55h-.35a3.16,3.16,0,0,1-3.2-3.2V57.5a1.55,1.55,0,0,1,.45-1.15,1.52,1.52,0,0,1,1-.4,1.59,1.59,0,0,1,1.1.4,1.55,1.55,0,0,1,.45,1.15v3.85l0,.1v0l.1,0,.35,0h.3a1.35,1.35,0,0,1,1.05.45,1.38,1.38,0,0,1,.5,1,1.5,1.5,0,0,1-.45,1.1l-1.05.45H16.4"/><path class="cls-4" d="M55.2,112.55a3.42,3.42,0,0,1-2.05,2.9,10,10,0,0,1-5,1.2,9.74,9.74,0,0,1-5-1.2c-1.4-.8-2.1-1.77-2.1-2.9s.7-2.1,2.1-2.9a9.74,9.74,0,0,1,5-1.2,10,10,0,0,1,5,1.2,3.42,3.42,0,0,1,2.05,2.9"/><path class="cls-5" d="M42.6,101.9a5.12,5.12,0,0,1,5.1-5.1,5,5,0,0,1,3.65,1.5,4.81,4.81,0,0,1,1.45,3.4l.2.2a6.79,6.79,0,0,1,2,5A7,7,0,0,1,48,114a6.79,6.79,0,0,1-5-2,7.15,7.15,0,0,1-.35-9.75v-.3m8.15.75,0-.75a3.1,3.1,0,1,0-6.2,0l.2,1-.45.35a5.1,5.1,0,1,0,7.2,0l-.8-.65"/><path class="cls-7" d="M50.75,102.65l-.85,1.45a3.14,3.14,0,0,1-4.4,0L44.8,103l-.2-1a3.1,3.1,0,1,1,6.2,0l0,.75"/><path class="cls-6" d="M50.75,102.65l.8.65a5.1,5.1,0,1,1-7.2,0l.45-.35.7,1.15a3.14,3.14,0,0,0,4.4,0l.85-1.45"/><path class="cls-4" d="M108.2,89.5a3.55,3.55,0,0,1-2.1,3,10.83,10.83,0,0,1-10.1,0,3.19,3.19,0,0,1,0-6,10.83,10.83,0,0,1,10.1,0,3.55,3.55,0,0,1,2.1,3"/><path class="cls-5" d="M105.5,65.2h.5a3.3,3.3,0,0,1,2.4,1,3.43,3.43,0,0,1,1,2.45v4A5.15,5.15,0,0,1,108,76.3l-.2.2a5.14,5.14,0,0,1-2.2,1.2v9.7a3.22,3.22,0,0,1-1.5,2.85l-.15.1a5.53,5.53,0,0,1-2.85.7,5.27,5.27,0,0,1-2.8-.7l-.1,0a3.21,3.21,0,0,1-1.65-2.9V83.6a4.75,4.75,0,0,1-2-1.2h0A5.11,5.11,0,0,1,93,78.65V74.8a3.38,3.38,0,0,1,1-2.55l.1-.1a3.41,3.41,0,0,1,2.35-.9h0V66a4.61,4.61,0,0,1,4.55-4.55,4.42,4.42,0,0,1,3.25,1.35v.05a4.61,4.61,0,0,1,1.2,2.35m-7,16.65V87.4a1.43,1.43,0,0,0,.75,1.2l1.8.45,1.8-.45a1.43,1.43,0,0,0,.7-1.2V75.85h.65a3.08,3.08,0,0,0,2.25-.95h0a3.15,3.15,0,0,0,.9-2.25v-4a1.54,1.54,0,0,0-1.5-1.5,1.5,1.5,0,0,0-1.1.45,1.44,1.44,0,0,0-.45,1v4l0,.1-.1,0-.65,0V66a2.53,2.53,0,0,0-.7-1.8A2.55,2.55,0,0,0,98.5,66V78.8l-.35,0-.1,0v0l0-.1V74.8a1.55,1.55,0,0,0-.45-1.15,1.59,1.59,0,0,0-1.1-.4,1.52,1.52,0,0,0-1,.4A1.55,1.55,0,0,0,95,74.8v3.85a3.16,3.16,0,0,0,3.2,3.2h.35"/><path class="cls-6" d="M98.5,81.85h.35a1.44,1.44,0,0,0,1.05-.45,1.5,1.5,0,0,0,.45-1.1,1.38,1.38,0,0,0-.5-1,1.35,1.35,0,0,0-1-.45h-.3V66a2.55,2.55,0,0,1,4.35-1.8,2.53,2.53,0,0,1,.7,1.8v6.75l.65,0,.1,0,0-.1v-4a1.44,1.44,0,0,1,.45-1,1.5,1.5,0,0,1,1.1-.45,1.54,1.54,0,0,1,1.5,1.5v4a3.15,3.15,0,0,1-.9,2.25h0a3.08,3.08,0,0,1-2.25.95h-.65V87.4a1.43,1.43,0,0,1-.7,1.2l-1.8.45-1.8-.45a1.43,1.43,0,0,1-.75-1.2V81.85"/><path class="cls-7" d="M98.5,81.85h-.35a3.16,3.16,0,0,1-3.2-3.2V74.8a1.55,1.55,0,0,1,.45-1.15,1.52,1.52,0,0,1,1-.4,1.59,1.59,0,0,1,1.1.4A1.55,1.55,0,0,1,98,74.8v3.85l0,.1v0l.1,0,.35,0h.3a1.35,1.35,0,0,1,1,.45,1.38,1.38,0,0,1,.5,1,1.5,1.5,0,0,1-.45,1.1,1.44,1.44,0,0,1-1.05.45H98.5"/><path class="cls-4" d="M79.6,59.45Q82.15,61,82.15,63c0,1.37-.85,2.53-2.55,3.5a13.36,13.36,0,0,1-12.3,0c-1.7-1-2.55-2.13-2.55-3.5s.85-2.55,2.55-3.55a13.77,13.77,0,0,1,12.3,0"/><path class="cls-5" d="M79.75,39.6a4,4,0,0,1,2.9,1.2,3.87,3.87,0,0,1,1.15,2.85V49a6.33,6.33,0,0,1-1.8,4.5l-.25.25a6.41,6.41,0,0,1-3.15,1.5V61a3.67,3.67,0,0,1-1.9,3.3,6.27,6.27,0,0,1-3.5,1,6.37,6.37,0,0,1-3.55-1,3.67,3.67,0,0,1-1.9-3.3V57.9a6.1,6.1,0,0,1-2.9-1.65l-.1,0A6.33,6.33,0,0,1,63,51.7V46.45a3.85,3.85,0,0,1,1.2-2.9A3.8,3.8,0,0,1,67,42.35l.6,0,.15.05V40A5.11,5.11,0,0,1,69.3,36.2l0-.05A5.18,5.18,0,0,1,73.2,34.5a5.12,5.12,0,0,1,3.85,1.7v-.05a5.14,5.14,0,0,1,1.55,3.5h.75l.4,0m-10,16.45V61a1.88,1.88,0,0,0,1,1.6,4.43,4.43,0,0,0,2.45.65,4.35,4.35,0,0,0,2.4-.65,1.88,1.88,0,0,0,1-1.6V53.3h.85a4.16,4.16,0,0,0,3-1.25h0A4.34,4.34,0,0,0,81.8,49v-5.3a2.05,2.05,0,0,0-3.5-1.45,1.91,1.91,0,0,0-.65,1.45V49l-.05.15-.15.1-.85-.05V40a3.27,3.27,0,0,0-1-2.4,3.21,3.21,0,0,0-2.4-1A3.5,3.5,0,0,0,69.75,40V51.9L69.3,52l-.15-.05v0l-.1-.15V46.45a2,2,0,0,0-.6-1.5,2.05,2.05,0,0,0-2.9,0,2,2,0,0,0-.6,1.5V51.7a4.27,4.27,0,0,0,4.35,4.35h.45"/><path class="cls-6" d="M69.75,56.05h.45a1.91,1.91,0,0,0,1.45-.65,2,2,0,0,0,.6-1.45,1.91,1.91,0,0,0-.65-1.45,2,2,0,0,0-1.45-.6h-.4V40A3.5,3.5,0,0,1,73.2,36.5a3.21,3.21,0,0,1,2.4,1,3.27,3.27,0,0,1,1,2.4v9.2l.85.05.15-.1.05-.15v-5.3a1.91,1.91,0,0,1,.65-1.45,2.05,2.05,0,0,1,3.5,1.45V49a4.34,4.34,0,0,1-1.25,3.1h0a4.16,4.16,0,0,1-3,1.25H76.6V61a1.88,1.88,0,0,1-1,1.6,4.35,4.35,0,0,1-2.4.65,4.43,4.43,0,0,1-2.45-.65,1.88,1.88,0,0,1-1-1.6v-4.9"/><path class="cls-7" d="M69.75,56.05H69.3A4.27,4.27,0,0,1,65,51.7V46.45a2,2,0,0,1,.6-1.5,2.05,2.05,0,0,1,2.9,0,2,2,0,0,1,.6,1.5V51.7l.1.15v0l.15.05.45-.05h.4a2,2,0,0,1,1.45.6A1.91,1.91,0,0,1,72.25,54a2,2,0,0,1-.6,1.45,1.91,1.91,0,0,1-1.45.65h-.45"/></g></g></svg>