<svg xmlns="http://www.w3.org/2000/svg" viewBox="0 0 87.3 100.45"><defs><style>.cls-1{fill:#e5d5b2;}.cls-2{fill:#ecdcb8;}.cls-3{fill:#e0d1af;}</style></defs><title>Asset 42</title><g id="Layer_2" data-name="Layer 2"><g id="Layer_1-2" data-name="Layer 1"><path class="cls-1" d="M16.6,18.35a33.49,33.49,0,0,1,4.1-1.25l-.05-.05Q33.15,13.15,40.7,5.4l1.35-1.5L43.6,2,44.9.2a4.75,4.75,0,0,1,1,.45l11,6.45A37.84,37.84,0,0,0,43.6,19a51.77,51.77,0,0,0-6.8,14.3,44.24,44.24,0,0,1-2.4,7.05l-2,3.95Q24.6,57.85,6.6,63.4l.05.05A42.48,42.48,0,0,0,0,65.65V65l2.45-3L0,57.4V29.5l1.25-1.35A37.43,37.43,0,0,1,15,19l1.65-.6m50.95-3.9.4.9L64,17.2l-1.75-4L64.85,12l1.4,2.45h1.3m8.8,4L85.2,23.6a4.26,4.26,0,0,1,1.55,1.6,4.07,4.07,0,0,1,.55,2.1V44.55l-2.1,3.3L87.3,51v.3A44.33,44.33,0,0,1,70,62.3l-3.3,1.1,0,.05-.85.25a39.82,39.82,0,0,0-9.8,4l-1.75,1-1.1.7-1.1.8a37.46,37.46,0,0,0-7.25,7.1l-1.3,1.75a38.73,38.73,0,0,0-2.8,4.65,46.59,46.59,0,0,0-2.75,6.1L36.8,93.4l-.9,3.2L10,81.45A41.27,41.27,0,0,1,20.3,77.3l.4-.1-.05,0q15.1-4.7,23-15.05l2.6-3.9a43.55,43.55,0,0,0,4.4-11,53.62,53.62,0,0,1,2.6-6.85Q60.6,24,76.35,18.45M87,74.8l-.25.5a4.75,4.75,0,0,1-1.55,1.6L65,88.75l-3.7-.5a38.86,38.86,0,0,1,19.1-11l.4-.1,0,0L87,74.8M59.75,90l-2,3-.55.35L59.75,90m-12.9,9.4-1,.55-1.8.55h-.8l3.4-1.6.2.5M42.45,41.7v4.55H37.9l0-4.55h4.6m17.3-21.55,3.2.45-.45,3.1-3.15-.4.4-3.15M34.5,53.3l7.1-1.1,1,7-7.1,1.1-1-7M47,86,45.8,88l-1.9-1L45,85l2,1M66.6,74.15l-2.45,6.1L58,77.85l2.45-6.15,6.15,2.45m-41.45-8.7-3.6,6.65L15,68.6l3.55-6.7,6.6,3.55m-14.4,3.7,4.05.95-1,4.05-4.05-1,1-4m64.3-2.85L73.8,69.2,70.9,68l1.2-3,3,1.25m-4.2,4.9h4.6v4.55H70.9l-.05-4.55"/><path class="cls-2" d="M44.9.2,43.6,2,42.05,3.9,40.7,5.4q-7.55,7.76-20.05,11.65l.05.05a33.49,33.49,0,0,0-4.1,1.25l1.7-4.15,5-2.9h3.05L27.7,8.75,41.5.65A3.9,3.9,0,0,1,43.65,0L44.9.2M15,19a37.43,37.43,0,0,0-13.7,9.2L0,29.5V27.3a3.84,3.84,0,0,1,.6-2.1,3.8,3.8,0,0,1,1.55-1.6l8-4.65H15M0,65.65a42.48,42.48,0,0,1,6.65-2.2L6.6,63.4q18-5.55,25.8-19.1l2-3.95a44.24,44.24,0,0,0,2.4-7.05A51.77,51.77,0,0,1,43.6,19,37.84,37.84,0,0,1,56.9,7.1l7.7,4.5.25.4L62.2,13.2l1.75,4,4-1.85-.4-.9h2l6.8,4Q60.6,24,53.2,40.35a53.62,53.62,0,0,0-2.6,6.85,43.55,43.55,0,0,1-4.4,11l-2.6,3.9q-7.85,10.35-23,15.05l.05,0-.4.1A41.27,41.27,0,0,0,10,81.45L2.15,76.9A4.18,4.18,0,0,1,.6,75.3,4.11,4.11,0,0,1,0,73.15v-7.5m87.3-14.4v21.9L87,74.8l-6.3,2.35,0,0-.4.1a38.86,38.86,0,0,0-19.1,11L59.75,90,57.2,93.3l-10.35,6-.2-.5-3.4,1.6L41.5,99.9l-5.6-3.3.9-3.2,1.25-3.6a46.59,46.59,0,0,1,2.75-6.1,38.73,38.73,0,0,1,2.8-4.65l1.3-1.75a37.46,37.46,0,0,1,7.25-7.1l1.1-.8,1.1-.7,1.75-1a39.82,39.82,0,0,1,9.8-4l.85-.25,0-.05L70,62.3a44.33,44.33,0,0,0,17.3-11M59.75,20.15l-.4,3.15,3.15.4L63,20.6l-3.2-.45M42.45,41.7h-4.6l0,4.55h4.55V41.7M10.75,69.15l-1,4,4.05,1,1-4.05-4.05-.95m14.4-3.7-6.6-3.55L15,68.6l6.55,3.5,3.6-6.65m41.45,8.7L60.45,71.7,58,77.85l6.15,2.4,2.45-6.1M47,86l-2-1L43.9,87l1.9,1L47,86M34.5,53.3l1,7,7.1-1.1-1-7-7.1,1.1m40.55,13-3-1.25-1.2,3,2.9,1.2,1.25-2.9m-4.2,4.9.05,4.55h4.55V71.2h-4.6"/><path class="cls-3" d="M1,5.15,2,4.55l-1,.6H1"/></g></g></svg>