<svg xmlns="http://www.w3.org/2000/svg" viewBox="0 0 120 140"><defs><style>.cls-1{fill:#bb8044;}.cls-2{fill:#aa753e;}.cls-3{fill:#c68a4e;}.cls-4{fill:#115f32;}.cls-5{fill:#168344;}.cls-6{fill:#1b914d;}.cls-7{fill:#797067;}.cls-8{fill:#8a3f23;}.cls-9{fill:#bb5f3c;}.cls-10{fill:#7e562d;}.cls-11{fill:#c4baae;}.cls-12{fill:#d26f49;}.cls-13{fill:#cdced1;}.cls-14{fill:#b87e42;}.cls-15{fill-opacity:0.1;}.cls-16{fill:#a8733c;}.cls-17{fill:#e0d4c7;}.cls-18{fill:#cbc0b5;}.cls-19{fill:#c4b6a7;}.cls-20{fill:#aeaeae;}.cls-21{fill:#10773c;}.cls-22{fill:#855b30;}.cls-23{fill:#a8733d;}.cls-24{fill:#916334;}</style></defs><title>Asset 141</title><g id="Layer_2" data-name="Layer 2"><g id="Layer_1-2" data-name="Layer 1"><path class="cls-1" d="M59.5,16.6l-.85,7,7.15.8.8-7-7.1-.8m31.9,62-3-1.25-1.2,3,2.9,1.2,1.25-2.9m6.7-19-.4,3.15,3.15.4.45-3.1-3.2-.45m6.1,2-.75,6.6,6.55.75.75-6.55-6.55-.8m6-3.45L109,53.6l-4.4,1.2,1.2,4.45,4.4-1.25M85.45,93.9,79.3,91.45,76.85,97.6,83,100l2.45-6.1m8.85-8H89.7l0,4.55H94.3V86m14.7,5.9-4,1.85,1.75,4,4-1.85-1.75-4m-5.75,6.35-7.1,1.1,1,7,7.1-1.1-1-7M120,35v70L60,140,0,105V35L60,0l60,35M55.15,23.25,50.8,24l.7,4.35,4.35-.7-.7-4.35M13.75,53.4l-2,.9.85,2.1,2-.95-.85-2.05m13.7-9.75L24.6,39.9l-3.75,2.8,2.75,3.75,3.85-2.8M34.6,45.1l-3.25,2.6L34,51l3.2-2.6L34.6,45.1m.5,46.3-3.55,6.7,6.55,3.5L41.7,95,35.1,91.4m-10.75,0-1,4,4,1,1-4.05-4-.95m-.7-31.6,6.85-3-3.05-6.9-6.8,3,3,6.9m19.1,46.9,1.9,1,1.15-2-2-1-1,2M31.2,103.25,26.65,102l-1.2,4.55,4.5,1.2,1.25-4.45"/><path class="cls-2" d="M31.2,103.25,30,107.7l-4.5-1.2,1.2-4.55,4.55,1.3M59.5,16.6l7.1.8-.8,7.05-7.15-.8.85-7M94.3,86V90.5H89.75l0-4.55h4.6m-8.85,8L83,100l-6.15-2.4,2.45-6.15,6.15,2.45M110.15,58l-4.4,1.25-1.2-4.45,4.4-1.2,1.2,4.4m-6,3.45,6.55.8L110,68.8l-6.55-.75.75-6.6m-1,36.75,1,7-7.1,1.1-1-7,7.1-1.1M34.6,45.1l2.55,3.25L34,51l-2.6-3.25,3.25-2.6m-7.15-1.45-3.85,2.8L20.85,42.7l3.75-2.8,2.85,3.75M13.75,53.4l.85,2.05-2,.95-.85-2.1,2-.9m10.6,38,4,.95-1,4.05-4-1,1-4m18.4,15.3,1-2,2,1-1.15,2-1.9-1"/><path class="cls-3" d="M98.1,59.5l3.2.45-.45,3.1-3.15-.4.4-3.15m-6.7,19-1.25,2.9-2.9-1.2,1.2-3,3,1.25M109,91.85l1.75,4-4,1.85-1.75-4,4-1.85M55.15,23.25l.7,4.35-4.35.7L50.8,24l4.35-.7M35.1,91.4,41.7,95l-3.6,6.65-6.55-3.5,3.55-6.7M23.65,59.8l-3-6.9,6.8-3,3.05,6.9-6.85,3"/><path class="cls-4" d="M14.5,47l1.5,0a1.82,1.82,0,0,1,1.05,1.1L21.35,59l.15.9-.05.35,1.15,1.3a2,2,0,0,1,.45,1.2A1.84,1.84,0,0,1,22.7,64l-.55.8L23,66a2,2,0,0,1,.35,1.15L23,68.25,18.15,75l-1,.75a2.05,2.05,0,0,1-1.25,0l-1.05-.35-.6-.3L5.9,71.8l-1-.75a1.77,1.77,0,0,1-.35-1.2,2,2,0,0,1,.45-1.15L6.5,67a1.87,1.87,0,0,1,.1-1l.7-1.85L7.2,64a1.84,1.84,0,0,1-.4-1A1.91,1.91,0,0,1,7,62l6.4-13.9a1.81,1.81,0,0,1,1.1-1m5.2,17.8,1.35-1.95L19,60.45l-.15.2H18.8l.2-.2.5-.75L15.2,48.85,8.8,62.75l1.25.5-.3-.1L8.45,66.6l.65.25L6.6,70l8.9,3.5-.05,0,1.05.35,4.8-6.75-1.6-2.3"/><path class="cls-5" d="M19.7,64.8l-3.5,4.85-.45-4.6v0l3.05-4.35h.05l.15-.2,2.05,2.4L19.7,64.8M15.2,48.85l.3,16.55-5.45-2.15-1.25-.5,6.4-13.9m-6.1,18L16,69.55l.55,4.3-1.05-.35.05,0L6.6,70l2.5-3.1"/><path class="cls-6" d="M9.1,66.85l-.65-.25,1.3-3.45.3.1L15.5,65.4l-.3-16.55L19.5,59.7l-.5.75-.2.2L15.75,65v0l.45,4.6,3.5-4.85,1.6,2.3-4.8,6.75L16,69.55,9.1,66.85"/><path class="cls-7" d="M12,79.4V78.2l.2-.85L24.5,52l.3-.45L40.9,32.4l.35-.35L47.8,27.5a2.15,2.15,0,0,1,1.05-.35,1.71,1.71,0,0,1,1,.25l.75.7,6.5,10.55.3,1.05h-2L49,29.15,42.4,33.7,26.3,52.8,14.1,78,12,79.4"/><path class="cls-8" d="M12,79.4,14.1,78l-.1.2V88.5l2.5,1.2,8,3.75,2.3,1,9-18.35v4.6L28.6,95.4l-.05.15-.5.55-.55.3L26,96.3l-12.8-6-.35-.2-.45-.5A1.89,1.89,0,0,1,12,88.5V79.4M55.45,39.7h2v8.2l-2,2.15V39.7M49.2,57.25v3.1L42.65,68.1l-2-.75,8.55-10.1"/><path class="cls-9" d="M49.2,57.25l-8.55,10.1-1.5,1.8L36.6,74.4l-.85,1.75L26.8,94.5V84.2L39.15,58.85,55.45,39.7V50.05L53.7,51.8l-2.05,2.5-.45.5v.05l-2,2.4M16.5,89.7V82l8,3.5v8l-8-3.75"/><path class="cls-10" d="M57.45,47.9v13A2.07,2.07,0,0,1,57,62.2l-1,1.15-.8.85-1.1.65-1.3-.2L50.3,63.4l-.8-.75a2,2,0,0,1-.3-1V57.25l2-2.4V61.6l2.5,1.25,1.75-2V50.05l2-2.15m-16,32.5-.75,1-.5.5-.6.25L38.3,82l-2.55-1.25v-4.6l.85-1.75V79l2.55,1.25,1.5-2V67.35l2,.75V78.2a2,2,0,0,1-.4,1.2l-.75,1"/><path class="cls-11" d="M14.1,78,26.3,52.8,42.4,33.7,49,29.15l6.5,10.55L39.15,58.85,32.6,48.25l-12,25.4L14,78.2l.1-.2"/><path class="cls-12" d="M16.5,89.7,14,88.5V78.2l6.55-4.55L26.8,84.2V94.5l-2.3-1v-8l-8-3.5v7.7"/><path class="cls-13" d="M51.2,54.85V54.8l.45-.5-.45.55"/><path class="cls-14" d="M51.2,54.85l.45-.55,2.05-2.5V62.85L51.2,61.6V54.85M39.15,80.2,36.6,79V74.4l2.55-5.25v11"/><path class="cls-15" d="M56,63.35,41.5,80.4l.75-1a2,2,0,0,0,.4-1.2V68.1l6.55-7.75V61.6a2,2,0,0,0,.3,1l.8.75,2.5,1.25,1.3.2,1.1-.65.8-.85M40.25,81.9,28.55,95.55l.05-.15,7.15-14.65L38.3,82l1.35.15.6-.25"/><path class="cls-16" d="M55.45,50.05v10.8l-1.75,2V51.8l1.75-1.75m-16.3,19.1,1.5-1.8V78.2l-1.5,2v-11"/><path class="cls-17" d="M20.55,73.65,32.6,48.25l6.55,10.6L26.8,84.2,20.55,73.65"/><path class="cls-7" d="M50.4,61.05V60.5a1.89,1.89,0,0,1,.5-1.3L72.35,33.75a1.87,1.87,0,0,1,1.05-.65l11-2.6,1,.05a1.64,1.64,0,0,1,.9.6l11,12.7L96,45.45v-.2L84.9,32.45l-11.05,2.6L52.4,60.5v.1l-2,.45"/><path class="cls-17" d="M84.9,32.45,96,45.25,74.35,70.85l-10.9-12.8L84.9,32.45M80.6,51l2.6,2.95,2.1-2.5-2.6-3L80.6,51m4.25-10.4-3.2,3.85,4,4.55,3.2-3.8-4-4.6"/><path class="cls-18" d="M84.85,40.55l4,4.6L85.65,49l-4-4.55,3.2-3.85M80.6,51l2.1-2.55,2.6,3-2.1,2.5L80.6,51"/><path class="cls-9" d="M96,45.25v12.6L74.35,83.3V70.85L96,45.25M55,74.15V61.35l8.45-1.9,1.8,2.1.3.35L55,74.15"/><path class="cls-8" d="M55,74.15,65.55,61.9l6.2,7.25V81.9l2.6,1.4L96,57.85V45.45l1.4-1.6.1.1a1.89,1.89,0,0,1,.5,1.3v12.6a2,2,0,0,1-.45,1.3L75.9,84.6a2.19,2.19,0,0,1-1.15.7l-1.35-.25-1.3-.7-1.3-.7-.75-.7a2,2,0,0,1-.3-1v-12L65.55,65l-9,10.45-1.15.65h-.85l-.4-.15-2.6-1.25A1.89,1.89,0,0,1,50.7,74a2,2,0,0,1-.3-1V61.05l2-.45V72.9L55,74.15"/><path class="cls-19" d="M52.4,60.5,73.85,35.05l11.05-2.6L63.45,58.05,52.4,60.5"/><path class="cls-15" d="M72.1,84.35,54.55,76.1h.85l1.15-.65,9-10.45,4.2,4.9v12a2,2,0,0,0,.3,1l.75.7,1.3.7"/><path class="cls-12" d="M52.4,60.6v-.1l11.05-2.45,10.9,12.8V83.3l-2.6-1.4V69.15l-6.2-7.25v0l-.3-.3-1.8-2.1L55,61.35v12.8L52.4,72.9V60.6"/><path class="cls-20" d="M65.55,61.9l-.3-.35.3.3v0"/><path class="cls-4" d="M106,62.9l1.75-.7-9.1-19.75L92.55,57.9,93.3,59l-3,3.4,2,2.75L90,68.4,96.8,78l1.5-.55,0,0,12.65-5-3.6-4.35,1-.35-1.85-5-.4.15m-5.5-21.25,9.1,19.75.15,1.05-.4.95-.4.4,1.2,3.2a1.85,1.85,0,0,1,0,1.35l2.3,2.8a2,2,0,0,1,.45,1.15,2.07,2.07,0,0,1-.3,1.2l-.95.75-14.1,5.6-1.3.1a2,2,0,0,1-1-.8l-6.8-9.6A1.77,1.77,0,0,1,88,68.4a2,2,0,0,1,.35-1.15l1.5-2.15-1.1-1.6a1.73,1.73,0,0,1-.4-1.25,1.92,1.92,0,0,1,.5-1.2l2-2.2-.2-.7a1.54,1.54,0,0,1,.1-.95l6.1-15.45a1.82,1.82,0,0,1,1-1.1l1.5,0a2,2,0,0,1,1.15,1M93.3,59l.25.3h0l-.2-.3"/><path class="cls-21" d="M93.3,59l.2.3h0L97.9,65.4v0L97.25,72l-5-6.9-2-2.75,3-3.4"/><path class="cls-5" d="M93.3,59l-.75-1.05,6.1-15.45L98.25,66,106,62.9l.4-.15,1.85,5-1,.35-9.7,3.8L96.8,78,90,68.4l2.3-3.3,5,6.9.65-6.55v0l-4.35-6.15L93.3,59"/><path class="cls-6" d="M96.8,78l.8-6.15,9.7-3.8,3.6,4.35-12.65,5,0,0L96.8,78M106,62.9,98.25,66l.4-23.5,9.1,19.75-1.75.7"/><path class="cls-22" d="M84,73.65,82.4,72.9l-2.7,3V79.2l-2,2.25v3.9L98.2,95h0l2.7-3.1,0-1.85,1,.45h0l2.7-3.1,0-1.85,1.45.7h0l2.7-3.1,0-3.8-1.75-.8v-1l-20.6-9.7L84,71v2.7M87.5,66.1l20.6,9.7.85.75.3.7.6.3.85.75.3,1.1,0,3.8a2,2,0,0,1-.5,1.3l-2.7,3.1-.65.5-.55.15-.35.5-2.7,3.1-.55.45-.5,1-2.7,3.1-.65.5-.85.15h0l-.85-.2-20.5-9.65-.8-.7a1.89,1.89,0,0,1-.35-1.1v-3.9a1.89,1.89,0,0,1,.5-1.3l1.5-1.7V76a1.89,1.89,0,0,1,.5-1.3l2.7-3.05A2.09,2.09,0,0,1,82,71a1.89,1.89,0,0,1,.5-1.3l2.7-3.05a2.11,2.11,0,0,1,1.1-.65l1.25.15"/><path class="cls-1" d="M79.7,76l2.7-3,1.55.75,19,8.95-2.75,3.1h0L79.7,76M84,71l2.7-3,20.6,9.7-2.75,3.1h0L84,71m23.3,7.6,1.75.8-1.8,2.05,0-2.85M77.7,81.45l2-2.25v.65l20.2,9.5L98.25,91.2h0L77.7,81.45m26.4,2.9L103,85.65l0-1.85,1.1.55"/><path class="cls-23" d="M104.1,84.35,103,83.8V82.6L84,73.65V71l20.5,9.75h0v3.8h0l-.35-.15m2.15,1.9h0l-1.45-.7v-1.3l1.5-1.75v3.75M102,90.5h0l-1-.45v-1.4l1-1.15v3M98.25,95h0L77.7,85.35v-3.9L98.2,91.2h0V95M79.7,79.2V76l20.5,9.75h0v3.8h0l-.3-.15-20.2-9.5V79.2"/><path class="cls-24" d="M107.25,77.6v1l0,2.85,1.8-2.05,0,3.8-2.7,3.1V82.5l-1.5,1.75v1.3l0,1.85L102,90.5v-3l-1,1.15v1.4l0,1.85L98.25,95V91.2l1.65-1.85.3.15h0V85.7L103,82.6v1.2l0,1.85,1.15-1.3.35.15h0V80.7l2.75-3.1"/></g></g></svg>