<svg xmlns="http://www.w3.org/2000/svg" xmlns:xlink="http://www.w3.org/1999/xlink" viewBox="0 0 120 140"><defs><style>.cls-1{fill:#27ae60;}.cls-2{fill:url(#linear-gradient);}.cls-3{fill:url(#linear-gradient-2);}.cls-4{fill:url(#linear-gradient-3);}.cls-5{fill:url(#linear-gradient-4);}.cls-6{fill:url(#linear-gradient-5);}.cls-7{fill:url(#linear-gradient-6);}.cls-8{fill:url(#linear-gradient-7);}.cls-9{fill:url(#linear-gradient-8);}.cls-10{fill:url(#linear-gradient-9);}.cls-11{fill:url(#linear-gradient-10);}.cls-12{fill:url(#linear-gradient-11);}.cls-13{fill:url(#linear-gradient-12);}.cls-14{fill:url(#linear-gradient-13);}.cls-15{fill:url(#linear-gradient-14);}.cls-16{fill:url(#linear-gradient-15);}.cls-17{fill:#115f32;}.cls-18{fill:#1b914d;}.cls-19{fill:#168344;}.cls-20{fill:#727979;}.cls-21{fill:#954f35;}.cls-22{fill:#d2704c;}.cls-23{fill:#a6b1b1;}.cls-24{fill:#b9c6c6;}.cls-25{fill:#e27952;}.cls-26{fill:#a3afaf;}.cls-27{fill:#bb6444;}.cls-28{fill:#99a3a3;}.cls-29{fill:#c9d7d7;}.cls-30{fill:#d5e5e5;}.cls-31{fill:#10773c;}</style><linearGradient id="linear-gradient" x1="-2639.2" y1="49.53" x2="-1000.8" y2="49.53" gradientTransform="matrix(0, 0, 0, 0, 12.18, 40.8)" gradientUnits="userSpaceOnUse"><stop offset="0" stop-color="#27ae60"/><stop offset="1" stop-color="#30c26d"/></linearGradient><linearGradient id="linear-gradient-2" x1="-2639.2" y1="37.67" x2="-1000.8" y2="37.67" gradientTransform="matrix(0, 0, 0, 0, 45.68, 28.76)" xlink:href="#linear-gradient"/><linearGradient id="linear-gradient-3" x1="-2639.2" y1="54.17" x2="-1000.8" y2="54.17" gradientTransform="matrix(0, 0, 0, 0, 37.97, 46.9)" xlink:href="#linear-gradient"/><linearGradient id="linear-gradient-4" x1="-2639.2" y1="26.2" x2="-1000.8" y2="26.2" gradientTransform="matrix(0, 0, 0, 0, 56.87, 18.95)" xlink:href="#linear-gradient"/><linearGradient id="linear-gradient-5" x1="-2639.2" y1="48.03" x2="-1000.8" y2="48.03" gradientTransform="matrix(0, 0, 0, 0, 60.83, 39.3)" xlink:href="#linear-gradient"/><linearGradient id="linear-gradient-6" x1="-2639.2" y1="30.38" x2="-1000.8" y2="30.38" gradientTransform="matrix(0, 0, 0, 0, 90.87, 23.1)" xlink:href="#linear-gradient"/><linearGradient id="linear-gradient-7" x1="-2639.2" y1="81.92" x2="-1000.8" y2="81.92" gradientTransform="matrix(0, 0, 0, 0, 83.97, 74.65)" xlink:href="#linear-gradient"/><linearGradient id="linear-gradient-8" x1="-2639.2" y1="98.08" x2="-1000.8" y2="98.08" gradientTransform="matrix(0, 0, 0, 0, 106.37, 90.8)" xlink:href="#linear-gradient"/><linearGradient id="linear-gradient-9" x1="-2639.2" y1="89.17" x2="-1000.8" y2="89.17" gradientTransform="matrix(0, 0, 0, 0, 70.47, 81.9)" xlink:href="#linear-gradient"/><linearGradient id="linear-gradient-10" x1="-2639.2" y1="62.42" x2="-1000.8" y2="62.42" gradientTransform="matrix(0, 0, 0, 0, 25.52, 55.15)" xlink:href="#linear-gradient"/><linearGradient id="linear-gradient-11" x1="-2639.2" y1="102.17" x2="-1000.8" y2="102.17" gradientTransform="matrix(0, 0, 0, 0, 14.43, 93.45)" xlink:href="#linear-gradient"/><linearGradient id="linear-gradient-12" x1="-2639.2" y1="116.92" x2="-1000.8" y2="116.92" gradientTransform="matrix(0, 0, 0, 0, 44.68, 108.2)" xlink:href="#linear-gradient"/><linearGradient id="linear-gradient-13" x1="-2639.2" y1="121.33" x2="-1000.8" y2="121.33" gradientTransform="matrix(0, 0, 0, 0, 72.28, 112.6)" xlink:href="#linear-gradient"/><linearGradient id="linear-gradient-14" x1="-2639.2" y1="106.58" x2="-1000.8" y2="106.58" gradientTransform="matrix(0, 0, 0, 0, 56.68, 97.85)" xlink:href="#linear-gradient"/><linearGradient id="linear-gradient-15" x1="-2639.2" y1="119.17" x2="-1000.8" y2="119.17" gradientTransform="matrix(0, 0, 0, 0, 57.87, 111.9)" xlink:href="#linear-gradient"/></defs><title>Asset 134</title><g id="Layer_2" data-name="Layer 2"><g id="Layer_1-2" data-name="Layer 1"><path class="cls-1" d="M11.6,45.55l-.25,0-.25.15-.1.25-.35,3.5L9,49.75l-.25.1,0,.1-.05.2v.25h.05l1.45,3.15h6l1.6-1,.15-.15,0-.15,0-.3-.3-.25-1.5-.4,1.2-3.15v-.35l-.05,0-.2-.2h-.35l-2.8,1-2-2.85a.3.3,0,0,0-.25-.15m31.15-9.7,0,0v.35L44,39.35l-1.55.45-.25.2-.1.35.1.1.1.15,1.6,1.1h6l1.45-3.15.05,0,0-.25-.1-.15,0-.1L51,37.85l-1.65-.3-.4-3.5-.1-.25-.25-.15h-.25l-.25.15-2,2.85-2.85-1H43l-.2.2M39,50.9l-.3.1-.15.25-1,3.15-1.35-.55h-.35a.3.3,0,0,0-.25.15v0a.42.42,0,0,0-.05.35l1,3.05h4.85l.7-1.8V55.2L41.8,55h-.3l-1.25.4-.85-4.15L39.25,51,39,50.9M57.25,23.05l-.15.25-.8,4.1L55.05,27l-.3.05-.25.2v.45l.7,1.8h4.85l.9-3.1v-.35l-.25-.2h-.35L59,26.4l-1-3.15L57.85,23l-.3-.1-.3.15m.35,25.2-.25.1-.05.1,0,.2v.25h0l1.45,3.15h6l1.6-1,.15-.15,0-.15,0-.3-.3-.25-1.5-.4,1.2-3.15v-.35l-.05,0-.2-.2H65.3l-2.8,1-2-2.85-.25-.15L60,44l-.25.15-.1.25-.35,3.5-1.7.35M60,0l60,35v70L60,140,0,105V35L60,0M91.9,27.1l-.3.1-.15.25-1,3.15-1.35-.55h-.35a.3.3,0,0,0-.25.15v.05a.42.42,0,0,0,0,.35l1,3h4.85l.7-1.8V31.4l-.25-.2h-.3l-1.25.4-.85-4.15-.15-.25-.25-.1M88.05,83v0l-.25-.2h-.3l-1.25.4L85.4,79l-.15-.25-.25-.1-.3.1-.15.25-1,3.15L82.2,81.6h-.35a.3.3,0,0,0-.25.15v0a.42.42,0,0,0,0,.35l1,3h4.85l.7-1.8V83M107,95.15l-1,3.15-1.35-.55h-.35a.3.3,0,0,0-.25.15v0a.42.42,0,0,0,0,.35l1,3h4.85l.7-1.8V99.1l-.25-.2h-.3l-1.25.4-.85-4.15-.15-.25-.25-.1-.3.1a.3.3,0,0,0-.15.25m-35.9-8.9-1,3.15-1.35-.55h-.35a.3.3,0,0,0-.25.15v0a.42.42,0,0,0,0,.35l1,3h4.85l.7-1.8V90.2L74.3,90H74l-1.25.4-.85-4.15L71.75,86l-.25-.1-.3.1-.15.25m-41.7-23h-.3l-1.25.4L27,59.5l-.15-.25-.25-.1-.3.1-.15.25-1,3.15-1.35-.55H23.4a.3.3,0,0,0-.25.15v0a.42.42,0,0,0,0,.35l.95,3.05H28.9l.7-1.8v-.45l-.25-.2m-16,35.05-.1.25-.35,3.5-1.7.35-.25.1,0,.1-.05.2v.25h.05l1.45,3.15h6l1.6-1,.15-.15,0-.15,0-.3-.3-.25-1.5-.4,1.2-3.15v-.35l-.05-.05-.2-.2H18.9l-2.8,1-2-2.85a.3.3,0,0,0-.25-.15l-.25,0-.25.15M43.6,113.05l-.1.25-.35,3.5-1.7.35-.25.1-.05.1,0,.2v.25h0L42.6,121h6l1.6-1,.15-.15,0-.15,0-.3-.3-.25-1.5-.4,1.2-3.15v-.35l0-.05-.2-.2h-.35l-2.8,1-2-2.85L44.1,113l-.25,0-.25.15m33.75,6.85v-.35l0,0-.2-.2h-.35l-2.8,1-2-2.85-.25-.15-.25,0-.25.15-.1.25-.35,3.5-1.7.35-.25.1,0,.1,0,.2v.25h0l1.45,3.15h6l1.6-1,.15-.15,0-.15,0-.3-.3-.25-1.5-.4,1.2-3.15m-15.6-14.75v-.35l0,0-.2-.2h-.35l-2.8,1-2-2.85-.25-.15-.25,0-.25.15-.1.25-.35,3.5-1.7.35-.25.1-.05.1,0,.2v.25h0l1.45,3.15h6l1.6-1,.15-.15,0-.15,0-.3-.3-.25-1.5-.4,1.2-3.15m-6.3,14.25.95,3h4.85l.7-1.8v-.45l-.25-.2h-.3l-1.25.4-.85-4.15-.15-.25-.25-.1-.3.1-.15.25-1,3.15-1.35-.55h-.35a.3.3,0,0,0-.25.15v0a.42.42,0,0,0,0,.35"/><path class="cls-2" d="M11.6,45.55a.3.3,0,0,1,.25.15l2,2.85,2.8-1H17l.2.2.05,0v.35l-1.2,3.15,1.5.4.3.25,0,.3,0,.15-.15.15-1.6,1h-6L8.65,50.4H8.6v-.25l.05-.2,0-.1.25-.1,1.7-.35L11,45.9l.1-.25.25-.15.25,0"/><path class="cls-3" d="M42.75,35.85l.2-.2h.35l2.85,1,2-2.85.25-.15h.25l.25.15.1.25.4,3.5,1.65.3.25.15,0,.1.1.15,0,.25-.05,0L49.85,41.7h-6l-1.6-1.1-.1-.15-.1-.1.1-.35.25-.2L44,39.35l-1.25-3.1V35.9l0,0"/><path class="cls-4" d="M39,50.9l.25.1.15.25.85,4.15L41.5,55h.3l.25.2v.45l-.7,1.8H36.5l-1-3.05a.42.42,0,0,1,.05-.35v0a.3.3,0,0,1,.25-.15h.35l1.35.55,1-3.15L38.7,51l.3-.1"/><path class="cls-5" d="M57.25,23.05l.3-.15.3.1.15.25,1,3.15,1.4-.55h.35l.25.2v.35l-.9,3.1H55.2l-.7-1.8v-.45l.25-.2.3-.05,1.25.4.8-4.1.15-.25"/><path class="cls-6" d="M57.6,48.25l1.7-.35.35-3.5.1-.25L60,44l.25,0,.25.15,2,2.85,2.8-1h.35l.2.2.05,0v.35l-1.2,3.15,1.5.4.3.25,0,.3,0,.15-.15.15-1.6,1h-6L57.3,48.9h0v-.25l0-.2.05-.1.25-.1"/><path class="cls-7" d="M91.9,27.1l.25.1.15.25.85,4.15,1.25-.4h.3l.25.2v.45l-.7,1.8H89.4l-1-3a.42.42,0,0,1,0-.35V30.2a.3.3,0,0,1,.25-.15h.35l1.35.55,1-3.15.15-.25.3-.1"/><path class="cls-8" d="M88.05,83v.4l-.7,1.8H82.5l-1-3a.42.42,0,0,1,0-.35v0a.3.3,0,0,1,.25-.15h.35l1.35.55,1-3.15.15-.25.3-.1.25.1.15.25.85,4.15,1.25-.4h.3l.25.2v0"/><path class="cls-9" d="M107,95.15a.3.3,0,0,1,.15-.25l.3-.1.25.1.15.25.85,4.15,1.25-.4h.3l.25.2v.45l-.7,1.8H104.9l-1-3a.42.42,0,0,1,0-.35v0a.3.3,0,0,1,.25-.15h.35l1.35.55,1-3.15"/><path class="cls-10" d="M71.05,86.25,71.2,86l.3-.1.25.1.15.25.85,4.15L74,90h.3l.25.2v.45l-.7,1.8H69l-1-3a.42.42,0,0,1,0-.35v0a.3.3,0,0,1,.25-.15h.35l1.35.55,1-3.15"/><path class="cls-11" d="M29.35,63.25l.25.2v.45l-.7,1.8H24.05l-.95-3.05a.42.42,0,0,1,0-.35v0a.3.3,0,0,1,.25-.15h.35l1.35.55,1-3.15.15-.25.3-.1.25.1.15.25.85,4.15,1.25-.4h.3"/><path class="cls-12" d="M13.35,98.3l.25-.15.25,0a.3.3,0,0,1,.25.15l2,2.85,2.8-1h.35l.2.2.05.05v.35l-1.2,3.15,1.5.4.3.25,0,.3,0,.15-.15.15-1.6,1h-6l-1.45-3.15h-.05v-.25l.05-.2,0-.1.25-.1,1.7-.35.35-3.5.1-.25"/><path class="cls-13" d="M43.6,113.05l.25-.15.25,0,.25.15,2,2.85,2.8-1h.35l.2.2,0,.05v.35l-1.2,3.15,1.5.4.3.25,0,.3,0,.15-.15.15-1.6,1h-6l-1.45-3.15h0v-.25l0-.2.05-.1.25-.1,1.7-.35.35-3.5.1-.25"/><path class="cls-14" d="M77.35,119.9l-1.2,3.15,1.5.4.3.25,0,.3,0,.15-.15.15-1.6,1h-6l-1.45-3.15h0V122l0-.2,0-.1.25-.1,1.7-.35.35-3.5.1-.25.25-.15.25,0,.25.15,2,2.85,2.8-1h.35l.2.2,0,0v.35"/><path class="cls-15" d="M61.75,105.15l-1.2,3.15,1.5.4.3.25,0,.3,0,.15-.15.15-1.6,1h-6l-1.45-3.15h0v-.25l0-.2.05-.1.25-.1,1.7-.35.35-3.5.1-.25.25-.15.25,0,.25.15,2,2.85,2.8-1h.35l.2.2,0,0v.35"/><path class="cls-16" d="M55.45,119.4a.42.42,0,0,1,0-.35v0a.3.3,0,0,1,.25-.15h.35l1.35.55,1-3.15.15-.25.3-.1.25.1.15.25.85,4.15,1.25-.4h.3l.25.2v.45l-.7,1.8H56.4l-.95-3"/><path class="cls-17" d="M113.9,68.5l-.35,1.25-.55.8.8,1.15a2,2,0,0,1,.35,1.15L113.8,74,109,80.75a2,2,0,0,1-1,.75,2.05,2.05,0,0,1-1.25,0l-1-.35-.6-.3-8.35-3.3-1-.75a1.77,1.77,0,0,1-.35-1.2,2,2,0,0,1,.45-1.15l1.45-1.75a1.87,1.87,0,0,1,.1-1l.7-1.85-.1-.1-.4-1a1.91,1.91,0,0,1,.2-1l6.4-13.9a1.81,1.81,0,0,1,1.1-1l1.5,0a1.82,1.82,0,0,1,1.05,1.1l4.3,10.85.15.9,0,.35,1.15,1.3a2,2,0,0,1,.45,1.2m-4.25-2.1.2-.2.5-.75-4.3-10.85-6.4,13.9,1.25.5-.3-.1-1.3,3.45.65.25-2.5,3.1,8.9,3.5,0,0,1,.35,4.8-6.75-1.6-2.3,1.35-2-2.05-2.4-.15.2h0"/><path class="cls-18" d="M109.65,66.4l-3.05,4.35v0l.45,4.6,3.5-4.85,1.6,2.3-4.8,6.75-.55-4.3L100,72.6l-.65-.25,1.3-3.45.3.1,5.45,2.15-.3-16.55,4.3,10.85-.5.75-.2.2"/><path class="cls-19" d="M109.65,66.4h0l.15-.2,2.05,2.4-1.35,2-3.5,4.85-.45-4.6v0l3.05-4.35m-3.6-11.8.3,16.55L100.9,69l-1.25-.5,6.4-13.9m-6.1,18,6.85,2.7.55,4.3-1-.35,0,0-8.9-3.5,2.5-3.1"/><path class="cls-20" d="M45.65,15.6l-1.95-.7L48,8.9a1.82,1.82,0,0,1,.9-.7L50,8.1l1,.6,4.55,4.7-1.5,1.3-4.5-4.65-3.9,5.55M29.75,32.15l3,1.3v6.1L28.3,35,24.4,40.5l-1.9-.85,4.2-5.85a1.6,1.6,0,0,1,.9-.7l1.15-.1a2,2,0,0,1,.95.5,1.63,1.63,0,0,1-.05-.9l.1-.45m37.5-1.9v6.2a2,2,0,0,1-.45,1.3L64.05,41V50.5l.3-.15,1.15-.1a1.66,1.66,0,0,1,1,.55l0-.95a1.06,1.06,0,0,1,.15-.55l2.2,1.05.7.35v3l-.25-.15.25.25V56l-1.4-.7-3-3-.85,1.25L62.05,52.4V40.2l3.2-3.75v-6.9l2,.7M80.55,32l4.15-5.8.9-.7,1.15-.1,1,.6L92.4,30.8l-1.5,1.25-.1-.1L86.3,27.3l-3.85,5.5L80.55,32M104,47.6v5.85a2,2,0,0,1-.45,1.3L100.75,58V73.7l4.65,5.35a2,2,0,0,1,.45,1.3v4l-.45,1.3L92.55,100.9l-1.1.65-1.3-.15L82.5,97.75,80.75,100l3.5,4a2,2,0,0,1,.45,1.3v4l-.45,1.3L71.35,125.9a2.11,2.11,0,0,1-1.1.65L69,126.4l-23.45-11-.8-.7a1.89,1.89,0,0,1-.35-1.1v-4.15a2,2,0,0,1,.4-1.2l.1-.1L38,104.9l-3.35,3.8a2.24,2.24,0,0,1-1.1.6l-1.25-.1-23.5-11L8,97.5a1.89,1.89,0,0,1-.35-1.1V92.25a2,2,0,0,1,.4-1.2L12.8,84.8v-16L10.25,66.5l-.5-.65L9.55,65V59.65l2-1.3V65l3.25,2.85v17.6l-5.15,6.8V96.4l23.5,10.95,4.3-4.9,10.45,4.9-1.55,2.1v4.15l23.45,11,12.9-15.35v-4L78.15,100,82,95.25l9,4.35,12.85-15.3v-4l-5.1-5.9V57.25l3.2-3.8v-6.6l2,.75M48.25,80.9l-2.2-1.05,0-.15-.1,0-1.35-.65.65-.85,3,1.3V80.9"/><path class="cls-21" d="M43.7,14.9l1.95.7L37.4,27.1l-5.8,5.8,1.15.55-3-1.3a1.52,1.52,0,0,1,.45-.65L36,25.7l7.7-10.8m10.35-.2,1.5-1.3,7.6,8,5.6,3.75.7.85.15,1.1-.45,1-1.9,2.2-2-.7,2.35-2.8-5.75-3.9-7.8-8.15m-44.5,45-1-.9a1.9,1.9,0,0,1-.2-1.2A1.64,1.64,0,0,1,9,56.4l5.8-5.8,7.75-11,1.9.85L16.15,52l-5.8,5.8,1.2.55-2,1.3m57-10.35.4-.55,5.8-5.8,7.8-11,1.9.85,0,.05-8.25,11.5-5.8,5.8.4.2-2.2-1.05M92.4,30.8l7.5,7.8,5.6,3.75.7.85.15,1.1-.45,1-2,2.3-2-.75,2.4-2.85L98.6,40.1l-7.7-8.05,1.5-1.25"/><path class="cls-22" d="M37.4,27.1l8.25-11.5,4.85,2.1,1.85,16.4,9.5-11.25,5.75,3.9-2.35,2.8-11.5,13.7-1.4-9.15-15-7m3.2,20.65,5.75,3.9-2.3,2.75-1,1.35L32.55,68.1l0,.05L31.1,59l9.5-11.25M24.4,40.5l4.85,2.1L31.1,59l-15-7L24.4,40.5m58-7.65L87.25,35l1.85,16.4-14.95-7,8.25-11.5M98.6,40.1l5.75,3.9L102,46.85,90.5,60.5l-1.4-9.15L98.6,40.1M67.85,76.25,77.35,65l5.75,3.9-2.35,2.8L69.25,85.4l-1.4-9.15-14.95-7,3.2-4.4.6-.85,3-4.3,1.4-2L66,59.85l1.85,16.4"/><path class="cls-23" d="M49.55,10.05l4.5,4.65-3.55,3-1-7.65M28.3,35l4.45,4.6,0,.05,0,0-3.5,3L28.3,35M65.05,52.2l3,3,1.4,1.5.1.1-3.55,3-1-7.65M87.25,35l-1-7.65L90.8,32l-3.55,3"/><path class="cls-24" d="M87.25,35l-4.85-2.1,0-.05,3.85-5.5,1,7.65M45.65,15.6l3.9-5.55,1,7.65-4.85-2.1M24.4,40.5,28.3,35l.95,7.65L24.4,40.5m8.35-1v-6.1l21,9.8V49.9l-20.1-9.45-.85-.85,0-.05M36,42.9l16.8,8V68.2l-5.6-2.8v-.75l1.3-1.9V57.1L44.1,55v-.6h-.05l2.3-2.75-5.75-3.9L36,42.9M32.5,68.15l0-.05v6.75L11.55,65V58.35l21,9.8m31.7-14.7.85-1.25,1,7.65-4.85-2.1,3.05-4.3M69.45,56V50.7l21,9.8v6.6l-20.1-9.45-.8-.8-.1-.1V56m29.3,18.5,5.1,5.9L91,95.45V99.6l-9-4.35v-4l9,4.15-1.5-10L83.8,82.8v-1l1.35-2.1v-5.5l-4.4-2v-.5l2.35-2.8L77.35,65,72.7,60.15,89.5,68V85.45l9.25-11M78.15,100l4.55,5.3L69.8,120.45l-1.5-10,9.25-11,.6.55M69.8,124.6l-23.45-11v-4.15l23.45,11v4.15M47.9,107.35l-10.45-4.9V98.3l-4.3,4.9L31.6,93.4l2.5-3.3v-.7l17.35,8.15V96.4L33.3,87.9V82.2l18.15,8.55v-5.7L68.3,93v17.4l-16.85-8-3.55,4.9m-14.75,0L9.65,96.4V92.25l23.5,11v4.15M14.8,85.45V67.85l16.8,8V93.4l-16.8-8m45-25.75-3,4.3-2.2-1v-5.7l5.25,2.45M56.1,64.85l-3.2,4.4-.15.15V68.2l2.5-2.8v-1l.85.4m13.15,27.2-21-9.85V79.55l-3-1.3V74.1l2,.85-.1.1L69.25,85.4v6.65"/><path class="cls-25" d="M32.75,33.45,31.6,32.9l5.8-5.8,15,7,1.4,9.15-21-9.8M31.1,59l1.4,9.15-20.95-9.8-1.2-.55,5.8-5.8,15,7m38.35-8.3-.7-.35-.4-.2,5.8-5.8,14.95,7,1.4,9.15h0l-21-9.8m-1.6,25.55,1.4,9.15L47.1,75.05l.1-.1,5.55-5.55.15-.15,14.95,7"/><path class="cls-26" d="M33.65,40.45l20.1,9.45-1,1L36,42.9l-2.3-2.45M14.8,67.85,11.55,65l21,9.85-.95,1-16.8-8m75.65-.75-1,.9L72.7,60.15l-2.35-2.5,20.1,9.45M56.7,64l-.6.85-.85-.4L54.5,63l2.2,1m-5.25,21-3.2-2.85,21,9.85-1,1-16.85-8M33.3,87.9l18.15,8.5v1.15L34.1,89.4l-.8-1.5"/><path class="cls-27" d="M29.25,42.6l3.5-3,0,0,.85.85L36,42.9l4.65,4.85L31.1,59,29.25,42.6m32.6-19.75L52.35,34.1,50.5,17.7l3.55-3,7.8,8.15M87.25,35l3.55-3,.1.1,7.7,8.05L89.1,51.35,87.25,35m-16.9,22.7,2.35,2.5L77.35,65l-9.5,11.25L66,59.85l3.55-3,.8.8"/><path class="cls-28" d="M53.75,49.9V43.25l11.5-13.7v6.9l-3.2,3.75V52.4L59.6,51.2l-5.1,6V63l.75,1.5v1l-2.5,2.8V50.85l1-1M44.1,54.4v7l-3.2,3.75V66l7.55-8.85v5.65l-1.3,1.9v.75L45.2,74.1v4.15l-.65.85L38.4,76.2l-5.1,6v5.7l.8,1.5v.7l-2.5,3.3V75.8l.95-1V68.1L43,55.75l1.1-1.35m46.4,6.1L102,46.85v6.6l-3.2,3.8v17.2l-9.25,11V68l1-.9V60.5h0m13.35,19.85v4L91,99.6V95.45l12.85-15.1M82,95.25,78.15,100l-.6-.55-9.25,11V93l1-1V85.4l11.5-13.7v6.75l-3.2,3.8v1l7.6-9v5.5l-1.35,2.1v1L82,91.3v4m.75,10v4L69.8,124.6v-4.15L82.7,105.3m-45.25-2.85-4.3,4.9V103.2l4.3-4.9v4.15"/><path class="cls-29" d="M47.15,65.4l5.6,2.8v1.2L47.2,75l-2-.85,1.95-8.7m-.8,44.05,1.55-2.1,3.55-4.9,16.85,8,1.5,10-23.45-11M9.65,92.25l5.15-6.8,16.8,8,1.55,9.8-23.5-11M83.8,82.8l5.7,2.65,1.5,10L82,91.3l1.85-8.5"/><path class="cls-30" d="M44.05,54.4h.05L43,55.75l1-1.35m.05.6,4.35,2.1L40.9,66v-.8l3.2-3.75V55m17.95-2.6,2.15,1.05-3.05,4.3-1.4,2L54.5,57.25l5.1-6,2.45,1.2m6,2.85,1.4.7v.8l-1.4-1.5m12.7,17,4.4,2-7.6,9v-1l3.2-3.8V72.2m-32.5,10,3.2,2.85v5.7L33.3,82.2l5.1-6,6.15,2.9,1.35.65.15.1,2.2,1.05v1.3"/><path class="cls-17" d="M18.65,98.65l2-2.2-.2-.7a1.54,1.54,0,0,1,.1-1l6.1-15.45a1.82,1.82,0,0,1,1-1.1l1.5,0a2,2,0,0,1,1.15,1L39.4,99l.15,1-.4,1-.4.4,1.2,3.2A1.85,1.85,0,0,1,40,106l2.3,2.8a2,2,0,0,1,.45,1.15,2.07,2.07,0,0,1-.3,1.2l-.95.75-14.1,5.6-1.3.1-1.05-.8-6.8-9.6a1.77,1.77,0,0,1-.4-1.15,2,2,0,0,1,.35-1.15l1.5-2.15-1.1-1.6a1.73,1.73,0,0,1-.4-1.25,1.92,1.92,0,0,1,.5-1.2m4.45-2.1.25.3H23.3l-.2-.3-3,3.4,2,2.75L19.8,106l6.8,9.6,1.5-.55-.05,0,12.65-5-3.6-4.35.95-.35-1.85-5-.4.15,1.75-.7-9.1-19.75L22.35,95.5l.75,1"/><path class="cls-19" d="M23.1,96.55l-.75-1,6.1-15.45-.4,23.5,7.75-3,.4-.15,1.85,5-.95.35-9.7,3.8-.8,6.15L19.8,106l2.3-3.3,4.95,6.9.65-6.55v0l-4.35-6.15-.25-.3"/><path class="cls-31" d="M23.1,96.55l.2.3h.05L27.7,103v0l-.65,6.55-4.95-6.9-2-2.75,3-3.4"/><path class="cls-18" d="M26.6,115.6l.8-6.15,9.7-3.8L40.7,110l-12.65,5,.05,0-1.5.55m9.2-15.1-7.75,3,.4-23.5,9.1,19.75-1.75.7"/></g></g></svg>