<svg xmlns="http://www.w3.org/2000/svg" xmlns:xlink="http://www.w3.org/1999/xlink" viewBox="0 0 120 140"><defs><style>.cls-1{fill:#27ae60;}.cls-2{fill:#aa753e;}.cls-3{fill:#c68a4e;}.cls-4{fill:#bb8044;}.cls-5{fill:url(#linear-gradient);}.cls-6{fill:url(#linear-gradient-2);}.cls-7{fill:url(#linear-gradient-3);}.cls-8{fill:url(#linear-gradient-4);}.cls-9{fill:url(#linear-gradient-5);}.cls-10{fill:url(#linear-gradient-6);}.cls-11{fill:url(#linear-gradient-7);}</style><linearGradient id="linear-gradient" x1="-1209.2" y1="49.52" x2="429.2" y2="49.52" gradientTransform="matrix(0, 0, 0, 0, 17.34, 47.68)" gradientUnits="userSpaceOnUse"><stop offset="0" stop-color="#27ae60"/><stop offset="1" stop-color="#30c26d"/></linearGradient><linearGradient id="linear-gradient-2" x1="-1209.2" y1="102.17" x2="429.2" y2="102.17" gradientTransform="matrix(0, 0, 0, 0, 19.59, 100.33)" xlink:href="#linear-gradient"/><linearGradient id="linear-gradient-3" x1="-1209.2" y1="116.92" x2="429.2" y2="116.92" gradientTransform="matrix(0, 0, 0, 0, 49.84, 115.08)" xlink:href="#linear-gradient"/><linearGradient id="linear-gradient-4" x1="-1209.2" y1="120.65" x2="429.2" y2="120.65" gradientTransform="matrix(0, 0, 0, 0, 62.07, 117.6)" xlink:href="#linear-gradient"/><linearGradient id="linear-gradient-5" x1="-1209.2" y1="30.38" x2="429.2" y2="30.38" gradientTransform="matrix(0, 0, 0, 0, 95.07, 28.8)" xlink:href="#linear-gradient"/><linearGradient id="linear-gradient-6" x1="-1209.2" y1="98.08" x2="429.2" y2="98.08" gradientTransform="matrix(0, 0, 0, 0, 110.57, 96.5)" xlink:href="#linear-gradient"/><linearGradient id="linear-gradient-7" x1="-1209.2" y1="121.33" x2="429.2" y2="121.33" gradientTransform="matrix(0, 0, 0, 0, 77.44, 119.48)" xlink:href="#linear-gradient"/></defs><title>Asset 4</title><g id="Layer_2" data-name="Layer 2"><g id="Layer_1-2" data-name="Layer 1"><path class="cls-1" d="M71.7,117.35l-.25,0-.25.15-.1.25-.35,3.5-1.7.35-.25.1,0,.1,0,.2v.25h0l1.45,3.15h6l1.6-1,.15-.15,0-.15,0-.3-.3-.25-1.5-.4,1.2-3.15v-.35l0,0-.2-.2h-.35l-2.8,1-2-2.85-.25-.15M58.8,19.8l-1.25.55L51.9,23.7l-1.4.2.1.55-6.85,4L42.4,31h-3l-5,2.9-2,4.75H26.2l-8,4.65A4.54,4.54,0,0,0,16.05,47v.75l-2.2.8-2-2.85a.3.3,0,0,0-.25-.15l-.25,0-.25.15-.1.25-.35,3.5L9,49.75l-.25.1,0,.1-.05.2v.25h.05l1.45,3.15h6V77.1l2.45,4.6-2.45,3v8.15a4.11,4.11,0,0,0,.6,2.15,4.18,4.18,0,0,0,1.55,1.6l10,5.85,2.55,1.45,18.8,11,7.15,4.2-.55-.25h-.35a.3.3,0,0,0-.25.15v0a.42.42,0,0,0,0,.35l.95,3h4.85l.7-1.8v-.45l-.25-.2h-.3l-1.25.4,0-.25,1.8-.55,11.9-6.95,3.1-4.75,4.1.55,15-8.7,1.1-.65,4.2-2.5A4.75,4.75,0,0,0,102.8,95a4.36,4.36,0,0,0,.55-2.15V70.65l-2.1-3.1,2.1-3.3V47a4.07,4.07,0,0,0-.55-2.1,4.26,4.26,0,0,0-1.55-1.6L85.6,34.15H82.3L80.65,31.3l-15-8.7-3.8-2.25a4.14,4.14,0,0,0-2.2-.65l-.9.1M13.35,98.3l-.1.25-.35,3.5-1.7.35-.25.1,0,.1-.05.2v.25h.05l1.45,3.15h6l1.6-1,.15-.15,0-.15,0-.3-.3-.25-1.5-.4,1.2-3.15v-.35l-.05-.05-.2-.2H18.9l-2.8,1-2-2.85a.3.3,0,0,0-.25-.15l-.25,0-.25.15M0,35,60,0l60,35v70L60,140,0,105V35m49.5,79.9h-.35l-2.8,1-2-2.85L44.1,113l-.25,0-.25.15-.1.25-.35,3.5-1.7.35-.25.1-.05.1,0,.2v.25h0L42.6,121h6l1.6-1,.15-.15,0-.15,0-.3-.3-.25-1.5-.4,1.2-3.15v-.35l0-.05-.2-.2m39-84.65a.42.42,0,0,0,0,.35l1,3h4.85l.7-1.8V31.4l-.25-.2h-.3l-1.25.4-.85-4.15-.15-.25-.25-.1-.3.1-.15.25-1,3.15-1.35-.55h-.35a.3.3,0,0,0-.25.15v.05m15.75,67.5a.3.3,0,0,0-.25.15v0a.42.42,0,0,0,0,.35l1,3h4.85l.7-1.8V99.1l-.25-.2h-.3l-1.25.4-.85-4.15-.15-.25-.25-.1-.3.1-.15.25-1,3.15-1.35-.55h-.35"/><path class="cls-2" d="M65.7,22.6l-.2,1.8-7.15-.8.45-3.8.9-.1a4.14,4.14,0,0,1,2.2.65l3.8,2.25M28.15,102.45l2.75.75-.2.7-2.55-1.45M96,99.75l-.1-.5,1.2-.15-1.1.65M34.3,45.05l2.55,3.25-3.2,2.6-2.6-3.25,3.25-2.6m-11,1.35-2.75-3.75,3.75-2.8,2.85,3.75L23.3,46.4m3.8,49.95-4.05-1,1-4,4.05,1-1,4m17.25,11.3-1.9-1,1-2,2,1-1.15,2M94,85.9v4.55H89.45l0-4.55H94M79,91.4l6.15,2.45L82.7,100l-6.15-2.4L79,91.4"/><path class="cls-3" d="M51.9,23.7l3-.5.7,4.35-4.35.7-.6-3.8-.1-.55,1.4-.2M20.35,52.85l6.8-3,3.05,6.9-6.85,3-3-6.9M34.8,91.35l6.6,3.55-3.6,6.65-6.55-3.5,3.55-6.7M91.1,78.5l-1.25,2.9L87,80.2l1.2-3L91.1,78.5M100.55,63l-3.15-.4.4-3.15,3.2.45-.45,3.1"/><path class="cls-4" d="M100.55,63l.45-3.1-3.2-.45-.4,3.15,3.15.4M58.8,19.8l-.45,3.8,7.15.8.2-1.8,15,8.7,1.65,2.85h3.3l15.65,9.15a4.26,4.26,0,0,1,1.55,1.6,4.07,4.07,0,0,1,.55,2.1V64.25l-2.1,3.3,2.1,3.1v22.2A4.36,4.36,0,0,1,102.8,95a4.75,4.75,0,0,1-1.55,1.6l-4.2,2.5-1.2.15.1.5-15,8.7-4.1-.55-3.1,4.75L61.9,119.6l-1.8.55h-.4a4.36,4.36,0,0,1-2.15-.55l-.9-.5-7.15-4.2-18.8-11,.2-.7-2.75-.75L18.2,96.6A4.18,4.18,0,0,1,16.65,95a4.11,4.11,0,0,1-.6-2.15V84.7l2.45-3-2.45-4.6V47a4.54,4.54,0,0,1,2.15-3.7l8-4.65h6.2l2-4.75,5-2.9h3l1.35-2.55,6.85-4,.6,3.8,4.35-.7-.7-4.35-3,.5,5.65-3.35,1.25-.55M23.3,46.4l3.85-2.8L24.3,39.85l-3.75,2.8L23.3,46.4m11-1.35-3.25,2.6,2.6,3.25,3.2-2.6L34.3,45.05m-13.95,7.8,3,6.9,6.85-3-3.05-6.9-6.8,3M34.8,91.35l-3.55,6.7,6.55,3.5,3.6-6.65-6.6-3.55m-7.7,5,1-4-4.05-1-1,4,4.05,1m17.25,11.3,1.15-2-2-1-1,2,1.9,1M91.1,78.5l-2.95-1.25-1.2,3,2.9,1.2,1.25-2.9M79,91.4l-2.45,6.15L82.7,100l2.45-6.1L79,91.4m15-5.5H89.4l0,4.55H94V85.9"/><path class="cls-5" d="M16.05,47.75v5.8h-6L8.65,50.4H8.6v-.25l.05-.2,0-.1.25-.1,1.7-.35L11,45.9l.1-.25.25-.15.25,0a.3.3,0,0,1,.25.15l2,2.85,2.2-.8"/><path class="cls-6" d="M13.35,98.3l.25-.15.25,0a.3.3,0,0,1,.25.15l2,2.85,2.8-1h.35l.2.2.05.05v.35l-1.2,3.15,1.5.4.3.25,0,.3,0,.15-.15.15-1.6,1h-6l-1.45-3.15h-.05v-.25l.05-.2,0-.1.25-.1,1.7-.35.35-3.5.1-.25"/><path class="cls-7" d="M49.5,114.9l.2.2,0,.05v.35l-1.2,3.15,1.5.4.3.25,0,.3,0,.15-.15.15-1.6,1h-6l-1.45-3.15h0v-.25l0-.2.05-.1.25-.1,1.7-.35.35-3.5.1-.25.25-.15.25,0,.25.15,2,2.85,2.8-1h.35"/><path class="cls-8" d="M56.65,119.1l.9.5a4.36,4.36,0,0,0,2.15.55h.4l0,.25,1.25-.4h.3l.25.2v.45l-.7,1.8H56.4l-.95-3a.42.42,0,0,1,0-.35v0a.3.3,0,0,1,.25-.15h.35l.55.25"/><path class="cls-9" d="M88.5,30.25V30.2a.3.3,0,0,1,.25-.15h.35l1.35.55,1-3.15.15-.25.3-.1.25.1.15.25.85,4.15,1.25-.4h.3l.25.2v.45l-.7,1.8H89.4l-1-3a.42.42,0,0,1,0-.35"/><path class="cls-10" d="M104.25,97.75h.35l1.35.55,1-3.15.15-.25.3-.1.25.1.15.25.85,4.15,1.25-.4h.3l.25.2v.45l-.7,1.8H104.9l-1-3a.42.42,0,0,1,0-.35v0a.3.3,0,0,1,.25-.15"/><path class="cls-11" d="M71.7,117.35l.25.15,2,2.85,2.8-1h.35l.2.2,0,0v.35l-1.2,3.15,1.5.4.3.25,0,.3,0,.15-.15.15-1.6,1h-6l-1.45-3.15h0V122l0-.2,0-.1.25-.1,1.7-.35.35-3.5.1-.25.25-.15.25,0"/></g></g></svg>