<svg xmlns="http://www.w3.org/2000/svg" viewBox="0 0 120 140"><defs><style>.cls-1{fill:#a4afaf;}.cls-2{fill:#9ba6a6;}.cls-3{fill:#a9b6b6;}.cls-4{fill:#727979;}.cls-5{fill:#d6d6d6;}.cls-6{fill:#b9c6c6;}.cls-7{fill:#d4e2e2;}.cls-8{fill:#464646;}.cls-9{fill:#747474;}.cls-10{fill:#8a3f23;}.cls-11{fill:#ec7c51;}.cls-12{fill:#d26f49;}.cls-13{fill:#98a3a3;}.cls-14{fill:#aeaeae;}.cls-15{fill:#e4f3f3;}.cls-16{fill:gray;}.cls-17{fill:#bb5f3c;}.cls-18{fill:#115f32;}.cls-19{fill:#1b914d;}.cls-20{fill-opacity:0.1;}.cls-21{fill:#bb8044;}</style></defs><title>Asset 149</title><g id="Layer_2" data-name="Layer 2"><g id="Layer_1-2" data-name="Layer 1"><path class="cls-1" d="M37.4,116l5.9,2.75,3.7-4.35-5.9-2.75L37.4,116M58.9,14.45l5.9,2.75,3.7-4.35L62.6,10.1l-3.7,4.35M36.5,39.25l5.85-6.85-9.3-4.3-5.8,6.8,9.25,4.35M20.4,76.15l9.25,4.35,5.85-6.85-9.3-4.3-5.8,6.8m6.85-11.5L18,60.35l-5.8,6.8L21.4,71.5l5.85-6.85m34.4-1,5.9,2.75,3.7-4.35-5.9-2.75-3.7,4.35M18.5,78.85,12.6,76.1,8.9,80.45l5.9,2.75,3.7-4.35m18.3-12.4,3.7-4.35-5.9-2.75L30.9,63.7l5.9,2.75M84.65,30l5.9,2.75,3.7-4.35-5.9-2.75L84.65,30m18.5,36.65,5.9,2.75,3.7-4.35-5.9-2.75-3.7,4.35M96.8,37.45l3.7-4.35-5.9-2.75L90.9,34.7l5.9,2.75m-23.65-.3L82.4,41.5l5.85-6.85L79,30.35l-5.8,6.8m10,53.2-5.8,6.8,9.25,4.35,5.85-6.85-9.3-4.3m-2.7-21.1L71.2,65l-5.8,6.8,9.25,4.35,5.85-6.85m20-4.25-5.9-2.75L90.9,66.6l5.9,2.75L100.5,65M120,35v70L60,140,0,105V35L60,0l60,35M75.05,107.2,81,110l3.7-4.35-5.9-2.75-3.7,4.35m14.25-3L95.2,107l3.7-4.35c-2-.9-3.93-1.82-5.9-2.75l-3.7,4.35M27.1,110l-3.7,4.35,5.9,2.75L33,112.7,27.1,110m10.3-2.75L43.3,110,47,105.6l-5.9-2.75-3.7,4.35"/><path class="cls-2" d="M36.5,39.25,27.25,34.9l5.8-6.8,9.3,4.3L36.5,39.25m22.4-24.8,3.7-4.35,5.9,2.75L64.8,17.2l-5.9-2.75M18.5,78.85,14.8,83.2,8.9,80.45l3.7-4.35,5.9,2.75M61.65,63.7l3.7-4.35,5.9,2.75-3.7,4.35-5.9-2.75M84.65,30l3.7-4.35,5.9,2.75-3.7,4.35L84.65,30M100.5,65l-3.7,4.35L90.9,66.6l3.7-4.35L100.5,65m-20,4.25L74.65,76.1,65.4,71.75,71.2,65l9.3,4.3m2.7,21.1,9.3,4.3-5.85,6.85L77.4,97.15l5.8-6.8M37.4,107.2l3.7-4.35L47,105.6,43.3,110l-5.9-2.75M27.1,110,33,112.7l-3.7,4.35-5.9-2.75L27.1,110"/><path class="cls-3" d="M27.25,64.65,21.4,71.5l-9.25-4.35,5.8-6.8,9.3,4.3M20.4,76.15l5.8-6.8,9.3,4.3L29.65,80.5,20.4,76.15m16.4-9.7L30.9,63.7l3.7-4.35,5.9,2.75-3.7,4.35m36.35-29.3,5.8-6.8,9.3,4.3L82.4,41.5l-9.25-4.35m23.65.3L90.9,34.7l3.7-4.35,5.9,2.75-3.7,4.35m6.35,29.15,3.7-4.35,5.9,2.75-3.7,4.35-5.9-2.75M89.3,104.2,93,99.85c2,.93,3.93,1.85,5.9,2.75L95.2,107l-5.9-2.75m-14.25,3,3.7-4.35,5.9,2.75L81,110l-5.9-2.75M37.4,116l3.7-4.35,5.9,2.75-3.7,4.35L37.4,116"/><path class="cls-4" d="M15.3,46.25v-2.9a1.89,1.89,0,0,1,.5-1.3L29.65,25.7a1.87,1.87,0,0,1,1.1-.65L32,25.2l15.3,7.05.45,2.45L31.15,27,17.3,43.35V47.2l-2-1m81.75,9.4L108.6,61.1l.85.75.3,1v1.25l-2,2.4V62.9l-10.7-5v-2.2M76.65,96l-5.3,6.4a2.11,2.11,0,0,1-1.1.65L69,102.9,27.1,83.35a2,2,0,0,1-1-2.6l3-6.7V73h2v1.5l-3.2,7L69.8,101.1l6.85-8.2V96"/><path class="cls-5" d="M46,36.9l.1-.15.35-.35-.6.7.15-.2"/><path class="cls-6" d="M46,36.9l-.15.2L36.05,48.8,22.7,42.7,32.8,30.8l2.9,1.35,9.15,4.25,1.1.5M17.3,47.2V43.35L34.1,51.1l-2.5,2.95-14.3-6.8v0M68.1,71.65l-1-.8-30-14-.55-.1,15.55,2.1,16,12.85M56.8,74.5v-3l3.45,1.6V87.9L56.8,86.35V74.5m12.8,6.15v-3l3.6,1.6V94.05L69.6,92.5V80.65m-38.45-8.9v-12l3.65,1.6V76.1l-3.65-1.6V71.75m13-3.15V65.65l3.4,1.6V82l-3.4-1.6V68.6M88.65,56.85l2.7,1.25,9.15,4.25,1.55.7L92.15,75,78.5,68.75l10.15-11.9M76.8,70.7l17.3,8.35v4L76.65,75v-4.1l.15-.15"/><path class="cls-7" d="M76.8,70.7l1.7-2L92.15,75l9.9-11.9-1.55-.7L91.35,58.1l-2.7-1.25L90.5,54.7l4.55,2.2,2,1,10.7,5L94.1,79.05,76.8,70.7M17.3,43.35,31.15,27l16.6,7.7-1.7,2-.1.15-1.1-.5L35.7,32.15,32.8,30.8,22.7,42.7l13.35,6.1L34.1,51.1,17.3,43.35m45,33.85,7.3,3.45V92.5L34.8,76.1l2-2.5V67.7l1.6-1.6,5.7,2.5V80.4L47.5,82l2.3-2.5V71.3l7,3.2V86.35l3.45,1.55,2-2.45V77.2m13,5.9,1.4.75v5.9l-1.4,1.8V83.1"/><path class="cls-8" d="M47.3,32.25l4.4-5.2a1.51,1.51,0,0,1,.8-.55l1-.1,20.9,3a1.84,1.84,0,0,1,.95.4L96.2,46.25,94.9,47.8,74.1,31.3,53.2,28.35l-6.8,8-.35.35,1.7-2-.45-2.45"/><path class="cls-9" d="M45.8,37.1l.6-.7,6.8-8L74.1,31.3l-22,25.9-20.9-3,.45-.2,2.5-2.95,1.95-2.3L45.8,37.1m30.55,6.25L80.7,46.8l-3,3.65-4.55-3.4,3.15-3.7M74.1,54.75,76.5,52l3.3,2.6-2.25,2.8-3.45-2.6"/><path class="cls-10" d="M96.2,46.25l.1.1.55.7.2.85v10l-2-1v-9l-.15-.1,1.3-1.55m13.55,17.9v20.6l-.45,1.3L95.65,102.4l-1.1.65-1.3-.15-16-7.55-.55.65V92.9l17.45,8.2,13.65-16.35V66.55l2-2.4M29.15,73l-12.7-6a2.09,2.09,0,0,1-.8-.7,1.89,1.89,0,0,1-.35-1.1v-19l2,1v18l13.85,6.55V73h-2"/><path class="cls-11" d="M36.5,56.7l.55.1,30,14,1,.8,3.05,2.4V75.4L33.2,57.7l.9-1.4,2.4.4"/><path class="cls-12" d="M36.5,56.7l-2.4-.4-.9,1.4,38,17.7V74.05l-3.05-2.4-16-12.85L36.5,56.7m-4.9-2.65-.45.2,20.9,3L73.2,73.8v5.5l-3.6-1.6v3L62.3,77.2v-3l-.45-.2-.4-.25-1.2-.65-3.45-1.6v3l-7-3.2v-3l-2.3-1.1-3.4-1.6V68.6l-5.7-2.5V62.9l-1.6-.7-2-.9-3.65-1.6v12L17.3,65.2v-18l14.3,6.8M76.65,75,94.1,83.1v18L76.65,92.9V83.85l-1.4-.75V76.7l.35-.45L76.65,75"/><path class="cls-13" d="M60.25,73.15l1.2.65.4.25.45.2v11.2l-2,2.45V73.15M34.8,61.3l2,.9V73.6l-2,2.5V61.3m12.7,6,2.3,1.1V79.5L47.5,82V67.25M69.8,101.1l3.4-7V79.3l2-2.6V91.55l1.4-1.8V92.9l-6.85,8.2m24.3-22L107.75,62.9v3.85L94.1,83.1v-4"/><path class="cls-14" d="M36.8,62.2l1.6.7v3.2l-1.6,1.6V62.2"/><path class="cls-15" d="M34.8,76.1,69.6,92.5l3.6,1.55-3.4,7L28,81.55l3.2-7,3.65,1.6"/><path class="cls-16" d="M52.05,57.2l22-25.9L94.9,47.8l.15.1L73.2,73.8,52.05,57.2m24.3-13.85-3.15,3.7,4.55,3.4,3-3.65-4.35-3.45M74.1,54.75l3.45,2.6,2.25-2.8L76.5,52l-2.4,2.8"/><path class="cls-17" d="M73.2,79.3V73.8L95.05,47.9v9L90.5,54.7l-1.85,2.15L78.5,68.75l-1.7,2-.15.15V75l-1.05,1.3-.35.45-2,2.6m20.9,21.8v-18l13.65-16.35v18L94.1,101.1"/><path class="cls-18" d="M18.6,78.4l1.75-1.1.2-.15a4.53,4.53,0,0,0,1.15-3v-.85a49.92,49.92,0,0,0-1.35-12.5Q19,55.71,17,55.7t-3.3,5.15a48.37,48.37,0,0,0-1.4,12.5v.85a4.3,4.3,0,0,0,1.25,3l.15.15a4.34,4.34,0,0,0,1.75,1.1v1.15A1.54,1.54,0,0,0,17,81.1h.05l1.05-.45a1.44,1.44,0,0,0,.5-1.1V78.4m-6.8-.25a6,6,0,0,1-1.5-3.9v-.9a48.75,48.75,0,0,1,1.5-13q1.84-7.1,5.2-6.65,3.34-.5,5.3,6.65a52.21,52.21,0,0,1,1.4,13v.9a6.53,6.53,0,0,1-1.4,4l-.5.55h-.05l-1.15.9a3.21,3.21,0,0,1-1,2.35l-.15.15a3.51,3.51,0,0,1-2.4.95H17a3.38,3.38,0,0,1-2.5-1,3.48,3.48,0,0,1-1.05-2.45l-1.15-.9h0l-.55-.6"/><path class="cls-19" d="M15.45,78.4a4.34,4.34,0,0,1-1.75-1.1l-.15-.15a4.3,4.3,0,0,1-1.25-3v-.85a48.37,48.37,0,0,1,1.4-12.5q1.35-5.15,3.3-5.15t3.35,5.15a49.92,49.92,0,0,1,1.35,12.5v.85a4.53,4.53,0,0,1-1.15,3l-.2.15L18.6,78.4l-1.6.25-1.55-.25"/><path class="cls-20" d="M22.3,78.2a3.36,3.36,0,0,1,1.5,2.7,3.72,3.72,0,0,1-2,3.1,8.34,8.34,0,0,1-4.75,1.3,8.57,8.57,0,0,1-4.8-1.3,3.72,3.72,0,0,1-1.95-3.1,3.48,3.48,0,0,1,1.5-2.75l.55.6h0l1.15.9A3.48,3.48,0,0,0,14.5,82.1a3.38,3.38,0,0,0,2.5,1h.05a3.51,3.51,0,0,0,2.4-.95L19.6,82a3.21,3.21,0,0,0,1-2.35l1.15-.9h.05l.5-.55"/><path class="cls-21" d="M18.6,78.4v1.15a1.44,1.44,0,0,1-.5,1.1l-1.05.45H17a1.54,1.54,0,0,1-1.55-1.55V78.4l1.55.25,1.6-.25"/><path class="cls-18" d="M72.35,107.55a6,6,0,0,1-1.5-3.9v-.9a48.75,48.75,0,0,1,1.5-13q1.84-7.09,5.2-6.65,3.35-.5,5.3,6.65a52.21,52.21,0,0,1,1.4,13v.9a6.53,6.53,0,0,1-1.4,3.95l-.5.55h0l-1.15.9a3.21,3.21,0,0,1-1,2.35l-.15.15a3.51,3.51,0,0,1-2.4,1h0a3.38,3.38,0,0,1-2.5-1,3.48,3.48,0,0,1-1-2.45l-1.15-.9h.05l-.55-.6m6.8.25a5.1,5.1,0,0,0,1.75-1.1l.2-.15a4.53,4.53,0,0,0,1.15-3v-.85a49.92,49.92,0,0,0-1.35-12.5q-1.4-5.15-3.35-5.15t-3.3,5.15a48.37,48.37,0,0,0-1.4,12.5v.85a4.3,4.3,0,0,0,1.25,3l.15.15L76,107.8V109a1.54,1.54,0,0,0,1.55,1.55h0a1.35,1.35,0,0,0,1.05-.45,1.44,1.44,0,0,0,.5-1.1V107.8"/><path class="cls-19" d="M79.15,107.8l-1.6.25L76,107.8l-1.75-1.1-.15-.15a4.3,4.3,0,0,1-1.25-3v-.85a48.37,48.37,0,0,1,1.4-12.5q1.35-5.15,3.3-5.15t3.35,5.15a49.92,49.92,0,0,1,1.35,12.5v.85a4.53,4.53,0,0,1-1.15,3l-.2.15a5.1,5.1,0,0,1-1.75,1.1"/><path class="cls-20" d="M82.85,107.6a3.36,3.36,0,0,1,1.5,2.7,3.72,3.72,0,0,1-2,3.1,8.34,8.34,0,0,1-4.75,1.3,8.57,8.57,0,0,1-4.8-1.3,3.72,3.72,0,0,1-2-3.1,3.48,3.48,0,0,1,1.5-2.75l.55.6h-.05l1.15.9a3.48,3.48,0,0,0,1,2.45,3.38,3.38,0,0,0,2.5,1h0a3.51,3.51,0,0,0,2.4-1l.15-.15a3.21,3.21,0,0,0,1-2.35l1.15-.9h0l.5-.55"/><path class="cls-21" d="M79.15,107.8V109a1.44,1.44,0,0,1-.5,1.1,1.35,1.35,0,0,1-1.05.45h0A1.54,1.54,0,0,1,76,109V107.8l1.55.25,1.6-.25"/></g></g></svg>