<svg xmlns="http://www.w3.org/2000/svg" viewBox="0 0 120 140"><defs><style>.cls-1{fill:#a4afaf;}.cls-2{fill:#9ba6a6;}.cls-3{fill:#a9b6b6;}.cls-4{fill:#115f32;}.cls-5{fill:#1b914d;}.cls-6{fill-opacity:0.1;}.cls-7{fill:#bb8044;}.cls-8{fill:#877e75;}.cls-9{fill:#20618c;}.cls-10{fill:#d4e2e2;}.cls-11{fill:#3aacf7;}.cls-12{fill:#2776aa;}.cls-13{fill:#98a3a3;}.cls-14{fill:#cad7d7;}.cls-15{fill:#d9cbbf;}.cls-16{fill:#aeaeae;}.cls-17{fill:#b9c6c6;}.cls-18{fill:#b8aca1;}.cls-19{fill:#d9d9d9;}.cls-20{fill:#f5e6d7;}.cls-21{fill:#2e89c6;}.cls-22{fill:#d26f49;}.cls-23{fill:#bb6342;}.cls-24{fill:#aa5a3c;}.cls-25{fill:#03f;}.cls-26{fill:#727979;}.cls-27{fill:#d5e5e5;}.cls-28{fill:#0e4f29;}.cls-29{fill:#178044;}.cls-30{fill:#bdcbcb;}.cls-31{fill:#136d3a;}</style></defs><title>Asset 136</title><g id="Layer_2" data-name="Layer 2"><g id="Layer_1-2" data-name="Layer 1"><path class="cls-1" d="M37.4,116l5.9,2.75,3.7-4.35-5.9-2.75L37.4,116M58.9,14.45l5.9,2.75,3.7-4.35L62.6,10.1l-3.7,4.35M36.5,39.25l5.85-6.85-9.3-4.3-5.8,6.8,9.25,4.35M60,0l60,35v70L60,140,0,105V35L60,0M84.65,30l5.9,2.75,3.7-4.35-5.9-2.75L84.65,30m18.5,36.65,5.9,2.75,3.7-4.35-5.9-2.75-3.7,4.35M100.5,33.1l-5.9-2.75L90.9,34.7l5.9,2.75,3.7-4.35m-27.35,4L82.4,41.5l5.85-6.85L79,30.35l-5.8,6.8m10,53.2-5.8,6.8,9.25,4.35,5.85-6.85-9.3-4.3M74.65,76.1l5.85-6.85L71.2,65l-5.8,6.8,9.25,4.35M96.8,69.35,100.5,65l-5.9-2.75L90.9,66.6l5.9,2.75M75.05,107.2,81,110l3.7-4.35-5.9-2.75-3.7,4.35m14.25-3L95.2,107l3.7-4.35c-2-.9-3.93-1.82-5.9-2.75l-3.7,4.35M61.65,63.7l5.9,2.75,3.7-4.35-5.9-2.75-3.7,4.35M26.2,69.35l-5.8,6.8,9.25,4.35,5.85-6.85-9.3-4.3m-14-2.2L21.4,71.5l5.85-6.85L18,60.35l-5.8,6.8M30.9,63.7l5.9,2.75,3.7-4.35-5.9-2.75L30.9,63.7m-7.5,50.6,5.9,2.75L33,112.7,27.1,110l-3.7,4.35M14.8,83.2l3.7-4.35L12.6,76.1,8.9,80.45l5.9,2.75m22.6,24L43.3,110,47,105.6l-5.9-2.75-3.7,4.35"/><path class="cls-2" d="M36.5,39.25,27.25,34.9l5.8-6.8,9.3,4.3L36.5,39.25m22.4-24.8,3.7-4.35,5.9,2.75L64.8,17.2l-5.9-2.75M84.65,30l3.7-4.35,5.9,2.75-3.7,4.35L84.65,30M96.8,69.35,90.9,66.6l3.7-4.35L100.5,65l-3.7,4.35M74.65,76.1,65.4,71.75,71.2,65l9.3,4.3L74.65,76.1M83.2,90.35l9.3,4.3-5.85,6.85L77.4,97.15l5.8-6.8M61.65,63.7l3.7-4.35,5.9,2.75-3.7,4.35-5.9-2.75M14.8,83.2,8.9,80.45l3.7-4.35,5.9,2.75L14.8,83.2m8.6,31.1L27.1,110,33,112.7l-3.7,4.35-5.9-2.75m14-7.1,3.7-4.35L47,105.6,43.3,110l-5.9-2.75"/><path class="cls-3" d="M73.15,37.15l5.8-6.8,9.3,4.3L82.4,41.5l-9.25-4.35m27.35-4-3.7,4.35L90.9,34.7l3.7-4.35,5.9,2.75m2.65,33.5,3.7-4.35,5.9,2.75-3.7,4.35-5.9-2.75M89.3,104.2,93,99.85c2,.93,3.93,1.85,5.9,2.75L95.2,107l-5.9-2.75m-14.25,3,3.7-4.35,5.9,2.75L81,110l-5.9-2.75M30.9,63.7l3.7-4.35,5.9,2.75-3.7,4.35L30.9,63.7M12.15,67.15l5.8-6.8,9.3,4.3L21.4,71.5l-9.25-4.35m14.05,2.2,9.3,4.3L29.65,80.5,20.4,76.15l5.8-6.8M37.4,116l3.7-4.35,5.9,2.75-3.7,4.35L37.4,116"/><path class="cls-4" d="M47.45,41l1.75-1.1.2-.15a4.53,4.53,0,0,0,1.15-3V35.9A49.92,49.92,0,0,0,49.2,23.4q-1.39-5.14-3.35-5.15t-3.3,5.15a48.37,48.37,0,0,0-1.4,12.5v.85a4.3,4.3,0,0,0,1.25,3l.15.15A4.34,4.34,0,0,0,44.3,41V42.1a1.54,1.54,0,0,0,1.55,1.55h0A1.35,1.35,0,0,0,47,43.2a1.44,1.44,0,0,0,.5-1.1V41m-6.8-.25a6,6,0,0,1-1.5-3.9v-.9a48.75,48.75,0,0,1,1.5-13q1.85-7.09,5.2-6.65,3.34-.5,5.3,6.65a52.21,52.21,0,0,1,1.4,13v.9a6.53,6.53,0,0,1-1.4,4l-.5.55h0l-1.15.9a3.21,3.21,0,0,1-1,2.35l-.15.15a3.51,3.51,0,0,1-2.4.95h0a3.38,3.38,0,0,1-2.5-1A3.48,3.48,0,0,1,42.3,42.2l-1.15-.9h.05l-.55-.6"/><path class="cls-5" d="M44.3,41a4.34,4.34,0,0,1-1.75-1.1l-.15-.15a4.3,4.3,0,0,1-1.25-3V35.9a48.37,48.37,0,0,1,1.4-12.5q1.35-5.14,3.3-5.15T49.2,23.4a49.92,49.92,0,0,1,1.35,12.5v.85a4.53,4.53,0,0,1-1.15,3l-.2.15L47.45,41l-1.6.25L44.3,41"/><path class="cls-6" d="M51.15,40.75a3.36,3.36,0,0,1,1.5,2.7,3.72,3.72,0,0,1-2,3.1,8.34,8.34,0,0,1-4.75,1.3,8.57,8.57,0,0,1-4.8-1.3,3.72,3.72,0,0,1-2-3.1,3.48,3.48,0,0,1,1.5-2.75l.55.6h-.05l1.15.9a3.48,3.48,0,0,0,1.05,2.45,3.38,3.38,0,0,0,2.5,1h0a3.51,3.51,0,0,0,2.4-.95l.15-.15a3.21,3.21,0,0,0,1-2.35l1.15-.9h0l.5-.55"/><path class="cls-7" d="M47.45,41V42.1a1.44,1.44,0,0,1-.5,1.1,1.35,1.35,0,0,1-1.05.45h0A1.54,1.54,0,0,1,44.3,42.1V41l1.55.25,1.6-.25"/><path class="cls-8" d="M58.4,27l-.5-2.3.25-.3a1.87,1.87,0,0,1,1.1-.65l1.25.15,37.2,17.3.85.75.3,1.05V60.8a2,2,0,0,1-.45,1.3L81.85,81.7l-.5.45-.6.2-1.25-.1L69.9,78l-.15.15-.15-2.8,4.05,1.9,6.65,3.2L96.85,60.8V43l-37.2-17.3L58.4,27M21.25,81.4l2-1.3v4.35L19,89.3v1.75l49.6,23.2,6.4-7.6v-1.8l-7.1-3.35V98.75l-4.1-2-1.8,2-3.3-1.55V88.05l2,.65v8.5l1.6-1.8a1.75,1.75,0,0,1,1.15-.65l1.25.15,3.9,1.95.2.1a2,2,0,0,1,.8.75l.3,1v1.5l6,2.8.85.75.3,1v1.8a2,2,0,0,1-.45,1.3l-6.4,7.6a2.11,2.11,0,0,1-1.1.65l-1.3-.15L18.1,92.85l-.8-.7a1.89,1.89,0,0,1-.35-1.1V89.3a1.89,1.89,0,0,1,.5-1.3l3.8-4.3V81.4"/><path class="cls-9" d="M21.25,81.4,15.3,78.65l-.8-.75a1.89,1.89,0,0,1-.35-1.1V71.2a1.89,1.89,0,0,1,.5-1.3L53.3,24.1a1.87,1.87,0,0,1,1.1-.65l1.25.15,2.25,1,.5,2.3L62.65,29,54.8,25.4,16.15,71.2v5.6l7.1,3.3-2,1.3M69.6,75.3l.15,2.8-9.1,10.6-2-.65-2.8,3.3-.25.25-.15.2-1.7,1.85L72,72.4l-2.3,2.8-.05.1M30.9,83.7,33.6,85l-.4.3-2.3-1v-.5m8.4,3.8,3.9,2-.35.3L39.3,88.05V87.5M49,92.1l4.3,2.05-2.3-1v.45l-2-1v-.5"/><path class="cls-10" d="M58.4,27l1.25-1.3L96.85,43l-4.6,5.45V43L62.65,29,58.4,27m20.1,19.7-5.4-2.6L68.55,49.4l5.65,2.65,4.3-5.4M87,43.9,52.4,84.3,21.5,69.9,55.8,29.3,87,43.9M41.65,64.35l-6.8-3.25L29.1,67.85l7.1,3.35,5.45-6.85m.6,2.65,5.65,2.65,4.3-5.4-5.4-2.6L42.25,67"/><path class="cls-11" d="M16.15,71.2,54.8,25.4,62.65,29l29.6,14L53.3,88.55,16.15,71.2M87,43.9,55.8,29.3,21.5,69.9,52.4,84.3,87,43.9"/><path class="cls-12" d="M92.25,43V48.4L79.75,63.15l-.8,1-.75.9L72,72.4,53.75,93.65l-.45.5v-5.6l39-45.6"/><path class="cls-13" d="M96.85,43V46.8L80.3,66.4V62.6l-.55.6v-.05L92.25,48.4,96.85,43M29.1,82.9l.4.2,1.4.6v3.55L28.1,90.6V82.45l1,.45m26.5,20.65V91.65l.25-.3,2.8-3.3v12l-3,3.55"/><path class="cls-14" d="M78.5,46.65l-4.3,5.4L68.55,49.4l4.55-5.35,5.4,2.6M42.25,67l4.55-5.35,5.4,2.6-4.3,5.4L42.25,67m-.6-2.65L36.2,71.2l-7.1-3.35,5.75-6.75,6.8,3.25"/><path class="cls-15" d="M80.3,80.4l-6.65-3.2-4-2L72,72.4l6.25-7.35,2.1,1.35v14M68.55,114.25,19,91.05V89.3l49.6,23.15v1.8"/><path class="cls-16" d="M79.75,63.15v.05l-.8,1,.8-1M55.6,91.65V91.6l.25-.25-.25.3"/><path class="cls-17" d="M55.6,91.65v11.9L51,101.3V93.15l2.3,1,.45-.5,1.7-1.85.15-.15M79.75,63.2l.55-.6v3.8l-2.1-1.35.75-.9.8-1M23.25,84.45V80.1l1.55.75.85.4,1.25.6,1.2.6V90.6l-4.85-2.35v-3.8"/><path class="cls-6" d="M69.75,78.1,69.9,78l9.6,4.3,1.25.1.6-.2-12.8,14.7-3.9-1.95-1.25-.15a1.75,1.75,0,0,0-1.15.65l-1.6,1.8V88.7l9.1-10.6"/><path class="cls-18" d="M96.85,46.8v14L80.3,80.4v-14L96.85,46.8M75,104.85v1.8l-6.4,7.6v-1.8l6.4-7.6"/><path class="cls-19" d="M73.65,77.2,69.6,75.3l.05-.1,4,2M55.6,91.65l-.15.15.15-.2v.05"/><path class="cls-20" d="M19,89.3l4.3-4.85v3.8L28.1,90.6l2.8-3.35v-3l2.3,1V92.1l4.35,2.05L39.3,92.1v-4l3.55,1.75v6.9l4.35,1.8L49,96.7V92.6l2,1v7.7l4.6,2.25,3-3.55V97.2L62,98.75v6.85l4.35,1.8,1.55-1.8v-4.1l7.1,3.35-6.4,7.6L19,89.3"/><path class="cls-21" d="M23.25,80.1l-7.1-3.3V71.2L53.3,88.55v5.6L49,92.1l-1.55-.5L43.2,89.5l-3.9-2L33.6,85,30.9,83.7l-1.4-.6-.4-.2-2.2-1.05-1.25-.6-.85-.4-1.55-.75"/><path class="cls-22" d="M33.6,85l5.7,2.55L38,87l-.45.25-4.35-2,.4-.3m9.6,4.55,4.25,2.1-.25.25-4.35-2,.35-.3M62,98.75l1.8-2,4.1,2-1.55,2-4.35-2"/><path class="cls-23" d="M47.45,91.6l1.55.5v4.6l-1.8,1.8V91.85l.25-.25m20.4,7.15v6.85l-1.55,1.8v-6.65l1.55-2m-30.3-11.5L38,87l1.3.5v4.6l-1.75,2.05v-6.9"/><path class="cls-24" d="M37.55,87.25v6.9L33.2,92.1V85.25l4.35,2M47.2,98.5l-4.35-1.8V89.8l4.35,2V98.5M62,98.75l4.35,2v6.65L62,105.6V98.75"/><path class="cls-25" d="M26.9,81.85l2.2,1.05-1-.45-1.2-.6"/><path class="cls-26" d="M84.05,71.5l0,0,6.4-7.65a1.66,1.66,0,0,1,1.25-.7,1.76,1.76,0,0,1,1.45.35l7.6,5.45.15.15L99.6,70.6v-.1L92,65.05l-1.6,2-3.25,3.8-1.5,1.85-1.6-1.15"/><path class="cls-27" d="M85.65,72.65l1.5-1.85,7.65,5.45L93.2,78.1l-7.6-5.4.05,0M90.4,67l1.6-2,7.6,5.45L98,72.4,90.4,67"/><path class="cls-28" d="M101,69.05l.45.55.2.9v4.9l-.45,1.3-6.4,7.65a2.11,2.11,0,0,1-1.1.65l-1.25-.1-7.6-3.45A2.32,2.32,0,0,1,84,80.7a1.89,1.89,0,0,1-.35-1.1V72.7a1.72,1.72,0,0,1,.45-1.2l1.6,1.15-.05,0v6.9l7.6,3.45,6.4-7.65V70.6L101,69.05"/><path class="cls-29" d="M99.6,70.5v4.9l-6.4,7.65v-5l1.6-1.85L98,72.4l1.6-1.9"/><path class="cls-30" d="M87.15,70.8,90.4,67,98,72.4l-3.2,3.85L87.15,70.8"/><path class="cls-31" d="M93.2,78.1v5L85.6,79.6V72.7l7.6,5.4"/></g></g></svg>