<svg xmlns="http://www.w3.org/2000/svg" xmlns:xlink="http://www.w3.org/1999/xlink" viewBox="0 0 120 140"><defs><style>.cls-1{fill:url(#linear-gradient);}.cls-2{fill:#27ae60;}.cls-3{fill:url(#linear-gradient-2);}.cls-4{fill:url(#linear-gradient-3);}.cls-5{fill:url(#linear-gradient-4);}.cls-6{fill:url(#linear-gradient-5);}.cls-7{fill:url(#linear-gradient-6);}.cls-8{fill:url(#linear-gradient-7);}.cls-9{fill:url(#linear-gradient-8);}.cls-10{fill:url(#linear-gradient-9);}.cls-11{fill:url(#linear-gradient-10);}.cls-12{fill:url(#linear-gradient-11);}.cls-13{fill:url(#linear-gradient-12);}.cls-14{fill:url(#linear-gradient-13);}.cls-15{fill:url(#linear-gradient-14);}.cls-16{fill:url(#linear-gradient-15);}.cls-17{fill:#115f32;}.cls-18{fill:#1b914d;}.cls-19{fill:#198a49;}.cls-20{fill-opacity:0.1;}.cls-21{fill:#bb8044;}</style><linearGradient id="linear-gradient" x1="-2379.2" y1="30.38" x2="-740.8" y2="30.38" gradientTransform="matrix(0, 0, 0, 0, 95.07, 24.14)" gradientUnits="userSpaceOnUse"><stop offset="0" stop-color="#27ae60"/><stop offset="1" stop-color="#30c26d"/></linearGradient><linearGradient id="linear-gradient-2" x1="-2379.2" y1="48.02" x2="-740.8" y2="48.02" gradientTransform="matrix(0, 0, 0, 0, 65.99, 40.55)" xlink:href="#linear-gradient"/><linearGradient id="linear-gradient-3" x1="-2379.2" y1="26.2" x2="-740.8" y2="26.2" gradientTransform="matrix(0, 0, 0, 0, 61.07, 19.99)" xlink:href="#linear-gradient"/><linearGradient id="linear-gradient-4" x1="-2379.2" y1="37.68" x2="-740.8" y2="37.68" gradientTransform="matrix(0, 0, 0, 0, 50.84, 30.03)" xlink:href="#linear-gradient"/><linearGradient id="linear-gradient-5" x1="-2379.2" y1="62.42" x2="-740.8" y2="62.42" gradientTransform="matrix(0, 0, 0, 0, 29.72, 56.19)" xlink:href="#linear-gradient"/><linearGradient id="linear-gradient-6" x1="-2379.2" y1="54.18" x2="-740.8" y2="54.18" gradientTransform="matrix(0, 0, 0, 0, 42.17, 47.94)" xlink:href="#linear-gradient"/><linearGradient id="linear-gradient-7" x1="-2379.2" y1="106.58" x2="-740.8" y2="106.58" gradientTransform="matrix(0, 0, 0, 0, 61.84, 99.1)" xlink:href="#linear-gradient"/><linearGradient id="linear-gradient-8" x1="-2379.2" y1="81.92" x2="-740.8" y2="81.92" gradientTransform="matrix(0, 0, 0, 0, 88.17, 75.69)" xlink:href="#linear-gradient"/><linearGradient id="linear-gradient-9" x1="-2379.2" y1="89.17" x2="-740.8" y2="89.17" gradientTransform="matrix(0, 0, 0, 0, 74.67, 82.94)" xlink:href="#linear-gradient"/><linearGradient id="linear-gradient-10" x1="-2379.2" y1="98.08" x2="-740.8" y2="98.08" gradientTransform="matrix(0, 0, 0, 0, 110.57, 91.84)" xlink:href="#linear-gradient"/><linearGradient id="linear-gradient-11" x1="-2379.2" y1="49.52" x2="-740.8" y2="49.52" gradientTransform="matrix(0, 0, 0, 0, 17.34, 42.05)" xlink:href="#linear-gradient"/><linearGradient id="linear-gradient-12" x1="-2379.2" y1="102.17" x2="-740.8" y2="102.17" gradientTransform="matrix(0, 0, 0, 0, 19.59, 94.7)" xlink:href="#linear-gradient"/><linearGradient id="linear-gradient-13" x1="-2379.2" y1="121.33" x2="-740.8" y2="121.33" gradientTransform="matrix(0, 0, 0, 0, 77.44, 113.85)" xlink:href="#linear-gradient"/><linearGradient id="linear-gradient-14" x1="-2379.2" y1="119.17" x2="-740.8" y2="119.17" gradientTransform="matrix(0, 0, 0, 0, 62.07, 112.94)" xlink:href="#linear-gradient"/><linearGradient id="linear-gradient-15" x1="-2379.2" y1="116.92" x2="-740.8" y2="116.92" gradientTransform="matrix(0, 0, 0, 0, 49.84, 109.45)" xlink:href="#linear-gradient"/></defs><title>Asset 13</title><g id="Layer_2" data-name="Layer 2"><g id="Layer_1-2" data-name="Layer 1"><path class="cls-1" d="M92.15,27.2l.15.25.85,4.15,1.25-.4h.3l.25.2v.45l-.7,1.8H89.4l-1-3a.42.42,0,0,1,0-.35V30.2l.25-.15h.35l1.35.55,1-3.15a.3.3,0,0,1,.15-.25l.3-.1.25.1"/><path class="cls-2" d="M92.15,27.2l-.25-.1-.3.1a.3.3,0,0,0-.15.25l-1,3.15-1.35-.55h-.35l-.25.15v.05a.42.42,0,0,0,0,.35l1,3h4.85l.7-1.8V31.4l-.25-.2h-.3l-1.25.4-.85-4.15-.15-.25M65.65,46H65.3l-2.8,1-2-2.85a.3.3,0,0,0-.25-.15L60,44l-.25.15-.1.25-.35,3.5-1.7.35-.25.1-.05.1,0,.2v.25h0l1.45,3.15h6l1.6-1,.15-.15,0-.15,0-.3-.3-.25-1.5-.4,1.2-3.15v-.35l-.05,0-.2-.2m-8.4-22.95-.15.25-.8,4.1L55.05,27l-.3.05-.25.2v.45l.7,1.8h4.85l.9-3.1v-.35l-.25-.2h-.35L59,26.4l-1-3.15L57.85,23l-.3-.1-.3.15m-8.3,11-.1-.25-.25-.15h-.25l-.25.15-2,2.85-2.85-1H43l-.2.2,0,0v.35L44,39.35l-1.55.45-.25.2-.1.35.1.1.1.15,1.6,1.1h6l1.45-3.15.05,0,0-.25-.1-.15,0-.1L51,37.85l-1.65-.3-.4-3.5M26.1,59.5l-1,3.15-1.35-.55H23.4a.3.3,0,0,0-.25.15v0l0,.35.95,3.05H28.9l.7-1.8v-.45l-.25-.2h-.3l-1.25.4L27,59.5l-.15-.25-.25-.1-.3.1-.15.25M39.25,51,39,50.9l-.3.1-.15.25-1,3.15-1.35-.55h-.35a.3.3,0,0,0-.25.15v0l-.05.35,1,3.05h4.85l.7-1.8V55.2L41.8,55h-.3l-1.25.4-.85-4.15L39.25,51m14.2,55.8-.25.1-.05.1,0,.2v.25h0l1.45,3.15h6l1.6-1,.15-.15,0-.15,0-.3-.3-.25-1.5-.4,1.2-3.15v-.35l0,0-.2-.2h-.35l-2.8,1-2-2.85-.25-.15-.25,0-.25.15-.1.25-.35,3.5-1.7.35M85,78.65l-.3.1a.3.3,0,0,0-.15.25l-1,3.15L82.2,81.6h-.35l-.25.15v0a.42.42,0,0,0,0,.35l1,3h4.85l.7-1.8V83l-.25-.2h-.3l-1.25.4L85.4,79l-.15-.25-.25-.1M71.5,85.9l-.3.1-.15.25-1,3.15-1.35-.55h-.35L68.1,89v0l0,.35,1,3h4.85l.7-1.8V90.2L74.3,90H74l-1.25.4-.85-4.15L71.75,86l-.25-.1m32.75,11.85a.3.3,0,0,0-.25.15v0a.42.42,0,0,0,0,.35l1,3h4.85l.7-1.8V99.1l-.25-.2h-.3l-1.25.4-.85-4.15-.15-.25-.25-.1-.3.1-.15.25-1,3.15-1.35-.55h-.35M120,105,60,140,0,105V35L60,0l60,35v70M17.2,47.7l-.2-.2h-.35l-2.8,1-2-2.85a.3.3,0,0,0-.25-.15l-.25,0-.25.15-.1.25-.35,3.5L9,49.75l-.25.1,0,.1-.05.2v.25h.05l1.45,3.15h6l1.6-1,.15-.15,0-.15,0-.3-.3-.25-1.5-.4,1.2-3.15v-.35l-.05,0M13.85,98.2l-.25,0-.25.15-.1.25-.35,3.5-1.7.35-.25.1,0,.1-.05.2v.25h.05l1.45,3.15h6l1.6-1,.15-.15,0-.15,0-.3-.3-.25-1.5-.4,1.2-3.15v-.35l-.05-.05-.2-.2H18.9l-2.8,1-2-2.85a.3.3,0,0,0-.25-.15m63.5,21.35,0,0-.2-.2h-.35l-2.8,1-2-2.85-.25-.15-.25,0-.25.15-.1.25-.35,3.5-1.7.35-.25.1,0,.1,0,.2v.25h0l1.45,3.15h6l1.6-1,.15-.15,0-.15,0-.3-.3-.25-1.5-.4,1.2-3.15v-.35M59.15,116l-.25-.1-.3.1-.15.25-1,3.15-1.35-.55h-.35l-.25.15v0l0,.35.95,3h4.85l.7-1.8v-.45l-.25-.2h-.3l-1.25.4-.85-4.15-.15-.25m-9.4-.85,0-.05-.2-.2h-.35l-2.8,1-2-2.85L44.1,113l-.25,0-.25.15-.1.25-.35,3.5-1.7.35-.25.1-.05.1,0,.2v.25h0L42.6,121h6l1.6-1,.15-.15,0-.15,0-.3-.3-.25-1.5-.4,1.2-3.15v-.35"/><path class="cls-3" d="M65.65,46l.2.2.05,0v.35l-1.2,3.15,1.5.4.3.25,0,.3,0,.15-.15.15-1.6,1h-6L57.3,48.9h0v-.25l0-.2.05-.1.25-.1,1.7-.35.35-3.5.1-.25L60,44l.25,0a.3.3,0,0,1,.25.15l2,2.85,2.8-1h.35"/><path class="cls-4" d="M57.25,23.05l.3-.15.3.1.15.25,1,3.15,1.4-.55h.35l.25.2v.35l-.9,3.1H55.2l-.7-1.8v-.45l.25-.2.3-.05,1.25.4.8-4.1.15-.25"/><path class="cls-5" d="M49,34.05l.4,3.5,1.65.3.25.15,0,.1.1.15,0,.25-.05,0L49.85,41.7h-6l-1.6-1.1-.1-.15-.1-.1.1-.35.25-.2L44,39.35l-1.25-3.1V35.9l0,0,.2-.2h.35l2.85,1,2-2.85.25-.15h.25l.25.15.1.25"/><path class="cls-6" d="M26.1,59.5l.15-.25.3-.1.25.1.15.25.85,4.15,1.25-.4h.3l.25.2v.45l-.7,1.8H24.05l-.95-3.05,0-.35v0a.3.3,0,0,1,.25-.15h.35l1.35.55,1-3.15"/><path class="cls-7" d="M39.25,51l.15.25.85,4.15L41.5,55h.3l.25.2v.45l-.7,1.8H36.5l-1-3.05.05-.35v0a.3.3,0,0,1,.25-.15h.35l1.35.55,1-3.15L38.7,51l.3-.1.25.1"/><path class="cls-8" d="M53.45,106.8l1.7-.35.35-3.5.1-.25.25-.15.25,0,.25.15,2,2.85,2.8-1h.35l.2.2,0,0v.35l-1.2,3.15,1.5.4.3.25,0,.3,0,.15-.15.15-1.6,1h-6l-1.45-3.15h0v-.25l0-.2.05-.1.25-.1"/><path class="cls-9" d="M85,78.65l.25.1.15.25.85,4.15,1.25-.4h.3l.25.2v.45l-.7,1.8H82.5l-1-3a.42.42,0,0,1,0-.35v0l.25-.15h.35l1.35.55,1-3.15a.3.3,0,0,1,.15-.25l.3-.1"/><path class="cls-10" d="M71.5,85.9l.25.1.15.25.85,4.15L74,90h.3l.25.2v.45l-.7,1.8H69l-1-3,0-.35v0l.25-.15h.35l1.35.55,1-3.15L71.2,86l.3-.1"/><path class="cls-11" d="M104.25,97.75h.35l1.35.55,1-3.15.15-.25.3-.1.25.1.15.25.85,4.15,1.25-.4h.3l.25.2v.45l-.7,1.8H104.9l-1-3a.42.42,0,0,1,0-.35v0a.3.3,0,0,1,.25-.15"/><path class="cls-12" d="M17.2,47.7l.05,0v.35l-1.2,3.15,1.5.4.3.25,0,.3,0,.15-.15.15-1.6,1h-6L8.65,50.4H8.6v-.25l.05-.2,0-.1.25-.1,1.7-.35L11,45.9l.1-.25.25-.15.25,0a.3.3,0,0,1,.25.15l2,2.85,2.8-1H17l.2.2"/><path class="cls-13" d="M13.85,98.2a.3.3,0,0,1,.25.15l2,2.85,2.8-1h.35l.2.2.05.05v.35l-1.2,3.15,1.5.4.3.25,0,.3,0,.15-.15.15-1.6,1h-6l-1.45-3.15h-.05v-.25l.05-.2,0-.1.25-.1,1.7-.35.35-3.5.1-.25.25-.15.25,0"/><path class="cls-14" d="M77.35,119.55v.35l-1.2,3.15,1.5.4.3.25,0,.3,0,.15-.15.15-1.6,1h-6l-1.45-3.15h0V122l0-.2,0-.1.25-.1,1.7-.35.35-3.5.1-.25.25-.15.25,0,.25.15,2,2.85,2.8-1h.35l.2.2,0,0"/><path class="cls-15" d="M59.15,116l.15.25.85,4.15,1.25-.4h.3l.25.2v.45l-.7,1.8H56.4l-.95-3,0-.35v0l.25-.15h.35l1.35.55,1-3.15.15-.25.3-.1.25.1"/><path class="cls-16" d="M49.75,115.15v.35l-1.2,3.15,1.5.4.3.25,0,.3,0,.15-.15.15-1.6,1h-6l-1.45-3.15h0v-.25l0-.2.05-.1.25-.1,1.7-.35.35-3.5.1-.25.25-.15.25,0,.25.15,2,2.85,2.8-1h.35l.2.2,0,.05"/><path class="cls-17" d="M62.3,51l-.4-.35a8.75,8.75,0,0,1-2.7-6.1v-1.4a76,76,0,0,1,2-19l.15-.6a24.11,24.11,0,0,1,2.45-6.35q2-3.3,4.55-3c1.73-.17,3.27.87,4.6,3.1a26.43,26.43,0,0,1,2.45,6.3l.15.5a79,79,0,0,1,2,19.1v1.4A8.83,8.83,0,0,1,75,50.65l-.3.3-1.85,1.3v.45a4.07,4.07,0,0,1-1.2,3l-.15.15a4.07,4.07,0,0,1-3,1.2h0a4.27,4.27,0,0,1-4.35-4.35v-.45L62.3,51M63,25.25l-1.1,6-.25,2.25-.25,3.1-.2,4.85v3a6.89,6.89,0,0,0,2.1,4.75l1.3,1,1.45.7V52.7a2.24,2.24,0,0,0,.65,1.65,2.3,2.3,0,0,0,1.7.7h0A2.39,2.39,0,0,0,70.8,52.7V51l1.55-.75,1.15-1a6.89,6.89,0,0,0,2.1-4.75v-3l-.2-4.85-.25-3.1-.25-2.25-1.1-6-.3-1.2L73,22.3q-1.69-5.4-4-6.05l-.65-.1-.65.1q-2.25.64-3.9,6.05l-.55,1.75-.3,1.2"/><path class="cls-18" d="M63,25.25l.3-1.2.55-1.75q1.65-5.4,3.9-6.05l.65-.1.65.1q2.25.64,4,6.05l.5,1.75.3,1.2-.3.1-.2.1-1,.2-1.55.25-2.4.1-2.35-.1-1.45-.2-1-.25-.25-.1-.3-.1m-1.1,6,.1.05a6,6,0,0,0,1.3.85l1.3.5,1.45.35,2.35.2,2.4-.2,1.55-.35,1.15-.5,1.35-.85.05-.05.25,2.25.25,3.1a4.25,4.25,0,0,1-1.9,1.95l-1.15.6-1.55.45-2.4.25-2.35-.25-1.45-.4-1.3-.65a4.25,4.25,0,0,1-1.9-1.95l.25-3.1.25-2.25m13.7,10.9v2.3a6.89,6.89,0,0,1-2.1,4.75l-1.15,1L70.8,51l-2.4.35L66.05,51l-1.45-.7-1.3-1a6.89,6.89,0,0,1-2.1-4.75v-2.3a4.92,4.92,0,0,0,2.1,3.75,6.61,6.61,0,0,0,1.3.85l1.45.55,2.35.3,2.4-.3,1.55-.6,1.15-.8a4.92,4.92,0,0,0,2.1-3.75"/><path class="cls-19" d="M75.6,42.15a4.92,4.92,0,0,1-2.1,3.75l-1.15.8-1.55.6-2.4.3-2.35-.3-1.45-.55a6.61,6.61,0,0,1-1.3-.85,4.92,4.92,0,0,1-2.1-3.75v-.7l.2-4.85a4.25,4.25,0,0,0,1.9,1.95l1.3.65,1.45.4,2.35.25,2.4-.25,1.55-.45,1.15-.6a4.25,4.25,0,0,0,1.9-1.95l.2,4.85v.7M63,25.25l.3.1.25.1,1,.25,1.45.2,2.35.1,2.4-.1,1.55-.25,1-.2.2-.1.3-.1,1.1,6-.05.05-1.35.85-1.15.5L70.8,33l-2.4.2L66.05,33l-1.45-.35-1.3-.5A6,6,0,0,1,62,31.3l-.1-.05,1.1-6"/><path class="cls-20" d="M74.65,51l.7.3q2.81,1.5,2.8,3.6t-2.8,3.55a14.23,14.23,0,0,1-6.8,1.5,14.23,14.23,0,0,1-6.8-1.5q-2.8-1.45-2.8-3.55t2.8-3.6L62.3,51l1.75,1.25v.45a4.27,4.27,0,0,0,4.35,4.35h0a4.07,4.07,0,0,0,3-1.2l.15-.15a4.07,4.07,0,0,0,1.2-3v-.45L74.65,51"/><path class="cls-21" d="M70.8,51V52.7a2.39,2.39,0,0,1-2.35,2.35h0a2.3,2.3,0,0,1-1.7-.7,2.24,2.24,0,0,1-.65-1.65V51l2.35.35L70.8,51"/><path class="cls-17" d="M41.8,47.35l-.5.55h0l-1.15.9a3.21,3.21,0,0,1-1,2.35L39,51.3a3.51,3.51,0,0,1-2.4,1h0a3.38,3.38,0,0,1-2.5-1,3.48,3.48,0,0,1-1-2.45l-1.15-.9h.05l-.55-.6a6,6,0,0,1-1.5-3.9v-.9a48.75,48.75,0,0,1,1.5-13q1.85-7.09,5.2-6.65,3.34-.5,5.3,6.65a52.21,52.21,0,0,1,1.4,13v.9a6.53,6.53,0,0,1-1.4,4m-3.7.2,1.75-1.1.2-.15a4.53,4.53,0,0,0,1.15-2.95V42.5A49.92,49.92,0,0,0,39.85,30q-1.4-5.14-3.35-5.15T33.2,30a48.37,48.37,0,0,0-1.4,12.5v.85a4.3,4.3,0,0,0,1.25,2.95l.15.15A4.34,4.34,0,0,0,35,47.55V48.7a1.54,1.54,0,0,0,1.55,1.55h0a1.35,1.35,0,0,0,1.05-.45,1.44,1.44,0,0,0,.5-1.1V47.55"/><path class="cls-18" d="M38.1,47.55l-1.6.25L35,47.55a4.34,4.34,0,0,1-1.75-1.1l-.15-.15a4.3,4.3,0,0,1-1.25-2.95V42.5A48.37,48.37,0,0,1,33.2,30q1.35-5.14,3.3-5.15T39.85,30A49.92,49.92,0,0,1,41.2,42.5v.85a4.53,4.53,0,0,1-1.15,2.95l-.2.15-1.75,1.1"/><path class="cls-21" d="M38.1,47.55V48.7a1.44,1.44,0,0,1-.5,1.1,1.35,1.35,0,0,1-1.05.45h0A1.54,1.54,0,0,1,35,48.7V47.55l1.55.25,1.6-.25"/><path class="cls-20" d="M41.8,47.35a3.36,3.36,0,0,1,1.5,2.7,3.72,3.72,0,0,1-2,3.1,8.34,8.34,0,0,1-4.75,1.3,8.57,8.57,0,0,1-4.8-1.3,3.72,3.72,0,0,1-1.95-3.1,3.48,3.48,0,0,1,1.5-2.75l.55.6H31.8l1.15.9a3.48,3.48,0,0,0,1,2.45,3.38,3.38,0,0,0,2.5,1h0a3.51,3.51,0,0,0,2.4-1l.15-.15a3.21,3.21,0,0,0,1-2.35l1.15-.9h0l.5-.55"/><path class="cls-17" d="M80.6,64a5.1,5.1,0,0,0,1.75-1.1l.2-.15a4.53,4.53,0,0,0,1.15-3V58.9a49.92,49.92,0,0,0-1.35-12.5Q81,41.26,79,41.25T75.7,46.4a48.37,48.37,0,0,0-1.4,12.5v.85a4.3,4.3,0,0,0,1.25,3l.15.15A4.34,4.34,0,0,0,77.45,64V65.1A1.54,1.54,0,0,0,79,66.65h0a1.35,1.35,0,0,0,1-.45,1.44,1.44,0,0,0,.5-1.1V64m-6.8-.25a6,6,0,0,1-1.5-3.9v-.9a48.75,48.75,0,0,1,1.5-13q1.85-7.09,5.2-6.65,3.34-.49,5.3,6.65a52.21,52.21,0,0,1,1.4,13v.9a6.53,6.53,0,0,1-1.4,4l-.5.55h0l-1.15.9a3.21,3.21,0,0,1-1,2.35l-.15.15a3.51,3.51,0,0,1-2.4,1h0a3.38,3.38,0,0,1-2.5-1,3.48,3.48,0,0,1-1-2.45l-1.15-.9h0l-.55-.6"/><path class="cls-18" d="M77.45,64a4.34,4.34,0,0,1-1.75-1.1l-.15-.15a4.3,4.3,0,0,1-1.25-3V58.9a48.37,48.37,0,0,1,1.4-12.5Q77,41.26,79,41.25t3.35,5.15A49.92,49.92,0,0,1,83.7,58.9v.85a4.53,4.53,0,0,1-1.15,3l-.2.15A5.1,5.1,0,0,1,80.6,64L79,64.2,77.45,64"/><path class="cls-20" d="M84.3,63.75a3.36,3.36,0,0,1,1.5,2.7,3.72,3.72,0,0,1-2,3.1,8.34,8.34,0,0,1-4.75,1.3,8.57,8.57,0,0,1-4.8-1.3,3.72,3.72,0,0,1-2-3.1,3.48,3.48,0,0,1,1.5-2.75l.55.6h0l1.15.9a3.48,3.48,0,0,0,1,2.45,3.38,3.38,0,0,0,2.5,1h0a3.51,3.51,0,0,0,2.4-1l.15-.15a3.21,3.21,0,0,0,1-2.35l1.15-.9h0l.5-.55"/><path class="cls-21" d="M80.6,64V65.1a1.44,1.44,0,0,1-.5,1.1,1.35,1.35,0,0,1-1,.45h0a1.54,1.54,0,0,1-1.55-1.55V64L79,64.2,80.6,64"/><path class="cls-17" d="M88.5,109.15a5.1,5.1,0,0,0,1.75-1.1l.2-.15a4.53,4.53,0,0,0,1.15-3v-.85a49.92,49.92,0,0,0-1.35-12.5q-1.4-5.14-3.35-5.15T83.6,91.6a48.37,48.37,0,0,0-1.4,12.5V105a4.3,4.3,0,0,0,1.25,3l.15.15a4.34,4.34,0,0,0,1.75,1.1v1.15a1.54,1.54,0,0,0,1.55,1.55h0a1.35,1.35,0,0,0,1-.45,1.44,1.44,0,0,0,.5-1.1v-1.15m-6.8-.25a6,6,0,0,1-1.5-3.9v-.9a48.75,48.75,0,0,1,1.5-13q1.85-7.09,5.2-6.65,3.34-.49,5.3,6.65a52.21,52.21,0,0,1,1.4,13v.9a6.53,6.53,0,0,1-1.4,4l-.5.55h0l-1.15.9a3.21,3.21,0,0,1-1,2.35l-.15.15a3.51,3.51,0,0,1-2.4.95h0a3.38,3.38,0,0,1-2.5-1,3.48,3.48,0,0,1-1.05-2.45l-1.15-.9h0l-.55-.6"/><path class="cls-18" d="M85.35,109.15a4.34,4.34,0,0,1-1.75-1.1l-.15-.15a4.3,4.3,0,0,1-1.25-3v-.85a48.37,48.37,0,0,1,1.4-12.5q1.35-5.14,3.3-5.15t3.35,5.15a49.92,49.92,0,0,1,1.35,12.5V105a4.53,4.53,0,0,1-1.15,3l-.2.15a5.1,5.1,0,0,1-1.75,1.1l-1.6.25-1.55-.25"/><path class="cls-20" d="M92.2,109a3.36,3.36,0,0,1,1.5,2.7,3.72,3.72,0,0,1-2,3.1,8.34,8.34,0,0,1-4.75,1.3,8.57,8.57,0,0,1-4.8-1.3,3.72,3.72,0,0,1-2-3.1,3.48,3.48,0,0,1,1.5-2.75l.55.6h0l1.15.9a3.48,3.48,0,0,0,1.05,2.45,3.38,3.38,0,0,0,2.5,1h0a3.51,3.51,0,0,0,2.4-.95l.15-.15a3.21,3.21,0,0,0,1-2.35l1.15-.9h0l.5-.55"/><path class="cls-21" d="M88.5,109.15v1.15a1.44,1.44,0,0,1-.5,1.1,1.35,1.35,0,0,1-1,.45h0a1.54,1.54,0,0,1-1.55-1.55v-1.15l1.55.25,1.6-.25"/><path class="cls-17" d="M13.75,70.4l-1.1,6-.25,2.25-.25,3.1L12,86.6v3a6.89,6.89,0,0,0,2.1,4.75l1.3,1.05,1.45.7v1.75a2.24,2.24,0,0,0,.65,1.65,2.3,2.3,0,0,0,1.7.7h.05a2.39,2.39,0,0,0,2.35-2.35V96.1l1.55-.75,1.15-1a6.89,6.89,0,0,0,2.1-4.75v-3l-.2-4.85-.25-3.1-.25-2.25-1.1-6-.3-1.2-.5-1.75q-1.7-5.4-3.95-6.05l-.65-.1-.65.1q-2.25.65-3.9,6.05l-.55,1.75-.3,1.2m-.7,25.75-.4-.35A8.75,8.75,0,0,1,10,89.7V88.3A76,76,0,0,1,12,69.3l.15-.6a24.11,24.11,0,0,1,2.45-6.35q2-3.3,4.55-3.05c1.73-.17,3.27.87,4.6,3.1a26.43,26.43,0,0,1,2.45,6.3l.15.5a79,79,0,0,1,2,19.1v1.4a8.83,8.83,0,0,1-2.65,6.1l-.3.3-1.85,1.3v.45a4.07,4.07,0,0,1-1.2,3l-.15.15a4.07,4.07,0,0,1-3,1.2h-.05a4.27,4.27,0,0,1-4.35-4.35V97.4l-1.75-1.25"/><path class="cls-18" d="M24.55,70.4l-.3.1-.2.1-.95.2-1.55.25-2.4.1-2.35-.1-1.45-.2-1-.25-.25-.1-.3-.1.3-1.2.55-1.75q1.65-5.4,3.9-6.05l.65-.1.65.1q2.25.65,3.95,6.05l.5,1.75.3,1.2m-11.9,6,.1,0,1.3.85,1.3.5,1.45.35,2.35.2,2.4-.2,1.55-.35,1.15-.5,1.35-.85,0,0,.25,2.25.25,3.1a4.25,4.25,0,0,1-1.9,2l-1.15.6-1.55.45-2.4.25-2.35-.25-1.45-.4a5.85,5.85,0,0,1-1.3-.65,4.25,4.25,0,0,1-1.9-2l.25-3.1.25-2.25m13.7,10.9v2.3a6.89,6.89,0,0,1-2.1,4.75l-1.15,1-1.55.75-2.4.35L16.8,96.1l-1.45-.7-1.3-1.05A6.89,6.89,0,0,1,12,89.6V87.3a4.92,4.92,0,0,0,2.1,3.75,6.61,6.61,0,0,0,1.3.85l1.45.55,2.35.3,2.4-.3,1.55-.6,1.15-.8a4.92,4.92,0,0,0,2.1-3.75"/><path class="cls-19" d="M26.35,87.3a4.92,4.92,0,0,1-2.1,3.75l-1.15.8-1.55.6-2.4.3-2.35-.3-1.45-.55a6.61,6.61,0,0,1-1.3-.85A4.92,4.92,0,0,1,12,87.3v-.7l.2-4.85a4.25,4.25,0,0,0,1.9,2,5.85,5.85,0,0,0,1.3.65l1.45.4,2.35.25,2.4-.25,1.55-.45,1.15-.6a4.25,4.25,0,0,0,1.9-2l.2,4.85v.7M13.75,70.4l.3.1.25.1,1,.25,1.45.2,2.35.1,2.4-.1,1.55-.25.95-.2.2-.1.3-.1,1.1,6,0,0-1.35.85-1.15.5-1.55.35-2.4.2-2.35-.2-1.45-.35-1.3-.5-1.3-.85-.1,0,1.1-6"/><path class="cls-20" d="M25.4,96.1l.7.3q2.8,1.5,2.8,3.6t-2.8,3.55a14.23,14.23,0,0,1-6.8,1.5,14.23,14.23,0,0,1-6.8-1.5Q9.7,102.1,9.7,100t2.8-3.6l.55-.25L14.8,97.4v.45a4.27,4.27,0,0,0,4.35,4.35h.05a4.07,4.07,0,0,0,3-1.2l.15-.15a4.07,4.07,0,0,0,1.2-3V97.4l1.85-1.3"/><path class="cls-21" d="M21.55,96.1v1.75a2.39,2.39,0,0,1-2.35,2.35h-.05a2.3,2.3,0,0,1-1.7-.7,2.24,2.24,0,0,1-.65-1.65V96.1l2.35.35,2.4-.35"/><path class="cls-17" d="M23.7,106.4a6,6,0,0,1-1.5-3.9v-.9a48.75,48.75,0,0,1,1.5-13q1.85-7.09,5.2-6.65,3.34-.49,5.3,6.65a52.21,52.21,0,0,1,1.4,13v.9a6.53,6.53,0,0,1-1.4,4l-.5.55h-.05l-1.15.9a3.21,3.21,0,0,1-1,2.35l-.15.15a3.51,3.51,0,0,1-2.4.95H28.9a3.38,3.38,0,0,1-2.5-1,3.48,3.48,0,0,1-1-2.45L24.2,107h.05l-.55-.6m6.8.25a5.1,5.1,0,0,0,1.75-1.1l.2-.15a4.53,4.53,0,0,0,1.15-3v-.85a49.92,49.92,0,0,0-1.35-12.5Q30.86,84,28.9,84T25.6,89.1a48.37,48.37,0,0,0-1.4,12.5v.85a4.3,4.3,0,0,0,1.25,3l.15.15a4.34,4.34,0,0,0,1.75,1.1v1.15a1.54,1.54,0,0,0,1.55,1.55H29L30,108.9a1.44,1.44,0,0,0,.5-1.1v-1.15"/><path class="cls-18" d="M27.35,106.65a4.34,4.34,0,0,1-1.75-1.1l-.15-.15a4.3,4.3,0,0,1-1.25-3v-.85a48.37,48.37,0,0,1,1.4-12.5Q27,84,28.9,84t3.35,5.15a49.92,49.92,0,0,1,1.35,12.5v.85a4.53,4.53,0,0,1-1.15,3l-.2.15a5.1,5.1,0,0,1-1.75,1.1l-1.6.25-1.55-.25"/><path class="cls-21" d="M27.35,106.65l1.55.25,1.6-.25v1.15a1.44,1.44,0,0,1-.5,1.1l-1.05.45H28.9a1.54,1.54,0,0,1-1.55-1.55v-1.15"/><path class="cls-20" d="M23.7,106.4l.55.6H24.2l1.15.9a3.48,3.48,0,0,0,1,2.45,3.38,3.38,0,0,0,2.5,1H29a3.51,3.51,0,0,0,2.4-.95l.15-.15a3.21,3.21,0,0,0,1-2.35l1.15-.9h.05l.5-.55a3.36,3.36,0,0,1,1.5,2.7,3.72,3.72,0,0,1-2,3.1,8.34,8.34,0,0,1-4.75,1.3,8.57,8.57,0,0,1-4.8-1.3,3.72,3.72,0,0,1-1.95-3.1,3.48,3.48,0,0,1,1.5-2.75"/><path class="cls-17" d="M106.3,53l-.3-1.2-.5-1.75q-1.69-5.4-4-6l-.65-.1-.65.1q-2.25.64-3.9,6L95.8,51.8,95.5,53l-1.1,6-.25,2.25-.25,3.1-.2,4.85v3A6.89,6.89,0,0,0,95.8,77l1.3,1,1.45.7v1.75a2.24,2.24,0,0,0,.65,1.65,2.3,2.3,0,0,0,1.7.7h0a2.39,2.39,0,0,0,2.35-2.35V78.7l1.55-.75L106,77a6.89,6.89,0,0,0,2.1-4.75v-3l-.2-4.85-.25-3.1L107.4,59l-1.1-6M94.8,78.75l-.4-.35a8.75,8.75,0,0,1-2.7-6.1V70.9a76,76,0,0,1,2-19l.15-.6A24.11,24.11,0,0,1,96.35,45q2-3.3,4.55-3.05c1.73-.17,3.27.87,4.6,3.1A26.43,26.43,0,0,1,108,51.3l.15.5a79,79,0,0,1,2,19.1v1.4a8.83,8.83,0,0,1-2.65,6.1l-.3.3L105.3,80v.45a4.07,4.07,0,0,1-1.2,3l-.15.15a4.07,4.07,0,0,1-3,1.2h0a4.27,4.27,0,0,1-4.35-4.35V80L94.8,78.75"/><path class="cls-18" d="M95.5,53l.3-1.2.55-1.75q1.65-5.4,3.9-6l.65-.1.65.1q2.25.64,4,6l.5,1.75.3,1.2-.3.1-.2.1-1,.2-1.55.25-2.4.1-2.35-.1-1.45-.2-1-.25-.25-.1-.3-.1m11.9,6,.25,2.25.25,3.1a4.25,4.25,0,0,1-1.9,2l-1.15.6-1.55.45-2.4.25-2.35-.25L97.1,67l-1.3-.65a4.25,4.25,0,0,1-1.9-2l.25-3.1L94.4,59l.1,0,1.3.85,1.3.5,1.45.35,2.35.2,2.4-.2,1.55-.35,1.15-.5,1.35-.85.05,0m.7,10.9v2.3A6.89,6.89,0,0,1,106,77l-1.15,1-1.55.75-2.4.35-2.35-.35L97.1,78l-1.3-1a6.89,6.89,0,0,1-2.1-4.75V69.9a4.92,4.92,0,0,0,2.1,3.75l1.3.85,1.45.55,2.35.3,2.4-.3,1.55-.6,1.15-.8a4.92,4.92,0,0,0,2.1-3.75"/><path class="cls-19" d="M108.1,69.9a4.92,4.92,0,0,1-2.1,3.75l-1.15.8-1.55.6-2.4.3-2.35-.3L97.1,74.5l-1.3-.85a4.92,4.92,0,0,1-2.1-3.75v-.7l.2-4.85a4.25,4.25,0,0,0,1.9,2l1.3.65,1.45.4,2.35.25,2.4-.25,1.55-.45,1.15-.6a4.25,4.25,0,0,0,1.9-2l.2,4.85v.7M106.3,53l1.1,6-.05,0L106,59.9l-1.15.5-1.55.35-2.4.2-2.35-.2L97.1,60.4l-1.3-.5-1.3-.85-.1,0,1.1-6,.3.1.25.1,1,.25,1.45.2,2.35.1,2.4-.1,1.55-.25,1-.2.2-.1.3-.1"/><path class="cls-20" d="M107.15,78.7a3.51,3.51,0,0,1,.7.3q2.81,1.5,2.8,3.6t-2.8,3.55a16.16,16.16,0,0,1-13.6,0q-2.81-1.45-2.8-3.55t2.8-3.6l.55-.25L96.55,80v.45a4.27,4.27,0,0,0,4.35,4.35h0a4.07,4.07,0,0,0,3-1.2l.15-.15a4.07,4.07,0,0,0,1.2-3V80l1.85-1.3"/><path class="cls-21" d="M103.3,78.7v1.75A2.39,2.39,0,0,1,101,82.8h0a2.3,2.3,0,0,1-1.7-.7,2.24,2.24,0,0,1-.65-1.65V78.7l2.35.35,2.4-.35"/></g></g></svg>