<svg xmlns="http://www.w3.org/2000/svg" viewBox="0 0 120 140"><defs><style>.cls-1{fill:#bb6444;}.cls-2{fill:#b55f40;}.cls-3{fill:#c26948;}.cls-4{fill:#727979;}.cls-5{fill:#856a00;}.cls-6{fill:#cba200;}.cls-7{fill:#a6b1b1;}.cls-8{fill:#099;}.cls-9{fill:#d5e5e5;}.cls-10{fill:#cad9d9;}.cls-11{fill:#fc0;}.cls-12{fill:#ecbc00;}.cls-13{fill:#b9c6c6;}.cls-14{fill:#593269;}.cls-15{fill:#79468e;}.cls-16{fill:#9b59b6;}.cls-17{fill:#c16ee2;}.cls-18{fill:#ecdcb8;}.cls-19{fill:#743e29;}.cls-20{fill:#ad5c3e;}.cls-21{fill:#d06e4b;}</style></defs><title>Asset 111</title><g id="Layer_2" data-name="Layer 2"><g id="Layer_1-2" data-name="Layer 1"><path class="cls-1" d="M84.25,42.85l7.25-2.3L89.2,33.3,82,35.6l2.3,7.25m1.5,9.3L76.25,50l-2.1,9.55,9.45,2.1,2.15-9.5M70,49.6l-4.5,1.55L67,55.6l4.45-1.5L70,49.6M59.7,44l-.6-5.3-5.25.65.6,5.25L59.7,44M62.2,14l4.85-2.15L64.9,7.05,60,9.2,62.2,14m25.3,9.55L87,28.85l5.25.5.55-5.25-5.25-.55m-40,5.05L43.65,25,40,28.8l3.85,3.65L47.5,28.6M23.4,52.15,13.9,50l-2.1,9.55,9.45,2.1,2.15-9.5m7.45-1.85-4.8,2.2,2.15,4.85L33,55.2l-2.15-4.9M30.4,24.1l-5.25-.55-.55,5.3,5.25.5.55-5.25M20.25,76.75l-6.7-6.15-6.2,6.7,6.7,6.2,6.2-6.75m21-3.4.65-5.6h0l.4-3.7L33,63,31.9,72.3l9.3,1m4.7-19.9L43.6,46.2l-7.2,2.3,2.25,7.2,7.25-2.25M38.25,34.3l-4.1,3.35,3.35,4.1,4.15-3.35-3.4-4.1m8.3.5-1.9,5,5.05,2,1.85-5-5-1.9M29.85,91.7l.55-5.25L25.15,86,24.6,91.2l5.25.5m-17.45,7L14.9,89,5.3,86.5,2.8,96.1l9.6,2.55M46.55,97.2l-1.9,5,5.05,1.95,1.85-5-5-1.9M82.6,76.75,75.9,70.6l-6.2,6.7,6.75,6.2,6.15-6.75m-40.95,24-3.4-4.1L34.15,100l3.35,4.1,4.15-3.35M67.05,74.2,64.9,69.4,60,71.55l2.2,4.85,4.85-2.2m.6,12.3L65.2,96.1l9.55,2.55L77.25,89l-9.6-2.5m-10.5-9.75h0L49.8,78.5l1.7,7.4,7.4-1.75-1.75-7.4M89.2,95.65,82,98l2.3,7.25L91.5,103l-2.3-7.3M87.5,86,87,91.2l5.25.5.55-5.25L87.5,86m.9-33.45,2.15,4.85L95.4,55.2l-2.2-4.9-4.8,2.2M5.4,39.7,2.3,44l4.25,3.1,3.1-4.3-4.25-3m79.15,81.9,2.15-9.5L77.2,110l-2.1,9.55,9.45,2.1m-57.3-5.3q2.4-1,4.8-2.15l-2.2-4.9-4.75,2.2,2.15,4.85M64.9,127.65l-.85-5.25-5.2.85.8,5.2,5.25-.8M67,118l4.45-1.55L70,112l-4.5,1.55L67,118m-30.6-7.15,2.25,7.25,7.25-2.3-2.3-7.2-7.2,2.25M0,105V35L60,0l60,35v70L60,140,0,105M113.9,36.7l-5-1.9-1.9,5,5,2,1.85-5M104,100.75l-3.4-4.1L96.5,100l3.35,4.1,4.15-3.35m.2-33h0l.4-3.7-9.3-1-1.1,9.3,9.3,1,.65-5.6m11.45-8.3.6-5.3-5.35-.5-.5,5.3,5.25.5M94.9,80.3l4.35,3.1,3-4.3L98,76l-3.1,4.3m14,16.9-1.9,5,5,1.95,1.85-5-5-1.9"/><path class="cls-2" d="M62.2,14,60,9.2l4.9-2.15,2.15,4.8L62.2,14M59.7,44l-5.25.6-.6-5.25,5.25-.65.6,5.3M70,49.6l1.5,4.5L67,55.6l-1.55-4.45L70,49.6m15.8,2.55-2.15,9.5-9.45-2.1L76.25,50l9.5,2.15m-1.5-9.3L82,35.6l7.25-2.3,2.3,7.25-7.25,2.3M47.5,28.6l-3.65,3.85L40,28.8,43.65,25,47.5,28.6m-1,6.2,5,1.9-1.85,5-5.05-2,1.9-5m-8.3-.5,3.4,4.1L37.5,41.75l-3.35-4.1,4.1-3.35M45.9,53.45,38.65,55.7,36.4,48.5l7.2-2.3,2.3,7.25m-4.7,19.9-9.3-1L33,63l9.35,1-.4,3.7h0l-.65,5.6m-21,3.4-6.2,6.75-6.7-6.2,6.2-6.7,6.7,6.15M12.4,98.65,2.8,96.1l2.5-9.6L14.9,89l-2.5,9.65m29.25,2.1L37.5,104.1,34.15,100l4.1-3.35,3.4,4.1m40.95-24L76.45,83.5,69.7,77.3l6.2-6.7,6.7,6.15m-25.45,0,1.75,7.4L51.5,85.9l-1.7-7.4,7.3-1.75h0m10.5,9.75,9.6,2.5-2.5,9.65L65.2,96.1l2.45-9.6M87.5,86l5.25.5L92.2,91.7,87,91.2,87.5,86M5.4,39.7l4.25,3-3.1,4.3L2.3,44,5.4,39.7M67,118l-1.55-4.5L70,112l1.5,4.5L67,118m-2.1,9.65-5.25.8-.8-5.2,5.2-.85.85,5.25M27.25,116.3l-2.15-4.85,4.75-2.2,2.2,4.9q-2.4,1.09-4.8,2.15m88.4-56.85L110.4,59l.5-5.3,5.35.5-.6,5.3m-11.45,8.3-.65,5.6-9.3-1,1.1-9.3,9.3,1-.4,3.7h0m-.2,33-4.15,3.35L96.5,100l4.1-3.35,3.4,4.1"/><path class="cls-3" d="M87.5,23.55l5.25.55-.55,5.25L87,28.85l.55-5.3m-57.1.55-.55,5.25-5.25-.5.55-5.3,5.25.55m.45,26.2L33,55.2l-4.8,2.15L26.05,52.5l4.8-2.2M23.4,52.15l-2.15,9.5-9.45-2.1L13.9,50l9.5,2.15M29.85,91.7l-5.25-.5L25.15,86l5.25.5-.55,5.25m16.7,5.5,5,1.9-1.85,5-5.05-1.95,1.9-5m20.5-23L62.2,76.4,60,71.55l4.9-2.15,2.15,4.8M89.2,95.65l2.3,7.3-7.25,2.25L82,98l7.25-2.3M88.4,52.5l4.8-2.2,2.2,4.9-4.85,2.15L88.4,52.5m-3.85,69.1-9.45-2.1L77.2,110l9.5,2.15-2.15,9.5M36.4,110.85l7.2-2.25,2.3,7.2-7.25,2.3-2.25-7.25M113.9,36.7l-1.85,5-5-2,1.9-5,5,1.9m-5,60.5,5,1.9-1.85,5-5-1.95,1.9-5m-14-16.9L98,76l4.3,3.1-3,4.3L94.9,80.3"/><path class="cls-4" d="M24.6,35v-3.9a1.89,1.89,0,0,1,.5-1.3L35.9,17a1.8,1.8,0,0,1,1.2-.65l7-1.15,1.15.15,17.15,8,.65.5.45.75,1.6,5.25,0,.55V38.5l-.5.6-1.5,1.7V30.35L61.6,25.1l-17.15-8L37.4,18.25,26.6,31.05V35.3l-2-.35M65.2,58.8V71.15a2,2,0,0,1-.45,1.3L54,85.2l-1.2.7-6.35,1-1-1.85,7-1.15L63.2,71.15V61.1l2-2.3"/><path class="cls-5" d="M65.2,58.8l-2,2.3V40.8l1.5-1.7.5,1.6V58.8M24.6,35l2,.35-1,2.45V80.1l4.1,2,2.6-3,6.35,3v4.3l4.1,1.9,2.6-3.1,1,1.85-2.1,2.55-1.1.65L41.9,90l-4.1-1.9-.8-.75a1.89,1.89,0,0,1-.35-1.1v-3l-3.8-1.75-1.6,1.85a2.11,2.11,0,0,1-1.1.65l-1.3-.15-4.1-1.95a2,2,0,0,1-.85-.7,2.09,2.09,0,0,1-.3-1.1V37.75l.15-.75.85-2"/><path class="cls-6" d="M63.2,40.55V61L52.4,73.7V53.3L63.2,40.55M48.1,31.1l1.25.1,4.15,1.95V34.7l-8.15,9.6V85.05l-2.6,3.1V45.75l1.3-3,8.15-9.65L48.1,31.1M29.7,39.7,31,36.6l8.25-9.7L35.05,25l1.25.1,4.15,1.95V28.6L32.3,38.2V79l-2.6,3V39.7"/><path class="cls-7" d="M26.6,35.3V31.05l.85,2.9-.6.7-.25.65m36.6-4.95v10.2L52.4,53.3V43.1L63.2,30.35m0,30.75V71.15L52.4,83.9V73.7L63.2,61v.15"/><path class="cls-8" d="M64.7,39.1l.5-.6v2.2l-.5-1.6"/><path class="cls-9" d="M26.6,31.05l10.8-12.8,7.05-1.15,17.15,8,1.6,5.25L52.4,43.1l-7,1.2,8.15-9.6V33.15L49.35,31.2l-1.25-.1-8.2,9.7-.3.8-7.3-3.4,8.15-9.6V27.05L36.3,25.1,35.05,25l-7.6,9-.85-2.9"/><path class="cls-10" d="M45.35,85.05V74.9l7-1.2V83.9l-7,1.15m0-30.55V44.3l7-1.2V53.3l-7,1.2"/><path class="cls-11" d="M45.35,54.5l7-1.2V73.7l-7,1.2V54.5M48.1,31.1l4.1,1.95L44.05,42.7l-1.3,3-4.1-1.9,1-2.25.3-.8,8.2-9.7M35.05,25l4.15,1.9L31,36.6,29.7,39.7l-4.1-2,1-2.45.25-.65.6-.7,7.6-9"/><path class="cls-12" d="M42.75,45.75v42.4l-4.1-1.9V71.75l-6.35-3V48.4l6.35,3v-7.5l4.1,1.9m-13-6V82.05l-4.1-2V37.75l4.1,2"/><path class="cls-13" d="M32.3,79V68.8l6.35,3V82L32.3,79m0-30.6V38.2l7.3,3.4-1,2.25v7.5l-6.35-3"/><path class="cls-14" d="M84.25,44.5a1.74,1.74,0,0,1,1.2-.7l13.3-2.6a1.76,1.76,0,0,1,1.35.25,1.88,1.88,0,0,1,.9,1.1l3.6,11,.1.6V75.85a2,2,0,0,1-.45,1.3l-1.25.7-5,.75v2.3a2.05,2.05,0,0,1-.4,1.25l-1.1.7-2.7.7L92.5,83.4a1.91,1.91,0,0,1-1-1L90.4,80l-.05-.15-1.1.2a2,2,0,0,1-2.2-1.4L83.9,68l-.1-.6V45.75a1.92,1.92,0,0,1,.45-1.25m1.55,1.25V67.4L89,78l3.25-.5v1.6l1.15,2.5,2.7-.7v-4l6.65-1.05V54.1l-3.6-11-13.3,2.6"/><path class="cls-15" d="M85.8,45.75,89,56.45V78L85.8,67.4V45.75"/><path class="cls-16" d="M89,78V56.45L102.7,54.1V75.85L96.05,76.9l-3.85.6L89,78"/><path class="cls-17" d="M89,56.45,85.8,45.75l13.3-2.6,3.6,11L89,56.45"/><path class="cls-18" d="M92.2,77.5l3.85-.6v4l-2.7.7L92.2,79.1V77.5"/><path class="cls-4" d="M55,54.15v-4.7a1.88,1.88,0,0,1,.5-1.15L66.35,35.55a1.75,1.75,0,0,1,1.15-.65l7-1.2,1.2.15,17.15,8,.65.5.4.7,1.65,5.2.1.6v7.7l-2,2.4V48.9L92,43.7,74.85,35.65l-7,1.2L57,49.6V60.2l-2-6.05M95.65,77.5V89.65A2,2,0,0,1,95.2,91l-10.85,12.8a2.17,2.17,0,0,1-1.2.7l-7,1.2-1.2-.2-17.2-8-.65-.5-.4-.7L55.1,91l-.1-.6V75.2l2,5.65V90.4l1.6,5.2,17.2,8.05,7-1.2,10.85-12.8V79.8l2-2.3"/><path class="cls-9" d="M57,49.6,67.85,36.85l7-1.2L92,43.7l1.65,5.2L82.8,61.65l-7,1.2L58.6,54.8,57,49.6"/><path class="cls-10" d="M75.8,62.85l7-1.2v10.2l-7,1.2V62.85m0,30.6,7-1.2v10.2l-7,1.2V93.45"/><path class="cls-13" d="M75.8,62.85v10.2L58.6,65V54.8l17.2,8.05M58.6,95.6V85.4l17.2,8v10.2L58.6,95.6"/><path class="cls-11" d="M75.8,73.05l7-1.2v20.4l-7,1.2V73.05"/><path class="cls-7" d="M57,59.8V49.6l1.6,5.2V65L57,59.8M93.65,48.9V59.1L82.8,71.85V61.65L93.65,48.9M57,80.2l1.6,5.2V95.6L57,90.4V80.2m25.8,22.25V92.25L93.65,79.5V89.65L82.8,102.45"/><path class="cls-6" d="M57,60.2v-.4L58.6,65V85.4L57,80.2v-20M82.8,92.25V71.85L93.65,59.1V79.5L82.8,92.25"/><path class="cls-5" d="M95.65,56.6V77.5l-2,2.3V59l2-2.4M55,75.2V54.15l2,6.05V80.85L55,75.2"/><path class="cls-12" d="M58.6,85.4V65l17.2,8v20.4l-17.2-8"/><path class="cls-14" d="M91.25,92.75V82a1.89,1.89,0,0,1,.5-1.3L98,73.6A2.11,2.11,0,0,1,99.1,73l1.25.15,9.85,4.45.85.75.3,1v10.5a2,2,0,0,1-.55,1.4l-5.2,5.5v.6l-.15.8-.45.65-2,1.85a2,2,0,0,1-1,.5l-1.1-.05-2.1-.8-.95-.75a2.15,2.15,0,0,1-.35-1.15V97.05l-5.15-2.5-.85-.75a2,2,0,0,1-.3-1M103.6,96l5.75-6.1V79.35L99.5,74.9l-6.25,7v10.8l6.3,3v2.6l2.1.8,1.95-1.85V96"/><path class="cls-15" d="M103.6,96l-1.15,1.2.25-10.7,6.65-7.1v10.5L103.6,96"/><path class="cls-17" d="M109.35,79.35l-6.65,7.1L93.25,82l6.25-7,9.85,4.45"/><path class="cls-18" d="M102.45,97.15,103.6,96v1.4l-1.95,1.85-2.1-.8V95.8l2.9,1.35"/><path class="cls-16" d="M102.45,97.15l-2.9-1.35-6.3-3V82l9.45,4.5-.25,10.7"/><path class="cls-14" d="M24.3,52.55l3.6,11,.1.6V85.85a2,2,0,0,1-.45,1.3,2.21,2.21,0,0,1-1.25.7l-4.95.75v2.3a2.05,2.05,0,0,1-.4,1.25l-1.1.7-2.7.7L15.8,93.4a1.91,1.91,0,0,1-1-1L13.7,90l0-.15-1.1.2a2,2,0,0,1-2.2-1.4L7.2,78l-.1-.6V55.75a1.92,1.92,0,0,1,.45-1.25,1.74,1.74,0,0,1,1.2-.7l13.3-2.6,1.35.25a1.88,1.88,0,0,1,.9,1.1M26,64.1,22.4,53.15,9.1,55.75V77.4L12.25,88l3.25-.5v1.6l1.15,2.5,2.7-.7v-4L26,85.85V64.1"/><path class="cls-17" d="M26,64.1,12.25,66.45,9.1,55.75l13.3-2.6L26,64.1"/><path class="cls-16" d="M26,64.1V85.85L19.35,86.9l-3.85.6-3.25.5V66.45L26,64.1"/><path class="cls-18" d="M15.5,87.5l3.85-.6v4l-2.7.7L15.5,89.1V87.5"/><path class="cls-15" d="M9.1,55.75l3.15,10.7V88L9.1,77.4V55.75"/><path class="cls-19" d="M64.8,74.85,60,68,49.5,67.75,46.75,71,43.9,85l-3.55,4.3-4.5,12.4,8.4,11.9,18,.5,9.55-11.4L67.35,90,64.8,74.85m-15.25-9.1L60,66a1.8,1.8,0,0,1,.9.25l.7.6,4.85,6.85.35.85,2.5,15,4.45,12.5.1,1-.45,1-9.55,11.4-.7.55-.9.15-18-.5-.9-.2-.65-.65-8.4-11.9L33.9,102a1.54,1.54,0,0,1,.1-1l4.5-12.4.3-.6,3.25-4L44.8,70.6l.45-.9L48,66.45a1.39,1.39,0,0,1,.7-.5l.85-.2"/><path class="cls-1" d="M46.75,71l2.75-3.25L60,68l4.85,6.85L62.05,78.1,63.8,94.35l-3.6,4.2-13.6-.4L40.35,89.3,43.9,85l9.6,8.6.65-15.95L46.75,71"/><path class="cls-20" d="M46.75,71l7.4,6.65L53.5,93.6,43.9,85l2.85-14m18,3.85L67.35,90l4.5,12.7L62.3,114.1,60.2,98.55l3.6-4.2L62.05,78.1l2.75-3.25M44.25,113.6l-8.4-11.9,4.5-12.4,6.25,8.85L44.25,113.6"/><path class="cls-21" d="M44.25,113.6,46.6,98.15l13.6.4,2.1,15.55-18-.5"/></g></g></svg>