<svg xmlns="http://www.w3.org/2000/svg" xmlns:xlink="http://www.w3.org/1999/xlink" viewBox="0 0 120 140"><defs><style>.cls-1{fill:#27ae60;}.cls-2{fill:#bb8044;}.cls-3{fill:#aa753e;}.cls-4{fill:#c68a4e;}.cls-5{fill:#855b30;}.cls-6{fill:#af783f;}.cls-7{fill:#cd8c4a;}.cls-8{fill:#1a5577;}.cls-9{fill:#23719f;}.cls-10{fill:#2f95d0;}.cls-11{fill:#115f32;}.cls-12{fill:#168344;}.cls-13{fill:#10773c;}.cls-14{fill:#1b914d;}.cls-15{fill:#ffad00;}.cls-16{fill-opacity:0.1;}.cls-17{fill:#db8300;}.cls-18{fill:url(#linear-gradient);}</style><linearGradient id="linear-gradient" x1="-2509.2" y1="74.9" x2="-870.8" y2="74.9" gradientTransform="matrix(0, 0.01, 0.01, 0, 84.09, 84.49)" gradientUnits="userSpaceOnUse"><stop offset="0" stop-color="#fc0"/><stop offset="1" stop-color="#f90"/></linearGradient></defs><title>Asset 159</title><g id="Layer_2" data-name="Layer 2"><g id="Layer_1-2" data-name="Layer 1"><path class="cls-1" d="M120,35v70L60,140,0,105V35L60,0l60,35"/><path class="cls-2" d="M82.6,34.2h3.3l15.65,9.15A4.26,4.26,0,0,1,103.1,45a4.07,4.07,0,0,1,.55,2.1V64.3l-2.1,3.3,2.1,3.1V92.9a4.36,4.36,0,0,1-.55,2.15,4.75,4.75,0,0,1-1.55,1.6L81.3,108.5,77.2,108l-3.1,4.75-11.9,7a4.63,4.63,0,0,1-2.2.55,4.36,4.36,0,0,1-2.15-.55l-39.35-23A4.18,4.18,0,0,1,17,95.05a4.11,4.11,0,0,1-.6-2.15V84.75l2.45-3-2.45-4.6V47.05a4.54,4.54,0,0,1,2.15-3.7l8-4.65h6.2L34.65,34l5-2.9H42.7l1.35-2.55,13.8-8.1A3.9,3.9,0,0,1,60,19.75a4.14,4.14,0,0,1,2.2.65L81,31.35,82.6,34.2"/><path class="cls-3" d="M68.1,40.75l.85-7,7.1.8-.8,7-7.15-.8M99,92.7l-6.15-2.4,2.45-6.15,6.15,2.45L99,92.7M88.9,79.35h4.6V83.9H89l0-4.55M44.05,62.2l2.55,3.25-3.2,2.6L40.8,64.8l3.25-2.6m-20,10.35-2,1-.85-2.1,2-.9.85,2M34.05,57l2.85,3.75-3.85,2.8L30.3,59.8,34.05,57"/><path class="cls-4" d="M65.3,44.7,61,45.4l-.7-4.35,4.35-.7.7,4.35m22.35,26L90.6,72l-1.25,2.9-2.9-1.2,1.2-3M36.9,67,40,73.9l-6.85,3-3-6.9,6.8-3"/><path class="cls-5" d="M55.85,52.85l-2-11.3-4.1-.1L45,42.3l-4.6,1.5-.45,5.1L47,55.55l8.9-2.7m.6,1.95-8.9,2.7h-1a2,2,0,0,1-.9-.5l-7.05-6.65-.5-.75-.15-.85.45-5.1a1.79,1.79,0,0,1,.45-1.1l1-.65,4.6-1.5.25,0,4.8-.85.4,0,4.1.1a1.82,1.82,0,0,1,1.25.5,2,2,0,0,1,.7,1.15l2,11.3a2,2,0,0,1-.3,1.4l-1.1.9"/><path class="cls-6" d="M39.9,48.9l.45-5.1L45,42.3l-.1,1-5,5.6m9.85-7.45,4.1.1,2,11.3L50.6,46.1l-.85-4.65"/><path class="cls-2" d="M45,42.3l4.8-.85.85,4.65-2.1.65L47,55.55,39.9,48.9l5-5.6.1-1"/><path class="cls-7" d="M55.85,52.85,47,55.55l1.55-8.8,2.1-.65,5.25,6.75"/><path class="cls-8" d="M58.9,42.25v.1l9.15,9.8.3.4,9.3,17.5.2,1.15-.45,1.1-1,.65L70.6,74.7l-1.3,0-1-.85-1-1.6v2a2,2,0,0,1-.4,1.2l-1.05.75-2.4.7-1.35-.1a2.14,2.14,0,0,1-1-1l-.2-.45-.8,1.8-.5.65-.75.45L53,80l-1.35-.1a1.89,1.89,0,0,1-1-.9l-9.35-17.5-.25-1a1.69,1.69,0,0,1,.3-1L51.6,42.25v-1A2,2,0,0,1,52,40a1.75,1.75,0,0,1,1.1-.7l2.35-.65,1.3.05a1.92,1.92,0,0,1,1,.9l.95,1.7.25,1"/><path class="cls-2" d="M56.9,43.1v.8l-1.2-1.25-1.15,2-.95-1.8V41.2L56,40.55l.95,1.7v.85m6.75,13.4.7-.2,1,1.75v1.6l-2.4.7-.9-1.8V57l.75-.2.9-.25m1.65,8.65v9l-2.4.7-.9-1.8v-5.2l2.1-4.7,1.2,1.95v.05"/><path class="cls-9" d="M55.7,42.65l1.2,1.25v-.8l9.65,10.4L75.85,71,65.3,59.65v-1.6l-1-1.75-.7.2-.45.1-7.5-14"/><path class="cls-10" d="M55.7,42.65l7.5,14-.45.15L62,57v1.6l.9,1.8,2.4-.7L75.85,71,70,72.75l-4.7-7.6V65.1l-1.2-1.95L62,67.85v.05l-3.75,8.35L52.35,78,43,60.5,53.6,42.8l.95,1.8,1.15-2"/><path class="cls-11" d="M90,40.25l1.75-.7L82.6,19.8,76.5,35.25l.75,1-3,3.4,2,2.75L74,45.75l6.8,9.6,1.5-.55,0,0,12.65-5-3.6-4.35,1-.35L90.35,40.1l-.4.15M81.8,18,83.3,18A2,2,0,0,1,84.45,19l9.1,19.75.15,1-.4,1-.4.4,1.2,3.2a1.85,1.85,0,0,1,0,1.35l2.3,2.8a2,2,0,0,1,.45,1.15,2.07,2.07,0,0,1-.3,1.2l-1,.75L81.5,57.2l-1.3.1-1-.8-6.8-9.6a1.77,1.77,0,0,1-.4-1.15,2,2,0,0,1,.35-1.15l1.5-2.15-1.1-1.6a1.73,1.73,0,0,1-.4-1.25,1.92,1.92,0,0,1,.5-1.2l2-2.2-.2-.7a1.54,1.54,0,0,1,.1-1l6.1-15.45a1.82,1.82,0,0,1,1-1.1M77.25,36.3l.25.3h0l-.2-.3"/><path class="cls-12" d="M77.25,36.3l-.75-1L82.6,19.8l-.4,23.5,7.75-3,.4-.15,1.85,4.95-1,.35-9.7,3.8-.8,6.15L74,45.75l2.3-3.3,5,6.9.65-6.55v0L77.5,36.6l-.25-.3"/><path class="cls-13" d="M77.25,36.3l.2.3h0l4.35,6.15v0l-.65,6.55-5-6.9-2-2.75,3-3.4"/><path class="cls-14" d="M80.75,55.35l.8-6.15,9.7-3.8,3.6,4.35-12.65,5,0,0-1.5.55M90,40.25l-7.75,3,.4-23.5,9.1,19.75-1.75.7"/><path class="cls-11" d="M101.05,34.25l1.5,0a1.82,1.82,0,0,1,1,1.1l4.3,10.85.15.9,0,.35,1.15,1.3a2,2,0,0,1,.45,1.2,1.84,1.84,0,0,1-.35,1.25l-.55.8.8,1.15a2.06,2.06,0,0,1,0,2.3l-4.8,6.75a2,2,0,0,1-1,.75,2.05,2.05,0,0,1-1.25,0l-1-.35-.6-.3-8.35-3.3a2.16,2.16,0,0,1-1-.75,1.77,1.77,0,0,1-.35-1.2A2,2,0,0,1,91.6,56l1.45-1.75a1.87,1.87,0,0,1,.1-1.05l.7-1.85-.1-.1-.4-1a1.91,1.91,0,0,1,.2-1L100,35.3a1.81,1.81,0,0,1,1.1-1m4.5,13.45.5-.75-4.3-10.85L95.35,50l1.25.5-.3-.1L95,53.85l.65.25-2.5,3.1,8.9,3.5,0,0,1,.35,4.8-6.75-1.6-2.3,1.35-1.95-2-2.4-.15.2h-.05l.2-.2"/><path class="cls-14" d="M105.55,47.7l-.2.2-3,4.35v0l.45,4.6,3.5-4.85,1.6,2.3-4.8,6.75-.55-4.3-6.85-2.7L95,53.85l1.3-3.45.3.1,5.45,2.15-.3-16.55L106.05,47l-.5.75"/><path class="cls-12" d="M105.55,47.7l2,2.4-1.35,1.95-3.5,4.85-.45-4.6v0l3-4.35h.05l.15-.2m-2.5,13.4-1-.35,0,0-8.9-3.5,2.5-3.1,6.85,2.7.55,4.3M96.6,50.5,95.35,50l6.4-13.9.3,16.55L96.6,50.5"/><path class="cls-11" d="M16.4,48.05a1.82,1.82,0,0,1,1.05,1.1L21.75,60l.15.9,0,.35L23,62.55a2,2,0,0,1,.45,1.2A1.84,1.84,0,0,1,23.1,65l-.55.8.8,1.15a2,2,0,0,1,.35,1.15l-.35,1.15L18.55,76l-1,.75a2.05,2.05,0,0,1-1.25,0l-1.05-.35-.6-.3L6.3,72.8l-1-.75A1.77,1.77,0,0,1,5,70.85a2,2,0,0,1,.45-1.15L6.9,68a1.87,1.87,0,0,1,.1-1l.7-1.85L7.6,65a1.84,1.84,0,0,1-.4-1,1.91,1.91,0,0,1,.2-1l6.4-13.9a1.81,1.81,0,0,1,1.1-1l1.5,0m3,13.4.5-.75L15.6,49.85,9.2,63.75l1.25.5-.3-.1L8.85,67.6l.65.25L7,71l8.9,3.5-.05,0,1,.35,4.8-6.75-1.6-2.3,1.35-1.95-2.05-2.4-.15.2H19.2l.2-.2"/><path class="cls-14" d="M19.4,61.45l-.2.2L16.15,66v0l.45,4.6,3.5-4.85,1.6,2.3-4.8,6.75-.55-4.3L9.5,67.85l-.65-.25,1.3-3.45.3.1L15.9,66.4l-.3-16.55L19.9,60.7l-.5.75"/><path class="cls-12" d="M19.4,61.45l2.05,2.4L20.1,65.8l-3.5,4.85-.45-4.6v0l3.05-4.35h.05l.15-.2m-2.5,13.4-1-.35.05,0L7,71l2.5-3.1,6.85,2.7.55,4.3m-6.45-10.6-1.25-.5,6.4-13.9.3,16.55-5.45-2.15"/><path class="cls-11" d="M39.25,77.15l1-.35-1.85-5L38,72l1.75-.7L30.6,51.55,24.5,67l.75,1-2.95,3.4,1.95,2.75L22,77.5l6.8,9.6,1.5-.55-.05,0,12.65-5-3.6-4.35m2.45-5.6-.4,1-.4.4,1.2,3.2a1.85,1.85,0,0,1,0,1.35l2.3,2.8a2,2,0,0,1,.45,1.15,2.07,2.07,0,0,1-.3,1.2l-.95.75L29.5,89l-1.3.1a2,2,0,0,1-1.05-.8l-6.8-9.6A1.77,1.77,0,0,1,20,77.5a2,2,0,0,1,.35-1.15l1.5-2.15-1.1-1.6a1.73,1.73,0,0,1-.4-1.25,1.92,1.92,0,0,1,.5-1.2L22.75,68l-.2-.7a1.54,1.54,0,0,1,.1-1l6.1-15.45a1.82,1.82,0,0,1,1.05-1.1l1.5,0a2,2,0,0,1,1.15,1l9.1,19.75.15,1m-16.2-3.2h-.05l-.2-.3.25.3"/><path class="cls-12" d="M25.5,68.35l-.25-.3-.75-1,6.1-15.45-.4,23.5L38,72l.4-.15,1.85,5-1,.35L29.55,81l-.8,6.15L22,77.5l2.3-3.3,4.95,6.9.65-6.55v0L25.5,68.35"/><path class="cls-14" d="M39.25,77.15l3.6,4.35-12.65,5,.05,0-1.5.55.8-6.15,9.7-3.8M30.6,51.55,39.7,71.3,38,72l-7.75,3,.4-23.5"/><path class="cls-13" d="M24.25,74.2,22.3,71.45l2.95-3.4.2.3h.05l4.35,6.15v0L29.2,81.1l-4.95-6.9"/><path class="cls-5" d="M31.2,86.65l4.6-1.5.25-.05,4.8-.85.4,0,4.1.1a1.82,1.82,0,0,1,1.25.5A2,2,0,0,1,47.3,86l2,11.3a2,2,0,0,1-.3,1.4l-1.1.9-8.9,2.7H38a2,2,0,0,1-.9-.5L30,95.1l-.5-.75-.15-.85.45-5.1a1.79,1.79,0,0,1,.45-1.1l.95-.65m5.2.4-4.6,1.5-.45,5.1,7,6.65,8.9-2.7-2-11.3-4.1-.1-4.8.85"/><path class="cls-6" d="M36.4,87.05l-.1,1-4.95,5.6.45-5.1,4.6-1.5m4.8-.85,4.1.1,2,11.3-5.25-6.75L41.2,86.2"/><path class="cls-2" d="M41.2,86.2l.85,4.65L40,91.5l-1.55,8.8-7-6.65,4.95-5.6.1-1,4.8-.85"/><path class="cls-7" d="M47.3,97.6l-8.9,2.7L40,91.5l2.1-.65L47.3,97.6"/><path class="cls-11" d="M18.75,65.7l1.5,0a2,2,0,0,1,1.15,1l9.1,19.75.15,1-.4,1-.4.4,1.2,3.2a1.85,1.85,0,0,1,0,1.35l2.3,2.8a2,2,0,0,1,.45,1.15,2.07,2.07,0,0,1-.3,1.2l-1,.75-14.1,5.6-1.3.1a2,2,0,0,1-1-.8L9.3,94.6a1.77,1.77,0,0,1-.4-1.15,2,2,0,0,1,.35-1.15l1.5-2.15-1.1-1.6a1.73,1.73,0,0,1-.4-1.25,1.92,1.92,0,0,1,.5-1.2l1.95-2.2-.2-.7a1.54,1.54,0,0,1,.1-1L17.7,66.8a1.82,1.82,0,0,1,1.05-1.1M13.2,90.15l-2.3,3.3,6.8,9.6,1.5-.55-.05,0,12.65-5L28.2,93.1l.95-.35-1.85-5-.4.15,1.75-.7L19.55,67.5,13.45,83l.75,1,.25.3h0l-.2-.3-2.95,3.4,1.95,2.75"/><path class="cls-12" d="M13.2,90.15l4.95,6.9.65-6.55v0L14.45,84.3,14.2,84l-.75-1,6.1-15.45L19.15,91l7.75-3,.4-.15,1.85,5-.95.35-9.7,3.8-.8,6.15-6.8-9.6,2.3-3.3"/><path class="cls-13" d="M13.2,90.15,11.25,87.4,14.2,84l.2.3h0l4.35,6.15v0l-.65,6.55-4.95-6.9"/><path class="cls-14" d="M17.7,103.05l.8-6.15,9.7-3.8,3.6,4.35-12.65,5,.05,0-1.5.55M26.9,88l-7.75,3,.4-23.5,9.1,19.75L26.9,88"/><path class="cls-11" d="M103.35,63.3l1.5,0a2,2,0,0,1,1.15,1l9.1,19.75.15,1-.4,1-.4.4,1.2,3.2a1.85,1.85,0,0,1,0,1.35l2.3,2.8A2,2,0,0,1,118.4,95a2.07,2.07,0,0,1-.3,1.2l-.95.75-14.1,5.6-1.3.1a2,2,0,0,1-1-.8l-6.8-9.6a1.77,1.77,0,0,1-.4-1.15,2,2,0,0,1,.35-1.15l1.5-2.15-1.1-1.6a1.73,1.73,0,0,1-.4-1.25,1.92,1.92,0,0,1,.5-1.2l2-2.2-.2-.7a1.54,1.54,0,0,1,.1-1l6.1-15.45a1.82,1.82,0,0,1,1-1.1m9.45,27.4,1-.35L111.9,85.4l-.4.15,1.75-.7-9.1-19.75-6.1,15.45.75,1-3,3.4,2,2.75-2.3,3.3,6.8,9.6,1.5-.55,0,0,12.65-5-3.6-4.35M99.05,81.9h0l-.2-.3.25.3"/><path class="cls-14" d="M112.8,90.7l3.6,4.35-12.65,5,0,0-1.5.55.8-6.15,9.7-3.8m-8.65-25.6,9.1,19.75-1.75.7-7.75,3,.4-23.5"/><path class="cls-12" d="M104.15,65.1l-.4,23.5,7.75-3,.4-.15,1.85,4.95-1,.35-9.7,3.8-.8,6.15-6.8-9.6,2.3-3.3,5,6.9.65-6.55v0L99.05,81.9l-.25-.3-.75-1,6.1-15.45"/><path class="cls-13" d="M97.8,87.75l-2-2.75,3-3.4.2.3h0l4.35,6.15v0l-.65,6.55-5-6.9"/><path class="cls-11" d="M63.55,6.05a1.82,1.82,0,0,1,1,1.1L68.9,18l.15.9,0,.35,1.15,1.3a2,2,0,0,1,.45,1.2L70.25,23l-.55.8L70.5,25a2.06,2.06,0,0,1,0,2.3L65.7,34a2,2,0,0,1-1,.75,2.05,2.05,0,0,1-1.25,0L62.4,34.4l-.6-.3-8.35-3.3a2.16,2.16,0,0,1-1-.75,1.77,1.77,0,0,1-.35-1.2,2,2,0,0,1,.45-1.15L54.05,26a1.87,1.87,0,0,1,.1-1.05l.7-1.85-.1-.1a1.84,1.84,0,0,1-.4-.95,1.91,1.91,0,0,1,.2-1.05L61,7.05a1.81,1.81,0,0,1,1.1-1l1.5,0m3.7,17.75,1.35-1.95-2-2.4-.15.2h-.05l.2-.2.5-.75L62.75,7.85l-6.4,13.9,1.25.5-.3-.1L56,25.6l.65.25L54.15,29l8.9,3.5,0,0,1,.35,4.8-6.75-1.6-2.3"/><path class="cls-12" d="M67.25,23.8l-3.5,4.85-.45-4.6V24l3-4.35h.05l.15-.2,2,2.4L67.25,23.8M62.75,7.85l.3,16.55L57.6,22.25l-1.25-.5,6.4-13.9m-6.1,18,6.85,2.7.55,4.3-1-.35,0,0L54.15,29l2.5-3.1"/><path class="cls-14" d="M56.65,25.85,56,25.6l1.3-3.45.3.1,5.45,2.15-.3-16.55,4.3,10.85-.5.75-.2.2L63.3,24v.05l.45,4.6,3.5-4.85,1.6,2.3-4.8,6.75-.55-4.3-6.85-2.7"/><path class="cls-11" d="M99.8,95.6l0,.35,1.15,1.3a2,2,0,0,1,.45,1.2A1.84,1.84,0,0,1,101,99.7l-.55.8.8,1.15a2,2,0,0,1,.35,1.15l-.35,1.15-4.8,6.75-1,.75a2.05,2.05,0,0,1-1.25,0l-1-.35-.6-.3-8.35-3.3a2.16,2.16,0,0,1-1-.75,1.77,1.77,0,0,1-.35-1.2,2,2,0,0,1,.45-1.15l1.45-1.75a1.87,1.87,0,0,1,.1-1.05l.7-1.85-.1-.1-.4-1a1.91,1.91,0,0,1,.2-1l6.4-13.9a1.81,1.81,0,0,1,1.1-1l1.5,0a1.82,1.82,0,0,1,1,1.1l4.3,10.85.15.9m-2.5.55.5-.75L93.5,84.55l-6.4,13.9,1.25.5-.3-.1-1.3,3.45.65.25-2.5,3.1,8.9,3.5,0,0,1,.35,4.8-6.75L98,100.5l1.35-2-2-2.4-.15.2H97.1l.2-.2"/><path class="cls-12" d="M97.3,96.15l2,2.4-1.35,2-3.5,4.85-.45-4.6v0l3-4.35h.05l.15-.2m-2.5,13.4-1-.35,0,0-8.9-3.5,2.5-3.1,6.85,2.7.55,4.3M88.35,99l-1.25-.5,6.4-13.9.3,16.55L88.35,99"/><path class="cls-14" d="M88.35,99l5.45,2.15-.3-16.55L97.8,95.4l-.5.75-.2.2-3,4.35v0l.45,4.6L98,100.5l1.6,2.3-4.8,6.75-.55-4.3-6.85-2.7-.65-.25,1.3-3.45.3.1"/><path class="cls-15" d="M77.45,56.6l2-2,2,1.95-2,2-2-1.95m-.2,5.15-2.1-.55.55-2.05,2.1.55-.55,2"/><path class="cls-16" d="M69.5,82.3q0-2.3,2.55-3.9a12.62,12.62,0,0,1,12.3,0Q86.9,80,86.9,82.3t-2.55,3.9a12.62,12.62,0,0,1-12.3,0Q69.5,84.6,69.5,82.3"/><path class="cls-17" d="M78.5,66.45H76.7v5L74.2,74.9v5.75l3,2.7H80.7l2.8-3.55-1.7-2V72.2l-3.3-5.75m1.75-1,3.3,5.75.25,1v4.9L85,78.5a1.82,1.82,0,0,1,.5,1.25,2.27,2.27,0,0,1-.4,1.3L82.3,84.6l-.7.55-.9.2H77.25a1.89,1.89,0,0,1-1.3-.5l-3-2.7-.5-.65-.2-.85V74.9a1.77,1.77,0,0,1,.4-1.15l2.1-3V66.45a2.05,2.05,0,0,1,2-2h1.8a1.76,1.76,0,0,1,1,.3l.75.7"/><path class="cls-18" d="M78.5,66.45l3.3,5.75v5.65l1.7,2-2.8,3.55H77.25l-3-2.7V74.9l2.5-3.45v-5h1.8"/></g></g></svg>