<svg xmlns="http://www.w3.org/2000/svg" xmlns:xlink="http://www.w3.org/1999/xlink" viewBox="0 0 120 140"><defs><style>.cls-1{fill:#27ae60;}.cls-2{fill:#9ba6a6;}.cls-3{fill:#a4afaf;}.cls-4{fill:url(#linear-gradient);}.cls-5{fill:#a9b6b6;}.cls-6{fill:url(#linear-gradient-2);}.cls-7{fill:url(#linear-gradient-3);}.cls-8{fill:url(#linear-gradient-4);}.cls-9{fill:url(#linear-gradient-5);}.cls-10{fill:url(#linear-gradient-6);}.cls-11{fill:url(#linear-gradient-7);}</style><linearGradient id="linear-gradient" x1="-819.2" y1="49.52" x2="819.2" y2="49.52" gradientTransform="matrix(0, 0, 0, 0, 17.34, 49.55)" gradientUnits="userSpaceOnUse"><stop offset="0" stop-color="#27ae60"/><stop offset="1" stop-color="#30c26d"/></linearGradient><linearGradient id="linear-gradient-2" x1="-819.2" y1="102.17" x2="819.2" y2="102.17" gradientTransform="matrix(0, 0, 0, 0, 19.59, 102.2)" xlink:href="#linear-gradient"/><linearGradient id="linear-gradient-3" x1="-819.2" y1="30.38" x2="819.2" y2="30.38" gradientTransform="matrix(0, 0, 0, 0, 95.07, 30.35)" xlink:href="#linear-gradient"/><linearGradient id="linear-gradient-4" x1="-819.2" y1="98.08" x2="819.2" y2="98.08" gradientTransform="matrix(0, 0, 0, 0, 110.57, 98.05)" xlink:href="#linear-gradient"/><linearGradient id="linear-gradient-5" x1="-819.2" y1="121.33" x2="819.2" y2="121.33" gradientTransform="matrix(0, 0, 0, 0, 77.44, 121.35)" xlink:href="#linear-gradient"/><linearGradient id="linear-gradient-6" x1="-819.2" y1="120.65" x2="819.2" y2="120.65" gradientTransform="matrix(0, 0, 0, 0, 62.07, 119.15)" xlink:href="#linear-gradient"/><linearGradient id="linear-gradient-7" x1="-819.2" y1="116.92" x2="819.2" y2="116.92" gradientTransform="matrix(0, 0, 0, 0, 49.84, 116.95)" xlink:href="#linear-gradient"/></defs><title>Asset 1</title><g id="Layer_2" data-name="Layer 2"><g id="Layer_1-2" data-name="Layer 1"><path class="cls-1" d="M49.5,114.9l7.15,4.2-.55-.25h-.35a.3.3,0,0,0-.25.15v0a.42.42,0,0,0,0,.35l.95,3h4.85l.7-1.8v-.45l-.25-.2h-.3l-1.25.4,0-.25,1.8-.55,11.9-6.95,3-4.55.1-.2,4.1.55,1.75-1,6.9-4,4.8-2.8,6.8-4A4.75,4.75,0,0,0,102.8,95a4.36,4.36,0,0,0,.55-2.15V70.65l-2.1-3.1,2.1-3.3V47a4.07,4.07,0,0,0-.55-2.1,4.26,4.26,0,0,0-1.55-1.6l-13.8-8-1.85-1.1H82.3L80.65,31.3l-.6-.35L61.9,20.35a4.14,4.14,0,0,0-2.2-.65,3.9,3.9,0,0,0-2.15.65l-13.8,8.1L42.4,31h-3l-.1.05-4.9,2.85-1.5,3.75-.45,1H26.2l-8,4.65A4.54,4.54,0,0,0,16.05,47v.75l-2.2.8-2-2.85a.3.3,0,0,0-.25-.15l-.25,0-.25.15-.1.25-.35,3.5L9,49.75l-.25.1,0,.1-.05.2v.25h.05l1.45,3.15h6V77.1l.5,1,.9,1.65,1.05,2-2.45,3v8.15a4.11,4.11,0,0,0,.6,2.15,4.18,4.18,0,0,0,1.55,1.6l31.3,18.3h-.35l-2.8,1-2-2.85L44.1,113l-.25,0-.25.15-.1.25-.35,3.5-1.7.35-.25.1-.05.1,0,.2v.25h0L42.6,121h6l1.6-1,.15-.15,0-.15,0-.3-.3-.25-1.5-.4,1.2-3.15v-.35l0-.05-.2-.2M13.35,98.3l-.1.25-.35,3.5-1.7.35-.25.1,0,.1-.05.2v.25h.05l1.45,3.15h6l1.6-1,.15-.15,0-.15,0-.3-.3-.25-1.5-.4,1.2-3.15v-.35l-.05-.05-.2-.2H18.9l-2.8,1-2-2.85a.3.3,0,0,0-.25-.15l-.25,0-.25.15M0,35,60,0l60,35v70L60,140,0,105V35m95-3.6-.25-.2h-.3l-1.25.4-.85-4.15-.15-.25-.25-.1-.3.1-.15.25-1,3.15-1.35-.55h-.35a.3.3,0,0,0-.25.15v.05a.42.42,0,0,0,0,.35l1,3h4.85l.7-1.8V31.4M104,98a.42.42,0,0,0,0,.35l1,3h4.85l.7-1.8V99.1l-.25-.2h-.3l-1.25.4-.85-4.15-.15-.25-.25-.1-.3.1-.15.25-1,3.15-1.35-.55h-.35a.3.3,0,0,0-.25.15v0M77.1,119.3h-.35l-2.8,1-2-2.85-.25-.15-.25,0-.25.15-.1.25-.35,3.5-1.7.35-.25.1,0,.1,0,.2v.25h0l1.45,3.15h6l1.6-1,.15-.15,0-.15,0-.3-.3-.25-1.5-.4,1.2-3.15v-.35l0,0-.2-.2"/><path class="cls-2" d="M32.85,37.65l1.5-3.75,4.9-2.85,2.8,1.3L36.2,39.2l-3.35-1.55M17.45,79.7l-.9-1.65,1.65.75-.75.9M37.1,107.15l3.7-4.35,5.9,2.75L43,109.9l-5.9-2.75M71,62.05l-3.7,4.35-5.9-2.75,3.7-4.35L71,62.05m3.4,14L65.1,71.7l5.8-6.8,9.3,4.3-5.85,6.85M77.2,97l5.7-6.7,9.3,4.3-5.85,6.85L77.1,97.1l.1-.1M96.5,69.3l-5.9-2.75,3.7-4.35L100.2,65,96.5,69.3"/><path class="cls-3" d="M96.5,69.3,100.2,65,94.3,62.2l-3.7,4.35,5.9,2.75M39.25,31.05l.1-.05h3l1.35-2.55,13.8-8.1a3.9,3.9,0,0,1,2.15-.65,4.14,4.14,0,0,1,2.2.65L80.05,31l-1.4-.65-5.8,6.8,9.25,4.35,5.35-6.2,13.8,8a4.26,4.26,0,0,1,1.55,1.6,4.07,4.07,0,0,1,.55,2.1V64.25l-2.1,3.3,2.1,3.1v22.2A4.36,4.36,0,0,1,102.8,95a4.75,4.75,0,0,1-1.55,1.6l-6.8,4-1.75-.8-3,3.6-6.9,4,1.6-1.9-5.9-2.75-3.7,4.35,2,.95-3,4.55L61.9,119.6l-1.8.55h-.4a4.36,4.36,0,0,1-2.15-.55l-.9-.5-7.15-4.2L18.2,96.6A4.18,4.18,0,0,1,16.65,95a4.11,4.11,0,0,1-.6-2.15V84.7l2.45-3-1.05-2,.75-.9-1.65-.75-.5-1v-8l5.05,2.35L27,64.6l-9.3-4.3-1.6,1.9V47a4.54,4.54,0,0,1,2.15-3.7l8-4.65h6.2l.45-1L36.2,39.2l5.85-6.85-2.8-1.3m-9.9,49.4L35.2,73.6l-9.3-4.3-5.8,6.8,9.25,4.35M40.2,62.05,34.3,59.3l-3.7,4.35,5.9,2.75,3.7-4.35m-3.1,45.1L43,109.9l3.7-4.35-5.9-2.75-3.7,4.35M77.2,97l-.1.1,9.25,4.35L92.2,94.6l-9.3-4.3L77.2,97m-2.85-21L80.2,69.2l-9.3-4.3-5.8,6.8,9.25,4.35m-3.4-14-5.9-2.75-3.7,4.35,5.9,2.75L71,62.05"/><path class="cls-4" d="M16.05,53.55h-6L8.65,50.4H8.6v-.25l.05-.2,0-.1.25-.1,1.7-.35L11,45.9l.1-.25.25-.15.25,0a.3.3,0,0,1,.25.15l2,2.85,2.2-.8v5.8"/><path class="cls-5" d="M80.05,31l.6.35,1.65,2.85h3.3l1.85,1.1-5.35,6.2L72.85,37.1l5.8-6.8,1.4.65m14.4,69.65-4.8,2.8,3-3.6,1.75.8m-11.7,6.85-1.75,1-4.1-.55-.1.2-2-.95,3.7-4.35,5.9,2.75-1.6,1.9M16.05,69.1V62.2l1.6-1.9L27,64.6,21.1,71.45,16.05,69.1m24.15-7L36.5,66.4l-5.9-2.75,3.7-4.35,5.9,2.75M29.35,80.45,20.1,76.1l5.8-6.8,9.3,4.3-5.85,6.85"/><path class="cls-6" d="M13.35,98.3l.25-.15.25,0a.3.3,0,0,1,.25.15l2,2.85,2.8-1h.35l.2.2.05.05v.35l-1.2,3.15,1.5.4.3.25,0,.3,0,.15-.15.15-1.6,1h-6l-1.45-3.15h-.05v-.25l.05-.2,0-.1.25-.1,1.7-.35.35-3.5.1-.25"/><path class="cls-7" d="M95,31.4v.45l-.7,1.8H89.4l-1-3a.42.42,0,0,1,0-.35V30.2a.3.3,0,0,1,.25-.15h.35l1.35.55,1-3.15.15-.25.3-.1.25.1.15.25.85,4.15,1.25-.4h.3l.25.2"/><path class="cls-8" d="M104,98v0a.3.3,0,0,1,.25-.15h.35l1.35.55,1-3.15.15-.25.3-.1.25.1.15.25.85,4.15,1.25-.4h.3l.25.2v.45l-.7,1.8H104.9l-1-3a.42.42,0,0,1,0-.35"/><path class="cls-9" d="M77.1,119.3l.2.2,0,0v.35l-1.2,3.15,1.5.4.3.25,0,.3,0,.15-.15.15-1.6,1h-6l-1.45-3.15h0V122l0-.2,0-.1.25-.1,1.7-.35.35-3.5.1-.25.25-.15.25,0,.25.15,2,2.85,2.8-1h.35"/><path class="cls-10" d="M60.1,120.15l0,.25,1.25-.4h.3l.25.2v.45l-.7,1.8H56.4l-.95-3a.42.42,0,0,1,0-.35v0a.3.3,0,0,1,.25-.15h.35l.55.25.9.5a4.36,4.36,0,0,0,2.15.55h.4"/><path class="cls-11" d="M49.5,114.9l.2.2,0,.05v.35l-1.2,3.15,1.5.4.3.25,0,.3,0,.15-.15.15-1.6,1h-6l-1.45-3.15h0v-.25l0-.2.05-.1.25-.1,1.7-.35.35-3.5.1-.25.25-.15.25,0,.25.15,2,2.85,2.8-1h.35"/></g></g></svg>