<svg xmlns="http://www.w3.org/2000/svg" viewBox="0 0 120 140"><defs><style>.cls-1{fill:#bb8044;}.cls-2{fill:#c68a4e;}.cls-3{fill:#aa753e;}.cls-4{fill:#115f32;}.cls-5{fill:#1b914d;}.cls-6{fill-opacity:0.1;}.cls-7{fill:#198a49;}</style></defs><title>Asset 33</title><g id="Layer_2" data-name="Layer 2"><g id="Layer_1-2" data-name="Layer 1"><path class="cls-1" d="M59.5,16.6l-.85,7,7.15.8.8-7-7.1-.8m-3.65,11-.7-4.35L50.8,24l.7,4.35,4.35-.7m48.7,27.2,1.2,4.45,4.4-1.25L109,53.6l-4.4,1.2M101.3,60l-3.2-.45-.4,3.15,3.15.4.45-3.1M120,35v70L60,140,0,105V35L60,0l60,35M23.6,46.45l3.85-2.8L24.6,39.9l-3.75,2.8,2.75,3.75m11-1.35-3.25,2.6L34,51l3.2-2.6L34.6,45.1m-22,11.3,2-.95-.85-2.05-2,.9.85,2.1m22.5,35-3.55,6.7,6.55,3.5L41.7,95,35.1,91.4M30.5,56.8l-3.05-6.9-6.8,3,3,6.9,6.85-3m73.7,4.65-.75,6.6,6.55.75.75-6.55-6.55-.8M25.45,106.5l4.5,1.2,1.25-4.45L26.65,102l-1.2,4.55m-2.1-11.1,4,1,1-4.05-4-.95-1,4m66.8-14,1.25-2.9-3-1.25-1.2,3,2.9,1.2M83,100l2.45-6.1L79.3,91.45,76.85,97.6,83,100m11.3-9.5V86H89.7l0,4.55H94.3m1.85,8.8,1,7,7.1-1.1-1-7-7.1,1.1M109,91.85l-4,1.85,1.75,4,4-1.85-1.75-4M44.65,107.7l1.15-2-2-1-1,2,1.9,1"/><path class="cls-2" d="M55.85,27.6l-4.35.7L50.8,24l4.35-.7.7,4.35M101.3,60l-.45,3.1-3.15-.4.4-3.15,3.2.45M30.5,56.8l-6.85,3-3-6.9,6.8-3,3.05,6.9m4.6,34.6L41.7,95l-3.6,6.65-6.55-3.5,3.55-6.7m55.05-10-2.9-1.2,1.2-3,3,1.25-1.25,2.9M109,91.85l1.75,4-4,1.85-1.75-4,4-1.85"/><path class="cls-3" d="M59.5,16.6l7.1.8-.8,7.05-7.15-.8.85-7m45.05,38.2,4.4-1.2,1.2,4.4-4.4,1.25-1.2-4.45M12.6,56.4l-.85-2.1,2-.9.85,2.05-2,.95m22-11.3,2.55,3.25L34,51l-2.6-3.25,3.25-2.6m-11,1.35L20.85,42.7l3.75-2.8,2.85,3.75-3.85,2.8m-.25,49,1-4,4,.95-1,4.05-4-1m2.1,11.1,1.2-4.55,4.55,1.3L30,107.7l-4.5-1.2m78.75-45,6.55.8L110,68.8l-6.55-.75.75-6.6m-8,37.85,7.1-1.1,1,7-7.1,1.1-1-7M94.3,90.5H89.75l0-4.55h4.6V90.5M83,100l-6.15-2.4,2.45-6.15,6.15,2.45L83,100m-38.35,7.7-1.9-1,1-2,2,1-1.15,2"/><path class="cls-4" d="M89.75,94.45a5.1,5.1,0,0,0,1.75-1.1l.2-.15a4.53,4.53,0,0,0,1.15-3V89.4A49.92,49.92,0,0,0,91.5,76.9q-1.4-5.15-3.35-5.15t-3.3,5.15a48.37,48.37,0,0,0-1.4,12.5v.85a4.3,4.3,0,0,0,1.25,3l.15.15a4.34,4.34,0,0,0,1.75,1.1V95.6a1.54,1.54,0,0,0,1.55,1.55h0a1.35,1.35,0,0,0,1-.45,1.44,1.44,0,0,0,.5-1.1V94.45M83,94.2a6,6,0,0,1-1.5-3.9v-.9a48.75,48.75,0,0,1,1.5-13q1.85-7.09,5.2-6.65,3.34-.5,5.3,6.65a52.21,52.21,0,0,1,1.4,13v.9a6.53,6.53,0,0,1-1.4,4l-.5.55h0l-1.15.9a3.21,3.21,0,0,1-1,2.35l-.15.15a3.51,3.51,0,0,1-2.4,1h0a3.38,3.38,0,0,1-2.5-1A3.48,3.48,0,0,1,84.6,95.7l-1.15-.9h0L83,94.2"/><path class="cls-5" d="M86.6,94.45a4.34,4.34,0,0,1-1.75-1.1l-.15-.15a4.3,4.3,0,0,1-1.25-3V89.4a48.37,48.37,0,0,1,1.4-12.5q1.35-5.15,3.3-5.15T91.5,76.9a49.92,49.92,0,0,1,1.35,12.5v.85a4.53,4.53,0,0,1-1.15,3l-.2.15a5.1,5.1,0,0,1-1.75,1.1l-1.6.25-1.55-.25"/><path class="cls-6" d="M93.45,94.25A3.36,3.36,0,0,1,95,97a3.72,3.72,0,0,1-2,3.1,8.34,8.34,0,0,1-4.75,1.3,8.57,8.57,0,0,1-4.8-1.3,3.72,3.72,0,0,1-2-3.1A3.48,3.48,0,0,1,83,94.2l.55.6h0l1.15.9a3.48,3.48,0,0,0,1.05,2.45,3.38,3.38,0,0,0,2.5,1h0a3.51,3.51,0,0,0,2.4-1l.15-.15a3.21,3.21,0,0,0,1-2.35l1.15-.9h0l.5-.55"/><path class="cls-1" d="M89.75,94.45V95.6a1.44,1.44,0,0,1-.5,1.1,1.35,1.35,0,0,1-1,.45h0A1.54,1.54,0,0,1,86.6,95.6V94.45l1.55.25,1.6-.25"/><path class="cls-4" d="M19.15,85.55a5.1,5.1,0,0,0,1.75-1.1l.2-.15a4.53,4.53,0,0,0,1.15-3V80.5A49.92,49.92,0,0,0,20.9,68q-1.39-5.15-3.35-5.15T14.25,68a48.37,48.37,0,0,0-1.4,12.5v.85a4.3,4.3,0,0,0,1.25,3l.15.15A4.34,4.34,0,0,0,16,85.55V86.7a1.54,1.54,0,0,0,1.55,1.55h.05l1-.45a1.44,1.44,0,0,0,.5-1.1V85.55m-6.8-.25a6,6,0,0,1-1.5-3.9v-.9a48.75,48.75,0,0,1,1.5-13q1.85-7.09,5.2-6.65,3.35-.49,5.3,6.65a52.21,52.21,0,0,1,1.4,13v.9a6.53,6.53,0,0,1-1.4,3.95l-.5.55H22.3l-1.15.9a3.21,3.21,0,0,1-1,2.35L20,89.3a3.51,3.51,0,0,1-2.4,1h-.05a3.38,3.38,0,0,1-2.5-1A3.48,3.48,0,0,1,14,86.8l-1.15-.9h.05l-.55-.6"/><path class="cls-5" d="M16,85.55a4.34,4.34,0,0,1-1.75-1.1l-.15-.15a4.3,4.3,0,0,1-1.25-3V80.5A48.37,48.37,0,0,1,14.25,68q1.35-5.15,3.3-5.15T20.9,68a49.92,49.92,0,0,1,1.35,12.5v.85a4.53,4.53,0,0,1-1.15,3l-.2.15a5.1,5.1,0,0,1-1.75,1.1l-1.6.25L16,85.55"/><path class="cls-6" d="M22.85,85.35a3.36,3.36,0,0,1,1.5,2.7,3.72,3.72,0,0,1-2,3.1,8.34,8.34,0,0,1-4.75,1.3,8.57,8.57,0,0,1-4.8-1.3,3.72,3.72,0,0,1-2-3.1,3.48,3.48,0,0,1,1.5-2.75l.55.6h-.05l1.15.9a3.48,3.48,0,0,0,1.05,2.45,3.38,3.38,0,0,0,2.5,1h.05a3.51,3.51,0,0,0,2.4-1l.15-.15a3.21,3.21,0,0,0,1-2.35l1.15-.9h.05l.5-.55"/><path class="cls-1" d="M19.15,85.55V86.7a1.44,1.44,0,0,1-.5,1.1l-1,.45h-.05A1.54,1.54,0,0,1,16,86.7V85.55l1.55.25,1.6-.25"/><path class="cls-4" d="M104.15,97.25l-1.85,1.3V99a4.07,4.07,0,0,1-1.2,3l-.15.15a4.07,4.07,0,0,1-3,1.2h0A4.27,4.27,0,0,1,93.55,99v-.45L91.8,97.3,91.4,97a8.75,8.75,0,0,1-2.7-6.1v-1.4a76,76,0,0,1,2-19l.15-.6a24.11,24.11,0,0,1,2.45-6.35q2-3.3,4.55-3c1.73-.17,3.27.87,4.6,3.1a26.43,26.43,0,0,1,2.45,6.3l.15.5a79,79,0,0,1,2,19.1v1.4a8.83,8.83,0,0,1-2.65,6.1l-.3.3M92.5,71.55l-1.1,6-.25,2.25-.25,3.1-.2,4.85v3a6.89,6.89,0,0,0,2.1,4.75l1.3,1,1.45.7V99a2.24,2.24,0,0,0,.65,1.65,2.3,2.3,0,0,0,1.7.7h0A2.39,2.39,0,0,0,100.3,99V97.25l1.55-.75,1.15-1a6.89,6.89,0,0,0,2.1-4.75v-3l-.2-4.85-.25-3.1-.25-2.25-1.1-6-.3-1.2-.5-1.75q-1.69-5.4-4-6l-.65-.1-.65.1q-2.25.64-3.9,6l-.55,1.75-.3,1.2"/><path class="cls-5" d="M92.5,71.55l.3-1.2.55-1.75q1.65-5.4,3.9-6l.65-.1.65.1q2.25.64,4,6l.5,1.75.3,1.2-.3.1-.2.1-1,.2-1.55.25-2.4.1-2.35-.1L94.1,72l-1-.25-.25-.1-.3-.1m-1.1,6,.1,0,1.3.85,1.3.5,1.45.35,2.35.2,2.4-.2,1.55-.35,1.15-.5,1.35-.85.05,0,.25,2.25.25,3.1a4.25,4.25,0,0,1-1.9,1.95l-1.15.6-1.55.45-2.4.25-2.35-.25-1.45-.4-1.3-.65a4.25,4.25,0,0,1-1.9-1.95l.25-3.1.25-2.25m-.7,10.9a4.92,4.92,0,0,0,2.1,3.75l1.3.85,1.45.55,2.35.3,2.4-.3,1.55-.6,1.15-.8a4.92,4.92,0,0,0,2.1-3.75v2.3A6.89,6.89,0,0,1,103,95.5l-1.15,1-1.55.75-2.4.35-2.35-.35-1.45-.7-1.3-1a6.89,6.89,0,0,1-2.1-4.75v-2.3"/><path class="cls-7" d="M90.7,88.45v-.7l.2-4.85a4.25,4.25,0,0,0,1.9,1.95l1.3.65,1.45.4,2.35.25,2.4-.25,1.55-.45,1.15-.6a4.25,4.25,0,0,0,1.9-1.95l.2,4.85v.7A4.92,4.92,0,0,1,103,92.2l-1.15.8-1.55.6-2.4.3-2.35-.3-1.45-.55-1.3-.85a4.92,4.92,0,0,1-2.1-3.75m1.8-16.9.3.1.25.1,1,.25,1.45.2,2.35.1,2.4-.1,1.55-.25,1-.2.2-.1.3-.1,1.1,6-.05,0-1.35.85-1.15.5-1.55.35-2.4.2-2.35-.2L94.1,79l-1.3-.5-1.3-.85-.1,0,1.1-6"/><path class="cls-1" d="M95.55,97.25l2.35.35,2.4-.35V99A2.39,2.39,0,0,1,98,101.35h0a2.3,2.3,0,0,1-1.7-.7A2.24,2.24,0,0,1,95.55,99V97.25"/><path class="cls-6" d="M104.15,97.25l.7.3q2.81,1.5,2.8,3.6t-2.8,3.55a16.16,16.16,0,0,1-13.6,0q-2.81-1.45-2.8-3.55t2.8-3.6l.55-.25,1.75,1.25V99a4.27,4.27,0,0,0,4.35,4.35h0a4.07,4.07,0,0,0,3-1.2l.15-.15a4.07,4.07,0,0,0,1.2-3v-.45l1.85-1.3"/><path class="cls-4" d="M56.7,38.35a6,6,0,0,1-1.5-3.9v-.9a48.75,48.75,0,0,1,1.5-13q1.84-7.1,5.2-6.65,3.34-.49,5.3,6.65a52.21,52.21,0,0,1,1.4,13v.9a6.53,6.53,0,0,1-1.4,3.95l-.5.55h0l-1.15.9a3.21,3.21,0,0,1-1,2.35l-.15.15a3.51,3.51,0,0,1-2.4.95H61.9a3.38,3.38,0,0,1-2.5-1,3.48,3.48,0,0,1-1-2.45L57.2,39h0l-.55-.6m6.8.25a5.1,5.1,0,0,0,1.75-1.1l.2-.15a4.53,4.53,0,0,0,1.15-3v-.85a49.92,49.92,0,0,0-1.35-12.5q-1.4-5.14-3.35-5.15t-3.3,5.15a48.37,48.37,0,0,0-1.4,12.5v.85a4.3,4.3,0,0,0,1.25,3l.15.15a4.34,4.34,0,0,0,1.75,1.1v1.15A1.54,1.54,0,0,0,61.9,41.3H62a1.35,1.35,0,0,0,1-.45,1.44,1.44,0,0,0,.5-1.1V38.6"/><path class="cls-5" d="M63.5,38.6l-1.6.25-1.55-.25a4.34,4.34,0,0,1-1.75-1.1l-.15-.15a4.3,4.3,0,0,1-1.25-3v-.85a48.37,48.37,0,0,1,1.4-12.5Q60,15.91,61.9,15.9t3.35,5.15a49.92,49.92,0,0,1,1.35,12.5v.85a4.53,4.53,0,0,1-1.15,3l-.2.15a5.1,5.1,0,0,1-1.75,1.1"/><path class="cls-6" d="M67.2,38.4a3.36,3.36,0,0,1,1.5,2.7,3.72,3.72,0,0,1-2,3.1A8.34,8.34,0,0,1,62,45.5a8.57,8.57,0,0,1-4.8-1.3,3.72,3.72,0,0,1-1.95-3.1,3.48,3.48,0,0,1,1.5-2.75l.55.6h0l1.15.9a3.48,3.48,0,0,0,1,2.45,3.38,3.38,0,0,0,2.5,1H62a3.51,3.51,0,0,0,2.4-.95l.15-.15a3.21,3.21,0,0,0,1-2.35l1.15-.9h0l.5-.55"/><path class="cls-1" d="M63.5,38.6v1.15a1.44,1.44,0,0,1-.5,1.1,1.35,1.35,0,0,1-1,.45H61.9a1.54,1.54,0,0,1-1.55-1.55V38.6l1.55.25,1.6-.25"/></g></g></svg>