<svg xmlns="http://www.w3.org/2000/svg" viewBox="0 0 120 140"><defs><style>.cls-1{fill:#e5d5b2;}.cls-2{fill:#ecdcb8;}.cls-3{fill:#e0d1af;}.cls-4{fill:#775029;}.cls-5{fill:#bb8044;}.cls-6{fill:#a8733d;}.cls-7{fill:#c68848;}.cls-8{fill:#855b30;}.cls-9{fill:#5a6b6b;}.cls-10{fill-opacity:0.1;}.cls-11{fill:#1a7741;}.cls-12{fill:#2bc46c;}.cls-13{fill:#27ae60;}.cls-14{fill:#464646;}.cls-15{fill:gray;}.cls-16{fill:#747474;}.cls-17{fill:#8a8a8a;}.cls-18{fill:#8a3f23;}.cls-19{fill:#727979;}.cls-20{fill:#bb5f3c;}.cls-21{fill:#aa5636;}.cls-22{fill:#a6b1b1;}.cls-23{fill:#d26f49;}.cls-24{fill:#b9c6c6;}.cls-25{fill:#666;}.cls-26{fill:#5b4c3c;}.cls-27{fill:#d8a36d;}.cls-28{fill:#be9060;}.cls-29{fill:#b0e9fc;}.cls-30{fill:#a07a50;}.cls-31{fill:#515151;}.cls-32{fill:#d2a66b;}</style></defs><title>Asset 154</title><g id="Layer_2" data-name="Layer 2"><g id="Layer_1-2" data-name="Layer 1"><path class="cls-1" d="M85.85,22.15l-2.8.9,0,.05A38.37,38.37,0,0,0,60,38.75a51.77,51.77,0,0,0-6.8,14.3,44.24,44.24,0,0,1-2.4,7.05l-2,3.95Q40.95,77.6,23,83.15l.05,0A39.28,39.28,0,0,0,6,91.9v-22l.85-3A60.49,60.49,0,0,1,9.5,60.1q8.4-18.49,27.55-23.25l0-.05q15.11-4.69,23-15l2.6-3.9A44.83,44.83,0,0,0,65.9,10.5L85.85,22.15M76.1,39.9l3.2.45-.45,3.1-3.15-.4.4-3.15m8.2-4.8L80.3,37l-1.75-4,4-1.85,1.75,4m12.8,1.75,0-.05a61.49,61.49,0,0,0,8.35-3.25l5.65,3.3h0A5.83,5.83,0,0,1,114,42v8.7l-.8,2.35a39,39,0,0,1-2.4,7.05l-2,3.95Q101,77.6,83.05,83.15l0,0A38.43,38.43,0,0,0,60,98.8a51.69,51.69,0,0,0-6.8,14.35,42.65,42.65,0,0,1-2.4,7l-2,3.95-1,1.7-30.3-17.65A39,39,0,0,1,37.05,97l0,0q15.11-4.7,23-15.05l2.6-3.9A43.55,43.55,0,0,0,67,67a53.62,53.62,0,0,1,2.6-6.85Q78,41.61,97.1,36.85m16.15,35.4-.75,6.55L106,78.05l.75-6.6,6.55.8M114,88.1v10a5.89,5.89,0,0,1-.8,3,6.35,6.35,0,0,1-2.2,2.2h0L66.3,129.3,67,127a53.62,53.62,0,0,1,2.6-6.85Q78,101.7,97.1,97l0,0a49.44,49.44,0,0,0,17-8.8M58.8,66H54.25l0-4.55h4.6V66m18,25.45L83,93.9,80.5,100l-6.15-2.4,2.45-6.15m14.6-5.4L90.15,89l-2.9-1.2,1.2-3,3,1.25M87.2,91h4.6V95.5H87.25l0-4.55m-23.9,14.8-1.15,2-1.9-1,1-2,2,1m1.45,16.85-4,1.85-1.75-4,4-1.85,1.75,4M13.6,44,10.85,40.2l3.75-2.8,2.85,3.75L13.6,44m-1.5,4-2,.95-.85-2.1,2-.9L12.1,48m40.55-29.7.7,4.35L49,23.3,48.3,19l4.35-.7M18.85,37.7l3.25-2.6,2.55,3.25L21.45,41l-2.6-3.25M58,72l1,7-7.1,1.1-1-7L58,72M26.1,92.9l1-4,4,.95-1,4.05-4-1m8.8-11.25,6.6,3.55-3.6,6.65-6.55-3.5,3.55-6.7"/><path class="cls-2" d="M34.9,81.65l-3.55,6.7,6.55,3.5,3.6-6.65-6.6-3.55m50.95-59.5L65.9,10.5a44.83,44.83,0,0,1-3.35,7.35L60,21.75q-7.85,10.35-23,15l0,.05Q17.9,41.61,9.5,60.1A60.49,60.49,0,0,0,6.85,67L6,69.9v22a39.28,39.28,0,0,1,17-8.7l-.05,0q18-5.55,25.8-19.1l2-3.95a44.24,44.24,0,0,0,2.4-7.05A51.77,51.77,0,0,1,60,38.75,38.37,38.37,0,0,1,83.1,23.1l0-.05,2.8-.9m-1.55,13-1.75-4-4,1.85,1.75,4,4-1.85m-8.2,4.8-.4,3.15,3.15.4.45-3.1-3.2-.45m21-3Q77.94,41.61,69.55,60.1A53.62,53.62,0,0,0,67,67a43.55,43.55,0,0,1-4.4,11L60,81.85Q52.11,92.2,37,96.9l0,0a39,39,0,0,0-19.6,11.2l30.3,17.65,1-1.7,2-3.95a42.65,42.65,0,0,0,2.4-7A51.69,51.69,0,0,1,60,98.8,38.43,38.43,0,0,1,83.1,83.2l0,0q18-5.55,25.75-19.1l2-3.95a39,39,0,0,0,2.4-7.05l.8-2.35V42a5.83,5.83,0,0,0-3-5.15h0l-5.65-3.3a61.49,61.49,0,0,1-8.35,3.25l0,.05M18.35,24.3l27.5-16h0L60,0l60,35v70L60,140,0,105V35L17.25,25l.05-.05h.05l1-.6m94.9,48-6.55-.8-.75,6.6,6.55.75.75-6.55M114,88.1a49.44,49.44,0,0,1-17,8.8l0,0q-19.15,4.76-27.55,23.2A53.62,53.62,0,0,0,67,127l-.65,2.3,44.75-26.1h0a6.35,6.35,0,0,0,2.2-2.2,5.89,5.89,0,0,0,.8-3v-10M26.1,92.9l4,1,1-4.05-4-.95-1,4M58,72l-7.1,1.1,1,7L59,79l-1-7M18.85,37.7,21.45,41l3.2-2.6L22.1,35.1l-3.25,2.6m33.8-19.45L48.3,19,49,23.3l4.35-.7-.7-4.35M12.1,48l-.85-2.05-2,.9.85,2.1,2-.95m1.5-4,3.85-2.8L14.6,37.4l-3.75,2.8L13.6,44M64.75,122.6l-1.75-4-4,1.85,1.75,4,4-1.85M63.3,105.75l-2-1-1,2,1.9,1,1.15-2M87.2,91l0,4.55H91.8V91H87.2m4.2-4.9-3-1.25-1.2,3,2.9,1.2,1.25-2.9m-14.6,5.4L74.35,97.6,80.5,100,83,93.9,76.8,91.45M58.8,66V61.45H54.2l0,4.55H58.8"/><path class="cls-3" d="M17.3,24.9l1.05-.6-1,.6H17.3"/><path class="cls-4" d="M13.65,42.1l2.4-12.7a2,2,0,0,1,.45-.95l2-2.35a1.39,1.39,0,0,1,.7-.5l.85-.2,7.55.2.9.25.7.6,1.6,2.25.35.9,1.05,7.8,2.1,2.9.35.85,2.9,18.35,0,.85-.4.75-6.55,7.7-.75.55L29,69.5l-12.2-.4-.85-.2-.7-.6-5.8-8a1.82,1.82,0,0,1-.35-1.45l1.75-12.8a1.52,1.52,0,0,1,.45-1l2.4-2.95m1.9.85-2.8,3.35L11,59.1l5.8,8,12.2.4,6.55-7.7-2.9-18.35-2.35-3.3-1.15-8.3-1.6-2.25L20,27.4l-2,2.35L15.55,43"/><path class="cls-5" d="M15.55,43l6.9,5.9,8.6,1.4-.15.15-.1.05v0l-.05,0-.05.05-2.5,2.95-10.5-.3-4.95-7L15.55,43M18,29.75l2-2.35,7.55.2,1.6,2.25,1.15,8.3,2.35,3.3-2.4,2.8-7.45-1.1L23,34,18,29.75"/><path class="cls-6" d="M18,29.75,23,34l-.15,9.2-.35,5.7L15.55,43,18,29.75M16.8,67.1l-5.8-8,1.75-12.8,4.95,7L16.8,67.1"/><path class="cls-7" d="M16.8,67.1l.9-13.85,10.5.3.8,14-12.2-.4M31.05,50.25l-8.6-1.4.35-5.7,7.45,1.1.8,6v0"/><path class="cls-8" d="M31.05,50.25v0l-.8-6,2.4-2.8,2.9,18.35L29,67.5l-.8-14,2.5-2.95.1-.05v-.1l.1-.05.15-.15"/><path class="cls-9" d="M30.7,50.6l.05-.05h.05l-.1.05"/><path class="cls-10" d="M15.8,82.75a3.08,3.08,0,0,1,0,5.8,10,10,0,0,1-5.05,1.2,9.74,9.74,0,0,1-5-1.2c-1.4-.8-2.1-1.77-2.1-2.9s.7-2.1,2.1-2.9a9.74,9.74,0,0,1,5-1.2,10,10,0,0,1,5.05,1.2"/><path class="cls-11" d="M14,71.4a4.81,4.81,0,0,1,1.45,3.4l.2.2a6.79,6.79,0,0,1,2,5,7,7,0,0,1-7.1,7.1,6.79,6.79,0,0,1-5-2,7.15,7.15,0,0,1-.35-9.75V75a4.82,4.82,0,0,1,1.5-3.6,4.82,4.82,0,0,1,3.6-1.5A5,5,0,0,1,14,71.4m-.6,4.35,0-.75a3.07,3.07,0,0,0-3.1-3.1A3.07,3.07,0,0,0,7.25,75l.2,1L7,76.4a5.07,5.07,0,0,0,0,7.2,4.91,4.91,0,0,0,3.6,1.5,4.91,4.91,0,0,0,3.6-1.5,5.07,5.07,0,0,0,0-7.2l-.8-.65"/><path class="cls-12" d="M13.4,75.75l-.85,1.45a3,3,0,0,1-2.2.9,3,3,0,0,1-2.2-.9l-.7-1.15-.2-1a3.07,3.07,0,0,1,3.1-3.1,3.07,3.07,0,0,1,3.1,3.1l0,.75"/><path class="cls-13" d="M13.4,75.75l.8.65a5.07,5.07,0,0,1,0,7.2,4.91,4.91,0,0,1-3.6,1.5A4.91,4.91,0,0,1,7,83.6a5.07,5.07,0,0,1,0-7.2l.45-.35.7,1.15a3,3,0,0,0,2.2.9,3,3,0,0,0,2.2-.9l.85-1.45"/><path class="cls-14" d="M18.5,56.65l.35-.55,2.4-2.8a2.11,2.11,0,0,1,1.1-.65l1.3.15,1.5.75L46.6,28.3a1.8,1.8,0,0,1,1.2-.65l16-2.35,1,.1a2,2,0,0,1,.8.5L68.3,29l5.3-6.3a1.75,1.75,0,0,1,1.1-.7L76,22.1l16,7.45.65.45,15.75,17.1-1.3,1.55-16-17.3-16-7.45L68.35,32l-4.3-4.7L48.1,29.6,25.7,56l.35.2-3.3-1.6-2.4,2.8-1.85-.75M10.5,79V77.15a1.85,1.85,0,0,1,.3-1.05l7.55-11.9v-.3l2,.9L12.5,77.15V80l-2-1"/><path class="cls-15" d="M64.05,27.25l4.3,4.7L80,44.45l.1-.1,11-13,16,17.3,0,.05-30.45,36L60.6,67.35l-6,7.05V69.5l-8-3.75L39,56.85l25.1-29.6M61.5,44.9l-2.9-3.1-2.3,2.8,2.9,3,2.3-2.75m4.85-.85-2.3,2.8,2.9,3,2.3-2.75-2.9-3.1m21,14.3-2.3,2.8L88,64.2l2.3-2.75-2.9-3.1m.2-1.7,3.55-4.2-4.45-4.8L83.05,52l4.5,4.7m-37.9-3,4.5,4.7,3.55-4.2-4.45-4.8-3.6,4.3"/><path class="cls-16" d="M49.65,53.65l3.6-4.3,4.45,4.8-3.55,4.2-4.5-4.7M26.05,56.2,25.7,56,48.1,29.6l15.95-2.35L39,56.85l-8.25,1.5L26.05,56.2m40.3-12.15,2.9,3.1L67,49.9l-2.9-3,2.3-2.8m-4.85.85-2.3,2.75-2.9-3,2.3-2.8,2.9,3.1M87.55,56.65,83.05,52l3.6-4.3,4.45,4.8-3.55,4.2m-.2,1.7,2.9,3.1L88,64.2l-2.9-3.05,2.3-2.8M54.65,69.5l-2.4,2.85-8-3.75,2.35-2.85,8,3.75m-28.3,1.15L22,68.6l-3.6,5.65,4.3,2,3.7-5.6m25.9,9L44.4,92.05,12.5,77.15,20.35,64.8l31.9,14.9"/><path class="cls-17" d="M68.35,32l6.75-8,16,7.45-11,13-.1.1L68.35,32m-21.7,33.8L44.3,68.6l-8-8.6L39,56.85l7.7,8.9"/><path class="cls-18" d="M108.35,47.1l.25.25a2,2,0,0,1,.5,1.35v8l-2,2.3V48.7l0-.05,1.3-1.55M60.6,95.15l-8.35,9.9V102L60.6,92.1v3.05M18.35,63.9V57.4l.15-.75,1.85.75v7.4l-2-.9"/><path class="cls-19" d="M109.1,56.7v6.9a2,2,0,0,1-.45,1.3L78.2,100.85a2.11,2.11,0,0,1-1.1.65l-1.3-.15L61.15,94.5l-.55.65v-3.1l3,1.45,5,2.3,8.05,3.75L107.1,63.6V59l2-2.3"/><path class="cls-20" d="M107.1,48.7V59.05L76.65,94.2V84.65L107.1,48.7M60.6,92.05v0L52.25,102V72.35l2.4-2.85v4.9l6-7.05v24.7m38.25-26,3.75-4.35V58l-3.75,3.8v4.25m-34.8,19.2V82l6,2.5v3.3l-6-2.55m22-7.8v3l2.6-3.05V74.8l-2.6,2.65m-54-13.85,2.25.8,1-1.9,1,2.85L38.5,66.7l-1.65,1,.4,2.75-2-2.15-2,.25.4-2.35L32.05,63.6"/><path class="cls-21" d="M98.85,66.05V61.8L102.6,58v3.7l-3.75,4.35m-12.8,11.4,2.6-2.65v2.55l-2.6,3.05v-3"/><path class="cls-22" d="M107.1,59.05V63.6L76.65,99.55V94.2L107.1,59.05"/><path class="cls-23" d="M64.05,85.25l6,2.55V84.5l-6-2.5v3.25m-3.45,2v-20l16.05,17.3V94.2L60.6,87.3m-8.35-15V79.7L20.35,64.8V57.4l8,3.75,8-1.15,8,8.6,8,3.75m0,10.15V99.1L45.6,96V93.45l6.65-11M32.05,63.6l1.65,2.55-.4,2.35,2-.25,2,2.15-.4-2.75,1.65-1-2.25-1.35-1-2.85-1,1.9-2.25-.8M20.35,84.2v-.55L42.1,93.8l.35.2v.5l-3-1.35L39.25,93l-.75-.3L20.35,84.2"/><path class="cls-24" d="M76.65,99.55,68.6,95.8l-5-2.3-3-1.45V87.3l16.05,6.9v5.35"/><path class="cls-25" d="M20.35,57.4l2.4-2.8,3.3,1.6,4.65,2.15L39,56.85,36.25,60,28.3,61.15,20.35,57.4m31.9,22.3v2.8l-6.65,11-1.2,1.4L42.45,94l-.35-.2L20.35,83.65l-1.5-.7H18.8l-3.15-1.5v0l-1.2-.5L12.5,80v-2.8l31.9,14.9L52.25,79.7m-25.9-9-3.7,5.6-4.3-2L22,68.6l4.4,2.05"/><path class="cls-26" d="M52.25,105.05l-5.9,7-.7.55-.85.15H43.45l-.85-.2L11.65,98.1l-.8-.7a1.89,1.89,0,0,1-.35-1.1V79l2,1V96.3l31,14.45H44.8l7.45-8.8v3.1M20.35,84.2l-1,1.1,0,.1-3.7,4.35v-8.3L18.8,83h.05l1.5.7v.55"/><path class="cls-27" d="M20.35,84.2,38.5,92.7l1,.45,3,1.35v13l-28-13.1,1.2-1.4v-3.2l3.7-4.35,0-.1,1-1.1m-.45,7.35,2.3,1,3.4-4.15-2.2-1-3.5,4.15M21.45,95l2.3,1,3.4-4.15-2.2-1L21.45,95"/><path class="cls-28" d="M21.45,95,25,90.8l2.2,1L23.75,96l-2.3-1m-7-.6,28,13.1V94l1.95.85v15.9h-.95L12.5,96.3V80l1.95.9V94.35m5.45-2.8,3.5-4.15,2.2,1L22.2,92.6l-2.3-1"/><path class="cls-29" d="M39.5,93.15l-1-.45.75.3.25.15"/><path class="cls-30" d="M52.25,99.1V102l-7.45,8.8h-.4V94.85l1.2-1.4V107l6.65-7.85M15.65,81.45V93l-1.2,1.4V80.9l1.2.5v0"/><path class="cls-31" d="M12.5,80l1.95,1L12.5,80v0"/><path class="cls-32" d="M52.25,99.1,45.6,107V96l6.65,3.1"/><path class="cls-10" d="M86.8,113.25a9.72,9.72,0,0,1-5-1.25,3.19,3.19,0,0,1,0-6,10.83,10.83,0,0,1,10.1,0,3.19,3.19,0,0,1,0,6,9.72,9.72,0,0,1-5,1.25"/><path class="cls-13" d="M84.25,98.3V85.5a2.55,2.55,0,0,1,4.35-1.8,2.53,2.53,0,0,1,.7,1.8v6.75l.65,0,.1,0,0-.1v-4a1.44,1.44,0,0,1,.45-1,1.5,1.5,0,0,1,1.1-.45,1.54,1.54,0,0,1,1.5,1.5v4a3.15,3.15,0,0,1-.9,2.25h0a3.08,3.08,0,0,1-2.25.95H89.3V106.9a1.43,1.43,0,0,1-.7,1.2l-1.8.45L85,108.1a1.43,1.43,0,0,1-.75-1.2v-5.55h.35a1.44,1.44,0,0,0,1.05-.45,1.5,1.5,0,0,0,.45-1.1,1.38,1.38,0,0,0-.5-1,1.35,1.35,0,0,0-1-.45h-.3"/><path class="cls-11" d="M84.25,98.3l-.35,0-.1,0v0l0-.1V94.3a1.55,1.55,0,0,0-.45-1.15,1.59,1.59,0,0,0-1.1-.4,1.52,1.52,0,0,0-1,.4,1.55,1.55,0,0,0-.45,1.15v3.85a3.16,3.16,0,0,0,3.2,3.2h.35v5.55a1.43,1.43,0,0,0,.75,1.2l1.8.45,1.8-.45a1.43,1.43,0,0,0,.7-1.2V95.35H90a3.08,3.08,0,0,0,2.25-.95h0a3.15,3.15,0,0,0,.9-2.25v-4a1.54,1.54,0,0,0-1.5-1.5,1.5,1.5,0,0,0-1.1.45,1.44,1.44,0,0,0-.45,1v4l0,.1-.1,0-.65,0V85.5a2.53,2.53,0,0,0-.7-1.8,2.55,2.55,0,0,0-4.35,1.8V98.3m9.9-12.55a3.43,3.43,0,0,1,1,2.45v4A5.15,5.15,0,0,1,93.7,95.8l-.2.2a5.14,5.14,0,0,1-2.2,1.2v9.7a3.22,3.22,0,0,1-1.5,2.85l-.15.1a5.53,5.53,0,0,1-2.85.7,5.27,5.27,0,0,1-2.8-.7l-.1,0a3.21,3.21,0,0,1-1.65-2.9v-3.8a4.75,4.75,0,0,1-2-1.2h0a5.11,5.11,0,0,1-1.55-3.75V94.3a3.38,3.38,0,0,1,1-2.55l.1-.1a3.41,3.41,0,0,1,2.35-.9h0V85.5A4.61,4.61,0,0,1,86.8,81a4.42,4.42,0,0,1,3.25,1.35v0a4.61,4.61,0,0,1,1.2,2.35h.5a3.3,3.3,0,0,1,2.4,1"/><path class="cls-12" d="M84.25,98.3h.3a1.35,1.35,0,0,1,1,.45,1.38,1.38,0,0,1,.5,1,1.5,1.5,0,0,1-.45,1.1,1.44,1.44,0,0,1-1.05.45h-.7a3.16,3.16,0,0,1-3.2-3.2V94.3a1.55,1.55,0,0,1,.45-1.15,1.52,1.52,0,0,1,1-.4,1.59,1.59,0,0,1,1.1.4,1.55,1.55,0,0,1,.45,1.15v3.85l0,.1v0l.1,0,.35,0"/></g></g></svg>