<svg xmlns="http://www.w3.org/2000/svg" viewBox="0 0 120 140"><defs><style>.cls-1{fill:#bb6444;}.cls-2{fill:#c26948;}.cls-3{fill:#b55f40;}.cls-4{fill:#a4afaf;}</style></defs><title>Asset 70</title><g id="Layer_2" data-name="Layer 2"><g id="Layer_1-2" data-name="Layer 1"><path class="cls-1" d="M92.2,29.35l.55-5.25-5.25-.55L87,28.85l5.25.5M82,35.6l2.3,7.25,7.25-2.3L89.2,33.3,82,35.6M59.7,44l-.6-5.3-5.25.65.6,5.25L59.7,44M70,49.6l-4.5,1.55L67,55.6l4.45-1.5L70,49.6M62.2,14l4.85-2.15L64.9,7.05,60,9.2,62.2,14M88.4,52.5l2.15,4.85L95.4,55.2l-2.2-4.9-4.8,2.2m-2.65-.35L76.25,50l-2.1,9.55,9.45,2.1,2.15-9.5m21.3-12.35,5,2,1.85-5-5-1.9-1.9,5m9.2,14.35-5.35-.5-.5,5.3,5.25.5.6-5.3M120,35v70L60,140,0,105V35L60,0l60,35M104.25,67.75l.4-3.7-9.3-1-1.1,9.3,9.3,1,.65-5.6h0m2.8,34.4,5,1.95,1.85-5-5-1.9-1.9,5m-7.2,1.95,4.15-3.35-3.4-4.1L96.5,100l3.35,4.1M62.2,76.4l4.85-2.2L64.9,69.4,60,71.55l2.2,4.85m37.05,7,3-4.3L98,76l-3.1,4.3,4.35,3.1m-34,12.7,9.55,2.55L77.25,89l-9.6-2.5L65.2,96.1M75.9,70.6l-6.2,6.7,6.75,6.2,6.15-6.75L75.9,70.6M82,98l2.3,7.25L91.5,103l-2.3-7.3L82,98M92.2,91.7l.55-5.25L87.5,86,87,91.2l5.25.5m-7.65,29.9,2.15-9.5L77.2,110l-2.1,9.55,9.45,2.1M43.65,25,40,28.8l3.85,3.65L47.5,28.6,43.65,25M5.4,39.7,2.3,44l4.25,3.1,3.1-4.3-4.25-3m59.5,88-.85-5.25-5.2.85.8,5.2,5.25-.8m6.55-11.2L70,112l-4.5,1.55L67,118l4.45-1.55m-46.3-92.9-.55,5.3,5.25.5.55-5.25-5.25-.55m9,14.1,3.35,4.1,4.15-3.35-3.4-4.1-4.1,3.35M26.05,52.5l2.15,4.85L33,55.2l-2.15-4.9-4.8,2.2m12.6,3.2,7.25-2.25L43.6,46.2l-7.2,2.3,2.25,7.2m11.05-14,1.85-5-5-1.9-1.9,5,5.05,2M23.4,52.15,13.9,50l-2.1,9.55,9.45,2.1,2.15-9.5M34.15,100l3.35,4.1,4.15-3.35-3.4-4.1L34.15,100M41.9,67.75l.4-3.7L33,63,31.9,72.3l9.3,1,.65-5.6h0m15.2,9L49.8,78.5l1.7,7.4,7.4-1.75-1.75-7.4h0m-12.45,25.4,5.05,1.95,1.85-5-5-1.9-1.9,5M25.15,86,24.6,91.2l5.25.5.55-5.25L25.15,86M2.8,96.1l9.6,2.55L14.9,89,5.3,86.5,2.8,96.1M7.35,77.3l6.7,6.2,6.2-6.75-6.7-6.15-6.2,6.7M43.6,108.6l-7.2,2.25,2.25,7.25,7.25-2.3-2.3-7.2m-16.35,7.7,4.8-2.15-2.2-4.9-4.75,2.2,2.15,4.85"/><path class="cls-2" d="M92.2,29.35,87,28.85l.55-5.3,5.25.55-.55,5.25M88.4,52.5l4.8-2.2,2.2,4.9-4.85,2.15L88.4,52.5m18.65-12.7,1.9-5,5,1.9-1.85,5-5-2m0,62.35,1.9-5,5,1.9-1.85,5-5-1.95M99.25,83.4,94.9,80.3,98,76l4.3,3.1-3,4.3m-37-7L60,71.55l4.9-2.15,2.15,4.8L62.2,76.4M82,98l7.25-2.3,2.3,7.3-7.25,2.25L82,98m2.6,23.65-9.45-2.1L77.2,110l9.5,2.15-2.15,9.5m-59.4-98,5.25.55-.55,5.25-5.25-.5.55-5.3m.9,29,4.8-2.2L33,55.2l-4.8,2.15L26.05,52.5m-2.65-.35-2.15,9.5-9.45-2.1L13.9,50l9.5,2.15M25.15,86l5.25.5-.55,5.25-5.25-.5L25.15,86m19.5,16.2,1.9-5,5,1.9-1.85,5-5.05-1.95m-1,6.45,2.3,7.2-7.25,2.3-2.25-7.25,7.2-2.25"/><path class="cls-3" d="M62.2,14,60,9.2l4.9-2.15,2.15,4.8L62.2,14M70,49.6l1.5,4.5L67,55.6l-1.55-4.45L70,49.6M59.7,44l-5.25.6-.6-5.25,5.25-.65.6,5.3M82,35.6l7.25-2.3,2.3,7.25-7.25,2.3L82,35.6m3.8,16.55-2.15,9.5-9.45-2.1L76.25,50l9.5,2.15m30.5,2-.6,5.3L110.4,59l.5-5.3,5.35.5m-12,13.6h0l-.65,5.6-9.3-1,1.1-9.3,9.3,1-.4,3.7m-4.4,36.35L96.5,100l4.1-3.35,3.4,4.1-4.15,3.35M75.9,70.6l6.7,6.15L76.45,83.5,69.7,77.3l6.2-6.7M65.2,96.1l2.45-9.6,9.6,2.5-2.5,9.65L65.2,96.1m27-4.4L87,91.2,87.5,86l5.25.5L92.2,91.7M71.45,116.45,67,118l-1.55-4.5L70,112l1.5,4.5m-6.55,11.2-5.25.8-.8-5.2,5.2-.85.85,5.25M5.4,39.7l4.25,3-3.1,4.3L2.3,44,5.4,39.7M43.65,25,47.5,28.6l-3.65,3.85L40,28.8,43.65,25m-9.5,12.7,4.1-3.35,3.4,4.1L37.5,41.75l-3.35-4.1m15.55,4.1-5.05-2,1.9-5,5,1.9-1.85,5m-11.05,14L36.4,48.5l7.2-2.3,2.3,7.25L38.65,55.7m18.45,21h0l1.75,7.4L51.5,85.9l-1.7-7.4,7.3-1.75m-15.2-9h0l-.65,5.6-9.3-1L33,63l9.35,1-.4,3.7M34.15,100l4.1-3.35,3.4,4.1L37.5,104.1,34.15,100M7.35,77.3l6.2-6.7,6.7,6.15-6.2,6.75-6.7-6.2M2.8,96.1l2.5-9.6L14.9,89l-2.5,9.65L2.8,96.1m24.45,20.2-2.15-4.85,4.75-2.2,2.2,4.9-4.8,2.15"/><path class="cls-4" d="M81.9,19.85l-18.85-11A5.91,5.91,0,0,0,60,8a5.63,5.63,0,0,0-3,.85l-14.4,8.4-.85,4.25H35.3l-8.25,4.85L23.5,34l-6.65-1.7L9,36.85A5.55,5.55,0,0,0,6.85,39,5.63,5.63,0,0,0,6,42V98.05a5.57,5.57,0,0,0,.85,3A5.9,5.9,0,0,0,9,103.2l20.75,12.1,5.25-.8.75,4.3L57,131.2a6,6,0,0,0,3,.8,6.26,6.26,0,0,0,3-.8L80.6,121l.9-5,4.65,1.75,4.7-2.75,1.9-6.25,5.75,1.75,12.55-7.3h0a6.35,6.35,0,0,0,2.2-2.2,5.89,5.89,0,0,0,.8-3V76.75L110.75,69,114,60.5V42a5.83,5.83,0,0,0-3-5.15h0l-14.6-8.5L87,27.5l-5.1-7.65M120,35v70L60,140,0,105V35L60,0l60,35"/></g></g></svg>