<svg xmlns="http://www.w3.org/2000/svg" viewBox="0 0 120 140"><defs><style>.cls-1{fill:#bb6444;}.cls-2{fill:#c26948;}.cls-3{fill:#b55f40;}.cls-4{fill:#593269;}.cls-5{fill:#c16ee2;}.cls-6{fill:#79468e;}.cls-7{fill:#9b59b6;}.cls-8{fill:#ecdcb8;}.cls-9{fill:#856a00;}.cls-10{fill:#cba200;}.cls-11{fill:#727979;}.cls-12{fill:#fc0;}.cls-13{fill:#98a3a3;}.cls-14{fill:#ffd738;}.cls-15{fill:#ecbc00;}.cls-16{fill:#d4e2e2;}.cls-17{fill:#e5eeee;}.cls-18{fill:#b9c6c6;}.cls-19{fill:#934e35;}</style></defs><title>Asset 122</title><g id="Layer_2" data-name="Layer 2"><g id="Layer_1-2" data-name="Layer 1"><path class="cls-1" d="M120,105,60,140,0,105V35L60,0l60,35v70M92.75,24.1l-5.25-.55L87,28.85l5.25.5.55-5.25m-8.5,18.75,7.25-2.3L89.2,33.3,82,35.6l2.3,7.25m22.8-3.05,5,2,1.85-5-5-1.9-1.9,5M93.2,50.3l-4.8,2.2,2.15,4.85L95.4,55.2l-2.2-4.9M70,49.6l-4.5,1.55L67,55.6l4.45-1.5L70,49.6M49.7,41.75l1.85-5-5-1.9-1.9,5,5.05,2m4.15-2.45.6,5.25L59.7,44l-.6-5.3-5.25.65m-8,14.15L43.6,46.2l-7.2,2.3,2.25,7.2,7.25-2.25M47.5,28.6,43.65,25,40,28.8l3.85,3.65L47.5,28.6M62.2,14l4.85-2.15L64.9,7.05,60,9.2,62.2,14m0,62.4,4.85-2.2L64.9,69.4,60,71.55l2.2,4.85m-5.05.35h0L49.8,78.5l1.7,7.4,7.4-1.75-1.75-7.4m-15.25-9,.4-3.7L33,63,31.9,72.3l9.3,1,.65-5.6h0m34,2.85-6.2,6.7,6.75,6.2,6.15-6.75L75.9,70.6M51.55,99.1l-5-1.9-1.9,5,5.05,1.95,1.85-5M104.2,67.75h0l.4-3.7-9.3-1-1.1,9.3,9.3,1,.65-5.6m12-13.6-5.35-.5-.5,5.3,5.25.5.6-5.3M67.65,86.5,65.2,96.1l9.55,2.55L77.25,89l-9.6-2.5M89.2,95.65,82,98l2.3,7.25L91.5,103l-2.3-7.3m3.55-9.2L87.5,86,87,91.2l5.25.5.55-5.25M113.9,99.1l-5-1.9-1.9,5,5,1.95,1.85-5m-19-18.8,4.35,3.1,3-4.3L98,76l-3.1,4.3M83.6,61.65l2.15-9.5L76.25,50l-2.1,9.55,9.45,2.1m20.4,39.1-3.4-4.1L96.5,100l3.35,4.1,4.15-3.35M30.4,24.1l-5.25-.55-.55,5.3,5.25.5.55-5.25m7.85,10.2-4.1,3.35,3.35,4.1,4.15-3.35-3.4-4.1M5.4,39.7,2.3,44l4.25,3.1,3.1-4.3-4.25-3m18,12.45L13.9,50l-2.1,9.55,9.45,2.1,2.15-9.5m7.45-1.85-4.8,2.2,2.15,4.85L33,55.2l-2.15-4.9M5.3,86.5,2.8,96.1l9.6,2.55L14.9,89,5.3,86.5m8.25-15.9-6.2,6.7,6.7,6.2,6.2-6.75-6.7-6.15M24.6,91.2l5.25.5.55-5.25L25.15,86,24.6,91.2m2.65,25.1,4.8-2.15-2.2-4.9-4.75,2.2,2.15,4.85m11-19.65L34.15,100l3.35,4.1,4.15-3.35-3.4-4.1m46.3,24.95,2.15-9.5L77.2,110l-2.1,9.55,9.45,2.1M36.4,110.85l2.25,7.25,7.25-2.3-2.3-7.2-7.2,2.25m28.5,16.8-.85-5.25-5.2.85.8,5.2,5.25-.8m6.55-11.2L70,112l-4.5,1.55L67,118l4.45-1.55"/><path class="cls-2" d="M92.75,24.1l-.55,5.25L87,28.85l.55-5.3,5.25.55m.45,26.2,2.2,4.9-4.85,2.15L88.4,52.5l4.8-2.2m13.85-10.5,1.9-5,5,1.9-1.85,5-5-2M62.2,76.4,60,71.55l4.9-2.15,2.15,4.8L62.2,76.4M51.55,99.1l-1.85,5-5.05-1.95,1.9-5,5,1.9M89.2,95.65l2.3,7.3-7.25,2.25L82,98l7.25-2.3M94.9,80.3,98,76l4.3,3.1-3,4.3L94.9,80.3m19,18.8-1.85,5-5-1.95,1.9-5,5,1.9m-83.5-75-.55,5.25-5.25-.5.55-5.3,5.25.55m.45,26.2L33,55.2l-4.8,2.15L26.05,52.5l4.8-2.2M23.4,52.15l-2.15,9.5-9.45-2.1L13.9,50l9.5,2.15M24.6,91.2,25.15,86l5.25.5-.55,5.25-5.25-.5m11.8,19.65,7.2-2.25,2.3,7.2-7.25,2.3-2.25-7.25M84.55,121.6l-9.45-2.1L77.2,110l9.5,2.15-2.15,9.5"/><path class="cls-3" d="M84.25,42.85,82,35.6l7.25-2.3,2.3,7.25-7.25,2.3M62.2,14,60,9.2l4.9-2.15,2.15,4.8L62.2,14M47.5,28.6l-3.65,3.85L40,28.8,43.65,25,47.5,28.6M45.9,53.45,38.65,55.7,36.4,48.5l7.2-2.3,2.3,7.25m8-14.15,5.25-.65.6,5.3-5.25.6-.6-5.25M49.7,41.75l-5.05-2,1.9-5,5,1.9-1.85,5M70,49.6l1.5,4.5L67,55.6l-1.55-4.45L70,49.6m6,21,6.7,6.15L76.45,83.5,69.7,77.3l6.2-6.7m-34-2.85h0l-.65,5.6-9.3-1L33,63l9.35,1-.4,3.7m15.25,9,1.75,7.4L51.5,85.9l-1.7-7.4,7.3-1.75h0m10.5,9.75,9.6,2.5-2.5,9.65L65.2,96.1l2.45-9.6m48.6-32.35-.6,5.3L110.4,59l.5-5.3,5.35.5m-12,13.6-.65,5.6-9.3-1,1.1-9.3,9.3,1-.4,3.7h0M92.75,86.45,92.2,91.7,87,91.2,87.5,86l5.25.5M104,100.75l-4.15,3.35L96.5,100l4.1-3.35,3.4,4.1M83.6,61.65l-9.45-2.1L76.25,50l9.5,2.15-2.15,9.5M5.4,39.7l4.25,3-3.1,4.3L2.3,44,5.4,39.7m32.85-5.4,3.4,4.1L37.5,41.75l-3.35-4.1,4.1-3.35M13.55,70.6l6.7,6.15-6.2,6.75-6.7-6.2,6.2-6.7M5.3,86.5,14.9,89l-2.5,9.65L2.8,96.1l2.5-9.6m33,10.15,3.4,4.1L37.5,104.1,34.15,100l4.1-3.35m-11,19.65-2.15-4.85,4.75-2.2,2.2,4.9-4.8,2.15m44.2.15L67,118l-1.55-4.5L70,112l1.5,4.5m-6.55,11.2-5.25.8-.8-5.2,5.2-.85.85,5.25"/><path class="cls-4" d="M97.7,72.35l6.65-1V49.55l-3.6-10.95-13.3,2.6V62.85l3.15,10.6,3.25-.5v1.6L95,77.05l2.7-.7v-4M87.1,39.25l13.3-2.6a1.76,1.76,0,0,1,1.35.25,1.88,1.88,0,0,1,.9,1.1l3.6,11,.1.6V71.3a2,2,0,0,1-.45,1.3,2.21,2.21,0,0,1-1.25.7l-5,.75v2.3a2.05,2.05,0,0,1-.4,1.25,2.42,2.42,0,0,1-1.1.7l-2.7.7-1.35-.15a1.91,1.91,0,0,1-1-.95l-1.15-2.5,0-.15-1.1.2a2,2,0,0,1-2.2-1.4l-3.15-10.6-.1-.6V41.2A1.92,1.92,0,0,1,85.9,40a1.74,1.74,0,0,1,1.2-.7"/><path class="cls-5" d="M90.6,51.9,87.45,41.2l13.3-2.6,3.6,10.95L90.6,51.9"/><path class="cls-6" d="M87.45,41.2,90.6,51.9V73.45l-3.15-10.6V41.2"/><path class="cls-7" d="M90.6,51.9l13.75-2.35V71.3l-6.65,1-3.85.6-3.25.5V51.9"/><path class="cls-8" d="M97.7,72.35v4l-2.7.7-1.15-2.5V73l3.85-.6"/><path class="cls-4" d="M40.6,52.45V63a2,2,0,0,1-.55,1.4l-5.2,5.5v.6l-.15.8-.45.65-2,1.85-1,.5-1.1,0-2.1-.8-1-.75a2.15,2.15,0,0,1-.35-1.15V70.15l-5.15-2.5-.85-.75a2,2,0,0,1-.3-1.05V55.05a1.89,1.89,0,0,1,.5-1.3l6.25-7a2.11,2.11,0,0,1,1.1-.65l1.25.15,9.85,4.45a1.78,1.78,0,0,1,.85.75l.3,1.05m-2,0L28.75,48l-6.25,7v10.8l6.3,3.05v2.6l2.1.8,2-1.85v-1.4L38.6,63V52.45"/><path class="cls-5" d="M38.6,52.45,32,59.55l-9.45-4.5,6.25-7,9.85,4.45"/><path class="cls-7" d="M22.5,55.05,32,59.55l-.25,10.7L28.8,68.9l-6.3-3.05V55.05"/><path class="cls-8" d="M32.85,69.05v1.4l-2,1.85-2.1-.8V68.9l2.9,1.35,1.15-1.2"/><path class="cls-6" d="M32.85,69.05l-1.15,1.2L32,59.55l6.65-7.1V63l-5.75,6.1"/><path class="cls-9" d="M83.4,35.1l-2,2.4V31.7l-27-12.6-16.9,20v5.75l-2-1V39.1a1.89,1.89,0,0,1,.5-1.3l16.9-20a1.87,1.87,0,0,1,1.1-.65l1.25.15,27,12.6.85.75.3,1.05v3.4M81.4,47l2-2.4V45.7l4.5,2.15.7.6L94,55.25a1.83,1.83,0,0,1,.4,1.2v3l-2,2.45v-5.5L87,49.65,81.4,47M37.5,73.2v.15L27,85.7v3.5l-2-1V85.7a1.89,1.89,0,0,1,.5-1.3L35.5,72.6v-.4l2,1"/><path class="cls-10" d="M81.4,31.7v5.8L73,47.4V41.8l8.4-10.1M92.35,56.45v5.6L83.9,72.15v-5.6l8.45-10.1M50.9,79.75v3.5L40.35,95.65v-3.5L50.9,79.75"/><path class="cls-11" d="M81.4,37.5l2-2.4v9.45l-2,2.4V37.5M35.5,43.85l2,1V73.2l-2-1V43.85M92.35,62l2-2.45V81.6l-.45,1.3L85.45,93.05a2.11,2.11,0,0,1-1.1.65l-1.3-.15-10.3-4.9L52,92.1,41.9,104a2.11,2.11,0,0,1-1.1.65l-1.3-.1L26.1,98.3l-.8-.75a1.89,1.89,0,0,1-.35-1.1v-8.2l2,1v7.25l13.4,6.2L50.9,90.25,64.35,88l6.25-1,2.4-.4,10.9,5.2L92.35,81.6V62"/><path class="cls-12" d="M37.5,39.1l16.9-20,27,12.6L73,41.8,50.9,45.5,37.5,39.1M81.4,47l5.6,2.7-8.45,10.1L73,57.1,81.4,47M37.5,73.35l13.4,6.4L40.35,92.15,27,85.7,37.5,73.35"/><path class="cls-13" d="M81.4,37.5V47L73,57.1V47.4l8.4-9.9M50.9,83.25v7l-10.55,12.4v-7L50.9,83.25m33-11.1,8.45-10.1V81.6L83.9,91.75V72.15"/><path class="cls-14" d="M87,49.65l5.35,6.8L83.9,66.55l-5.35-6.8L87,49.65M73,47.4,50.9,51.3V45.5L73,41.8v5.6"/><path class="cls-15" d="M37.5,44.85V39.1l13.4,6.4v5.8L37.5,44.9v0M73,57.1l5.55,2.65,5.35,6.8v5.6L73,67V57.1M40.35,92.15v3.5L27,89.25V85.7l13.4,6.45"/><path class="cls-16" d="M50.9,51.3,73,47.4V86.55l-2.4.4v-8L64.35,80v8L50.9,90.25V51.3m2.55,2.55v17L70.6,68V50.85l-17.15,3"/><path class="cls-17" d="M53.45,53.85l17.15-3V68l-17.15,2.9v-17"/><path class="cls-18" d="M37.5,44.9l13.4,6.4V79.75l-13.4-6.4V44.9M64.35,88V80l6.25-1.1v8l-6.25,1M73,86.55V67l10.9,5.15v19.6L73,86.55m-32.65,9.1v7L27,96.45v-7.2l13.4,6.4"/><path class="cls-19" d="M56.8,104.3l1.35,2.2-3.6,1-1.35-2.2,3.6-1m11.9,2.8-5.85,1.55-2.15-3.5,5.85-1.55,2.15,3.5m.75,1,5.25-1.4,1.9,3.15-5.25,1.4-1.9-3.15m-4.2-11.9-3.65.95L60.25,95l3.65-1,1.35,2.15M73,96.7l2.7,4.4-7.35,2-2.7-4.4,7.35-2M52.6,98.85,59,97.15l2.3,3.8-6.35,1.7-2.3-3.8"/></g></g></svg>