<svg xmlns="http://www.w3.org/2000/svg" xmlns:xlink="http://www.w3.org/1999/xlink" viewBox="0 0 120 140"><defs><style>.cls-1{fill:url(#linear-gradient);}.cls-2{fill:#27ae60;}.cls-3{fill:url(#linear-gradient-2);}.cls-4{fill:url(#linear-gradient-3);}.cls-5{fill:url(#linear-gradient-4);}.cls-6{fill:url(#linear-gradient-5);}.cls-7{fill:url(#linear-gradient-6);}.cls-8{fill:url(#linear-gradient-7);}.cls-9{fill:url(#linear-gradient-8);}.cls-10{fill:url(#linear-gradient-9);}.cls-11{fill:url(#linear-gradient-10);}.cls-12{fill:url(#linear-gradient-11);}.cls-13{fill:url(#linear-gradient-12);}.cls-14{fill:url(#linear-gradient-13);}.cls-15{fill:url(#linear-gradient-14);}.cls-16{fill:url(#linear-gradient-15);}.cls-17{fill:#5a6b6b;}.cls-18{fill:#a4afaf;}.cls-19{fill:#879393;}.cls-20{fill:#b5c2c2;}.cls-21{fill:#115f32;}.cls-22{fill:#168344;}.cls-23{fill:#10773c;}.cls-24{fill:#1b914d;}</style><linearGradient id="linear-gradient" x1="-2639.2" y1="30.38" x2="-1000.8" y2="30.38" gradientTransform="matrix(0, 0, 0, 0, 95.07, 23.1)" gradientUnits="userSpaceOnUse"><stop offset="0" stop-color="#27ae60"/><stop offset="1" stop-color="#30c26d"/></linearGradient><linearGradient id="linear-gradient-2" x1="-2639.2" y1="81.92" x2="-1000.8" y2="81.92" gradientTransform="matrix(0, 0, 0, 0, 88.17, 74.65)" xlink:href="#linear-gradient"/><linearGradient id="linear-gradient-3" x1="-2639.2" y1="98.08" x2="-1000.8" y2="98.08" gradientTransform="matrix(0, 0, 0, 0, 110.57, 90.8)" xlink:href="#linear-gradient"/><linearGradient id="linear-gradient-4" x1="-2639.2" y1="26.2" x2="-1000.8" y2="26.2" gradientTransform="matrix(0, 0, 0, 0, 61.07, 18.95)" xlink:href="#linear-gradient"/><linearGradient id="linear-gradient-5" x1="-2639.2" y1="37.68" x2="-1000.8" y2="37.68" gradientTransform="matrix(0, 0, 0, 0, 50.84, 28.76)" xlink:href="#linear-gradient"/><linearGradient id="linear-gradient-6" x1="-2639.2" y1="48.02" x2="-1000.8" y2="48.02" gradientTransform="matrix(0, 0, 0, 0, 65.99, 39.3)" xlink:href="#linear-gradient"/><linearGradient id="linear-gradient-7" x1="-2639.2" y1="49.52" x2="-1000.8" y2="49.52" gradientTransform="matrix(0, 0, 0, 0, 17.34, 40.8)" xlink:href="#linear-gradient"/><linearGradient id="linear-gradient-8" x1="-2639.2" y1="62.42" x2="-1000.8" y2="62.42" gradientTransform="matrix(0, 0, 0, 0, 29.72, 55.15)" xlink:href="#linear-gradient"/><linearGradient id="linear-gradient-9" x1="-2639.2" y1="54.18" x2="-1000.8" y2="54.18" gradientTransform="matrix(0, 0, 0, 0, 42.17, 46.9)" xlink:href="#linear-gradient"/><linearGradient id="linear-gradient-10" x1="-2639.2" y1="102.17" x2="-1000.8" y2="102.17" gradientTransform="matrix(0, 0, 0, 0, 19.59, 93.45)" xlink:href="#linear-gradient"/><linearGradient id="linear-gradient-11" x1="-2639.2" y1="89.17" x2="-1000.8" y2="89.17" gradientTransform="matrix(0, 0, 0, 0, 74.67, 81.9)" xlink:href="#linear-gradient"/><linearGradient id="linear-gradient-12" x1="-2639.2" y1="106.58" x2="-1000.8" y2="106.58" gradientTransform="matrix(0, 0, 0, 0, 61.84, 97.85)" xlink:href="#linear-gradient"/><linearGradient id="linear-gradient-13" x1="-2639.2" y1="121.33" x2="-1000.8" y2="121.33" gradientTransform="matrix(0, 0, 0, 0, 77.44, 112.6)" xlink:href="#linear-gradient"/><linearGradient id="linear-gradient-14" x1="-2639.2" y1="119.17" x2="-1000.8" y2="119.17" gradientTransform="matrix(0, 0, 0, 0, 62.07, 111.9)" xlink:href="#linear-gradient"/><linearGradient id="linear-gradient-15" x1="-2639.2" y1="116.92" x2="-1000.8" y2="116.92" gradientTransform="matrix(0, 0, 0, 0, 49.84, 108.2)" xlink:href="#linear-gradient"/></defs><title>Asset 15</title><g id="Layer_2" data-name="Layer 2"><g id="Layer_1-2" data-name="Layer 1"><path class="cls-1" d="M95,31.4v.45l-.7,1.8H89.4l-1-3a.42.42,0,0,1,0-.35V30.2a.3.3,0,0,1,.25-.15h.35l1.35.55,1-3.15.15-.25.3-.1.25.1.15.25.85,4.15,1.25-.4h.3l.25.2"/><path class="cls-2" d="M95,31.4l-.25-.2h-.3l-1.25.4-.85-4.15-.15-.25-.25-.1-.3.1-.15.25-1,3.15-1.35-.55h-.35a.3.3,0,0,0-.25.15v.05a.42.42,0,0,0,0,.35l1,3h4.85l.7-1.8V31.4M88.05,83l-.25-.2h-.3l-1.25.4L85.4,79l-.15-.25-.25-.1-.3.1-.15.25-1,3.15L82.2,81.6h-.35a.3.3,0,0,0-.25.15v0a.42.42,0,0,0,0,.35l1,3h4.85l.7-1.8V83m19.6,12-.25-.1-.3.1a.3.3,0,0,0-.15.25l-1,3.15-1.35-.55h-.35a.3.3,0,0,0-.25.15v0a.42.42,0,0,0,0,.35l1,3h4.85l.7-1.8V99.1l-.25-.2h-.3l-1.25.4-.85-4.15-.15-.25M120,105,60,140,0,105V35L60,0l60,35v70M58,23.25,57.85,23l-.3-.1-.3.15-.15.25-.8,4.1L55.05,27l-.3.05-.25.2v.45l.7,1.8h4.85l.9-3.1v-.35l-.25-.2h-.35L59,26.4l-1-3.15m-9.65,10.4-.25.15-2,2.85-2.85-1H43l-.2.2,0,0v.35L44,39.35l-1.55.45-.25.2-.1.35.1.1.1.15,1.6,1.1h6l1.45-3.15.05,0,0-.25-.1-.15,0-.1L51,37.85l-1.65-.3-.4-3.5-.1-.25-.25-.15h-.25M60,44l-.25.15-.1.25-.35,3.5-1.7.35-.25.1-.05.1,0,.2v.25h0l1.45,3.15h6l1.6-1,.15-.15,0-.15,0-.3-.3-.25-1.5-.4,1.2-3.15v-.35l-.05,0-.2-.2H65.3l-2.8,1-2-2.85-.25-.15L60,44M17.25,48.1v-.35l-.05,0-.2-.2h-.35l-2.8,1-2-2.85a.3.3,0,0,0-.25-.15l-.25,0-.25.15-.1.25-.35,3.5L9,49.75l-.25.1,0,.1-.05.2v.25h.05l1.45,3.15h6l1.6-1,.15-.15,0-.15,0-.3-.3-.25-1.5-.4,1.2-3.15m5.9,14.15v0a.42.42,0,0,0,0,.35l.95,3.05H28.9l.7-1.8v-.45l-.25-.2h-.3l-1.25.4L27,59.5l-.15-.25-.25-.1-.3.1-.15.25-1,3.15-1.35-.55H23.4a.3.3,0,0,0-.25.15m12.7-8.4a.3.3,0,0,0-.25.15v0a.42.42,0,0,0-.05.35l1,3.05h4.85l.7-1.8V55.2L41.8,55h-.3l-1.25.4-.85-4.15L39.25,51,39,50.9l-.3.1-.15.25-1,3.15-1.35-.55h-.35M13.6,98.15l-.25.15-.1.25-.35,3.5-1.7.35-.25.1,0,.1-.05.2v.25h.05l1.45,3.15h6l1.6-1,.15-.15,0-.15,0-.3-.3-.25-1.5-.4,1.2-3.15v-.35l-.05-.05-.2-.2H18.9l-2.8,1-2-2.85a.3.3,0,0,0-.25-.15l-.25,0M71.75,86l-.25-.1-.3.1-.15.25-1,3.15-1.35-.55h-.35a.3.3,0,0,0-.25.15v0a.42.42,0,0,0,0,.35l1,3h4.85l.7-1.8V90.2L74.3,90H74l-1.25.4-.85-4.15L71.75,86M56.1,102.6l-.25,0-.25.15-.1.25-.35,3.5-1.7.35-.25.1-.05.1,0,.2v.25h0l1.45,3.15h6l1.6-1,.15-.15,0-.15,0-.3-.3-.25-1.5-.4,1.2-3.15v-.35l0,0-.2-.2h-.35l-2.8,1-2-2.85-.25-.15M78,124.15l0-.15,0-.3-.3-.25-1.5-.4,1.2-3.15v-.35l0,0-.2-.2h-.35l-2.8,1-2-2.85-.25-.15-.25,0-.25.15-.1.25-.35,3.5-1.7.35-.25.1,0,.1,0,.2v.25h0l1.45,3.15h6l1.6-1,.15-.15M58.6,116l-.15.25-1,3.15-1.35-.55h-.35a.3.3,0,0,0-.25.15v0a.42.42,0,0,0,0,.35l.95,3h4.85l.7-1.8v-.45l-.25-.2h-.3l-1.25.4-.85-4.15-.15-.25-.25-.1-.3.1m-8.85-.85,0-.05-.2-.2h-.35l-2.8,1-2-2.85L44.1,113l-.25,0-.25.15-.1.25-.35,3.5-1.7.35-.25.1-.05.1,0,.2v.25h0L42.6,121h6l1.6-1,.15-.15,0-.15,0-.3-.3-.25-1.5-.4,1.2-3.15v-.35"/><path class="cls-3" d="M88.05,83v.45l-.7,1.8H82.5l-1-3a.42.42,0,0,1,0-.35v0a.3.3,0,0,1,.25-.15h.35l1.35.55,1-3.15.15-.25.3-.1.25.1.15.25.85,4.15,1.25-.4h.3l.25.2"/><path class="cls-4" d="M107.65,94.9l.15.25.85,4.15,1.25-.4h.3l.25.2v.45l-.7,1.8H104.9l-1-3a.42.42,0,0,1,0-.35v0a.3.3,0,0,1,.25-.15h.35l1.35.55,1-3.15a.3.3,0,0,1,.15-.25l.3-.1.25.1"/><path class="cls-5" d="M58,23.25l1,3.15,1.4-.55h.35l.25.2v.35l-.9,3.1H55.2l-.7-1.8v-.45l.25-.2.3-.05,1.25.4.8-4.1.15-.25.3-.15.3.1.15.25"/><path class="cls-6" d="M48.35,33.65h.25l.25.15.1.25.4,3.5,1.65.3.25.15,0,.1.1.15,0,.25-.05,0L49.85,41.7h-6l-1.6-1.1-.1-.15-.1-.1.1-.35.25-.2L44,39.35l-1.25-3.1V35.9l0,0,.2-.2h.35l2.85,1,2-2.85.25-.15"/><path class="cls-7" d="M60,44l.25,0,.25.15,2,2.85,2.8-1h.35l.2.2.05,0v.35l-1.2,3.15,1.5.4.3.25,0,.3,0,.15-.15.15-1.6,1h-6L57.3,48.9h0v-.25l0-.2.05-.1.25-.1,1.7-.35.35-3.5.1-.25L60,44"/><path class="cls-8" d="M17.25,48.1l-1.2,3.15,1.5.4.3.25,0,.3,0,.15-.15.15-1.6,1h-6L8.65,50.4H8.6v-.25l.05-.2,0-.1.25-.1,1.7-.35L11,45.9l.1-.25.25-.15.25,0a.3.3,0,0,1,.25.15l2,2.85,2.8-1H17l.2.2.05,0v.35"/><path class="cls-9" d="M23.15,62.25a.3.3,0,0,1,.25-.15h.35l1.35.55,1-3.15.15-.25.3-.1.25.1.15.25.85,4.15,1.25-.4h.3l.25.2v.45l-.7,1.8H24.05l-.95-3.05a.42.42,0,0,1,0-.35v0"/><path class="cls-10" d="M35.85,53.85h.35l1.35.55,1-3.15L38.7,51l.3-.1.25.1.15.25.85,4.15L41.5,55h.3l.25.2v.45l-.7,1.8H36.5l-1-3.05a.42.42,0,0,1,.05-.35v0a.3.3,0,0,1,.25-.15"/><path class="cls-11" d="M13.6,98.15l.25,0a.3.3,0,0,1,.25.15l2,2.85,2.8-1h.35l.2.2.05.05v.35l-1.2,3.15,1.5.4.3.25,0,.3,0,.15-.15.15-1.6,1h-6l-1.45-3.15h-.05v-.25l.05-.2,0-.1.25-.1,1.7-.35.35-3.5.1-.25.25-.15"/><path class="cls-12" d="M71.75,86l.15.25.85,4.15L74,90h.3l.25.2v.45l-.7,1.8H69l-1-3a.42.42,0,0,1,0-.35v0a.3.3,0,0,1,.25-.15h.35l1.35.55,1-3.15L71.2,86l.3-.1.25.1"/><path class="cls-13" d="M56.1,102.6l.25.15,2,2.85,2.8-1h.35l.2.2,0,0v.35l-1.2,3.15,1.5.4.3.25,0,.3,0,.15-.15.15-1.6,1h-6l-1.45-3.15h0v-.25l0-.2.05-.1.25-.1,1.7-.35.35-3.5.1-.25.25-.15.25,0"/><path class="cls-14" d="M78,124.15l-.15.15-1.6,1h-6l-1.45-3.15h0V122l0-.2,0-.1.25-.1,1.7-.35.35-3.5.1-.25.25-.15.25,0,.25.15,2,2.85,2.8-1h.35l.2.2,0,0v.35l-1.2,3.15,1.5.4.3.25,0,.3,0,.15"/><path class="cls-15" d="M58.6,116l.3-.1.25.1.15.25.85,4.15,1.25-.4h.3l.25.2v.45l-.7,1.8H56.4l-.95-3a.42.42,0,0,1,0-.35v0a.3.3,0,0,1,.25-.15h.35l1.35.55,1-3.15.15-.25"/><path class="cls-16" d="M49.75,115.15v.35l-1.2,3.15,1.5.4.3.25,0,.3,0,.15-.15.15-1.6,1h-6l-1.45-3.15h0v-.25l0-.2.05-.1.25-.1,1.7-.35.35-3.5.1-.25.25-.15.25,0,.25.15,2,2.85,2.8-1h.35l.2.2,0,.05"/><path class="cls-17" d="M79.15,43.05l-3.3-4.6L74.2,26.8,72,23.6l-10.6-.3-2.8,3.35L55.05,45.2l-3.9,4.7-2.45,18,8.1,11.25L74,79.7l9.2-10.85-4-25.8M72.9,21.85l.7.6,2.25,3.2.35.9,1.55,11.1,3,4.25.35.85,4,25.8,0,.85-.4.75L75.55,81l-.75.55L74,81.7l-17.2-.55L55.9,81l-.7-.6L47.1,69.1a1.82,1.82,0,0,1-.35-1.45l2.45-18a1.69,1.69,0,0,1,.4-1l3.6-4.3,3.4-18,.45-.9,2.8-3.35.7-.55.85-.2,10.6.3.9.25M76.4,56l0-.1,0,0-.1.05m.1-.15,0,0v0h0"/><path class="cls-18" d="M76.5,55.8l0,.05,0,.1L72.9,60.1l-14.8-.45-7-9.75,3.9-4.7,9.7,8.3,12.1,2-.2.2-.1.1,0,0m-18-29.15,2.8-3.35,10.6.3,2.25,3.2,1.65,11.65,3.3,4.6-3.4,4L65.3,45.45l.15-12.9-6.9-5.9"/><path class="cls-19" d="M58.55,26.65l6.9,5.9-.15,12.9-.55,8-9.7-8.3,3.5-18.55m20.6,16.4,4,25.8L74,79.7,72.9,60.1,76.4,56l.1-.05,0-.1v0l.1-.1.2-.2V55.4l-1.1-8.35,3.4-4M56.8,79.15,48.7,67.9l2.45-18,7,9.75-1.3,19.5"/><path class="cls-20" d="M56.8,79.15l1.3-19.5,14.8.45L74,79.7l-17.2-.55m8.5-33.7,10.45,1.6,1.1,8.35v.05l-12.1-2,.55-8"/><path class="cls-18" d="M32.55,61.45l-8.5,3.35L23.9,79.7l-12.7-6L16,61l.35-7.15,8.5-3.3L33,54.3l-.4,7.15"/><path class="cls-17" d="M33,54.3l-8.1-3.75-8.5,3.3L11.8,62.6l-.6,11.1,12.7,6,13.3-5.2.5-11.1L33,54.3m-8-5.75.75.2,8.1,3.75,1,.9,4.75,9.1.2,1-.5,11.1-.35,1.1-.9.7-13.3,5.2-.8.1-.8-.2-12.7-6-.85-.75a1.86,1.86,0,0,1-.3-1.15l.6-11.1a2,2,0,0,1,.25-.8L14.6,53a1.66,1.66,0,0,1,1.05-1l8.5-3.3.8-.15"/><path class="cls-19" d="M16.35,53.85,16,61,11.2,73.7l.6-11.1,4.55-8.75m16.2,7.6L33,54.3l4.75,9.1-.5,11.1-4.65-13"/><path class="cls-20" d="M32.55,61.45l4.65,13L23.9,79.7l.15-14.9,8.5-3.35"/><path class="cls-17" d="M69,93.85l-6,2.05-.55,6.55,9.15,8.6,11.55-3.5L80.55,92.9l-5.3-.1-6.25,1M62.4,94l5.95-2,.35,0L75,90.85l.35,0,5.3.1a1.82,1.82,0,0,1,1.25.5,2,2,0,0,1,.7,1.15L85.2,107.2a2,2,0,0,1-.3,1.4l-1.1.9L72.25,113h-1l-.9-.5-9.15-8.6-.5-.7a1.79,1.79,0,0,1-.15-.9l.55-6.55a1.72,1.72,0,0,1,.45-1,1.82,1.82,0,0,1,.9-.7"/><path class="cls-19" d="M62.5,102.45l.55-6.55,6-2.05,0,1.35-6.45,7.25M75.25,92.8l5.3.1,2.65,14.65-6.85-8.8-1.1-6"/><path class="cls-18" d="M75.25,92.8l1.1,6-2.7.85-2,11.45-9.15-8.6L69,95.2l0-1.35,6.25-1"/><path class="cls-20" d="M83.2,107.55l-11.55,3.5,2-11.45,2.7-.85,6.85,8.8"/><path class="cls-21" d="M87.3,85.2l1.5-.55,0-.05,12.65-5-3.6-4.35,1-.35L96.9,70l-.4.15,1.75-.7-9.1-19.75L83.05,65.1l.75,1.05.25.3h0l-.2-.3-3,3.4,2,2.75-2.3,3.3,6.8,9.6m2.55-37.4A2,2,0,0,1,91,48.85l9.1,19.75.15,1.05-.4.95-.4.4,1.2,3.2a1.85,1.85,0,0,1,0,1.35l2.3,2.8a2,2,0,0,1,.45,1.15,2.07,2.07,0,0,1-.3,1.2l-.95.75-14.1,5.6-1.3.1-1-.8-6.8-9.6a1.77,1.77,0,0,1-.4-1.15,2,2,0,0,1,.35-1.15l1.5-2.15-1.1-1.6a1.73,1.73,0,0,1-.4-1.25,1.92,1.92,0,0,1,.5-1.2l2-2.2-.2-.7a1.54,1.54,0,0,1,.1-.95L87.3,49a1.82,1.82,0,0,1,1-1.1l1.5-.05"/><path class="cls-22" d="M89.15,49.65l-.4,23.5L96.5,70.1l.4-.15,1.85,5-1,.35-9.7,3.8-.8,6.15-6.8-9.6,2.3-3.3,5,6.9.65-6.55V72.6l-4.35-6.15-.25-.3-.75-1.05,6.1-15.45"/><path class="cls-23" d="M84.05,66.45,88.4,72.6v.05l-.65,6.55-5-6.9-2-2.75,3-3.4.2.3h0"/><path class="cls-24" d="M96.5,70.1l-7.75,3.05.4-23.5,9.1,19.75-1.75.7M87.3,85.2l.8-6.15,9.7-3.8,3.6,4.35-12.65,5,0,.05-1.5.55"/></g></g></svg>