<svg xmlns="http://www.w3.org/2000/svg" viewBox="0 0 120 140"><defs><style>.cls-1{fill:#ecdcb8;}.cls-2{fill:#e5d5b2;}.cls-3{fill:#e0d1af;}</style></defs><title>Asset 49</title><g id="Layer_2" data-name="Layer 2"><g id="Layer_1-2" data-name="Layer 1"><path class="cls-1" d="M18.35,24.3l27.5-16h0L60,0l60,35v70L60,140,0,105V35L17.25,25l.05-.05h.05l1-.6M97.1,36.85Q77.94,41.61,69.55,60.1A53.62,53.62,0,0,0,67,67a43.55,43.55,0,0,1-4.4,11L60,81.85Q52.11,92.2,37,96.9l0,0a39,39,0,0,0-19.6,11.2l30.3,17.65,1-1.7,2-3.95a42.65,42.65,0,0,0,2.4-7A51.69,51.69,0,0,1,60,98.8,38.43,38.43,0,0,1,83.1,83.2l0,0q18-5.55,25.75-19.1l2-3.95a39,39,0,0,0,2.4-7.05l.8-2.35V42a5.83,5.83,0,0,0-3-5.15h0l-5.65-3.3a61.49,61.49,0,0,1-8.35,3.25l0,.05M112.5,78.8l.75-6.55-6.55-.8-.75,6.6,6.55.75M111,103.2a6.35,6.35,0,0,0,2.2-2.2,5.89,5.89,0,0,0,.8-3v-10a49.44,49.44,0,0,1-17,8.8l0,0q-19.15,4.76-27.55,23.2A53.62,53.62,0,0,0,67,127l-.65,2.3,44.75-26.1h0M85.85,22.15,65.9,10.5a44.83,44.83,0,0,1-3.35,7.35L60,21.75q-7.85,10.35-23,15l0,.05Q17.9,41.61,9.5,60.1A60.49,60.49,0,0,0,6.85,67L6,69.9v22a39.28,39.28,0,0,1,17-8.7l-.05,0q18-5.55,25.8-19.1l2-3.95a44.24,44.24,0,0,0,2.4-7.05A51.77,51.77,0,0,1,60,38.75,38.37,38.37,0,0,1,83.1,23.1l0-.05,2.8-.9M63,118.6l-4,1.85,1.75,4,4-1.85-1.75-4m11.35-21L80.5,100,83,93.9,76.8,91.45,74.35,97.6m14.1-12.8-1.2,3,2.9,1.2,1.25-2.9-3-1.25m-1.2,10.7H91.8V91H87.2l0,4.55M61.3,104.75l-1,2,1.9,1,1.15-2-2-1m-9.4-24.7L59,79l-1-7-7.1,1.1,1,7m6.9-18.6H54.2l0,4.55H58.8V61.45M31.35,88.35l6.55,3.5,3.6-6.65-6.6-3.55-3.55,6.7m-4.25.55-1,4,4,1,1-4.05-4-.95M13.6,44l3.85-2.8L14.6,37.4l-3.75,2.8L13.6,44m-1.5,4-.85-2.05-2,.9.85,2.1,2-.95m12.55-9.6L22.1,35.1l-3.25,2.6L21.45,41l3.2-2.6m51.05,4.7,3.15.4.45-3.1-3.2-.45-.4,3.15M53.35,22.6l-.7-4.35L48.3,19,49,23.3l4.35-.7m29.2,8.5c-1.33.63-2.67,1.25-4,1.85l1.75,4,4-1.85-1.75-4"/><path class="cls-2" d="M82.55,31.1l1.75,4L80.3,37l-1.75-4c1.33-.6,2.67-1.22,4-1.85M97.1,36.85l0-.05a61.49,61.49,0,0,0,8.35-3.25l5.65,3.3h0A5.83,5.83,0,0,1,114,42v8.7l-.8,2.35a39,39,0,0,1-2.4,7.05l-2,3.95Q101,77.6,83.05,83.15l0,0A38.43,38.43,0,0,0,60,98.8a51.69,51.69,0,0,0-6.8,14.35,42.65,42.65,0,0,1-2.4,7l-2,3.95-1,1.7-30.3-17.65A39,39,0,0,1,37.05,97l0,0q15.11-4.7,23-15.05l2.6-3.9A43.55,43.55,0,0,0,67,67a53.62,53.62,0,0,1,2.6-6.85Q78,41.61,97.1,36.85M112.5,78.8,106,78.05l.75-6.6,6.55.8-.75,6.55M85.85,22.15l-2.8.9,0,.05A38.37,38.37,0,0,0,60,38.75a51.77,51.77,0,0,0-6.8,14.3,44.24,44.24,0,0,1-2.4,7.05l-2,3.95Q40.95,77.6,23,83.15l.05,0A39.28,39.28,0,0,0,6,91.9v-22l.85-3A60.49,60.49,0,0,1,9.5,60.1q8.4-18.49,27.55-23.25l0-.05q15.11-4.69,23-15l2.6-3.9A44.83,44.83,0,0,0,65.9,10.5L85.85,22.15M111,103.2h0L66.3,129.3,67,127a53.62,53.62,0,0,1,2.6-6.85Q78,101.7,97.1,97l0,0a49.44,49.44,0,0,0,17-8.8v10a5.89,5.89,0,0,1-.8,3,6.35,6.35,0,0,1-2.2,2.2M53.35,22.6,49,23.3,48.3,19l4.35-.7.7,4.35M75.7,43.05l.4-3.15,3.2.45-.45,3.1-3.15-.4m-51.05-4.7L21.45,41l-2.6-3.25,3.25-2.6,2.55,3.25M12.1,48l-2,.95-.85-2.1,2-.9L12.1,48m1.5-4L10.85,40.2l3.75-2.8,2.85,3.75L13.6,44m13.5,45,4,.95-1,4.05-4-1,1-4m4.25-.55,3.55-6.7,6.6,3.55-3.6,6.65-6.55-3.5M58.8,61.45V66H54.25l0-4.55h4.6m-6.9,18.6-1-7L58,72l1,7-7.1,1.1m9.4,24.7,2,1-1.15,2-1.9-1,1-2m26-9.25,0-4.55h4.6V95.5H87.25m1.2-10.7,3,1.25L90.15,89l-2.9-1.2,1.2-3M74.35,97.6l2.45-6.15L83,93.9,80.5,100l-6.15-2.4M63,118.6l1.75,4-4,1.85-1.75-4,4-1.85"/><path class="cls-3" d="M17.3,24.9l1.05-.6-1,.6H17.3"/></g></g></svg>