<svg xmlns="http://www.w3.org/2000/svg" viewBox="0 0 120 140"><defs><style>.cls-1{fill:#bb6444;}.cls-2{fill:#c26948;}.cls-3{fill:#b55f40;}.cls-4{fill:#727979;}.cls-5{fill:#d5e5e5;}.cls-6{fill:#b9c6c6;}.cls-7{fill:#a6b1b1;}.cls-8{fill:#cad9d9;}.cls-9{fill:#fc0;}.cls-10{fill:#ecbc00;}.cls-11{fill:#cba200;}.cls-12{fill:#d97cff;}.cls-13{fill:#8c9595;}.cls-14{fill:#9b59b6;}.cls-15{fill:#593269;}.cls-16{fill:#79468e;}.cls-17{fill:#c16ee2;}.cls-18{fill:#ecdcb8;}.cls-19{fill:#5b6262;}.cls-20{fill:#353535;}.cls-21{fill:#7e8787;}.cls-22{fill:#c6d4d4;}.cls-23{fill:#3aacf7;}.cls-24{fill:#dcecec;}.cls-25{fill:#3498db;}.cls-26{fill:#98a3a3;}.cls-27{fill:#1f5e87;}.cls-28{fill:#2f8dcb;}.cls-29{fill-opacity:0.1;}.cls-30{fill:#e0e0e0;}.cls-31{fill:#fff;}.cls-32{fill:#989898;}.cls-33{fill:#2776aa;}.cls-34{fill:#3090d0;}.cls-35{fill:#e9fafa;}</style></defs><title>Asset 117</title><g id="Layer_2" data-name="Layer 2"><g id="Layer_1-2" data-name="Layer 1"><path class="cls-1" d="M92.75,24.1l-5.25-.55L87,28.85l5.25.5.55-5.25m-8.5,18.75,7.25-2.3L89.2,33.3,82,35.6l2.3,7.25M113.9,36.7l-5-1.9-1.9,5,5,2,1.85-5M93.2,50.3l-4.8,2.2,2.15,4.85Q93,56.3,95.4,55.2l-2.2-4.9M70,49.6l-4.5,1.55L67,55.6l4.45-1.5L70,49.6M45.9,53.45,43.6,46.2l-7.2,2.3,2.25,7.2,7.25-2.25m.65-18.65-1.9,5,5.05,2,1.85-5-5-1.9M59.1,38.65l-5.25.65.6,5.25L59.7,44l-.6-5.3m-11.6-10L43.65,25,40,28.8l3.85,3.65L47.5,28.6M62.2,14l4.85-2.15L64.9,7.05,60,9.2,62.2,14m4.85,60.2L64.9,69.4,60,71.55l2.2,4.85,4.85-2.2M41.2,73.35l.65-5.6h0l.4-3.7L33,63,31.9,72.3l9.3,1m15.95,3.4h0L49.8,78.5l1.7,7.4,7.4-1.75-1.75-7.4M75.9,70.6l-6.2,6.7,6.75,6.2,6.15-6.75L75.9,70.6M51.55,99.1l-5-1.9-1.9,5,5.05,1.95,1.85-5M110.4,59l5.25.5.6-5.3-5.35-.5-.5,5.3m-6.85,14.4.65-5.6h0l.4-3.7-9.3-1-1.1,9.3,9.3,1M77.25,89l-9.6-2.5L65.2,96.1l9.55,2.55L77.25,89m12,6.65L82,98l2.3,7.25L91.5,103l-2.3-7.3m3.55-9.2L87.5,86,87,91.2l5.25.5.55-5.25M94.9,80.3l4.35,3.1,3-4.3L98,76l-3.1,4.3m5.7,16.35L96.5,100l3.35,4.1,4.15-3.35-3.4-4.1m13.3,2.45-5-1.9-1.9,5,5,1.95,1.85-5M76.25,50l-2.1,9.55,9.45,2.1,2.15-9.5L76.25,50M30.4,24.1l-5.25-.55-.55,5.3,5.25.5.55-5.25M5.4,39.7,2.3,44l4.25,3.1,3.1-4.3-4.25-3M30.85,50.3l-4.8,2.2,2.15,4.85L33,55.2l-2.15-4.9m7.4-16-4.1,3.35,3.35,4.1,4.15-3.35-3.4-4.1M23.4,52.15,13.9,50l-2.1,9.55,9.45,2.1,2.15-9.5m14.85,44.5L34.15,100l3.35,4.1,4.15-3.35-3.4-4.1m-25.85,2L14.9,89,5.3,86.5,2.8,96.1l9.6,2.55m7.85-21.9-6.7-6.15-6.2,6.7,6.7,6.2,6.2-6.75m4.9,9.2L24.6,91.2l5.25.5.55-5.25L25.15,86m4.7,23.3-4.75,2.2,2.15,4.85,4.8-2.15-2.2-4.9m54.7,12.35,2.15-9.5L77.2,110l-2.1,9.55,9.45,2.1M36.4,110.85l2.25,7.25,7.25-2.3-2.3-7.2-7.2,2.25m28.5,16.8-.85-5.25-5.2.85.8,5.2,5.25-.8M67,118l4.45-1.55L70,112l-4.5,1.55L67,118m-7,22L0,105V35L60,0l60,35v70L60,140"/><path class="cls-2" d="M92.75,24.1l-.55,5.25L87,28.85l.55-5.3,5.25.55m.45,26.2,2.2,4.9Q93,56.3,90.55,57.35L88.4,52.5l4.8-2.2m20.7-13.6-1.85,5-5-2,1.9-5,5,1.9M67.05,74.2,62.2,76.4,60,71.55l4.9-2.15,2.15,4.8M51.55,99.1l-1.85,5-5.05-1.95,1.9-5,5,1.9M89.2,95.65l2.3,7.3-7.25,2.25L82,98l7.25-2.3M94.9,80.3,98,76l4.3,3.1-3,4.3L94.9,80.3m19,18.8-1.85,5-5-1.95,1.9-5,5,1.9m-83.5-75-.55,5.25-5.25-.5.55-5.3,5.25.55m.45,26.2L33,55.2l-4.8,2.15L26.05,52.5l4.8-2.2M23.4,52.15l-2.15,9.5-9.45-2.1L13.9,50l9.5,2.15M25.15,86l5.25.5-.55,5.25-5.25-.5L25.15,86m11.25,24.9,7.2-2.25,2.3,7.2-7.25,2.3-2.25-7.25M84.55,121.6l-9.45-2.1L77.2,110l9.5,2.15-2.15,9.5"/><path class="cls-3" d="M84.25,42.85,82,35.6l7.25-2.3,2.3,7.25-7.25,2.3M62.2,14,60,9.2l4.9-2.15,2.15,4.8L62.2,14M47.5,28.6l-3.65,3.85L40,28.8,43.65,25,47.5,28.6m11.6,10,.6,5.3-5.25.6-.6-5.25,5.25-.65M46.55,34.8l5,1.9-1.85,5-5.05-2,1.9-5M45.9,53.45,38.65,55.7,36.4,48.5l7.2-2.3,2.3,7.25M70,49.6l1.5,4.5L67,55.6l-1.55-4.45L70,49.6m6,21,6.7,6.15L76.45,83.5,69.7,77.3l6.2-6.7M57.15,76.75l1.75,7.4L51.5,85.9l-1.7-7.4,7.3-1.75h0M41.2,73.35l-9.3-1L33,63l9.35,1-.4,3.7h0l-.65,5.6M77.25,89l-2.5,9.65L65.2,96.1l2.45-9.6,9.6,2.5m26.3-15.65-9.3-1,1.1-9.3,9.3,1-.4,3.7h0l-.65,5.6M110.4,59l.5-5.3,5.35.5-.6,5.3L110.4,59M92.75,86.45,92.2,91.7,87,91.2,87.5,86l5.25.5m7.85,10.2,3.4,4.1-4.15,3.35L96.5,100l4.1-3.35M76.25,50l9.5,2.15-2.15,9.5-9.45-2.1L76.25,50M5.4,39.7l4.25,3-3.1,4.3L2.3,44,5.4,39.7m32.85-5.4,3.4,4.1L37.5,41.75l-3.35-4.1,4.1-3.35m-18,42.45-6.2,6.75-6.7-6.2,6.2-6.7,6.7,6.15M12.4,98.65,2.8,96.1l2.5-9.6L14.9,89l-2.5,9.65m25.85-2,3.4,4.1L37.5,104.1,34.15,100l4.1-3.35m-8.4,12.6,2.2,4.9-4.8,2.15-2.15-4.85,4.75-2.2M67,118l-1.55-4.5L70,112l1.5,4.5L67,118m-2.1,9.65-5.25.8-.8-5.2,5.2-.85.85,5.25"/><path class="cls-4" d="M53.8,28.7V25.25l-.55-1.8L47.4,20.7l-2.4.4-3.7,4.35v14l.55,1.75,5.9,2.75,2.35-.4,3.7-4.35V28.7m-5.55-9.8,5.85,2.75a1.94,1.94,0,0,1,.65.5l.45.75.55,1.8,0,.55v13.9a2,2,0,0,1-.45,1.3l-3.7,4.35-1.2.7-2.35.4-1.2-.15L41,43l-.65-.5-.4-.75L39.4,40l-.1-.6V25.45a1.89,1.89,0,0,1,.5-1.3l3.7-4.35a1.8,1.8,0,0,1,1.2-.65l2.4-.4,1.15.15"/><path class="cls-5" d="M47.75,30l-5.9-2.75-.55-1.8L45,21.1l2.4-.4,5.85,2.75.55,1.8L50.1,29.6l-2.35.4"/><path class="cls-6" d="M41.3,25.45l.55,1.8L47.75,30v3.45l-5.9-2.75L41.3,29v-3.5M47.75,43.9l-5.9-2.75L41.3,39.4V35.9l.55,1.8,5.9,2.75V43.9"/><path class="cls-7" d="M50.1,29.6l3.7-4.35V28.7l-3.7,4.35V29.6m3.7,6v3.5L50.1,43.5V40l3.7-4.35"/><path class="cls-8" d="M47.75,33.45V30l2.35-.4v3.45l-2.35.4m2.35,10-2.35.4V40.45L50.1,40v3.5"/><path class="cls-9" d="M47.75,33.45l2.35-.4v7l-2.35.45v-7"/><path class="cls-10" d="M47.75,33.45v7l-5.9-2.75-.55-1.8V29l.55,1.75,5.9,2.75"/><path class="cls-11" d="M53.8,28.7v7L50.1,40v-7l3.7-4.35"/><path class="cls-4" d="M99.45,59l-3-9.85L90.9,45.7,67.1,34.6,56.4,36.35,53.8,37.6,20.25,77.2l3,9.8L52.7,100.8l13.2-2.3L99.45,59m-1-10.4,3,9.85v1l-.4.9L67.45,99.8a2.17,2.17,0,0,1-1.2.7l-13.2,2.3-1.2-.2L22.4,88.8l-.65-.5-.4-.7-3-9.8-.05-1,.45-.9L52.3,36.3a1.94,1.94,0,0,1,.65-.5l2.6-1.25.55-.15,10.7-1.75L68,32.8l23.8,11.1.2.1,5.55,3.4a2.12,2.12,0,0,1,.9,1.15"/><path class="cls-5" d="M65.9,98.5l-13.2,2.3L52.6,91,63.3,89.1l2.6,9.4M23.25,87l-3-9.8,6.1-5.4,2.45,8L23.25,87m63.9-39.3,1.65,5.4L60.6,86.35l-7.15,1.2-20.9-9.8-1.65-5.3L59.1,39.2,66.3,38,87.15,47.7"/><path class="cls-12" d="M87.15,47.7,66.3,38,59.1,39.2,30.9,72.45l1.65,5.3,20.9,9.8,7.15-1.2L88.8,53.1l-1.65-5.4M56.4,36.35,67.1,34.6,90.9,45.7l2.45,7.95L63.3,89.1,52.6,91,28.8,79.8l-2.45-8L56.4,36.35"/><path class="cls-13" d="M90.9,45.7l5.55,3.4,3,9.85-6.1-5.3L90.9,45.7"/><path class="cls-7" d="M99.45,59,65.9,98.5l-2.6-9.4L93.35,53.65l6.1,5.3M20.25,77.2,53.8,37.6l2.6-1.25-30,35.45-6.1,5.4"/><path class="cls-6" d="M52.7,100.8,23.25,87l5.55-7.2L52.6,91l.1,9.85"/><path class="cls-14" d="M26.9,54,20.6,50.9V40.1l9.45,4.5L29.8,55.3,26.9,54"/><path class="cls-15" d="M26.9,54v2.6l2.1.8L31,55.5V54.1L36.7,48V37.5l-9.85-4.45L20.6,40.1V50.9L26.9,54m-8-2a2,2,0,0,1-.3-1.05V40.1a1.89,1.89,0,0,1,.5-1.3l6.25-7a2.11,2.11,0,0,1,1.1-.65l1.25.15,9.85,4.45.85.75.3,1V48a2,2,0,0,1-.55,1.4L33,54.9v.6l-.15.8-.45.65-2,1.85-1,.5-1.1,0-2.1-.8-.95-.75a2.15,2.15,0,0,1-.35-1.15V55.2l-5.15-2.5L18.9,52"/><path class="cls-16" d="M29.8,55.3l.25-10.7,6.65-7.1V48L31,54.1,29.8,55.3"/><path class="cls-17" d="M30.05,44.6,20.6,40.1l6.25-7.05L36.7,37.5l-6.65,7.1"/><path class="cls-18" d="M26.9,54l2.9,1.35L31,54.1v1.4L29,57.35l-2.1-.8V54"/><path class="cls-15" d="M79.9,66l13.3-2.6a1.76,1.76,0,0,1,1.35.25,1.88,1.88,0,0,1,.9,1.1l3.6,11,.1.6V98.05l-.45,1.3-1.25.7-5,.75v2.3a2.05,2.05,0,0,1-.4,1.25,2.42,2.42,0,0,1-1.1.7l-2.7.7L87,105.6a1.91,1.91,0,0,1-1-.95l-1.15-2.5,0-.15-1.1.2a2,2,0,0,1-2.2-1.4L78.35,90.2l-.1-.6V68a1.92,1.92,0,0,1,.45-1.25,1.74,1.74,0,0,1,1.2-.7m.35,2V89.6l3.15,10.6,3.25-.5v1.6l1.15,2.5,2.7-.7v-4l6.65-1V76.3l-3.6-11L80.25,68"/><path class="cls-16" d="M80.25,68l3.15,10.7V100.2L80.25,89.6V68"/><path class="cls-17" d="M80.25,68l13.3-2.6,3.6,11L83.4,78.65,80.25,68"/><path class="cls-18" d="M90.5,99.1v4l-2.7.7-1.15-2.5V99.7l3.85-.6"/><path class="cls-14" d="M90.5,99.1l-3.85.6-3.25.5V78.65L97.15,76.3V98.05l-6.65,1"/><path class="cls-19" d="M75.9,45.2l.35-.4a1.87,1.87,0,0,1,1.1-.65l1.25.15,3.1,1.45.85.75L85.4,51l.3,1v7a2,2,0,0,1-.45,1.3L74.65,73a2.1,2.1,0,0,1-1.15.65l-1.25-.15L69.1,71.9l-.85-.75A2,2,0,0,1,68,70.1V68.85l-.45-.2L66,67.9l-3.35,3.85-.5.45-2.3,1.3-.85.25h0L58.2,71.5l.65.25,2.3-1.3L66.75,64v2L70,67.6v2.5l3.15,1.55,10.6-12.6v-7l-2.85-4.5-3.1-1.45L74.4,50.05l.35-.45,1.15-4.4M41.5,59.05l-2.6-1.3L38.1,57a2,2,0,0,1-.3-1V49.1a1.89,1.89,0,0,1,.5-1.3L48.9,35.25l.35-.3L52,33a1.84,1.84,0,0,1,1-.4l1,.2,3.2,1.4,1,.8a1.92,1.92,0,0,1,.25,1.15L57.9,37.3l-2.4,2.8v0l1.85.85.2,2.3-4-1.85V39.4L56.35,36l-3.2-1.4L50.4,36.55,39.8,49.1V56l3.1,1.55-1.4,1.55m27.7,3L70,63.2l-.25-.35-.5-.8"/><path class="cls-6" d="M69.2,62.05l.5.8-3-1.45L67.9,60l1.3,2m5.2-12,3.35-3.95,3.1,1.45L70.25,60.1,67.1,58.7l7.25-8.6.05-.05M53.15,34.6l3.2,1.4L53.5,39.4l-7.75,9.2L42.5,47.15,53.15,34.6m.35,6.85,4,1.85-8.45,10-4.8-2.2,8.45-10,.75.4"/><path class="cls-20" d="M70,67.6l-3.2-1.55V61.4l3,1.45.25.35v4.4M44.3,55.7V51.05l4.8,2.2L46.25,56.6h0l-1.9-.9"/><path class="cls-21" d="M44.3,55.7l-1.4,1.8L39.8,56V49.1l2.7-2,3.25,1.45,7.75-9.2v2.05l-.75-.4-8.45,10V55.7m28.8,16L70,70.1V63.2l-.75-1.15-1.3-2-.15-.25,0,0-.6-1,3.15,1.4,2.85,4.55v7"/><path class="cls-22" d="M80.85,47.55l2.85,4.5L73.1,64.65,70.25,60.1l10.6-12.55M60,53.35l12.6-14.9,1.2,5.95-13.7,9H60m8-17.2-12.6,15,2.25-7.85L67.9,36.15"/><path class="cls-23" d="M55.25,51.2,52.4,54.55l-8.2,7.7L40.3,65l-1.95.8L44,59.2l1.1-1.3,1.15-1.3,2.85-3.35,8.45-10L55.3,51.15l0,.05m2,5.4L60,53.35h.1l13.7-9,.7,3.7L54.05,71.5V67.2L57.2,56.6"/><path class="cls-24" d="M60,53.35l-4.7-2.15,0-.05,12.6-15,4.65,2.3L60,53.35"/><path class="cls-25" d="M60,53.35,57.2,56.6l-4.6-2.25-.2.2,2.85-3.35L60,53.35"/><path class="cls-26" d="M83.7,52.05v7L73.1,71.65v-7l10.6-12.6m-17,12-5.6,6.45-2.3,1.3-.65-.25,8.55-10.1V64M42.5,47.15l-2.7,2L50.4,36.55l2.75-1.95L42.5,47.15"/><path class="cls-27" d="M41.6,69.55l-4.1-2-.85-.8a2,2,0,0,1-.3-1.2,1.82,1.82,0,0,1,.5-1.1l4.65-5.45,1.4-1.55,1.4-1.8,1.9.9-1.1,1.3L44,59.2l-5.65,6.6L56,74.1l2.2-2.6L59,73.75l-1.4,1.65a2.11,2.11,0,0,1-1.1.65l-1.3-.15L41.6,69.55M57.35,41l9.45-6.5a1.8,1.8,0,0,1,1-.35l1,.2,4.65,2.3.7.6.35.85,1.4,7.1-1.15,4.4-.3-1.5-.7-3.7-1.2-5.95-4.65-2.3L57.55,43.3l-.2-2.3"/><path class="cls-28" d="M74.75,49.6l-.35.45-.05.05L67.1,58.7l.6,1,0,0,.15.25-1.15,1.4L58.2,71.5,56,74.1l-2-2.6,20.4-23.4.3,1.5"/><path class="cls-29" d="M67.5,68.65,56.5,82.3,37.75,73.7l3.85-4.15L55.15,75.9l1.3.15a2.11,2.11,0,0,0,1.1-.65L59,73.75h0l.85-.25,2.3-1.3.5-.45L66,67.9l1.5.75"/><path class="cls-30" d="M52.4,54.55l.2-.2,4.6,2.25-2.9,3.45-4.65-2.2,2.75-3.3M40.3,65l3.9-2.75,4.4-3.2.1-.1,4.55,2.3.8,6v4.3L40.3,65"/><path class="cls-31" d="M44.2,62.25l8.2-7.7-2.75,3.3,4.65,2.2,2.9-3.45L54.05,67.2l-.8-6L48.7,59l-.1.1-4.4,3.2"/><path class="cls-32" d="M46.25,56.6,45.1,57.9l1.1-1.3h0"/><path class="cls-33" d="M38.35,65.8,40.3,65l13.75,6.5,2,2.6L38.35,65.8"/><path class="cls-4" d="M56.4,98.3H59l-5.15,6.25,3.1,5.65,6.15,2.8,3.1-2.8,3.2-3.65,1,1.85-2.65,3.1-.2.2-3.1,2.8a2.06,2.06,0,0,1-1.05.5l-1.1-.15-6.15-2.8a1.94,1.94,0,0,1-1-.9l-3.1-5.65a2,2,0,0,1-.25-1.15,1.72,1.72,0,0,1,.45-1l4.15-5m7.4-5.8H61.2L63.3,90l.3-.25L67,86.9a1.52,1.52,0,0,1,1-.45l1.1.15,6.15,2.8,1,.9,3,5.9.2,1.15L79,98.4l-3.65,4.2-1-1.85,0,0,3.05-3.6-3.05-5.9L68.2,88.4l-3.35,2.8-1,1.3"/><path class="cls-27" d="M63.8,92.5,59,98.3H56.4l4.8-5.8h2.6m6.55,15.9-1-1.85v0l5-5.75,1,1.85-5,5.8"/><path class="cls-5" d="M69.35,106.55l-3.2,3.65-3.1-5.65,3.15-3.7,3.15,5.65v0m-15.55-2L59,98.3h.85l-2.9,3.4-3.1,2.85m11-12h-1l1-1.3,3.35-2.8-3.45,4.1m9.6-1.3,3.05,5.9-3.05,3.6L71.2,95.05l0,0,3.2-3.8"/><path class="cls-34" d="M59,98.3l4.85-5.8h1l-5,5.8H59m15.4,2.4,0,0-5,5.75-3.15-5.65,5-5.85,0,0,3.15,5.65"/><path class="cls-35" d="M56.9,101.7l2.9-3.4,6.4,2.55-3.15,3.7L56.9,101.7M68.2,88.4l6.15,2.8L71.15,95,64.8,92.5h0l3.45-4.1"/><path class="cls-23" d="M59.8,98.3l5-5.8h0L71.15,95l-5,5.85L59.8,98.3"/><path class="cls-6" d="M66.15,110.2l-3.1,2.8-6.15-2.8-3.1-5.65,3.1-2.85,6.15,2.85,3.1,5.65"/></g></g></svg>