<svg xmlns="http://www.w3.org/2000/svg" xmlns:xlink="http://www.w3.org/1999/xlink" viewBox="0 0 120 140"><defs><style>.cls-1{fill:#27ae60;}.cls-2{fill:url(#linear-gradient);}.cls-3{fill:url(#linear-gradient-2);}.cls-4{fill:url(#linear-gradient-3);}.cls-5{fill:url(#linear-gradient-4);}.cls-6{fill:url(#linear-gradient-5);}.cls-7{fill:url(#linear-gradient-6);}.cls-8{fill:url(#linear-gradient-7);}.cls-9{fill:url(#linear-gradient-8);}.cls-10{fill:url(#linear-gradient-9);}.cls-11{fill:url(#linear-gradient-10);}.cls-12{fill:url(#linear-gradient-11);}.cls-13{fill:url(#linear-gradient-12);}.cls-14{fill:url(#linear-gradient-13);}.cls-15{fill:url(#linear-gradient-14);}.cls-16{fill:url(#linear-gradient-15);}.cls-17{fill:#8a9393;}.cls-18{fill:#727979;}.cls-19{fill:#703b27;}.cls-20{fill:#bb6444;}.cls-21{fill:#b9c6c6;}.cls-22{fill:#99a3a3;}.cls-23{fill:#d2704c;}.cls-24{fill:#aab6b6;}.cls-25{fill-opacity:0.1;}.cls-26{fill:#115f32;}.cls-27{fill:#1b914d;}.cls-28{fill:#198a49;}.cls-29{fill:#bb8044;}</style><linearGradient id="linear-gradient" x1="-2379.2" y1="49.53" x2="-740.8" y2="49.53" gradientTransform="matrix(0, 0, 0, 0, 10.7, 42.05)" gradientUnits="userSpaceOnUse"><stop offset="0" stop-color="#27ae60"/><stop offset="1" stop-color="#30c26d"/></linearGradient><linearGradient id="linear-gradient-2" x1="-2379.2" y1="62.42" x2="-740.8" y2="62.42" gradientTransform="matrix(0, 0, 0, 0, 24.32, 56.19)" xlink:href="#linear-gradient"/><linearGradient id="linear-gradient-3" x1="-2379.2" y1="102.17" x2="-740.8" y2="102.17" gradientTransform="matrix(0, 0, 0, 0, 12.95, 94.7)" xlink:href="#linear-gradient"/><linearGradient id="linear-gradient-4" x1="-2379.2" y1="26.2" x2="-740.8" y2="26.2" gradientTransform="matrix(0, 0, 0, 0, 55.67, 19.99)" xlink:href="#linear-gradient"/><linearGradient id="linear-gradient-5" x1="-2379.2" y1="37.67" x2="-740.8" y2="37.67" gradientTransform="matrix(0, 0, 0, 0, 44.2, 30.03)" xlink:href="#linear-gradient"/><linearGradient id="linear-gradient-6" x1="-2379.2" y1="48.03" x2="-740.8" y2="48.03" gradientTransform="matrix(0, 0, 0, 0, 59.35, 40.55)" xlink:href="#linear-gradient"/><linearGradient id="linear-gradient-7" x1="-2379.2" y1="30.38" x2="-740.8" y2="30.38" gradientTransform="matrix(0, 0, 0, 0, 89.67, 24.14)" xlink:href="#linear-gradient"/><linearGradient id="linear-gradient-8" x1="-2379.2" y1="81.92" x2="-740.8" y2="81.92" gradientTransform="matrix(0, 0, 0, 0, 82.77, 75.69)" xlink:href="#linear-gradient"/><linearGradient id="linear-gradient-9" x1="-2379.2" y1="89.17" x2="-740.8" y2="89.17" gradientTransform="matrix(0, 0, 0, 0, 69.27, 82.94)" xlink:href="#linear-gradient"/><linearGradient id="linear-gradient-10" x1="-2379.2" y1="98.08" x2="-740.8" y2="98.08" gradientTransform="matrix(0, 0, 0, 0, 105.17, 91.84)" xlink:href="#linear-gradient"/><linearGradient id="linear-gradient-11" x1="-2379.2" y1="54.17" x2="-740.8" y2="54.17" gradientTransform="matrix(0, 0, 0, 0, 36.77, 47.94)" xlink:href="#linear-gradient"/><linearGradient id="linear-gradient-12" x1="-2379.2" y1="106.58" x2="-740.8" y2="106.58" gradientTransform="matrix(0, 0, 0, 0, 55.2, 99.1)" xlink:href="#linear-gradient"/><linearGradient id="linear-gradient-13" x1="-2379.2" y1="116.92" x2="-740.8" y2="116.92" gradientTransform="matrix(0, 0, 0, 0, 43.2, 109.45)" xlink:href="#linear-gradient"/><linearGradient id="linear-gradient-14" x1="-2379.2" y1="119.17" x2="-740.8" y2="119.17" gradientTransform="matrix(0, 0, 0, 0, 56.67, 112.94)" xlink:href="#linear-gradient"/><linearGradient id="linear-gradient-15" x1="-2379.2" y1="121.33" x2="-740.8" y2="121.33" gradientTransform="matrix(0, 0, 0, 0, 70.8, 113.85)" xlink:href="#linear-gradient"/></defs><title>Asset 158</title><g id="Layer_2" data-name="Layer 2"><g id="Layer_1-2" data-name="Layer 1"><path class="cls-1" d="M13.85,48.55l-2-2.85a.3.3,0,0,0-.25-.15l-.25,0-.25.15-.1.25-.35,3.5L9,49.75l-.25.1,0,.1-.05.2v.25h.05l1.45,3.15h6l1.6-1,.15-.15,0-.15,0-.3-.3-.25-1.5-.4,1.2-3.15v-.35l-.05,0-.2-.2h-.35l-2.8,1m9.3,13.75,0,.35.95,3.05H28.9l.7-1.8v-.45l-.25-.2h-.3l-1.25.4L27,59.5l-.15-.25-.25-.1-.3.1-.15.25-1,3.15-1.35-.55H23.4a.3.3,0,0,0-.25.15v0m-9.3,35.9-.25,0-.25.15-.1.25-.35,3.5-1.7.35-.25.1,0,.1-.05.2v.25h.05l1.45,3.15h6l1.6-1,.15-.15,0-.15,0-.3-.3-.25-1.5-.4,1.2-3.15v-.35l-.05-.05-.2-.2H18.9l-2.8,1-2-2.85a.3.3,0,0,0-.25-.15M0,35,60,0l60,35v70L60,140,0,105V35M57.25,23.05l-.15.25-.8,4.1L55.05,27l-.3.05-.25.2v.45l.7,1.8h4.85l.9-3.1v-.35l-.25-.2h-.35L59,26.4l-1-3.15L57.85,23l-.3-.1-.3.15m-14.5,12.8,0,0v.35L44,39.35l-1.55.45-.25.2-.1.35.1.1.1.15,1.6,1.1h6l1.45-3.15.05,0,0-.25-.1-.15,0-.1L51,37.85l-1.65-.3-.4-3.5-.1-.25-.25-.15h-.25l-.25.15-2,2.85-2.85-1H43l-.2.2m14.6,12.5-.05.1,0,.2v.25h0l1.45,3.15h6l1.6-1,.15-.15,0-.15,0-.3-.3-.25-1.5-.4,1.2-3.15v-.35l-.05,0-.2-.2H65.3l-2.8,1-2-2.85a.3.3,0,0,0-.25-.15L60,44l-.25.15-.1.25-.35,3.5-1.7.35-.25.1M95,31.45V31.4l-.25-.2h-.3l-1.25.4-.85-4.15-.15-.25-.25-.1-.3.1a.3.3,0,0,0-.15.25l-1,3.15-1.35-.55h-.35l-.25.15v.05a.42.42,0,0,0,0,.35l1,3h4.85l.7-1.8v-.4M81.6,81.8a.42.42,0,0,0,0,.35l1,3h4.85l.7-1.8V83l-.25-.2h-.3l-1.25.4L85.4,79l-.15-.25-.25-.1-.3.1a.3.3,0,0,0-.15.25l-1,3.15L82.2,81.6h-.35l-.25.15v0M71.5,85.9l-.3.1-.15.25-1,3.15-1.35-.55h-.35L68.1,89v0l0,.35,1,3h4.85l.7-1.8V90.2L74.3,90H74l-1.25.4-.85-4.15L71.75,86l-.25-.1M104,98a.42.42,0,0,0,0,.35l1,3h4.85l.7-1.8V99.1l-.25-.2h-.3l-1.25.4-.85-4.15-.15-.25-.25-.1-.3.1-.15.25-1,3.15-1.35-.55h-.35a.3.3,0,0,0-.25.15v0M41.5,55l-1.25.4-.85-4.15L39.25,51,39,50.9l-.3.1-.15.25-1,3.15-1.35-.55h-.35a.3.3,0,0,0-.25.15v0l-.05.35,1,3.05h4.85l.7-1.8V55.2L41.8,55h-.3m20,49.55h-.35l-2.8,1-2-2.85-.25-.15-.25,0-.25.15-.1.25-.35,3.5-1.7.35-.25.1-.05.1,0,.2v.25h0l1.45,3.15h6l1.6-1,.15-.15,0-.15,0-.3-.3-.25-1.5-.4,1.2-3.15v-.35l0,0-.2-.2M49.7,115.1l-.2-.2h-.35l-2.8,1-2-2.85L44.1,113l-.25,0-.25.15-.1.25-.35,3.5-1.7.35-.25.1-.05.1,0,.2v.25h0L42.6,121h6l1.6-1,.15-.15,0-.15,0-.3-.3-.25-1.5-.4,1.2-3.15v-.35l0-.05m8.75,1.15-1,3.15-1.35-.55h-.35l-.25.15v0l0,.35.95,3h4.85l.7-1.8v-.45l-.25-.2h-.3l-1.25.4-.85-4.15-.15-.25-.25-.1-.3.1-.15.25m10.25,6h0l1.45,3.15h6l1.6-1,.15-.15,0-.15,0-.3-.3-.25-1.5-.4,1.2-3.15v-.35l0,0-.2-.2h-.35l-2.8,1-2-2.85-.25-.15-.25,0-.25.15-.1.25-.35,3.5-1.7.35-.25.1,0,.1,0,.2v.25"/><path class="cls-2" d="M13.85,48.55l2.8-1H17l.2.2.05,0v.35l-1.2,3.15,1.5.4.3.25,0,.3,0,.15-.15.15-1.6,1h-6L8.65,50.4H8.6v-.25l.05-.2,0-.1.25-.1,1.7-.35L11,45.9l.1-.25.25-.15.25,0a.3.3,0,0,1,.25.15l2,2.85"/><path class="cls-3" d="M23.15,62.3v0a.3.3,0,0,1,.25-.15h.35l1.35.55,1-3.15.15-.25.3-.1.25.1.15.25.85,4.15,1.25-.4h.3l.25.2v.45l-.7,1.8H24.05l-.95-3.05,0-.35"/><path class="cls-4" d="M13.85,98.2a.3.3,0,0,1,.25.15l2,2.85,2.8-1h.35l.2.2.05.05v.35l-1.2,3.15,1.5.4.3.25,0,.3,0,.15-.15.15-1.6,1h-6l-1.45-3.15h-.05v-.25l.05-.2,0-.1.25-.1,1.7-.35.35-3.5.1-.25.25-.15.25,0"/><path class="cls-5" d="M57.25,23.05l.3-.15.3.1.15.25,1,3.15,1.4-.55h.35l.25.2v.35l-.9,3.1H55.2l-.7-1.8v-.45l.25-.2.3-.05,1.25.4.8-4.1.15-.25"/><path class="cls-6" d="M42.75,35.85l.2-.2h.35l2.85,1,2-2.85.25-.15h.25l.25.15.1.25.4,3.5,1.65.3.25.15,0,.1.1.15,0,.25-.05,0L49.85,41.7h-6l-1.6-1.1-.1-.15-.1-.1.1-.35.25-.2L44,39.35l-1.25-3.1V35.9l0,0"/><path class="cls-7" d="M57.35,48.35l.25-.1,1.7-.35.35-3.5.1-.25L60,44l.25,0a.3.3,0,0,1,.25.15l2,2.85,2.8-1h.35l.2.2.05,0v.35l-1.2,3.15,1.5.4.3.25,0,.3,0,.15-.15.15-1.6,1h-6L57.3,48.9h0v-.25l0-.2.05-.1"/><path class="cls-8" d="M95,31.45v.4l-.7,1.8H89.4l-1-3a.42.42,0,0,1,0-.35V30.2l.25-.15h.35l1.35.55,1-3.15a.3.3,0,0,1,.15-.25l.3-.1.25.1.15.25.85,4.15,1.25-.4h.3l.25.2v.05"/><path class="cls-9" d="M81.6,81.8v0l.25-.15h.35l1.35.55,1-3.15a.3.3,0,0,1,.15-.25l.3-.1.25.1.15.25.85,4.15,1.25-.4h.3l.25.2v.45l-.7,1.8H82.5l-1-3a.42.42,0,0,1,0-.35"/><path class="cls-10" d="M71.5,85.9l.25.1.15.25.85,4.15L74,90h.3l.25.2v.45l-.7,1.8H69l-1-3,0-.35v0l.25-.15h.35l1.35.55,1-3.15L71.2,86l.3-.1"/><path class="cls-11" d="M104,98v0a.3.3,0,0,1,.25-.15h.35l1.35.55,1-3.15.15-.25.3-.1.25.1.15.25.85,4.15,1.25-.4h.3l.25.2v.45l-.7,1.8H104.9l-1-3a.42.42,0,0,1,0-.35"/><path class="cls-12" d="M41.5,55h.3l.25.2v.45l-.7,1.8H36.5l-1-3.05.05-.35v0a.3.3,0,0,1,.25-.15h.35l1.35.55,1-3.15L38.7,51l.3-.1.25.1.15.25.85,4.15L41.5,55"/><path class="cls-13" d="M61.5,104.55l.2.2,0,0v.35l-1.2,3.15,1.5.4.3.25,0,.3,0,.15-.15.15-1.6,1h-6l-1.45-3.15h0v-.25l0-.2.05-.1.25-.1,1.7-.35.35-3.5.1-.25.25-.15.25,0,.25.15,2,2.85,2.8-1h.35"/><path class="cls-14" d="M49.7,115.1l0,.05v.35l-1.2,3.15,1.5.4.3.25,0,.3,0,.15-.15.15-1.6,1h-6l-1.45-3.15h0v-.25l0-.2.05-.1.25-.1,1.7-.35.35-3.5.1-.25.25-.15.25,0,.25.15,2,2.85,2.8-1h.35l.2.2"/><path class="cls-15" d="M58.45,116.25l.15-.25.3-.1.25.1.15.25.85,4.15,1.25-.4h.3l.25.2v.45l-.7,1.8H56.4l-.95-3,0-.35v0l.25-.15h.35l1.35.55,1-3.15"/><path class="cls-16" d="M68.7,122.2V122l0-.2,0-.1.25-.1,1.7-.35.35-3.5.1-.25.25-.15.25,0,.25.15,2,2.85,2.8-1h.35l.2.2,0,0v.35l-1.2,3.15,1.5.4.3.25,0,.3,0,.15-.15.15-1.6,1h-6l-1.45-3.15h0"/><path class="cls-17" d="M55.65,96.05l5.25-1.4,1.9,3.15-5.25,1.4-1.9-3.15m6.25-7-7.35,2-2.7-4.4,7.35-2,2.7,4.4M49.05,96.65l-2.15-3.5,5.85-1.55,2.15,3.5-5.85,1.55M47.8,85.1,46.45,83l3.65-1,1.35,2.15-3.65.95m-6.7,5.55-2.3-3.8,6.35-1.7,2.3,3.8-6.35,1.7m-.35,4.8-1.35-2.2,3.6-1,1.35,2.2-3.6,1"/><path class="cls-18" d="M39.25,82.55l-.45-.15-14-6.6a1.94,1.94,0,0,1-.95-.9,2,2,0,0,1-.15-1.3l1.65-7.8V44.7l-.3-.15-.8-.75a2,2,0,0,1-.3-1v-7.7l.15-.7V34.3l1.85.85V42.8l1.4.65V66l-1.7,8,14,6.6L48.85,70l-1.7-7.4,0-.05V58.1a19.27,19.27,0,0,1,7.4,2.15q8.25,3.75,12.15,9.4a20.86,20.86,0,0,1,2.7,5.8l.5,2.55L70,79.45v6.6l-1.75,8,14.4,6.6,8.85-10.6L89.8,82.6V60.25l1.4-4V49.5L93,47.6l.2.9v7.75l-.1.7L91.75,60.6V82.4l1.65,7.2v1.05l-.4.7L84.15,102a2.11,2.11,0,0,1-1.1.65l-1.25-.1L67.45,95.9,67,95.65l-.55-.7a2,2,0,0,1-.15-1.3l1.7-7.8V79.6l0-.75L67.6,77a17.71,17.71,0,0,0-3.55-7.35A28.09,28.09,0,0,0,53.7,62.1l-.05-.05a22.11,22.11,0,0,0-4.6-1.65v1.75l1.7,7.4,0,.1,0,.85-.1.35-.3.45L41.2,81.9a2.11,2.11,0,0,1-1.1.65h-.85"/><path class="cls-19" d="M24.05,34.3l5.1-13.4a1.81,1.81,0,0,1,1-1l1.45-.15,5.2,1.4h0l.2,0,0,.05,55,25.5a.73.73,0,0,1,.35.2l.5.55.1.15-1.8,1.9v-1L36.2,23l-5.15-1.4L25.9,35.05v.1l-1.85-.85"/><path class="cls-20" d="M31.05,21.6,36.2,23l55,25.55v1l-5.15-2.45-55-25.45M76.3,46.2l-1.65,4.35L71.35,49l1.7-4.25L76.3,46.2m-5.6-1.35-2.35,6.2-4.75-2.2,2.45-6.1,4.65,2.1"/><path class="cls-21" d="M25.9,42v-6.9l55,25.75v7.45L25.9,42m56.75,58.7-14.4-6.6,1.75-8v-6.6L69.85,78l-.5-2.55a20.86,20.86,0,0,0-2.7-5.8Q62.75,64,54.5,60.25a19.27,19.27,0,0,0-7.4-2.15,7,7,0,0,0-4.85,1.6l-.1.15L42,60a10,10,0,0,0-2.6,5.15l.3,15.5L25.6,74l1.7-8V43.45l54.75,26v22.3l.6,8.9M34.4,55.75,34.45,52,29.8,49.8v3.65l4.6,2.3m41.85,28.6,0-2.6L73.05,80.2v2.55l3.2,1.6M35.9,60.8,36,58.2,32.7,56.65V59.2l3.2,1.6"/><path class="cls-22" d="M27.3,43.45l-1.4-.65V42l55,26.3V60.8l5.15-13.75L91.2,49.5v6.75l-1.4,4V82.6l1.7,7.45-8.85,10.6-.6-8.9V69.45l-54.75-26M47.1,58.1v4.45l0,.05,1.7,7.4-9.2,10.6-.3-15.5A10,10,0,0,1,42,60l.2-.1.1-.15a7,7,0,0,1,4.85-1.6"/><path class="cls-23" d="M80.9,60.8l-55-25.75L31.05,21.6l55,25.45L80.9,60.8M70.7,44.85l-4.65-2.1-2.45,6.1,4.75,2.2,2.35-6.2m5.6,1.35-3.25-1.45L71.35,49l3.3,1.55L76.3,46.2"/><path class="cls-24" d="M76.25,84.35l-3.2-1.6V80.2l3.25,1.55,0,2.6M34.4,55.75l-4.6-2.3V49.8L34.45,52l-.05,3.75m1.5,5-3.2-1.6V56.65L36,58.2l-.05,2.6"/><path class="cls-25" d="M67,95.65,39.25,82.55h.85a2.11,2.11,0,0,0,1.1-.65l9.15-10.6.3-.45,17.3,8,0,.75v6.25l-1.7,7.8a2,2,0,0,0,.15,1.3l.55.7"/><path class="cls-26" d="M104.4,62.35l-.3-1.2-.5-1.75q-1.69-5.4-3.95-6l-.65-.1-.65.1q-2.25.65-3.9,6l-.55,1.75-.3,1.2-1.1,6-.25,2.25L92,73.7l-.2,4.85v3a6.89,6.89,0,0,0,2.1,4.75l1.3,1,1.45.7V89.8a2.24,2.24,0,0,0,.65,1.65,2.3,2.3,0,0,0,1.7.7h0a2.39,2.39,0,0,0,2.35-2.35V88.05L103,87.3l1.15-1a6.89,6.89,0,0,0,2.1-4.75v-3L106,73.7l-.25-3.1-.25-2.25-1.1-6M92.9,88.1l-.4-.35a8.75,8.75,0,0,1-2.7-6.1v-1.4a76,76,0,0,1,2-19l.15-.6a24.11,24.11,0,0,1,2.45-6.35q2-3.3,4.55-3c1.73-.17,3.27.87,4.6,3.1a26.43,26.43,0,0,1,2.45,6.3l.15.5a79,79,0,0,1,2,19.1v1.4a8.83,8.83,0,0,1-2.65,6.1l-.3.3-1.85,1.3v.45a4.07,4.07,0,0,1-1.2,3l-.15.15a4.07,4.07,0,0,1-3,1.2h0a4.27,4.27,0,0,1-4.35-4.35v-.45A11.08,11.08,0,0,1,92.9,88.1"/><path class="cls-27" d="M93.6,62.35l.3-1.2.55-1.75q1.65-5.4,3.9-6l.65-.1.65.1q2.25.65,3.95,6l.5,1.75.3,1.2-.3.1-.2.1-1,.2L101.4,63l-2.4.1L96.65,63l-1.45-.2-1-.25-.25-.1-.3-.1m11.9,6,.25,2.25.25,3.1a4.25,4.25,0,0,1-1.9,2l-1.15.6-1.55.45L99,77l-2.35-.25-1.45-.4-1.3-.65a4.25,4.25,0,0,1-1.9-2l.25-3.1.25-2.25.1.05,1.3.85,1.3.5,1.45.35,2.35.2,2.4-.2,1.55-.35,1.15-.5,1.35-.85,0-.05m.7,10.9v2.3a6.89,6.89,0,0,1-2.1,4.75l-1.15,1-1.55.75L99,88.4l-2.35-.35-1.45-.7-1.3-1a6.89,6.89,0,0,1-2.1-4.75v-2.3A4.92,4.92,0,0,0,93.9,83l1.3.85,1.45.55,2.35.3,2.4-.3,1.55-.6,1.15-.8a4.92,4.92,0,0,0,2.1-3.75"/><path class="cls-28" d="M106.2,79.25A4.92,4.92,0,0,1,104.1,83l-1.15.8-1.55.6-2.4.3-2.35-.3-1.45-.55L93.9,83a4.92,4.92,0,0,1-2.1-3.75v-.7L92,73.7a4.25,4.25,0,0,0,1.9,2l1.3.65,1.45.4L99,77l2.4-.25,1.55-.45,1.15-.6a4.25,4.25,0,0,0,1.9-2l.2,4.85v.7m-1.8-16.9,1.1,6,0,.05-1.35.85-1.15.5-1.55.35-2.4.2-2.35-.2-1.45-.35-1.3-.5-1.3-.85-.1-.05,1.1-6,.3.1.25.1,1,.25,1.45.2,2.35.1,2.4-.1,1.55-.25,1-.2.2-.1.3-.1"/><path class="cls-25" d="M105.25,88.05l.7.3q2.8,1.5,2.8,3.6T106,95.5a16.16,16.16,0,0,1-13.6,0Q89.55,94,89.55,92t2.8-3.6l.55-.25a11.08,11.08,0,0,0,1.75,1.25v.45A4.27,4.27,0,0,0,99,94.15h0a4.07,4.07,0,0,0,3-1.2l.15-.15a4.07,4.07,0,0,0,1.2-3v-.45l1.85-1.3"/><path class="cls-29" d="M101.4,88.05V89.8a2.39,2.39,0,0,1-2.35,2.35h0a2.3,2.3,0,0,1-1.7-.7,2.24,2.24,0,0,1-.65-1.65V88.05L99,88.4l2.4-.35"/><path class="cls-26" d="M16.9,79.1A5.1,5.1,0,0,0,18.65,78l.2-.15A4.53,4.53,0,0,0,20,74.9v-.85a49.92,49.92,0,0,0-1.35-12.5q-1.39-5.14-3.35-5.15T12,61.55a48.37,48.37,0,0,0-1.4,12.5v.85a4.3,4.3,0,0,0,1.25,2.95L12,78l1.75,1.1v1.15A1.54,1.54,0,0,0,15.3,81.8h0a1.35,1.35,0,0,0,1-.45,1.44,1.44,0,0,0,.5-1.1V79.1m-6.8-.25A6,6,0,0,1,8.6,75v-.9a48.75,48.75,0,0,1,1.5-13Q11.95,54,15.3,54.4q3.35-.49,5.3,6.65a52.21,52.21,0,0,1,1.4,13V75a6.53,6.53,0,0,1-1.4,4l-.5.55h-.05l-1.15.9a3.21,3.21,0,0,1-1,2.35l-.15.15a3.51,3.51,0,0,1-2.4,1h0a3.38,3.38,0,0,1-2.5-1,3.48,3.48,0,0,1-1.05-2.45l-1.15-.9h.05l-.55-.6"/><path class="cls-27" d="M13.75,79.1,12,78l-.15-.15A4.3,4.3,0,0,1,10.6,74.9v-.85A48.37,48.37,0,0,1,12,61.55q1.35-5.14,3.3-5.15t3.35,5.15A49.92,49.92,0,0,1,20,74.05v.85a4.53,4.53,0,0,1-1.15,2.95l-.2.15a5.1,5.1,0,0,1-1.75,1.1l-1.6.25-1.55-.25"/><path class="cls-25" d="M20.6,78.9a3.36,3.36,0,0,1,1.5,2.7,3.72,3.72,0,0,1-2,3.1A8.34,8.34,0,0,1,15.35,86a8.57,8.57,0,0,1-4.8-1.3,3.72,3.72,0,0,1-2-3.1,3.48,3.48,0,0,1,1.5-2.75l.55.6H10.6l1.15.9A3.48,3.48,0,0,0,12.8,82.8a3.38,3.38,0,0,0,2.5,1h0a3.51,3.51,0,0,0,2.4-1l.15-.15a3.21,3.21,0,0,0,1-2.35l1.15-.9h.05l.5-.55"/><path class="cls-29" d="M16.9,79.1v1.15a1.44,1.44,0,0,1-.5,1.1,1.35,1.35,0,0,1-1,.45h0a1.54,1.54,0,0,1-1.55-1.55V79.1l1.55.25,1.6-.25"/></g></g></svg>