<svg xmlns="http://www.w3.org/2000/svg" viewBox="0 0 120 140"><defs><style>.cls-1{fill:#bb6444;}.cls-2{fill:#c26948;}.cls-3{fill:#b55f40;}</style></defs><title>Asset 66</title><g id="Layer_2" data-name="Layer 2"><g id="Layer_1-2" data-name="Layer 1"><path class="cls-1" d="M100.6,96.65,96.5,100l3.35,4.1,4.15-3.35-3.4-4.1M95.4,55.2l-2.2-4.9-4.8,2.2,2.15,4.85L95.4,55.2m20.85-1.05-5.35-.5-.5,5.3,5.25.5.6-5.3m-24-24.8.55-5.25-5.25-.55L87,28.85l5.25.5M107.05,39.8l5,2,1.85-5-5-1.9-1.9,5M43.65,25,40,28.8l3.85,3.65L47.5,28.6,43.65,25M5.4,39.7,2.3,44l4.25,3.1,3.1-4.3-4.25-3m18,12.45L13.9,50l-2.1,9.55,9.45,2.1,2.15-9.5m2.65.35,2.15,4.85L33,55.2l-2.15-4.9-4.8,2.2m-.9-28.95-.55,5.3,5.25.5.55-5.25-5.25-.55m60.6,28.6L76.25,50l-2.1,9.55,9.45,2.1,2.15-9.5m-1.5-9.3,7.25-2.3L89.2,33.3,82,35.6l2.3,7.25M67,55.6l4.45-1.5L70,49.6l-4.5,1.55L67,55.6M54.45,44.55,59.7,44l-.6-5.3-5.25.65.6,5.25M62.2,14l4.85-2.15L64.9,7.05,60,9.2,62.2,14M36.4,48.5l2.25,7.2,7.25-2.25L43.6,46.2l-7.2,2.3M34.15,37.65l3.35,4.1,4.15-3.35-3.4-4.1-4.1,3.35m10.5,2.15,5.05,2,1.85-5-5-1.9-1.9,5M60,0l60,35v70L60,140,0,105V35L60,0M82.6,76.75,75.9,70.6l-6.2,6.7,6.75,6.2,6.15-6.75M62.2,76.4l4.85-2.2L64.9,69.4,60,71.55l2.2,4.85m5.45,10.1L65.2,96.1l9.55,2.55L77.25,89l-9.6-2.5m-10.5-9.75h0L49.8,78.5l1.7,7.4,7.4-1.75-1.75-7.4M82,98l2.3,7.25L91.5,103l-2.3-7.3L82,98m-61.7-21.2-6.7-6.15-6.2,6.7,6.7,6.2,6.2-6.75m21.65-9,.4-3.7L33,63,31.9,72.3l9.3,1,.65-5.6h0M87.5,86,87,91.2l5.25.5.55-5.25L87.5,86M25.15,86,24.6,91.2l5.25.5.55-5.25L25.15,86m9,14,3.35,4.1,4.15-3.35-3.4-4.1L34.15,100M12.4,98.65,14.9,89,5.3,86.5,2.8,96.1l9.6,2.55m32.25,3.5,5.05,1.95,1.85-5-5-1.9-1.9,5M27.25,116.3q2.4-1,4.8-2.15l-2.2-4.9-4.75,2.2,2.15,4.85m59.45-4.2L77.2,110l-2.1,9.55,9.45,2.1,2.15-9.5m-48.05,6,7.25-2.3-2.3-7.2-7.2,2.25,2.25,7.25m32.8-1.65L70,112l-4.5,1.55L67,118l4.45-1.55m-11.8,12,5.25-.8-.85-5.25-5.2.85.8,5.2M98,76l-3.1,4.3,4.35,3.1,3-4.3L98,76m5.55-2.65.65-5.6h0l.4-3.7-9.3-1-1.1,9.3,9.3,1M109,97.2l-1.9,5,5,1.95,1.85-5-5-1.9"/><path class="cls-2" d="M109,97.2l5,1.9-1.85,5-5-1.95,1.9-5M95.4,55.2l-4.85,2.15L88.4,52.5l4.8-2.2,2.2,4.9m11.65-15.4,1.9-5,5,1.9-1.85,5-5-2M92.2,29.35,87,28.85l.55-5.3,5.25.55-.55,5.25m-67.05-5.8,5.25.55-.55,5.25-5.25-.5.55-5.3m.9,29,4.8-2.2L33,55.2l-4.8,2.15L26.05,52.5m-2.65-.35-2.15,9.5-9.45-2.1L13.9,50l9.5,2.15M62.2,76.4,60,71.55l4.9-2.15,2.15,4.8L62.2,76.4M82,98l7.25-2.3,2.3,7.3-7.25,2.25L82,98M25.15,86l5.25.5-.55,5.25-5.25-.5L25.15,86m19.5,16.2,1.9-5,5,1.9-1.85,5-5.05-1.95m-6,15.95-2.25-7.25,7.2-2.25,2.3,7.2-7.25,2.3m48.05-6-2.15,9.5-9.45-2.1L77.2,110l9.5,2.15M98,76l4.3,3.1-3,4.3L94.9,80.3,98,76"/><path class="cls-3" d="M116.25,54.15l-.6,5.3L110.4,59l.5-5.3,5.35.5M5.4,39.7l4.25,3-3.1,4.3L2.3,44,5.4,39.7M43.65,25,47.5,28.6l-3.65,3.85L40,28.8,43.65,25m1,14.85,1.9-5,5,1.9-1.85,5-5.05-2m-10.5-2.15,4.1-3.35,3.4,4.1L37.5,41.75l-3.35-4.1M36.4,48.5l7.2-2.3,2.3,7.25L38.65,55.7,36.4,48.5M62.2,14,60,9.2l4.9-2.15,2.15,4.8L62.2,14M54.45,44.55l-.6-5.25,5.25-.65.6,5.3-5.25.6M67,55.6l-1.55-4.45L70,49.6l1.5,4.5L67,55.6M84.25,42.85,82,35.6l7.25-2.3,2.3,7.25-7.25,2.3m1.5,9.3-2.15,9.5-9.45-2.1L76.25,50l9.5,2.15M82.6,76.75,76.45,83.5,69.7,77.3l6.2-6.7,6.7,6.15m-25.45,0,1.75,7.4L51.5,85.9l-1.7-7.4,7.3-1.75h0m10.5,9.75,9.6,2.5-2.5,9.65L65.2,96.1l2.45-9.6M87.5,86l5.25.5L92.2,91.7,87,91.2,87.5,86M41.9,67.75h0l-.65,5.6-9.3-1L33,63l9.35,1-.4,3.7m-21.65,9-6.2,6.75-6.7-6.2,6.2-6.7,6.7,6.15M12.4,98.65,2.8,96.1l2.5-9.6L14.9,89l-2.5,9.65M34.15,100l4.1-3.35,3.4,4.1L37.5,104.1,34.15,100m-6.9,16.3-2.15-4.85,4.75-2.2,2.2,4.9q-2.4,1.09-4.8,2.15m32.4,12.15-.8-5.2,5.2-.85.85,5.25-5.25.8m11.8-12L67,118l-1.55-4.5L70,112l1.5,4.5m32.1-43.1-9.3-1,1.1-9.3,9.3,1-.4,3.7h0l-.65,5.6m-3,23.3,3.4,4.1-4.15,3.35L96.5,100l4.1-3.35"/></g></g></svg>