<svg xmlns="http://www.w3.org/2000/svg" viewBox="0 0 120 140"><defs><style>.cls-1{fill:#bb6444;}.cls-2{fill:#b55f40;}.cls-3{fill:#c26948;}.cls-4{fill:#593269;}.cls-5{fill:#c16ee2;}.cls-6{fill:#79468e;}.cls-7{fill:#ecdcb8;}.cls-8{fill:#9b59b6;}.cls-9{fill:#d0a500;}.cls-10{fill:#b9c6c6;}.cls-11{fill:#727979;}.cls-12{fill:#fc0;}.cls-13{fill:#856a00;}.cls-14{fill:#ecbc00;}.cls-15{fill:#a6b1b1;}.cls-16{fill-opacity:0.1;}.cls-17{fill:#d5e5e5;}.cls-18{fill:#dbaf00;}.cls-19{fill:#934e35;}</style></defs><title>Asset 120</title><g id="Layer_2" data-name="Layer 2"><g id="Layer_1-2" data-name="Layer 1"><path class="cls-1" d="M47.5,28.6,43.65,25,40,28.8l3.85,3.65L47.5,28.6M30.85,50.3l-4.8,2.2,2.15,4.85L33,55.2l-2.15-4.9M30.4,24.1l-5.25-.55-.55,5.3,5.25.5.55-5.25M41.9,67.75l.4-3.7L33,63,31.9,72.3l9.3,1,.65-5.6h0M2.8,96.1l9.6,2.55L14.9,89,5.3,86.5,2.8,96.1M7.35,77.3l6.7,6.2,6.2-6.75-6.7-6.15-6.2,6.7M2.3,44l4.25,3.1,3.1-4.3-4.25-3L2.3,44M53.85,39.3l.6,5.25L59.7,44l-.6-5.3-5.25.65M43.6,46.2l-7.2,2.3,2.25,7.2,7.25-2.25L43.6,46.2m-2-7.8-3.4-4.1-4.1,3.35,3.35,4.1,4.15-3.35m9.9-1.7-5-1.9-1.9,5,5.05,2,1.85-5M24.6,91.2l5.25.5.55-5.25L25.15,86,24.6,91.2m17,9.55-3.4-4.1L34.15,100l3.35,4.1,4.15-3.35m4.9-3.55-1.9,5,5.05,1.95,1.85-5-5-1.9M49.8,78.5l1.7,7.4,7.4-1.75-1.75-7.4h0L49.8,78.5M13.9,50l-2.1,9.55,9.45,2.1,2.15-9.5L13.9,50m18.15,64.15-2.2-4.9-4.75,2.2,2.15,4.85,4.8-2.15M45.9,115.8l-2.3-7.2-7.2,2.25,2.25,7.25,7.25-2.3M0,35,60,0l60,35v70L60,140,0,105V35M92.75,24.1l-5.25-.55L87,28.85l5.25.5.55-5.25M113.9,36.7l-5-1.9-1.9,5,5,2,1.85-5M85.75,52.15,76.25,50l-2.1,9.55,9.45,2.1,2.15-9.5M70,49.6l-4.5,1.55L67,55.6l4.45-1.5L70,49.6m-2.9-37.75L64.9,7.05,60,9.2,62.2,14l4.85-2.15M93.2,50.3l-4.8,2.2,2.15,4.85L95.4,55.2l-2.2-4.9M75.9,70.6l-6.2,6.7,6.75,6.2,6.15-6.75L75.9,70.6M95.35,63l-1.1,9.3,9.3,1,.65-5.6h0l.4-3.7-9.3-1M91.5,40.55,89.2,33.3,82,35.6l2.3,7.25,7.25-2.3M64.9,69.4,60,71.55l2.2,4.85,4.85-2.2L64.9,69.4m.3,26.7,9.55,2.55L77.25,89l-9.6-2.5L65.2,96.1m24-.45L82,98l2.3,7.25L91.5,103l-2.3-7.3m14.8,5.1-3.4-4.1L96.5,100l3.35,4.1,4.15-3.35m12.25-46.6-5.35-.5-.5,5.3,5.25.5.6-5.3m-23.5,32.3L87.5,86,87,91.2l5.25.5.55-5.25m-6,25.65L77.2,110l-2.1,9.55,9.45,2.1,2.15-9.5M99.25,83.4l3-4.3L98,76l-3.1,4.3,4.35,3.1M109,97.2l-1.9,5,5,1.95,1.85-5-5-1.9m-44.9,25.2-5.2.85.8,5.2,5.25-.8-.85-5.25m7.4-6L70,112l-4.5,1.55L67,118l4.45-1.55"/><path class="cls-2" d="M71.45,116.45,67,118l-1.55-4.5L70,112l1.5,4.5M47.5,28.6l-3.65,3.85L40,28.8,43.65,25,47.5,28.6m4,8.1-1.85,5-5.05-2,1.9-5,5,1.9m-9.9,1.7L37.5,41.75l-3.35-4.1,4.1-3.35,3.4,4.1m2,7.8,2.3,7.25L38.65,55.7,36.4,48.5l7.2-2.3m10.25-6.9,5.25-.65.6,5.3-5.25.6-.6-5.25M2.3,44,5.4,39.7l4.25,3-3.1,4.3L2.3,44M7.35,77.3l6.2-6.7,6.7,6.15-6.2,6.75-6.7-6.2M2.8,96.1l2.5-9.6L14.9,89l-2.5,9.65L2.8,96.1M41.9,67.75h0l-.65,5.6-9.3-1L33,63l9.35,1-.4,3.7m-.25,33L37.5,104.1,34.15,100l4.1-3.35,3.4,4.1M49.8,78.5l7.3-1.75h0l1.75,7.4L51.5,85.9l-1.7-7.4M32.05,114.15l-4.8,2.15-2.15-4.85,4.75-2.2,2.2,4.9m35-102.3L62.2,14,60,9.2l4.9-2.15,2.15,4.8M70,49.6l1.5,4.5L67,55.6l-1.55-4.45L70,49.6m15.8,2.55-2.15,9.5-9.45-2.1L76.25,50l9.5,2.15m5.75-11.6-7.25,2.3L82,35.6l7.25-2.3,2.3,7.25M95.35,63l9.3,1-.4,3.7h0l-.65,5.6-9.3-1,1.1-9.3M75.9,70.6l6.7,6.15L76.45,83.5,69.7,77.3l6.2-6.7M65.2,96.1l2.45-9.6,9.6,2.5-2.5,9.65L65.2,96.1m27.55-9.65L92.2,91.7,87,91.2,87.5,86l5.25.5m23.5-32.3-.6,5.3L110.4,59l.5-5.3,5.35.5M104,100.75l-4.15,3.35L96.5,100l4.1-3.35,3.4,4.1M64.05,122.4l.85,5.25-5.25.8-.8-5.2,5.2-.85"/><path class="cls-3" d="M30.4,24.1l-.55,5.25-5.25-.5.55-5.3,5.25.55m.45,26.2L33,55.2l-4.8,2.15L26.05,52.5l4.8-2.2M24.6,91.2,25.15,86l5.25.5-.55,5.25-5.25-.5m21.95,6,5,1.9-1.85,5-5.05-1.95,1.9-5M13.9,50l9.5,2.15-2.15,9.5-9.45-2.1L13.9,50m32,65.8-7.25,2.3-2.25-7.25,7.2-2.25,2.3,7.2m68-79.1-1.85,5-5-2,1.9-5,5,1.9M92.75,24.1l-.55,5.25L87,28.85l.55-5.3,5.25.55m.45,26.2,2.2,4.9-4.85,2.15L88.4,52.5l4.8-2.2M64.9,69.4l2.15,4.8L62.2,76.4,60,71.55l4.9-2.15M89.2,95.65l2.3,7.3-7.25,2.25L82,98l7.25-2.3M109,97.2l5,1.9-1.85,5-5-1.95,1.9-5m-9.7-13.8L94.9,80.3,98,76l4.3,3.1-3,4.3M86.7,112.1l-2.15,9.5-9.45-2.1L77.2,110l9.5,2.15"/><path class="cls-4" d="M94.5,64.45l6.65-1.05V41.65L97.55,30.7l-13.3,2.6V55l3.15,10.6,3.25-.5v1.6l1.15,2.5,2.7-.7v-4m8.65-22.8V63.4a2,2,0,0,1-.45,1.3,2.21,2.21,0,0,1-1.25.7l-5,.75v2.3a2.05,2.05,0,0,1-.4,1.25,2.42,2.42,0,0,1-1.1.7l-2.7.7L91,71a1.91,1.91,0,0,1-1-1l-1.15-2.5,0-.15-1.1.2a2,2,0,0,1-2.2-1.4l-3.15-10.6-.1-.6V33.3a1.92,1.92,0,0,1,.45-1.25,1.74,1.74,0,0,1,1.2-.7l13.3-2.6a1.76,1.76,0,0,1,1.35.25,1.88,1.88,0,0,1,.9,1.1l3.6,10.95.1.6"/><path class="cls-5" d="M84.25,33.3l13.3-2.6,3.6,11L87.4,44,84.25,33.3"/><path class="cls-6" d="M84.25,33.3,87.4,44V65.55L84.25,55V33.3"/><path class="cls-7" d="M94.5,64.45v4l-2.7.7-1.15-2.5v-1.6l3.85-.6"/><path class="cls-8" d="M94.5,64.45l-3.85.6-3.25.5V44l13.75-2.35V63.4L94.5,64.45"/><path class="cls-9" d="M43.8,69.5l-6.9,2.2.6-.65,19.2-22.7,6.9-2.25L43.8,69.5M64.05,84.75V89.1L61.9,91.65V87.3l2.15-2.55"/><path class="cls-10" d="M64.05,84.75,42.4,74.6l-2.15,2.55V81.5l2.15,1v3.7l-9.6-4.5,4.1-10,6.9-2.2,18.9,8.85L69.6,87l4.05,13.8-9.6-4.45V84.75"/><path class="cls-11" d="M37.5,71.05l-.6.65-4.1,10,9.6,4.5,2.25-2.65,17.25,8.1,2.15-2.55v7.25l9.6,4.45,19.8-23.35L89.5,64,91,62.3l0,.05.35.7L95.4,76.9v1l-.4.85L75.2,102.1l-1.1.65-1.3-.1L63.2,98.2,63,98.05l-.55-.6a1.89,1.89,0,0,1-.35-1.1v-2.7l-1-.2L45.2,86,44,87.5a2.11,2.11,0,0,1-1.1.65L41.55,88l-.45-.2L32,83.5a1.81,1.81,0,0,1-1-1A2,2,0,0,1,31,81l3.8-9.25,2.75-.65"/><path class="cls-12" d="M43.8,69.5,63.6,46.1,82.5,55,62.7,78.35,43.8,69.5m-3.55,7.65L42.4,74.6,64.05,84.75,61.9,87.3,40.25,77.15"/><path class="cls-13" d="M63.6,46.1l-6.9,2.25L37.5,71.05l-2.75.65.3-.75a1.43,1.43,0,0,1,.35-.55L55.2,47.05a1.64,1.64,0,0,1,.9-.6L63,44.2l1.45.1,18.9,8.85.7.55h0L91,62.3,89.5,64l-.1-.35L82.5,55,63.6,46.1"/><path class="cls-14" d="M42.4,82.5l-2.15-1V77.15L61.9,87.3v4.35l-17.25-8.1-2.25-1M69.6,87l-6.9-8.65L82.5,55l6.9,8.65L69.6,87"/><path class="cls-15" d="M69.6,87,89.4,63.6l.1.35,4,13.5L73.65,100.8,69.6,87m-27.2-.8V82.5l2.25,1L42.4,86.2"/><path class="cls-16" d="M63,98.05,41.1,87.8l.45.2,1.3.15A2.11,2.11,0,0,0,44,87.5L45.2,86l15.85,7.45,1,.2v2.7a1.89,1.89,0,0,0,.35,1.1l.55.6"/><path class="cls-13" d="M30.45,35.65v9.8l-2-.7v-9.1l.2-.8L33.4,24.5a1.81,1.81,0,0,1,1.15-1.05l1.5.05,7.55,3.55.1.05-1,2v-.25L35.2,25.3,30.45,35.65"/><path class="cls-11" d="M43.7,27.1l.75.7.3,1.05v16.8l1,.5.85.75L46.9,48V50.3a2,2,0,0,1-.45,1.3L40.1,59.1l-1.1.65-1.3-.1L25.8,54.1l-.8-.75a1.89,1.89,0,0,1-.35-1.1V50a1.89,1.89,0,0,1,.5-1.3l3.3-3.9,2,.7L26.65,50v2.3l11.9,5.55,6.35-7.5V48l-2.15-1V29.1l1-2"/><path class="cls-17" d="M26.65,50l3.8-4.5v3.6L38,52.6,42.75,47l2.15,1L38.55,55.5,26.65,50"/><path class="cls-18" d="M30.45,45.45v-9.8L38,39.15V52.6l-7.55-3.55v-3.6"/><path class="cls-10" d="M38.55,57.8l-11.9-5.55V50l11.9,5.55v2.3"/><path class="cls-15" d="M42.75,28.85V47L38,52.6V39.15l4.75-10.3M38.55,55.5,44.9,48V50.3l-6.35,7.5V55.5"/><path class="cls-12" d="M30.45,35.65,35.2,25.3l7.55,3.55L38,39.15l-7.55-3.5"/><path class="cls-13" d="M11.45,63.75v-9.1l.2-.8L16.4,43.5a1.81,1.81,0,0,1,1.15-1l1.5,0,7.55,3.55.1.05-.95,2v-.25L18.2,44.3,13.45,54.65v9.8l-2-.7"/><path class="cls-15" d="M25.75,47.85V66L21,71.6V58.15l4.75-10.3M21.55,76.8V74.5L27.9,67V69.3l-6.35,7.5"/><path class="cls-11" d="M21.55,76.8l6.35-7.5V67l-2.15-1V48.1l.95-2,.75.7.3,1.05v16.8l1,.5.85.75.3,1V69.3a2,2,0,0,1-.45,1.3L23.1,78.1a2.11,2.11,0,0,1-1.1.65l-1.3-.1L8.8,73.1,8,72.35a1.89,1.89,0,0,1-.35-1.1V69a1.89,1.89,0,0,1,.5-1.3l3.3-3.9,2,.7L9.65,69v2.3l11.9,5.55"/><path class="cls-12" d="M13.45,54.65,18.2,44.3l7.55,3.55L21,58.15l-7.55-3.5"/><path class="cls-18" d="M13.45,54.65,21,58.15V71.6l-7.55-3.55V54.65"/><path class="cls-10" d="M21.55,76.8,9.65,71.25V69l11.9,5.55v2.3"/><path class="cls-17" d="M9.65,69l3.8-4.5v3.6L21,71.6,25.75,66l2.15,1L21.55,74.5,9.65,69"/><path class="cls-5" d="M83.5,74.8l6.25-7L99.6,72.2,93,79.3,83.5,74.8"/><path class="cls-4" d="M83.5,74.8V85.6l6.3,3.05v2.6l2.1.8,1.95-1.85V88.8l5.75-6.1V72.2l-9.85-4.45-6.25,7M90.6,66l9.85,4.45.85.75.3,1V82.7a2,2,0,0,1-.55,1.4l-5.2,5.5v.6l-.15.8-.45.65-2,1.85-1,.5-1.1,0-2.1-.8a2,2,0,0,1-1.3-1.9V89.9l-5.15-2.5-.85-.75a2,2,0,0,1-.3-1.05V74.8a1.89,1.89,0,0,1,.5-1.3l6.25-7a2.11,2.11,0,0,1,1.1-.65L90.6,66"/><path class="cls-7" d="M93.85,88.8v1.4L91.9,92.05l-2.1-.8v-2.6L92.7,90l1.15-1.2"/><path class="cls-8" d="M83.5,74.8,93,79.3,92.7,90l-2.9-1.35L83.5,85.6V74.8"/><path class="cls-6" d="M93,79.3l6.65-7.1V82.7l-5.75,6.1L92.7,90,93,79.3"/><path class="cls-19" d="M28.85,104.7l1.35,2.2-3.6.95-1.35-2.2,3.6-1m9.75-.7,2.15,3.5-5.85,1.55-2.15-3.5L38.6,104m2.9,4.45,5.25-1.4,1.9,3.15-5.25,1.4-1.9-3.15m-16.85-9.2L31,97.55l2.3,3.8L27,103.05l-2.3-3.8m13.05-.2,7.35-2,2.7,4.4-7.35,2-2.7-4.4M33.65,97.5,32.3,95.35,36,94.4l1.35,2.15-3.65,1"/></g></g></svg>