<svg xmlns="http://www.w3.org/2000/svg" viewBox="0 0 120 140"><defs><style>.cls-1{fill:#bb6444;}.cls-2{fill:#c26948;}.cls-3{fill:#b55f40;}.cls-4{fill:#7b412c;}.cls-5{fill:#a6583b;}.cls-6{fill:#d4714d;}.cls-7{fill:#5a6b6b;}</style></defs><title>Asset 77</title><g id="Layer_2" data-name="Layer 2"><g id="Layer_1-2" data-name="Layer 1"><path class="cls-1" d="M27.25,116.3l4.8-2.15-2.2-4.9-4.75,2.2,2.15,4.85M120,105,60,140,0,105V35L60,0l60,35v70M25.15,23.55l-.55,5.3,5.25.5.55-5.25-5.25-.55M5.4,39.7,2.3,44l4.25,3.1,3.1-4.3-4.25-3M26.05,52.5l2.15,4.85L33,55.2l-2.15-4.9-4.8,2.2m8.1-14.85,3.35,4.1,4.15-3.35-3.4-4.1-4.1,3.35M36.4,48.5l2.25,7.2,7.25-2.25L43.6,46.2l-7.2,2.3m-13,3.65L13.9,50l-2.1,9.55,9.45,2.1,2.15-9.5m42.05-1L67,55.6l4.45-1.5L70,49.6l-4.5,1.55M49.7,41.75l1.85-5-5-1.9-1.9,5,5.05,2m4.15-2.45.6,5.25L59.7,44l-.6-5.3-5.25.65M43.65,25,40,28.8l3.85,3.65L47.5,28.6,43.65,25M62.2,14l4.85-2.15L64.9,7.05,60,9.2,62.2,14m31,36.3-4.8,2.2,2.15,4.85L95.4,55.2l-2.2-4.9m-1-20.95.55-5.25-5.25-.55L87,28.85l5.25.5m-8,13.5,7.25-2.3L89.2,33.3,82,35.6l2.3,7.25m22.8-3.05,5,2,1.85-5-5-1.9-1.9,5m-2.8,28,.4-3.7-9.3-1-1.1,9.3,9.3,1,.65-5.6h0m-18.5-15.6L76.25,50l-2.1,9.55,9.45,2.1,2.15-9.5m30.5,2-5.35-.5-.5,5.3,5.25.5.6-5.3M98,76l-3.1,4.3,4.35,3.1,3-4.3L98,76M92.2,91.7l.55-5.25L87.5,86,87,91.2l5.25.5M82,98l2.3,7.25L91.5,103l-2.3-7.3L82,98m17.9,6.15,4.15-3.35-3.4-4.1L96.5,100l3.35,4.1M62.2,76.4l4.85-2.2L64.9,69.4,60,71.55l2.2,4.85m44.85,25.75,5,1.95,1.85-5-5-1.9-1.9,5M41.2,73.35l.65-5.6h0l.4-3.7L33,63,31.9,72.3l9.3,1m15.9,3.4L49.8,78.5l1.7,7.4,7.4-1.75-1.75-7.4h0M75.9,70.6l-6.2,6.7,6.75,6.2,6.15-6.75L75.9,70.6M44.65,102.15l5.05,1.95,1.85-5-5-1.9-1.9,5M65.2,96.1l9.55,2.55L77.25,89l-9.6-2.5L65.2,96.1M77.2,110l-2.1,9.55,9.45,2.1,2.15-9.5L77.2,110m-17.55,18.5,5.25-.8-.85-5.25-5.2.85.8,5.2M70,112l-4.5,1.55L67,118l4.45-1.55L70,112M45.9,115.8l-2.3-7.2-7.2,2.25,2.25,7.25,7.25-2.3M34.15,100l3.35,4.1,4.15-3.35-3.4-4.1L34.15,100M5.3,86.5,2.8,96.1l9.6,2.55L14.9,89,5.3,86.5m8.25-15.9-6.2,6.7,6.7,6.2,6.2-6.75-6.7-6.15M25.15,86,24.6,91.2l5.25.5.55-5.25L25.15,86"/><path class="cls-2" d="M25.15,86l5.25.5-.55,5.25-5.25-.5L25.15,86m0-62.4,5.25.55-.55,5.25-5.25-.5.55-5.3m.9,29,4.8-2.2L33,55.2l-4.8,2.15L26.05,52.5m-2.65-.35-2.15,9.5-9.45-2.1L13.9,50l9.5,2.15m68.8-22.8L87,28.85l.55-5.3,5.25.55-.55,5.25m1,20.95,2.2,4.9-4.85,2.15L88.4,52.5l4.8-2.2m13.85-10.5,1.9-5,5,1.9-1.85,5-5-2M98,76l4.3,3.1-3,4.3L94.9,80.3,98,76M82,98l7.25-2.3,2.3,7.3-7.25,2.25L82,98m25.1,4.2,1.9-5,5,1.9-1.85,5-5-1.95M62.2,76.4,60,71.55l4.9-2.15,2.15,4.8L62.2,76.4M44.65,102.15l1.9-5,5,1.9-1.85,5-5.05-1.95M77.2,110l9.5,2.15-2.15,9.5-9.45-2.1L77.2,110M45.9,115.8l-7.25,2.3-2.25-7.25,7.2-2.25,2.3,7.2"/><path class="cls-3" d="M5.4,39.7l4.25,3-3.1,4.3L2.3,44,5.4,39.7m31,8.8,7.2-2.3,2.3,7.25L38.65,55.7,36.4,48.5M34.15,37.65l4.1-3.35,3.4,4.1L37.5,41.75l-3.35-4.1M62.2,14,60,9.2l4.9-2.15,2.15,4.8L62.2,14M43.65,25,47.5,28.6l-3.65,3.85L40,28.8,43.65,25M53.85,39.3l5.25-.65.6,5.3-5.25.6-.6-5.25M49.7,41.75l-5.05-2,1.9-5,5,1.9-1.85,5m15.75,9.4L70,49.6l1.5,4.5L67,55.6l-1.55-4.45m18.8-8.3L82,35.6l7.25-2.3,2.3,7.25-7.25,2.3m32,11.3-.6,5.3L110.4,59l.5-5.3,5.35.5m-30.5-2-2.15,9.5-9.45-2.1L76.25,50l9.5,2.15m18.5,15.6h0l-.65,5.6-9.3-1,1.1-9.3,9.3,1-.4,3.7m-12,24L87,91.2,87.5,86l5.25.5L92.2,91.7m7.65,12.4L96.5,100l4.1-3.35,3.4,4.1-4.15,3.35M75.9,70.6l6.7,6.15L76.45,83.5,69.7,77.3l6.2-6.7M57.1,76.75h0l1.75,7.4L51.5,85.9l-1.7-7.4,7.3-1.75m-15.9-3.4-9.3-1L33,63l9.35,1-.4,3.7h0l-.65,5.6m24,22.75,2.45-9.6,9.6,2.5-2.5,9.65L65.2,96.1M70,112l1.5,4.5L67,118l-1.55-4.5L70,112m-10.3,16.5-.8-5.2,5.2-.85.85,5.25-5.25.8M13.55,70.6l6.7,6.15-6.2,6.75-6.7-6.2,6.2-6.7M5.3,86.5,14.9,89l-2.5,9.65L2.8,96.1l2.5-9.6M34.15,100l4.1-3.35,3.4,4.1L37.5,104.1,34.15,100m-6.9,16.3-2.15-4.85,4.75-2.2,2.2,4.9-4.8,2.15"/><path class="cls-4" d="M30.75,54.25l2.4-3,2.4-12.7a2,2,0,0,1,.45-1l2-2.35a1.39,1.39,0,0,1,.7-.5l.85-.2,7.55.2.9.25.7.6,1.6,2.25.35.9,1.05,7.8,2.1,2.9.35.85,2.9,18.35,0,.85-.4.75L50.05,78l-.75.55-.85.15-12.2-.4-.85-.2-.7-.6-5.8-8a1.82,1.82,0,0,1-.35-1.45l1.75-12.8a1.52,1.52,0,0,1,.45-1M37.5,39l-2.45,13.2-2.8,3.35L30.5,68.3l5.8,8,12.2.4L55.05,69l-2.9-18.35-2.35-3.3-1.15-8.3-1.6-2.25-7.55-.2L37.5,39"/><path class="cls-1" d="M37.5,39l2-2.35,7.55.2,1.6,2.25,1.15,8.3,2.35,3.3-2.4,2.8-7.45-1.1.15-9.2-5-4.2M32.25,55.5l2.8-3.35,6.9,5.9,8.6,1.4-.15.15-.1,0v.05l0,0,0,0-2.5,3-10.5-.3-5-7"/><path class="cls-5" d="M32.25,55.5l5,7L36.3,76.3l-5.8-8,1.75-12.8m2.8-3.35L37.5,39l5,4.2-.15,9.2L42,58.05l-6.9-5.9m17.1-1.5L55.05,69,48.5,76.7l-.8-14,2.5-3,.1,0v-.1l.1,0,.15-.15V59.4l-.8-5.95,2.4-2.8"/><path class="cls-6" d="M48.5,76.7l-12.2-.4.9-13.85,10.5.3.8,14M42,58.05l.35-5.7,7.45,1.1.8,5.95v.05L42,58.05"/><path class="cls-7" d="M50.3,59.75l-.1,0,0,0h0"/><path class="cls-5" d="M91.3,49.05,86.05,42.3l-.85-4.65,4.1.1,2,11.3m-16-3.95L75.8,40l4.6-1.5-.1,1-5,5.6"/><path class="cls-4" d="M75.35,45.1l7.05,6.65,8.9-2.7-2-11.3-4.1-.1-4.8.85L75.8,40l-.45,5.1M73.8,39.85a1.79,1.79,0,0,1,.45-1.1l1-.65,4.6-1.5.25-.05,4.8-.85.4-.05,4.1.1a1.82,1.82,0,0,1,1.25.5,2,2,0,0,1,.7,1.15l2,11.3a2,2,0,0,1-.3,1.4l-1.1.9L83,53.7H82l-.9-.5-7-6.65-.5-.75L73.35,45l.45-5.1"/><path class="cls-1" d="M75.35,45.1l5-5.6.1-1,4.8-.85.85,4.65L84,43l-1.55,8.8L75.35,45.1"/><path class="cls-6" d="M91.3,49.05l-8.9,2.7L84,43l2.1-.65,5.25,6.75"/><path class="cls-4" d="M51.3,57.5l10.45.25.9.25.7.6,4.85,6.85.35.85,2.5,15L75.5,93.8l.1,1-.45,1-9.55,11.4-.7.55-.9.15-18-.5-.9-.2-.65-.65L36,94.6l-.35-.85a1.54,1.54,0,0,1,.1-1l4.5-12.4.3-.6,3.25-4,2.75-13.5a2,2,0,0,1,.45-.9l2.75-3.25a1.39,1.39,0,0,1,.7-.5l.85-.2m15.25,9.1L61.7,59.75,51.25,59.5,48.5,62.75l-2.85,14-3.55,4.3-4.5,12.4,8.4,11.9,18,.5,9.55-11.4-4.5-12.7L66.55,66.6"/><path class="cls-1" d="M66.55,66.6,63.8,69.85,65.55,86.1,62,90.3l-13.6-.4L42.1,81.05l3.55-4.3,9.6,8.6L55.9,69.4l-7.4-6.65,2.75-3.25,10.45.25,4.85,6.85"/><path class="cls-5" d="M66.55,66.6,69.1,81.75l4.5,12.7-9.55,11.4L62,90.3l3.6-4.2L63.8,69.85l2.75-3.25M46,105.35l-8.4-11.9,4.5-12.4,6.25,8.85L46,105.35m-.35-28.6,2.85-14,7.4,6.65-.65,15.95-9.6-8.6"/><path class="cls-6" d="M64.05,105.85l-18-.5L48.35,89.9l13.6.4,2.1,15.55"/></g></g></svg>