<svg xmlns="http://www.w3.org/2000/svg" viewBox="0 0 120 140"><defs><style>.cls-1{fill:#a4afaf;}.cls-2{fill:#9ba6a6;}.cls-3{fill:#a9b6b6;}.cls-4{fill:#115f32;}.cls-5{fill:#1b914d;}.cls-6{fill:#198a49;}.cls-7{fill-opacity:0.1;}.cls-8{fill:#bb8044;}.cls-9{fill:#954f35;}.cls-10{fill:#727979;}.cls-11{fill:#8a9393;}.cls-12{fill:#b9c6c6;}.cls-13{fill:#c46847;}.cls-14{fill:#aa5a3d;}.cls-15{fill:#e27952;}.cls-16{fill:#a6b1b1;}.cls-17{fill:#d5e5e5;}.cls-18{fill:#178044;}.cls-19{fill:#0e4f29;}.cls-20{fill:#bdcbcb;}.cls-21{fill:#136d3a;}</style></defs><title>Asset 91</title><g id="Layer_2" data-name="Layer 2"><g id="Layer_1-2" data-name="Layer 1"><path class="cls-1" d="M47,114.35l-5.9-2.75L37.4,116l5.9,2.75,3.7-4.35M12.15,67.15,21.4,71.5l5.85-6.85L18,60.35l-5.8,6.8m.45,8.95L8.9,80.45l5.9,2.75,3.7-4.35L12.6,76.1M0,35,60,0l60,35v70L60,140,0,105V35M64.8,17.2l3.7-4.35L62.6,10.1l-3.7,4.35,5.9,2.75M94.25,28.35l-5.9-2.75L84.65,30l5.9,2.75,3.7-4.35m2.55,9.1,3.7-4.35-5.9-2.75L90.9,34.7l5.9,2.75m-23.65-.3L82.4,41.5l5.85-6.85L79,30.35l-5.8,6.8M47,105.6l-5.9-2.75-3.7,4.35L43.3,110,47,105.6m-14-77.5-5.8,6.8,9.25,4.35,5.85-6.85-9.3-4.3M36.8,66.45l3.7-4.35-5.9-2.75L30.9,63.7l5.9,2.75m-7.15,14,5.85-6.85-9.3-4.3-5.8,6.8,9.25,4.35m41.6-18.4-5.9-2.75-3.7,4.35,5.9,2.75,3.7-4.35m9.25,7.15L71.2,65l-5.8,6.8,9.25,4.35,5.85-6.85M90.9,66.6l5.9,2.75L100.5,65l-5.9-2.75L90.9,66.6m-6.25,39-5.9-2.75-3.7,4.35L81,110l3.7-4.35M83.2,90.35l-5.8,6.8,9.25,4.35,5.85-6.85-9.3-4.3m25.85-21,3.7-4.35-5.9-2.75-3.7,4.35,5.9,2.75M98.9,102.6,93,99.85l-3.7,4.35L95.2,107l3.7-4.35M33,112.7,27.1,110l-3.7,4.35,5.9,2.75L33,112.7"/><path class="cls-2" d="M33,112.7l-3.7,4.35-5.9-2.75L27.1,110,33,112.7M12.6,76.1l5.9,2.75L14.8,83.2,8.9,80.45l3.7-4.35M94.25,28.35l-3.7,4.35L84.65,30l3.7-4.35,5.9,2.75M64.8,17.2l-5.9-2.75,3.7-4.35,5.9,2.75L64.8,17.2M33.05,28.1l9.3,4.3L36.5,39.25,27.25,34.9l5.8-6.8m14,77.5L43.3,110l-5.9-2.75,3.7-4.35L47,105.6m43.9-39,3.7-4.35L100.5,65l-3.7,4.35L90.9,66.6M80.5,69.25,74.65,76.1,65.4,71.75,71.2,65l9.3,4.3M71.25,62.1l-3.7,4.35-5.9-2.75,3.7-4.35,5.9,2.75m12,28.25,9.3,4.3-5.85,6.85L77.4,97.15l5.8-6.8"/><path class="cls-3" d="M12.15,67.15l5.8-6.8,9.3,4.3L21.4,71.5l-9.25-4.35m61-30,5.8-6.8,9.3,4.3L82.4,41.5l-9.25-4.35m23.65.3L90.9,34.7l3.7-4.35,5.9,2.75-3.7,4.35M29.65,80.5,20.4,76.15l5.8-6.8,9.3,4.3L29.65,80.5m7.15-14L30.9,63.7l3.7-4.35,5.9,2.75-3.7,4.35M84.65,105.6,81,110l-5.9-2.75,3.7-4.35,5.9,2.75m14.25-3L95.2,107l-5.9-2.75L93,99.85l5.9,2.75m10.15-33.25-5.9-2.75,3.7-4.35,5.9,2.75-3.7,4.35m-62,45-3.7,4.35L37.4,116l3.7-4.35,5.9,2.75"/><path class="cls-4" d="M50.1,29.35l-.3-1.2-.5-1.75q-1.69-5.4-3.95-6l-.65-.1-.65.1q-2.25.64-3.9,6l-.55,1.75-.3,1.2-1.1,6L38,37.6l-.25,3.1-.2,4.85v3a6.89,6.89,0,0,0,2.1,4.75l1.3,1.05,1.45.7V56.8A2.24,2.24,0,0,0,43,58.45a2.3,2.3,0,0,0,1.7.7h0A2.39,2.39,0,0,0,47.1,56.8V55.05l1.55-.75,1.15-1a6.89,6.89,0,0,0,2.1-4.75v-3l-.2-4.85-.25-3.1-.25-2.25-1.1-6M38.6,55.1l-.4-.35a8.75,8.75,0,0,1-2.7-6.1v-1.4a76,76,0,0,1,2-19l.15-.6a24.11,24.11,0,0,1,2.45-6.35q2-3.3,4.55-3.05c1.73-.17,3.27.87,4.6,3.1a26.43,26.43,0,0,1,2.45,6.3l.15.5a79,79,0,0,1,2,19.1v1.4a8.83,8.83,0,0,1-2.65,6.1l-.3.3a10.43,10.43,0,0,1-1.85,1.3v.45a4.07,4.07,0,0,1-1.2,3l-.15.15a4.07,4.07,0,0,1-3,1.2h0a4.27,4.27,0,0,1-4.35-4.35v-.45L38.6,55.1"/><path class="cls-5" d="M39.3,29.35l.3-1.2.55-1.75q1.65-5.4,3.9-6l.65-.1.65.1q2.25.64,3.95,6l.5,1.75.3,1.2-.3.1-.2.1-1,.2L47.1,30l-2.4.1L42.35,30l-1.45-.2-1-.25-.25-.1-.3-.1m11.9,6,.25,2.25.25,3.1a4.25,4.25,0,0,1-1.9,1.95l-1.15.6-1.55.45L44.7,44l-2.35-.25-1.45-.4-1.3-.65a4.25,4.25,0,0,1-1.9-1.95L38,37.6l.25-2.25.1,0,1.3.85,1.3.5,1.45.35,2.35.2,2.4-.2,1.55-.35,1.15-.5,1.35-.85.05,0m.7,10.9v2.3a6.89,6.89,0,0,1-2.1,4.75l-1.15,1-1.55.75-2.4.35-2.35-.35-1.45-.7L39.6,53.3a6.89,6.89,0,0,1-2.1-4.75v-2.3A4.92,4.92,0,0,0,39.6,50l1.3.85,1.45.55,2.35.3,2.4-.3,1.55-.6L49.8,50a4.92,4.92,0,0,0,2.1-3.75"/><path class="cls-6" d="M51.9,46.25A4.92,4.92,0,0,1,49.8,50l-1.15.8-1.55.6-2.4.3-2.35-.3-1.45-.55L39.6,50a4.92,4.92,0,0,1-2.1-3.75v-.7l.2-4.85a4.25,4.25,0,0,0,1.9,1.95l1.3.65,1.45.4L44.7,44l2.4-.25,1.55-.45,1.15-.6a4.25,4.25,0,0,0,1.9-1.95l.2,4.85v.7m-1.8-16.9,1.1,6-.05,0-1.35.85-1.15.5-1.55.35-2.4.2-2.35-.2-1.45-.35-1.3-.5-1.3-.85-.1,0,1.1-6,.3.1.25.1,1,.25,1.45.2,2.35.1,2.4-.1,1.55-.25,1-.2.2-.1.3-.1"/><path class="cls-7" d="M51,55.05l.7.3q2.81,1.5,2.8,3.6t-2.8,3.55a14.23,14.23,0,0,1-6.8,1.5,14.23,14.23,0,0,1-6.8-1.5Q35.25,61,35.25,59t2.8-3.6l.55-.25,1.75,1.25v.45a4.27,4.27,0,0,0,4.35,4.35h0a4.07,4.07,0,0,0,3-1.2l.15-.15a4.07,4.07,0,0,0,1.2-3v-.45A10.43,10.43,0,0,0,51,55.05"/><path class="cls-8" d="M47.1,55.05V56.8a2.39,2.39,0,0,1-2.35,2.35h0a2.3,2.3,0,0,1-1.7-.7,2.24,2.24,0,0,1-.65-1.65V55.05l2.35.35,2.4-.35"/><path class="cls-4" d="M30,54.6a5.1,5.1,0,0,0,1.75-1.1l.2-.15a4.53,4.53,0,0,0,1.15-3v-.85a49.92,49.92,0,0,0-1.35-12.5q-1.39-5.14-3.35-5.15t-3.3,5.15a48.37,48.37,0,0,0-1.4,12.5v.85a4.3,4.3,0,0,0,1.25,3l.15.15a4.34,4.34,0,0,0,1.75,1.1v1.15a1.54,1.54,0,0,0,1.55,1.55h0a1.35,1.35,0,0,0,1.05-.45,1.44,1.44,0,0,0,.5-1.1V54.6m-6.8-.25a6,6,0,0,1-1.5-3.9v-.9a48.75,48.75,0,0,1,1.5-13q1.84-7.09,5.2-6.65,3.34-.49,5.3,6.65a52.21,52.21,0,0,1,1.4,13v.9a6.53,6.53,0,0,1-1.4,3.95l-.5.55h0l-1.15.9a3.21,3.21,0,0,1-1,2.35l-.15.15a3.51,3.51,0,0,1-2.4.95h0a3.38,3.38,0,0,1-2.5-1,3.48,3.48,0,0,1-1.05-2.45L23.65,55h.05l-.55-.6"/><path class="cls-5" d="M26.8,54.6a4.34,4.34,0,0,1-1.75-1.1l-.15-.15a4.3,4.3,0,0,1-1.25-3v-.85a48.37,48.37,0,0,1,1.4-12.5q1.35-5.14,3.3-5.15t3.35,5.15a49.92,49.92,0,0,1,1.35,12.5v.85a4.53,4.53,0,0,1-1.15,3l-.2.15A5.1,5.1,0,0,1,30,54.6l-1.6.25L26.8,54.6"/><path class="cls-7" d="M33.65,54.4a3.36,3.36,0,0,1,1.5,2.7,3.72,3.72,0,0,1-2,3.1,8.34,8.34,0,0,1-4.75,1.3,8.57,8.57,0,0,1-4.8-1.3,3.72,3.72,0,0,1-2-3.1,3.48,3.48,0,0,1,1.5-2.75l.55.6h-.05l1.15.9a3.48,3.48,0,0,0,1.05,2.45,3.38,3.38,0,0,0,2.5,1h0a3.51,3.51,0,0,0,2.4-.95L31,58.2a3.21,3.21,0,0,0,1-2.35L33.1,55h0l.5-.55"/><path class="cls-8" d="M30,54.6v1.15a1.44,1.44,0,0,1-.5,1.1,1.35,1.35,0,0,1-1.05.45h0a1.54,1.54,0,0,1-1.55-1.55V54.6l1.55.25L30,54.6"/><path class="cls-9" d="M11.75,67.85V66.5a1.85,1.85,0,0,1,.3-1l.85-.75L56.7,44.15,57.85,44a2,2,0,0,1,1.1.55l2.15,2.1a1.82,1.82,0,0,1,.6,1.4v3l-2,1v-4L57.55,46,13.75,66.5v3.8l-2-2.45"/><path class="cls-10" d="M11.75,67.85l2,2.45v3.75l1.8,2.45L59.7,55.9V52l2-1V55.9L61.35,57l-.8.75L16.4,78.35l-1.35.1L14,77.7l-1.8-2.45a2,2,0,0,1-.4-1.2v-6.2"/><path class="cls-11" d="M15.55,76.5l-1.8-2.45V70.3l1.8,2.25v4"/><path class="cls-12" d="M15.55,76.5v-4L59.7,52v3.9L15.55,76.5"/><path class="cls-13" d="M59.7,48.05v4L15.55,72.55v-4L59.7,48.05"/><path class="cls-14" d="M13.75,70.3V66.5l1.8,2.1v4l-1.8-2.25"/><path class="cls-15" d="M13.75,66.5,57.55,46l2.15,2.1L15.55,68.6l-1.8-2.1"/><path class="cls-10" d="M92.8,87.15V79a1.9,1.9,0,0,1,.25-1l.7-1.25v-4.3l-1.4,1.65a2.11,2.11,0,0,1-1.1.65l-1.3-.1-3.9-1.8-.8-.75A1.89,1.89,0,0,1,84.9,71V68.55a1.89,1.89,0,0,1,.5-1.3l4.65-5.5a1.87,1.87,0,0,1,1.1-.65l1,0,2.1-2.45a1.8,1.8,0,0,1,.55-.45l1-.55a1.65,1.65,0,0,1,.9-.25l1,.2,2.3,1.1.7.6.5.65a1.83,1.83,0,0,1,.4,1.2V76l.6.8A2,2,0,0,1,102.5,78V86.3a2,2,0,0,1-.45,1.3l-2.2,2.6-.65.5-.45.15-1.3-.15L94,89.05l-.8-.7a1.89,1.89,0,0,1-.35-1.1v-.1m5.5,1.75,2.2-2.6V78l-1-1.35V61.2l-.5-.65-2.3-1.1-1,.55-3,3.6-1.15-.55-4.65,5.5V71l3.9,1.8,5-5.75v10.2l-1,1.7v8.3l3.5,1.65"/><path class="cls-16" d="M98.3,88.9V80.6l-.2-2.3V62.9l-2.35,2.75v1.4l-5,5.75L86.9,71V68.55l3.9,1.8,4.65-5.5-.4-.15,3-3.65-2.35-1,1-.55,2.3,1.1.5.65V76.6l1,1.35V86.3l-2.2,2.6"/><path class="cls-17" d="M95.75,60l2.35,1-3,3.65.4.15-4.65,5.5-3.9-1.8,4.65-5.5,1.15.55,3-3.6M98.1,78.3l.2,2.3L94.8,79l1-1.7,2.35,1"/><path class="cls-12" d="M98.1,78.3l-2.35-1V65.65L98.1,62.9V78.3m.2,2.3v8.3l-3.5-1.65V79l3.5,1.65"/><path class="cls-7" d="M99.2,90.7l-5.75,6.8L86.9,94.1l5.9-6.95v.1a1.89,1.89,0,0,0,.35,1.1l.8.7,3.5,1.65,1.3.15.45-.15"/><path class="cls-10" d="M55.75,52.4a.8.8,0,0,1,.4-.35l9-10.8a1.66,1.66,0,0,1,1.25-.7,1.76,1.76,0,0,1,1.45.35l11.1,8,.1.1-1.3,1.55v0l-11.1-8L64.3,45.35,59.55,50.9l-2.1,2.7-1.7-1.2"/><path class="cls-17" d="M57.45,53.6l2.1-2.7,11.15,8h0l-2.35,2.7-11.1-7.9.1,0h.05m6.85-8.25,2.35-2.85,11.1,8L75.4,53.2,64.3,45.35"/><path class="cls-18" d="M77.75,50.45V57.6L68.4,68.75v-7.2l2.35-2.7L75.4,53.2l2.35-2.75"/><path class="cls-19" d="M79.05,49l.5.6.2.9V57.6l-.45,1.3L70,70.05a2.11,2.11,0,0,1-1.1.65l-1.25-.1-11.1-5-.85-.75a1.89,1.89,0,0,1-.35-1.1V53.65a2,2,0,0,1,.3-1l.15-.2,1.7,1.2H57.4l-.1,0v10.1l11.1,5L77.75,57.6V50.5L79.05,49"/><path class="cls-20" d="M59.55,50.9l4.75-5.55L75.4,53.2l-4.65,5.65h0l-11.15-8"/><path class="cls-21" d="M68.4,61.55v7.2l-11.1-5V53.65l11.1,7.9"/><path class="cls-10" d="M34.8,62.4a1.67,1.67,0,0,1,.85-.45l17-8,1.3-.15a2.11,2.11,0,0,1,1.1.65l6.8,8,.25.4-1.85.85-6.75-8-3.7,1.75L40.9,61.7l-4.75,2.2h0V64l-1.3-1.6"/><path class="cls-19" d="M34.8,62.4,36.1,64v6.75l6.75,8,17.4-8.2V63.85l0-.05L62.05,63l.2.9V70.6L62,71.7l-.85.7L43.7,80.6l-1.25.15-1.1-.65-6.75-8a2,2,0,0,1-.5-1.3V63.9a1.82,1.82,0,0,1,.6-1.4l.1-.1"/><path class="cls-17" d="M36.1,63.9h0l4.75-2.2,6.75,8,.05,0L42.85,72,36.1,63.9m13.65-6.35,3.7-1.75,6.75,8,0,.05L56.5,65.6v0l-6.75-8"/><path class="cls-18" d="M56.5,65.6l3.75-1.75V70.6l-17.4,8.2V72l4.85-2.2,8.8-4.15"/><path class="cls-20" d="M56.5,65.6l-8.8,4.15-.05,0-6.75-8,8.85-4.15,6.75,8v0"/><path class="cls-21" d="M36.1,64v-.1L42.85,72V78.8l-6.75-8V64"/></g></g></svg>