<svg xmlns="http://www.w3.org/2000/svg" viewBox="0 0 120 140"><defs><style>.cls-1{fill:#a4afaf;}.cls-2{fill:#a9b6b6;}.cls-3{fill:#9ba6a6;}.cls-4{fill:#115f32;}.cls-5{fill:#1b914d;}.cls-6{fill:#198a49;}.cls-7{fill-opacity:0.1;}.cls-8{fill:#bb8044;}.cls-9{fill:#954f35;}.cls-10{fill:#aa5a3d;}.cls-11{fill:#e27952;}.cls-12{fill:#c46847;}.cls-13{fill:#727979;}.cls-14{fill:#b9c6c6;}.cls-15{fill:#8a9393;}.cls-16{fill:#877e75;}.cls-17{fill:#f5e6d7;}.cls-18{fill:#d9cbbf;}.cls-19{fill:#b8aca1;}.cls-20{fill:#d26f49;}.cls-21{fill:#8a3f23;}.cls-22{fill:#aa5a3c;}.cls-23{fill:#e9dbcd;}.cls-24{fill:#d5e5e5;}.cls-25{fill:#bdcbcb;}.cls-26{fill:#0e4f29;}.cls-27{fill:#136d3a;}.cls-28{fill:#178044;}.cls-29{fill:#a6b1b1;}</style></defs><title>Asset 147</title><g id="Layer_2" data-name="Layer 2"><g id="Layer_1-2" data-name="Layer 1"><path class="cls-1" d="M29.3,117.05,33,112.7,27.1,110l-3.7,4.35,5.9,2.75m65-88.7c-2-.9-3.93-1.82-5.9-2.75L84.65,30l5.9,2.75,3.7-4.35m12.6,33.9-3.7,4.35c2,.93,3.93,1.85,5.9,2.75l3.7-4.35-5.9-2.75m-10-24.8,3.7-4.35-5.9-2.75L90.9,34.7l5.9,2.75m-37.9-23,5.9,2.75,3.7-4.35L62.6,10.1l-3.7,4.35m37.9,54.9L100.5,65l-5.9-2.75L90.9,66.6l5.9,2.75M79,30.35l-5.8,6.8L82.4,41.5l5.85-6.85L79,30.35m-36.6,2-9.3-4.3-5.8,6.8,9.25,4.35,5.85-6.85M12.15,67.15,21.4,71.5l5.85-6.85L18,60.35l-5.8,6.8m24.65-.7,3.7-4.35-5.9-2.75L30.9,63.7l5.9,2.75M12.6,76.1,8.9,80.45l5.9,2.75,3.7-4.35L12.6,76.1m22.9-2.45-9.3-4.3-5.8,6.8,9.25,4.35,5.85-6.85m47.7,16.7-5.8,6.8,9.25,4.35,5.85-6.85-9.3-4.3M61.65,63.7l5.9,2.75,3.7-4.35-5.9-2.75-3.7,4.35M80.5,69.25,71.2,65l-5.8,6.8,9.25,4.35,5.85-6.85M60,0l60,35v70L60,140,0,105V35L60,0m15,107.2L81,110l3.7-4.35-5.9-2.75-3.7,4.35m-28-1.6-5.9-2.75-3.7,4.35L43.3,110,47,105.6m42.3-1.4L95.2,107l3.7-4.35L93,99.85l-3.7,4.35M37.4,116l5.9,2.75,3.7-4.35-5.9-2.75L37.4,116"/><path class="cls-2" d="M96.8,37.45,90.9,34.7l3.7-4.35,5.9,2.75-3.7,4.35m10,24.8,5.9,2.75-3.7,4.35c-2-.9-3.93-1.82-5.9-2.75l3.7-4.35M79,30.35l9.3,4.3L82.4,41.5l-9.25-4.35,5.8-6.8M36.8,66.45,30.9,63.7l3.7-4.35,5.9,2.75-3.7,4.35m-24.65.7,5.8-6.8,9.3,4.3L21.4,71.5l-9.25-4.35m23.35,6.5L29.65,80.5,20.4,76.15l5.8-6.8,9.3,4.3M75.05,107.2l3.7-4.35,5.9,2.75L81,110l-5.9-2.75M37.4,116l3.7-4.35,5.9,2.75-3.7,4.35L37.4,116M89.3,104.2,93,99.85l5.9,2.75L95.2,107l-5.9-2.75"/><path class="cls-3" d="M94.25,28.35l-3.7,4.35L84.65,30l3.7-4.35c2,.93,3.93,1.85,5.9,2.75m2.55,41L90.9,66.6l3.7-4.35L100.5,65l-3.7,4.35M58.9,14.45l3.7-4.35,5.9,2.75L64.8,17.2l-5.9-2.75m-16.55,18L36.5,39.25,27.25,34.9l5.8-6.8,9.3,4.3M12.6,76.1l5.9,2.75L14.8,83.2,8.9,80.45l3.7-4.35m67.9-6.85L74.65,76.1,65.4,71.75,71.2,65l9.3,4.3M61.65,63.7l3.7-4.35,5.9,2.75-3.7,4.35-5.9-2.75M83.2,90.35l9.3,4.3-5.85,6.85L77.4,97.15l5.8-6.8M47,105.6,43.3,110l-5.9-2.75,3.7-4.35L47,105.6M29.3,117.05l-5.9-2.75L27.1,110,33,112.7l-3.7,4.35"/><path class="cls-4" d="M51.7,42.2l-.4-.35a8.75,8.75,0,0,1-2.7-6.1v-1.4a76,76,0,0,1,2-19l.15-.6A24.11,24.11,0,0,1,53.25,8.4Q55.2,5.1,57.8,5.35c1.73-.17,3.27.87,4.6,3.1a26.43,26.43,0,0,1,2.45,6.3l.15.5a79,79,0,0,1,2,19.1v1.4a8.83,8.83,0,0,1-2.65,6.1l-.3.3-1.85,1.3v.45a4.07,4.07,0,0,1-1.2,3l-.15.15a4.07,4.07,0,0,1-3,1.2H57.8a4.27,4.27,0,0,1-4.35-4.35v-.45L51.7,42.2M63.2,16.45l-.3-1.2-.5-1.75q-1.69-5.4-3.95-6l-.65-.1-.65.1q-2.25.64-3.9,6.05l-.55,1.75-.3,1.2-1.1,6-.25,2.25-.25,3.1-.2,4.85v3a6.89,6.89,0,0,0,2.1,4.75L54,41.45l1.45.7V43.9a2.24,2.24,0,0,0,.65,1.65,2.3,2.3,0,0,0,1.7.7h.05A2.39,2.39,0,0,0,60.2,43.9V42.15l1.55-.75,1.15-1A6.89,6.89,0,0,0,65,35.65v-3l-.2-4.85-.25-3.1-.25-2.25-1.1-6"/><path class="cls-5" d="M63.2,16.45l-.3.1-.2.1-1,.2-1.55.25-2.4.1-2.35-.1L54,16.9l-1-.25-.25-.1-.3-.1.3-1.2.55-1.75q1.65-5.4,3.9-6l.65-.1.65.1q2.25.64,3.95,6.05l.5,1.75.3,1.2m1.1,6,.25,2.25.25,3.1a4.25,4.25,0,0,1-1.9,1.95l-1.15.6-1.55.45-2.4.25-2.35-.25L54,30.4l-1.3-.65a4.25,4.25,0,0,1-1.9-1.95l.25-3.1.25-2.25.1.05,1.3.85,1.3.5,1.45.35,2.35.2,2.4-.2,1.55-.35,1.15-.5,1.35-.85,0-.05m.7,10.9v2.3a6.89,6.89,0,0,1-2.1,4.75l-1.15,1-1.55.75-2.4.35-2.35-.35L54,41.45,52.7,40.4a6.89,6.89,0,0,1-2.1-4.75v-2.3a4.92,4.92,0,0,0,2.1,3.75L54,38l1.45.55,2.35.3,2.4-.3,1.55-.6,1.15-.8A4.92,4.92,0,0,0,65,33.35"/><path class="cls-6" d="M65,33.35a4.92,4.92,0,0,1-2.1,3.75l-1.15.8-1.55.6-2.4.3-2.35-.3L54,38l-1.3-.85a4.92,4.92,0,0,1-2.1-3.75v-.7l.2-4.85a4.25,4.25,0,0,0,1.9,1.95l1.3.65,1.45.4,2.35.25,2.4-.25,1.55-.45,1.15-.6a4.25,4.25,0,0,0,1.9-1.95l.2,4.85v.7m-1.8-16.9,1.1,6,0,.05-1.35.85-1.15.5-1.55.35-2.4.2-2.35-.2L54,23.85l-1.3-.5-1.3-.85-.1-.05,1.1-6,.3.1.25.1,1,.25,1.45.2,2.35.1,2.4-.1,1.55-.25,1-.2.2-.1.3-.1"/><path class="cls-7" d="M64.05,42.15a3.51,3.51,0,0,1,.7.3q2.81,1.5,2.8,3.6t-2.8,3.55A14.23,14.23,0,0,1,58,51.1a14.23,14.23,0,0,1-6.8-1.5q-2.8-1.45-2.8-3.55t2.8-3.6l.55-.25,1.75,1.25v.45a4.27,4.27,0,0,0,4.35,4.35h.05a4.07,4.07,0,0,0,3-1.2L61,46.9a4.07,4.07,0,0,0,1.2-3v-.45l1.85-1.3"/><path class="cls-8" d="M60.2,42.15V43.9a2.39,2.39,0,0,1-2.35,2.35H57.8a2.3,2.3,0,0,1-1.7-.7,2.24,2.24,0,0,1-.65-1.65V42.15l2.35.35,2.4-.35"/><path class="cls-9" d="M70.75,52v-3.8L27,27.6,24.8,29.7v3.95l-2-.95v-3a1.82,1.82,0,0,1,.6-1.4l2.15-2.1a2,2,0,0,1,1.1-.55l1.15.15L71.6,46.35l.85.75.3,1V49.5l-2,2.45"/><path class="cls-10" d="M70.75,52,69,54.2v-4l1.8-2.1V52"/><path class="cls-11" d="M70.75,48.15,69,50.25,24.8,29.7,27,27.6l43.8,20.55"/><path class="cls-12" d="M69,50.25v4L24.8,33.65V29.7L69,50.25"/><path class="cls-13" d="M72.75,49.5v6.2a2,2,0,0,1-.4,1.2l-1.8,2.45-1.1.75L68.1,60,24,39.4l-.8-.75a1.89,1.89,0,0,1-.35-1.1V32.7l2,.95v3.9L69,58.15l1.8-2.45V52l2-2.45"/><path class="cls-14" d="M69,58.15,24.8,37.55v-3.9L69,54.2v3.95"/><path class="cls-15" d="M69,58.15V54.2L70.75,52V55.7L69,58.15"/><path class="cls-16" d="M42.05,75.55v-8a1.89,1.89,0,0,1,.5-1.3L71.3,32.45a1.87,1.87,0,0,1,1.1-.65l1.25.15,35.2,16.55.85.75.3,1v18a2,2,0,0,1-.45,1.3L80.85,103.7l-1.1.65-1.3-.15-2-1-.85-2.6,1.35.65,2.4,1.1L108,68.35v-18L72.8,33.75,44.05,67.6v8.45l-2-.5"/><path class="cls-17" d="M44.05,67.6,72.8,33.75,108,50.3,79.3,84.1,44.05,67.6M74.35,41l25.5,12,1.45-1.75L74.35,38.65,50.75,66.6l1.4.6L74.35,41M86.4,60.8l-5.5-2.6-2.5,3L84.1,64l2.3-3.15M74,60.85l-1.7,2,3.8,1.85,1.5-2.1L74,60.85"/><path class="cls-18" d="M44.05,76.05V67.6L79.3,84.1v8.5L44.05,76.05M76.9,101.3l-1.35-.65,3.75-6.1v7.85l-2-1-.45-.1M74.35,38.65l27,12.6L99.85,53,74.35,41V38.65M47.2,75.05,76.1,88.6V85.1L47.2,71.7v3.35"/><path class="cls-19" d="M108,50.3v18L79.3,102.4V84.1L108,50.3M74.35,41,52.15,67.2l-1.4-.6,23.6-27.95V41"/><path class="cls-20" d="M47.2,75.05V71.7L76.1,85.1v3.5L47.2,75.05M39.55,83.5l4.5-7.45L79.3,92.6,75,100.05,39.55,83.5"/><path class="cls-21" d="M39.55,83.5v2L75,101.8l.5-1,.1-.15.85,2.6-.75.45-1.5,0-35.4-16.3-.85-.75a1.89,1.89,0,0,1-.35-1.1v-2a1.76,1.76,0,0,1,.3-1l4.2-7,2,.5-4.5,7.45"/><path class="cls-22" d="M39.55,83.5,75,100.05,79.3,92.6v2l-3.75,6.1-.1.15-.5,1L39.55,85.5v-2"/><path class="cls-23" d="M74,60.85l3.6,1.75-1.5,2.1-3.8-1.85,1.7-2m12.4-.05L84.1,64,78.4,61.2l2.5-3,5.5,2.6"/><path class="cls-13" d="M109.05,85.35l-4.65-5.5-2.55,1.2-6,2.85-3.25,1.5L91.3,83.85l.35-.25,11.9-5.55,1.25-.15,1.1.65,4.65,5.5.3.45-1.8.85"/><path class="cls-24" d="M109.05,85.35l-2.55,1.2-4.65-5.5,2.55-1.2,4.65,5.5m-16.5.05,3.25-1.5,4.65,5.5-3.3,1.5L92.5,85.4h0"/><path class="cls-25" d="M101.85,81.05l4.65,5.5-6,2.85L95.8,83.9l6-2.85"/><path class="cls-26" d="M109.05,85.35l1.8-.85.2.85V90l-.35,1.1-.15.2-.65.5L98,97.4l-1.3.15-1.1-.65L91,91.4a2,2,0,0,1-.45-1.3V85.4a1.85,1.85,0,0,1,.3-1.05l.5-.5,1.25,1.55h0v4.7l4.65,5.5,11.9-5.6V85.35"/><path class="cls-27" d="M92.5,85.4l4.65,5.5v4.7L92.5,90.1V85.4"/><path class="cls-28" d="M106.5,86.55l2.55-1.2V90l-11.9,5.6V90.9l3.3-1.5,6-2.85"/><path class="cls-13" d="M29,68.15l-.45.15-1.3-.15L23.7,66.5l-.8-.7a1.89,1.89,0,0,1-.35-1.1V56.4a1.9,1.9,0,0,1,.25-.95l.7-1.25V49.9l-1.4,1.65a2.11,2.11,0,0,1-1.1.65l-1.3-.1-3.9-1.8-.8-.75a1.89,1.89,0,0,1-.35-1.1V46a1.89,1.89,0,0,1,.5-1.3l4.65-5.5a1.87,1.87,0,0,1,1.1-.65l1,.05L24,36.15l.55-.45,1-.55a1.65,1.65,0,0,1,.9-.25l.95.2,2.3,1.1.7.6.5.65a1.83,1.83,0,0,1,.4,1.2v14.8l.6.8a2,2,0,0,1,.35,1.15v8.35a2,2,0,0,1-.45,1.3l-2.2,2.6-.65.5m-.9-1.8,2.2-2.6V55.4l-.95-1.35V38.65L28.8,38l-2.3-1.1-1,.55-3.05,3.6L21.3,40.5,16.65,46v2.45l3.9,1.8L25.5,44.5V54.7l-.95,1.7v8.3l3.5,1.65"/><path class="cls-29" d="M28.05,66.35v-8.3l-.2-2.3V40.35L25.5,43.1v1.4l-4.95,5.75-3.9-1.8V46l3.9,1.8,4.65-5.5-.4-.15,3.05-3.65-2.35-1,1-.55L28.8,38l.5.65v15.4l.95,1.35v8.35l-2.2,2.6"/><path class="cls-14" d="M28.05,66.35l-3.5-1.65V56.4l3.5,1.65v8.3M25.5,54.7V43.1l2.35-2.75v15.4l-2.35-1"/><path class="cls-24" d="M25.5,54.7l2.35,1,.2,2.3-3.5-1.65.95-1.7M16.65,46l4.65-5.5,1.15.55,3.05-3.6,2.35,1L24.8,42.15l.4.15-4.65,5.5L16.65,46"/><path class="cls-7" d="M29,68.15,23.2,75l-6.55-3.4,5.9-7v.1a1.89,1.89,0,0,0,.35,1.1l.8.7,3.5,1.65,1.3.15.45-.15"/><path class="cls-15" d="M40.85,109.6l3.6-.95,1.35,2.2-3.6,1-1.35-2.2m-.6-6.4,6.35-1.7,2.3,3.8L42.55,107l-2.3-3.8m24,11L59,115.55l-1.9-3.15,5.25-1.4,1.9,3.15m-15.9-4.65L54.2,108l2.15,3.5L50.5,113l-2.15-3.5m12.3-8.45,2.7,4.4-7.35,2L53.3,103l7.35-2M47.9,99.3l3.65-1,1.35,2.15-3.65,1L47.9,99.3"/></g></g></svg>