<svg xmlns="http://www.w3.org/2000/svg" viewBox="0 0 120 140"><defs><style>.cls-1{fill:#ecdcb8;}.cls-2{fill:#e5d5b2;}.cls-3{fill:#e0d1af;}.cls-4{fill:#855b30;}.cls-5{fill:#af783f;}.cls-6{fill:#bb8044;}.cls-7{fill:#cd8c4a;}.cls-8{fill:#775029;}.cls-9{fill:#5a6b6b;}.cls-10{fill:#c68848;}.cls-11{fill:#a8733d;}.cls-12{fill-opacity:0.1;}.cls-13{fill:#1a7741;}.cls-14{fill:#27ae60;}.cls-15{fill:#2bc46c;}</style></defs><title>Asset 60</title><g id="Layer_2" data-name="Layer 2"><g id="Layer_1-2" data-name="Layer 1"><path class="cls-1" d="M17.3,24.9h.05l1-.6,27.5-16h0L60,0l60,35v70L60,140,0,105V35L17.25,25l.05-.05m65.75-1.85,2.8-.9L65.9,10.5a44.83,44.83,0,0,1-3.35,7.35L60,21.75q-7.85,10.35-23,15l0,.05Q17.9,41.61,9.5,60.1A60.49,60.49,0,0,0,6.85,67L6,69.9v22a39.28,39.28,0,0,1,17-8.7l-.05,0q18-5.55,25.8-19.1l2-3.95a44.24,44.24,0,0,0,2.4-7.05A51.77,51.77,0,0,1,60,38.75,38.37,38.37,0,0,1,83.1,23.1l0-.05M80.3,37l4-1.85-1.75-4-4,1.85,1.75,4m16.8-.1Q77.94,41.61,69.55,60.1A53.62,53.62,0,0,0,67,67a43.55,43.55,0,0,1-4.4,11L60,81.85Q52.11,92.2,37,96.9l0,0a39,39,0,0,0-19.6,11.2l30.3,17.65,1-1.7,2-3.95a42.65,42.65,0,0,0,2.4-7A51.69,51.69,0,0,1,60,98.8,38.43,38.43,0,0,1,83.1,83.2l0,0q18-5.55,25.75-19.1l2-3.95a39,39,0,0,0,2.4-7.05l.8-2.35V42a5.83,5.83,0,0,0-3-5.15h0l-5.65-3.3a61.49,61.49,0,0,1-8.35,3.25l0,.05M90.15,89l1.25-2.9-3-1.25-1.2,3,2.9,1.2M91.8,95.5V91H87.2l0,4.55H91.8m20.7-16.7.75-6.55-6.55-.8-.75,6.6,6.55.75m-51.2,26-1,2,1.9,1,1.15-2-2-1m15.5-13.3L74.35,97.6,80.5,100,83,93.9,76.8,91.45M50.85,73.05l1,7L59,79l-1-7-7.1,1.1m7.95-7V61.45H54.2l0,4.55H58.8m16.9-23,3.15.4.45-3.1-3.2-.45-.4,3.15M52.65,18.25,48.3,19,49,23.3l4.35-.7-.7-4.35M97.1,97q-19.15,4.76-27.55,23.2A53.62,53.62,0,0,0,67,127l-.65,2.3,44.75-26.1h0a6.35,6.35,0,0,0,2.2-2.2,5.89,5.89,0,0,0,.8-3v-10a49.44,49.44,0,0,1-17,8.8l0,0m-36.35,27.5,4-1.85-1.75-4-4,1.85,1.75,4M26.1,92.9l4,1,1-4.05-4-.95-1,4m5.25-4.55,6.55,3.5,3.6-6.65-6.6-3.55-3.55,6.7M18.85,37.7,21.45,41l3.2-2.6L22.1,35.1l-3.25,2.6m-8,2.5L13.6,44l3.85-2.8L14.6,37.4l-3.75,2.8m-.75,8.7,2-.95-.85-2.05-2,.9.85,2.1"/><path class="cls-2" d="M10.1,48.9l-.85-2.1,2-.9L12.1,48l-2,.95m73-25.85,0,.05A38.37,38.37,0,0,0,60,38.75a51.77,51.77,0,0,0-6.8,14.3,44.24,44.24,0,0,1-2.4,7.05l-2,3.95Q40.95,77.6,23,83.15l.05,0A39.28,39.28,0,0,0,6,91.9v-22l.85-3A60.49,60.49,0,0,1,9.5,60.1q8.4-18.49,27.55-23.25l0-.05q15.11-4.69,23-15l2.6-3.9A44.83,44.83,0,0,0,65.9,10.5L85.85,22.15l-2.8.9M80.3,37l-1.75-4,4-1.85,1.75,4L80.3,37m16.8-.1,0-.05a61.49,61.49,0,0,0,8.35-3.25l5.65,3.3h0A5.83,5.83,0,0,1,114,42v8.7l-.8,2.35a39,39,0,0,1-2.4,7.05l-2,3.95Q101,77.6,83.05,83.15l0,0A38.43,38.43,0,0,0,60,98.8a51.69,51.69,0,0,0-6.8,14.35,42.65,42.65,0,0,1-2.4,7l-2,3.95-1,1.7-30.3-17.65A39,39,0,0,1,37.05,97l0,0q15.11-4.7,23-15.05l2.6-3.9A43.55,43.55,0,0,0,67,67a53.62,53.62,0,0,1,2.6-6.85Q78,41.61,97.1,36.85M52.65,18.25l.7,4.35L49,23.3,48.3,19l4.35-.7M75.7,43.05l.4-3.15,3.2.45-.45,3.1-3.15-.4M58.8,66H54.25l0-4.55h4.6V66m-7.95,7L58,72l1,7-7.1,1.1-1-7M76.8,91.45,83,93.9,80.5,100l-6.15-2.4,2.45-6.15m-15.5,13.3,2,1-1.15,2-1.9-1,1-2M112.5,78.8,106,78.05l.75-6.6,6.55.8-.75,6.55M91.8,95.5H87.25l0-4.55h4.6V95.5M90.15,89l-2.9-1.2,1.2-3,3,1.25L90.15,89m6.95,8,0,0a49.44,49.44,0,0,0,17-8.8v10a5.89,5.89,0,0,1-.8,3,6.35,6.35,0,0,1-2.2,2.2h0L66.3,129.3,67,127a53.62,53.62,0,0,1,2.6-6.85Q78,101.7,97.1,97M10.85,40.2l3.75-2.8,2.85,3.75L13.6,44,10.85,40.2m8-2.5,3.25-2.6,2.55,3.25L21.45,41l-2.6-3.25m12.5,50.65,3.55-6.7,6.6,3.55-3.6,6.65-6.55-3.5M26.1,92.9l1-4,4,.95-1,4.05-4-1m34.65,31.55-1.75-4,4-1.85,1.75,4-4,1.85"/><path class="cls-3" d="M17.3,24.9l1.05-.6-1,.6H17.3"/><path class="cls-4" d="M85.3,55.9l.8.2L91,58.45l.7.6.35.8.45,2.2,2.15,1a1.91,1.91,0,0,1,1,1l2.2,4.6.2,1L97.5,78.8l-.35,1-.9.7-11,4.35-.8.15-.8-.2L73.1,79.9l-.85-.75A1.86,1.86,0,0,1,72,78l.5-9.25.2-.75,2.1-4.45a2,2,0,0,1,1-1l1.85-.75.5-2.3a2,2,0,0,1,.45-.9l.8-.55,5.1-2,.8-.15m4.75,4.35L85.2,57.9l-5.1,2-.7,3.2-2.85,1.3-2.1,4.45L74,78.1l10.5,5,11-4.35L96,69.45l-2.2-4.6-3-1.4.45,2.45-1.15-5.65"/><path class="cls-5" d="M90.05,60.25,91.2,65.9l-.3,5.25-1.05-6.7.2-4.2M76.55,64.4l-.4,7.4L74,78.1l.5-9.25,2.1-4.45m16.8,7.85.4-7.4,2.2,4.6L95.5,78.7l-2.15-6.45"/><path class="cls-6" d="M93.35,72.25l-8.8,3.45-.1,7.35L74,78.1l2.2-6.3.4-7.4,2.85-1.3.7-3.2,5.1-2,4.85,2.35-.2,4.2-5.15,2,0,7.1,6.25-2.45.3-5.25-.45-2.45,3,1.4-.4,7.4"/><path class="cls-7" d="M93.35,72.25,95.5,78.7l-11,4.35.1-7.35,8.8-3.45m-2.45-1.1L84.65,73.6l0-7.1,5.15-2,1.05,6.7"/><path class="cls-4" d="M70.5,98.5l13.3-5.2.5-11.1-4.75-9.1-8.1-3.75L63,72.65,58.4,81.4l-.6,11.1,12.7,6m1-31.15.75.2,8.1,3.75.95.9,4.75,9.1.2,1-.5,11.1-.35,1.1-.9.7-13.3,5.2-.8.1-.8-.2L57,94.3a1.89,1.89,0,0,1-.85-.75,1.86,1.86,0,0,1-.3-1.15l.6-11.1.25-.8,4.55-8.75a1.66,1.66,0,0,1,1-1l8.5-3.3.8-.15"/><path class="cls-6" d="M57.8,92.5l4.8-12.7L63,72.65l8.5-3.3,8.1,3.75-.4,7.15-8.5,3.35L70.5,98.5l-12.7-6"/><path class="cls-5" d="M57.8,92.5l.6-11.1L63,72.65,62.6,79.8,57.8,92.5M79.15,80.25l.4-7.15,4.75,9.1-.5,11.1-4.65-13"/><path class="cls-7" d="M70.5,98.5l.15-14.9,8.5-3.35,4.65,13L70.5,98.5"/><path class="cls-8" d="M46.45,30.65l.35.9,1.05,7.8,2.1,2.9.35.85,2.9,18.35-.05.85-.4.75-6.55,7.7-.75.55-.85.15-12.2-.4-.85-.2-.7-.6-5.8-8a1.82,1.82,0,0,1-.35-1.45L26.45,48a1.52,1.52,0,0,1,.45-1l2.4-3,2.4-12.7a2,2,0,0,1,.45-1l2-2.35a1.39,1.39,0,0,1,.7-.5l.85-.2,7.55.2.9.25.7.6,1.6,2.25M48.3,43.4,46,40.1,44.8,31.8l-1.6-2.25-7.55-.2-2,2.35L31.2,44.9l-2.8,3.35-1.75,12.8,5.8,8,12.2.4,6.55-7.7L48.3,43.4"/><path class="cls-6" d="M48.3,43.4l-2.4,2.8-7.45-1.1.15-9.2-5-4.2,2-2.35,7.55.2,1.6,2.25L46,40.1l2.35,3.3M28.4,48.25l2.8-3.35,6.9,5.9,8.6,1.4-.15.15-.1,0v.05l-.05,0,0,0-2.5,3-10.5-.3-5-7"/><path class="cls-4" d="M48.3,43.4l2.9,18.35-6.55,7.7-.8-14,2.5-3,.1,0v-.1l.1,0,.15-.15v-.05l-.8-5.95,2.4-2.8"/><path class="cls-9" d="M46.35,52.55l0,0h.05l-.1,0"/><path class="cls-10" d="M44.65,69.45l-12.2-.4.9-13.85,10.5.3.8,14M38.45,45.1l7.45,1.1.8,5.95v.05l-8.6-1.4.35-5.7"/><path class="cls-11" d="M38.45,45.1l-.35,5.7-6.9-5.9,2.45-13.2,5,4.2-.15,9.2m-6,23.95-5.8-8,1.75-12.8,5,7-.9,13.85"/><path class="cls-12" d="M57.8,103.45a3.55,3.55,0,0,1-2.1,3,9.72,9.72,0,0,1-5.05,1.25,9.72,9.72,0,0,1-5-1.25,3.19,3.19,0,0,1,0-6,9.72,9.72,0,0,1,5-1.25,9.72,9.72,0,0,1,5.05,1.25,3.55,3.55,0,0,1,2.1,3"/><path class="cls-13" d="M48.1,95.8v5.55a1.43,1.43,0,0,0,.75,1.2l1.8.45,1.8-.45a1.43,1.43,0,0,0,.7-1.2V89.8h.65a3.08,3.08,0,0,0,2.25-1h.05A3.15,3.15,0,0,0,57,86.6V82.65a1.54,1.54,0,0,0-1.5-1.5,1.5,1.5,0,0,0-1.1.45A1.44,1.44,0,0,0,54,82.65V86.6l-.05.1-.1,0-.65,0V80a2.53,2.53,0,0,0-.7-1.8A2.55,2.55,0,0,0,48.1,80v12.8l-.35,0-.1,0v0l0-.1V88.75a1.55,1.55,0,0,0-.45-1.15,1.59,1.59,0,0,0-1.1-.4,1.52,1.52,0,0,0-1,.4,1.55,1.55,0,0,0-.45,1.15V92.6a3.16,3.16,0,0,0,3.2,3.2h.35m-.65-19a4.27,4.27,0,0,1,3.2-1.35,4.42,4.42,0,0,1,3.25,1.35v0a4.61,4.61,0,0,1,1.2,2.35h.5a3.3,3.3,0,0,1,2.4,1,3.43,3.43,0,0,1,1,2.45V86.6a5.15,5.15,0,0,1-1.45,3.65l-.2.2a5.14,5.14,0,0,1-2.2,1.2v9.7a3.22,3.22,0,0,1-1.5,2.85l-.15.1a5.53,5.53,0,0,1-2.85.7,5.27,5.27,0,0,1-2.8-.7l-.1,0a3.21,3.21,0,0,1-1.65-2.9v-3.8a4.75,4.75,0,0,1-2-1.2h0a5.11,5.11,0,0,1-1.55-3.75V88.75A3.38,3.38,0,0,1,43.6,86.2l.1-.1a3.41,3.41,0,0,1,2.35-.9h.05V80a4.27,4.27,0,0,1,1.35-3.2"/><path class="cls-14" d="M48.1,92.75V80a2.55,2.55,0,0,1,4.35-1.8,2.53,2.53,0,0,1,.7,1.8V86.7l.65,0,.1,0,.05-.1V82.65a1.44,1.44,0,0,1,.45-1.05,1.5,1.5,0,0,1,1.1-.45,1.54,1.54,0,0,1,1.5,1.5V86.6a3.15,3.15,0,0,1-.9,2.25h-.05a3.08,3.08,0,0,1-2.25,1h-.65v11.55a1.43,1.43,0,0,1-.7,1.2l-1.8.45-1.8-.45a1.43,1.43,0,0,1-.75-1.2V95.8h.35a1.44,1.44,0,0,0,1-.45,1.5,1.5,0,0,0,.45-1.1,1.38,1.38,0,0,0-.5-1,1.35,1.35,0,0,0-1.05-.45h-.3"/><path class="cls-15" d="M48.1,92.75h.3a1.35,1.35,0,0,1,1.05.45,1.38,1.38,0,0,1,.5,1,1.5,1.5,0,0,1-.45,1.1,1.44,1.44,0,0,1-1,.45h-.7a3.16,3.16,0,0,1-3.2-3.2V88.75A1.55,1.55,0,0,1,45,87.6a1.52,1.52,0,0,1,1-.4,1.59,1.59,0,0,1,1.1.4,1.55,1.55,0,0,1,.45,1.15V92.6l0,.1v0l.1,0,.35,0"/></g></g></svg>