<svg xmlns="http://www.w3.org/2000/svg" xmlns:xlink="http://www.w3.org/1999/xlink" viewBox="0 0 120 140"><defs><style>.cls-1{fill:#a4afaf;}.cls-2{fill:#9ba6a6;}.cls-3{fill:#a9b6b6;}.cls-4{fill:#bb8044;}.cls-5{fill:#27ae60;}.cls-6{fill:url(#linear-gradient);}.cls-7{fill:url(#linear-gradient-2);}.cls-8{fill:#8a3f23;}.cls-9{fill:#e2dfdc;}.cls-10{fill:#d7f4ff;}.cls-11{fill:#cb6c49;}.cls-12{fill:#e27952;}.cls-13{fill:#b4b1ae;}.cls-14{fill:#706e6c;}.cls-15{fill:#aa5a3c;}.cls-16{fill:#115f32;}.cls-17{fill:#1b914d;}.cls-18{fill-opacity:0.1;}</style><linearGradient id="linear-gradient" x1="-2379.2" y1="42.33" x2="-740.8" y2="42.33" gradientTransform="matrix(0, 0, 0, 0, 33.64, 34.85)" gradientUnits="userSpaceOnUse"><stop offset="0" stop-color="#27ae60"/><stop offset="1" stop-color="#30c26d"/></linearGradient><linearGradient id="linear-gradient-2" x1="-2379.2" y1="44.58" x2="-740.8" y2="44.58" gradientTransform="matrix(0, 0, 0, 0, 46.97, 38.34)" xlink:href="#linear-gradient"/></defs><title>Asset 145</title><g id="Layer_2" data-name="Layer 2"><g id="Layer_1-2" data-name="Layer 1"><path class="cls-1" d="M64.8,17.2l3.7-4.35L62.6,10.1l-3.7,4.35,5.9,2.75m8.35,20L82.4,41.5l5.85-6.85L79,30.35l-5.8,6.8m17.4-4.45,3.7-4.35-5.9-2.75L84.65,30l5.9,2.75m.35,2,5.9,2.75,3.7-4.35-5.9-2.75L90.9,34.7m-63.65.2,9.25,4.35,5.85-6.85-9.3-4.3-5.8,6.8M36.8,66.45l3.7-4.35-5.9-2.75L30.9,63.7l5.9,2.75m-1.3,7.2-9.3-4.3-5.8,6.8,9.25,4.35,5.85-6.85m47.7,16.7-5.8,6.8,9.25,4.35,5.85-6.85-9.3-4.3m-12-28.25-5.9-2.75-3.7,4.35,5.9,2.75,3.7-4.35m0,2.85-5.8,6.8,9.25,4.35,5.85-6.85L71.2,65M90.9,66.6l5.9,2.75L100.5,65l-5.9-2.75L90.9,66.6M112.75,65l-5.9-2.75-3.7,4.35,5.9,2.75,3.7-4.35M120,35v70L60,140,0,105V35L60,0l60,35M8.9,80.45l5.9,2.75,3.7-4.35L12.6,76.1,8.9,80.45M89.3,104.2,95.2,107l3.7-4.35L93,99.85l-3.7,4.35m-14.25,3L81,110l3.7-4.35-5.9-2.75-3.7,4.35M18,60.35l-5.8,6.8L21.4,71.5l5.85-6.85L18,60.35M33,112.7,27.1,110l-3.7,4.35,5.9,2.75L33,112.7m8.1-9.85-3.7,4.35L43.3,110,47,105.6l-5.9-2.75M37.4,116l5.9,2.75,3.7-4.35-5.9-2.75L37.4,116"/><path class="cls-2" d="M64.8,17.2l-5.9-2.75,3.7-4.35,5.9,2.75L64.8,17.2M90.55,32.7,84.65,30l3.7-4.35,5.9,2.75-3.7,4.35m-63.3,2.2,5.8-6.8,9.3,4.3L36.5,39.25,27.25,34.9M90.9,66.6l3.7-4.35L100.5,65l-3.7,4.35L90.9,66.6M71.2,65l9.3,4.3L74.65,76.1,65.4,71.75,71.2,65m0-2.85-3.7,4.35-5.9-2.75,3.7-4.35,5.9,2.75m12,28.25,9.3,4.3-5.85,6.85L77.4,97.15l5.8-6.8M8.9,80.45l3.7-4.35,5.9,2.75L14.8,83.2,8.9,80.45m32.2,22.4L47,105.6,43.3,110l-5.9-2.75,3.7-4.35M33,112.7l-3.7,4.35-5.9-2.75L27.1,110,33,112.7"/><path class="cls-3" d="M73.15,37.15l5.8-6.8,9.3,4.3L82.4,41.5l-9.25-4.35M90.9,34.7l3.7-4.35,5.9,2.75-3.7,4.35L90.9,34.7m-55.4,39L29.65,80.5,20.4,76.15l5.8-6.8,9.3,4.3m1.3-7.2L30.9,63.7l3.7-4.35,5.9,2.75-3.7,4.35m76-1.45-3.7,4.35-5.9-2.75,3.7-4.35,5.9,2.75M18,60.35l9.3,4.3L21.4,71.5l-9.25-4.35,5.8-6.8m57.1,46.85,3.7-4.35,5.9,2.75L81,110l-5.9-2.75m14.25-3L93,99.85l5.9,2.75L95.2,107l-5.9-2.75M37.4,116l3.7-4.35,5.9,2.75-3.7,4.35L37.4,116"/><path class="cls-4" d="M60,0l60,35v70L60,140,0,105V35L60,0m0,8a5.91,5.91,0,0,0-3,.85l-48,28H9A5.83,5.83,0,0,0,6,42V98.05a5.89,5.89,0,0,0,.8,3A6.35,6.35,0,0,0,9,103.2H9l32.65,19L72.4,84.7l5.95,3.4-28.55,39L57,131.2a6.26,6.26,0,0,0,3,.8,6,6,0,0,0,3-.8l48-28a5.9,5.9,0,0,0,2.15-2.2,5.57,5.57,0,0,0,.85-3V42a5.63,5.63,0,0,0-.85-3A5.55,5.55,0,0,0,111,36.85l-48-28A5.63,5.63,0,0,0,60,8"/><path class="cls-5" d="M33.55,38.3l-.25.15-.1.25-.35,3.5-1.7.35-.25.1,0,.1-.05.2v.25h.05l1.45,3.15h6l1.6-1.05.15-.15L40.1,45l-.05-.3-.3-.25-1.5-.4,1.2-3.15v-.35l-.05,0-.2-.2h-.35l-2.8,1.05-2-2.85a.3.3,0,0,0-.25-.15l-.25-.05m15.05,3-.3.1-.15.25-1,3.15-1.35-.55h-.35a.3.3,0,0,0-.25.15v.05l-.05.35,1,3.05H51l.7-1.8V45.6l-.25-.2h-.3l-1.25.4L49,41.65l-.15-.25-.25-.1m-.2-10.7q12.6,0,21.5,6.6t8.9,16q0,9.4-8.9,16T48.4,75.85q-12.6,0-21.5-6.65T18,53.2q0-9.41,8.9-16t21.5-6.6"/><path class="cls-6" d="M33.55,38.3l.25.05a.3.3,0,0,1,.25.15l2,2.85,2.8-1.05h.35l.2.2.05,0v.35l-1.2,3.15,1.5.4.3.25.05.3-.05.15-.15.15-1.6,1.05h-6L30.85,43.2H30.8V43l.05-.2,0-.1.25-.1,1.7-.35.35-3.5.1-.25.25-.15"/><path class="cls-7" d="M48.6,41.3l.25.1.15.25.85,4.15,1.25-.4h.3l.25.2v.45l-.7,1.8H46.1l-1-3.05.05-.35V44.4a.3.3,0,0,1,.25-.15h.35l1.35.55,1-3.15.15-.25.3-.1"/><path class="cls-8" d="M19.25,77.05V76.6a1.89,1.89,0,0,1,.5-1.3L53.6,35.55a1.87,1.87,0,0,1,1.1-.65l1.25.15,50,23.45a2.34,2.34,0,0,1,.85.75l.3.85h-2.4L55.1,36.85,21.3,76.55l-2.05.5"/><path class="cls-9" d="M40.55,85.75V93.5l4,1.85V87.7l-4-2m-9.3,3,7.9,3.7V84.9l-7.9-3.85V88.8M25.9,78.5v7.75l4,1.85V80.45l-4-2m10.7-5.8L51.75,90.8v10.8L21.25,87.25V76.6L36.6,72.7m49.95,9.4V92.75l-19.65-9V72.9l19.65,9.2"/><path class="cls-10" d="M25.9,78.5l4,2V88.1l-4-1.85V78.5m5.35,10.3V81.05l7.9,3.85v7.6l-7.9-3.7m9.3-3,4,2v7.65l-4-1.85V85.75"/><path class="cls-11" d="M51.75,90.8,36.6,72.7,61,43.75,66.9,72.9,51.75,90.8M80.8,65.3l-1.15,2.75-3.3-1.55,1.2-2.65L80.8,65.3M77,58.9,75.2,63.05l-5-2.35,1.8-4,5,2.2"/><path class="cls-12" d="M77,58.9l-5-2.2-1.8,4,5,2.35L77,58.9m-10,14L61,43.75,95.8,60.1l-9.25,22L66.9,72.9m13.9-7.6-3.25-1.45-1.2,2.65,3.3,1.55L80.8,65.3"/><path class="cls-13" d="M51.75,101.6V90.8L66.9,72.9V83.7L51.75,101.6m34.8-8.85V82.1l9.25-22,9.25.2V70.9L86.55,92.75"/><path class="cls-14" d="M86.55,92.75l18.5-21.85V60.3l-.4-.2h2.4V70.9a2,2,0,0,1-.45,1.3L88.1,94.05a2.11,2.11,0,0,1-1.1.65l-1.25-.1-18.3-8.45L53.3,102.9a2.11,2.11,0,0,1-1.1.65l-1.3-.15L20.4,89.05l-.8-.7a1.89,1.89,0,0,1-.35-1.1V77.05l2.05-.5-.05,0V87.25l30.5,14.35L66.9,83.7l19.65,9"/><path class="cls-15" d="M21.3,76.55l33.8-39.7L104.65,60.1l.4.2-9.25-.2L61,43.75l-24.4,29L21.25,76.6l.05,0"/><path class="cls-16" d="M77.4,99.75a5.1,5.1,0,0,0,1.75-1.1l.2-.15a4.53,4.53,0,0,0,1.15-3V94.7a49.92,49.92,0,0,0-1.35-12.5q-1.4-5.15-3.35-5.15T72.5,82.2a48.37,48.37,0,0,0-1.4,12.5v.85a4.3,4.3,0,0,0,1.25,3l.15.15a4.34,4.34,0,0,0,1.75,1.1v1.15a1.54,1.54,0,0,0,1.55,1.55h0A1.35,1.35,0,0,0,76.9,102a1.44,1.44,0,0,0,.5-1.1V99.75m-6.8-.25a6,6,0,0,1-1.5-3.9v-.9a48.75,48.75,0,0,1,1.5-13q1.84-7.1,5.2-6.65,3.35-.49,5.3,6.65a52.21,52.21,0,0,1,1.4,13v.9a6.53,6.53,0,0,1-1.4,4l-.5.55h0l-1.15.9a3.21,3.21,0,0,1-1,2.35l-.15.15a3.51,3.51,0,0,1-2.4,1h0a3.38,3.38,0,0,1-2.5-1,3.48,3.48,0,0,1-1-2.45l-1.15-.9h.05l-.55-.6"/><path class="cls-17" d="M74.25,99.75a4.34,4.34,0,0,1-1.75-1.1l-.15-.15a4.3,4.3,0,0,1-1.25-3V94.7a48.37,48.37,0,0,1,1.4-12.5q1.35-5.15,3.3-5.15t3.35,5.15A49.92,49.92,0,0,1,80.5,94.7v.85a4.53,4.53,0,0,1-1.15,3l-.2.15a5.1,5.1,0,0,1-1.75,1.1l-1.6.25-1.55-.25"/><path class="cls-18" d="M81.1,99.55a3.36,3.36,0,0,1,1.5,2.7,3.72,3.72,0,0,1-2,3.1,8.34,8.34,0,0,1-4.75,1.3,8.57,8.57,0,0,1-4.8-1.3,3.72,3.72,0,0,1-2-3.1,3.48,3.48,0,0,1,1.5-2.75l.55.6H71.1l1.15.9a3.48,3.48,0,0,0,1,2.45,3.38,3.38,0,0,0,2.5,1h0a3.51,3.51,0,0,0,2.4-1l.15-.15a3.21,3.21,0,0,0,1-2.35l1.15-.9h0l.5-.55"/><path class="cls-4" d="M77.4,99.75v1.15a1.44,1.44,0,0,1-.5,1.1,1.35,1.35,0,0,1-1.05.45h0a1.54,1.54,0,0,1-1.55-1.55V99.75l1.55.25,1.6-.25"/></g></g></svg>