<svg xmlns="http://www.w3.org/2000/svg" xmlns:xlink="http://www.w3.org/1999/xlink" viewBox="0 0 120 140"><defs><style>.cls-1{fill:#bb6444;}.cls-2{fill:#27ae60;}.cls-3{fill:#b55f40;}.cls-4{fill:url(#linear-gradient);}.cls-5{fill:#c26948;}.cls-6{fill:url(#linear-gradient-2);}.cls-7{fill:url(#linear-gradient-3);}.cls-8{fill:url(#linear-gradient-4);}.cls-9{fill:url(#linear-gradient-5);}.cls-10{fill:url(#linear-gradient-6);}.cls-11{fill:url(#linear-gradient-7);}</style><linearGradient id="linear-gradient" x1="-949.2" y1="49.52" x2="689.2" y2="49.52" gradientTransform="matrix(0, 0, 0, 0, 17.34, 48.93)" gradientUnits="userSpaceOnUse"><stop offset="0" stop-color="#27ae60"/><stop offset="1" stop-color="#30c26d"/></linearGradient><linearGradient id="linear-gradient-2" x1="-949.2" y1="102.17" x2="689.2" y2="102.17" gradientTransform="matrix(0, 0, 0, 0, 19.59, 101.58)" xlink:href="#linear-gradient"/><linearGradient id="linear-gradient-3" x1="-949.2" y1="30.38" x2="689.2" y2="30.38" gradientTransform="matrix(0, 0, 0, 0, 95.07, 29.83)" xlink:href="#linear-gradient"/><linearGradient id="linear-gradient-4" x1="-949.2" y1="98.08" x2="689.2" y2="98.08" gradientTransform="matrix(0, 0, 0, 0, 110.57, 97.53)" xlink:href="#linear-gradient"/><linearGradient id="linear-gradient-5" x1="-949.2" y1="121.33" x2="689.2" y2="121.33" gradientTransform="matrix(0, 0, 0, 0, 77.44, 120.73)" xlink:href="#linear-gradient"/><linearGradient id="linear-gradient-6" x1="-949.2" y1="120.65" x2="689.2" y2="120.65" gradientTransform="matrix(0, 0, 0, 0, 62.07, 118.63)" xlink:href="#linear-gradient"/><linearGradient id="linear-gradient-7" x1="-949.2" y1="116.92" x2="689.2" y2="116.92" gradientTransform="matrix(0, 0, 0, 0, 49.84, 116.33)" xlink:href="#linear-gradient"/></defs><title>Asset 2</title><g id="Layer_2" data-name="Layer 2"><g id="Layer_1-2" data-name="Layer 1"><path class="cls-1" d="M45.85,27.25l11.7-6.9a3.9,3.9,0,0,1,2.15-.65,4.14,4.14,0,0,1,2.2.65l18.75,11,1.65,2.85h3.3l.2.1-4.15,1.3L84,42.8l7.25-2.3L90,36.75l11.25,6.55a4.26,4.26,0,0,1,1.55,1.6,4.07,4.07,0,0,1,.55,2.1V63.9L95.05,63,94,72.25l9.3,1,.1-.85v20.4A4.36,4.36,0,0,1,102.8,95a4.75,4.75,0,0,1-1.55,1.6l-.65.4-.3-.4-2.4,2-6.8,4-2.2-7-7.25,2.3,2.3,7.25,5.75-1.75-8.7,5-4.1-.55-3.1,4.75-3.25,1.9-.9-2.65-4.5,1.55L66.4,117l-4.5,2.6-1.8.55h-.4a4.36,4.36,0,0,1-2.15-.55l-.9-.5L44.4,111.9l-1.1-3.35-3,1L18.2,96.6A4.18,4.18,0,0,1,16.65,95a4.11,4.11,0,0,1-.6-2.15V84.7l2.45-3-1.15-2.15L20,76.7l-3.9-3.55V60.5L21,61.6l2.15-9.5-7-1.6V47a4.54,4.54,0,0,1,2.15-3.7l8-4.65h6.2l2-4.75,5-2.9H42.1l1.45,1.4,3.65-3.85-1.35-1.3M76,50l-2.1,9.55,9.45,2.1,2.15-9.5L76,50m-4.8,4.1-1.5-4.5-4.5,1.55,1.55,4.45,4.45-1.5m-32.8,1.6L45.6,53.4l-2.3-7.25-7.2,2.3,2.25,7.2M37.2,41.7l4.15-3.35L38,34.25l-4.1,3.35,3.35,4.1m16.35-2.45.6,5.25,5.25-.6-.6-5.3-5.25.65m-2.3-2.6-5-1.9-1.9,5,5,2,1.85-5.05m-20.7,13.6-4.8,2.2L27.9,57.3q2.4-1,4.8-2.15l-2.15-4.9M32.65,63l-1,9.3,9.3,1,.65-5.6h.05L42,64l-9.35-1M30.1,86.4l-5.25-.5-.55,5.25,5.25.5.55-5.25M61.9,76.35l4.85-2.2-2.15-4.8L59.7,71.5l2.2,4.85m-24.7,27.7,4.15-3.35L38,96.6,33.85,100l3.35,4.1m38.4-33.5-6.2,6.7,6.75,6.2L82.3,76.7l-6.7-6.15M58.6,84.1l-1.75-7.4H56.8l-7.3,1.75,1.7,7.4,7.4-1.75m-7.35,15-5-1.9-1.9,4.95,5,2,1.85-5m23.2-.45L77,89l-9.6-2.5-2.45,9.6,9.55,2.55M102,79.05,97.7,76l-3.1,4.3L99,83.35l3-4.3m-9.1-28.8-4.8,2.2,2.15,4.85,4.85-2.15-2.2-4.9M92.45,86.4l-5.25-.5-.55,5.25,5.25.5.55-5.25"/><path class="cls-2" d="M85.8,34.25l-.2-.1H82.3L80.65,31.3,61.9,20.35a4.14,4.14,0,0,0-2.2-.65,3.9,3.9,0,0,0-2.15.65l-11.7,6.9-2.1,1.2L42.4,31h-3l-5,2.9-2,4.75H26.2l-8,4.65A4.54,4.54,0,0,0,16.05,47v.75l-2.2.8-2-2.85-.25-.15-.25,0-.25.15-.1.25-.35,3.5L9,49.75l-.25.1,0,.1-.05.2v.25h.05l1.45,3.15h6V77.1l1.3,2.45L18.5,81.7l-2.45,3v8.15a4.11,4.11,0,0,0,.6,2.15,4.18,4.18,0,0,0,1.55,1.6l22.1,12.9,4.1,2.4,12.25,7.2-.55-.25h-.35l-.25.15v0a.42.42,0,0,0,0,.35l.95,3h4.85l.7-1.8v-.45l-.25-.2h-.3l-1.25.4,0-.25,1.8-.55,4.5-2.6,4.15-2.45,3.25-1.9,3.1-4.75,4.1.55,8.7-5,1.5-.5-.1-.35,6.8-4L100.55,97h0l.65-.4A4.75,4.75,0,0,0,102.8,95a4.36,4.36,0,0,0,.55-2.15V70.65l-2.1-3.1,2.1-3.3V47a4.07,4.07,0,0,0-.55-2.1,4.26,4.26,0,0,0-1.55-1.6L90,36.75l-4.2-2.5M13.35,98.3l-.1.25-.35,3.5-1.7.35-.25.1,0,.1-.05.2v.25h.05l1.45,3.15h6l1.6-1,.15-.15,0-.15,0-.3-.3-.25-1.5-.4,1.2-3.15v-.35l-.05-.05-.2-.2H18.9l-2.8,1-2-2.85-.25-.15-.25,0-.25.15M0,35,60,0l60,35v70L60,140,0,105V35m95-3.6-.25-.2h-.3l-1.25.4-.85-4.15-.15-.25-.25-.1-.3.1-.15.25-1,3.15-1.35-.55h-.35l-.25.15v.05a.42.42,0,0,0,0,.35l1,3h4.85l.7-1.8V31.4m12.7,63.5-.25-.1-.3.1-.15.25-1,3.15-1.35-.55h-.35a.3.3,0,0,0-.25.15v0l0,.35,1,3h4.85l.7-1.8V99.1l-.25-.2h-.3l-1.25.4-.85-4.15-.15-.25m-30.3,24.65,0,0-.2-.2h-.35l-2.8,1-2-2.85a.3.3,0,0,0-.25-.15l-.25,0-.25.15-.1.25-.35,3.5-1.7.35-.25.1,0,.1,0,.2v.25h0l1.45,3.15h6l1.6-1,.15-.15,0-.15,0-.3-.3-.25-1.5-.4,1.2-3.15v-.35M49.7,115.1l-.2-.2h-.35l-2.8,1-2-2.85L44.1,113l-.25,0-.25.15-.1.25-.35,3.5-1.7.35-.25.1-.05.1,0,.2v.25h0L42.6,121h6l1.6-1,.15-.15,0-.15,0-.3-.3-.25-1.5-.4,1.2-3.15v-.35l0-.05"/><path class="cls-3" d="M45.85,27.25l1.35,1.3L43.55,32.4,42.1,31h.3l1.35-2.55,2.1-1.2m-29.8,45.9L20,76.7l-2.6,2.85-1.3-2.45V73.15M66.4,117l-1.25-3.55,4.5-1.55.9,2.65L66.4,117M97.9,98.55l2.4-2,.3.4h0L97.9,98.55m5.45-26.1-.1.85-9.3-1,1.1-9.3,8.3.95v.35l-2.1,3.3,2.1,3.1v1.8M90,36.75l1.2,3.75L84,42.8l-2.3-7.25,4.15-1.3,4.2,2.5m-38.75-.1L49.4,41.7l-5-2,1.9-5,5,1.9m2.3,2.6,5.25-.65.6,5.3-5.25.6-.6-5.25M37.2,41.7l-3.35-4.1L38,34.25l3.4,4.1L37.2,41.7m1.15,13.95-2.25-7.2,7.2-2.3,2.3,7.25-7.25,2.25m32.8-1.6-4.45,1.5L65.15,51.1l4.5-1.55,1.5,4.5M76,50l9.5,2.15L83.3,61.6l-9.45-2.1L76,50M32.65,63,42,64l-.4,3.7h-.05l-.65,5.6-9.3-1,1-9.3m26,21.15-7.4,1.75-1.7-7.4,7.3-1.75h.05l1.75,7.4m17-13.55,6.7,6.15-6.15,6.75-6.75-6.2,6.2-6.7m-38.4,33.5L33.85,100,38,96.6l3.4,4.1-4.15,3.35M74.45,98.6,64.9,96.05l2.45-9.6L77,89l-2.5,9.65m18-12.2-.55,5.25-5.25-.5.55-5.25,5.25.5"/><path class="cls-4" d="M16.05,47.75v5.8h-6L8.65,50.4H8.6v-.25l.05-.2,0-.1.25-.1,1.7-.35L11,45.9l.1-.25.25-.15.25,0,.25.15,2,2.85,2.2-.8"/><path class="cls-5" d="M16.05,50.5l7.05,1.6L21,61.6l-4.9-1.1v-10m24.25,59,3-1,1.1,3.35-4.1-2.4m49.4-6.1L84,105.15l-2.3-7.25,7.25-2.3,2.2,7,.1.35-1.5.5M30.55,50.25l2.15,4.9q-2.4,1.1-4.8,2.15l-2.15-4.85,4.8-2.2M30.1,86.4l-.55,5.25-5.25-.5.55-5.25,5.25.5M61.9,76.35,59.7,71.5l4.9-2.15,2.15,4.8-4.85,2.2M51.25,99.05l-1.85,5-5-2,1.9-4.95,5,1.9M92.9,50.25l2.2,4.9L90.25,57.3,88.1,52.45l4.8-2.2m9.1,28.8-3,4.3-4.35-3.1L97.7,76l4.3,3.1"/><path class="cls-6" d="M13.35,98.3l.25-.15.25,0,.25.15,2,2.85,2.8-1h.35l.2.2.05.05v.35l-1.2,3.15,1.5.4.3.25,0,.3,0,.15-.15.15-1.6,1h-6l-1.45-3.15h-.05v-.25l.05-.2,0-.1.25-.1,1.7-.35.35-3.5.1-.25"/><path class="cls-7" d="M95,31.4v.45l-.7,1.8H89.4l-1-3a.42.42,0,0,1,0-.35V30.2l.25-.15h.35l1.35.55,1-3.15.15-.25.3-.1.25.1.15.25.85,4.15,1.25-.4h.3l.25.2"/><path class="cls-8" d="M107.65,94.9l.15.25.85,4.15,1.25-.4h.3l.25.2v.45l-.7,1.8H104.9l-1-3,0-.35v0a.3.3,0,0,1,.25-.15h.35l1.35.55,1-3.15.15-.25.3-.1.25.1"/><path class="cls-9" d="M77.35,119.55v.35l-1.2,3.15,1.5.4.3.25,0,.3,0,.15-.15.15-1.6,1h-6l-1.45-3.15h0V122l0-.2,0-.1.25-.1,1.7-.35.35-3.5.1-.25.25-.15.25,0a.3.3,0,0,1,.25.15l2,2.85,2.8-1h.35l.2.2,0,0"/><path class="cls-10" d="M56.65,119.1l.9.5a4.36,4.36,0,0,0,2.15.55h.4l0,.25,1.25-.4h.3l.25.2v.45l-.7,1.8H56.4l-.95-3a.42.42,0,0,1,0-.35v0l.25-.15h.35l.55.25"/><path class="cls-11" d="M49.7,115.1l0,.05v.35l-1.2,3.15,1.5.4.3.25,0,.3,0,.15-.15.15-1.6,1h-6l-1.45-3.15h0v-.25l0-.2.05-.1.25-.1,1.7-.35.35-3.5.1-.25.25-.15.25,0,.25.15,2,2.85,2.8-1h.35l.2.2"/></g></g></svg>