<svg xmlns="http://www.w3.org/2000/svg" xmlns:xlink="http://www.w3.org/1999/xlink" viewBox="0 0 120 140"><defs><style>.cls-1{fill:#ecdcb8;}.cls-2{fill:#e5d5b2;}.cls-3{fill:#27ae60;}.cls-4{fill:url(#linear-gradient);}.cls-5{fill:url(#linear-gradient-2);}.cls-6{fill:url(#linear-gradient-3);}.cls-7{fill:url(#linear-gradient-4);}.cls-8{fill:url(#linear-gradient-5);}.cls-9{fill:url(#linear-gradient-6);}.cls-10{fill:#e0d1af;}.cls-11{fill:url(#linear-gradient-7);}.cls-12{fill:url(#linear-gradient-8);}.cls-13{fill:url(#linear-gradient-9);}.cls-14{fill:url(#linear-gradient-10);}</style><linearGradient id="linear-gradient" x1="-819.2" y1="26.15" x2="819.2" y2="26.15" gradientTransform="matrix(0, 0, 0, 0, 59.57, 26.15)" gradientUnits="userSpaceOnUse"><stop offset="0" stop-color="#27ae60"/><stop offset="1" stop-color="#30c26d"/></linearGradient><linearGradient id="linear-gradient-2" x1="-819.2" y1="37.63" x2="819.2" y2="37.63" gradientTransform="matrix(0, 0, 0, 0, 49.06, 37.6)" xlink:href="#linear-gradient"/><linearGradient id="linear-gradient-3" x1="-819.2" y1="47.98" x2="819.2" y2="47.98" gradientTransform="matrix(0, 0, 0, 0, 64.21, 48)" xlink:href="#linear-gradient"/><linearGradient id="linear-gradient-4" x1="-819.2" y1="81.88" x2="819.2" y2="81.88" gradientTransform="matrix(0, 0, 0, 0, 86.67, 81.85)" xlink:href="#linear-gradient"/><linearGradient id="linear-gradient-5" x1="-819.2" y1="106.52" x2="819.2" y2="106.52" gradientTransform="matrix(0, 0, 0, 0, 60.06, 106.55)" xlink:href="#linear-gradient"/><linearGradient id="linear-gradient-6" x1="-819.2" y1="89.13" x2="819.2" y2="89.13" gradientTransform="matrix(0, 0, 0, 0, 73.17, 89.1)" xlink:href="#linear-gradient"/><linearGradient id="linear-gradient-7" x1="-819.2" y1="50.4" x2="819.2" y2="50.4" gradientTransform="matrix(0, 0, 0, 0, 15.56, 49.5)" xlink:href="#linear-gradient"/><linearGradient id="linear-gradient-8" x1="-819.2" y1="62.38" x2="819.2" y2="62.38" gradientTransform="matrix(0, 0, 0, 0, 28.22, 62.35)" xlink:href="#linear-gradient"/><linearGradient id="linear-gradient-9" x1="-819.2" y1="54.13" x2="819.2" y2="54.13" gradientTransform="matrix(0, 0, 0, 0, 40.67, 54.1)" xlink:href="#linear-gradient"/><linearGradient id="linear-gradient-10" x1="-819.2" y1="118" x2="819.2" y2="118" gradientTransform="matrix(0, 0, 0, 0, 60.57, 119.1)" xlink:href="#linear-gradient"/></defs><title>Asset 45</title><g id="Layer_2" data-name="Layer 2"><g id="Layer_1-2" data-name="Layer 1"><path class="cls-1" d="M18.35,24.3l27.5-16h0L60,0l60,35v70L60,140,0,105V35L17.25,25l.05-.05h.05l1-.6m85,47a38.54,38.54,0,0,0,5.45-7.25l2-3.95a39,39,0,0,0,2.4-7.05l.8-2.35V42a5.83,5.83,0,0,0-3-5.15h0l-5.65-3.3a61.49,61.49,0,0,1-8.35,3.25l0,.05-4.5,1.4-7-4.1H83.9l-1.35-3-1.6.75-.3-.55-7.5-4.4a41.85,41.85,0,0,1,9.95-3.8l0-.05,2.8-.9L65.9,10.5a44.83,44.83,0,0,1-3.35,7.35L61.2,20l-1.5-.3a3.9,3.9,0,0,0-2.15.65l-13.8,8.1L42.4,31h-3l-5,2.9L32.6,38.2l-1.2.45H26.2l-8,4.65A4.54,4.54,0,0,0,16.05,47v2.6A43.36,43.36,0,0,0,9.5,60.1,60.49,60.49,0,0,0,6.85,67L6,69.9v22a37.14,37.14,0,0,1,10.05-6.35v7.3a4.11,4.11,0,0,0,.6,2.15,4.18,4.18,0,0,0,1.55,1.6l8,4.65a38.12,38.12,0,0,0-8.7,6.9l30.3,17.65,1-1.7,2-3.95,1.45-3.65,4.85,2.85.5.25a4.07,4.07,0,0,0,2.1.55l-.65.3,1.75,4,4-1.85-1.6-3.7,10.65-6.25,3.1-4.75.7.1a39.25,39.25,0,0,0-3.8,4.65,45.23,45.23,0,0,0-4.25,7.5A53.62,53.62,0,0,0,67,127l-.65,2.3,44.75-26.1h0a6.35,6.35,0,0,0,2.2-2.2,5.89,5.89,0,0,0,.8-3v-10a46.74,46.74,0,0,1-11,6.65,4.56,4.56,0,0,0,.4-1.9V71.3m-50.7-53L48.3,19,49,23.3l4.35-.7-.7-4.35M106,78.05l6.55.75.75-6.55-6.55-.8-.75,6.6M11.25,45.9l-2,.9.85,2.1,2-.95-.85-2.05m3.35-8.5-3.75,2.8L13.6,44l3.85-2.8L14.6,37.4m10,1L22.1,35.1l-3.25,2.6L21.45,41l3.2-2.6"/><path class="cls-2" d="M24.65,38.35,21.45,41l-2.6-3.25,3.25-2.6,2.55,3.25m78.7,32.95v-.65l-2.1-3.1,2.1-3.3V47a4.07,4.07,0,0,0-.55-2.1,4.26,4.26,0,0,0-1.55-1.6l-8.65-5,4.5-1.4,0-.05a61.49,61.49,0,0,0,8.35-3.25l5.65,3.3h0A5.83,5.83,0,0,1,114,42v8.7l-.8,2.35a39,39,0,0,1-2.4,7.05l-2,3.95a38.54,38.54,0,0,1-5.45,7.25M83.9,34.15H82.3L81,31.85l1.6-.75,1.35,3M73.15,26.9,61.9,20.35,61.2,20l1.35-2.15A44.83,44.83,0,0,0,65.9,10.5L85.85,22.15l-2.8.9,0,.05a41.85,41.85,0,0,0-9.95,3.8M32.6,38.2l-.2.45h-1l1.2-.45M16.05,50.45l-.3.75.3.1V77.1l2.45,4.6-2.45,3v.85A37.14,37.14,0,0,0,6,91.9v-22l.85-3A60.49,60.49,0,0,1,9.5,60.1a43.36,43.36,0,0,1,6.55-10.5v.85m10.1,50.8L52.2,116.5l-1.45,3.65-2,3.95-1,1.7-30.3-17.65a38.12,38.12,0,0,1,8.7-6.9m33.65,18.9,2.1-.55,1.25-.7,1.6,3.7-4,1.85-1.75-4,.65-.3h.15M77.6,108l3.4.45L101.25,96.6A4.75,4.75,0,0,0,102.8,95l.15-.25a46.74,46.74,0,0,0,11-6.65v10a5.89,5.89,0,0,1-.8,3,6.35,6.35,0,0,1-2.2,2.2h0L66.3,129.3,67,127a53.62,53.62,0,0,1,2.6-6.85,45.23,45.23,0,0,1,4.25-7.5A39.25,39.25,0,0,1,77.6,108M52.65,18.25l.7,4.35L49,23.3,48.3,19l4.35-.7M106,78.05l.75-6.6,6.55.8-.75,6.55L106,78.05M14.6,37.4l2.85,3.75L13.6,44,10.85,40.2l3.75-2.8m-3.35,8.5L12.1,48l-2,.95-.85-2.1,2-.9"/><path class="cls-3" d="M92.6,38.25l8.65,5a4.26,4.26,0,0,1,1.55,1.6,4.07,4.07,0,0,1,.55,2.1V64.25l-2.1,3.3,2.1,3.1v22.2a4.56,4.56,0,0,1-.4,1.9l-.15.25a4.75,4.75,0,0,1-1.55,1.6L81,108.45,77.6,108l-.7-.1-3.1,4.75L63.15,118.9l-1.25.7-2.1.55v-.05l-.8-3.9-.15-.25-.25-.1-.3.1-.15.25-1,3.15h-.1L52.2,116.5,26.15,101.25,18.2,96.6A4.18,4.18,0,0,1,16.65,95a4.11,4.11,0,0,1-.6-2.15V84.7l2.45-3-2.45-4.6V53.35l1.35-.9.15-.15.05-.15-.05-.3-.3-.25-1.2-.3-.3-.1.3-.75.9-2.4V47.7l-.05-.05-.2-.2h-.35l-.3.15V47a4.54,4.54,0,0,1,2.15-3.7l8-4.65h6.2l.2-.45,1.75-4.3,5-2.9h3l1.35-2.55,13.8-8.1a3.9,3.9,0,0,1,2.15-.65l1.5.3.7.35L73.15,26.9l7.5,4.4.3.55,1.35,2.3h3.3l7,4.1m-38.4-11v.45l0,.1.65,1.7h4.85l.9-3.1V26l-.25-.2h-.35l-1.4.55L57.7,23.2,57.55,23l-.3-.1L57,23l-.15.25-.8,4.1L54.75,27l-.3.05-.25.2m-5.65,6.55-.25-.15h-.25l-.25.15L45.85,36.6,43,35.6h-.35l-.2.2-.05.05v.35l1.25,3.1-1.55.45a.31.31,0,0,0-.25.2l-.1.35.1.1.1.15,1.6,1.1h6L51,38.5l0,0,.05-.25-.1-.15,0-.1-.25-.15-1.65-.3-.4-3.5-.1-.25M62.2,47l-2-2.85A.3.3,0,0,0,60,44l-.25,0-.25.15-.1.25L59,47.85l-1.7.35-.25.1,0,.1,0,.2v.25h0L58.45,52h6l1.6-1,.15-.15,0-.15,0-.3-.3-.25-1.5-.4,1.2-3.15V46.2l0-.05-.2-.2H65l-2.8,1M84.4,78.7l-.15.25-1,3.15-1.35-.55h-.35a.3.3,0,0,0-.25.15v0a.42.42,0,0,0,0,.35l1,3.05h4.85l.7-1.8V82.9l-.25-.2h-.3L86,83.1,85.1,79,85,78.7l-.25-.1-.3.1M52.8,107.4h.05l1.45,3.15h6l1.6-1,.15-.15.05-.15-.05-.3-.3-.25-1.5-.4,1.2-3.15,0-.25,0-.1-.05,0-.2-.2h-.35l-2.8,1-2-2.85-.25-.15-.25,0-.25.15-.1.25-.35,3.5-1.7.35-.25.1,0,.1-.05.2v.25M71.45,86l-.25-.1-.3.1-.15.25-1,3.15L68.4,88.8h-.35a.3.3,0,0,0-.25.15v0l0,.35,1,3.05h4.85l.7-1.8v-.45L74,90h-.3l-1.25.4L71.6,86.2,71.45,86M26.5,59.2l-.25-.1-.3.1-.15.25-1,3.15-1.35-.55H23.1a.3.3,0,0,0-.25.15v0a.42.42,0,0,0-.05.35l.95,3.05H28.6l.7-1.8V63.4l-.25-.2h-.3l-1.25.4-.85-4.15-.15-.25m12.2-8.35-.3.1-.15.25-1,3.15L35.9,53.8h-.35a.3.3,0,0,0-.25.15v0a.42.42,0,0,0,0,.35l1,3h4.85l.7-1.8v-.45L41.5,55h-.3l-1.25.4L39.1,51.2,39,51l-.25-.1"/><path class="cls-4" d="M54.2,27.2l.25-.2.3-.05,1.25.4.8-4.1L57,23l.3-.15.3.1.15.25.95,3.15,1.4-.55h.35l.25.2v.35l-.9,3.1H54.9l-.65-1.7,0-.1V27.2"/><path class="cls-5" d="M48.55,33.75l.1.25.4,3.5,1.65.3L51,38l0,.1.1.15-.05.25,0,0-1.45,3.15h-6L42,40.55l-.1-.15-.1-.1.1-.35a.31.31,0,0,1,.25-.2l1.55-.45L42.4,36.2v-.35l.05-.05.2-.2H43l2.85,1,1.95-2.85.25-.15h.25l.25.15"/><path class="cls-6" d="M62.2,47,65,46h.35l.2.2,0,.05v.35L64.4,49.7l1.5.4.3.25,0,.3,0,.15-.15.15-1.6,1h-6L57,48.85h0V48.6l0-.2,0-.1.25-.1,1.7-.35.35-3.5.1-.25L59.7,44,60,44a.3.3,0,0,1,.25.15l2,2.85"/><path class="cls-7" d="M84.4,78.7l.3-.1.25.1.15.25L86,83.1l1.25-.4h.3l.25.2v.45l-.7,1.8H82.2l-1-3.05a.42.42,0,0,1,0-.35v0a.3.3,0,0,1,.25-.15h.35l1.35.55,1-3.15.15-.25"/><path class="cls-8" d="M52.8,107.4v-.25l.05-.2,0-.1.25-.1,1.7-.35.35-3.5.1-.25.25-.15.25,0,.25.15,2,2.85,2.8-1h.35l.2.2.05,0,0,.1,0,.25-1.2,3.15,1.5.4.3.25.05.3-.05.15-.15.15-1.6,1h-6l-1.45-3.15H52.8"/><path class="cls-9" d="M71.45,86l.15.25.85,4.15L73.7,90H74l.25.2v.45l-.7,1.8H68.7l-1-3.05,0-.35v0a.3.3,0,0,1,.25-.15h.35l1.35.55,1-3.15L70.9,86l.3-.1.25.1"/><path class="cls-10" d="M17.3,24.9l1.05-.6-1,.6H17.3"/><path class="cls-11" d="M16.05,47.6l.3-.15h.35l.2.2.05.05v.35l-.9,2.4V47.6m0,3.7,1.2.3.3.25.05.3-.05.15-.15.15-1.35.9V51.3"/><path class="cls-12" d="M26.5,59.2l.15.25.85,4.15,1.25-.4h.3l.25.2v.45l-.7,1.8H23.75L22.8,62.6a.42.42,0,0,1,.05-.35v0a.3.3,0,0,1,.25-.15h.35l1.35.55,1-3.15L26,59.2l.3-.1.25.1"/><path class="cls-13" d="M38.7,50.85,39,51l.15.25L40,55.35,41.2,55h.3l.25.2v.45l-.7,1.8H36.2l-1-3a.42.42,0,0,1,0-.35v0a.3.3,0,0,1,.25-.15h.35l1.35.55,1-3.15L38.4,51l.3-.1"/><path class="cls-14" d="M57.05,119.35h.1l1-3.15.15-.25.3-.1.25.1.15.25.8,3.9v.05h-.15a4.07,4.07,0,0,1-2.1-.55l-.5-.25"/></g></g></svg>