<svg xmlns="http://www.w3.org/2000/svg" viewBox="0 0 120 140"><defs><style>.cls-1{fill:#bb8044;}.cls-2{fill:#aa753e;}.cls-3{fill:#c68a4e;}.cls-4{fill:#115f32;}.cls-5{fill:#168344;}.cls-6{fill:#10773c;}.cls-7{fill:#1b914d;}.cls-8{fill:#726a59;}.cls-9{fill:#bbaf92;}.cls-10{fill:#178044;}.cls-11{fill:#136d3a;}.cls-12{fill:#aeaeae;}.cls-13{fill:#d9cbaa;}.cls-14{fill-opacity:0.1;}.cls-15{fill:#f7e7c1;}.cls-16{fill:#917f57;}.cls-17{fill:#f0d391;}.cls-18{fill:#d0b67d;}.cls-19{fill:#b84029;}.cls-20{fill:#fff;}</style></defs><title>Asset 130</title><g id="Layer_2" data-name="Layer 2"><g id="Layer_1-2" data-name="Layer 1"><path class="cls-1" d="M59.5,16.6l-.85,7,7.15.8.8-7-7.1-.8M37.15,48.35,34.6,45.1l-3.25,2.6L34,51l3.2-2.6m-9.7-4.7L24.6,39.9l-3.75,2.8,2.75,3.75,3.85-2.8M51.5,28.3l4.35-.7-.7-4.35L50.8,24l.7,4.35M120,35v70L60,140,0,105V35L60,0l60,35M109,53.6l-4.4,1.2,1.2,4.45,4.4-1.25L109,53.6m1,15.2.75-6.55-6.55-.8-.75,6.6,6.55.75M88.45,77.3l-1.2,3,2.9,1.2,1.25-2.9-3-1.25M97.7,62.65l3.15.4.45-3.1-3.2-.45-.4,3.15m-8,27.85H94.3V86H89.7l0,4.55M83,100l2.45-6.1L79.3,91.45,76.85,97.6,83,100m27.75-4.15-1.75-4-4,1.85,1.75,4,4-1.85m-68,10.85,1.9,1,1.15-2-2-1-1,2m60.5-8.5-7.1,1.1,1,7,7.1-1.1-1-7M23.65,59.8l6.85-3-3.05-6.9-6.8,3,3,6.9M27.4,96.4l1-4.05-4-.95-1,4,4,1M14.6,55.45l-.85-2.05-2,.9.85,2.1,2-.95m20.5,36-3.55,6.7,6.55,3.5L41.7,95,35.1,91.4m-3.9,11.85L26.65,102l-1.2,4.55,4.5,1.2,1.25-4.45"/><path class="cls-2" d="M31.2,103.25,30,107.7l-4.5-1.2,1.2-4.55,4.55,1.3m-3.75-59.6-3.85,2.8L20.85,42.7l3.75-2.8,2.85,3.75m9.7,4.7L34,51l-2.6-3.25,3.25-2.6,2.55,3.25M59.5,16.6l7.1.8-.8,7.05-7.15-.8.85-7M110,68.8l-6.55-.75.75-6.6,6.55.8L110,68.8m-1-15.2,1.2,4.4-4.4,1.25-1.2-4.45,4.4-1.2M83,100l-6.15-2.4,2.45-6.15,6.15,2.45L83,100m6.75-9.5,0-4.55h4.6V90.5H89.75m13.5,7.7,1,7-7.1,1.1-1-7,7.1-1.1m-60.5,8.5,1-2,2,1-1.15,2-1.9-1M14.6,55.45l-2,.95-.85-2.1,2-.9.85,2.05m12.8,41-4-1,1-4,4,.95-1,4.05"/><path class="cls-3" d="M51.5,28.3,50.8,24l4.35-.7.7,4.35-4.35.7M97.7,62.65l.4-3.15,3.2.45-.45,3.1-3.15-.4M88.45,77.3l3,1.25-1.25,2.9-2.9-1.2,1.2-3m22.3,18.55-4,1.85-1.75-4,4-1.85,1.75,4m-87.1-36-3-6.9,6.8-3,3.05,6.9-6.85,3M35.1,91.4,41.7,95l-3.6,6.65-6.55-3.5,3.55-6.7"/><path class="cls-4" d="M78.2,44.25l1.75-.7L70.85,23.8l-6.1,15.45.75,1,.25.3h0l-.2-.3-3,3.4,2,2.75-2.3,3.3,6.8,9.6,1.5-.55,0,0,12.65-5L79.5,49.4l1-.35L78.6,44.1l-.4.15M70.05,22l1.5-.05A2,2,0,0,1,72.7,23l9.1,19.75.15,1-.4,1-.4.4,1.2,3.2a1.85,1.85,0,0,1,0,1.35l2.3,2.8a2,2,0,0,1,.45,1.15,2.07,2.07,0,0,1-.3,1.2l-1,.75-14.1,5.6-1.3.1-1-.8-6.8-9.6a1.77,1.77,0,0,1-.4-1.15,2,2,0,0,1,.35-1.15l1.5-2.15L61,44.85a1.73,1.73,0,0,1-.4-1.25,1.92,1.92,0,0,1,.5-1.2l2-2.2-.2-.7a1.54,1.54,0,0,1,.1-1L69,23.1a1.82,1.82,0,0,1,1-1.1"/><path class="cls-5" d="M64.5,46.45l5,6.9.65-6.55v0L65.75,40.6l-.25-.3-.75-1,6.1-15.45-.4,23.5,7.75-3,.4-.15,1.85,4.95-1,.35-9.7,3.8L69,59.35l-6.8-9.6,2.3-3.3"/><path class="cls-6" d="M65.75,40.6l4.35,6.15v0l-.65,6.55-5-6.9-2-2.75,3-3.4.2.3h0"/><path class="cls-7" d="M69,59.35l.8-6.15,9.7-3.8,3.6,4.35-12.65,5,0,0-1.5.55m9.2-15.1-7.75,3,.4-23.5L80,43.55l-1.75.7"/><path class="cls-4" d="M7.05,66.65V66.1a1.89,1.89,0,0,1,.5-1.3L29,39.35a1.87,1.87,0,0,1,1.05-.65L41.1,36.1l1,0a1.64,1.64,0,0,1,.9.6l11,12.7-1.4,1.6v-.2l-11.1-12.8-11,2.6L9.05,66.1v.1l-2,.45"/><path class="cls-8" d="M7.05,66.65l2-.45V78.5l2.6,1.25L22.2,67.5l6.2,7.25V87.5L31,88.9,52.65,63.45V51.05l1.4-1.6.1.1a1.89,1.89,0,0,1,.5,1.3v12.6a2,2,0,0,1-.45,1.3L32.55,90.2a2.19,2.19,0,0,1-1.15.7l-1.35-.25-1.3-.7-1.3-.7-.75-.7a2,2,0,0,1-.3-1v-12l-4.2-4.9-9,10.45-1.15.65H11.2l-.4-.15L8.2,80.3l-.85-.75a2,2,0,0,1-.3-1V66.65"/><path class="cls-9" d="M52.65,50.85v12.6L31,88.9V76.45l21.65-25.6M21.9,67.15l.3.35L11.65,79.75V67l8.45-1.9,1.8,2.1"/><path class="cls-10" d="M41.55,38.05l11.1,12.8L31,76.45,20.1,63.65l21.45-25.6"/><path class="cls-11" d="M41.55,38.05,20.1,63.65l-11,2.45L30.5,40.65l11-2.6"/><path class="cls-12" d="M22.2,67.5l-.3-.35.3.3v0"/><path class="cls-13" d="M22.2,67.5v0l-.3-.3-1.8-2.1L11.65,67v12.8L9.05,78.5V66.1L20.1,63.65,31,76.45V88.9l-2.6-1.4V74.75L22.2,67.5"/><path class="cls-14" d="M28.75,90,11.2,81.7h.85l1.15-.65,9-10.45,4.2,4.9v12a2,2,0,0,0,.3,1l.75.7,1.3.7"/><path class="cls-8" d="M61,48l43.25,20.3.85.75.3,1V77.5a2,2,0,0,1-.45,1.3l-6.85,8-1,.65-1.2,0-3-1.15-.95-.75a2.15,2.15,0,0,1-.35-1.15V77.4L61.9,63.55l-16.45,19,.65.3.85.75.3,1v7.45l-.35,1.2L45.15,95.7a2.19,2.19,0,0,1-1.15.75l-1.35-.15-10.8-5.1-.8-.7a1.89,1.89,0,0,1-.35-1.1V82a1.89,1.89,0,0,1,.5-1.3l27.45-32.2a1.87,1.87,0,0,1,1.1-.65L61,48m.4,13.15L93.9,76.25l-.35.35v7.75l3,1.15,6.85-8V70.05L60.15,49.75,32.7,82V89.4l10.8,5.1,1.75-2.45V84.6L41,82.6l1.25.55L61.4,61.1"/><path class="cls-13" d="M61.4,61.1V53.35L98.6,70.9l-4.7,5.35L61.4,61.1M93.55,76.6l3,1.45V85.5l-3-1.15V76.6M32.7,82l10.8,5.1V94.5L32.7,89.4V82"/><path class="cls-15" d="M32.7,82l27.45-32.2,43.25,20.3-6.85,8-3-1.45.35-.35,4.7-5.35L61.4,53.35,37.8,81.05,41,82.6l4.25,2L43.5,87.05,32.7,82"/><path class="cls-9" d="M61.4,53.35V61.1L42.25,83.15,41,82.6l-3.2-1.55,23.6-27.7m35.15,24.7,6.85-8V77.5l-6.85,8V78.05m-53,9,1.75-2.45v7.45L43.5,94.5V87.05"/><path class="cls-16" d="M88.2,71.4l.3,1V77.2l-.45,1.3L85.4,81.7a2.11,2.11,0,0,1-1.1.65l-1.25-.1L78.3,80.1l-.85-.75a1.89,1.89,0,0,1-.35-1.1v-5A1.92,1.92,0,0,1,77.55,72l2.65-3.2,1.15-.7,1.3.2,4.75,2.4.8.7m-1.7,1-4.75-2.4-2.65,3.2v5l4.75,2.15,2.65-3.2V72.45"/><path class="cls-17" d="M86.5,72.45,83.85,75.6,79.1,73.25l2.65-3.2,4.75,2.4"/><path class="cls-18" d="M79.1,73.25l4.75,2.35,2.65-3.15V77.2l-2.65,3.2L79.1,78.25v-5m4,3.15-1.6-1.3H79.9v1.3L81.5,78h1.6V76.4"/><path class="cls-19" d="M83.1,76.4V78H81.5l-1.6-1.6V75.1h1.6l1.6,1.3m-.8.1-.8-.65h-.8v.65l.8.8h.8v-.8"/><path class="cls-20" d="M82.3,76.5v.8h-.8l-.8-.8v-.65h.8l.8.65"/><path class="cls-16" d="M68.5,61.55,73.25,64l.8.7.3,1v4.75l-.45,1.3L71.25,75a2.11,2.11,0,0,1-1.1.65l-1.25-.1-4.75-2.15-.85-.75A1.89,1.89,0,0,1,63,71.5v-5a1.92,1.92,0,0,1,.45-1.25l2.65-3.2,1.15-.7,1.3.2M65,66.5v5l4.75,2.15,2.65-3.2V65.7L67.6,63.3,65,66.5"/><path class="cls-19" d="M68.15,69.75l-.8-.65h-.8v.65l.8.8h.8v-.8m.8-.1v1.6h-1.6l-1.6-1.6v-1.3h1.6l1.6,1.3"/><path class="cls-20" d="M68.15,69.75v.8h-.8l-.8-.8V69.1h.8l.8.65"/><path class="cls-18" d="M69,69.65l-1.6-1.3h-1.6v1.3l1.6,1.6H69v-1.6m3.4-4v4.75l-2.65,3.2L65,71.5v-5l4.75,2.35,2.65-3.15"/><path class="cls-17" d="M72.35,65.7,69.7,68.85,65,66.5l2.65-3.2,4.75,2.4"/><path class="cls-4" d="M107.15,69.8l4.3,10.85.15.9,0,.35,1.15,1.3a2,2,0,0,1,.45,1.2,1.84,1.84,0,0,1-.35,1.25l-.55.8.8,1.15a2,2,0,0,1,.35,1.15l-.35,1.15-4.8,6.75-1,.75a2.05,2.05,0,0,1-1.25,0l-1-.35-.6-.3L96,93.45a2.16,2.16,0,0,1-1-.75,1.77,1.77,0,0,1-.35-1.2,2,2,0,0,1,.45-1.15L96.6,88.6a1.87,1.87,0,0,1,.1-1l.7-1.85-.1-.1a1.84,1.84,0,0,1-.4-.95,1.91,1.91,0,0,1,.2-1.05l6.4-13.9a1.81,1.81,0,0,1,1.1-1l1.5,0a1.82,1.82,0,0,1,1.05,1.1m-1.85.7L98.9,84.4l1.25.5-.3-.1-1.3,3.45.65.25-2.5,3.1,8.9,3.5,0,.05,1,.35,4.8-6.75-1.6-2.3,1.35-2-2.05-2.4-.15.2h0l.2-.2.5-.75L105.3,70.5"/><path class="cls-7" d="M105.3,70.5l4.3,10.85-.5.75-.2.2-3.05,4.35v0l.45,4.6,3.5-4.85,1.6,2.3-4.8,6.75-.55-4.3L99.2,88.5l-.65-.25,1.3-3.45.3.1,5.45,2.15-.3-16.55"/><path class="cls-5" d="M105.3,70.5l.3,16.55-5.45-2.15-1.25-.5,6.4-13.9m3.8,11.6,2.05,2.4-1.35,2-3.5,4.85-.45-4.6v0l3.05-4.35h0l.15-.2m-2.5,13.4-1-.35,0-.05-8.9-3.5,2.5-3.1,6.85,2.7.55,4.3"/></g></g></svg>