<svg xmlns="http://www.w3.org/2000/svg" viewBox="0 0 120 140"><defs><style>.cls-1{fill:#a4afaf;}.cls-2{fill:#9ba6a6;}.cls-3{fill:#a9b6b6;}.cls-4{fill:#727979;}.cls-5{fill:#a6b1b1;}.cls-6{fill:#d5e5e5;}.cls-7{fill:#b9c6c6;}.cls-8{fill-opacity:0.1;}</style></defs><title>Asset 90</title><g id="Layer_2" data-name="Layer 2"><g id="Layer_1-2" data-name="Layer 1"><path class="cls-1" d="M18.5,78.85,12.6,76.1,8.9,80.45l5.9,2.75,3.7-4.35m18-39.6,5.85-6.85-9.3-4.3-5.8,6.8,9.25,4.35m22.4-24.8,5.9,2.75,3.7-4.35L62.6,10.1l-3.7,4.35M21.4,71.5l5.85-6.85L18,60.35l-5.8,6.8L21.4,71.5m4.8-2.15-5.8,6.8,9.25,4.35,5.85-6.85-9.3-4.3M47,105.6c-2-.9-3.93-1.82-5.9-2.75l-3.7,4.35L43.3,110,47,105.6M40.5,62.1l-5.9-2.75L30.9,63.7l5.9,2.75,3.7-4.35M71.2,65l-5.8,6.8,9.25,4.35,5.85-6.85L71.2,65M61.65,63.7l5.9,2.75,3.7-4.35-5.9-2.75-3.7,4.35M0,35,60,0l60,35v70L60,140,0,105V35m88.35-9.4L84.65,30l5.9,2.75,3.7-4.35-5.9-2.75m14.8,41,5.9,2.75,3.7-4.35-5.9-2.75-3.7,4.35M96.8,37.45l3.7-4.35-5.9-2.75L90.9,34.7l5.9,2.75m-14.4,4,5.85-6.85L79,30.35l-5.8,6.8L82.4,41.5M100.5,65l-5.9-2.75L90.9,66.6l5.9,2.75L100.5,65M93,99.85l-3.7,4.35L95.2,107l3.7-4.35L93,99.85m-15.6-2.7,9.25,4.35,5.85-6.85-9.3-4.3-5.8,6.8M37.4,116l5.9,2.75,3.7-4.35c-2-.9-3.93-1.82-5.9-2.75L37.4,116M84.65,105.6l-5.9-2.75-3.7,4.35L81,110l3.7-4.35M23.4,114.3l5.9,2.75L33,112.7,27.1,110l-3.7,4.35"/><path class="cls-2" d="M23.4,114.3,27.1,110,33,112.7l-3.7,4.35-5.9-2.75M58.9,14.45l3.7-4.35,5.9,2.75L64.8,17.2l-5.9-2.75M36.5,39.25,27.25,34.9l5.8-6.8,9.3,4.3L36.5,39.25m-18,39.6L14.8,83.2,8.9,80.45l3.7-4.35,5.9,2.75M47,105.6,43.3,110l-5.9-2.75,3.7-4.35c2,.93,3.93,1.85,5.9,2.75M61.65,63.7l3.7-4.35,5.9,2.75-3.7,4.35-5.9-2.75M71.2,65l9.3,4.3L74.65,76.1,65.4,71.75,71.2,65M88.35,25.6l5.9,2.75-3.7,4.35L84.65,30l3.7-4.35M100.5,65l-3.7,4.35L90.9,66.6l3.7-4.35L100.5,65M77.4,97.15l5.8-6.8,9.3,4.3-5.85,6.85L77.4,97.15"/><path class="cls-3" d="M26.2,69.35l9.3,4.3L29.65,80.5,20.4,76.15l5.8-6.8M21.4,71.5l-9.25-4.35,5.8-6.8,9.3,4.3L21.4,71.5m19.1-9.4-3.7,4.35L30.9,63.7l3.7-4.35,5.9,2.75M82.4,41.5l-9.25-4.35,5.8-6.8,9.3,4.3L82.4,41.5m14.4-4L90.9,34.7l3.7-4.35,5.9,2.75-3.7,4.35m6.35,29.15,3.7-4.35,5.9,2.75-3.7,4.35-5.9-2.75M93,99.85l5.9,2.75L95.2,107l-5.9-2.75L93,99.85m-8.35,5.75L81,110l-5.9-2.75,3.7-4.35,5.9,2.75M37.4,116l3.7-4.35c2,.93,3.93,1.85,5.9,2.75l-3.7,4.35L37.4,116"/><path class="cls-4" d="M43.2,55.7l-.45.15-1.3-.15L38,54.05l-.8-.7a1.89,1.89,0,0,1-.35-1.1V44a1.9,1.9,0,0,1,.25-1l.7-1.25v-4.3l-1.4,1.65-1.1.65-1.3-.1-3.9-1.8-.8-.75A1.89,1.89,0,0,1,28.9,36V33.55a1.89,1.89,0,0,1,.5-1.3l4.65-5.5a1.87,1.87,0,0,1,1.1-.65l1,0,2.1-2.45.55-.45,1-.55.9-.25.95.2,2.3,1.1.7.6.5.65a1.83,1.83,0,0,1,.4,1.2V41l.6.8A2,2,0,0,1,46.5,43V51.3a2,2,0,0,1-.45,1.3l-2.2,2.6-.65.5m-.9-1.8,2.2-2.6V43l-1-1.35V26.2l-.5-.65-2.3-1.1-1,.55-3,3.6-1.15-.55-4.65,5.5V36l3.9,1.8,5-5.75v10.2l-1,1.7v8.3l3.5,1.65"/><path class="cls-5" d="M42.3,53.9V45.6l-.2-2.3V27.9l-2.35,2.75v1.4l-5,5.75L30.9,36V33.55l3.9,1.8,4.65-5.5-.4-.15,3.05-3.65L39.75,25l1-.55,2.3,1.1.5.65V41.6l1,1.35V51.3l-2.2,2.6"/><path class="cls-6" d="M38.8,44l1-1.7,2.35,1,.2,2.3L38.8,44m-7.9-10.4,4.65-5.5,1.15.55,3-3.6,2.35,1.05L39.05,29.7l.4.15-4.65,5.5-3.9-1.8"/><path class="cls-7" d="M42.3,53.9l-3.5-1.65V44l3.5,1.65v8.3M39.75,42.25V30.65L42.1,27.9V43.3l-2.35-1"/><path class="cls-8" d="M43.2,55.7l-5.75,6.8L30.9,59.1l5.9-7v.1a1.89,1.89,0,0,0,.35,1.1l.8.7,3.5,1.65,1.3.15.45-.15"/><path class="cls-4" d="M86.8,92.15V84l.25-1,.7-1.25v-4.3l-1.4,1.65a2.11,2.11,0,0,1-1.1.65l-1.3-.1-3.9-1.8-.8-.75A1.89,1.89,0,0,1,78.9,76V73.55a1.89,1.89,0,0,1,.5-1.3l4.65-5.5a1.87,1.87,0,0,1,1.1-.65l1,.05,2.1-2.45.55-.45,1-.55a1.65,1.65,0,0,1,.9-.25l1,.2,2.3,1.1.7.6.5.65a1.83,1.83,0,0,1,.4,1.2V81l.6.8A2,2,0,0,1,96.5,83V91.3a2,2,0,0,1-.45,1.3l-2.2,2.6-.65.5-.45.15-1.3-.15L88,94.05l-.8-.7a1.89,1.89,0,0,1-.35-1.1v-.1m3-27.15-3,3.6-1.15-.55-4.65,5.5V76l3.9,1.8,5-5.75v10.2l-1,1.7v8.3l3.5,1.65,2.2-2.6V83l-1-1.35V66.2l-.5-.65-2.3-1.1-1,.55"/><path class="cls-6" d="M89.75,65l2.35,1-3,3.65.4.15-4.65,5.5-3.9-1.8,4.65-5.5,1.15.55,3-3.6m-1,19,1-1.7,2.35,1,.2,2.3L88.8,84"/><path class="cls-5" d="M89.75,65l1-.55,2.3,1.1.5.65V81.6l1,1.35V91.3l-2.2,2.6V85.6l-.2-2.3V67.9l-2.35,2.75v1.4l-5,5.75L80.9,76V73.55l3.9,1.8,4.65-5.5-.4-.15,3-3.65-2.35-1"/><path class="cls-7" d="M92.3,93.9l-3.5-1.65V84l3.5,1.65v8.3M89.75,82.25V70.65L92.1,67.9V83.3l-2.35-1"/><path class="cls-8" d="M93.2,95.7l-5.75,6.8L80.9,99.1l5.9-6.95v.1a1.89,1.89,0,0,0,.35,1.1l.8.7,3.5,1.65,1.3.15.45-.15"/></g></g></svg>