<svg xmlns="http://www.w3.org/2000/svg" viewBox="0 0 120 140"><defs><style>.cls-1{fill:#bb6444;}.cls-2{fill:#c26948;}.cls-3{fill:#b55f40;}.cls-4{fill:#593269;}.cls-5{fill:#9b59b6;}.cls-6{fill:#ecdcb8;}.cls-7{fill:#79468e;}.cls-8{fill:#c16ee2;}.cls-9{fill:#727979;}.cls-10{fill:#cad9d9;}.cls-11{fill:#434343;}.cls-12{fill:#b9c6c6;}.cls-13{fill:#fc0;}.cls-14{fill:#ecbc00;}.cls-15{fill:#856a00;}.cls-16{fill:#a6b1b1;}.cls-17{fill:#cba200;}.cls-18{fill:#d5e5e5;}.cls-19{fill:#d0a500;}.cls-20{fill:#934e35;}</style></defs><title>Asset 119</title><g id="Layer_2" data-name="Layer 2"><g id="Layer_1-2" data-name="Layer 1"><path class="cls-1" d="M32.05,114.15l-2.2-4.9-4.75,2.2,2.15,4.85,4.8-2.15M9.65,42.75l-4.25-3L2.3,44l4.25,3.1,3.1-4.3m13.75,9.4L13.9,50l-2.1,9.55,9.45,2.1,2.15-9.5M14.9,89,5.3,86.5,2.8,96.1l9.6,2.55L14.9,89m5.35-12.25-6.7-6.15-6.2,6.7,6.7,6.2,6.2-6.75M0,35,60,0l60,35v70L60,140,0,105V35M109,97.2l-1.9,5,5,1.95,1.85-5-5-1.9m5-60.5-5-1.9-1.9,5,5,2,1.85-5m2.35,17.45-5.35-.5-.5,5.3,5.25.5.6-5.3m-23.5-30-5.25-.55L87,28.85l5.25.5.55-5.25M82,35.6l2.3,7.25,7.25-2.3L89.2,33.3,82,35.6m-12,14-4.5,1.55L67,55.6l4.45-1.5L70,49.6m-2.9-37.75L64.9,7.05,60,9.2,62.2,14l4.85-2.15M93.2,50.3l-4.8,2.2,2.15,4.85L95.4,55.2l-2.2-4.9m-7.45,1.85L76.25,50l-2.1,9.55,9.45,2.1,2.15-9.5M30.4,24.1l-5.25-.55-.55,5.3,5.25.5.55-5.25M43.6,46.2l-7.2,2.3,2.25,7.2,7.25-2.25L43.6,46.2m-9.45-8.55,3.35,4.1,4.15-3.35-3.4-4.1-4.1,3.35M30.85,50.3l-4.8,2.2,2.15,4.85L33,55.2l-2.15-4.9m23.6-5.75L59.7,44l-.6-5.3-5.25.65.6,5.25m-9.8-4.75,5.05,2,1.85-5-5-1.9-1.9,5M40,28.8l3.85,3.65L47.5,28.6,43.65,25,40,28.8M60,71.55l2.2,4.85,4.85-2.2L64.9,69.4,60,71.55M33,63,31.9,72.3l9.3,1,.65-5.6h0l.4-3.7L33,63m24.2,13.75h0L49.8,78.5l1.7,7.4,7.4-1.75-1.75-7.4m-27.3,15,.55-5.25L25.15,86,24.6,91.2l5.25.5m8.4,5L34.15,100l3.35,4.1,4.15-3.35-3.4-4.1m8.3.55-1.9,5,5.05,1.95,1.85-5-5-1.9M77.25,89l-9.6-2.5L65.2,96.1l9.55,2.55L77.25,89M75.9,70.6l-6.2,6.7,6.75,6.2,6.15-6.75L75.9,70.6m27.65,2.75.65-5.6h0l.4-3.7-9.3-1-1.1,9.3,9.3,1m-8.65,7,4.35,3.1,3-4.3L98,76l-3.1,4.3m-2.15,6.15L87.5,86,87,91.2l5.25.5.55-5.25M91.5,103l-2.3-7.3L82,98l2.3,7.25L91.5,103m9.1-6.3L96.5,100l3.35,4.1,4.15-3.35-3.4-4.1m-16,24.95,2.15-9.5L77.2,110l-2.1,9.55,9.45,2.1m-20.5.8-5.2.85.8,5.2,5.25-.8-.85-5.25m7.4-6L70,112l-4.5,1.55L67,118l4.45-1.55m-35.05-5.6,2.25,7.25,7.25-2.3-2.3-7.2-7.2,2.25"/><path class="cls-2" d="M23.4,52.15l-2.15,9.5-9.45-2.1L13.9,50l9.5,2.15M113.9,36.7l-1.85,5-5-2,1.9-5,5,1.9m-5,60.5,5,1.9-1.85,5-5-1.95,1.9-5M92.75,24.1l-.55,5.25L87,28.85l.55-5.3,5.25.55m.45,26.2,2.2,4.9-4.85,2.15L88.4,52.5l4.8-2.2M30.4,24.1l-.55,5.25-5.25-.5.55-5.3,5.25.55m.45,26.2L33,55.2l-4.8,2.15L26.05,52.5l4.8-2.2M60,71.55l4.9-2.15,2.15,4.8L62.2,76.4,60,71.55M29.85,91.7l-5.25-.5L25.15,86l5.25.5-.55,5.25m16.7,5.5,5,1.9-1.85,5-5.05-1.95,1.9-5M94.9,80.3,98,76l4.3,3.1-3,4.3L94.9,80.3M91.5,103l-7.25,2.25L82,98l7.25-2.3,2.3,7.3m-7,18.65-9.45-2.1L77.2,110l9.5,2.15-2.15,9.5M36.4,110.85l7.2-2.25,2.3,7.2-7.25,2.3-2.25-7.25"/><path class="cls-3" d="M9.65,42.75l-3.1,4.3L2.3,44,5.4,39.7l4.25,3m10.6,34-6.2,6.75-6.7-6.2,6.2-6.7,6.7,6.15M14.9,89l-2.5,9.65L2.8,96.1l2.5-9.6L14.9,89M116.25,54.15l-.6,5.3L110.4,59l.5-5.3,5.35.5m-49.2-42.3L62.2,14,60,9.2l4.9-2.15,2.15,4.8M70,49.6l1.5,4.5L67,55.6l-1.55-4.45L70,49.6m12-14,7.25-2.3,2.3,7.25-7.25,2.3L82,35.6m3.8,16.55-2.15,9.5-9.45-2.1L76.25,50l9.5,2.15m-51.6-14.5,4.1-3.35,3.4,4.1L37.5,41.75l-3.35-4.1M43.6,46.2l2.3,7.25L38.65,55.7,36.4,48.5l7.2-2.3M40,28.8,43.65,25,47.5,28.6l-3.65,3.85L40,28.8m4.65,11,1.9-5,5,1.9-1.85,5-5.05-2m9.8,4.75-.6-5.25,5.25-.65.6,5.3-5.25.6m2.7,32.2,1.75,7.4L51.5,85.9l-1.7-7.4,7.3-1.75h0M33,63l9.35,1-.4,3.7h0l-.65,5.6-9.3-1L33,63m5.3,33.65,3.4,4.1L37.5,104.1,34.15,100l4.1-3.35m65.3-23.3-9.3-1,1.1-9.3,9.3,1-.4,3.7h0l-.65,5.6M75.9,70.6l6.7,6.15L76.45,83.5,69.7,77.3l6.2-6.7M77.25,89l-2.5,9.65L65.2,96.1l2.45-9.6,9.6,2.5m15.5-2.55L92.2,91.7,87,91.2,87.5,86l5.25.5m7.85,10.2,3.4,4.1-4.15,3.35L96.5,100l4.1-3.35m-29.15,19.8L67,118l-1.55-4.5L70,112l1.5,4.5m-7.4,6,.85,5.25-5.25.8-.8-5.2,5.2-.85m-32-8.25-4.8,2.15-2.15-4.85,4.75-2.2,2.2,4.9"/><path class="cls-4" d="M18.35,45.8,19.6,46l9.85,4.45.85.75.3,1.05V62.7a2,2,0,0,1-.55,1.4l-5.2,5.5v.6l-.15.8-.45.65L22.3,73.5l-1,.5-1.1,0-2.1-.8-1-.75a2.15,2.15,0,0,1-.35-1.15V69.9l-5.15-2.5-.85-.75a2,2,0,0,1-.3-1.05V54.8a1.89,1.89,0,0,1,.5-1.3l6.25-7,1.1-.65m-5.85,9V65.6l6.3,3.05v2.6l2.1.8,2-1.85V68.8l5.75-6.1V52.2l-9.85-4.45-6.25,7"/><path class="cls-5" d="M12.5,54.8,22,59.3,21.7,70l-2.9-1.35L12.5,65.6V54.8"/><path class="cls-6" d="M18.8,68.65,21.7,70l1.15-1.2v1.4l-2,1.85-2.1-.8v-2.6"/><path class="cls-7" d="M21.7,70,22,59.3l6.65-7.1V62.7l-5.75,6.1L21.7,70"/><path class="cls-8" d="M22,59.3,12.5,54.8l6.25-7L28.6,52.2,22,59.3"/><path class="cls-9" d="M59.45,43.75l1.8-26.2a1.68,1.68,0,0,1,.5-1.1l2.6-3.1.7-.55.85-.2,4.9.15.9.25.7.6,2.25,3.2L75,17.85l1.85,26.7L75,46.7v-.05L73,18l-2.25-3.2-4.9-.15-2.6,3.1-2,28.55v0l-1.8-2.55"/><path class="cls-10" d="M63.25,17.7l2.6-3.1,4.9.15L73,18l-2.6,3.1L71.35,51,64.5,50.8l1-29.9-2.3-3.2m3.6-1.65-1.45,1.7,1.25,1.8,2.75.1,1.45-1.75-1.3-1.75-2.7-.1"/><path class="cls-11" d="M66.85,16.05l2.7.1,1.3,1.75L69.4,19.65l-2.75-.1-1.25-1.8,1.45-1.7"/><path class="cls-12" d="M61.25,46.25l2-28.55,2.3,3.2-1,29.9-3.25-4.55M73,18l2,28.7L71.35,51l-.95-29.9L73,18"/><path class="cls-13" d="M64.5,50.8l6.85.15.9,30-8.85-.25L64.5,50.8"/><path class="cls-14" d="M64.5,50.8,63.4,80.65l-4.1-5.8,2-28.55v0L64.5,50.8M75,46.65v.05l2,28.6-4.7,5.6L71.35,51,75,46.65"/><path class="cls-15" d="M76.85,44.55,79,75.2a2,2,0,0,1-.45,1.4l-4.7,5.6-.7.55-.9.15-8.85-.25-.9-.2-.65-.65L57.7,76a1.9,1.9,0,0,1-.4-1.3l2.15-30.95,1.8,2.55-2,28.55,4.1,5.8,8.85.25L77,75.3,75,46.7l1.85-2.15"/><path class="cls-9" d="M20.3,82.7,41,92.4l2.4-2.8L44,92.05l-1.4,1.65-1.1.65-1.3-.15-20.7-9.7-.85-.8a1.87,1.87,0,0,1,.2-2.3L27,71.8v-24l2,.9V72.55L20.3,82.7M58.7,33.65v4.7l8.75,7.85.5.65.15.8v12.9l-2,2.35V47.65L56.7,39.2V36l2-2.3"/><path class="cls-15" d="M58.7,33.65l-2,2.3V21.35L44.65,15.7,29,34.15V48.7l-2-.9V34.15a1.89,1.89,0,0,1,.5-1.3L43.15,14.4a1.87,1.87,0,0,1,1.1-.65l1.25.15,12,5.65a2.34,2.34,0,0,1,.85.75l.3,1.05v12.3m9.4,26.9v17.7a2,2,0,0,1-.45,1.3L54.35,95.3a2.11,2.11,0,0,1-1.1.65L52,95.8l-8-3.75L43.4,89.6,52.8,94l6.7-7.8L63.05,82l3-3.7V62.9l2-2.35"/><path class="cls-13" d="M29,34.15,44.65,15.7,56.7,21.35,41,39.85l-12-5.7M56.7,39.2l9.4,8.45L52.8,63.35,43.4,55,56.7,39.2"/><path class="cls-14" d="M29,34.15,41,39.85V54.2L29,48.55V34.15M52.8,78.7V94l-9.4-4.4V74.25l9.4,4.45"/><path class="cls-12" d="M52.8,78.7l-9.4-4.45V55l9.4,8.4V78.7M41,92.4,20.3,82.7,29,78.2V48.55L41,54.2V92.4m18.5-6.2V78l3.55-4.25V82L59.5,86.2"/><path class="cls-16" d="M43.4,89.6,41,92.4V54.2L56.7,35.75V39.2L43.4,55V89.6M66.1,47.65V63L52.8,78.7V63.35l13.3-15.7"/><path class="cls-17" d="M56.7,21.35v14.4L41,54.2V39.85l15.7-18.5M63.05,82V73.7L59.5,78V86.2L52.8,94V78.7L66.1,63v15.3l-3,3.7"/><path class="cls-18" d="M20.3,82.7,29,72.55V78.2L20.3,82.7"/><path class="cls-15" d="M50.85,83V82.4a1.89,1.89,0,0,1,.5-1.3l19.8-23.4a1.64,1.64,0,0,1,.9-.6l6.85-2.2,1.45.1,19,8.85.75.55L106.8,73l-1.5,1.75V74.3l-6.85-8.65-19-8.85L72.65,59,53,82.3l-2.1.65"/><path class="cls-16" d="M105.3,74.75V86.2L85.5,109.6V97.7l19.8-23.4v.45M80,107,58.35,96.9V89.65L80,99.8V107"/><path class="cls-9" d="M80,107l5.5,2.6,19.8-23.4V74.75L106.8,73l.1,0a2.05,2.05,0,0,1,.4,1.25V86.2a2,2,0,0,1-.45,1.3l-19.8,23.4-1.1.65-1.3-.15L52,96.1l-.8-.7a1.89,1.89,0,0,1-.35-1.1V83L53,82.3l-.1.1V94.3l5.5,2.6L80,107"/><path class="cls-19" d="M52.85,82.4l.1-.1L72.65,59l6.85-2.2L59.75,80.15l-6.9,2.25"/><path class="cls-12" d="M52.85,82.4l6.9-2.25L78.65,89l6.85,8.7v11.9L80,107V99.8L58.35,89.65V96.9l-5.5-2.6V82.4"/><path class="cls-13" d="M79.5,56.8l19,8.85L78.65,89l-18.9-8.85L79.5,56.8"/><path class="cls-14" d="M98.45,65.65l6.85,8.65L85.5,97.7,78.65,89l19.8-23.35"/><path class="cls-20" d="M37.5,111.5l1.35,2.2-3.6,1-1.35-2.2,3.6-1M42,108.15l-6.35,1.7-2.3-3.8,6.35-1.7,2.3,3.8M57.3,117l-5.25,1.4-1.9-3.15,5.25-1.4L57.3,117m-10-6.2,2.15,3.5-5.85,1.55-2.15-3.5,5.85-1.55m-.9-5,7.35-1.95,2.7,4.4-7.35,2-2.7-4.4m-5.4-3.7,3.65-1L46,103.35l-3.65,1L41,102.15"/></g></g></svg>