<svg xmlns="http://www.w3.org/2000/svg" viewBox="0 0 120 140"><defs><style>.cls-1{fill:#bb8044;}.cls-2{fill:#aa753e;}.cls-3{fill:#c68a4e;}.cls-4{fill:#115f32;}.cls-5{fill:#198a49;}.cls-6{fill:#1b914d;}.cls-7{fill-opacity:0.1;}</style></defs><title>Asset 35</title><g id="Layer_2" data-name="Layer 2"><g id="Layer_1-2" data-name="Layer 1"><path class="cls-1" d="M20.65,52.9l3,6.9,6.85-3-3.05-6.9-6.8,3m-8,3.5,2-.95-.85-2.05-2,.9.85,2.1m8.25-13.7,2.75,3.75,3.85-2.8L24.6,39.9l-3.75,2.8M0,35,60,0l60,35v70L60,140,0,105V35M59.5,16.6l-.85,7,7.15.8.8-7-7.1-.8M110.15,58,109,53.6l-4.4,1.2,1.2,4.45,4.4-1.25m-55-34.75L50.8,24l.7,4.35,4.35-.7-.7-4.35m-18,25.1L34.6,45.1l-3.25,2.6L34,51l3.2-2.6M101.3,60l-3.2-.45-.4,3.15,3.15.4.45-3.1m2.9,1.5-.75,6.6,6.55.75.75-6.55-6.55-.8M88.45,77.3l-1.2,3,2.9,1.2,1.25-2.9-3-1.25M89.7,86l0,4.55H94.3V86H89.7m14.6,19.25-1-7-7.1,1.1,1,7,7.1-1.1M76.85,97.6,83,100l2.45-6.1L79.3,91.45,76.85,97.6M41.7,95,35.1,91.4l-3.55,6.7,6.55,3.5L41.7,95m2.1,9.8-1,2,1.9,1,1.15-2-2-1M30,107.7l1.25-4.45L26.65,102l-1.2,4.55,4.5,1.2M27.4,96.4l1-4.05-4-.95-1,4,4,1m83.35-.55-1.75-4-4,1.85,1.75,4,4-1.85"/><path class="cls-2" d="M20.85,42.7l3.75-2.8,2.85,3.75-3.85,2.8L20.85,42.7M12.6,56.4l-.85-2.1,2-.9.85,2.05-2,.95M110.15,58l-4.4,1.25-1.2-4.45,4.4-1.2,1.2,4.4M59.5,16.6l7.1.8-.8,7.05-7.15-.8.85-7M37.15,48.35,34,51l-2.6-3.25,3.25-2.6,2.55,3.25m67.05,13.1,6.55.8L110,68.8l-6.55-.75.75-6.6M76.85,97.6l2.45-6.15,6.15,2.45L83,100l-6.15-2.4m27.45,7.6-7.1,1.1-1-7,7.1-1.1,1,7M89.7,86h4.6V90.5H89.75l0-4.55M27.4,96.4l-4-1,1-4,4,.95-1,4.05M30,107.7l-4.5-1.2,1.2-4.55,4.55,1.3L30,107.7m13.85-3,2,1-1.15,2-1.9-1,1-2"/><path class="cls-3" d="M20.65,52.9l6.8-3,3.05,6.9-6.85,3-3-6.9m34.5-29.65.7,4.35-4.35.7L50.8,24l4.35-.7M101.3,60l-.45,3.1-3.15-.4.4-3.15,3.2.45M88.45,77.3l3,1.25-1.25,2.9-2.9-1.2,1.2-3M41.7,95l-3.6,6.65-6.55-3.5,3.55-6.7L41.7,95m69.05.9-4,1.85-1.75-4,4-1.85,1.75,4"/><path class="cls-4" d="M70.8,51l1.55-.75,1.15-1a6.89,6.89,0,0,0,2.1-4.75v-3l-.2-4.85-.25-3.1-.25-2.25-1.1-6-.3-1.2L73,22.3q-1.69-5.4-4-6.05l-.65-.1-.65.1q-2.25.64-3.9,6.05l-.55,1.75-.3,1.2-1.1,6-.25,2.25-.25,3.1-.2,4.85v3a6.89,6.89,0,0,0,2.1,4.75l1.3,1,1.45.7V52.7a2.24,2.24,0,0,0,.65,1.65,2.3,2.3,0,0,0,1.7.7h0A2.39,2.39,0,0,0,70.8,52.7V51m-8.5,0-.4-.35a8.75,8.75,0,0,1-2.7-6.1v-1.4a76,76,0,0,1,2-19l.15-.6a24.11,24.11,0,0,1,2.45-6.35q2-3.3,4.55-3c1.73-.17,3.27.87,4.6,3.1a26.43,26.43,0,0,1,2.45,6.3l.15.5a79,79,0,0,1,2,19.1v1.4A8.83,8.83,0,0,1,75,50.65l-.3.3-1.85,1.3v.45a4.07,4.07,0,0,1-1.2,3l-.15.15a4.07,4.07,0,0,1-3,1.2h0a4.27,4.27,0,0,1-4.35-4.35v-.45L62.3,51"/><path class="cls-5" d="M73.8,25.25l1.1,6-.05.05-1.35.85-1.15.5L70.8,33l-2.4.2L66.05,33l-1.45-.35-1.3-.5A6,6,0,0,1,62,31.3l-.1-.05,1.1-6,.3.1.25.1,1,.25,1.45.2,2.35.1,2.4-.1,1.55-.25,1-.2.2-.1.3-.1M75.4,36.6l.2,4.85v.7a4.92,4.92,0,0,1-2.1,3.75l-1.15.8-1.55.6-2.4.3-2.35-.3-1.45-.55a6.61,6.61,0,0,1-1.3-.85,4.92,4.92,0,0,1-2.1-3.75v-.7l.2-4.85a4.25,4.25,0,0,0,1.9,1.95l1.3.65,1.45.4,2.35.25,2.4-.25,1.55-.45,1.15-.6a4.25,4.25,0,0,0,1.9-1.95"/><path class="cls-6" d="M75.4,36.6a4.25,4.25,0,0,1-1.9,1.95l-1.15.6-1.55.45-2.4.25-2.35-.25-1.45-.4-1.3-.65a4.25,4.25,0,0,1-1.9-1.95l.25-3.1.25-2.25.1.05a6,6,0,0,0,1.3.85l1.3.5,1.45.35,2.35.2,2.4-.2,1.55-.35,1.15-.5,1.35-.85.05-.05.25,2.25.25,3.1M63,25.25l.3-1.2.55-1.75q1.65-5.4,3.9-6.05l.65-.1.65.1q2.25.64,4,6.05l.5,1.75.3,1.2-.3.1-.2.1-1,.2-1.55.25-2.4.1-2.35-.1-1.45-.2-1-.25-.25-.1-.3-.1m12.6,16.9v2.3a6.89,6.89,0,0,1-2.1,4.75l-1.15,1L70.8,51l-2.4.35L66.05,51l-1.45-.7-1.3-1a6.89,6.89,0,0,1-2.1-4.75v-2.3a4.92,4.92,0,0,0,2.1,3.75,6.61,6.61,0,0,0,1.3.85l1.45.55,2.35.3,2.4-.3,1.55-.6,1.15-.8a4.92,4.92,0,0,0,2.1-3.75"/><path class="cls-7" d="M74.65,51l.7.3q2.81,1.5,2.8,3.6t-2.8,3.55a14.23,14.23,0,0,1-6.8,1.5,14.23,14.23,0,0,1-6.8-1.5q-2.8-1.45-2.8-3.55t2.8-3.6L62.3,51l1.75,1.25v.45a4.27,4.27,0,0,0,4.35,4.35h0a4.07,4.07,0,0,0,3-1.2l.15-.15a4.07,4.07,0,0,0,1.2-3v-.45L74.65,51"/><path class="cls-1" d="M70.8,51V52.7a2.39,2.39,0,0,1-2.35,2.35h0a2.3,2.3,0,0,1-1.7-.7,2.24,2.24,0,0,1-.65-1.65V51l2.35.35L70.8,51"/><path class="cls-4" d="M38.1,47.55l1.75-1.1.2-.15a4.53,4.53,0,0,0,1.15-2.95V42.5A49.92,49.92,0,0,0,39.85,30q-1.4-5.14-3.35-5.15T33.2,30a48.37,48.37,0,0,0-1.4,12.5v.85a4.3,4.3,0,0,0,1.25,2.95l.15.15A4.34,4.34,0,0,0,35,47.55V48.7a1.54,1.54,0,0,0,1.55,1.55h0a1.35,1.35,0,0,0,1.05-.45,1.44,1.44,0,0,0,.5-1.1V47.55m-6.8-.25a6,6,0,0,1-1.5-3.9v-.9a48.75,48.75,0,0,1,1.5-13q1.85-7.09,5.2-6.65,3.34-.5,5.3,6.65a52.21,52.21,0,0,1,1.4,13v.9a6.53,6.53,0,0,1-1.4,4l-.5.55h0l-1.15.9a3.21,3.21,0,0,1-1,2.35L39,51.3a3.51,3.51,0,0,1-2.4,1h0a3.38,3.38,0,0,1-2.5-1,3.48,3.48,0,0,1-1-2.45l-1.15-.9h.05l-.55-.6"/><path class="cls-6" d="M35,47.55a4.34,4.34,0,0,1-1.75-1.1l-.15-.15a4.3,4.3,0,0,1-1.25-2.95V42.5A48.37,48.37,0,0,1,33.2,30q1.35-5.14,3.3-5.15T39.85,30A49.92,49.92,0,0,1,41.2,42.5v.85a4.53,4.53,0,0,1-1.15,2.95l-.2.15-1.75,1.1-1.6.25L35,47.55"/><path class="cls-1" d="M35,47.55l1.55.25,1.6-.25V48.7a1.44,1.44,0,0,1-.5,1.1,1.35,1.35,0,0,1-1.05.45h0A1.54,1.54,0,0,1,35,48.7V47.55"/><path class="cls-7" d="M41.8,47.35a3.36,3.36,0,0,1,1.5,2.7,3.72,3.72,0,0,1-2,3.1,8.34,8.34,0,0,1-4.75,1.3,8.57,8.57,0,0,1-4.8-1.3,3.72,3.72,0,0,1-1.95-3.1,3.48,3.48,0,0,1,1.5-2.75l.55.6H31.8l1.15.9a3.48,3.48,0,0,0,1,2.45,3.38,3.38,0,0,0,2.5,1h0a3.51,3.51,0,0,0,2.4-1l.15-.15a3.21,3.21,0,0,0,1-2.35l1.15-.9h0l.5-.55"/><path class="cls-4" d="M80.6,64a5.1,5.1,0,0,0,1.75-1.1l.2-.15a4.53,4.53,0,0,0,1.15-3V58.9a49.92,49.92,0,0,0-1.35-12.5Q81,41.26,79,41.25T75.7,46.4a48.37,48.37,0,0,0-1.4,12.5v.85a4.3,4.3,0,0,0,1.25,3l.15.15A4.34,4.34,0,0,0,77.45,64V65.1A1.54,1.54,0,0,0,79,66.65h0a1.35,1.35,0,0,0,1-.45,1.44,1.44,0,0,0,.5-1.1V64m-6.8-.25a6,6,0,0,1-1.5-3.9v-.9a48.75,48.75,0,0,1,1.5-13q1.85-7.09,5.2-6.65,3.34-.49,5.3,6.65a52.21,52.21,0,0,1,1.4,13v.9a6.53,6.53,0,0,1-1.4,4l-.5.55h0l-1.15.9a3.21,3.21,0,0,1-1,2.35l-.15.15a3.51,3.51,0,0,1-2.4,1h0a3.38,3.38,0,0,1-2.5-1,3.48,3.48,0,0,1-1-2.45l-1.15-.9h0l-.55-.6"/><path class="cls-6" d="M77.45,64a4.34,4.34,0,0,1-1.75-1.1l-.15-.15a4.3,4.3,0,0,1-1.25-3V58.9a48.37,48.37,0,0,1,1.4-12.5Q77,41.26,79,41.25t3.35,5.15A49.92,49.92,0,0,1,83.7,58.9v.85a4.53,4.53,0,0,1-1.15,3l-.2.15A5.1,5.1,0,0,1,80.6,64L79,64.2,77.45,64"/><path class="cls-7" d="M84.3,63.75a3.36,3.36,0,0,1,1.5,2.7,3.72,3.72,0,0,1-2,3.1,8.34,8.34,0,0,1-4.75,1.3,8.57,8.57,0,0,1-4.8-1.3,3.72,3.72,0,0,1-2-3.1,3.48,3.48,0,0,1,1.5-2.75l.55.6h0l1.15.9a3.48,3.48,0,0,0,1,2.45,3.38,3.38,0,0,0,2.5,1h0a3.51,3.51,0,0,0,2.4-1l.15-.15a3.21,3.21,0,0,0,1-2.35l1.15-.9h0l.5-.55"/><path class="cls-1" d="M80.6,64V65.1a1.44,1.44,0,0,1-.5,1.1,1.35,1.35,0,0,1-1,.45h0a1.54,1.54,0,0,1-1.55-1.55V64L79,64.2,80.6,64"/><path class="cls-4" d="M88.5,109.15a5.1,5.1,0,0,0,1.75-1.1l.2-.15a4.53,4.53,0,0,0,1.15-3v-.85a49.92,49.92,0,0,0-1.35-12.5q-1.4-5.14-3.35-5.15T83.6,91.6a48.37,48.37,0,0,0-1.4,12.5V105a4.3,4.3,0,0,0,1.25,3l.15.15a4.34,4.34,0,0,0,1.75,1.1v1.15a1.54,1.54,0,0,0,1.55,1.55h0a1.35,1.35,0,0,0,1-.45,1.44,1.44,0,0,0,.5-1.1v-1.15m3.7-.2-.5.55h0l-1.15.9a3.21,3.21,0,0,1-1,2.35l-.15.15a3.51,3.51,0,0,1-2.4.95h0a3.38,3.38,0,0,1-2.5-1,3.48,3.48,0,0,1-1.05-2.45l-1.15-.9h0l-.55-.6a6,6,0,0,1-1.5-3.9v-.9a48.75,48.75,0,0,1,1.5-13q1.85-7.09,5.2-6.65,3.34-.49,5.3,6.65a52.21,52.21,0,0,1,1.4,13v.9a6.53,6.53,0,0,1-1.4,4"/><path class="cls-6" d="M85.35,109.15a4.34,4.34,0,0,1-1.75-1.1l-.15-.15a4.3,4.3,0,0,1-1.25-3v-.85a48.37,48.37,0,0,1,1.4-12.5q1.35-5.14,3.3-5.15t3.35,5.15a49.92,49.92,0,0,1,1.35,12.5V105a4.53,4.53,0,0,1-1.15,3l-.2.15a5.1,5.1,0,0,1-1.75,1.1l-1.6.25-1.55-.25"/><path class="cls-7" d="M81.7,108.9l.55.6h0l1.15.9a3.48,3.48,0,0,0,1.05,2.45,3.38,3.38,0,0,0,2.5,1h0a3.51,3.51,0,0,0,2.4-.95l.15-.15a3.21,3.21,0,0,0,1-2.35l1.15-.9h0l.5-.55a3.36,3.36,0,0,1,1.5,2.7,3.72,3.72,0,0,1-2,3.1,8.34,8.34,0,0,1-4.75,1.3,8.57,8.57,0,0,1-4.8-1.3,3.72,3.72,0,0,1-2-3.1,3.48,3.48,0,0,1,1.5-2.75"/><path class="cls-1" d="M88.5,109.15v1.15a1.44,1.44,0,0,1-.5,1.1,1.35,1.35,0,0,1-1,.45h0a1.54,1.54,0,0,1-1.55-1.55v-1.15l1.55.25,1.6-.25"/><path class="cls-4" d="M21.55,96.1l1.55-.75,1.15-1a6.89,6.89,0,0,0,2.1-4.75v-3l-.2-4.85-.25-3.1-.25-2.25-1.1-6-.3-1.2-.5-1.75q-1.7-5.4-3.95-6.05l-.65-.1-.65.1q-2.25.65-3.9,6.05l-.55,1.75-.3,1.2-1.1,6-.25,2.25-.25,3.1L12,86.6v3a6.89,6.89,0,0,0,2.1,4.75l1.3,1.05,1.45.7v1.75a2.24,2.24,0,0,0,.65,1.65,2.3,2.3,0,0,0,1.7.7h.05a2.39,2.39,0,0,0,2.35-2.35V96.1m-8.5.05-.4-.35A8.75,8.75,0,0,1,10,89.7V88.3A76,76,0,0,1,12,69.3l.15-.6a24.11,24.11,0,0,1,2.45-6.35q2-3.3,4.55-3.05c1.73-.17,3.27.87,4.6,3.1a26.43,26.43,0,0,1,2.45,6.3l.15.5a79,79,0,0,1,2,19.1v1.4a8.83,8.83,0,0,1-2.65,6.1l-.3.3-1.85,1.3v.45a4.07,4.07,0,0,1-1.2,3l-.15.15a4.07,4.07,0,0,1-3,1.2h-.05a4.27,4.27,0,0,1-4.35-4.35V97.4l-1.75-1.25"/><path class="cls-6" d="M13.75,70.4l.3-1.2.55-1.75q1.65-5.4,3.9-6.05l.65-.1.65.1q2.25.65,3.95,6.05l.5,1.75.3,1.2-.3.1-.2.1-.95.2-1.55.25-2.4.1-2.35-.1-1.45-.2-1-.25-.25-.1-.3-.1m11.9,6,.25,2.25.25,3.1a4.25,4.25,0,0,1-1.9,2l-1.15.6-1.55.45-2.4.25-2.35-.25-1.45-.4a5.85,5.85,0,0,1-1.3-.65,4.25,4.25,0,0,1-1.9-2l.25-3.1.25-2.25.1,0,1.3.85,1.3.5,1.45.35,2.35.2,2.4-.2,1.55-.35,1.15-.5,1.35-.85,0,0m.7,10.9v2.3a6.89,6.89,0,0,1-2.1,4.75l-1.15,1-1.55.75-2.4.35L16.8,96.1l-1.45-.7-1.3-1.05A6.89,6.89,0,0,1,12,89.6V87.3a4.92,4.92,0,0,0,2.1,3.75,6.61,6.61,0,0,0,1.3.85l1.45.55,2.35.3,2.4-.3,1.55-.6,1.15-.8a4.92,4.92,0,0,0,2.1-3.75"/><path class="cls-5" d="M26.35,87.3a4.92,4.92,0,0,1-2.1,3.75l-1.15.8-1.55.6-2.4.3-2.35-.3-1.45-.55a6.61,6.61,0,0,1-1.3-.85A4.92,4.92,0,0,1,12,87.3v-.7l.2-4.85a4.25,4.25,0,0,0,1.9,2,5.85,5.85,0,0,0,1.3.65l1.45.4,2.35.25,2.4-.25,1.55-.45,1.15-.6a4.25,4.25,0,0,0,1.9-2l.2,4.85v.7m-1.8-16.9,1.1,6,0,0-1.35.85-1.15.5-1.55.35-2.4.2-2.35-.2-1.45-.35-1.3-.5-1.3-.85-.1,0,1.1-6,.3.1.25.1,1,.25,1.45.2,2.35.1,2.4-.1,1.55-.25.95-.2.2-.1.3-.1"/><path class="cls-7" d="M25.4,96.1l.7.3q2.8,1.5,2.8,3.6t-2.8,3.55a14.23,14.23,0,0,1-6.8,1.5,14.23,14.23,0,0,1-6.8-1.5Q9.7,102.1,9.7,100t2.8-3.6l.55-.25L14.8,97.4v.45a4.27,4.27,0,0,0,4.35,4.35h.05a4.07,4.07,0,0,0,3-1.2l.15-.15a4.07,4.07,0,0,0,1.2-3V97.4l1.85-1.3"/><path class="cls-1" d="M21.55,96.1v1.75a2.39,2.39,0,0,1-2.35,2.35h-.05a2.3,2.3,0,0,1-1.7-.7,2.24,2.24,0,0,1-.65-1.65V96.1l2.35.35,2.4-.35"/><path class="cls-7" d="M34.2,106.45a3.36,3.36,0,0,1,1.5,2.7,3.72,3.72,0,0,1-2,3.1,8.34,8.34,0,0,1-4.75,1.3,8.57,8.57,0,0,1-4.8-1.3,3.72,3.72,0,0,1-1.95-3.1,3.48,3.48,0,0,1,1.5-2.75l.55.6H24.2l1.15.9a3.48,3.48,0,0,0,1,2.45,3.38,3.38,0,0,0,2.5,1H29a3.51,3.51,0,0,0,2.4-.95l.15-.15a3.21,3.21,0,0,0,1-2.35l1.15-.9h.05l.5-.55"/><path class="cls-4" d="M34.2,106.45l-.5.55h-.05l-1.15.9a3.21,3.21,0,0,1-1,2.35l-.15.15a3.51,3.51,0,0,1-2.4.95H28.9a3.38,3.38,0,0,1-2.5-1,3.48,3.48,0,0,1-1-2.45L24.2,107h.05l-.55-.6a6,6,0,0,1-1.5-3.9v-.9a48.75,48.75,0,0,1,1.5-13q1.85-7.09,5.2-6.65,3.34-.49,5.3,6.65a52.21,52.21,0,0,1,1.4,13v.9a6.53,6.53,0,0,1-1.4,4m-3.7.2a5.1,5.1,0,0,0,1.75-1.1l.2-.15a4.53,4.53,0,0,0,1.15-3v-.85a49.92,49.92,0,0,0-1.35-12.5Q30.86,84,28.9,84T25.6,89.1a48.37,48.37,0,0,0-1.4,12.5v.85a4.3,4.3,0,0,0,1.25,3l.15.15a4.34,4.34,0,0,0,1.75,1.1v1.15a1.54,1.54,0,0,0,1.55,1.55H29L30,108.9a1.44,1.44,0,0,0,.5-1.1v-1.15"/><path class="cls-6" d="M30.5,106.65l-1.6.25-1.55-.25a4.34,4.34,0,0,1-1.75-1.1l-.15-.15a4.3,4.3,0,0,1-1.25-3v-.85a48.37,48.37,0,0,1,1.4-12.5Q27,84,28.9,84t3.35,5.15a49.92,49.92,0,0,1,1.35,12.5v.85a4.53,4.53,0,0,1-1.15,3l-.2.15a5.1,5.1,0,0,1-1.75,1.1"/><path class="cls-1" d="M30.5,106.65v1.15a1.44,1.44,0,0,1-.5,1.1l-1.05.45H28.9a1.54,1.54,0,0,1-1.55-1.55v-1.15l1.55.25,1.6-.25"/><path class="cls-4" d="M103.3,78.7l1.55-.75L106,77a6.89,6.89,0,0,0,2.1-4.75v-3l-.2-4.85-.25-3.1L107.4,59l-1.1-6-.3-1.2-.5-1.75q-1.69-5.4-4-6l-.65-.1-.65.1q-2.25.64-3.9,6L95.8,51.8,95.5,53l-1.1,6-.25,2.25-.25,3.1-.2,4.85v3A6.89,6.89,0,0,0,95.8,77l1.3,1,1.45.7v1.75a2.24,2.24,0,0,0,.65,1.65,2.3,2.3,0,0,0,1.7.7h0a2.39,2.39,0,0,0,2.35-2.35V78.7m-8.5,0-.4-.35a8.75,8.75,0,0,1-2.7-6.1V70.9a76,76,0,0,1,2-19l.15-.6A24.11,24.11,0,0,1,96.35,45q2-3.3,4.55-3.05c1.73-.17,3.27.87,4.6,3.1A26.43,26.43,0,0,1,108,51.3l.15.5a79,79,0,0,1,2,19.1v1.4a8.83,8.83,0,0,1-2.65,6.1l-.3.3L105.3,80v.45a4.07,4.07,0,0,1-1.2,3l-.15.15a4.07,4.07,0,0,1-3,1.2h0a4.27,4.27,0,0,1-4.35-4.35V80L94.8,78.75"/><path class="cls-6" d="M106.3,53l-.3.1-.2.1-1,.2-1.55.25-2.4.1-2.35-.1-1.45-.2-1-.25-.25-.1-.3-.1.3-1.2.55-1.75q1.65-5.4,3.9-6l.65-.1.65.1q2.25.64,4,6l.5,1.75.3,1.2M94.4,59l.1,0,1.3.85,1.3.5,1.45.35,2.35.2,2.4-.2,1.55-.35,1.15-.5,1.35-.85.05,0,.25,2.25.25,3.1a4.25,4.25,0,0,1-1.9,2l-1.15.6-1.55.45-2.4.25-2.35-.25L97.1,67l-1.3-.65a4.25,4.25,0,0,1-1.9-2l.25-3.1L94.4,59m13.7,10.9v2.3A6.89,6.89,0,0,1,106,77l-1.15,1-1.55.75-2.4.35-2.35-.35L97.1,78l-1.3-1a6.89,6.89,0,0,1-2.1-4.75V69.9a4.92,4.92,0,0,0,2.1,3.75l1.3.85,1.45.55,2.35.3,2.4-.3,1.55-.6,1.15-.8a4.92,4.92,0,0,0,2.1-3.75"/><path class="cls-5" d="M106.3,53l1.1,6-.05,0L106,59.9l-1.15.5-1.55.35-2.4.2-2.35-.2L97.1,60.4l-1.3-.5-1.3-.85-.1,0,1.1-6,.3.1.25.1,1,.25,1.45.2,2.35.1,2.4-.1,1.55-.25,1-.2.2-.1.3-.1m1.6,11.35.2,4.85v.7a4.92,4.92,0,0,1-2.1,3.75l-1.15.8-1.55.6-2.4.3-2.35-.3L97.1,74.5l-1.3-.85a4.92,4.92,0,0,1-2.1-3.75v-.7l.2-4.85a4.25,4.25,0,0,0,1.9,2l1.3.65,1.45.4,2.35.25,2.4-.25,1.55-.45,1.15-.6a4.25,4.25,0,0,0,1.9-2"/><path class="cls-7" d="M107.15,78.7a3.51,3.51,0,0,1,.7.3q2.81,1.5,2.8,3.6t-2.8,3.55a16.16,16.16,0,0,1-13.6,0q-2.81-1.45-2.8-3.55t2.8-3.6l.55-.25L96.55,80v.45a4.27,4.27,0,0,0,4.35,4.35h0a4.07,4.07,0,0,0,3-1.2l.15-.15a4.07,4.07,0,0,0,1.2-3V80l1.85-1.3"/><path class="cls-1" d="M103.3,78.7v1.75A2.39,2.39,0,0,1,101,82.8h0a2.3,2.3,0,0,1-1.7-.7,2.24,2.24,0,0,1-.65-1.65V78.7l2.35.35,2.4-.35"/></g></g></svg>