<svg xmlns="http://www.w3.org/2000/svg" viewBox="0 0 120 140"><defs><style>.cls-1{fill:#bb8044;}.cls-2{fill:#c68a4e;}.cls-3{fill:#aa753e;}.cls-4{fill:#a4afaf;}.cls-5{fill:#5a6b6b;}.cls-6{fill:#879393;}.cls-7{fill:#b5c2c2;}.cls-8{fill:#146236;}.cls-9{fill:#219853;}.cls-10{fill:#1f914f;}.cls-11{fill:#27ae60;}.cls-12{fill:#b9c6c6;}.cls-13{fill:#727979;}.cls-14{fill:#d5e5e5;}.cls-15{fill:#688795;}.cls-16{fill:#d9d9d9;}.cls-17{fill:#a6b1b1;}.cls-18{fill:#4f5454;}.cls-19{fill:#636969;}.cls-20{fill:#8c9595;}.cls-21{fill:#798080;}.cls-22{fill:#353535;}.cls-23{fill:#197e44;}.cls-24{fill:#464646;}.cls-25{fill:#2abf69;}.cls-26{fill:#4d4d4d;}</style></defs><title>Asset 97</title><g id="Layer_2" data-name="Layer 2"><g id="Layer_1-2" data-name="Layer 1"><path class="cls-1" d="M65.8,24.45l.8-7-7.1-.8-.85,7,7.15.8m-15-.5.7,4.35,4.35-.7-.7-4.35L50.8,24M109,53.6l-4.4,1.2,1.2,4.45,4.4-1.25L109,53.6M120,35v70L60,140,0,105V35L60,0l60,35M34,51l3.2-2.6L34.6,45.1l-3.25,2.6L34,51m-6.5-7.3L24.6,39.9l-3.75,2.8,2.75,3.75,3.85-2.8M13.75,53.4l-2,.9.85,2.1,2-.95-.85-2.05m13.7-3.5-6.8,3,3,6.9,6.85-3-3.05-6.9m3.75,53.35L26.65,102l-1.2,4.55,4.5,1.2,1.25-4.45M27.4,96.4l1-4.05-4-.95-1,4,4,1m10.7,5.2L41.7,95,35.1,91.4l-3.55,6.7,6.55,3.5M110,68.8l.75-6.55-6.55-.8-.75,6.6,6.55.75M91.4,78.55l-3-1.25-1.2,3,2.9,1.2,1.25-2.9m9.45-15.5.45-3.1-3.2-.45-.4,3.15,3.15.4m2.4,35.15-7.1,1.1,1,7,7.1-1.1-1-7m-9-7.7V86H89.7l0,4.55H94.3m12.45,7.2,4-1.85-1.75-4-4,1.85,1.75,4m-60.95,8-2-1-1,2,1.9,1,1.15-2M76.85,97.6,83,100l2.45-6.1L79.3,91.45,76.85,97.6"/><path class="cls-2" d="M50.8,24l4.35-.7.7,4.35-4.35.7L50.8,24m-23.35,26,3.05,6.9-6.85,3-3-6.9,6.8-3M38.1,101.6l-6.55-3.5,3.55-6.7L41.7,95l-3.6,6.65m62.75-38.55-3.15-.4.4-3.15,3.2.45-.45,3.1M91.4,78.55l-1.25,2.9-2.9-1.2,1.2-3,3,1.25M106.75,97.7l-1.75-4,4-1.85,1.75,4-4,1.85"/><path class="cls-3" d="M65.8,24.45l-7.15-.8.85-7,7.1.8-.8,7.05M109,53.6l1.2,4.4-4.4,1.25-1.2-4.45,4.4-1.2m-95.2-.2.85,2.05-2,.95-.85-2.1,2-.9m13.7-9.75-3.85,2.8L20.85,42.7l3.75-2.8,2.85,3.75M34,51l-2.6-3.25,3.25-2.6,2.55,3.25L34,51M27.4,96.4l-4-1,1-4,4,.95-1,4.05m3.8,6.85L30,107.7l-4.5-1.2,1.2-4.55,4.55,1.3M110,68.8l-6.55-.75.75-6.6,6.55.8L110,68.8M94.3,90.5H89.75l0-4.55h4.6V90.5m9,7.7,1,7-7.1,1.1-1-7,7.1-1.1m-26.4-.6,2.45-6.15,6.15,2.45L83,100l-6.15-2.4m-31,8.15-1.15,2-1.9-1,1-2,2,1"/><path class="cls-4" d="M60,8a5.63,5.63,0,0,0-3,.85l-48,28A5.55,5.55,0,0,0,6.85,39,5.63,5.63,0,0,0,6,42V76.75l7.25-6.3,13.75,6L6,96.8v1.25a5.57,5.57,0,0,0,.85,3A5.9,5.9,0,0,0,9,103.2l7.25,4.25L42.5,84.7l13.75,6-25.8,25L57,131.2a6,6,0,0,0,3,.8,6.26,6.26,0,0,0,3-.8l48-28h0a6.35,6.35,0,0,0,2.2-2.2,5.89,5.89,0,0,0,.8-3V42a5.83,5.83,0,0,0-3-5.15h0l-48-28A5.91,5.91,0,0,0,60,8m60,27v70L60,140,0,105V35L60,0l60,35"/><path class="cls-5" d="M73.15,14.7l.85-.2,10.45.25.9.25.7.6,4.85,6.85.35.85,2.5,15L98.2,50.8l.1,1-.45,1L88.3,64.15l-.7.55-.9.15-18-.5-.9-.2-.65-.65L58.7,51.6l-.35-.85a1.54,1.54,0,0,1,.1-1L63,37.4l.3-.6,3.25-3.95,2.75-13.5a2,2,0,0,1,.45-.9l2.75-3.25.7-.5m-4.8,19.05-3.55,4.3-4.5,12.4,8.4,11.9,18,.5,9.55-11.4-4.5-12.7L89.25,23.6,84.4,16.75,74,16.5,71.2,19.75l-2.85,14"/><path class="cls-4" d="M68.35,33.75l9.6,8.6.65-16-7.4-6.65L74,16.5l10.45.25,4.85,6.85L86.5,26.85,88.25,43.1l-3.6,4.2-13.6-.4L64.8,38.05l3.55-4.3"/><path class="cls-6" d="M68.35,33.75l2.85-14,7.4,6.65-.65,16-9.6-8.6m-3.55,4.3,6.25,8.85L68.7,62.35l-8.4-11.9,4.5-12.4M84.65,47.3l3.6-4.2L86.5,26.85l2.75-3.25L91.8,38.75l4.5,12.7-9.55,11.4L84.65,47.3"/><path class="cls-7" d="M84.65,47.3l2.1,15.55-18-.5L71.05,46.9l13.6.4"/><path class="cls-8" d="M51.35,25.2a24.34,24.34,0,0,1,8.9,13.5l.4,1.6.05.4v9.4a2,2,0,0,1-.45,1.3L34.8,81.5a2.11,2.11,0,0,1-1.1.65L32.4,82,6,69.65,5.2,69a1.89,1.89,0,0,1-.35-1.1v-9.4l.05-.4L5,57.7l1.75-4.4.35-.55,25.45-30.1.85-.6a17.78,17.78,0,0,1,13.7.6,25.31,25.31,0,0,1,4.25,2.55m2.9,30.15L58.7,50.1V40.55A22.84,22.84,0,0,0,50.15,26.8Q42.4,21.06,34.05,24l-4.5,5.3-1.75,2.1-9.7,11.5-1.7,2-7.8,9.2-1.75,4.4v9.4l5.8,2.7,15,7,5.65,2.6,7.6-9L42.75,69l9.6-11.3,1.9-2.3"/><path class="cls-9" d="M54.25,55.35V45.9A22.84,22.84,0,0,0,45.7,32.15q-7.76-5.74-16.15-2.9l4.5-5.3q8.36-2.89,16.1,2.85A22.84,22.84,0,0,1,58.7,40.55V50.1l-4.45,5.25m-1.9,2.3L42.75,69v-9.5A22.84,22.84,0,0,0,34.2,45.7Q26.45,40,18.1,42.85l9.7-11.5q8.25-2.8,15.9,2.9A22.84,22.84,0,0,1,52.25,48v.15l.1,9.5M40.85,71.2l-7.6,9V70.8L32,66.65l-1.35-2.9A21.64,21.64,0,0,0,24.7,56.9a22.69,22.69,0,0,0-4.4-2.55l-.3-.2-3.3-.85a15.6,15.6,0,0,0-7.4.5l-.7.25,7.8-9.2q8.15-2.7,15.8,2.95a22.84,22.84,0,0,1,8.55,13.75v.15l.1,9.5"/><path class="cls-10" d="M40.85,71.2l-.1-9.5v-.15A22.84,22.84,0,0,0,32.2,47.8q-7.65-5.65-15.8-2.95l1.7-2Q26.46,40,34.2,45.7a22.84,22.84,0,0,1,8.55,13.75V69l-1.9,2.25m13.4-15.85-1.9,2.3-.1-9.5V48A22.84,22.84,0,0,0,43.7,34.25q-7.65-5.7-15.9-2.9l1.75-2.1q8.4-2.85,16.15,2.9A22.84,22.84,0,0,1,54.25,45.9v9.45"/><path class="cls-11" d="M33.25,80.2,27.6,77.6V71.35l-14.95-7v6.2l-5.8-2.7v-9.4l1.75-4.4.7-.25a15.6,15.6,0,0,1,7.4-.5l3.3.85.3.2a22.69,22.69,0,0,1,4.4,2.55,21.64,21.64,0,0,1,5.95,6.85L32,66.65l1.25,4.15v9.4"/><path class="cls-12" d="M27.6,77.6l-14.95-7v-6.2l15,7V77.6"/><path class="cls-10" d="M83.25,69.35l-1.9,2.3-.1-9.5V62A22.84,22.84,0,0,0,72.7,48.25q-7.65-5.7-15.9-2.9l1.75-2.1Q67,40.4,74.7,46.15A22.84,22.84,0,0,1,83.25,59.9v9.45M71.75,83l-1.9,2.25-.1-9.5v-.15A22.84,22.84,0,0,0,61.2,61.8q-7.65-5.65-15.8-2.95l1.7-2Q55.46,54,63.2,59.7a22.84,22.84,0,0,1,8.55,13.75V83"/><path class="cls-9" d="M71.75,83v-9.5A22.84,22.84,0,0,0,63.2,59.7Q55.45,54,47.1,56.85l9.7-11.5q8.25-2.81,15.9,2.9A22.84,22.84,0,0,1,81.25,62v.15l.1,9.5L71.75,83m-13.2-39.7,4.5-5.3q8.36-2.89,16.1,2.85A22.84,22.84,0,0,1,87.7,54.55V64.1l-4.45,5.25V59.9A22.84,22.84,0,0,0,74.7,46.15q-7.76-5.74-16.15-2.9m11.3,42-7.6,9V84.8L61,80.65l-1.35-2.9A21.64,21.64,0,0,0,53.7,70.9a22.69,22.69,0,0,0-4.4-2.55l-.3-.2-3.3-.85a15.6,15.6,0,0,0-7.4.5l-.7.25,7.8-9.2q8.15-2.7,15.8,2.95a22.84,22.84,0,0,1,8.55,13.75v.15l.1,9.5"/><path class="cls-8" d="M69.85,85.2,71.75,83l9.6-11.3,1.9-2.3L87.7,64.1V54.55A22.84,22.84,0,0,0,79.15,40.8Q71.4,35.06,63.05,38l-4.5,5.3-1.75,2.1-9.7,11.5-1.7,2-7.8,9.2-1.75,4.4v9.4l5.8,2.7,15,7,5.65,2.6,7.6-9m10.5-46a24.34,24.34,0,0,1,8.9,13.5l.4,1.6,0,.4v9.4a2,2,0,0,1-.45,1.3L63.8,95.5l-1.1.65L61.4,96,35,83.65l-.8-.7a1.89,1.89,0,0,1-.35-1.1v-9.4l0-.4.1-.35,1.75-4.4.35-.55,25.45-30.1.85-.6a17.78,17.78,0,0,1,13.7.6,25.31,25.31,0,0,1,4.25,2.55"/><path class="cls-11" d="M62.25,94.2,56.6,91.6V85.35l-15-7v6.2l-5.8-2.7v-9.4l1.75-4.4.7-.25a15.6,15.6,0,0,1,7.4-.5l3.3.85.3.2a22.69,22.69,0,0,1,4.4,2.55,21.64,21.64,0,0,1,5.95,6.85L61,80.65l1.25,4.15v9.4"/><path class="cls-12" d="M56.6,91.6l-15-7v-6.2l15,7V91.6"/><path class="cls-13" d="M60.6,101.15l5.65-6.45a2.11,2.11,0,0,1,1.1-.65l1.25.15,13.5,6.25.85.75.3,1v8.35l-.45,1.3-5.65,6.75-1.1.65-1.3-.15-13.5-6.45-.85-.7a2.09,2.09,0,0,1-.3-1.1v-8.45a1.89,1.89,0,0,1,.5-1.3m20.65,1.1L67.75,96l-5.65,6.45v8.45l1.9.95.45.25,4.1,2.05,7,3.2,5.65-6.75v-8.35"/><path class="cls-14" d="M81.25,102.25,75.6,109l-13.5-6.55L67.75,96l13.5,6.25"/><path class="cls-12" d="M75.6,117.35l-7-3.2V107.9l-4.3-1.9v6l-.25-.1-1.9-.95v-8.45L75.6,109v8.35m-1.9-4v-3l-4-1.9v3l4,1.9"/><path class="cls-15" d="M73.7,113.3l-4-1.9v-3l4,1.9v3m-5.15.85-4.1-2.05-.2-.15v-6l4.3,1.9v6.25"/><path class="cls-16" d="M64.45,112.1l-.45-.25.25.1.2.15"/><path class="cls-17" d="M81.25,102.25v8.35l-5.65,6.75V109l5.65-6.75"/><path class="cls-18" d="M103.85,90.1V87l2-2.35V72.75L102.3,69q-8.74-8-22.55-8.45L77.45,63V74.25a44.31,44.31,0,0,1,8,1.2L84.25,77l-2.45-.2-4.45-.5a2,2,0,0,1-1.9-2V63A1.83,1.83,0,0,1,76,61.65l2.3-2.45.7-.5.85-.15q13.5.45,22.45,7.8a36,36,0,0,1,5.1,5.15,2.05,2.05,0,0,1,.4,1.25V84.6l-.45,1.3-3.5,4.2"/><path class="cls-19" d="M105.8,72.75V84.1l-2,2.35V75.2l2-2.45"/><path class="cls-20" d="M105.8,72.75l-2,2.45-1.55-1.65Q92.55,63.85,77.45,63l2.3-2.45Q93.55,61,102.3,69l3.5,3.75"/><path class="cls-14" d="M84.25,77l1.25-1.5a34.4,34.4,0,0,1,6.2,2,32,32,0,0,1,5,2.75l-2.6,3L84.9,79.05v3.2l9.25,4.45,4.3-5.25,3,2.5-6,7L78.8,83.3,84.25,77"/><path class="cls-21" d="M85.5,75.45a44.31,44.31,0,0,0-8-1.2V63q15.1.86,24.85,10.55l1.55,1.65V86.45L102.3,84.8l-.85-.85-3-2.5-1.7-1.2a32,32,0,0,0-5-2.75,34.4,34.4,0,0,0-6.2-2"/><path class="cls-17" d="M105.8,84.1v.5l-2,2.35L95.5,97.05V91l6-7,.85.85,1.55,1.65,2-2.35m-9-3.85,1.7,1.2-4.3,5.25V83.3l2.6-3"/><path class="cls-12" d="M94.15,83.3v3.4L84.9,82.25v-3.2l9.25,4.25M95.5,91v6.1l-16.7-7.7v-6L95.5,91"/><path class="cls-13" d="M103.85,90.1l-6.8,8.25A2.11,2.11,0,0,1,96,99l-1.25-.1L78,91.2l-.85-.75a1.89,1.89,0,0,1-.35-1.1v-6a1.89,1.89,0,0,1,.5-1.3l4.5-5.25,2.45.2L78.8,83.3v6l16.7,7.7L103.85,87V90.1"/><path class="cls-22" d="M20.8,94.45l1.9.8,1.05,2.3,2.8,1.15v2.15L23,99.4a2,2,0,0,1-1.05-1l-1.1-2.35A1.77,1.77,0,0,1,20.7,95l.1-.5m31.9-3,1.35-1.6.4.45a2.15,2.15,0,0,1,.25,1.2l-.45,4.5-.45,1.1-8.95,10.5a2.11,2.11,0,0,1-1.1.65l-1.25-.1-4.1-1.85-.35-.2v-4l1.15,2.35,4.1,1.85,9-10.5.45-4.35"/><path class="cls-23" d="M52.7,91.5v-.15L49.05,89.7l-.95,1V88.3l-2.35-1.2V85.9L38,82.2l-1.35,1.55-3.25-1.3L22.65,95.2l.05,0-1.9-.8.35-.55L31.9,81.15A1.87,1.87,0,0,1,33,80.5l1.2.1,2,.8.4-.5a2.11,2.11,0,0,1,1.1-.65l1.25.15,7.75,3.7.85.75.3,1.05,1.25.65.8.7.3.75,3.45,1.55.5.35L52.7,91.5m-26.15,9.35V98.7l1.25.5.6-.65v1.6l1.8.9,1.65-1.8,6.2,2.9v4l-.65-.75-.85-1.75-4.15-2-.75.85-1.15.65-.3,0-1.05-.3-1.75-1-.75-.75-.1-.3"/><path class="cls-24" d="M22.7,95.25l-.05,0,.6.3-.55-.25m30-3.9v.15l-2.65,3.15,2.65-3.3"/><path class="cls-25" d="M52.7,91.35l-2.65,3.3-7.9,9.5-4.1-2L48.1,90.7l.95-1,3.65,1.65M22.65,95.2,33.4,82.45l3.25,1.3L38,82.2l7.75,3.7L40.9,91.5,33,87.9v2.45l1.85.8L36,89.7l1.8.85-7.55,8.7v1.8l-1.8-.9v-1.6L29,98l4.35-4.9L29.7,91.35l-1.8,4-1.25,1.6-3.4-1.4-.6-.3m23.1-8.1,2.35,1.2-7.2,8.3L36,94.25l1.55-1.8L40.9,94l4.85-5.7V87.1"/><path class="cls-9" d="M45.75,87.1v1.2L40.9,94l-3.35-1.55L36,94.25l4.9,2.35,7.2-8.3v2.4L38.05,102.15l-6.2-2.9-1.65,1.8v-1.8l7.55-8.7L36,89.7l-1.1,1.45L33,90.35V87.9l7.9,3.6,4.85-5.6v1.2M29,98l-1.1-.55V95.3l1.8-4,3.65,1.75L29,98"/><path class="cls-26" d="M29,98l-.6.55-.6.65-1.25-.5-2.8-1.15-1.05-2.3.55.25,3.4,1.4,1.25-1.6v2.15L29,98m9,4.15,4.1,2,7.9-9.5L52.7,91.5l-.45,4.35-9,10.5-4.1-1.85-1.15-2.35"/></g></g></svg>