<svg xmlns="http://www.w3.org/2000/svg" xmlns:xlink="http://www.w3.org/1999/xlink" viewBox="0 0 120 140"><defs><style>.cls-1{fill:#27ae60;}.cls-2{fill:url(#linear-gradient);}.cls-3{fill:url(#linear-gradient-2);}.cls-4{fill:url(#linear-gradient-3);}.cls-5{fill:url(#linear-gradient-4);}.cls-6{fill:url(#linear-gradient-5);}.cls-7{fill:url(#linear-gradient-6);}.cls-8{fill:url(#linear-gradient-7);}.cls-9{fill:url(#linear-gradient-8);}.cls-10{fill:url(#linear-gradient-9);}.cls-11{fill:url(#linear-gradient-10);}.cls-12{fill:url(#linear-gradient-11);}.cls-13{fill:url(#linear-gradient-12);}.cls-14{fill:url(#linear-gradient-13);}.cls-15{fill:url(#linear-gradient-14);}.cls-16{fill:url(#linear-gradient-15);}.cls-17{fill:#115f32;}.cls-18{fill:#10773c;}.cls-19{fill:#168344;}.cls-20{fill:#1b914d;}.cls-21{fill:#727979;}.cls-22{fill:#b9c6c6;}.cls-23{fill:#99a3a3;}.cls-24{fill:#d5e5e5;}.cls-25{fill:#8c8c8c;}.cls-26{fill:#775029;}.cls-27{fill:#178044;}.cls-28{fill:#136d3a;}.cls-29{fill:#726a59;}.cls-30{fill:#aa9e85;}.cls-31{fill:#936434;}.cls-32{fill:#cbbd9e;}.cls-33{fill:#bb8044;}.cls-34{fill-opacity:0.1;}.cls-35{fill:#ecdcb8;}.cls-36{fill:#917f57;}.cls-37{fill:#c9b179;}.cls-38{fill:#aa9666;}.cls-39{fill:#f0d391;}.cls-40{fill:#ffe09a;}.cls-41{fill:#a8733d;}.cls-42{fill:#855b30;}</style><linearGradient id="linear-gradient" x1="-1989.2" y1="49.53" x2="-350.8" y2="49.53" gradientTransform="matrix(0, 0, 0, 0, 12.18, 43.93)" gradientUnits="userSpaceOnUse"><stop offset="0" stop-color="#27ae60"/><stop offset="1" stop-color="#30c26d"/></linearGradient><linearGradient id="linear-gradient-2" x1="-1989.2" y1="37.67" x2="-350.8" y2="37.67" gradientTransform="matrix(0, 0, 0, 0, 45.68, 31.94)" xlink:href="#linear-gradient"/><linearGradient id="linear-gradient-3" x1="-1989.2" y1="54.17" x2="-350.8" y2="54.17" gradientTransform="matrix(0, 0, 0, 0, 37.97, 49.49)" xlink:href="#linear-gradient"/><linearGradient id="linear-gradient-4" x1="-1989.2" y1="26.2" x2="-350.8" y2="26.2" gradientTransform="matrix(0, 0, 0, 0, 56.87, 21.54)" xlink:href="#linear-gradient"/><linearGradient id="linear-gradient-5" x1="-1989.2" y1="48.03" x2="-350.8" y2="48.03" gradientTransform="matrix(0, 0, 0, 0, 60.83, 42.43)" xlink:href="#linear-gradient"/><linearGradient id="linear-gradient-6" x1="-1989.2" y1="30.38" x2="-350.8" y2="30.38" gradientTransform="matrix(0, 0, 0, 0, 90.87, 25.69)" xlink:href="#linear-gradient"/><linearGradient id="linear-gradient-7" x1="-1989.2" y1="98.08" x2="-350.8" y2="98.08" gradientTransform="matrix(0, 0, 0, 0, 106.37, 93.39)" xlink:href="#linear-gradient"/><linearGradient id="linear-gradient-8" x1="-1989.2" y1="89.17" x2="-350.8" y2="89.17" gradientTransform="matrix(0, 0, 0, 0, 70.47, 84.49)" xlink:href="#linear-gradient"/><linearGradient id="linear-gradient-9" x1="-1989.2" y1="81.92" x2="-350.8" y2="81.92" gradientTransform="matrix(0, 0, 0, 0, 83.97, 77.24)" xlink:href="#linear-gradient"/><linearGradient id="linear-gradient-10" x1="-1989.2" y1="62.42" x2="-350.8" y2="62.42" gradientTransform="matrix(0, 0, 0, 0, 25.52, 57.74)" xlink:href="#linear-gradient"/><linearGradient id="linear-gradient-11" x1="-1989.2" y1="102.17" x2="-350.8" y2="102.17" gradientTransform="matrix(0, 0, 0, 0, 14.43, 96.58)" xlink:href="#linear-gradient"/><linearGradient id="linear-gradient-12" x1="-1989.2" y1="116.92" x2="-350.8" y2="116.92" gradientTransform="matrix(0, 0, 0, 0, 44.68, 111.33)" xlink:href="#linear-gradient"/><linearGradient id="linear-gradient-13" x1="-1989.2" y1="121.33" x2="-350.8" y2="121.33" gradientTransform="matrix(0, 0, 0, 0, 72.28, 115.73)" xlink:href="#linear-gradient"/><linearGradient id="linear-gradient-14" x1="-1989.2" y1="106.58" x2="-350.8" y2="106.58" gradientTransform="matrix(0, 0, 0, 0, 56.68, 100.98)" xlink:href="#linear-gradient"/><linearGradient id="linear-gradient-15" x1="-1989.2" y1="119.17" x2="-350.8" y2="119.17" gradientTransform="matrix(0, 0, 0, 0, 57.87, 114.49)" xlink:href="#linear-gradient"/></defs><title>Asset 129</title><g id="Layer_2" data-name="Layer 2"><g id="Layer_1-2" data-name="Layer 1"><path class="cls-1" d="M9,49.75l-.25.1,0,.1-.05.2v.25h.05l1.45,3.15h6l1.6-1,.15-.15,0-.15,0-.3-.3-.25-1.5-.4,1.2-3.15v-.35l-.05,0-.2-.2h-.35l-2.8,1-2-2.85a.3.3,0,0,0-.25-.15l-.25,0-.25.15-.1.25-.35,3.5L9,49.75M42.7,36.25,44,39.35l-1.55.45-.25.2-.1.35.1.1.1.15,1.6,1.1h6l1.45-3.15.05,0,0-.25-.1-.15,0-.1L51,37.85l-1.65-.3-.4-3.5-.1-.25-.25-.15h-.25l-.25.15-2,2.85-2.85-1H43l-.2.2,0,0v.35M38.7,51l-.15.25-1,3.15-1.35-.55h-.35a.3.3,0,0,0-.25.15v0l-.05.35,1,3.05h4.85l.7-1.8V55.2L41.8,55h-.3l-1.25.4-.85-4.15L39.25,51,39,50.9l-.3.1M58,23.25,57.85,23l-.3-.1-.3.15-.15.25-.8,4.1L55.05,27l-.3.05-.25.2v.45l.7,1.8h4.85l.9-3.1v-.35l-.25-.2h-.35L59,26.4l-1-3.15M59.3,47.9l-1.7.35-.25.1-.05.1,0,.2v.25h0l1.45,3.15h6l1.6-1,.15-.15,0-.15,0-.3-.3-.25-1.5-.4,1.2-3.15v-.35l-.05,0-.2-.2H65.3l-2.8,1-2-2.85a.3.3,0,0,0-.25-.15L60,44l-.25.15-.1.25-.35,3.5M89.4,33.65h4.85l.7-1.8V31.4l-.25-.2h-.3l-1.25.4-.85-4.15-.15-.25-.25-.1-.3.1-.15.25-1,3.15-1.35-.55h-.35a.3.3,0,0,0-.25.15v.05l0,.35,1,3M60,0l60,35v70L60,140,0,105V35L60,0m47.65,94.9-.25-.1-.3.1-.15.25-1,3.15-1.35-.55h-.35a.3.3,0,0,0-.25.15v0a.42.42,0,0,0,0,.35l1,3h4.85l.7-1.8V99.1l-.25-.2h-.3l-1.25.4-.85-4.15-.15-.25m-39.6-5.5,1,3h4.85l.7-1.8V90.2L74.3,90H74l-1.25.4-.85-4.15L71.75,86l-.25-.1-.3.1-.15.25-1,3.15-1.35-.55h-.35L68.1,89v0l0,.35M85,78.65l-.3.1-.15.25-1,3.15L82.2,81.6h-.35l-.25.15v0a.42.42,0,0,0,0,.35l1,3h4.85l.7-1.8V83l-.25-.2h-.3l-1.25.4L85.4,79l-.15-.25-.25-.1M29.6,63.5v0l-.25-.2h-.3l-1.25.4L27,59.5l-.15-.25-.25-.1-.3.1-.15.25-1,3.15-1.35-.55H23.4a.3.3,0,0,0-.25.15v0a.42.42,0,0,0,0,.35l.95,3.05H28.9l.7-1.8v-.4M13.35,98.3l-.1.25-.35,3.5-1.7.35-.25.1,0,.1-.05.2v.25h.05l1.45,3.15h6l1.6-1,.15-.15,0-.15,0-.3-.3-.25-1.5-.4,1.2-3.15v-.35l-.05-.05-.2-.2H18.9l-2.8,1-2-2.85a.3.3,0,0,0-.25-.15l-.25,0-.25.15M43.6,113.05l-.1.25-.35,3.5-1.7.35-.25.1-.05.1,0,.2v.25h0L42.6,121h6l1.6-1,.15-.15,0-.15,0-.3-.3-.25-1.5-.4,1.2-3.15v-.35l0-.05-.2-.2h-.35l-2.8,1-2-2.85L44.1,113l-.25,0-.25.15m33.75,6.5,0,0-.2-.2h-.35l-2.8,1-2-2.85-.25-.15-.25,0-.25.15-.1.25-.35,3.5-1.7.35-.25.1,0,.1,0,.2v.25h0l1.45,3.15h6l1.6-1,.15-.15,0-.15,0-.3-.3-.25-1.5-.4,1.2-3.15v-.35m-15.6-14.4v-.35l0,0-.2-.2h-.35l-2.8,1-2-2.85-.25-.15-.25,0-.25.15-.1.25-.35,3.5-1.7.35-.25.1-.05.1,0,.2v.25h0l1.45,3.15h6l1.6-1,.15-.15,0-.15,0-.3-.3-.25-1.5-.4,1.2-3.15M58.9,115.9l-.3.1-.15.25-1,3.15-1.35-.55h-.35a.3.3,0,0,0-.25.15v0l0,.35.95,3h4.85l.7-1.8v-.45l-.25-.2h-.3l-1.25.4-.85-4.15-.15-.25-.25-.1"/><path class="cls-2" d="M9,49.75l1.7-.35L11,45.9l.1-.25.25-.15.25,0a.3.3,0,0,1,.25.15l2,2.85,2.8-1H17l.2.2.05,0v.35l-1.2,3.15,1.5.4.3.25,0,.3,0,.15-.15.15-1.6,1h-6L8.65,50.4H8.6v-.25l.05-.2,0-.1.25-.1"/><path class="cls-3" d="M42.7,36.25V35.9l0,0,.2-.2h.35l2.85,1,2-2.85.25-.15h.25l.25.15.1.25.4,3.5,1.65.3.25.15,0,.1.1.15,0,.25-.05,0L49.85,41.7h-6l-1.6-1.1-.1-.15-.1-.1.1-.35.25-.2L44,39.35l-1.25-3.1"/><path class="cls-4" d="M38.7,51l.3-.1.25.1.15.25.85,4.15L41.5,55h.3l.25.2v.45l-.7,1.8H36.5l-1-3.05.05-.35v0a.3.3,0,0,1,.25-.15h.35l1.35.55,1-3.15L38.7,51"/><path class="cls-5" d="M58,23.25l1,3.15,1.4-.55h.35l.25.2v.35l-.9,3.1H55.2l-.7-1.8v-.45l.25-.2.3-.05,1.25.4.8-4.1.15-.25.3-.15.3.1.15.25"/><path class="cls-6" d="M59.3,47.9l.35-3.5.1-.25L60,44l.25,0a.3.3,0,0,1,.25.15l2,2.85,2.8-1h.35l.2.2.05,0v.35l-1.2,3.15,1.5.4.3.25,0,.3,0,.15-.15.15-1.6,1h-6L57.3,48.9h0v-.25l0-.2.05-.1.25-.1,1.7-.35"/><path class="cls-7" d="M89.4,33.65l-1-3,0-.35V30.2a.3.3,0,0,1,.25-.15h.35l1.35.55,1-3.15.15-.25.3-.1.25.1.15.25.85,4.15,1.25-.4h.3l.25.2v.45l-.7,1.8H89.4"/><path class="cls-8" d="M107.65,94.9l.15.25.85,4.15,1.25-.4h.3l.25.2v.45l-.7,1.8H104.9l-1-3a.42.42,0,0,1,0-.35v0a.3.3,0,0,1,.25-.15h.35l1.35.55,1-3.15.15-.25.3-.1.25.1"/><path class="cls-9" d="M68.05,89.4l0-.35v0l.25-.15h.35l1.35.55,1-3.15L71.2,86l.3-.1.25.1.15.25.85,4.15L74,90h.3l.25.2v.45l-.7,1.8H69l-1-3"/><path class="cls-10" d="M85,78.65l.25.1.15.25.85,4.15,1.25-.4h.3l.25.2v.45l-.7,1.8H82.5l-1-3a.42.42,0,0,1,0-.35v0l.25-.15h.35l1.35.55,1-3.15.15-.25.3-.1"/><path class="cls-11" d="M29.6,63.5v.4l-.7,1.8H24.05l-.95-3.05a.42.42,0,0,1,0-.35v0a.3.3,0,0,1,.25-.15h.35l1.35.55,1-3.15.15-.25.3-.1.25.1.15.25.85,4.15,1.25-.4h.3l.25.2v0"/><path class="cls-12" d="M13.35,98.3l.25-.15.25,0a.3.3,0,0,1,.25.15l2,2.85,2.8-1h.35l.2.2.05.05v.35l-1.2,3.15,1.5.4.3.25,0,.3,0,.15-.15.15-1.6,1h-6l-1.45-3.15h-.05v-.25l.05-.2,0-.1.25-.1,1.7-.35.35-3.5.1-.25"/><path class="cls-13" d="M43.6,113.05l.25-.15.25,0,.25.15,2,2.85,2.8-1h.35l.2.2,0,.05v.35l-1.2,3.15,1.5.4.3.25,0,.3,0,.15-.15.15-1.6,1h-6l-1.45-3.15h0v-.25l0-.2.05-.1.25-.1,1.7-.35.35-3.5.1-.25"/><path class="cls-14" d="M77.35,119.55v.35l-1.2,3.15,1.5.4.3.25,0,.3,0,.15-.15.15-1.6,1h-6l-1.45-3.15h0V122l0-.2,0-.1.25-.1,1.7-.35.35-3.5.1-.25.25-.15.25,0,.25.15,2,2.85,2.8-1h.35l.2.2,0,0"/><path class="cls-15" d="M61.75,105.15l-1.2,3.15,1.5.4.3.25,0,.3,0,.15-.15.15-1.6,1h-6l-1.45-3.15h0v-.25l0-.2.05-.1.25-.1,1.7-.35.35-3.5.1-.25.25-.15.25,0,.25.15,2,2.85,2.8-1h.35l.2.2,0,0v.35"/><path class="cls-16" d="M58.9,115.9l.25.1.15.25.85,4.15,1.25-.4h.3l.25.2v.45l-.7,1.8H56.4l-.95-3,0-.35v0a.3.3,0,0,1,.25-.15h.35l1.35.55,1-3.15.15-.25.3-.1"/><path class="cls-17" d="M80.75,43l1.75-.7L73.4,22.55,67.3,38l.75,1,.25.3h0l-.2-.3-3,3.4,2,2.75-2.3,3.3,6.8,9.6,1.5-.55,0,0,12.65-5-3.6-4.35,1-.35-1.85-4.95-.4.15M74.1,20.7a2,2,0,0,1,1.15,1.05l9.1,19.75.15,1-.4,1-.4.4,1.2,3.2a1.85,1.85,0,0,1,0,1.35l2.3,2.8a2,2,0,0,1,.45,1.15,2.07,2.07,0,0,1-.3,1.2l-.95.75L72.3,60l-1.3.1-1-.8-6.8-9.6a1.77,1.77,0,0,1-.4-1.15,2,2,0,0,1,.35-1.15l1.5-2.15-1.1-1.6a1.73,1.73,0,0,1-.4-1.25,1.92,1.92,0,0,1,.5-1.2L65.55,39l-.2-.7a1.54,1.54,0,0,1,.1-1l6.1-15.45a1.82,1.82,0,0,1,1-1.1l1.5-.05"/><path class="cls-18" d="M68.3,39.35l4.35,6.15v0L72,52.1l-5-6.9-2-2.75,3-3.4.2.3h0"/><path class="cls-19" d="M68.3,39.35l-.25-.3-.75-1,6.1-15.45L73,46.05l7.75-3,.4-.15L83,47.8l-1,.35L72.35,52l-.8,6.15-6.8-9.6,2.3-3.3,5,6.9.65-6.55v0L68.3,39.35"/><path class="cls-20" d="M71.55,58.1l.8-6.15,9.7-3.8,3.6,4.35L73,57.5l0,0-1.5.55M80.75,43l-7.75,3,.4-23.5L82.5,42.3l-1.75.7"/><path class="cls-21" d="M37.15,26.7l.3,1.05V47.2l1,.4.9.75a1.89,1.89,0,0,1,.35,1.1v8.6a1.89,1.89,0,0,1-.5,1.3l-9,10.4-1.05.65L28,70.3l-7-3.1a2.15,2.15,0,0,1-1.2-1.85v-8.3l.15-.7,2.1-5.5V30.1a1.82,1.82,0,0,1,.5-1.25l4.6-5.5a1.75,1.75,0,0,1,1-.7l1.3.15L36.3,26l.85.75M24,30.1V51.25l-2.25,5.8v8.3l7,3.1,9-10.4v-8.6l-2.3-.9V27.75L28.6,24.6,24,30.1"/><path class="cls-22" d="M24,30.1l7,3.25V54.2l-6.95-3V30.1m4.75,38.35-7-3.1v-8.3l7,3.45v8"/><path class="cls-23" d="M28.75,68.45v-8L31,54.2V33.35l4.5-5.6v20.8l2.3.9v8.6l-9,10.4"/><path class="cls-24" d="M24,30.1l4.6-5.5,6.85,3.15L31,33.35,24,30.1M21.75,57.05,24,51.25l7,3-2.2,6.3-7-3.45M30.4,31.4,33,28.3,29.1,26.55,26.5,29.6l3.9,1.8"/><path class="cls-25" d="M30.4,31.4l-3.9-1.8,2.6-3.05L33,28.3,30.4,31.4"/><path class="cls-17" d="M17.6,68.1v0a1.82,1.82,0,0,1,.5-1.25l27.65-33a1.75,1.75,0,0,1,1.1-.7L61.15,30,62.2,30l.9.6L77.15,46.9,75.8,48.4,63.55,34.2l-2-2.3L59,32.45l-11.75,2.6-27.65,33V69l-2-.85M45.7,81.45l-2.15.9v0l-10.4-12-8,1.65-2-1.65,10.75-2.2L45.05,81l.65.45"/><path class="cls-22" d="M59,32.45l2.55-.55L33.9,64.7l2,2.35L31.7,65.2,59,32.45"/><path class="cls-24" d="M61.55,31.9l2,2.3L35.9,67.05l-2-2.35L61.55,31.9"/><path class="cls-26" d="M77.15,46.9l.2.2a2,2,0,0,1,.45,1.3V64.5l-.45,1.3-3.9,4.6V67.3l2.35-2.8V48.4l1.35-1.5M63.65,82.15l-.1.15-.4.35-.7.3-1.3-.1-7.75-3.6-1.9,2.2V95.7l-.1.65-.45.8L49.4,98.7l-1,.5-1.15,0L45,98.3l-.6-.4-.35-.35a2.15,2.15,0,0,1-.35-1.15V82.5l-.15-.15,2.15-.9v15l2.25.85L49.5,95.7v-15l3.35-4,6.3,2.9L62,81l1.65-2v3.15M20,86.4,18.85,86,18,85.2a1.89,1.89,0,0,1-.35-1.1v-16l2,.85V84.1l2.2.9,1.35-1.55V70.25l2,1.65V83.45a2.07,2.07,0,0,1-.5,1.35L23.3,86.35a2,2,0,0,1-1,.6l-1.25-.1L20,86.4"/><path class="cls-27" d="M63.55,34.2,75.8,48.4,48,81.2,35.9,67.05,63.55,34.2"/><path class="cls-28" d="M19.6,68.05l27.65-33L59,32.45,31.7,65.2,19.6,68.05"/><path class="cls-29" d="M73.45,70.4,72.3,71.8l-.25.35-.4.45-.2.25-.65.75-1.3,1.55-5.85,7V79L68,73.85,69.3,72.3l.6-.75.15-.2.5-.55,2.9-3.5v3.1"/><path class="cls-30" d="M70.55,70.8l-.5.55-.15.2-.6.75L68,73.85,66.6,75.4V66.85l4-4.75v8.7"/><path class="cls-31" d="M75.8,48.4V64.5l-2.35,2.8v-15L63.65,64V79L62,81l-.6-14.2-2.25,2.6-6.3,7.35-3.35,4v15L48,97.25v-16L75.8,48.4m-54,21.65.7.45.65-.25v13.2L21.8,85v-15"/><path class="cls-32" d="M70.55,70.8V62.1l-4,4.75V75.4L68,73.85,63.65,79V64l9.8-11.75v15l-2.9,3.5"/><path class="cls-33" d="M62,81l-2.85-1.35V69.4l2.25-2.6L62,81M48,97.25,45.7,96.4v-15l2.25.9v14.9M21.8,70.05V85l-2.2-.9V69l2.2,1.1"/><path class="cls-34" d="M63.15,82.65,51.4,96.35l.1-.65V81.45l1.9-2.2,7.75,3.6,1.3.1.7-.3M44.4,97.9,20,86.4l1.1.45,1.25.1a2,2,0,0,0,1-.6l1.35-1.55a2.07,2.07,0,0,0,.5-1.35V71.9l8-1.65,10.4,12v0l.15.15V96.4a2.15,2.15,0,0,0,.35,1.15l.35.35"/><path class="cls-35" d="M59.15,79.65l-6.3-2.9,6.3-7.35V79.65"/><path class="cls-20" d="M19.6,69v-.9L31.7,65.2l4.2,1.85L48,81.2v1.15l-2.25-.9L45.05,81l-11.15-13-10.75,2.2-.65.25-.7-.45L19.6,69"/><path class="cls-36" d="M90.9,87.15l7.65-8.8-4.4-9.95L89.75,62l-2.9,1.15-4.1-.3L80.1,61.7l-5.25,6.15-4.1,10,6.45,9,13.7.3m.5-26.25,4.4,6.4.2.3,4.4,10,.15,1.1-.5,1-7.65,8.8-.7.55-.85.15-13.7-.3-.85-.2L75.6,88l-6.45-9-.35-.9a1.67,1.67,0,0,1,.1-1l4.1-10,.35-.55L78.6,60.4l.7-.5.85-.2,9.65.3.9.25.7.65"/><path class="cls-37" d="M94.15,68.4l4.4,9.95-7.65,8.8L89.2,74.3l-2.65-5.9,2-2.6,5.55,2.6m-17,18.45-6.45-9,4.1-10L80.7,65.5l1.75,2.65-3,5.8-2.3,12.9"/><path class="cls-38" d="M74.85,67.85,80.1,61.7l2.65,1.15-2,2.65-5.85,2.35m12-4.7L89.75,62l4.4,6.4L88.6,65.8l-1.75-2.65"/><path class="cls-39" d="M86.85,63.15,88.6,65.8l-2,2.6-4.1-.25L80.7,65.5l2-2.65,4.1.3"/><path class="cls-40" d="M90.9,87.15l-13.7-.3L79.5,74l3-5.8,4.1.25,2.65,5.9,1.7,12.85"/><path class="cls-26" d="M93.35,93.9l-.25.3-1.8,2a2.24,2.24,0,0,1-1.1.6L89,96.7,86.3,95.4l-.85-.75a2,2,0,0,1-.3-1.05V84a1.93,1.93,0,0,1,.55-1.35l1.9-2.1a1.67,1.67,0,0,1,1.1-.6h.85l8.7-10V68.5a1.89,1.89,0,0,1,.5-1.3l1.6-1.85a1.87,1.87,0,0,1,1.05-.65l1.2.1,2.6,1a1.72,1.72,0,0,1,.9.75,1.89,1.89,0,0,1,.35,1.1v10L106,79l-1.55,1.85-.15.1-.9.55-1.2,0-.85-.35L93.6,90.2v2.65l-.25,1.05m11.1-26.2-2.6-1-1.6,1.85v2.1L90.05,82.35l-1-.5L87.15,84V93.6l2.65,1.3,1.8-2.05v-3.4l10.75-12.7-1.55,2,2.1.8,1.55-1.85v-10"/><path class="cls-33" d="M104.45,67.7l-1.55,2.1-2.65-1.3,1.6-1.85,2.6,1m-4.2,2.9,2.65,1.05L91.6,85V83.15L89.8,85l-2.65-1,1.9-2.1,1,.5,10.2-11.75"/><path class="cls-41" d="M100.25,70.6V68.5l2.65,1.3v1.85l-2.65-1.05m2.65,8.9-2.1-.8,1.55-2,.55-.65v3.4M89.8,94.9l-2.65-1.3V84l2.65,1v9.9"/><path class="cls-42" d="M89.8,94.9V85l1.8-1.85V85l11.3-13.35V69.8l1.55-2.1v10L102.9,79.5V76.1l-.55.65L91.6,89.45v3.4L89.8,94.9"/><path class="cls-34" d="M104.3,80.9l-11,13,.25-1.05V90.2l7.75-9.15.85.35,1.2,0,.9-.55"/><path class="cls-17" d="M91.75,82.75l4.3,10.85.15.9,0,.35,1.15,1.3a2,2,0,0,1,.45,1.2L97.4,98.6l-.55.8.8,1.15A2,2,0,0,1,98,101.7l-.35,1.15-4.8,6.75-1,.75a2.05,2.05,0,0,1-1.25,0l-1-.35-.6-.3-8.35-3.3-.95-.75a1.77,1.77,0,0,1-.35-1.2,2,2,0,0,1,.45-1.15l1.45-1.75a1.87,1.87,0,0,1,.1-1l.7-1.85-.1-.1a1.84,1.84,0,0,1-.4-1,1.91,1.91,0,0,1,.2-1l6.4-13.9a1.81,1.81,0,0,1,1.1-1.05l1.5.05a1.82,1.82,0,0,1,1,1.1M94.4,99.4l1.35-2-2-2.4-.15.2h0l.2-.2.5-.75L89.9,83.45l-6.4,13.9,1.25.5-.3-.1-1.3,3.45.65.25-2.5,3.1,8.9,3.5,0,0,1,.35L96,101.7l-1.6-2.3"/><path class="cls-19" d="M94.4,99.4l-3.5,4.85-.45-4.6V99.6l3-4.35h0l.15-.2,2,2.4-1.35,2m-3.2,9-1-.35,0,0-8.9-3.5,2.5-3.1,6.85,2.7.55,4.3m-6.45-10.6-1.25-.5,6.4-13.9L90.2,100l-5.45-2.15"/><path class="cls-20" d="M84.75,97.85,90.2,100l-.3-16.55L94.2,94.3l-.5.75-.2.2-3,4.35v.05l.45,4.6,3.5-4.85,1.6,2.3-4.8,6.75-.55-4.3-6.85-2.7-.65-.25,1.3-3.45.3.1"/></g></g></svg>