<svg xmlns="http://www.w3.org/2000/svg" viewBox="0 0 120 140"><defs><style>.cls-1{fill:#a4afaf;}.cls-2{fill:#9ba6a6;}.cls-3{fill:#a9b6b6;}.cls-4{fill:#bb6444;}</style></defs><title>Asset 87</title><g id="Layer_2" data-name="Layer 2"><g id="Layer_1-2" data-name="Layer 1"><path class="cls-1" d="M58.9,14.45l5.9,2.75,3.7-4.35L62.6,10.1l-3.7,4.35M88.35,25.6,84.65,30l5.9,2.75,3.7-4.35-5.9-2.75m2.55,9.1,5.9,2.75,3.7-4.35-5.9-2.75L90.9,34.7m-8.5,6.8,5.85-6.85L79,30.35l-5.8,6.8L82.4,41.5M71.2,65l-5.8,6.8,9.25,4.35,5.85-6.85L71.2,65M61.65,63.7l5.9,2.75,3.7-4.35-5.9-2.75-3.7,4.35M90.9,66.6l5.9,2.75L100.5,65l-5.9-2.75L90.9,66.6M93,99.85l-3.7,4.35L95.2,107l3.7-4.35L93,99.85m-.5-5.2-9.3-4.3-5.8,6.8,9.25,4.35,5.85-6.85M103.15,66.6l5.9,2.75,3.7-4.35-5.9-2.75-3.7,4.35m-18.5,39-5.9-2.75-3.7,4.35L81,110l3.7-4.35M120,105,60,140,0,105V35L60,0l60,35v70M8.9,80.45l5.9,2.75,3.7-4.35L12.6,76.1,8.9,80.45M33.05,28.1l-5.8,6.8,9.25,4.35,5.85-6.85-9.3-4.3M21.4,71.5l5.85-6.85L18,60.35l-5.8,6.8L21.4,71.5m9.5-7.8,5.9,2.75,3.7-4.35-5.9-2.75L30.9,63.7m-4.7,5.65-5.8,6.8,9.25,4.35,5.85-6.85-9.3-4.3M47,105.6l-5.9-2.75-3.7,4.35L43.3,110,47,105.6m0,8.75-5.9-2.75L37.4,116l5.9,2.75,3.7-4.35m-23.6,0,5.9,2.75L33,112.7,27.1,110l-3.7,4.35"/><path class="cls-2" d="M23.4,114.3,27.1,110,33,112.7l-3.7,4.35-5.9-2.75M88.35,25.6l5.9,2.75-3.7,4.35L84.65,30l3.7-4.35M58.9,14.45l3.7-4.35,5.9,2.75L64.8,17.2l-5.9-2.75m32,52.15,3.7-4.35L100.5,65l-3.7,4.35L90.9,66.6M61.65,63.7l3.7-4.35,5.9,2.75-3.7,4.35-5.9-2.75M71.2,65l9.3,4.3L74.65,76.1,65.4,71.75,71.2,65m21.3,29.7-5.85,6.85L77.4,97.15l5.8-6.8,9.3,4.3M33.05,28.1l9.3,4.3L36.5,39.25,27.25,34.9l5.8-6.8M8.9,80.45l3.7-4.35,5.9,2.75L14.8,83.2,8.9,80.45M47,105.6,43.3,110l-5.9-2.75,3.7-4.35L47,105.6"/><path class="cls-3" d="M82.4,41.5l-9.25-4.35,5.8-6.8,9.3,4.3L82.4,41.5m8.5-6.8,3.7-4.35,5.9,2.75-3.7,4.35L90.9,34.7M93,99.85l5.9,2.75L95.2,107l-5.9-2.75L93,99.85m-8.35,5.75L81,110l-5.9-2.75,3.7-4.35,5.9,2.75m18.5-39,3.7-4.35,5.9,2.75-3.7,4.35-5.9-2.75M26.2,69.35l9.3,4.3L29.65,80.5,20.4,76.15l5.8-6.8m4.7-5.65,3.7-4.35,5.9,2.75-3.7,4.35L30.9,63.7m-9.5,7.8-9.25-4.35,5.8-6.8,9.3,4.3L21.4,71.5M47,114.35l-3.7,4.35L37.4,116l3.7-4.35,5.9,2.75"/><path class="cls-4" d="M113.2,39a6,6,0,0,0-2.2-2.15h0l-14.6-8.5L87,27.5l-5.1-7.65-18.85-11A5.91,5.91,0,0,0,60,8a5.63,5.63,0,0,0-3,.85l-14.4,8.4-.85,4.25H35.3l-8.25,4.85L23.5,34l-6.65-1.7L9,36.85A5.55,5.55,0,0,0,6.85,39,5.63,5.63,0,0,0,6,42V98.05a5.57,5.57,0,0,0,.85,3A5.9,5.9,0,0,0,9,103.2l20.75,12.1,5.25-.8.75,4.3L57,131.2a6,6,0,0,0,3,.8,6.26,6.26,0,0,0,3-.8L80.6,121l.9-5,4.65,1.75,4.7-2.75,1.9-6.25,5.75,1.75,12.55-7.3h0a6.35,6.35,0,0,0,2.2-2.2,5.89,5.89,0,0,0,.8-3V76.75L110.75,69,114,60.5V42a6,6,0,0,0-.8-3m6.8,66L60,140,0,105V35L60,0l60,35v70"/></g></g></svg>