<svg xmlns="http://www.w3.org/2000/svg" viewBox="0 0 120 140"><defs><style>.cls-1{fill:#a4afaf;}.cls-2{fill:#9ba6a6;}.cls-3{fill:#a9b6b6;}.cls-4{fill:#115f32;}.cls-5{fill:#168344;}.cls-6{fill:#10773c;}.cls-7{fill:#1b914d;}.cls-8{fill:#146b38;}.cls-9{fill:#0f542c;}.cls-10{fill:#177b41;}.cls-11{fill:#8a3f23;}.cls-12{fill:#706e6c;}.cls-13{fill:#e2dfdc;}.cls-14{fill:#b4b1ae;}.cls-15{fill:#aa5a3c;}.cls-16{fill:#e27952;}.cls-17{fill:#f38157;}.cls-18{fill:#d7f4ff;}</style></defs><title>Asset 143</title><g id="Layer_2" data-name="Layer 2"><g id="Layer_1-2" data-name="Layer 1"><path class="cls-1" d="M27.25,34.9l9.25,4.35,5.85-6.85-9.3-4.3-5.8,6.8M35.5,73.65l-9.3-4.3-5.8,6.8,9.25,4.35,5.85-6.85M21.4,71.5l5.85-6.85L18,60.35l-5.8,6.8L21.4,71.5M34.6,59.35,30.9,63.7l5.9,2.75,3.7-4.35-5.9-2.75M8.9,80.45c2,.93,3.93,1.85,5.9,2.75l3.7-4.35L12.6,76.1,8.9,80.45m87.9-43,3.7-4.35-5.9-2.75L90.9,34.7l5.9,2.75m-14.4,4,5.85-6.85L79,30.35l-5.8,6.8L82.4,41.5M71.25,62.1l-5.9-2.75-3.7,4.35,5.9,2.75,3.7-4.35M65.4,71.75l9.25,4.35,5.85-6.85L71.2,65l-5.8,6.8m3.1-58.9L62.6,10.1l-3.7,4.35,5.9,2.75,3.7-4.35m22,19.85,3.7-4.35-5.9-2.75L84.65,30l5.9,2.75M112.75,65l-5.9-2.75-3.7,4.35,5.9,2.75,3.7-4.35M92.5,94.65l-9.3-4.3-5.8,6.8,9.25,4.35,5.85-6.85m4.3-25.3L100.5,65l-5.9-2.75L90.9,66.6l5.9,2.75M120,35v70L60,140,0,105V35L60,0l60,35M43.3,118.7l3.7-4.35-5.9-2.75L37.4,116l5.9,2.75m31.75-11.5L81,110l3.7-4.35-5.9-2.75-3.7,4.35m14.25-3L95.2,107l3.7-4.35L93,99.85l-3.7,4.35M23.4,114.3l5.9,2.75L33,112.7,27.1,110l-3.7,4.35M43.3,110,47,105.6l-5.9-2.75-3.7,4.35L43.3,110"/><path class="cls-2" d="M43.3,110l-5.9-2.75,3.7-4.35L47,105.6,43.3,110m-16-75.05,5.8-6.8,9.3,4.3L36.5,39.25,27.25,34.9M8.9,80.45l3.7-4.35,5.9,2.75L14.8,83.2c-2-.9-3.93-1.82-5.9-2.75M90.55,32.7,84.65,30l3.7-4.35,5.9,2.75-3.7,4.35m-22-19.85L64.8,17.2l-5.9-2.75,3.7-4.35,5.9,2.75m-3.1,58.9L71.2,65l9.3,4.3L74.65,76.1,65.4,71.75m5.85-9.65-3.7,4.35-5.9-2.75,3.7-4.35,5.9,2.75M96.8,69.35,90.9,66.6l3.7-4.35L100.5,65l-3.7,4.35m-4.3,25.3-5.85,6.85L77.4,97.15l5.8-6.8,9.3,4.3M23.4,114.3,27.1,110,33,112.7l-3.7,4.35-5.9-2.75"/><path class="cls-3" d="M34.6,59.35l5.9,2.75-3.7,4.35L30.9,63.7l3.7-4.35M21.4,71.5l-9.25-4.35,5.8-6.8,9.3,4.3L21.4,71.5m14.1,2.15L29.65,80.5,20.4,76.15l5.8-6.8,9.3,4.3M82.4,41.5l-9.25-4.35,5.8-6.8,9.3,4.3L82.4,41.5m14.4-4L90.9,34.7l3.7-4.35,5.9,2.75-3.7,4.35m16,27.55-3.7,4.35-5.9-2.75,3.7-4.35,5.9,2.75M89.3,104.2,93,99.85l5.9,2.75L95.2,107l-5.9-2.75m-14.25,3,3.7-4.35,5.9,2.75L81,110l-5.9-2.75M43.3,118.7,37.4,116l3.7-4.35,5.9,2.75-3.7,4.35"/><path class="cls-4" d="M93.25,39.3,95,38.6,85.9,18.85,79.8,34.3l.75,1.05.25.3h0l-.2-.3-3,3.4,2,2.75-2.3,3.3,6.8,9.6,1.5-.55,0-.05,12.65-5-3.6-4.35,1-.35-1.85-5-.4.15m-5.5-21.25,9.1,19.75L97,38.85l-.4.95-.4.4,1.2,3.2a1.85,1.85,0,0,1,0,1.35l2.3,2.8a2,2,0,0,1,.45,1.15,2.07,2.07,0,0,1-.3,1.2l-.95.75-14.1,5.6-1.3.1a2,2,0,0,1-1-.8L75.65,46a1.77,1.77,0,0,1-.4-1.15,2,2,0,0,1,.35-1.15l1.5-2.15L76,39.9a1.73,1.73,0,0,1-.4-1.25,1.92,1.92,0,0,1,.5-1.2l2-2.2-.2-.7a1.54,1.54,0,0,1,.1-.95l6.1-15.45a1.82,1.82,0,0,1,1-1.1L86.6,17a2,2,0,0,1,1.15,1.05"/><path class="cls-5" d="M79.55,41.5l5,6.9.65-6.55V41.8L80.8,35.65l-.25-.3L79.8,34.3l6.1-15.45-.4,23.5,7.75-3.05.4-.15,1.85,5-1,.35-9.7,3.8-.8,6.15-6.8-9.6,2.3-3.3"/><path class="cls-6" d="M79.55,41.5l-2-2.75,3-3.4.2.3h0l4.35,6.15v.05L84.5,48.4l-5-6.9"/><path class="cls-7" d="M84.05,54.4l.8-6.15,9.7-3.8,3.6,4.35-12.65,5,0,.05-1.5.55m9.2-15.1L85.5,42.35l.4-23.5L95,38.6l-1.75.7"/><path class="cls-4" d="M20.65,35.8a1.82,1.82,0,0,1,1.05,1.1L26,47.75l.15.9,0,.35,1.15,1.3.45,1.2-.35,1.25-.55.8.8,1.15a2.06,2.06,0,0,1,0,2.3l-4.8,6.75a2,2,0,0,1-1,.75,2.05,2.05,0,0,1-1.25,0l-1.05-.35-.6-.3-8.35-3.3-1-.75a1.77,1.77,0,0,1-.35-1.2,2,2,0,0,1,.45-1.15l1.45-1.75a1.87,1.87,0,0,1,.1-1.05L12,52.8l-.1-.1a1.84,1.84,0,0,1-.4-1,1.91,1.91,0,0,1,.2-1l6.4-13.9a1.81,1.81,0,0,1,1.1-1l1.5,0m3,13.4-.15.2h-.05l.2-.2.5-.75L19.85,37.6l-6.4,13.9,1.25.5-.3-.1-1.3,3.45.65.25-2.5,3.1,8.9,3.5,0,0,1,.35L26,55.85l-1.6-2.3L25.7,51.6l-2.05-2.4"/><path class="cls-7" d="M23.65,49.2l-.2.2L20.4,53.75v0l.45,4.6,3.5-4.85,1.6,2.3-4.8,6.75-.55-4.3-6.85-2.7-.65-.25,1.3-3.45.3.1,5.45,2.15-.3-16.55,4.3,10.85-.5.75"/><path class="cls-5" d="M23.65,49.2l2.05,2.4-1.35,1.95-3.5,4.85-.45-4.6v0l3.05-4.35h.05l.15-.2m-3.8-11.6.3,16.55L14.7,52l-1.25-.5,6.4-13.9m-6.1,18,6.85,2.7.55,4.3-1-.35,0,0-8.9-3.5,2.5-3.1"/><path class="cls-8" d="M48.9,42.55,26.05,69.45l-.1.1-3.8,4.5-3.8,4.55-.1,0-2.5,2.9-4.9-2.3L48.9,34.3v8.25m-.95,54v8.25l-3,3.6v-8.25l3-3.6M117.2,61.2v8.25L73.05,121.5v-8.25l44.15-52"/><path class="cls-9" d="M117.2,61.2,47.05,28.4,3,80.5v8.25L45,108.4l3-3.6V96.55l-32.2-15.1,2.5-2.9.1,0,3.8-4.55,3.8-4.5.1-.1L48.9,42.55l52.85,24.8,0,0,2.5,1.15-33,38.9-7.75-3.6-3.1,3.6v8.35l12.6,5.8,44.15-52V61.2M27.5,70.85l-3.8,4.5L19.9,79.9l-.5.4-.65.25-.15,0L48.8,94.75l.85.75.3,1v8.25l-.45,1.3-3,3.6a2.11,2.11,0,0,1-1.1.65l-1.3-.15L2.15,90.55l-.8-.7A1.89,1.89,0,0,1,1,88.75V80.5a1.89,1.89,0,0,1,.5-1.3L45.55,27.1a1.87,1.87,0,0,1,1.1-.65l1.25.15,70.15,32.8a2.34,2.34,0,0,1,.85.75l.3,1.05v8.25a2,2,0,0,1-.45,1.3L74.6,122.8a2.11,2.11,0,0,1-1.1.65l-1.25-.1-12.6-5.8-.85-.75a1.89,1.89,0,0,1-.35-1.1v-8.35a1.89,1.89,0,0,1,.5-1.3l3.1-3.6a1.87,1.87,0,0,1,1.1-.65l1.25.15,6.4,3,29.45-34.85.1-.1.7-.7-.15-.1L49.45,45,28.7,69.45l-1.2,1.4"/><path class="cls-7" d="M48.9,34.3l-38,44.85,4.9,2.3L48,96.55l-3,3.6L3,80.5,47.05,28.4,117.2,61.2,73.05,113.25l-12.6-5.9,3.1-3.6,7.75,3.6,33-38.9,5-6L48.9,34.3"/><path class="cls-10" d="M48.9,34.3l60.35,28.2-5,6-2.5-1.15,0,0L48.9,42.55V34.3M45,108.4,3,88.75V80.5l42,19.65v8.25m28.1,13.1-12.6-5.8v-8.35l12.6,5.9v8.25"/><path class="cls-11" d="M26.1,66.6l.1-.3,13-26.55a1.81,1.81,0,0,1,1.2-1l13.2-4.35,1.45.1L96.35,54l.85.75.25.6-2,.65v-.2L54.2,36.25,41,40.6,28,67.15v.35l-1.9-.9"/><path class="cls-12" d="M26.1,66.6l1.9.9V77.75l4.3,2,4,1.85L41.7,84.2l7.9,3.7,6.25,2.95,7.9,3.7,5.75,2.7,26-30.85V56l2-.65,0,.45V66.4a2,2,0,0,1-.45,1.3l-26,30.85a2.11,2.11,0,0,1-1.1.65l-1.3-.15-41.5-19.5a2.09,2.09,0,0,1-.8-.7,1.89,1.89,0,0,1-.35-1.1V67.15l.1-.55"/><path class="cls-13" d="M28,67.5v-.35l41.5,19.3v10.8l-5.75-2.7V87l-7.9-3.85v7.75L49.6,87.9V80.4l-7.9-4V84.2l-5.45-2.55V74.2l-4-2.1v7.7l-4.3-2V67.5m32.9,1.25v5.1l-17.55-8.1v-5.3l17.55,8.3"/><path class="cls-14" d="M60.9,68.75l6.25-7.3L60.9,73.85v-5.1m34.6-13V66.4l-26,30.85V86.45l13-26.4,13-4.3m-63.2,24V72.1l4,2.1v7.45l-4-1.85"/><path class="cls-15" d="M41,40.6l13.2-4.35,41.3,19.5-13,4.3L41,40.6"/><path class="cls-16" d="M41,40.6,82.5,60.05l-13,26.4L28,67.15,41,40.6m2.35,19.85v5.3l17.55,8.1,6.25-12.4L49.65,53.2l-6.3,7.25"/><path class="cls-17" d="M43.35,60.45l6.3-7.25,17.5,8.25-6.25,7.3-17.55-8.3"/><path class="cls-18" d="M41.7,84.2V76.45l7.9,4v7.5l-7.9-3.7m14.15,6.65V83.1L63.75,87v7.6l-7.9-3.7"/></g></g></svg>