<svg xmlns="http://www.w3.org/2000/svg" xmlns:xlink="http://www.w3.org/1999/xlink" viewBox="0 0 120 140"><defs><style>.cls-1{fill:url(#linear-gradient);}.cls-2{fill:#27ae60;}.cls-3{fill:url(#linear-gradient-2);}.cls-4{fill:url(#linear-gradient-3);}.cls-5{fill:url(#linear-gradient-4);}.cls-6{fill:url(#linear-gradient-5);}.cls-7{fill:url(#linear-gradient-6);}.cls-8{fill:url(#linear-gradient-7);}.cls-9{fill:url(#linear-gradient-8);}.cls-10{fill:url(#linear-gradient-9);}.cls-11{fill:url(#linear-gradient-10);}.cls-12{fill:url(#linear-gradient-11);}.cls-13{fill:url(#linear-gradient-12);}.cls-14{fill:url(#linear-gradient-13);}.cls-15{fill:url(#linear-gradient-14);}.cls-16{fill:url(#linear-gradient-15);}.cls-17{fill:#115f32;}.cls-18{fill:#1b914d;}.cls-19{fill:#168344;}.cls-20{fill:#10773c;}</style><linearGradient id="linear-gradient" x1="-1989.2" y1="30.38" x2="-350.8" y2="30.38" gradientTransform="matrix(0, 0, 0, 0, 95.07, 25.69)" gradientUnits="userSpaceOnUse"><stop offset="0" stop-color="#27ae60"/><stop offset="1" stop-color="#30c26d"/></linearGradient><linearGradient id="linear-gradient-2" x1="-1989.2" y1="98.08" x2="-350.8" y2="98.08" gradientTransform="matrix(0, 0, 0, 0, 110.57, 93.39)" xlink:href="#linear-gradient"/><linearGradient id="linear-gradient-3" x1="-1989.2" y1="49.52" x2="-350.8" y2="49.52" gradientTransform="matrix(0, 0, 0, 0, 17.34, 43.93)" xlink:href="#linear-gradient"/><linearGradient id="linear-gradient-4" x1="-1989.2" y1="26.2" x2="-350.8" y2="26.2" gradientTransform="matrix(0, 0, 0, 0, 61.07, 21.54)" xlink:href="#linear-gradient"/><linearGradient id="linear-gradient-5" x1="-1989.2" y1="48.02" x2="-350.8" y2="48.02" gradientTransform="matrix(0, 0, 0, 0, 65.99, 42.43)" xlink:href="#linear-gradient"/><linearGradient id="linear-gradient-6" x1="-1989.2" y1="37.68" x2="-350.8" y2="37.68" gradientTransform="matrix(0, 0, 0, 0, 50.84, 31.94)" xlink:href="#linear-gradient"/><linearGradient id="linear-gradient-7" x1="-1989.2" y1="62.42" x2="-350.8" y2="62.42" gradientTransform="matrix(0, 0, 0, 0, 29.72, 57.74)" xlink:href="#linear-gradient"/><linearGradient id="linear-gradient-8" x1="-1989.2" y1="54.18" x2="-350.8" y2="54.18" gradientTransform="matrix(0, 0, 0, 0, 42.17, 49.49)" xlink:href="#linear-gradient"/><linearGradient id="linear-gradient-9" x1="-1989.2" y1="102.17" x2="-350.8" y2="102.17" gradientTransform="matrix(0, 0, 0, 0, 19.59, 96.58)" xlink:href="#linear-gradient"/><linearGradient id="linear-gradient-10" x1="-1989.2" y1="89.17" x2="-350.8" y2="89.17" gradientTransform="matrix(0, 0, 0, 0, 74.67, 84.49)" xlink:href="#linear-gradient"/><linearGradient id="linear-gradient-11" x1="-1989.2" y1="81.92" x2="-350.8" y2="81.92" gradientTransform="matrix(0, 0, 0, 0, 88.17, 77.24)" xlink:href="#linear-gradient"/><linearGradient id="linear-gradient-12" x1="-1989.2" y1="106.58" x2="-350.8" y2="106.58" gradientTransform="matrix(0, 0, 0, 0, 61.84, 100.98)" xlink:href="#linear-gradient"/><linearGradient id="linear-gradient-13" x1="-1989.2" y1="121.33" x2="-350.8" y2="121.33" gradientTransform="matrix(0, 0, 0, 0, 77.44, 115.73)" xlink:href="#linear-gradient"/><linearGradient id="linear-gradient-14" x1="-1989.2" y1="119.17" x2="-350.8" y2="119.17" gradientTransform="matrix(0, 0, 0, 0, 62.07, 114.49)" xlink:href="#linear-gradient"/><linearGradient id="linear-gradient-15" x1="-1989.2" y1="116.92" x2="-350.8" y2="116.92" gradientTransform="matrix(0, 0, 0, 0, 49.84, 111.33)" xlink:href="#linear-gradient"/></defs><title>Asset 10</title><g id="Layer_2" data-name="Layer 2"><g id="Layer_1-2" data-name="Layer 1"><path class="cls-1" d="M95,31.4v.45l-.7,1.8H89.4l-1-3,0-.35V30.2a.3.3,0,0,1,.25-.15h.35l1.35.55,1-3.15.15-.25.3-.1.25.1.15.25.85,4.15,1.25-.4h.3l.25.2"/><path class="cls-2" d="M95,31.4l-.25-.2h-.3l-1.25.4-.85-4.15-.15-.25-.25-.1-.3.1-.15.25-1,3.15-1.35-.55h-.35a.3.3,0,0,0-.25.15v.05l0,.35,1,3h4.85l.7-1.8V31.4m9.3,66.35a.3.3,0,0,0-.25.15v0a.42.42,0,0,0,0,.35l1,3h4.85l.7-1.8V99.1l-.25-.2h-.3l-1.25.4-.85-4.15-.15-.25-.25-.1-.3.1-.15.25-1,3.15-1.35-.55h-.35M120,105,60,140,0,105V35L60,0l60,35v70M9,49.75l-.25.1,0,.1-.05.2v.25h.05l1.45,3.15h6l1.6-1,.15-.15,0-.15,0-.3-.3-.25-1.5-.4,1.2-3.15v-.35l-.05,0-.2-.2h-.35l-2.8,1-2-2.85a.3.3,0,0,0-.25-.15l-.25,0-.25.15-.1.25-.35,3.5L9,49.75M57.85,23l-.3-.1-.3.15-.15.25-.8,4.1L55.05,27l-.3.05-.25.2v.45l.7,1.8h4.85l.9-3.1v-.35l-.25-.2h-.35L59,26.4l-1-3.15L57.85,23m1.9,21.15-.1.25-.35,3.5-1.7.35-.25.1-.05.1,0,.2v.25h0l1.45,3.15h6l1.6-1,.15-.15,0-.15,0-.3-.3-.25-1.5-.4,1.2-3.15v-.35l-.05,0-.2-.2H65.3l-2.8,1-2-2.85a.3.3,0,0,0-.25-.15L60,44l-.25.15m-8.4-5.65,0-.25-.1-.15,0-.1L51,37.85l-1.65-.3-.4-3.5-.1-.25-.25-.15h-.25l-.25.15-2,2.85-2.85-1H43l-.2.2,0,0v.35L44,39.35l-1.55.45-.25.2-.1.35.1.1.1.15,1.6,1.1h6l1.45-3.15.05,0M26.25,59.25l-.15.25-1,3.15-1.35-.55H23.4a.3.3,0,0,0-.25.15v0a.42.42,0,0,0,0,.35l.95,3.05H28.9l.7-1.8v-.45l-.25-.2h-.3l-1.25.4L27,59.5l-.15-.25-.25-.1-.3.1M39,50.9l-.3.1-.15.25-1,3.15-1.35-.55h-.35a.3.3,0,0,0-.25.15v0l-.05.35,1,3.05h4.85l.7-1.8V55.2L41.8,55h-.3l-1.25.4-.85-4.15L39.25,51,39,50.9M13.35,98.3l-.1.25-.35,3.5-1.7.35-.25.1,0,.1-.05.2v.25h.05l1.45,3.15h6l1.6-1,.15-.15,0-.15,0-.3-.3-.25-1.5-.4,1.2-3.15v-.35l-.05-.05-.2-.2H18.9l-2.8,1-2-2.85a.3.3,0,0,0-.25-.15l-.25,0-.25.15M71.5,85.9l-.3.1-.15.25-1,3.15-1.35-.55h-.35L68.1,89v0l0,.35,1,3h4.85l.7-1.8V90.2L74.3,90H74l-1.25.4-.85-4.15L71.75,86l-.25-.1M85,78.65l-.3.1-.15.25-1,3.15L82.2,81.6h-.35l-.25.15v0a.42.42,0,0,0,0,.35l1,3h4.85l.7-1.8V83l-.25-.2h-.3l-1.25.4L85.4,79l-.15-.25-.25-.1m-29.15,23.9-.25.15-.1.25-.35,3.5-1.7.35-.25.1-.05.1,0,.2v.25h0l1.45,3.15h6l1.6-1,.15-.15,0-.15,0-.3-.3-.25-1.5-.4,1.2-3.15v-.35l0,0-.2-.2h-.35l-2.8,1-2-2.85-.25-.15-.25,0m15.35,14.9-.1.25-.35,3.5-1.7.35-.25.1,0,.1,0,.2v.25h0l1.45,3.15h6l1.6-1,.15-.15,0-.15,0-.3-.3-.25-1.5-.4,1.2-3.15v-.35l0,0-.2-.2h-.35l-2.8,1-2-2.85-.25-.15-.25,0-.25.15M62,120.25v0l-.25-.2h-.3l-1.25.4-.85-4.15-.15-.25-.25-.1-.3.1-.15.25-1,3.15-1.35-.55h-.35a.3.3,0,0,0-.25.15v0l0,.35.95,3h4.85l.7-1.8v-.4m-12.2-4.75v-.35l0-.05-.2-.2h-.35l-2.8,1-2-2.85L44.1,113l-.25,0-.25.15-.1.25-.35,3.5-1.7.35-.25.1-.05.1,0,.2v.25h0L42.6,121h6l1.6-1,.15-.15,0-.15,0-.3-.3-.25-1.5-.4,1.2-3.15"/><path class="cls-3" d="M104.25,97.75h.35l1.35.55,1-3.15.15-.25.3-.1.25.1.15.25.85,4.15,1.25-.4h.3l.25.2v.45l-.7,1.8H104.9l-1-3a.42.42,0,0,1,0-.35v0a.3.3,0,0,1,.25-.15"/><path class="cls-4" d="M9,49.75l1.7-.35L11,45.9l.1-.25.25-.15.25,0a.3.3,0,0,1,.25.15l2,2.85,2.8-1H17l.2.2.05,0v.35l-1.2,3.15,1.5.4.3.25,0,.3,0,.15-.15.15-1.6,1h-6L8.65,50.4H8.6v-.25l.05-.2,0-.1.25-.1"/><path class="cls-5" d="M57.85,23l.15.25,1,3.15,1.4-.55h.35l.25.2v.35l-.9,3.1H55.2l-.7-1.8v-.45l.25-.2.3-.05,1.25.4.8-4.1.15-.25.3-.15.3.1"/><path class="cls-6" d="M59.75,44.15,60,44l.25,0a.3.3,0,0,1,.25.15l2,2.85,2.8-1h.35l.2.2.05,0v.35l-1.2,3.15,1.5.4.3.25,0,.3,0,.15-.15.15-1.6,1h-6L57.3,48.9h0v-.25l0-.2.05-.1.25-.1,1.7-.35.35-3.5.1-.25"/><path class="cls-7" d="M51.35,38.5l-.05,0L49.85,41.7h-6l-1.6-1.1-.1-.15-.1-.1.1-.35.25-.2L44,39.35l-1.25-3.1V35.9l0,0,.2-.2h.35l2.85,1,2-2.85.25-.15h.25l.25.15.1.25.4,3.5,1.65.3.25.15,0,.1.1.15,0,.25"/><path class="cls-8" d="M26.25,59.25l.3-.1.25.1.15.25.85,4.15,1.25-.4h.3l.25.2v.45l-.7,1.8H24.05l-.95-3.05a.42.42,0,0,1,0-.35v0a.3.3,0,0,1,.25-.15h.35l1.35.55,1-3.15.15-.25"/><path class="cls-9" d="M39,50.9l.25.1.15.25.85,4.15L41.5,55h.3l.25.2v.45l-.7,1.8H36.5l-1-3.05.05-.35v0a.3.3,0,0,1,.25-.15h.35l1.35.55,1-3.15L38.7,51l.3-.1"/><path class="cls-10" d="M13.35,98.3l.25-.15.25,0a.3.3,0,0,1,.25.15l2,2.85,2.8-1h.35l.2.2.05.05v.35l-1.2,3.15,1.5.4.3.25,0,.3,0,.15-.15.15-1.6,1h-6l-1.45-3.15h-.05v-.25l.05-.2,0-.1.25-.1,1.7-.35.35-3.5.1-.25"/><path class="cls-11" d="M71.5,85.9l.25.1.15.25.85,4.15L74,90h.3l.25.2v.45l-.7,1.8H69l-1-3,0-.35v0l.25-.15h.35l1.35.55,1-3.15L71.2,86l.3-.1"/><path class="cls-12" d="M85,78.65l.25.1.15.25.85,4.15,1.25-.4h.3l.25.2v.45l-.7,1.8H82.5l-1-3a.42.42,0,0,1,0-.35v0l.25-.15h.35l1.35.55,1-3.15.15-.25.3-.1"/><path class="cls-13" d="M55.85,102.55l.25,0,.25.15,2,2.85,2.8-1h.35l.2.2,0,0v.35l-1.2,3.15,1.5.4.3.25,0,.3,0,.15-.15.15-1.6,1h-6l-1.45-3.15h0v-.25l0-.2.05-.1.25-.1,1.7-.35.35-3.5.1-.25.25-.15"/><path class="cls-14" d="M71.2,117.45l.25-.15.25,0,.25.15,2,2.85,2.8-1h.35l.2.2,0,0v.35l-1.2,3.15,1.5.4.3.25,0,.3,0,.15-.15.15-1.6,1h-6l-1.45-3.15h0V122l0-.2,0-.1.25-.1,1.7-.35.35-3.5.1-.25"/><path class="cls-15" d="M62,120.25v.4l-.7,1.8H56.4l-.95-3,0-.35v0a.3.3,0,0,1,.25-.15h.35l1.35.55,1-3.15.15-.25.3-.1.25.1.15.25.85,4.15,1.25-.4h.3l.25.2v0"/><path class="cls-16" d="M49.75,115.5l-1.2,3.15,1.5.4.3.25,0,.3,0,.15-.15.15-1.6,1h-6l-1.45-3.15h0v-.25l0-.2.05-.1.25-.1,1.7-.35.35-3.5.1-.25.25-.15.25,0,.25.15,2,2.85,2.8-1h.35l.2.2,0,.05v.35"/><path class="cls-17" d="M97.7,46.8,102,57.65l.15.9-.05.35,1.15,1.3.45,1.2-.35,1.25-.55.8.8,1.15a2,2,0,0,1,.35,1.15l-.35,1.15-4.8,6.75a2,2,0,0,1-1,.75,2.05,2.05,0,0,1-1.25,0l-1-.35-.6-.3-8.35-3.3-1-.75a1.77,1.77,0,0,1-.35-1.2,2,2,0,0,1,.45-1.15l1.45-1.75a1.87,1.87,0,0,1,.1-1L88,62.7l-.1-.1a1.84,1.84,0,0,1-.4-1,1.91,1.91,0,0,1,.2-1l6.4-13.9a1.81,1.81,0,0,1,1.1-1.05l1.5.05a1.82,1.82,0,0,1,1,1.1m-7,15.1-.3-.1-1.3,3.45.65.25-2.5,3.1,8.9,3.5-.05.05,1.05.35,4.8-6.75-1.6-2.3,1.35-2-2-2.4-.15.2h0l.2-.2.5-.75L95.85,47.5l-6.4,13.9,1.25.5"/><path class="cls-18" d="M90.7,61.9l5.45,2.15-.3-16.55,4.3,10.85-.5.75-.2.2-3,4.35v.05l.45,4.6,3.5-4.85,1.6,2.3-4.8,6.75-.55-4.3-6.85-2.7-.65-.25,1.3-3.45.3.1"/><path class="cls-19" d="M90.7,61.9l-1.25-.5,6.4-13.9.3,16.55L90.7,61.9m9-2.8,2,2.4-1.35,2-3.5,4.85-.45-4.6v-.05l3-4.35h0l.15-.2m-2.5,13.4-1.05-.35.05-.05-8.9-3.5,2.5-3.1,6.85,2.7.55,4.3"/><path class="cls-17" d="M21.8,60.45,26.1,71.3l.15.9-.05.35,1.15,1.3a2,2,0,0,1,.45,1.2,1.84,1.84,0,0,1-.35,1.25l-.55.8.8,1.15a2.06,2.06,0,0,1,0,2.3L22.9,87.3a2,2,0,0,1-1,.75,2.05,2.05,0,0,1-1.25,0l-1-.35-.6-.3-8.35-3.3-1-.75a1.77,1.77,0,0,1-.35-1.2A2,2,0,0,1,9.8,81l1.45-1.75a1.87,1.87,0,0,1,.1-1l.7-1.85-.1-.1a1.84,1.84,0,0,1-.4-1,1.91,1.91,0,0,1,.2-1l6.4-13.9a1.81,1.81,0,0,1,1.1-1.05l1.5.05a1.82,1.82,0,0,1,1.05,1.1M23.55,73l.2-.2-.15.2h-.05m.2-.2.5-.75L20,61.15l-6.4,13.9,1.25.5-.3-.1L13.2,78.9l.65.25-2.5,3.1,8.9,3.5-.05,0,1.05.35,4.8-6.75-1.6-2.3,1.35-1.95-2.05-2.4"/><path class="cls-18" d="M23.75,72.75l-.2.2L20.5,77.3v0L21,82l3.5-4.85,1.6,2.3-4.8,6.75-.55-4.3-6.85-2.7-.65-.25,1.3-3.45.3.1,5.45,2.15L20,61.15,24.25,72l-.5.75"/><path class="cls-19" d="M23.75,72.75l2.05,2.4L24.45,77.1,21,82l-.45-4.6v0L23.55,73h.05l.15-.2M20,61.15l.3,16.55L14.8,75.55l-1.25-.5L20,61.15m-6.1,18,6.85,2.7.55,4.3L20.2,85.8l.05,0-8.9-3.5,2.5-3.1"/><path class="cls-17" d="M25.9,86.45l-2.3,3.3,6.8,9.6,1.5-.55,0,0,12.65-5L40.9,89.4l1-.35L40,84.1l-.4.15,1.75-.7L32.25,63.8l-6.1,15.45.75,1,.25.3h0l-.2-.3L24,83.7l1.95,2.75M33,62a2,2,0,0,1,1.15,1l9.1,19.75.15,1-.4,1-.4.4,1.2,3.2a1.85,1.85,0,0,1,0,1.35l2.3,2.8a2,2,0,0,1,.45,1.15,2.07,2.07,0,0,1-.3,1.2l-1,.75-14.1,5.6-1.3.1-1.05-.8L22,90.9a1.77,1.77,0,0,1-.4-1.15A2,2,0,0,1,22,88.6l1.5-2.15-1.1-1.6A1.73,1.73,0,0,1,22,83.6a1.92,1.92,0,0,1,.5-1.2l1.95-2.2-.2-.7a1.54,1.54,0,0,1,.1-1L30.4,63.1A1.82,1.82,0,0,1,31.45,62L33,62"/><path class="cls-18" d="M32.25,63.8l9.1,19.75-1.75.7-7.75,3,.4-23.5M40.9,89.4l3.6,4.35-12.65,5,0,0-1.5.55.8-6.15,9.7-3.8"/><path class="cls-19" d="M39.6,84.25l.4-.15,1.85,5-1,.35-9.7,3.8-.8,6.15-6.8-9.6,2.3-3.3,5,6.9.65-6.55v0L27.15,80.6l-.25-.3-.75-1,6.1-15.45-.4,23.5,7.75-3"/><path class="cls-20" d="M25.9,86.45,24,83.7l2.95-3.4.2.3h0l4.35,6.15v0l-.65,6.55-5-6.9"/></g></g></svg>