<svg xmlns="http://www.w3.org/2000/svg" viewBox="0 0 120 140"><defs><style>.cls-1{fill:#bb6444;}.cls-2{fill:#b55f40;}.cls-3{fill:#c26948;}.cls-4{fill:#593269;}.cls-5{fill:#c16ee2;}.cls-6{fill:#ecdcb8;}.cls-7{fill:#9b59b6;}.cls-8{fill:#79468e;}.cls-9{fill:#727979;}.cls-10{fill:#ecbc00;}.cls-11{fill:#856a00;}.cls-12{fill:#b9c6c6;}.cls-13{fill:#434343;}.cls-14{fill:#cad9d9;}.cls-15{fill:#fc0;}.cls-16{fill:#cba200;}.cls-17{fill:#ffd738;}.cls-18{fill:#98a3a3;}.cls-19{fill:#d4e2e2;}.cls-20{fill:#aeaeae;}</style></defs><title>Asset 107</title><g id="Layer_2" data-name="Layer 2"><g id="Layer_1-2" data-name="Layer 1"><path class="cls-1" d="M120,105,60,140,0,105V35L60,0l60,35v70M70,49.6l-4.5,1.55L67,55.6l4.45-1.5L70,49.6M51.55,36.7l-5-1.9-1.9,5,5.05,2,1.85-5M45.9,53.45,43.6,46.2l-7.2,2.3,2.25,7.2,7.25-2.25m8-14.15.6,5.25L59.7,44l-.6-5.3-5.25.65M47.5,28.6,43.65,25,40,28.8l3.85,3.65L47.5,28.6M62.2,14l4.85-2.15L64.9,7.05,60,9.2,62.2,14M87,28.85l5.25.5.55-5.25-5.25-.55L87,28.85M82,35.6l2.3,7.25,7.25-2.3L89.2,33.3,82,35.6M93.2,50.3l-4.8,2.2,2.15,4.85L95.4,55.2l-2.2-4.9m23,3.85-5.35-.5-.5,5.3,5.25.5.6-5.3M113.9,36.7l-5-1.9-1.9,5,5,2,1.85-5M85.75,52.15,76.25,50l-2.1,9.55,9.45,2.1,2.15-9.5M24.6,28.85l5.25.5.55-5.25-5.25-.55-.55,5.3m9.55,8.8,3.35,4.1,4.15-3.35-3.4-4.1-4.1,3.35M5.4,39.7,2.3,44l4.25,3.1,3.1-4.3-4.25-3m18,12.45L13.9,50l-2.1,9.55,9.45,2.1,2.15-9.5m7.45-1.85-4.8,2.2,2.15,4.85L33,55.2l-2.15-4.9m7.4,46.35L34.15,100l3.35,4.1,4.15-3.35-3.4-4.1M2.8,96.1l9.6,2.55L14.9,89,5.3,86.5,2.8,96.1M13.55,70.6l-6.2,6.7,6.7,6.2,6.2-6.75-6.7-6.15M33,63,31.9,72.3l9.3,1,.65-5.6h0l.4-3.7L33,63m-7.8,23L24.6,91.2l5.25.5.55-5.25L25.15,86m4.7,23.3-4.75,2.2,2.15,4.85,4.8-2.15-2.2-4.9m6.55,1.6,2.25,7.25,7.25-2.3-2.3-7.2-7.2,2.25m67.8-43.1h0l.4-3.7-9.3-1-1.1,9.3,9.3,1,.65-5.6M91.5,103l-2.3-7.3L82,98l2.3,7.25L91.5,103m1.25-16.5L87.5,86,87,91.2l5.25.5.55-5.25M113.9,99.1l-5-1.9-1.9,5,5,1.95,1.85-5m-19-18.8,4.35,3.1,3-4.3L98,76l-3.1,4.3m-19-9.7-6.2,6.7,6.75,6.2,6.15-6.75L75.9,70.6m23.95,33.5,4.15-3.35-3.4-4.1L96.5,100l3.35,4.1M62.2,76.4l4.85-2.2L64.9,69.4,60,71.55l2.2,4.85m-5.1.35L49.8,78.5l1.7,7.4,7.4-1.75-1.75-7.4h0M46.55,97.2l-1.9,5,5.05,1.95,1.85-5-5-1.9M70,112l-4.5,1.55L67,118l4.45-1.55L70,112m-10.3,16.5,5.25-.8-.85-5.25-5.2.85.8,5.2M77.25,89l-9.6-2.5L65.2,96.1l9.55,2.55L77.25,89m0,21-2.1,9.55,9.45,2.1,2.15-9.5L77.2,110"/><path class="cls-2" d="M62.2,14,60,9.2l4.9-2.15,2.15,4.8L62.2,14M47.5,28.6l-3.65,3.85L40,28.8,43.65,25,47.5,28.6m6.35,10.7,5.25-.65.6,5.3-5.25.6-.6-5.25m-8,14.15L38.65,55.7,36.4,48.5l7.2-2.3,2.3,7.25M51.55,36.7l-1.85,5-5.05-2,1.9-5,5,1.9M70,49.6l1.5,4.5L67,55.6l-1.55-4.45L70,49.6m12-14,7.25-2.3,2.3,7.25-7.25,2.3L82,35.6m34.3,18.55-.6,5.3L110.4,59l.5-5.3,5.35.5m-30.5-2-2.15,9.5-9.45-2.1L76.25,50l9.5,2.15M5.4,39.7l4.25,3-3.1,4.3L2.3,44,5.4,39.7m28.75-2.05,4.1-3.35,3.4,4.1L37.5,41.75l-3.35-4.1M33,63l9.35,1-.4,3.7h0l-.65,5.6-9.3-1L33,63m-19.4,7.6,6.7,6.15-6.2,6.75-6.7-6.2,6.2-6.7M2.8,96.1l2.5-9.6L14.9,89l-2.5,9.65L2.8,96.1m35.45.55,3.4,4.1L37.5,104.1,34.15,100l4.1-3.35m-8.4,12.6,2.2,4.9-4.8,2.15-2.15-4.85,4.75-2.2m74.35-41.5-.65,5.6-9.3-1,1.1-9.3,9.3,1-.4,3.7h0M92.75,86.45,92.2,91.7,87,91.2,87.5,86l5.25.5m7.1,17.65L96.5,100l4.1-3.35,3.4,4.1-4.15,3.35M75.9,70.6l6.7,6.15L76.45,83.5,69.7,77.3l6.2-6.7M57.1,76.75h0l1.75,7.4L51.5,85.9l-1.7-7.4,7.3-1.75M77.25,89l-2.5,9.65L65.2,96.1l2.45-9.6,9.6,2.5m-17.6,39.45-.8-5.2,5.2-.85.85,5.25-5.25.8M70,112l1.5,4.5L67,118l-1.55-4.5L70,112"/><path class="cls-3" d="M87,28.85l.55-5.3,5.25.55-.55,5.25L87,28.85M93.2,50.3l2.2,4.9-4.85,2.15L88.4,52.5l4.8-2.2m20.7-13.6-1.85,5-5-2,1.9-5,5,1.9M24.6,28.85l.55-5.3,5.25.55-.55,5.25-5.25-.5M30.85,50.3,33,55.2l-4.8,2.15L26.05,52.5l4.8-2.2M23.4,52.15l-2.15,9.5-9.45-2.1L13.9,50l9.5,2.15M25.15,86l5.25.5-.55,5.25-5.25-.5L25.15,86m11.25,24.9,7.2-2.25,2.3,7.2-7.25,2.3-2.25-7.25M91.5,103l-7.25,2.25L82,98l7.25-2.3,2.3,7.3M94.9,80.3,98,76l4.3,3.1-3,4.3L94.9,80.3m19,18.8-1.85,5-5-1.95,1.9-5,5,1.9M62.2,76.4,60,71.55l4.9-2.15,2.15,4.8L62.2,76.4M46.55,97.2l5,1.9-1.85,5-5.05-1.95,1.9-5M77.2,110l9.5,2.15-2.15,9.5-9.45-2.1L77.2,110"/><path class="cls-4" d="M81.9,43.7a1.74,1.74,0,0,1,1.2-.7l13.3-2.6a1.76,1.76,0,0,1,1.35.25,1.88,1.88,0,0,1,.9,1.1l3.6,11,.1.6V75.05a2,2,0,0,1-.45,1.3,2.21,2.21,0,0,1-1.25.7l-5,.75v2.3a2.05,2.05,0,0,1-.4,1.25,2.42,2.42,0,0,1-1.1.7l-2.7.7-1.35-.15a1.91,1.91,0,0,1-1-.95l-1.15-2.5L88,79l-1.1.2a2,2,0,0,1-2.2-1.4L81.55,67.2l-.1-.6V45a1.92,1.92,0,0,1,.45-1.25m18.45,9.6-3.6-10.95L83.45,45V66.6L86.6,77.2l3.25-.5v1.6L91,80.8l2.7-.7v-4l6.65-1V53.3"/><path class="cls-5" d="M100.35,53.3,86.6,55.65,83.45,45l13.3-2.6,3.6,10.95"/><path class="cls-6" d="M93.7,76.1v4l-2.7.7-1.15-2.5V76.7l3.85-.6"/><path class="cls-7" d="M93.7,76.1l-3.85.6-3.25.5V55.65l13.75-2.35V75.05l-6.65,1"/><path class="cls-8" d="M83.45,45l3.15,10.7V77.2L83.45,66.6V45"/><path class="cls-9" d="M25.45,49.05l1.8-26.2a1.68,1.68,0,0,1,.5-1.1l2.6-3.1.7-.55.85-.2,4.9.15.9.25.7.6,2.25,3.2.35,1,1.85,26.7L41,52v0l-2-28.7-2.25-3.2-4.9-.15L29.25,23l-2,28.55v.05l-1.8-2.55"/><path class="cls-10" d="M27.25,51.6v-.05L30.5,56.1,29.4,86l-4.1-5.8L27.25,51.6M41,52v0l2,28.6-4.7,5.6-.9-29.95L41,52"/><path class="cls-11" d="M42.85,49.85,45,80.5a2,2,0,0,1-.45,1.4l-4.7,5.6-.7.55-.9.15L29.35,88l-.9-.2-.65-.65-4.1-5.8a1.9,1.9,0,0,1-.4-1.3l2.15-30.95,1.8,2.55L25.3,80.15,29.4,86l8.85.25L43,80.6,41,52l1.85-2.15"/><path class="cls-12" d="M27.25,51.55l2-28.55,2.3,3.2L30.5,56.1l-3.25-4.55M39,23.25,41,52l-3.65,4.3-1-29.9,2.6-3.1"/><path class="cls-13" d="M35.55,21.45l1.3,1.75L35.4,25l-2.75-.1-1.25-1.8,1.45-1.7,2.7.1"/><path class="cls-14" d="M35.55,21.45l-2.7-.1-1.45,1.7,1.25,1.8,2.75.1,1.45-1.75-1.3-1.75M29.25,23l2.6-3.1,4.9.15L39,23.25l-2.6,3.1,1,29.9L30.5,56.1l1.05-29.9L29.25,23"/><path class="cls-15" d="M30.5,56.1l6.85.15.9,30L29.4,86,30.5,56.1"/><path class="cls-11" d="M84,24.15,54.85,10.6,36.65,32.05v11.3l-2-.9V32.05a1.89,1.89,0,0,1,.5-1.3L53.35,9.3a1.87,1.87,0,0,1,1.1-.65l1.25.15L84.8,22.35l.85.75.3,1v9l-2,2.3V24.15"/><path class="cls-15" d="M84,24.15,71.05,39.3l-14,2.4-20.4-9.65L54.85,10.6,84,24.15m-26.9,24,14-2.45L65.55,52l-8.5-3.9"/><path class="cls-16" d="M71.05,45.65V39.3L84,24.15v11L65.55,56.8V52l5.5-6.35"/><path class="cls-10" d="M57.05,41.7v6.4l8.5,3.9v4.8L36.65,43.25V32.05l20.4,9.65"/><path class="cls-17" d="M57.05,41.7l14-2.4v6.35l-14,2.45V41.7"/><path class="cls-18" d="M84,35.15V64.9l3.75-.65v4.8L84,64.9,65.55,86.4V56.8L84,35.15m6.15,36.6v12.7L72,105.9V93.4L90.1,71.75m4.6,14.9V88.8L76.55,110.3v-2.2L94.7,86.65m-29.15,18.6-6.75,8.1v-2.2l2.85-3.5V95l3.9-8.55v18.85"/><path class="cls-9" d="M65.55,105.25l11,5L94.7,88.8V86.65l-4.6-2.2V71.75l-2.4-2.7v-4.8L84,62.5v-27l2-2.3v28.1l2.6,1.2.85.75.3,1v4l1.9,2.15a1.89,1.89,0,0,1,.5,1.3V83.2l3.5,1.65.8.75.3,1.05V88.8l-.45,1.3L78.1,111.6l-1.1.65-1.25-.1L66.1,107.7l-5.75,7a2.11,2.11,0,0,1-1.1.65l-1.3-.15L29,101.55l-.8-.7a1.89,1.89,0,0,1-.35-1.1v-2.2a1.92,1.92,0,0,1,.45-1.25l2.45-3v-2.2l-5.7-2.7-.85-.7a2.09,2.09,0,0,1-.3-1.1v-2.2a1.89,1.89,0,0,1,.5-1.3l4.15-5V73.9a1.89,1.89,0,0,1,.5-1.3L34.65,66V42.45l2,.9V66.7l-6.1,7.2v5l-4.65,5.5v2.2l6.85,3.25v4.15l-2.9,3.5v2.2l28.95,13.6,6.75-8.1"/><path class="cls-12" d="M65.55,105.25V86.4L36.65,72.8l-3.9,8.8L61.65,95v12.7l-28.9-13.6V89.9L25.9,86.65v-2.2l4.65,2.2V73.9l6.1-1.1V43.25L65.55,56.8V86.4l6.4,7v12.5l4.6,2.2v2.2l-11-5m-6.75,8.1L29.85,99.75v-2.2l28.95,13.6v2.2M62.35,67V60.4L39.6,49.75V56.3L62.35,67m0,12V72.4L39.6,61.75V68.3L62.35,79"/><path class="cls-19" d="M62.35,79,39.6,68.3V61.75L62.35,72.4V79M84,62.5l3.75,1.75L84,64.9V62.5m3.75,6.55,2.4,2.7L72,93.4l-6.4-7L84,64.9l3.75,4.4v-.25m2.4,15.4,4.6,2.2L76.55,108.1,72,105.9,90.1,84.45M29.85,97.55l2.9-3.5,28.9,13.6-2.85,3.5L29.85,97.55m-4-13.1L30.55,79v7.7l-4.65-2.2M30.55,73.9l6.1-7.2v6.1l-6.1,1.1m31.1,21L32.75,81.6l3.9-8.8,28.9,13.6L61.65,95M62.35,67,39.6,56.3V49.75L62.35,60.4V67"/><path class="cls-20" d="M87.7,69.05v.25L84,64.9l3.75,4.15"/><path class="cls-5" d="M13.9,78.2l6.25-7L30,75.6l-6.65,7.1L13.9,78.2"/><path class="cls-4" d="M13.9,78.2V89l6.3,3v2.6l2.1.8,1.95-1.85V92.2L30,86.1V75.6l-9.85-4.45-6.25,7m17.8-3.65.3,1V86.1a2,2,0,0,1-.55,1.4L26.25,93v.6l-.15.8-.45.65L23.7,96.9l-1,.5-1.1-.05-2.1-.8-.95-.75a2.15,2.15,0,0,1-.35-1.15V93.3l-5.15-2.5a1.89,1.89,0,0,1-.85-.75,2,2,0,0,1-.3-1V78.2a1.89,1.89,0,0,1,.5-1.3l6.25-7.05a2.11,2.11,0,0,1,1.1-.65l1.25.15,9.85,4.45a1.78,1.78,0,0,1,.85.75"/><path class="cls-6" d="M24.25,92.2v1.4L22.3,95.45l-2.1-.8v-2.6l2.9,1.35,1.15-1.2"/><path class="cls-8" d="M24.25,92.2,23.1,93.4l.25-10.7L30,75.6V86.1l-5.75,6.1"/><path class="cls-7" d="M13.9,78.2l9.45,4.5L23.1,93.4l-2.9-1.35-6.3-3V78.2"/></g></g></svg>