<svg xmlns="http://www.w3.org/2000/svg" viewBox="0 0 120 140"><defs><style>.cls-1{fill:#a4afaf;}.cls-2{fill:#bb8044;}.cls-3{fill:#9ba6a6;}.cls-4{fill:#aa753e;}.cls-5{fill:#a9b6b6;}.cls-6{fill:#c68a4e;}</style></defs><title>Asset 82</title><g id="Layer_2" data-name="Layer 2"><g id="Layer_1-2" data-name="Layer 1"><path class="cls-1" d="M97.05,99.1l4.2-2.5A4.75,4.75,0,0,0,102.8,95a4.36,4.36,0,0,0,.55-2.15V70.65l-2.1-3.1,2.1-3.3V47a4.07,4.07,0,0,0-.55-2.1,4.26,4.26,0,0,0-1.55-1.6l-13.6-7.95.6-.7-9-4.15L65.7,22.6l-3.8-2.25a4.14,4.14,0,0,0-2.2-.65l-.9.1a3.74,3.74,0,0,0-1.25.55L51.9,23.7l-1.4.2.1.55-6.85,4L42.4,31h-3l-6.3-2.9-5.8,6.8,5.6,2.65-.45,1.1H26.2l-8,4.65A4.54,4.54,0,0,0,16.05,47V62.6l-3.9,4.55L16.05,69v8.1l.45.8-3.9-1.8L8.9,80.45l5.9,2.75L17.6,80l.9,1.75-2.45,3v8.15a4.11,4.11,0,0,0,.6,2.15,4.18,4.18,0,0,0,1.55,1.6l10,5.85,2.55,1.45,26.85,15.7a4.36,4.36,0,0,0,2.15.55,4.63,4.63,0,0,0,2.2-.55l11.9-6.95,3-4.6L81,110l2.5-2.9,6.85-4-1,1.1L95.2,107l3.7-4.35-4.35-2,1.4-.85,1.1-.65m-8.7-73.5L84.65,30l5.9,2.75,3.7-4.35-5.9-2.75M64.8,17.2l3.7-4.35L62.6,10.1l-3.7,4.35,5.9,2.75M90.9,34.7l5.9,2.75,3.7-4.35-5.9-2.75L90.9,34.7m18.15,34.65,3.7-4.35-5.9-2.75-3.7,4.35,5.9,2.75M120,105,60,140,0,105V35L60,0l60,35v70m-73,9.35-5.9-2.75L37.4,116l5.9,2.75,3.7-4.35m-17.7,2.7L33,112.7,27.1,110l-3.7,4.35,5.9,2.75"/><path class="cls-2" d="M87.65,35.35l13.6,7.95a4.26,4.26,0,0,1,1.55,1.6,4.07,4.07,0,0,1,.55,2.1V64.25l-2.1,3.3,2.1,3.1v22.2A4.36,4.36,0,0,1,102.8,95a4.75,4.75,0,0,1-1.55,1.6l-4.2,2.5-1.2.15.1.5-1.4.85-4.25,2.5-6.85,4L81,108.45l-4.1-.55-.05.15-3,4.6L61.9,119.6a4.63,4.63,0,0,1-2.2.55,4.36,4.36,0,0,1-2.15-.55L30.7,103.9l.2-.7-2.75-.75L18.2,96.6A4.18,4.18,0,0,1,16.65,95a4.11,4.11,0,0,1-.6-2.15V84.7l2.45-3L17.6,80l-1.1-2-.45-.8V47a4.54,4.54,0,0,1,2.15-3.7l8-4.65h6.2l.45-1.1,1.5-3.65,5-2.9h3l1.35-2.55,6.85-4,.6,3.8,4.35-.7-.7-4.35-3,.5,5.65-3.35a3.74,3.74,0,0,1,1.25-.55l-.45,3.8,7.15.8.2-1.8,13.6,7.9,1.35.8,1.65,2.85h3.3l2.05,1.2M91.1,78.5l-2.95-1.25-1.2,3,2.9,1.2,1.25-2.9m6.7-19-.4,3.15,3.15.4.45-3.1-3.2-.45m-3.8,31V85.9H89.4l0,4.55H94m-15,1-2.45,6.15L82.7,100l2.45-6.1L79,91.4M24.3,39.85l-3.75,2.8L23.3,46.4l3.85-2.8L24.3,39.85m2.85,10-6.8,3,3,6.9,6.85-3-3.05-6.9m6.5,1,3.2-2.6L34.3,45.05l-3.25,2.6,2.6,3.25M28.1,92.3l-4.05-1-1,4,4.05,1,1-4m3.15,5.75,6.55,3.5,3.6-6.65-6.6-3.55-3.55,6.7M45.5,105.7l-2-1-1,2,1.9,1,1.15-2"/><path class="cls-3" d="M17.6,80,14.8,83.2,8.9,80.45l3.7-4.35,3.9,1.8,1.1,2m15.25-42.4-5.6-2.65,5.8-6.8,6.3,2.9-5,2.9-1.5,3.65M88.35,25.6l5.9,2.75-3.7,4.35L84.65,30l3.7-4.35M64.8,17.2l-5.9-2.75,3.7-4.35,5.9,2.75L64.8,17.2M29.3,117.05l-5.9-2.75L27.1,110,33,112.7l-3.7,4.35"/><path class="cls-4" d="M97.05,99.1l-1.1.65-.1-.5,1.2-.15M30.7,103.9l-2.55-1.45,2.75.75-.2.7M58.8,19.8l.9-.1a4.14,4.14,0,0,1,2.2.65l3.8,2.25-.2,1.8-7.15-.8.45-3.8M79,91.4l6.15,2.45L82.7,100l-6.15-2.4L79,91.4m15-1H89.45l0-4.55H94v4.55M24.3,39.85l2.85,3.75L23.3,46.4l-2.75-3.75,3.75-2.8m9.35,11-2.6-3.25,3.25-2.6,2.55,3.25-3.2,2.6M28.1,92.3l-1,4-4.05-1,1-4,4.05,1m17.4,13.4-1.15,2-1.9-1,1-2,2,1"/><path class="cls-5" d="M94.55,100.6l4.35,2L95.2,107l-5.9-2.75,1-1.1,4.25-2.5m-11.1,6.45L81,110l-4.1-1.9.05-.15,4.1.55,2.45-1.4M16.05,69l-3.9-1.85,3.9-4.55V69M79.3,30.5l9,4.15-.6.7-2.05-1.2H82.3L80.65,31.3l-1.35-.8m11.6,4.2,3.7-4.35,5.9,2.75-3.7,4.35L90.9,34.7m18.15,34.65-5.9-2.75,3.7-4.35,5.9,2.75-3.7,4.35m-62,45-3.7,4.35L37.4,116l3.7-4.35,5.9,2.75"/><path class="cls-6" d="M50.6,24.45l-.1-.55,1.4-.2,3-.5.7,4.35-4.35.7-.6-3.8m47.2,35,3.2.45-.45,3.1-3.15-.4.4-3.15m-6.7,19-1.25,2.9L87,80.2l1.2-3L91.1,78.5M27.15,49.85l3.05,6.9-6.85,3-3-6.9,6.8-3m4.1,48.2,3.55-6.7,6.6,3.55-3.6,6.65-6.55-3.5"/></g></g></svg>