<svg xmlns="http://www.w3.org/2000/svg" viewBox="0 0 120 140"><defs><style>.cls-1{fill:#bb8044;}.cls-2{fill:#aa753e;}.cls-3{fill:#c68a4e;}.cls-4{fill:#a4afaf;}.cls-5{fill:#727979;}.cls-6{fill:#a6b1b1;}.cls-7{fill:#b9c6c6;}.cls-8{fill:#d5e5e5;}.cls-9{fill:#e6f7f7;}.cls-10{fill:#8e4124;}.cls-11{fill:#f78256;}.cls-12{fill:#b6603f;}.cls-13{fill:#d26f49;}.cls-14{fill:#4a4f4f;}.cls-15{fill:#aeaeae;}.cls-16{fill:#4f5454;}.cls-17{fill:#8c9595;}.cls-18{fill:#798080;}.cls-19{fill:#636969;}</style></defs><title>Asset 101</title><g id="Layer_2" data-name="Layer 2"><g id="Layer_1-2" data-name="Layer 1"><path class="cls-1" d="M41.7,95,35.1,91.4l-3.55,6.7,6.55,3.5L41.7,95m61.75-26.9,6.55.75.75-6.55-6.55-.8-.75,6.6M109,53.6l-4.4,1.2,1.2,4.45,4.4-1.25L109,53.6m-11.25,9,3.15.4.45-3.1-3.2-.45-.4,3.15m5.55,35.55-7.1,1.1,1,7,7.1-1.1-1-7M109,91.85l-4,1.85,1.75,4,4-1.85-1.75-4M94.3,90.5V86H89.7l0,4.55H94.3m-4.15-9,1.25-2.9-3-1.25-1.2,3,2.9,1.2M120,105,60,140,0,105V35L60,0l60,35v70M13.75,53.4l-2,.9.85,2.1,2-.95-.85-2.05M24.6,39.9l-3.75,2.8,2.75,3.75,3.85-2.8L24.6,39.9m2.85,10-6.8,3,3,6.9,6.85-3-3.05-6.9m3.9-2.2L34,51l3.2-2.6L34.6,45.1l-3.25,2.6M51.5,28.3l4.35-.7-.7-4.35L50.8,24l.7,4.35M24.35,91.4l-1,4,4,1,1-4.05-4-.95M83,100l2.45-6.1L79.3,91.45,76.85,97.6,83,100M58.65,23.65l7.15.8.8-7-7.1-.8-.85,7M42.75,106.7l1.9,1,1.15-2-2-1-1,2M31.2,103.25,26.65,102l-1.2,4.55,4.5,1.2,1.25-4.45"/><path class="cls-2" d="M109,53.6l1.2,4.4-4.4,1.25-1.2-4.45,4.4-1.2m-5.5,14.45.75-6.6,6.55.8L110,68.8l-6.55-.75m-.2,30.15,1,7-7.1,1.1-1-7,7.1-1.1m-9-7.7H89.75l0-4.55h4.6V90.5M24.6,39.9l2.85,3.75-3.85,2.8L20.85,42.7l3.75-2.8M13.75,53.4l.85,2.05-2,.95-.85-2.1,2-.9m17.6-5.7,3.25-2.6,2.55,3.25L34,51l-2.6-3.25m27.3-24.05.85-7,7.1.8-.8,7.05-7.15-.8M83,100l-6.15-2.4,2.45-6.15,6.15,2.45L83,100M24.35,91.4l4,.95-1,4.05-4-1,1-4m6.85,11.85L30,107.7l-4.5-1.2,1.2-4.55,4.55,1.3m11.55,3.45,1-2,2,1-1.15,2-1.9-1"/><path class="cls-3" d="M97.7,62.65l.4-3.15,3.2.45-.45,3.1-3.15-.4M109,91.85l1.75,4-4,1.85-1.75-4,4-1.85M90.15,81.45l-2.9-1.2,1.2-3,3,1.25-1.25,2.9M27.45,49.9l3.05,6.9-6.85,3-3-6.9,6.8-3M51.5,28.3,50.8,24l4.35-.7.7,4.35-4.35.7M41.7,95l-3.6,6.65-6.55-3.5,3.55-6.7L41.7,95"/><path class="cls-4" d="M113.2,39a6,6,0,0,0-2.2-2.15h0l-48-28A5.91,5.91,0,0,0,60,8a5.63,5.63,0,0,0-3,.85l-48,28A5.55,5.55,0,0,0,6.85,39,5.63,5.63,0,0,0,6,42V98.05a5.57,5.57,0,0,0,.85,3A5.9,5.9,0,0,0,9,103.2l48,28a6,6,0,0,0,3,.8,6.26,6.26,0,0,0,3-.8l48-28h0a6.35,6.35,0,0,0,2.2-2.2,5.89,5.89,0,0,0,.8-3V42a6,6,0,0,0-.8-3m6.8,66L60,140,0,105V35L60,0l60,35v70"/><path class="cls-5" d="M92.75,49.75l.3,1v7.55a2,2,0,0,1-.4,1.2L90.85,62l-1.1.75-1.35-.1L44.25,42.05l-.8-.75a1.89,1.89,0,0,1-.35-1.1V32.35a1.82,1.82,0,0,1,.6-1.4l2.15-2.1A2,2,0,0,1,47,28.3l1.15.15L91.9,49l.85.75m-3.5,11,1.8-2.45V50.8L47.25,30.25l-2.15,2.1V40.2L89.25,60.8"/><path class="cls-6" d="M89.25,60.8V52.9l1.8-2.1v7.55l-1.8,2.45"/><path class="cls-7" d="M89.25,60.8,45.1,40.2V32.35L89.25,52.9v7.9"/><path class="cls-8" d="M45.1,32.35l2.15-2.1L91.05,50.8l-1.8,2.1L45.1,32.35"/><path class="cls-5" d="M37.15,64.75l-.75.9L32.1,72.1l27.75,13L77.3,64.45l-4.3-5-1.35-.65L50.15,48.5l-13,16.25m13.9-18L73.9,57.65l.65.5,4.3,5a2.1,2.1,0,0,1,0,2.6L61.4,86.4l-1.1.65L59,86.9l-27.75-13-.85-.75a2,2,0,0,1-.3-1.05,1.89,1.89,0,0,1,.35-1.1l4.3-6.45.1-.15L48.6,47.25a2,2,0,0,1,1.1-.7l1.35.15"/><path class="cls-9" d="M71.65,58.8l1.35.65L58.85,76.15,36.4,65.65l.75-.9,21.3,9.6L71.65,58.8"/><path class="cls-6" d="M73,59.45l4.3,5L59.85,85.1l-1-8.95L73,59.45"/><path class="cls-7" d="M59.85,85.1,32.1,72.1l4.3-6.45,22.45,10.5,1,8.95"/><path class="cls-8" d="M37.15,64.75l13-16.25,21.5,10.3L58.45,74.35l-21.3-9.6"/><path class="cls-10" d="M37.9,60.9l.25-.9,5.4-10.75.25-.4L49.6,42a1.87,1.87,0,0,1,1.1-.65L52,41.5l1.75.85.55,2.45L51.1,43.3l-5.8,6.85L39.9,60.9h-2m29.15-6.65,1.2,4.5v1l-.4.85-8.5,10a2.11,2.11,0,0,1-1.1.65L57,71.1l-5.8-2.7-.55-2.5,7.2,3.35,8.5-10-1.45-5.5,2.2.5"/><path class="cls-5" d="M67.05,54.25l-2.2-.5,4-4.75-1.5-5.5-8.55-4L54.25,44.8l-.55-2.45,3.6-4.2a1.87,1.87,0,0,1,1.1-.65l1.25.15L68.2,41.7l.7.55.4.75,1.5,5.5v1l-.4.85-3.35,4M51.15,68.4l-1.8,2-1.1.65L47,71,44.1,69.6l-.85-.7L43,68.3l-.45.15-1.3-.15L38.4,67l-.85-.7a2.09,2.09,0,0,1-.3-1.1V62.8a1.89,1.89,0,0,1,.5-1.3l.2-.2-.05-.4h2l.7.35L39.25,62.8v2.35L42.1,66.5l2.65-3.1.15-.15,1.4.65L45,65.5v2.3l2.85,1.35,2.8-3.25.55,2.5"/><path class="cls-11" d="M45.3,50.15l5.8-6.85,3.15,1.5,8.15,3.85,1.2.55L57.85,56,45.3,50.15"/><path class="cls-6" d="M67.35,43.5l1.5,5.5-4,4.75L63.6,49.2l-1.2-.55,4.95-5.15M55.4,57.85l-.7,3.2L50.6,65.9l-2.8,3.25V66.8l7.6-8.95M42.1,66.5V64.15l7.6-9L49,58.35l-3.15,3.8-1.1,1.25L42.1,66.5"/><path class="cls-12" d="M63.6,49.2l1.25,4.55,1.45,5.5-8.5,10L57.85,56l5.75-6.8"/><path class="cls-8" d="M67.35,43.5,62.4,48.65,54.25,44.8l4.55-5.35,8.55,4m-21,20.4,6.25-7.4,2.85,1.35L47.8,66.8,45,65.5l1.35-1.6m-4.2.25L39.25,62.8l1.35-1.55,6.25-7.4L49.7,55.2l-7.6,9"/><path class="cls-13" d="M39.9,60.9l5.4-10.75L57.85,56,57.8,69.25,50.6,65.9l4.1-4.85.7-3.2L52.55,56.5,46.3,63.9l-1.4-.65.25-.25.25-.3.45-.55L49,58.35l.7-3.15-2.85-1.35-6.25,7.4-.7-.35"/><path class="cls-14" d="M47.8,66.8v2.35L45,67.8V65.5l2.85,1.3m-5.7-2.65V66.5l-2.85-1.35V62.8l2.85,1.35"/><path class="cls-15" d="M44.75,63.4l1.1-1.25-.45.55-.25.3-.25.25-.15.15"/><path class="cls-16" d="M61.65,92.9l-4.45-.5a2,2,0,0,1-1.9-2V79.15a1.83,1.83,0,0,1,.55-1.35l2.3-2.45a1.71,1.71,0,0,1,.7-.5l.85-.15q13.5.45,22.45,7.8a36,36,0,0,1,5.1,5.15,2.05,2.05,0,0,1,.4,1.25v11.85l-.45,1.3-3.5,4.2V103.1l2-2.35V88.9a33.93,33.93,0,0,0-3.5-3.75q-8.75-8-22.55-8.45l-2.3,2.45V90.4a44.31,44.31,0,0,1,8,1.2L64.1,93.1l-2.45-.2"/><path class="cls-17" d="M57.3,79.15l2.3-2.45q13.8.45,22.55,8.45a33.93,33.93,0,0,1,3.5,3.75l-2,2.45L82.15,89.7Q72.4,80,57.3,79.15"/><path class="cls-5" d="M61.65,92.9l2.45.2-5.45,6.35v6l16.7,7.7,8.35-10.1v3.15l-6.8,8.25a2.11,2.11,0,0,1-1.1.65l-1.25-.1-16.7-7.7L57,106.6a1.89,1.89,0,0,1-.35-1.1v-6a1.89,1.89,0,0,1,.5-1.3l4.5-5.25"/><path class="cls-7" d="M74,102.85,64.75,98.4V95.2L74,99.45v3.4m1.35,10.35-16.7-7.7v-6l16.7,7.65v6.1"/><path class="cls-8" d="M64.1,93.1l1.25-1.5a34.4,34.4,0,0,1,6.2,2.05l5,2.75-2.6,3L64.75,95.2v3.2L74,102.85l4.3-5.25,3,2.5-6,7-16.7-7.65L64.1,93.1"/><path class="cls-18" d="M65.35,91.6a44.31,44.31,0,0,0-8-1.2V79.15Q72.41,80,82.15,89.7l1.55,1.65V102.6L82.15,101l-.85-.85-3-2.5-1.7-1.2-5-2.75a34.4,34.4,0,0,0-6.2-2.05"/><path class="cls-19" d="M85.65,88.9v11.35l-2,2.35V91.35l2-2.45"/><path class="cls-6" d="M85.65,100.25v.5l-2,2.35-8.35,10.1v-6.1l6-7,.85.85,1.55,1.65,2-2.35M74,102.85v-3.4l2.6-3,1.7,1.2L74,102.85"/></g></g></svg>