<svg xmlns="http://www.w3.org/2000/svg" viewBox="0 0 120 140"><defs><style>.cls-1{fill:#ecdcb8;}.cls-2{fill:#e0d1af;}.cls-3{fill:#e5d5b2;}.cls-4{fill-opacity:0.1;}.cls-5{fill:#464646;}.cls-6{fill:#775029;}.cls-7{fill:gray;}.cls-8{fill:#a8733d;}.cls-9{fill:#855b30;}.cls-10{fill:#bd9560;}.cls-11{fill:#836742;}.cls-12{fill:#747474;}.cls-13{fill:#666;}.cls-14{fill:#bb8044;}.cls-15{fill:#8a8a8a;}.cls-16{fill:#92734a;}.cls-17{fill:#917249;}.cls-18{fill:#5b4c3c;}.cls-19{fill:#a07a50;}.cls-20{fill:#be9060;}.cls-21{fill:#d8a36d;}.cls-22{fill:#1a7741;}.cls-23{fill:#27ae60;}.cls-24{fill:#2bc46c;}</style></defs><title>Asset 153</title><g id="Layer_2" data-name="Layer 2"><g id="Layer_1-2" data-name="Layer 1"><path class="cls-1" d="M63.3,105.75l-2-1-1,2,1.9,1,1.15-2M17.3,24.9h.05l1-.6,27.5-16h0L60,0l60,35v70L60,140,0,105V35q8.65-5,17.25-10l.05-.05M21.45,41l3.2-2.6L22.1,35.1l-3.25,2.6L21.45,41M10.1,48.9l2-.95-.85-2.05-2,.9.85,2.1m4.5-11.5-3.75,2.8L13.6,44l3.85-2.8L14.6,37.4M6,69.9v22a39.28,39.28,0,0,1,17-8.7l-.05,0q18-5.55,25.8-19.1l2-3.95a44.24,44.24,0,0,0,2.4-7.05A51.77,51.77,0,0,1,60,38.75,38.37,38.37,0,0,1,83.1,23.1l0-.05,2.8-.9L65.9,10.5a44.83,44.83,0,0,1-3.35,7.35L60,21.75q-7.85,10.35-23,15l0,.05Q17.9,41.61,9.5,60.1A60.49,60.49,0,0,0,6.85,67L6,69.9M113.2,39a6,6,0,0,0-2.2-2.15h0l-5.65-3.3a61.49,61.49,0,0,1-8.35,3.25l0,.05Q77.94,41.61,69.55,60.1A53.62,53.62,0,0,0,67,67a43.55,43.55,0,0,1-4.4,11L60,81.85Q52.11,92.2,37,96.9l0,0a39,39,0,0,0-19.6,11.2l30.3,17.65,1-1.7,2-3.95a42.65,42.65,0,0,0,2.4-7A51.69,51.69,0,0,1,60,98.8,38.43,38.43,0,0,1,83.1,83.2l0,0q18-5.55,25.75-19.1l2-3.95a39,39,0,0,0,2.4-7.05l.8-2.35V42a6,6,0,0,0-.8-3M87.25,95.5H91.8V91H87.2l0,4.55m4.15-9.45-3-1.25-1.2,3,2.9,1.2,1.25-2.9m-14.6,5.4L74.35,97.6,80.5,100,83,93.9,76.8,91.45M78.55,33l1.75,4,4-1.85-1.75-4-4,1.85m.75,7.4-3.2-.45-.4,3.15,3.15.4.45-3.1M48.3,19,49,23.3l4.35-.7-.7-4.35L48.3,19M97.1,97q-19.15,4.76-27.55,23.2A53.62,53.62,0,0,0,67,127l-.65,2.3,44.75-26.1h0a6.35,6.35,0,0,0,2.2-2.2,5.89,5.89,0,0,0,.8-3v-10a49.44,49.44,0,0,1-17,8.8l0,0M64.75,122.6l-1.75-4-4,1.85,1.75,4,4-1.85M41.5,85.2l-6.6-3.55-3.55,6.7,6.55,3.5,3.6-6.65M26.1,92.9l4,1,1-4.05-4-.95-1,4M58.8,61.45H54.2l0,4.55H58.8V61.45M58,72l-7.1,1.1,1,7L59,79l-1-7m48.75-.5-.75,6.6,6.55.75.75-6.55-6.55-.8"/><path class="cls-2" d="M18.35,24.3l-1,.6H17.3l1.05-.6"/><path class="cls-3" d="M14.6,37.4l2.85,3.75L13.6,44,10.85,40.2l3.75-2.8M10.1,48.9l-.85-2.1,2-.9L12.1,48l-2,.95M21.45,41l-2.6-3.25,3.25-2.6,2.55,3.25L21.45,41m91.75-2a6,6,0,0,1,.8,3v8.7l-.8,2.35a39,39,0,0,1-2.4,7.05l-2,3.95Q101,77.6,83.05,83.15l0,0A38.43,38.43,0,0,0,60,98.8a51.69,51.69,0,0,0-6.8,14.35,42.65,42.65,0,0,1-2.4,7l-2,3.95-1,1.7-30.3-17.65A39,39,0,0,1,37.05,97l0,0q15.11-4.7,23-15.05l2.6-3.9A43.55,43.55,0,0,0,67,67a53.62,53.62,0,0,1,2.6-6.85Q78,41.61,97.1,36.85l0-.05a61.49,61.49,0,0,0,8.35-3.25l5.65,3.3h0A6,6,0,0,1,113.2,39M6,69.9l.85-3A60.49,60.49,0,0,1,9.5,60.1q8.4-18.49,27.55-23.25l0-.05q15.11-4.69,23-15l2.6-3.9A44.83,44.83,0,0,0,65.9,10.5L85.85,22.15l-2.8.9,0,.05A38.37,38.37,0,0,0,60,38.75a51.77,51.77,0,0,0-6.8,14.3,44.24,44.24,0,0,1-2.4,7.05l-2,3.95Q40.95,77.6,23,83.15l.05,0A39.28,39.28,0,0,0,6,91.9v-22M48.3,19l4.35-.7.7,4.35L49,23.3,48.3,19m31,21.4-.45,3.1-3.15-.4.4-3.15,3.2.45M78.55,33l4-1.85,1.75,4L80.3,37l-1.75-4M76.8,91.45,83,93.9,80.5,100l-6.15-2.4,2.45-6.15m14.6-5.4L90.15,89l-2.9-1.2,1.2-3,3,1.25M87.25,95.5l0-4.55h4.6V95.5H87.25M97.1,97l0,0a49.44,49.44,0,0,0,17-8.8v10a5.89,5.89,0,0,1-.8,3,6.35,6.35,0,0,1-2.2,2.2h0L66.3,129.3,67,127a53.62,53.62,0,0,1,2.6-6.85Q78,101.7,97.1,97m9.6-25.5,6.55.8-.75,6.55L106,78.05l.75-6.6M58,72l1,7-7.1,1.1-1-7L58,72m.85-10.5V66H54.25l0-4.55h4.6M26.1,92.9l1-4,4,.95-1,4.05-4-1m15.4-7.7-3.6,6.65-6.55-3.5,3.55-6.7,6.6,3.55m23.25,37.4-4,1.85-1.75-4,4-1.85,1.75,4M63.3,105.75l-1.15,2-1.9-1,1-2,2,1"/><path class="cls-4" d="M74.05,83.15A24.56,24.56,0,0,1,59.6,79q-6-4.15-6-10t6-10.1a24.75,24.75,0,0,1,14.45-4.15A24.75,24.75,0,0,1,88.5,58.8q6,4.2,6,10.1t-6,10a24.56,24.56,0,0,1-14.45,4.2"/><path class="cls-5" d="M59,35.75,55.25,30.4a2,2,0,0,1-.4-1.2,2.15,2.15,0,0,1,.5-1.25L64.5,17.1a1.71,1.71,0,0,1,.7-.5l.85-.2,17.25.5.9.25.7.6,8,11.3a2.31,2.31,0,0,1,.35,1.25l-.45,1.2-3.7,4.35-2-.7L91.3,30.2l-8-11.3L66,18.4,56.85,29.25,61,35.15v.1l-2,.5"/><path class="cls-6" d="M59,35.75l2-.5V46l-.4,1.85-4.15,19,1.95,1,1.25-1.5,3.2-17.65,2.5,3.45L65.1,53.6l-.5,3.6,1.35.65L63.65,78l2,1,1.25-1.5,1.8-22.75v0l10,.3L80.35,78l2,.9,1.25-1.45-2.1-20.1,1.75.8,1.25-1.45L83.6,51V50.9l1.5-1.75.3,1.7,3.1,17.5,2,1,1.25-1.5-4.6-21.1V35.15l2,.7V46.5L93.7,67.4v.9l-.4.8-1.25,1.5a2.11,2.11,0,0,1-1.1.65l-1.3-.15-2-.95-.75-.6-.35-.85-1.7-9.4-.1.15-1,.65,1.8,17.15-.1.8-.35.7L83.85,80.2a2.11,2.11,0,0,1-1.1.65l-1.3-.1-2-.9-.8-.7-.35-1L76.9,56.85l-6.35-.2L68.9,77.55l-.45,1.15L67.2,80.2a2.11,2.11,0,0,1-1.1.65l-1.3-.15-2-1-.9-.8a1.9,1.9,0,0,1-.2-1.2l2.15-18.7-.1,0-.65-.45-1.45,8-.45,1L60,69.05a2.11,2.11,0,0,1-1.1.65l-1.3-.15-1.95-1a1.94,1.94,0,0,1-1-.9,2,2,0,0,1-.15-1.3L59,45.75v-10"/><path class="cls-7" d="M61,35.15l-4.15-5.9L74.1,22.3,64.9,40.55,61.05,35.2l0-.1v0M91.3,30.2l-4.15,4.95-5.05,6-8-18.8,17.2,7.9"/><path class="cls-8" d="M61,35.25V35.1l0,.1,3.85,5.35,17.2.55,5.05-6V46.7l-.75.95-.2.15v.05l-1.1,1.3L83.6,50.9v0l-.5.7-2,2.35v0l-.3.4-.6.7V42.1l-13.1-.25v12.7l1,.05L65.65,78.9l-2-1L66,57.85,64.6,57.2l.5-3.6,1.2,1.6.2-1.45-1.15-1.7-2.5-3.45-.6-.85-.15-.2L61,46V35.25m24.4,15.6,1.15-1.4,4,19.85-2-1-3.1-17.5m-2.2,7.3-1.75-.8L81.3,55.7l1.4-1.65.5,4.1M82.3,78.9l-2-.9-1.6-23.1L80.2,55l2.1,24M58.4,67.75l-1.95-1,4.15-19L62,49.5,58.4,67.75"/><path class="cls-9" d="M58.4,67.75,62,49.5,60.6,47.8,61,46l1.1,1.6.15.25.6.8-3.2,17.65-1.25,1.5m26.7-18.6,1.1-1.3V47.8l.2-.15.75-.95,4.6,21.1L90.5,69.3l-4-19.85-1.15,1.4-.3-1.7M80.2,55l.6-.7.3-.35,2-2.35.5-.65V51l.85,5.75L83.2,58.15l-.5-4.1L81.3,55.7l.15,1.65,2.1,20.1L82.3,78.9,80.2,55m-11.5-.3L66.9,77.4l-1.25,1.5L68.1,54.6l.6,0m-3.6-1,.25-1.55,1.15,1.7-.2,1.45-1.2-1.6"/><path class="cls-10" d="M62.25,47.75v0l-.15-.25.15.2"/><path class="cls-11" d="M62.25,47.75l.6.85-.6-.8v0"/><path class="cls-12" d="M56.85,29.25,66,18.4l8.1,3.9,9.15-3.4,8,11.3L74.1,22.3l-17.25,7"/><path class="cls-13" d="M66,18.4l17.25.5L74.1,22.3,66,18.4"/><path class="cls-14" d="M68.1,54.6l-1-.05V41.85l13.1.25V55l-1.45-.05-10-.3h-.6"/><path class="cls-15" d="M64.9,40.55,74.1,22.3l8,18.8-17.2-.55"/><path class="cls-16" d="M83.1,51.55l.5-.7v0l-.5.65M68.7,54.6v0l-.6,0h.6"/><path class="cls-17" d="M80.8,54.25l.3-.4v0l-.3.35"/><path class="cls-18" d="M39.75,77l8,3.75.85.75.3,1v8.6a2,2,0,0,1-.45,1.3l-4.9,5.8a2.11,2.11,0,0,1-1.1.65l-1.3-.1L33.1,95l-.8-.75a1.89,1.89,0,0,1-.35-1.1V84.6a1.89,1.89,0,0,1,.5-1.3l4.95-5.85a1.87,1.87,0,0,1,1.1-.65l1.25.15M42,96.9l4.9-5.8V82.5l-8-3.75L34,84.6v8.55l8,3.75"/><path class="cls-19" d="M42,96.9V88.35l4.9-5.85v8.6L42,96.9"/><path class="cls-20" d="M42,96.9l-8-3.75V84.6l8,3.75V96.9"/><path class="cls-21" d="M46.9,82.5,42,88.35,34,84.6l4.95-5.85,8,3.75"/><path class="cls-18" d="M19.35,88.3a1.76,1.76,0,0,1,.3-1l.8-.75,7.6-4,1.25-.2a2.08,2.08,0,0,1,1.15.6l5.4,5.8a2,2,0,0,1,.5,1.35V98.7l-.3,1-.75.75-7.6,4-1.3.2-1.1-.6-5.4-5.8a2,2,0,0,1-.55-1.4V88.3m2,0v8.55l5.4,5.8,7.6-4V90.15L29,84.35l-7.6,4"/><path class="cls-20" d="M21.35,88.3l5.4,5.8v8.55l-5.4-5.8V88.3"/><path class="cls-21" d="M21.35,88.3l7.6-4,5.4,5.8-7.6,3.95-5.4-5.8"/><path class="cls-19" d="M34.35,90.15V98.7l-7.6,4V94.1l7.6-3.95"/><path class="cls-18" d="M25.7,76.15V84.7l8.05,3.75,4.9-5.8v-8.6l-8-3.75L25.7,76.15m-2,0a1.89,1.89,0,0,1,.5-1.3L29.15,69a1.87,1.87,0,0,1,1.1-.65l1.25.15,8,3.75.85.75.3,1v8.6A2,2,0,0,1,40.2,84l-4.9,5.8a2.11,2.11,0,0,1-1.1.65l-1.3-.1-8-3.75-.8-.75a1.89,1.89,0,0,1-.35-1.1V76.15"/><path class="cls-20" d="M33.75,88.45l-8-3.75V76.15l8.05,3.75v8.55"/><path class="cls-19" d="M33.75,88.45V79.9l4.9-5.85v8.6l-4.9,5.8"/><path class="cls-21" d="M25.7,76.15l4.95-5.85,8,3.75-4.9,5.85-8-3.75"/><path class="cls-4" d="M83,91.6q0-2.05,2.55-3.55a13.77,13.77,0,0,1,12.3,0q2.55,1.5,2.55,3.55c0,1.37-.85,2.53-2.55,3.5a13.36,13.36,0,0,1-12.3,0C83.85,94.13,83,93,83,91.6"/><path class="cls-22" d="M95.3,64.75a5.14,5.14,0,0,1,1.55,3.5h.75l.4,0a4,4,0,0,1,2.9,1.2,3.87,3.87,0,0,1,1.15,2.85v5.3a6.33,6.33,0,0,1-1.8,4.5l-.25.25a6.41,6.41,0,0,1-3.15,1.5v5.75a3.67,3.67,0,0,1-1.9,3.3,6.27,6.27,0,0,1-3.5,1,6.37,6.37,0,0,1-3.55-1,3.67,3.67,0,0,1-1.9-3.3v-3a6.1,6.1,0,0,1-2.9-1.65l-.1,0a6.33,6.33,0,0,1-1.8-4.5V75.05a3.85,3.85,0,0,1,1.2-2.9A3.8,3.8,0,0,1,85.25,71l.6,0,.15,0v-2.5a5.11,5.11,0,0,1,1.55-3.75l0,0a5.18,5.18,0,0,1,3.85-1.65,5.12,5.12,0,0,1,3.85,1.7v0M88,84.65v4.9a1.88,1.88,0,0,0,1,1.6,4.43,4.43,0,0,0,2.45.65,4.35,4.35,0,0,0,2.4-.65,1.88,1.88,0,0,0,1-1.6V81.9h.85a4.16,4.16,0,0,0,3-1.25h0a4.34,4.34,0,0,0,1.25-3.1v-5.3a2.05,2.05,0,0,0-3.5-1.45,1.91,1.91,0,0,0-.65,1.45v5.3l-.05.15-.15.1-.85,0v-9.2a3.27,3.27,0,0,0-1-2.4,3.21,3.21,0,0,0-2.4-1.05A3.5,3.5,0,0,0,88,68.55v12l-.45,0-.15,0v0l-.1-.15V75.05a2,2,0,0,0-.6-1.5,2.05,2.05,0,0,0-2.9,0,2,2,0,0,0-.6,1.5V80.3a4.27,4.27,0,0,0,4.35,4.35H88"/><path class="cls-23" d="M88,84.65h.45A1.91,1.91,0,0,0,89.9,84a2,2,0,0,0,.6-1.45,1.91,1.91,0,0,0-.65-1.45,2,2,0,0,0-1.45-.6H88v-12a3.5,3.5,0,0,1,3.45-3.45,3.21,3.21,0,0,1,2.4,1.05,3.27,3.27,0,0,1,1,2.4v9.2l.85,0,.15-.1.05-.15v-5.3a1.91,1.91,0,0,1,.65-1.45,2.05,2.05,0,0,1,3.5,1.45v5.3a4.34,4.34,0,0,1-1.25,3.1h0a4.16,4.16,0,0,1-3,1.25h-.85v7.65a1.88,1.88,0,0,1-1,1.6,4.35,4.35,0,0,1-2.4.65A4.43,4.43,0,0,1,89,91.15a1.88,1.88,0,0,1-1-1.6v-4.9"/><path class="cls-24" d="M88,84.65h-.45A4.27,4.27,0,0,1,83.2,80.3V75.05a2,2,0,0,1,.6-1.5,2.05,2.05,0,0,1,2.9,0,2,2,0,0,1,.6,1.5V80.3l.1.15v0l.15,0,.45,0h.4a2,2,0,0,1,1.45.6,1.91,1.91,0,0,1,.65,1.45A2,2,0,0,1,89.9,84a1.91,1.91,0,0,1-1.45.65H88"/></g></g></svg>