<svg xmlns="http://www.w3.org/2000/svg" xmlns:xlink="http://www.w3.org/1999/xlink" viewBox="0 0 120 140"><defs><style>.cls-1{fill:#bb6444;}.cls-2{fill:#c26948;}.cls-3{fill:#b55f40;}.cls-4{fill:#c16ee2;}.cls-5{fill:#593269;}.cls-6{fill:#9b59b6;}.cls-7{fill:#79468e;}.cls-8{fill:#ecdcb8;}.cls-9{fill:#a6b1b1;}.cls-10{fill:#d5e5e5;}.cls-11{fill:#727979;}.cls-12{fill:#b9c6c6;}.cls-13{fill:url(#linear-gradient);}.cls-14{fill:#856a00;}.cls-15{fill:#743e29;}.cls-16{fill:#ad5c3e;}.cls-17{fill:#d06e4b;}.cls-18{fill:#ecbc00;}.cls-19{fill:#cba200;}.cls-20{fill:#cad9d9;}.cls-21{fill:#fc0;}.cls-22{fill:#934e35;}</style><linearGradient id="linear-gradient" x1="-1729.2" y1="-159.96" x2="-90.8" y2="-159.96" gradientTransform="matrix(-0.01, -0.01, -0.02, 0.02, 63.2, 59.9)" gradientUnits="userSpaceOnUse"><stop offset="0" stop-color="#fc0"/><stop offset="1" stop-color="#ecbc00"/></linearGradient></defs><title>Asset 114</title><g id="Layer_2" data-name="Layer 2"><g id="Layer_1-2" data-name="Layer 1"><path class="cls-1" d="M2.3,44l4.25,3.1,3.1-4.3-4.25-3L2.3,44m21.1,8.2L13.9,50l-2.1,9.55,9.45,2.1,2.15-9.5m1.75-28.6-.55,5.3,5.25.5.55-5.25-5.25-.55M5.3,86.5,2.8,96.1l9.6,2.55L14.9,89,5.3,86.5m8.25-15.9-6.2,6.7,6.7,6.2,6.2-6.75-6.7-6.15M25.15,86,24.6,91.2l5.25.5.55-5.25L25.15,86M0,35,60,0l60,35v70L60,140,0,105V35M113.9,99.1l-5-1.9-1.9,5,5,1.95,1.85-5m0-62.4-5-1.9-1.9,5,5,2,1.85-5m-3,16.95-.5,5.3,5.25.5.6-5.3-5.35-.5M92.75,24.1l-5.25-.55L87,28.85l5.25.5.55-5.25m-7,28.05L76.25,50l-2.1,9.55,9.45,2.1,2.15-9.5M82,35.6l2.3,7.25,7.25-2.3L89.2,33.3,82,35.6M93.2,50.3l-4.8,2.2,2.15,4.85L95.4,55.2l-2.2-4.9m-59-12.65,3.35,4.1,4.15-3.35-3.4-4.1-4.1,3.35M40,28.8l3.85,3.65L47.5,28.6,43.65,25,40,28.8M64.9,7.05,60,9.2,62.2,14l4.85-2.15L64.9,7.05M30.85,50.3l-4.8,2.2,2.15,4.85L33,55.2l-2.15-4.9m26.3,26.45h0L49.8,78.5l1.7,7.4,7.4-1.75-1.75-7.4m2-38.1-5.25.65.6,5.25L59.7,44l-.6-5.3M51.55,36.7l-5-1.9-1.9,5,5.05,2,1.85-5M43.6,46.2l-7.2,2.3,2.25,7.2,7.25-2.25L43.6,46.2M64.9,69.4,60,71.55l2.2,4.85,4.85-2.2L64.9,69.4M41.65,100.75l-3.4-4.1L34.15,100l3.35,4.1,4.15-3.35M31.9,72.3l9.3,1,.65-5.6h0l.4-3.7L33,63,31.9,72.3M51.55,99.1l-5-1.9-1.9,5,5.05,1.95,1.85-5M77.25,89l-9.6-2.5L65.2,96.1l9.55,2.55L77.25,89M82.6,76.75,75.9,70.6l-6.2,6.7,6.75,6.2,6.15-6.75M67,55.6l4.45-1.5L70,49.6l-4.5,1.55L67,55.6m36.55,17.75.65-5.6h0l.4-3.7-9.3-1-1.1,9.3,9.3,1M99.25,83.4l3-4.3L98,76l-3.1,4.3,4.35,3.1m-6.5,3L87.5,86,87,91.2l5.25.5.55-5.25M91.5,103l-2.3-7.3L82,98l2.3,7.25L91.5,103M67,118l4.45-1.55L70,112l-4.5,1.55L67,118m37-17.25-3.4-4.1L96.5,100l3.35,4.1,4.15-3.35M86.7,112.1,77.2,110l-2.1,9.55,9.45,2.1,2.15-9.5m-54.65,2.05-2.2-4.9-4.75,2.2,2.15,4.85,4.8-2.15m32,8.25-5.2.85.8,5.2,5.25-.8-.85-5.25m-25.4-4.3,7.25-2.3-2.3-7.2-7.2,2.25,2.25,7.25"/><path class="cls-2" d="M38.65,118.1l-2.25-7.25,7.2-2.25,2.3,7.2-7.25,2.3M25.15,23.55l5.25.55-.55,5.25-5.25-.5.55-5.3M23.4,52.15l-2.15,9.5-9.45-2.1L13.9,50l9.5,2.15M25.15,86l5.25.5-.55,5.25-5.25-.5L25.15,86M113.9,36.7l-1.85,5-5-2,1.9-5,5,1.9m0,62.4-1.85,5-5-1.95,1.9-5,5,1.9m-21.15-75-.55,5.25L87,28.85l.55-5.3,5.25.55m.45,26.2,2.2,4.9-4.85,2.15L88.4,52.5l4.8-2.2m-62.35,0L33,55.2l-4.8,2.15L26.05,52.5l4.8-2.2M64.9,69.4l2.15,4.8L62.2,76.4,60,71.55l4.9-2.15M51.55,99.1l-1.85,5-5.05-1.95,1.9-5,5,1.9m47.7-15.7L94.9,80.3,98,76l4.3,3.1-3,4.3M91.5,103l-7.25,2.25L82,98l7.25-2.3,2.3,7.3m-4.8,9.15-2.15,9.5-9.45-2.1L77.2,110l9.5,2.15"/><path class="cls-3" d="M2.3,44,5.4,39.7l4.25,3-3.1,4.3L2.3,44M13.55,70.6l6.7,6.15-6.2,6.75-6.7-6.2,6.2-6.7M5.3,86.5,14.9,89l-2.5,9.65L2.8,96.1l2.5-9.6M110.9,53.65l5.35.5-.6,5.3L110.4,59l.5-5.3M82,35.6l7.25-2.3,2.3,7.25-7.25,2.3L82,35.6m3.8,16.55-2.15,9.5-9.45-2.1L76.25,50l9.5,2.15M64.9,7.05l2.15,4.8L62.2,14,60,9.2l4.9-2.15M40,28.8,43.65,25,47.5,28.6l-3.65,3.85L40,28.8m-5.85,8.85,4.1-3.35,3.4,4.1L37.5,41.75l-3.35-4.1M43.6,46.2l2.3,7.25L38.65,55.7,36.4,48.5l7.2-2.3m7.95-9.5-1.85,5-5.05-2,1.9-5,5,1.9m7.55,1.95.6,5.3-5.25.6-.6-5.25,5.25-.65m-2,38.1,1.75,7.4L51.5,85.9l-1.7-7.4,7.3-1.75h0M31.9,72.3,33,63l9.35,1-.4,3.7h0l-.65,5.6-9.3-1m9.75,28.45L37.5,104.1,34.15,100l4.1-3.35,3.4,4.1m61.9-27.4-9.3-1,1.1-9.3,9.3,1-.4,3.7h0l-.65,5.6M67,55.6l-1.55-4.45L70,49.6l1.5,4.5L67,55.6M82.6,76.75,76.45,83.5,69.7,77.3l6.2-6.7,6.7,6.15M77.25,89l-2.5,9.65L65.2,96.1l2.45-9.6,9.6,2.5m15.5-2.55L92.2,91.7,87,91.2,87.5,86l5.25.5M104,100.75l-4.15,3.35L96.5,100l4.1-3.35,3.4,4.1M67,118l-1.55-4.5L70,112l1.5,4.5L67,118m-3,4.4.85,5.25-5.25.8-.8-5.2,5.2-.85m-32-8.25-4.8,2.15-2.15-4.85,4.75-2.2,2.2,4.9"/><path class="cls-4" d="M81.5,35.3,67.75,37.65,64.6,27l13.3-2.6L81.5,35.3"/><path class="cls-5" d="M81.5,35.3,77.9,24.35,64.6,27V48.6l3.15,10.6L71,58.7v1.6l1.15,2.5,2.7-.7v-4l6.65-1.05V35.3M78.9,22.65a1.88,1.88,0,0,1,.9,1.1l3.6,11,.1.6V57.05a2,2,0,0,1-.45,1.3,2.21,2.21,0,0,1-1.25.7l-5,.75v2.3a2.05,2.05,0,0,1-.4,1.25,2.42,2.42,0,0,1-1.1.7l-2.7.7L71.3,64.6a1.91,1.91,0,0,1-1-.95l-1.15-2.5,0-.15-1.1.2-1.35-.3a1.86,1.86,0,0,1-.85-1.1L62.7,49.2l-.1-.6V27a1.92,1.92,0,0,1,.45-1.25,1.74,1.74,0,0,1,1.2-.7l13.3-2.6a1.76,1.76,0,0,1,1.35.25"/><path class="cls-6" d="M67.75,37.65,81.5,35.3V57.05L74.85,58.1,71,58.7l-3.25.5V37.65"/><path class="cls-7" d="M67.75,37.65V59.2L64.6,48.6V27l3.15,10.7"/><path class="cls-8" d="M71,58.7l3.85-.6v4l-2.7.7L71,60.3V58.7"/><path class="cls-9" d="M75.6,48V54.9l-25,29.55v-7L75.6,48m-38.75-8.3L19.5,60.1l-4.25-2L36.85,32.7v6.95M36.3,68v7l-1.7,2v-7l1.7-2"/><path class="cls-10" d="M36.3,68l-1.7,2L10.8,58.9l25-29.55L75.6,48l-25,29.55L43.4,74.15l1.75-2.05,4.4,2.05L66.85,53.7l.35-.35,3.9-4.65-34.25-16L15.25,58.15l4.25,2L36.3,68"/><path class="cls-11" d="M36.3,68,19.5,60.1,36.85,39.65l30,14.05L49.55,74.15l-4.4-2.05L43.4,74.15v7l7.15,3.3,25-29.55V48L35.8,29.35,10.8,58.9v6.95L34.6,77l1.7-2V68M8.8,58.9a1.89,1.89,0,0,1,.5-1.3l25-29.55a1.87,1.87,0,0,1,1.1-.65l1.25.15,39.8,18.6.85.75L77.6,48V54.9a2,2,0,0,1-.45,1.3L52.1,85.75,51,86.4l-1.3-.1L42.55,83l-.8-.75a1.89,1.89,0,0,1-.35-1.1v-7a1.89,1.89,0,0,1,.5-1.3l1.75-2a1.87,1.87,0,0,1,1.1-.65L46,70.3l3,1.4,14.6-17.3L37.4,42.1,22.75,59.4l14.4,6.8L38,67l.3,1v7l-.45,1.3-1.7,2a2.11,2.11,0,0,1-1.1.65l-1.3-.15L10,67.65l-.8-.7a1.89,1.89,0,0,1-.35-1.1V58.9"/><path class="cls-12" d="M34.6,77,10.8,65.85V58.9L34.6,70.05v7m15.95,7.45-7.15-3.3v-7l7.15,3.35v7M66.85,53.7l-30-14.05V32.7l34.25,16-3.9,4.65-.35.35"/><path class="cls-13" d="M50.75,75.4,76.2,45.3q8.35-2.89,16.1,2.85a22.84,22.84,0,0,1,8.55,13.75v.15L75.4,92.15,74.15,88,72.8,85.1a21.64,21.64,0,0,0-6-6.85,22.69,22.69,0,0,0-4.4-2.55l-.3-.2-3.3-.85a15.6,15.6,0,0,0-7.4.5l-.7.25"/><path class="cls-14" d="M50.75,75.4,49,79.8l-2-.4.1-.35,1.75-4.4a1.43,1.43,0,0,1,.35-.55L74.7,44l.85-.6q9.3-3.26,18,3.15a24.34,24.34,0,0,1,8.9,13.5l-1.55,1.85A22.84,22.84,0,0,0,92.3,48.15q-7.76-5.74-16.1-2.85L50.75,75.4"/><path class="cls-12" d="M50.75,75.4l.7-.25a15.6,15.6,0,0,1,7.4-.5l3.3.85.3.2a22.69,22.69,0,0,1,4.4,2.55,21.64,21.64,0,0,1,6,6.85L74.15,88l1.25,4.15v9.4L69.75,99V92.7l-15-7v6.2L49,89.2V79.8l1.75-4.4"/><path class="cls-11" d="M102.4,60.05l.4,1.6,0,.4v9.4a2,2,0,0,1-.45,1.3L77,102.85a2.11,2.11,0,0,1-1.1.65l-1.3-.15L48.15,91l-.8-.7A1.89,1.89,0,0,1,47,89.2V79.8l0-.4,2,.4v9.4l5.8,2.7,15,7,5.65,2.6,25.45-30.1V61.9l1.55-1.85"/><path class="cls-9" d="M75.4,92.15l25.45-30.1v9.4L75.4,101.55v-9.4M54.8,91.9V85.7l15,7V99l-15-7"/><path class="cls-15" d="M107.4,93.5l3.6-9.45-8.2-6.65-5.5-2.6-4.9,3.35L84,85.7l5.85,10.75,17.55-3m1.3,1.55-1,.45-17.55,3-1.2-.2-.9-.85L82.25,86.65a1.78,1.78,0,0,1-.2-1.3,1.74,1.74,0,0,1,.65-1.1l8.4-7.55.2-.2,4.9-3.35a1.8,1.8,0,0,1,1-.35l1,.2,5.5,2.6.4.25,8.2,6.65.7,1,0,1.2-3.6,9.45-.6.85"/><path class="cls-16" d="M102.8,77.4l8.2,6.65-3.6,9.45-5.65-13.4,1-2.7m-13,19L84,85.7l8.4-7.55,1.8,3.2-4.35,15.1"/><path class="cls-1" d="M92.4,78.15l4.9-3.35,5.5,2.6-1,2.7L94.2,81.35l-1.8-3.2"/><path class="cls-17" d="M107.4,93.5l-17.55,3,4.35-15.1,7.55-1.25,5.65,13.4"/><path class="cls-5" d="M94.9,63.65a1.88,1.88,0,0,1,.9,1.1l3.6,11,.1.6V98.05a2,2,0,0,1-.45,1.3,2.21,2.21,0,0,1-1.25.7l-5,.75v2.3a2.05,2.05,0,0,1-.4,1.25l-1.1.7-2.7.7-1.35-.15a1.91,1.91,0,0,1-1-.95l-1.15-2.5,0-.15-1.1.2-1.35-.3a1.86,1.86,0,0,1-.85-1.1L78.7,90.2l-.1-.6V68a1.92,1.92,0,0,1,.45-1.25,1.74,1.74,0,0,1,1.2-.7l13.3-2.6a1.76,1.76,0,0,1,1.35.25M97.5,76.3l-3.6-11L80.6,68V89.6l3.15,10.6L87,99.7v1.6l1.15,2.5,2.7-.7v-4l6.65-1V76.3"/><path class="cls-4" d="M97.5,76.3,83.75,78.65,80.6,68l13.3-2.6,3.6,11"/><path class="cls-7" d="M83.75,100.2,80.6,89.6V68l3.15,10.7V100.2"/><path class="cls-6" d="M83.75,100.2V78.65L97.5,76.3V98.05l-6.65,1L87,99.7l-3.25.5"/><path class="cls-8" d="M90.85,99.1v4l-2.7.7L87,101.3V99.7l3.85-.6"/><path class="cls-11" d="M45,39.8,44.45,38,38.6,35.25l-2.4.4L32.5,40V54l.55,1.75L39,58.45l2.35-.4L45,53.7V39.8m1-3.1.45.75.55,1.8,0,.55V53.7a2,2,0,0,1-.45,1.3l-3.7,4.35a2.17,2.17,0,0,1-1.2.7l-2.35.4-1.2-.15-5.9-2.75-.65-.5-.4-.75-.55-1.75-.1-.6V40a1.89,1.89,0,0,1,.5-1.3l3.7-4.35a1.8,1.8,0,0,1,1.2-.65l2.4-.4,1.15.15L45.3,36.2l.65.5"/><path class="cls-10" d="M32.5,40l3.7-4.35,2.4-.4L44.45,38,45,39.8l-3.7,4.35-2.35.4-5.9-2.75L32.5,40"/><path class="cls-18" d="M32.5,50.45v-7l.55,1.75L39,48v7l-5.9-2.75-.55-1.8"/><path class="cls-12" d="M32.5,50.45l.55,1.8L39,55v3.45l-5.9-2.75L32.5,54v-3.5m0-7V40l.55,1.8L39,44.55V48l-5.9-2.75L32.5,43.5"/><path class="cls-19" d="M45,43.25v7l-3.7,4.35V47.6L45,43.25"/><path class="cls-9" d="M45,43.25,41.3,47.6V44.15L45,39.8v3.45m0,7v3.5l-3.7,4.35v-3.5L45,50.2"/><path class="cls-20" d="M41.3,58.05l-2.35.4V55l2.35-.45v3.5M39,44.55l2.35-.4V47.6L39,48V44.55"/><path class="cls-21" d="M39,55V48l2.35-.4v6.95L39,55"/><path class="cls-22" d="M43.75,109.25l-1.35-2.2,3.6-1,1.35,2.2-3.6,1m14.15-.35-5.85,1.55L49.9,107l5.85-1.55,2.15,3.5m.75.95,5.25-1.4,1.9,3.15L60.55,113l-1.9-3.15M50.8,98.9l-1.35-2.15,3.65-1L54.45,98l-3.65,1m11.4-.4,2.7,4.4-7.35,1.95-2.7-4.4,7.35-2M48.15,99l2.3,3.8-6.35,1.7-2.3-3.8L48.15,99"/></g></g></svg>