<svg xmlns="http://www.w3.org/2000/svg" viewBox="0 0 120 140"><defs><style>.cls-1{fill:#ecdcb8;}.cls-2{fill:#e5d5b2;}.cls-3{fill:#bb6444;}.cls-4{fill:#b55f40;}.cls-5{fill:#c26948;}.cls-6{fill:#e0d1af;}</style></defs><title>Asset 47</title><g id="Layer_2" data-name="Layer 2"><g id="Layer_1-2" data-name="Layer 1"><path class="cls-1" d="M17.3,24.9h.05l1-.6,27.5-16h0L60,0l60,35v70L60,140,0,105V35L17.25,25l.05-.05m86.05,46.45a37.63,37.63,0,0,0,5.45-7.3l2-3.95a39,39,0,0,0,2.4-7.05l.8-2.35V42a5.83,5.83,0,0,0-3-5.15h0l-5.65-3.3a61.49,61.49,0,0,1-8.35,3.25l0,.05c-1.57.4-3.08.87-4.55,1.4L90,36.75l-4.2-2.5-.2-.1H83.9l-1.35-3-1.6.75-.3-.55-7.5-4.4a41.85,41.85,0,0,1,9.95-3.8l0-.05,2.8-.9L65.9,10.5a44.83,44.83,0,0,1-3.35,7.35L61.2,20l-1.5-.3a3.9,3.9,0,0,0-2.15.65l-11.7,6.9-2.1,1.2L42.4,31h-3l-5,2.9L32.6,38.2l-1.2.45H26.2l-8,4.65A4.54,4.54,0,0,0,16.05,47v2.6A43.36,43.36,0,0,0,9.5,60.1,60.49,60.49,0,0,0,6.85,67L6,69.9v22a37.14,37.14,0,0,1,10.05-6.35v7.3a4.11,4.11,0,0,0,.6,2.15,4.18,4.18,0,0,0,1.55,1.6l8,4.65a38.12,38.12,0,0,0-8.7,6.9l30.3,17.65,1-1.7,2-3.95,1.45-3.7,5.35,3.15a4.28,4.28,0,0,0,2.1.55l-.65.3,1.75,4,4-1.85-1.6-3.7L66.4,117l4.15-2.45,3.25-1.9a45.23,45.23,0,0,0-4.25,7.5A53.62,53.62,0,0,0,67,127l-.65,2.3,44.75-26.1h0a6.35,6.35,0,0,0,2.2-2.2,5.89,5.89,0,0,0,.8-3v-10a46.74,46.74,0,0,1-11,6.65,4.56,4.56,0,0,0,.4-1.9V71.35m9.15,7.45.75-6.55-6.55-.8-.75,6.6,6.55.75M52.65,18.25,48.3,19,49,23.3l4.35-.7-.7-4.35m21.15,94.4,3.1-4.75.7.1a39.25,39.25,0,0,0-3.8,4.65M11.25,45.9l-2,.9.85,2.1,2-.95-.85-2.05M13.6,44l3.85-2.8L14.6,37.4l-3.75,2.8L13.6,44m7.85-3,3.2-2.6L22.1,35.1l-3.25,2.6L21.45,41"/><path class="cls-2" d="M21.45,41l-2.6-3.25,3.25-2.6,2.55,3.25L21.45,41m71.1-2.7c1.47-.53,3-1,4.55-1.4l0-.05a61.49,61.49,0,0,0,8.35-3.25l5.65,3.3h0A5.83,5.83,0,0,1,114,42v8.7l-.8,2.35a39,39,0,0,1-2.4,7.05l-2,3.95a37.63,37.63,0,0,1-5.45,7.3v-.7l-2.1-3.1,2.1-3.3V47a4.07,4.07,0,0,0-.55-2.1,4.26,4.26,0,0,0-1.55-1.6l-8.7-5M103,94.75a46.74,46.74,0,0,0,11-6.65v10a5.89,5.89,0,0,1-.8,3,6.35,6.35,0,0,1-2.2,2.2h0L66.3,129.3,67,127a53.62,53.62,0,0,1,2.6-6.85,45.23,45.23,0,0,1,4.25-7.5A39.25,39.25,0,0,1,77.6,108l3.4.45,8.7-5,1.5-.5-.1-.35,6.8-4L100.55,97h0l.65-.4A4.75,4.75,0,0,0,102.8,95l.15-.25M63.15,118.9l1.6,3.7-4,1.85-1.75-4,.65-.3h.05a4.63,4.63,0,0,0,2.2-.55l1.25-.7M52.2,116.45l-1.45,3.7-2,3.95-1,1.7-30.3-17.65a38.12,38.12,0,0,1,8.7-6.9L40.3,109.5l4.1,2.4,7.8,4.55M16.05,85.55A37.14,37.14,0,0,0,6,91.9v-22l.85-3A60.49,60.49,0,0,1,9.5,60.1a43.36,43.36,0,0,1,6.55-10.5V77.1l1.3,2.45L18.5,81.7l-2.45,3v.85M31.4,38.65l1.2-.45-.2.45h-1M61.2,20l1.35-2.15A44.83,44.83,0,0,0,65.9,10.5L85.85,22.15l-2.8.9,0,.05a41.85,41.85,0,0,0-9.95,3.8L61.9,20.35,61.2,20M81,31.85l1.6-.75,1.35,3H82.3L81,31.85M112.5,78.8,106,78.05l.75-6.6,6.55.8-.75,6.55M52.65,18.25l.7,4.35L49,23.3,48.3,19l4.35-.7M13.6,44,10.85,40.2l3.75-2.8,2.85,3.75L13.6,44M11.25,45.9,12.1,48l-2,.95-.85-2.1,2-.9"/><path class="cls-3" d="M92.55,38.25l8.7,5a4.26,4.26,0,0,1,1.55,1.6,4.07,4.07,0,0,1,.55,2.1V63.9L95.05,63,94,72.25l9.3,1,.1-.85v20.4a4.56,4.56,0,0,1-.4,1.9l-.15.25a4.75,4.75,0,0,1-1.55,1.6l-.65.4-.3-.4-2.4,2-6.8,4-2.2-7-7.25,2.3,2.3,7.25,5.75-1.75-8.7,5L77.6,108l-.7-.1-3.1,4.75-3.25,1.9-.9-2.65-4.5,1.55L66.4,117l-3.25,1.9-1.25.7a4.63,4.63,0,0,1-2.2.55h-.05a4.28,4.28,0,0,1-2.1-.55l-5.35-3.15-7.8-4.55-1.1-3.35-3,1-14.15-8.25L18.2,96.6A4.18,4.18,0,0,1,16.65,95a4.11,4.11,0,0,1-.6-2.15V84.7l2.45-3-1.15-2.15L20,76.7l-3.9-3.55V60.5L21,61.6l2.15-9.5-7-1.6V47a4.54,4.54,0,0,1,2.15-3.7l8-4.65h6.2l.2-.45,1.75-4.3,5-2.9H42.1l1.45,1.4,3.65-3.85-1.35-1.3,11.7-6.9a3.9,3.9,0,0,1,2.15-.65l1.5.3.7.35L73.15,26.9l7.5,4.4.3.55,1.35,2.3h3.3l.2.1-4.15,1.3L84,42.8l7.25-2.3L90,36.75l2.55,1.5M85.45,52.1,76,50l-2.1,9.55,9.45,2.1,2.15-9.5m-14.3,1.95-1.5-4.5-4.5,1.55,1.55,4.45,4.45-1.5m19.1,3.25,4.85-2.15-2.2-4.9-4.8,2.2,2.15,4.85m-44-22.55-1.9,5,5,2,1.85-5.05-5-1.9M33.85,37.6l3.35,4.1,4.15-3.35L38,34.25l-4.1,3.35M32.7,55.15l-2.15-4.9-4.8,2.2L27.9,57.3l4.8-2.15M58.6,84.1l-1.75-7.4H56.8l-7.3,1.75,1.7,7.4,7.4-1.75m.8-40.2-.6-5.3-5.25.65.6,5.25,5.25-.6m-21,11.75L45.6,53.4l-2.3-7.25-7.2,2.3,2.25,7.2M61.9,76.35l4.85-2.2-2.15-4.8L59.7,71.5l2.2,4.85m-28,23.6,3.35,4.1,4.15-3.35L38,96.6,33.85,100m-1.2-37-1,9.3,9.3,1,.65-5.6h.05L42,64l-9.35-1m-3.1,28.7.55-5.25-5.25-.5-.55,5.25,5.25.5m16.7,5.5-1.9,4.95,5,2,1.85-5-5-1.9m21.1-10.7-2.45,9.6,9.55,2.55L77,89l-9.6-2.5M97.7,76l-3.1,4.3L99,83.35l3-4.3L97.7,76m-10.5,10-.55,5.25,5.15.5h.1l.55-5.25-5.25-.5M75.6,70.55l-6.2,6.7,6.75,6.2L82.3,76.7l-6.7-6.15"/><path class="cls-4" d="M103.35,63.9v.35l-2.1,3.3,2.1,3.1v1.8l-.1.85-9.3-1,1.1-9.3,8.3.95m-32.8,50.65L66.4,117l-1.25-3.55,4.5-1.55.9,2.65M42.1,31h.3l1.35-2.55,2.1-1.2,1.35,1.3L43.55,32.4,42.1,31m43.7,3.25,4.2,2.5,1.2,3.75L84,42.8l-2.3-7.25,4.15-1.3M71.15,54.05l-4.45,1.5L65.15,51.1l4.5-1.55,1.5,4.5m14.3-1.95L83.3,61.6l-9.45-2.1L76,50l9.5,2.15M46.25,34.75l5,1.9L49.4,41.7l-5-2,1.9-5M33.85,37.6,38,34.25l3.4,4.1L37.2,41.7l-3.35-4.1m4.5,18-2.25-7.2,7.2-2.3,2.3,7.25-7.25,2.25m21-11.75-5.25.6-.6-5.25,5.25-.65.6,5.3m-.8,40.2-7.4,1.75-1.7-7.4,7.3-1.75h.05l1.75,7.4M32.65,63,42,64l-.4,3.7h-.05l-.65,5.6-9.3-1,1-9.3m1.2,37L38,96.6l3.4,4.1-4.15,3.35L33.85,100m33.5-13.5L77,89l-2.5,9.65L64.9,96.05l2.45-9.6m8.25-15.9,6.7,6.15-6.15,6.75-6.75-6.2,6.2-6.7M87.2,85.9l5.25.5-.55,5.25h-.1l-5.15-.5.55-5.25M97.9,98.55l2.4-2,.3.4h0L97.9,98.55M16.05,73.15,20,76.7l-2.6,2.85-1.3-2.45V73.15"/><path class="cls-5" d="M90.25,57.3,88.1,52.45l4.8-2.2,2.2,4.9L90.25,57.3M32.7,55.15,27.9,57.3l-2.15-4.85,4.8-2.2,2.15,4.9m29.2,21.2L59.7,71.5l4.9-2.15,2.15,4.8-4.85,2.2M46.25,97.15l5,1.9-1.85,5-5-2,1.9-4.95m-16.7-5.5-5.25-.5.55-5.25,5.25.5-.55,5.25M97.7,76l4.3,3.1-3,4.3-4.35-3.1L97.7,76m-8,27.45L84,105.15l-2.3-7.25,7.25-2.3,2.2,7,.1.35-1.5.5m-45.3,8.5-4.1-2.4,3-1,1.1,3.35M16.05,50.5l7.05,1.6L21,61.6l-4.9-1.1v-10"/><path class="cls-6" d="M17.3,24.9l1.05-.6-1,.6H17.3"/></g></g></svg>