<svg xmlns="http://www.w3.org/2000/svg" xmlns:xlink="http://www.w3.org/1999/xlink" viewBox="0 0 120 140"><defs><style>.cls-1{fill:#27ae60;}.cls-2{fill:url(#linear-gradient);}.cls-3{fill:url(#linear-gradient-2);}.cls-4{fill:url(#linear-gradient-3);}.cls-5{fill:url(#linear-gradient-4);}.cls-6{fill:url(#linear-gradient-5);}.cls-7{fill:url(#linear-gradient-6);}.cls-8{fill:url(#linear-gradient-7);}.cls-9{fill:url(#linear-gradient-8);}.cls-10{fill:url(#linear-gradient-9);}.cls-11{fill:url(#linear-gradient-10);}.cls-12{fill:url(#linear-gradient-11);}.cls-13{fill:url(#linear-gradient-12);}.cls-14{fill:url(#linear-gradient-13);}.cls-15{fill:url(#linear-gradient-14);}.cls-16{fill:url(#linear-gradient-15);}.cls-17{fill:#115f32;}.cls-18{fill:#168344;}.cls-19{fill:#1b914d;}.cls-20{fill:#703b27;}.cls-21{fill:#727979;}.cls-22{fill:#d2704c;}.cls-23{fill:#99a3a3;}.cls-24{fill:#b9c6c6;}.cls-25{fill:#a6b1b1;}.cls-26{fill:#d5e5e5;}.cls-27{fill:#bb6444;}.cls-28{fill-opacity:0.1;}.cls-29{fill:#10773c;}</style><linearGradient id="linear-gradient" x1="-2509.2" y1="49.53" x2="-870.8" y2="49.53" gradientTransform="matrix(0, 0, 0, 0, 12.18, 41.43)" gradientUnits="userSpaceOnUse"><stop offset="0" stop-color="#27ae60"/><stop offset="1" stop-color="#30c26d"/></linearGradient><linearGradient id="linear-gradient-2" x1="-2509.2" y1="26.2" x2="-870.8" y2="26.2" gradientTransform="matrix(0, 0, 0, 0, 56.87, 19.47)" xlink:href="#linear-gradient"/><linearGradient id="linear-gradient-3" x1="-2509.2" y1="37.67" x2="-870.8" y2="37.67" gradientTransform="matrix(0, 0, 0, 0, 45.68, 29.4)" xlink:href="#linear-gradient"/><linearGradient id="linear-gradient-4" x1="-2509.2" y1="54.17" x2="-870.8" y2="54.17" gradientTransform="matrix(0, 0, 0, 0, 37.97, 47.42)" xlink:href="#linear-gradient"/><linearGradient id="linear-gradient-5" x1="-2509.2" y1="30.38" x2="-870.8" y2="30.38" gradientTransform="matrix(0, 0, 0, 0, 90.87, 23.62)" xlink:href="#linear-gradient"/><linearGradient id="linear-gradient-6" x1="-2509.2" y1="48.03" x2="-870.8" y2="48.03" gradientTransform="matrix(0, 0, 0, 0, 60.83, 39.93)" xlink:href="#linear-gradient"/><linearGradient id="linear-gradient-7" x1="-2509.2" y1="98.08" x2="-870.8" y2="98.08" gradientTransform="matrix(0, 0, 0, 0, 106.37, 91.32)" xlink:href="#linear-gradient"/><linearGradient id="linear-gradient-8" x1="-2509.2" y1="89.17" x2="-870.8" y2="89.17" gradientTransform="matrix(0, 0, 0, 0, 70.47, 82.42)" xlink:href="#linear-gradient"/><linearGradient id="linear-gradient-9" x1="-2509.2" y1="81.92" x2="-870.8" y2="81.92" gradientTransform="matrix(0, 0, 0, 0, 83.97, 75.17)" xlink:href="#linear-gradient"/><linearGradient id="linear-gradient-10" x1="-2509.2" y1="121.33" x2="-870.8" y2="121.33" gradientTransform="matrix(0, 0, 0, 0, 72.28, 113.23)" xlink:href="#linear-gradient"/><linearGradient id="linear-gradient-11" x1="-2509.2" y1="106.58" x2="-870.8" y2="106.58" gradientTransform="matrix(0, 0, 0, 0, 56.68, 98.48)" xlink:href="#linear-gradient"/><linearGradient id="linear-gradient-12" x1="-2509.2" y1="119.17" x2="-870.8" y2="119.17" gradientTransform="matrix(0, 0, 0, 0, 57.87, 112.42)" xlink:href="#linear-gradient"/><linearGradient id="linear-gradient-13" x1="-2509.2" y1="62.42" x2="-870.8" y2="62.42" gradientTransform="matrix(0, 0, 0, 0, 25.52, 55.67)" xlink:href="#linear-gradient"/><linearGradient id="linear-gradient-14" x1="-2509.2" y1="102.17" x2="-870.8" y2="102.17" gradientTransform="matrix(0, 0, 0, 0, 14.43, 94.08)" xlink:href="#linear-gradient"/><linearGradient id="linear-gradient-15" x1="-2509.2" y1="116.92" x2="-870.8" y2="116.92" gradientTransform="matrix(0, 0, 0, 0, 44.68, 108.83)" xlink:href="#linear-gradient"/></defs><title>Asset 133</title><g id="Layer_2" data-name="Layer 2"><g id="Layer_1-2" data-name="Layer 1"><path class="cls-1" d="M11.35,45.5l-.25.15-.1.25-.35,3.5L9,49.75l-.25.1,0,.1-.05.2v.25h.05l1.45,3.15h6l1.6-1,.15-.15,0-.15,0-.3-.3-.25-1.5-.4,1.2-3.15v-.35l-.05,0-.2-.2h-.35l-2.8,1-2-2.85-.25-.15-.25,0M55.05,27l-.3.05-.25.2v.45l.7,1.8h4.85l.9-3.1v-.35l-.25-.2h-.35L59,26.4l-1-3.15L57.85,23l-.3-.1-.3.15-.15.25-.8,4.1L55.05,27m-6.1,7-.1-.25-.25-.15h-.25l-.25.15-2,2.85-2.85-1H43l-.2.2,0,0v.35L44,39.35l-1.55.45-.25.2-.1.35.1.1.1.15,1.6,1.1h6l1.45-3.15.05,0,0-.25-.1-.15,0-.1L51,37.85l-1.65-.3-.4-3.5m-10.4,17.2-1,3.15-1.35-.55h-.35L35.6,54v0a.42.42,0,0,0-.05.35l1,3.05h4.85l.7-1.8V55.2L41.8,55h-.3l-1.25.4-.85-4.15L39.25,51,39,50.9l-.3.1a.3.3,0,0,0-.15.25m53.05-24a.3.3,0,0,0-.15.25l-1,3.15-1.35-.55h-.35a.3.3,0,0,0-.25.15v.05a.42.42,0,0,0,0,.35l1,3h4.85l.7-1.8V31.4l-.25-.2h-.3l-1.25.4-.85-4.15-.15-.25-.25-.1-.3.1M60,44l-.25.15-.1.25-.35,3.5-1.7.35-.25.1-.05.1,0,.2v.25h0l1.45,3.15h6l1.6-1,.15-.15,0-.15,0-.3-.3-.25-1.5-.4,1.2-3.15v-.35l-.05,0-.2-.2H65.3l-2.8,1-2-2.85-.25-.15L60,44m60-9v70L60,140,0,105V35L60,0l60,35M104,97.9v0a.42.42,0,0,0,0,.35l1,3h4.85l.7-1.8V99.1l-.25-.2h-.3l-1.25.4-.85-4.15-.15-.25-.25-.1-.3.1a.3.3,0,0,0-.15.25l-1,3.15-1.35-.55h-.35l-.25.15M71.05,86.25l-1,3.15-1.35-.55h-.35a.3.3,0,0,0-.25.15v0a.42.42,0,0,0,0,.35l1,3h4.85l.7-1.8V90.2L74.3,90H74l-1.25.4-.85-4.15L71.75,86l-.25-.1-.3.1-.15.25m16.45-3.5-1.25.4L85.4,79l-.15-.25-.25-.1-.3.1-.15.25-1,3.15L82.2,81.6h-.35a.3.3,0,0,0-.25.15v0a.42.42,0,0,0,0,.35l1,3h4.85l.7-1.8V83l-.25-.2h-.3M77.35,119.9v-.35l0,0-.2-.2h-.35l-2.8,1-2-2.85-.25-.15-.25,0-.25.15-.1.25-.35,3.5-1.7.35-.25.1,0,.1,0,.2v.25h0l1.45,3.15h6l1.6-1,.15-.15,0-.15,0-.3-.3-.25-1.5-.4,1.2-3.15m-15.6-14.75v-.35l0,0-.2-.2h-.35l-2.8,1-2-2.85a.3.3,0,0,0-.25-.15l-.25,0-.25.15-.1.25-.35,3.5-1.7.35-.25.1-.05.1,0,.2v.25h0l1.45,3.15h6l1.6-1,.15-.15,0-.15,0-.3-.3-.25-1.5-.4,1.2-3.15M61.4,120l-1.25.4-.85-4.15-.15-.25-.25-.1-.3.1a.3.3,0,0,0-.15.25l-1,3.15-1.35-.55h-.35a.3.3,0,0,0-.25.15v0a.42.42,0,0,0,0,.35l.95,3h4.85l.7-1.8v-.45l-.25-.2h-.3M26.1,59.5l-1,3.15-1.35-.55H23.4l-.25.15v0a.42.42,0,0,0,0,.35l.95,3.05H28.9l.7-1.8v-.45l-.25-.2h-.3l-1.25.4L27,59.5l-.15-.25-.25-.1-.3.1-.15.25m-7.2,40.65-2.8,1-2-2.85-.25-.15-.25,0-.25.15-.1.25-.35,3.5-1.7.35-.25.1,0,.1-.05.2v.25h.05l1.45,3.15h6l1.6-1,.15-.15,0-.15,0-.3-.3-.25-1.5-.4,1.2-3.15v-.35l-.05-.05-.2-.2H18.9M44.35,113.1a.3.3,0,0,0-.25-.15l-.25,0-.25.15-.1.25-.35,3.5-1.7.35-.25.1-.05.1,0,.2v.25h0L42.6,121h6l1.6-1,.15-.15,0-.15,0-.3-.3-.25-1.5-.4,1.2-3.15v-.35l0-.05-.2-.2h-.35l-2.8,1-2-2.85"/><path class="cls-2" d="M11.35,45.5l.25,0,.25.15,2,2.85,2.8-1H17l.2.2.05,0v.35l-1.2,3.15,1.5.4.3.25,0,.3,0,.15-.15.15-1.6,1h-6L8.65,50.4H8.6v-.25l.05-.2,0-.1.25-.1,1.7-.35L11,45.9l.1-.25.25-.15"/><path class="cls-3" d="M55.05,27l1.25.4.8-4.1.15-.25.3-.15.3.1.15.25,1,3.15,1.4-.55h.35l.25.2v.35l-.9,3.1H55.2l-.7-1.8v-.45l.25-.2.3-.05"/><path class="cls-4" d="M49,34.05l.4,3.5,1.65.3.25.15,0,.1.1.15,0,.25-.05,0L49.85,41.7h-6l-1.6-1.1-.1-.15-.1-.1.1-.35.25-.2L44,39.35l-1.25-3.1V35.9l0,0,.2-.2h.35l2.85,1,2-2.85.25-.15h.25l.25.15.1.25"/><path class="cls-5" d="M38.55,51.25A.3.3,0,0,1,38.7,51l.3-.1.25.1.15.25.85,4.15L41.5,55h.3l.25.2v.45l-.7,1.8H36.5l-1-3.05a.42.42,0,0,1,.05-.35v0l.25-.15h.35l1.35.55,1-3.15"/><path class="cls-6" d="M91.6,27.2l.3-.1.25.1.15.25.85,4.15,1.25-.4h.3l.25.2v.45l-.7,1.8H89.4l-1-3a.42.42,0,0,1,0-.35V30.2a.3.3,0,0,1,.25-.15h.35l1.35.55,1-3.15a.3.3,0,0,1,.15-.25"/><path class="cls-7" d="M60,44l.25,0,.25.15,2,2.85,2.8-1h.35l.2.2.05,0v.35l-1.2,3.15,1.5.4.3.25,0,.3,0,.15-.15.15-1.6,1h-6L57.3,48.9h0v-.25l0-.2.05-.1.25-.1,1.7-.35.35-3.5.1-.25L60,44"/><path class="cls-8" d="M104,97.9l.25-.15h.35l1.35.55,1-3.15a.3.3,0,0,1,.15-.25l.3-.1.25.1.15.25.85,4.15,1.25-.4h.3l.25.2v.45l-.7,1.8H104.9l-1-3a.42.42,0,0,1,0-.35v0"/><path class="cls-9" d="M71.05,86.25,71.2,86l.3-.1.25.1.15.25.85,4.15L74,90h.3l.25.2v.45l-.7,1.8H69l-1-3a.42.42,0,0,1,0-.35v0a.3.3,0,0,1,.25-.15h.35l1.35.55,1-3.15"/><path class="cls-10" d="M87.5,82.75h.3l.25.2v.45l-.7,1.8H82.5l-1-3a.42.42,0,0,1,0-.35v0a.3.3,0,0,1,.25-.15h.35l1.35.55,1-3.15.15-.25.3-.1.25.1.15.25.85,4.15,1.25-.4"/><path class="cls-11" d="M77.35,119.9l-1.2,3.15,1.5.4.3.25,0,.3,0,.15-.15.15-1.6,1h-6l-1.45-3.15h0V122l0-.2,0-.1.25-.1,1.7-.35.35-3.5.1-.25.25-.15.25,0,.25.15,2,2.85,2.8-1h.35l.2.2,0,0v.35"/><path class="cls-12" d="M61.75,105.15l-1.2,3.15,1.5.4.3.25,0,.3,0,.15-.15.15-1.6,1h-6l-1.45-3.15h0v-.25l0-.2.05-.1.25-.1,1.7-.35.35-3.5.1-.25.25-.15.25,0a.3.3,0,0,1,.25.15l2,2.85,2.8-1h.35l.2.2,0,0v.35"/><path class="cls-13" d="M61.4,120h.3l.25.2v.45l-.7,1.8H56.4l-.95-3a.42.42,0,0,1,0-.35v0a.3.3,0,0,1,.25-.15h.35l1.35.55,1-3.15a.3.3,0,0,1,.15-.25l.3-.1.25.1.15.25.85,4.15,1.25-.4"/><path class="cls-14" d="M26.1,59.5l.15-.25.3-.1.25.1.15.25.85,4.15,1.25-.4h.3l.25.2v.45l-.7,1.8H24.05l-.95-3.05a.42.42,0,0,1,0-.35v0l.25-.15h.35l1.35.55,1-3.15"/><path class="cls-15" d="M18.9,100.15h.35l.2.2.05.05v.35l-1.2,3.15,1.5.4.3.25,0,.3,0,.15-.15.15-1.6,1h-6l-1.45-3.15h-.05v-.25l.05-.2,0-.1.25-.1,1.7-.35.35-3.5.1-.25.25-.15.25,0,.25.15,2,2.85,2.8-1"/><path class="cls-16" d="M44.35,113.1l2,2.85,2.8-1h.35l.2.2,0,.05v.35l-1.2,3.15,1.5.4.3.25,0,.3,0,.15-.15.15-1.6,1h-6l-1.45-3.15h0v-.25l0-.2.05-.1.25-.1,1.7-.35.35-3.5.1-.25.25-.15.25,0a.3.3,0,0,1,.25.15"/><path class="cls-17" d="M32.7,31.25a1.82,1.82,0,0,1,1,1.1l4.3,10.85.15.9-.05.35,1.15,1.3.45,1.2a1.84,1.84,0,0,1-.35,1.25l-.55.8.8,1.15A2,2,0,0,1,40,51.3l-.35,1.15-4.8,6.75a2,2,0,0,1-1,.75,2.05,2.05,0,0,1-1.25,0l-1.05-.35-.6-.3L22.6,56l-1-.75a1.77,1.77,0,0,1-.35-1.2,2,2,0,0,1,.45-1.15l1.45-1.75a1.87,1.87,0,0,1,.1-1l.7-1.85-.1-.1-.4-.95a1.91,1.91,0,0,1,.2-1.05l6.4-13.9a1.81,1.81,0,0,1,1.1-1.05l1.5.05m2.8,13.6.2-.2.5-.75L31.9,33.05,25.5,47l1.25.5-.3-.1-1.3,3.45.65.25-2.5,3.1,8.9,3.5-.05.05,1.05.35L38,51.3,36.4,49l1.35-2-2-2.4-.15.2h0"/><path class="cls-18" d="M35.5,44.85h0l.15-.2,2,2.4L36.4,49l-3.5,4.85-.45-4.6v0l3-4.35m-3.6-11.8.3,16.55-5.45-2.15L25.5,47l6.4-13.9m-6.1,18,6.85,2.7.55,4.3-1.05-.35.05-.05-8.9-3.5,2.5-3.1"/><path class="cls-19" d="M25.8,51.05l-.65-.25,1.3-3.45.3.1L32.2,49.6l-.3-16.55L36.2,43.9l-.5.75-.2.2-3,4.35v0l.45,4.6L36.4,49,38,51.3l-4.8,6.75-.55-4.3-6.85-2.7"/><path class="cls-20" d="M37.6,23.25l.25-.4L48.2,9.5a1.39,1.39,0,0,1,.85-.65l1.1-.1a2,2,0,0,1,1,.5l10.25,9.8-1.3,1.5L49.75,10.7,39.4,24.05l-1.8-.8M83,44.9l.2-.3,10.3-13.25a1.58,1.58,0,0,1,.9-.65l1.05-.1a2,2,0,0,1,1,.5l10.15,9.75-1.3,1.5L95,32.55,84.75,45.8,83,44.9M8.7,57.1,9,56.75,19.5,43.4a1.64,1.64,0,0,1,.9-.6l1.1-.1a2,2,0,0,1,.95.5l8.8,8.4.15,2.95-10.35-9.9L10.55,58,8.7,57.1m61.15,9.95,4.35,4.2,2.3,2.2L78,74.8l-1.3,1.55L66.25,66.5,56.05,79.7l-1.85-.85.2-.25,9.35-12.15h0L65,64.8l4.9,2.25"/><path class="cls-21" d="M69.85,67.05l10.5,4.8.4-.45L78,74.8,76.5,73.45l.65-.85-3-1.35-4.35-4.2M37.6,23.25l1.8.8v8l2.35,2.3v7.4l.3-.25-10.65,13-.15-2.95,8.5-10.45V35.2L38,33.5a2,2,0,0,1-.6-1.45v-8l.2-.8m22.5-2.7,1.3-1.5.1.05.45.7.15.75V28.6a2.05,2.05,0,0,1-.4,1.25L59.8,32.3v5.35q11.45,5.4,22.9,10.75V45.8a1.65,1.65,0,0,1,.25-.9l1.8.9h0v5.75L57.8,38.9V31.6l2.3-3v-8m46.45,20.3.15.1.45.7.15.75v8.05L107,51.6l-1.9,2.7V67l2,7.3v1l-.4.85-7.8,9.2a2.11,2.11,0,0,1-1.1.65l-1.3-.15L94,84.55l-16.7,19.8,1.1,3.9v1l-.4.85-7.8,9.15-1.1.65-1.3-.1L55.35,114a2.14,2.14,0,0,1-1-1,2,2,0,0,1-.15-1.3l.5-2-3-1.35-.35-.2-.5-.55a1.89,1.89,0,0,1-.35-1.1v-8.3l-14.4-6.7v1.7L35.7,94.4,33,97.8l-1.05.7-1.3-.1-4.8-2.15-.9,1.1a2,2,0,0,1-1.1.7L22.55,98l-12.4-5.7a1.86,1.86,0,0,1-1-1A2.15,2.15,0,0,1,9,90l2.05-8.3V69.25l-1.9-1.7-.45-.7-.2-.8V58l.2-.9,1.85.85-.05,0v8l2.55,2.3V81.9L11,90.4l12.4,5.7,1.85-2.3,6.2,2.75,2.75-3.4V88.3l18.4,8.55v9.6l4.55,2-.9,3.65,12.4,5.75,7.8-9.15-1.35-4.9L93.4,82.1,97.3,84l7.8-9.2-2-7.55V53.65l2.25-3.2V42.4l0,0,1.3-1.5M52.05,62.1l2.1-2.25L65,64.8,63.7,66.45,54.65,62.3,53.5,63.5a1.92,1.92,0,0,1-1,.55L51.2,64,48.7,62.8,38.4,75,54,82.15V79.8a1.73,1.73,0,0,1,.25-1l1.85.85-.1.1v5.5l-20.8-9.65,13-15.35,3.9,1.8"/><path class="cls-22" d="M39.4,24.05,49.75,10.7,52.05,30,39.4,24.05M84.7,45.8h0L95,32.55,97.3,51.8l-12.6-6M10.5,58l.05,0,10.5-13.3L23.35,64,10.5,58M56.05,79.7l10.2-13.2L68.6,85.75,56,79.8l.1-.1"/><path class="cls-23" d="M52.05,38.05V30l8.05-9.45V28.6l-2.3,3V39l-1.4-.65-4.35,5v4.85l.7,1.35v1.6l1.4,8.75-2.1,2.25-.45-9.6V39l.45-.9m-1.8,5.25v4.85l-1.2,1.6v1.6l-.9,8.95-13,15.35,0,0-7.35-3.45-4.4,5v4.8l.1.25.6,1.15v1.6l1.15,8.7-1.85,2.3-.7-9.65V73l.7-.85V64l8-9.45V62.6l-2.5,3v2.75l21.35-25M97.3,51.8l8-9.4v8.05l-2.25,3.2V67.2l2,7.55L97.3,84l-.5-9.65V60.75l.5-.9V51.8M93.4,82.1,75.05,103.85l1.35,4.9-7.8,9.15-.45-9.6V94.7l.45-.9v-8l8.05-9.4V84.4L74.3,87.35v2.8l21.15-25V70l-1.15,1.6v1.6l-.9,8.95M34.15,88.3v4.85l-2.75,3.4V86.9l2.75,1.4"/><path class="cls-24" d="M52.05,30v8l-12.65-6v-8L52.05,30m-.45,9V52.5l.45,9.6-3.9-1.8.9-8.95v-1.6l1.2-1.6V43.3L43.1,40.1l-1.05,1.4-.3.25v-7.4L51.6,39m2.55,20.9-1.4-8.75V49.5L86,65l-5.25,6.4-.4.45-10.5-4.8L65,64.8l-10.8-4.95m-2.1-11.7V43.3L87.2,59.85V56.2l9.6,4.55V74.3L97.3,84,93.4,82.1l.9-8.95v-1.6L95.45,70v-4.8l-6.9-3.25-2,2.35L52.05,48.15m32.65,3.4V45.8l12.6,6v8.05l-12.6-6v-2.3M68.6,117.9l-12.4-5.75.9-3.65-4.55-2V96.8l5.7,2.75V98.4L23.35,82.1V77.3l34.9,16.5V90.15l9.9,4.55v13.6l.45,9.6M31.4,96.55,25.2,93.8l-1.15-8.7V83.5L31.4,87v9.6m-8-.45L11,90.4l2.1-8.5V68.35l9.6,4.6v13.5l.7,9.65m-12.85-30V58l12.85,6v8.1l-12.85-6m58.1,19.7v8L56,87.85v-8l12.65,6"/><path class="cls-25" d="M52.05,38.05l-.45.9-9.85-4.6-2.35-2.3,12.65,6m.7,11.45-.7-1.35L86.6,64.25,86,65,52.75,49.5m-.2,47.35L34.15,88.3,31.4,86.9v0L24.05,83.5l-.6-1.15-.1-.25,34.9,16.3v1.15l-5.7-2.75v0m-39.5-28.5-2.55-2.3,12.85,6-.7.85-9.6-4.6m84.25-8.5-.5.9L87.2,56.2l-2.5-2.35,12.6,6M68.6,93.8l-.45.9-9.9-4.55L56,87.85l12.65,6"/><path class="cls-26" d="M52.05,43.3l4.35-5,1.4.65V38.9L84.7,51.55v2.3l2.5,2.35v3.65L52.05,43.3m-10-1.8,1.05-1.4,7.15,3.2-21.35,25V65.6l2.5-3V54.55l10.65-13M86.6,64.25l2-2.35,6.9,3.25-21.15,25v-2.8l2.35-2.95V76.35L78,74.8l2.8-3.4L86,65l.6-.75M58.25,90.15V93.8L23.35,77.3l4.4-5L35.1,75.7l0,0L56,85.3v2.55l2.3,2.3"/><path class="cls-27" d="M49.75,10.7,60.1,20.55,52.05,30l-2.3-19.3M105.3,42.4l-8,9.4L95,32.55l10.25,9.8,0,0m-39,24.1,10.4,9.85-8.05,9.4L66.25,66.5m-34.85-12-8,9.45-2.3-19.35,10.35,9.9"/><path class="cls-28" d="M51.4,108.1,30.6,98.4l1.3.1L33,97.8l2.75-3.4.45-1.25v-1.7l14.4,6.7v8.3a1.89,1.89,0,0,0,.35,1.1l.5.55M74.2,71.25l3,1.35-.65.85-2.3-2.2m-10.5-4.8h0L54.4,78.6l-.2.25a1.73,1.73,0,0,0-.25,1v2.35L38.4,75,48.7,62.8,51.2,64l1.25.1a1.92,1.92,0,0,0,1-.55l1.15-1.2,9.05,4.15"/><path class="cls-17" d="M93.65,83.25H93.6l-.2-.3.25.3m6.95-17.6,9.1,19.75.15,1-.4,1-.4.4,1.2,3.2a1.85,1.85,0,0,1,0,1.35l2.3,2.8A2,2,0,0,1,113,96.3a2.07,2.07,0,0,1-.3,1.2l-1,.75-14.1,5.6-1.3.1-1-.8-6.8-9.6a1.77,1.77,0,0,1-.4-1.15,2,2,0,0,1,.35-1.15L90,89.1l-1.1-1.6a1.73,1.73,0,0,1-.4-1.25,1.92,1.92,0,0,1,.5-1.2l2-2.2-.2-.7a1.54,1.54,0,0,1,.1-1l6.1-15.45a1.82,1.82,0,0,1,1-1.1l1.5-.05a2,2,0,0,1,1.15,1.05m6.8,26.4.95-.35-1.85-5-.4.15,1.75-.7-9.1-19.75L92.65,81.9l.75,1-3,3.4,2,2.75-2.3,3.3,6.8,9.6,1.5-.55-.05,0,12.65-5-3.6-4.35"/><path class="cls-18" d="M106.1,86.9l.4-.15,1.85,5-.95.35-9.7,3.8L96.9,102l-6.8-9.6,2.3-3.3L97.35,96,98,89.45v0l-4.35-6.15L93.4,83l-.75-1,6.1-15.45L98.35,90l7.75-3"/><path class="cls-19" d="M106.1,86.9l-7.75,3,.4-23.5,9.1,19.75-1.75.7M96.9,102l.8-6.15,9.7-3.8L111,96.4l-12.65,5,.05,0-1.5.55"/><path class="cls-29" d="M93.65,83.25,98,89.4v0L97.35,96,92.4,89.1l-2-2.75,3-3.4.2.3h.05"/></g></g></svg>