<svg xmlns="http://www.w3.org/2000/svg" xmlns:xlink="http://www.w3.org/1999/xlink" viewBox="0 0 120 140"><defs><style>.cls-1{fill:#bb8044;}.cls-2{fill:#aa753e;}.cls-3{fill:#c68a4e;}.cls-4{fill:#8a3f23;}.cls-5{fill:#d26f49;}.cls-6{fill:#bb5f3c;}.cls-7{fill:#ec7c51;}.cls-8{fill:#115f32;}.cls-9{fill:#1b914d;}.cls-10{fill-opacity:0.1;}.cls-11{fill:#666d6d;}.cls-12{fill:#d4e2e2;}.cls-13{fill:#c9d7d7;}.cls-14{fill:#98a3a3;}.cls-15{fill:#b9c6c6;}.cls-16{fill:#835a2f;}.cls-17{fill:#acacac;}.cls-18{fill:#8e857c;}.cls-19{fill:#eedfd1;}.cls-20{fill:#dbcec1;}.cls-21{fill:#d9cbbf;}.cls-22{fill:#2570a3;}.cls-23{fill:#b2b2b2;}.cls-24{fill:#2f8ccb;}.cls-25{fill:#184b6d;}.cls-26{fill:#37a6f0;}.cls-27{fill:#b8aca1;}.cls-28{fill:#727979;}.cls-29{fill:#d5e5e5;}.cls-30{fill:#743a25;}.cls-31{fill:#e5794f;}.cls-32{fill:#a15133;}.cls-33{fill:#ffad00;}.cls-34{fill:#db8300;}.cls-35{fill:url(#linear-gradient);}</style><linearGradient id="linear-gradient" x1="-2899.2" y1="63.7" x2="-1260.8" y2="63.7" gradientTransform="matrix(0, 0.01, 0.01, 0, 60.6, 75.51)" gradientUnits="userSpaceOnUse"><stop offset="0" stop-color="#fc0"/><stop offset="1" stop-color="#f90"/></linearGradient></defs><title>Asset 123</title><g id="Layer_2" data-name="Layer 2"><g id="Layer_1-2" data-name="Layer 1"><path class="cls-1" d="M110.75,62.25l-6.55-.8-.75,6.6,6.55.75.75-6.55M109,53.6l-4.4,1.2,1.2,4.45,4.4-1.25L109,53.6m-8.1,9.45.45-3.1-3.2-.45-.4,3.15,3.15.4M85.45,93.9,79.3,91.45,76.85,97.6,83,100l2.45-6.1m1.8-13.65,2.9,1.2,1.25-2.9-3-1.25-1.2,3m16,18-7.1,1.1,1,7,7.1-1.1-1-7M89.7,86l0,4.55H94.3V86H89.7m19.3,5.9-4,1.85,1.75,4,4-1.85-1.75-4M66.6,17.4l-7.1-.8-.85,7,7.15.8.8-7M50.8,24l.7,4.35,4.35-.7-.7-4.35L50.8,24M37.15,48.35,34.6,45.1l-3.25,2.6L34,51l3.2-2.6m-9.7,1.55-6.8,3,3,6.9,6.85-3-3.05-6.9M12.6,56.4l2-.95-.85-2.05-2,.9.85,2.1m14.8,40,1-4.05-4-.95-1,4,4,1M24.6,39.9l-3.75,2.8,2.75,3.75,3.85-2.8L24.6,39.9M35.1,91.4l-3.55,6.7,6.55,3.5L41.7,95,35.1,91.4m-9.65,15.1,4.5,1.2,1.25-4.45L26.65,102l-1.2,4.55m17.3.2,1.9,1,1.15-2-2-1-1,2M0,105V35L60,0l60,35v70L60,140,0,105"/><path class="cls-2" d="M109,53.6l1.2,4.4-4.4,1.25-1.2-4.45,4.4-1.2m1.8,8.65L110,68.8l-6.55-.75.75-6.6,6.55.8M85.45,93.9,83,100l-6.15-2.4,2.45-6.15,6.15,2.45m4.25-8h4.6V90.5H89.75l0-4.55M103.25,98.2l1,7-7.1,1.1-1-7,7.1-1.1M66.6,17.4l-.8,7.05-7.15-.8.85-7,7.1.8m-29.45,31L34,51l-2.6-3.25,3.25-2.6,2.55,3.25M24.6,39.9l2.85,3.75-3.85,2.8L20.85,42.7l3.75-2.8m2.8,56.5-4-1,1-4,4,.95-1,4.05m-14.8-40-.85-2.1,2-.9.85,2.05-2,.95m30.15,50.3,1-2,2,1-1.15,2-1.9-1m-17.3-.2,1.2-4.55,4.55,1.3L30,107.7l-4.5-1.2"/><path class="cls-3" d="M100.85,63.05l-3.15-.4.4-3.15,3.2.45-.45,3.1m-13.6,17.2,1.2-3,3,1.25-1.25,2.9-2.9-1.2M109,91.85l1.75,4-4,1.85-1.75-4,4-1.85M50.8,24l4.35-.7.7,4.35-4.35.7L50.8,24m-23.35,26,3.05,6.9-6.85,3-3-6.9,6.8-3M35.1,91.4,41.7,95l-3.6,6.65-6.55-3.5,3.55-6.7"/><path class="cls-4" d="M77.25,26.15l-6.85-9.5L32.8,31.25v12.2L39.7,53,65.5,43l5.6-2.2,6.15-2.4V26.15M78.9,25a2,2,0,0,1,.35,1.15v12.2L78.9,39.5l-.9.75L40.45,54.9l-1.3.05a1.72,1.72,0,0,1-1-.75l-6.9-9.55a2,2,0,0,1-.4-1.2V31.25a1.89,1.89,0,0,1,.35-1.1,1.72,1.72,0,0,1,1-.75L69.7,14.8l1.3-.05a1.71,1.71,0,0,1,1,.75L78.9,25"/><path class="cls-5" d="M65.5,43V34.6l5.6-2.2v8.35L65.5,43M39.7,41V53l-6.9-9.55V31.25L39.7,41m3.6,2.6,19-7.5v6l-19,7.5v-6"/><path class="cls-6" d="M71.1,40.75V32.4l-5.6,2.2V43L39.7,53V41L77.25,26.15v12.2l-6.15,2.4M43.3,43.6v6l19-7.5v-6l-19,7.5"/><path class="cls-7" d="M77.25,26.15,39.7,41l-6.9-9.75,37.6-14.6,6.85,9.5"/><path class="cls-8" d="M76.65,44.85a6,6,0,0,1-1.5-3.9v-.9a48.75,48.75,0,0,1,1.5-13q1.84-7.1,5.2-6.65,3.34-.49,5.3,6.65a52.21,52.21,0,0,1,1.4,13V41a6.53,6.53,0,0,1-1.4,3.95l-.5.55H86.6l-1.15.9a3.21,3.21,0,0,1-1,2.35l-.15.15a3.51,3.51,0,0,1-2.4.95h-.05a3.38,3.38,0,0,1-2.5-1,3.48,3.48,0,0,1-1-2.45l-1.15-.9h0l-.55-.6m6.8.25A5.1,5.1,0,0,0,85.2,44l.2-.15a4.53,4.53,0,0,0,1.15-3v-.85a49.92,49.92,0,0,0-1.35-12.5q-1.4-5.14-3.35-5.15t-3.3,5.15a48.37,48.37,0,0,0-1.4,12.5v.85a4.3,4.3,0,0,0,1.25,3l.15.15,1.75,1.1v1.15a1.54,1.54,0,0,0,1.55,1.55h.05a1.35,1.35,0,0,0,1-.45,1.44,1.44,0,0,0,.5-1.1V45.1"/><path class="cls-9" d="M83.45,45.1l-1.6.25L80.3,45.1,78.55,44l-.15-.15a4.3,4.3,0,0,1-1.25-3v-.85a48.37,48.37,0,0,1,1.4-12.5q1.35-5.14,3.3-5.15t3.35,5.15a49.92,49.92,0,0,1,1.35,12.5v.85a4.53,4.53,0,0,1-1.15,3l-.2.15a5.1,5.1,0,0,1-1.75,1.1"/><path class="cls-10" d="M87.15,44.9a3.36,3.36,0,0,1,1.5,2.7,3.72,3.72,0,0,1-2,3.1A8.34,8.34,0,0,1,81.9,52a8.57,8.57,0,0,1-4.8-1.3,3.72,3.72,0,0,1-1.95-3.1,3.48,3.48,0,0,1,1.5-2.75l.55.6h0l1.15.9a3.48,3.48,0,0,0,1,2.45,3.38,3.38,0,0,0,2.5,1h.05a3.51,3.51,0,0,0,2.4-.95l.15-.15a3.21,3.21,0,0,0,1-2.35l1.15-.9h.05l.5-.55"/><path class="cls-1" d="M83.45,45.1v1.15a1.44,1.44,0,0,1-.5,1.1,1.35,1.35,0,0,1-1,.45h-.05a1.54,1.54,0,0,1-1.55-1.55V45.1l1.55.25,1.6-.25"/><path class="cls-11" d="M77.6,62.1V49.9L77.85,48V47.9a10.45,10.45,0,0,1,7.5-8.4A10.15,10.15,0,0,1,88.5,39h.1a5,5,0,0,1,4.5,2.35l0,0,.5.7L115,67.8l.25.25v0a6.59,6.59,0,0,1,1.5,2.65l.25,1v12.4l-.3,1.1-.85.75-13.6,6.1V89.9L115,84.15V71.75l0,0a5.29,5.29,0,0,0-1.15-2.25l-.25-.25L110.05,65l-3-3.55-9.8-11.85,0,0-3-3.55-2.4-2.9,0,0,0-.1-.25-.4-.6-.7h-.05c-1.17-.93-2.8-1.07-4.9-.4q-5.81,2-6.35,8.6V63.1l-2-1"/><path class="cls-12" d="M79.6,50.05v0q.56-6.64,6.35-8.6c2.1-.67,3.73-.53,4.9.4h.05l.6.7.25.4,0,.1,0,0,2.4,2.9-.85-.4-3.75.2q-5.85,1.95-6.35,8.7l-3.7-4.4m17.6-.55,0,0,9.8,11.85-1.1-.6-3.75.2Q96.76,62.8,96,68.8l-.1.85L86.3,58.05q.49-6.75,6.35-8.7l3.75-.2.8.35M110.05,65l3.5,4.25-1.2-.65-.75-.15a6.57,6.57,0,0,0-3,.35l-.15,0q-5.7,2-6.2,8.65l-3.4-4.15a11.39,11.39,0,0,1,1.2-4.5,8.53,8.53,0,0,1,5.15-4.2l3.75-.2,1.1.55"/><path class="cls-13" d="M110.05,65,109,64.4l-3.75.2a8.53,8.53,0,0,0-5.15,4.2,11.39,11.39,0,0,0-1.2,4.5l-3-3.65.1-.85q.8-6,6.25-7.8l3.75-.2,1.1.6,3,3.55M94.25,46l3,3.55-.8-.35-3.75.2q-5.85,1.95-6.35,8.7L85.05,56.6l-.85-1.05-.9-1.1q.49-6.75,6.35-8.7l3.75-.2.85.4"/><path class="cls-7" d="M86.3,58.05l9.55,11.6,3,3.65,3.4,4.15-9,6.7-16-19.4L79.6,63.1l6.65-5,0-.05"/><path class="cls-14" d="M113.55,69.2l.25.25A5.29,5.29,0,0,1,115,71.7l0,0v12.4L102.25,89.9V77.45q.5-6.65,6.2-8.65l.15,0a6.57,6.57,0,0,1,3-.35l.75.15,1.2.65"/><path class="cls-15" d="M79.6,63.1V50.05l3.7,4.4.9,1.1.85,1.05,1.25,1.45,0,.05-6.65,5m22.65,16.35V87.2l-4-4.8,4-3"/><path class="cls-4" d="M77.15,69.65l-.7-.85L75.8,68a1.92,1.92,0,0,1-.45-1.25v-2l.25-.9.6-.7,1.4-1,2,1-2.25,1.65v2l1.6,2,.1.1.35.55.3.25,0,.05h-2.6"/><path class="cls-5" d="M79.75,69.65l0-.05-.3-.25-.35-.55-.1-.1-1.6-2v-2l16,19.4v2L80.9,71.1l-1.15-1.45"/><path class="cls-16" d="M79.75,69.65l.45.65-2.85,1.45v2.7l16,19.45,9-4v2.2l-8.1,3.65-1.3.1a2.11,2.11,0,0,1-1.1-.65l-16-19.45a2.12,2.12,0,0,1-.45-1.3v-2.7a2,2,0,0,1,.3-1,1.64,1.64,0,0,1,.8-.7l.7-.35h2.6"/><path class="cls-17" d="M79.75,69.65,80.9,71.1l-.7-.8-.45-.65"/><path class="cls-3" d="M77.35,71.75,80.2,70.3l.7.8L93.3,86.2l5-3.8,4,4.8-9,4-16-19.45"/><path class="cls-2" d="M77.35,71.75l16,19.45,9-4v2.7l-9,4-16-19.45v-2.7"/><path class="cls-6" d="M93.3,84.15l9-6.7v2l-4,3-5,3.8v-2"/><path class="cls-18" d="M8.55,73.75l-3-1.5-.8-.75a2,2,0,0,1-.3-1v-2.8A1.93,1.93,0,0,1,5,66.3L25.5,43.7a1.67,1.67,0,0,1,1.1-.6l1.25.15,16.95,8.5.8.75.3,1v11.5a2.07,2.07,0,0,1-.5,1.35l-12,13.3-1,.6-.6,0L31.1,78.1l.75.25,3.2-3.5L39.45,70l4.45-5V53.55L27,45.05,6.45,67.65v2.8l7.2,3.6-2.75-1.3-2.35,1"/><path class="cls-19" d="M6.45,67.65,27,45.05l17,8.5L23.45,76.05l-17-8.4m18.3-3-5.1-2.55L16.2,66l5.05,2.65,3.5-3.9m6.5-6.8,3.5-3.9-5.1-2.55-3.45,3.8,5.05,2.65"/><path class="cls-20" d="M31.25,57.9,26.2,55.25l3.45-3.8L34.75,54l-3.5,3.9m-6.5,6.8-3.5,3.9L16.2,66l3.45-3.8,5.1,2.55"/><path class="cls-21" d="M13.65,74.05l-7.2-3.6v-2.8l17,8.4.15,2.85-10-4.85m25.8-4-4.4,4.85V66.3l4.4-4.85V70m-7.6,8.35-.75-.25-1.55-.75v-4.9l2.3-2.5v8.4"/><path class="cls-22" d="M29.55,72.45v4.9l1.55.75L21.3,88.6V83.5l1.85-3.1.45-1.5,5.95-6.65v.2"/><path class="cls-23" d="M29.55,72.45v-.2l2.3-2.3-2.3,2.5"/><path class="cls-24" d="M10.9,72.75l2.75,1.3,10,4.85-.45,1.5L10.6,74.3l.3-1.55M21.3,88.6,8.75,82.5V77.05L21.3,83.5v5.1"/><path class="cls-25" d="M21.3,88.6l9.8-10.5.65,2.25-9,9.65a2.23,2.23,0,0,1-1.05.6l-1.25-.2L7.9,84.3l-.85-.75a2,2,0,0,1-.3-1V77.05A1.89,1.89,0,0,1,7.1,76l1.45-2.2,2.35-1-.3,1.55L8.75,77.05V82.5L21.3,88.6"/><path class="cls-26" d="M8.75,77.05,10.6,74.3l12.55,6.1L21.3,83.5,8.75,77.05"/><path class="cls-27" d="M43.9,53.55v11.5l-4.45,5V61.45l-4.4,4.85v8.55l-3.2,3.5V70l-2.3,2.3L23.6,78.9l-.15-2.85L43.9,53.55"/><path class="cls-28" d="M51.55,69.75V68.9a1.89,1.89,0,0,1,.5-1.3l3.7-4.35A1.8,1.8,0,0,1,57,62.6l2.4-.4,1.15.15,5.85,2.75.65.5.45.75.25.8L66.05,69V68.7l-.55-1.8-5.85-2.75-2.4.4-3.7,4.35v1.75l-2-.9"/><path class="cls-29" d="M53.55,68.9l3.7-4.35,2.4-.4L65.5,66.9l.55,1.8-3.7,4.35-2.35.4L54.1,70.7l-.55-1.8"/><path class="cls-30" d="M67.7,67.15l.3,1,0,.55V82.6a2,2,0,0,1-.45,1.3l-3.7,4.35a2.17,2.17,0,0,1-1.2.7l-2.35.4-1.2-.15-5.9-2.75L52.6,86l-.4-.75-.55-1.75-.1-.6V69.75l2,.9v12.2l.55,1.75L60,87.35l2.35-.4,3.7-4.35V69l1.65-1.8"/><path class="cls-5" d="M53.55,70.65V68.9l.55,1.8L60,73.45V76.9l-5.9-2.75-.55-1.75V70.65m0,8.7.55,1.8L60,83.9v-7l2.35-.4v7L60,83.9v3.45L54.1,84.6l-.55-1.75v-3.5"/><path class="cls-6" d="M53.55,79.35V72.4l.55,1.75L60,76.9v7l-5.9-2.75-.55-1.8M66.05,68.7v3.45l-3.7,4.35V73.05l3.7-4.35m0,10.4v3.5L62.35,87v-3.5l3.7-4.35"/><path class="cls-31" d="M60,76.9V73.45l2.35-.4V76.5L60,76.9m2.35,10-2.35.4V83.9l2.35-.45V87"/><path class="cls-32" d="M62.35,76.5l3.7-4.35V79.1l-3.7,4.35v-7"/><path class="cls-33" d="M59,48.5l-.55,2L56.3,50l.55-2,2.1.55m1.65-5.1,1.95,2-2,2-1.95-2,2-2"/><path class="cls-34" d="M59.65,53.25a1.76,1.76,0,0,1,1,.3l.75.7L64.7,60,65,61v4.9l1.2,1.4a1.82,1.82,0,0,1,.5,1.25,2.27,2.27,0,0,1-.4,1.3l-2.8,3.55-.7.55-.9.2H58.4a1.89,1.89,0,0,1-1.3-.5L54.05,71l-.5-.65-.2-.85V63.7a1.77,1.77,0,0,1,.4-1.15l2.1-2.95V55.25a2.05,2.05,0,0,1,2-2h1.8m-1.8,2v5l-2.5,3.45v5.75l3,2.7h3.45l2.8-3.55L63,66.65V61l-3.3-5.75h-1.8"/><path class="cls-35" d="M57.85,55.25h1.8L63,61v5.65l1.7,1.95-2.8,3.55H58.4l-3-2.7V63.7l2.5-3.45v-5"/><path class="cls-8" d="M27.45,102.9a5.1,5.1,0,0,0,1.75-1.1l.2-.15a4.53,4.53,0,0,0,1.15-3v-.85a49.92,49.92,0,0,0-1.35-12.5q-1.39-5.14-3.35-5.15t-3.3,5.15a48.37,48.37,0,0,0-1.4,12.5v.85a4.3,4.3,0,0,0,1.25,3l.15.15,1.75,1.1v1.15a1.54,1.54,0,0,0,1.55,1.55h0l1.05-.45a1.44,1.44,0,0,0,.5-1.1V102.9m-6.8-.25a6,6,0,0,1-1.5-3.9v-.9a48.75,48.75,0,0,1,1.5-13q1.84-7.09,5.2-6.65,3.34-.49,5.3,6.65a52.21,52.21,0,0,1,1.4,13v.9a6.53,6.53,0,0,1-1.4,4l-.5.55h0l-1.15.9a3.21,3.21,0,0,1-1,2.35l-.15.15a3.51,3.51,0,0,1-2.4.95h0a3.38,3.38,0,0,1-2.5-1,3.48,3.48,0,0,1-1.05-2.45l-1.15-.9h.05l-.55-.6"/><path class="cls-9" d="M24.3,102.9l-1.75-1.1-.15-.15a4.3,4.3,0,0,1-1.25-3v-.85a48.37,48.37,0,0,1,1.4-12.5q1.35-5.14,3.3-5.15t3.35,5.15a49.92,49.92,0,0,1,1.35,12.5v.85a4.53,4.53,0,0,1-1.15,3l-.2.15a5.1,5.1,0,0,1-1.75,1.1l-1.6.25-1.55-.25"/><path class="cls-10" d="M31.15,102.7a3.36,3.36,0,0,1,1.5,2.7,3.72,3.72,0,0,1-2,3.1,8.34,8.34,0,0,1-4.75,1.3,8.57,8.57,0,0,1-4.8-1.3,3.72,3.72,0,0,1-2-3.1,3.48,3.48,0,0,1,1.5-2.75l.55.6h-.05l1.15.9a3.48,3.48,0,0,0,1.05,2.45,3.38,3.38,0,0,0,2.5,1h0a3.51,3.51,0,0,0,2.4-.95l.15-.15a3.21,3.21,0,0,0,1-2.35l1.15-.9h0l.5-.55"/><path class="cls-1" d="M27.45,102.9v1.15a1.44,1.44,0,0,1-.5,1.1l-1.05.45h0a1.54,1.54,0,0,1-1.55-1.55V102.9l1.55.25,1.6-.25"/></g></g></svg>