<svg xmlns="http://www.w3.org/2000/svg" viewBox="0 0 120 140"><defs><style>.cls-1{fill:#bb6444;}.cls-2{fill:#b55f40;}.cls-3{fill:#c26948;}.cls-4{fill:#434343;}.cls-5{fill:#cad9d9;}.cls-6{fill:#727979;}.cls-7{fill:#b9c6c6;}.cls-8{fill:#ecbc00;}.cls-9{fill:#856a00;}.cls-10{fill:#fc0;}.cls-11{fill:#81b0bf;}.cls-12{fill:#c4f0ff;}.cls-13{fill:#d7f4ff;}.cls-14{fill:#d4e2e2;}.cls-15{fill:#c3d0d0;}.cls-16{fill:#98a3a3;}.cls-17{fill:#a6b1b1;}.cls-18{fill:#d5e5e5;}.cls-19{fill:#dbaf00;}.cls-20{fill:#743a25;}.cls-21{fill:#bb5f3c;}.cls-22{fill:#a15133;}.cls-23{fill:#e5794f;}.cls-24{fill:#d26f49;}</style></defs><title>Asset 104</title><g id="Layer_2" data-name="Layer 2"><g id="Layer_1-2" data-name="Layer 1"><path class="cls-1" d="M113.9,36.7l-5-1.9-1.9,5,5,2,1.85-5M60,9.2,62.2,14l4.85-2.15L64.9,7.05,60,9.2m56.25,45-5.35-.5-.5,5.3,5.25.5.6-5.3m-91.1-30.6-.55,5.3,5.25.5.55-5.25-5.25-.55M43.6,46.2l-7.2,2.3,2.25,7.2,7.25-2.25L43.6,46.2m-9.45-8.55,3.35,4.1,4.15-3.35-3.4-4.1-4.1,3.35M43.65,25,40,28.8l3.85,3.65L47.5,28.6,43.65,25M30.85,50.3l-4.8,2.2,2.15,4.85L33,55.2l-2.15-4.9m20.7-13.6-5-1.9-1.9,5,5.05,2,1.85-5m7.55,1.95-5.25.65.6,5.25L59.7,44l-.6-5.3m28.4-15.1L87,28.85l5.25.5.55-5.25-5.25-.55M82,35.6l2.3,7.25,7.25-2.3L89.2,33.3,82,35.6m-12,14-4.5,1.55L67,55.6l4.45-1.5L70,49.6m23.25.7-4.8,2.2,2.15,4.85L95.4,55.2l-2.2-4.9m-7.45,1.85L76.25,50l-2.1,9.55,9.45,2.1,2.15-9.5M102.3,79.1,98,76l-3.1,4.3,4.35,3.1,3-4.3M82.6,76.75,75.9,70.6l-6.2,6.7,6.75,6.2,6.15-6.75m21.65-9,.4-3.7-9.3-1-1.1,9.3,9.3,1,.65-5.6h0M67.05,74.2,64.9,69.4,60,71.55l2.2,4.85,4.85-2.2m25.7,12.25L87.5,86,87,91.2l5.25.5.55-5.25m-18,12.2L77.25,89l-9.6-2.5L65.2,96.1l9.55,2.55M91.5,103l-2.3-7.3L82,98l2.3,7.25L91.5,103m-49.85-2.2-3.4-4.1L34.15,100l3.35,4.1,4.15-3.35M31.9,72.3l9.3,1,.65-5.6h0l.4-3.7L33,63,31.9,72.3m25.25,4.45h0L49.8,78.5l1.7,7.4,7.4-1.75-1.75-7.4M96.5,100l3.35,4.1,4.15-3.35-3.4-4.1L96.5,100m-51.85,2.15,5.05,1.95,1.85-5-5-1.9-1.9,5M25.15,86,24.6,91.2l5.25.5.55-5.25L25.15,86m6.9,28.2-2.2-4.9-4.75,2.2,2.15,4.85,4.8-2.15m26.8,9.1.8,5.2,5.25-.8-.85-5.25-5.2.85M75.1,119.5l9.45,2.1,2.15-9.5L77.2,110l-2.1,9.55M43.6,108.6l-7.2,2.25,2.25,7.25,7.25-2.3-2.3-7.2M70,112l-4.5,1.55L67,118l4.45-1.55L70,112m37.1-9.8,5,1.95,1.85-5-5-1.9-1.9,5M120,35v70L60,140,0,105V35L60,0l60,35M23.4,52.15,13.9,50l-2.1,9.55,9.45,2.1,2.15-9.5M14.9,89,5.3,86.5,2.8,96.1l9.6,2.55L14.9,89m5.35-12.25-6.7-6.15-6.2,6.7,6.7,6.2,6.2-6.75M2.3,44l4.25,3.1,3.1-4.3-4.25-3L2.3,44"/><path class="cls-2" d="M2.3,44,5.4,39.7l4.25,3-3.1,4.3L2.3,44m114,10.2-.6,5.3L110.4,59l.5-5.3,5.35.5M60,9.2l4.9-2.15,2.15,4.8L62.2,14,60,9.2M43.65,25,47.5,28.6l-3.65,3.85L40,28.8,43.65,25m-9.5,12.7,4.1-3.35,3.4,4.1L37.5,41.75l-3.35-4.1M43.6,46.2l2.3,7.25L38.65,55.7,36.4,48.5l7.2-2.3m15.5-7.55.6,5.3-5.25.6-.6-5.25,5.25-.65M51.55,36.7l-1.85,5-5.05-2,1.9-5,5,1.9M70,49.6l1.5,4.5L67,55.6l-1.55-4.45L70,49.6m12-14,7.25-2.3,2.3,7.25-7.25,2.3L82,35.6m3.8,16.55-2.15,9.5-9.45-2.1L76.25,50l9.5,2.15m18.5,15.6h0l-.65,5.6-9.3-1,1.1-9.3,9.3,1-.4,3.7m-21.65,9L76.45,83.5,69.7,77.3l6.2-6.7,6.7,6.15m-7.85,21.9L65.2,96.1l2.45-9.6,9.6,2.5-2.5,9.65m18-12.2L92.2,91.7,87,91.2,87.5,86l5.25.5M96.5,100l4.1-3.35,3.4,4.1-4.15,3.35L96.5,100M57.15,76.75l1.75,7.4L51.5,85.9l-1.7-7.4,7.3-1.75h0M31.9,72.3,33,63l9.35,1-.4,3.7h0l-.65,5.6-9.3-1m9.75,28.45L37.5,104.1,34.15,100l4.1-3.35,3.4,4.1m17.2,22.5,5.2-.85.85,5.25-5.25.8-.8-5.2m-26.8-9.1-4.8,2.15-2.15-4.85,4.75-2.2,2.2,4.9M70,112l1.5,4.5L67,118l-1.55-4.5L70,112m-49.7-35.2-6.2,6.75-6.7-6.2,6.2-6.7,6.7,6.15M14.9,89l-2.5,9.65L2.8,96.1l2.5-9.6L14.9,89"/><path class="cls-3" d="M113.9,36.7l-1.85,5-5-2,1.9-5,5,1.9M25.15,23.55l5.25.55-.55,5.25-5.25-.5.55-5.3m5.7,26.75L33,55.2l-4.8,2.15L26.05,52.5l4.8-2.2M87.5,23.55l5.25.55-.55,5.25L87,28.85l.55-5.3M93.2,50.3l2.2,4.9-4.85,2.15L88.4,52.5l4.8-2.2m9.1,28.8-3,4.3L94.9,80.3,98,76l4.3,3.1M67.05,74.2,62.2,76.4,60,71.55l4.9-2.15,2.15,4.8M91.5,103l-7.25,2.25L82,98l7.25-2.3,2.3,7.3M25.15,86l5.25.5-.55,5.25-5.25-.5L25.15,86m19.5,16.2,1.9-5,5,1.9-1.85,5-5.05-1.95m-1,6.45,2.3,7.2-7.25,2.3-2.25-7.25,7.2-2.25m31.5,10.9L77.2,110l9.5,2.15-2.15,9.5-9.45-2.1m32-17.35,1.9-5,5,1.9-1.85,5-5-1.95m-83.65-50-2.15,9.5-9.45-2.1L13.9,50l9.5,2.15"/><path class="cls-4" d="M61.35,9.1l1.3,1.75L61.2,12.6l-2.75-.1L57.2,10.7,58.65,9l2.7.1"/><path class="cls-5" d="M61.35,9.1,58.65,9,57.2,10.7l1.25,1.8,2.75.1,1.45-1.75L61.35,9.1m-6.3,1.55,2.6-3.1,4.9.15,2.25,3.2L62.2,14l.95,29.9-6.85-.15,1.05-29.9-2.3-3.2"/><path class="cls-6" d="M55.05,10.65l-2,28.55v0l-1.8-2.55,1.8-26.2a1.68,1.68,0,0,1,.5-1.1l2.6-3.1a1.27,1.27,0,0,1,.7-.55l.85-.2,4.9.15.9.25.7.6,2.25,3.2.35,1.05,1.85,26.7L66.8,39.65v0l-2-28.7L62.55,7.7l-4.9-.15-2.6,3.1"/><path class="cls-7" d="M55.05,10.65l2.3,3.2L56.3,43.75,53.05,39.2l2-28.55m9.75.25,2,28.7-3.65,4.3L62.2,14l2.6-3.1"/><path class="cls-8" d="M53.05,39.25v0l3.25,4.55L55.2,73.6l-4.1-5.8,1.95-28.55m13.75.35v0l2,28.6-4.7,5.6-.9-29.95,3.65-4.3"/><path class="cls-9" d="M68.65,37.5l2.1,30.65a2,2,0,0,1-.45,1.4l-4.7,5.6-.7.55-.9.15-8.85-.25-.9-.2-.65-.65L49.5,69a1.9,1.9,0,0,1-.4-1.3L51.25,36.7l1.8,2.55L51.1,67.8l4.1,5.8,8.85.25,4.7-5.6-2-28.6,1.85-2.15"/><path class="cls-10" d="M56.3,43.75l6.85.15.9,29.95L55.2,73.6l1.1-29.85"/><path class="cls-11" d="M61.75,44.8,35.8,32.7,21.15,49.9l-1.8-.9.2-.3L34.3,31.4a1.87,1.87,0,0,1,1.1-.65l1.25.15L84.7,53.3l.5.35-1.35,1.6V55.1l-3-1.4-9.6-4.5-3-1.4-6.45-3"/><path class="cls-12" d="M61.75,44.8,32.35,55.3l-4.5-2.15-6.7-3.25L35.8,32.7l26,12.1m6.45,3,3,1.4L41.7,59.75l-3-1.4L68.2,47.8m12.6,5.9,3,1.4-15,17.55L52.8,65l26.4-9.4,1.6-1.9"/><path class="cls-6" d="M83.85,55.25l1.35-1.6.35.4.3,1.05v2.3L107.3,67.55l.85.75.3,1V77.2l-.2,1-.25.35-18.65,22-1.9-.9,19-22.25,0-.1V69.35l-22.6-10.7v-3.4M19.35,49l1.8.9-.1.1v3.85l-4.35,5v7.85l-2-1V58.9a1.89,1.89,0,0,1,.5-1.3l3.85-4.5V50a1.76,1.76,0,0,1,.3-1"/><path class="cls-13" d="M61.75,44.8l6.45,3L38.75,58.35l-6.4-3.05,29.4-10.5m9.45,4.4,9.6,4.5-1.6,1.9L52.8,65,41.7,59.75,71.2,49.2"/><path class="cls-14" d="M21.15,49.9l6.7,3.25L21.05,50l.1-.1M89.3,75.65l-3.45,3.9,5,2.35,3.35-4L89.3,75.65m1.5-9.85-5,5.7L93,74.85l4.85-5.75-7-3.3m-22,10.4,15-17.55,22.6,10.7L87.4,91.7,16.7,58.9l4.35-5L68.85,76.2"/><path class="cls-15" d="M90.8,65.8l7,3.3L93,74.85,85.85,71.5l5-5.7m-1.5,9.85,4.85,2.25-3.35,4-5-2.35,3.45-3.9"/><path class="cls-16" d="M83.85,55.1v3.55l-15,17.55V72.65l15-17.55M87.4,99.6V91.7l19-22.35V77.2l0,.1-19,22.25,0,0"/><path class="cls-7" d="M87.4,99.6,16.7,66.75V58.9L87.4,91.7v7.9M27.85,53.15l4.5,2.15,6.4,3.05,3,1.4L52.8,65l16,7.65V76.2L21.05,53.85V50l6.8,3.15"/><path class="cls-9" d="M89.35,100.45l-.4.45-.9.6-9.9,3.3-1.5,0L15.85,76.5l-.8-.75a1.89,1.89,0,0,1-.35-1.1V65.8l2,1v7.9L77.5,102.9l9.9-3.3,0,0,1.9.9"/><path class="cls-8" d="M16.7,66.75,87.4,99.6l-9.9,3.3L16.7,74.65v-7.9"/><path class="cls-6" d="M34.35,65.75l.95-2,.75.7.3,1V82.3l1,.5.85.75.3,1V87l-.45,1.3-6.35,7.5a2.11,2.11,0,0,1-1.1.65l-1.3-.1L17.4,90.75,16.6,90a1.89,1.89,0,0,1-.35-1.1V86.6a1.89,1.89,0,0,1,.5-1.3l3.3-3.9,2,.7-3.8,4.5v2.3l11.9,5.55L36.5,87V84.6l-2.15-1V65.75"/><path class="cls-9" d="M34.35,65.75V65.5L26.8,62,22.05,72.3v9.8l-2-.7V72.3l.2-.8L25,61.15a1.81,1.81,0,0,1,1.15-1l1.5,0L35.2,63.7l.1,0-.95,2"/><path class="cls-17" d="M34.35,65.75V83.6L29.6,89.25V75.8l4.75-10.3v.25M36.5,84.6V87l-6.35,7.5v-2.3L36.5,84.6"/><path class="cls-10" d="M22.05,72.3,26.8,62l7.55,3.55L29.6,75.8l-7.55-3.5"/><path class="cls-18" d="M34.35,83.6l2.15,1-6.35,7.55L18.25,86.6l3.8-4.5v3.6l7.55,3.55,4.75-5.65"/><path class="cls-7" d="M30.15,94.45,18.25,88.9V86.6l11.9,5.55v2.3"/><path class="cls-19" d="M22.05,82.1V72.3l7.55,3.5V89.25L22.05,85.7V82.1"/><path class="cls-20" d="M62.75,109.9l2.35-.4,3.7-4.35V91.5l1.65-1.8.3,1,0,.55v13.9a2,2,0,0,1-.45,1.3l-3.7,4.35a2.17,2.17,0,0,1-1.2.7l-2.35.4-1.2-.15L56,109l-.65-.5-.4-.75L54.4,106l-.1-.6V92.3l2,.9v12.2l.55,1.75,5.9,2.75"/><path class="cls-6" d="M70.45,89.7,68.8,91.5v-.25l-.55-1.8L62.4,86.7l-2.4.4-3.7,4.35V93.2l-2-.9v-.85a1.89,1.89,0,0,1,.5-1.3l3.7-4.35a1.8,1.8,0,0,1,1.2-.65l2.4-.4,1.15.15,5.85,2.75a1.94,1.94,0,0,1,.65.5l.45.75.25.8"/><path class="cls-21" d="M68.8,91.25V94.7l-3.7,4.35V95.6l3.7-4.35m0,10.4v3.5l-3.7,4.35V106l3.7-4.35m-12.5.25V95l.55,1.75,5.9,2.75v7l-5.9-2.75-.55-1.8"/><path class="cls-18" d="M56.3,91.45,60,87.1l2.4-.4,5.85,2.75.55,1.8L65.1,95.6l-2.35.4-5.9-2.75-.55-1.8"/><path class="cls-22" d="M68.8,94.7v7L65.1,106v-7l3.7-4.35"/><path class="cls-23" d="M65.1,109.5l-2.35.4v-3.45L65.1,106v3.5m0-13.9v3.45l-2.35.4V96l2.35-.4"/><path class="cls-24" d="M56.3,93.2V91.45l.55,1.8L62.75,96v3.45l2.35-.4v7l-2.35.45v-7l-5.9-2.75L56.3,95V93.2m6.45,16.7-5.9-2.75-.55-1.75v-3.5l.55,1.8,5.9,2.75v3.45"/><path class="cls-6" d="M67.3,98.3v-.85a1.89,1.89,0,0,1,.5-1.3l3.7-4.35a1.8,1.8,0,0,1,1.2-.65l2.4-.4,1.15.15,5.85,2.75.65.5.45.75.25.8L81.8,97.5v-.25l-.55-1.8L75.4,92.7l-2.4.4-3.7,4.35V99.2l-2-.9"/><path class="cls-20" d="M67.3,98.3l2,.9v12.2l.55,1.75,5.9,2.75,2.35-.4,3.7-4.35V97.5l1.65-1.8.3,1,0,.55v13.9a2,2,0,0,1-.45,1.3l-3.7,4.35-1.2.7-2.35.4-1.2-.15L69,115l-.65-.5-.4-.75L67.4,112l-.1-.6V98.3"/><path class="cls-24" d="M69.3,99.2V97.45l.55,1.8,5.9,2.75v3.45l2.35-.4v7l-2.35.45v3.45l-5.9-2.75-.55-1.75v-3.5l.55,1.8,5.9,2.75v-7l-5.9-2.75L69.3,101V99.2"/><path class="cls-18" d="M69.3,97.45,73,93.1l2.4-.4,5.85,2.75.55,1.8-3.7,4.35-2.35.4-5.9-2.75-.55-1.8"/><path class="cls-21" d="M81.8,97.25v3.45l-3.7,4.35V101.6l3.7-4.35M69.3,101l.55,1.75,5.9,2.75v7l-5.9-2.75-.55-1.8v-7m8.8,11,3.7-4.35v3.5l-3.7,4.35V112"/><path class="cls-23" d="M78.1,112v3.5l-2.35.4v-3.45L78.1,112m-2.35-6.55V102l2.35-.4v3.45l-2.35.4"/><path class="cls-22" d="M78.1,105.05l3.7-4.35v7L78.1,112v-7"/></g></g></svg>