<svg xmlns="http://www.w3.org/2000/svg" xmlns:xlink="http://www.w3.org/1999/xlink" viewBox="0 0 120 140"><defs><style>.cls-1{fill:#e5d5b2;}.cls-2{fill:#ecdcb8;}.cls-3{fill:#e0d1af;}.cls-4{fill:#855b30;}.cls-5{fill:#af783f;}.cls-6{fill:#bb8044;}.cls-7{fill:#cd8c4a;}.cls-8{fill:#726a59;}.cls-9{fill:#9c9179;}.cls-10{fill:#cbbd9e;}.cls-11{fill-opacity:0.1;}.cls-12{fill:#ffad00;}.cls-13{fill:#db8300;}.cls-14{fill:url(#linear-gradient);}.cls-15{fill:#1a7741;}.cls-16{fill:#2bc46c;}.cls-17{fill:#27ae60;}</style><linearGradient id="linear-gradient" x1="-2119.2" y1="69.3" x2="-480.8" y2="69.3" gradientTransform="matrix(0, 0.01, 0.01, 0, 52.79, 76.68)" gradientUnits="userSpaceOnUse"><stop offset="0" stop-color="#fc0"/><stop offset="1" stop-color="#f90"/></linearGradient></defs><title>Asset 156</title><g id="Layer_2" data-name="Layer 2"><g id="Layer_1-2" data-name="Layer 1"><path class="cls-1" d="M62.55,17.85A44.83,44.83,0,0,0,65.9,10.5L85.85,22.15l-2.8.9,0,.05A38.37,38.37,0,0,0,60,38.75a51.77,51.77,0,0,0-6.8,14.3,44.24,44.24,0,0,1-2.4,7.05l-2,3.95Q40.95,77.6,23,83.15l.05,0A39.28,39.28,0,0,0,6,91.9v-22l.85-3A60.49,60.49,0,0,1,9.5,60.1q8.4-18.49,27.55-23.25l0-.05q15.11-4.69,23-15l2.6-3.9M48.3,19l4.35-.7.7,4.35L49,23.3,48.3,19m31,21.4-.45,3.1-3.15-.4.4-3.15,3.2.45M78.55,33l4-1.85,1.75,4L80.3,37l-1.75-4m18.55,3.9,0-.05a61.49,61.49,0,0,0,8.35-3.25l5.65,3.3h0A5.83,5.83,0,0,1,114,42v8.7l-.8,2.35a39,39,0,0,1-2.4,7.05l-2,3.95Q101,77.6,83.05,83.15l0,0A38.43,38.43,0,0,0,60,98.8a51.69,51.69,0,0,0-6.8,14.35,42.65,42.65,0,0,1-2.4,7l-2,3.95-1,1.7-30.3-17.65A39,39,0,0,1,37.05,97l0,0q15.11-4.7,23-15.05l2.6-3.9A43.55,43.55,0,0,0,67,67a53.62,53.62,0,0,1,2.6-6.85Q78,41.61,97.1,36.85M9.25,46.8l2-.9L12.1,48l-2,.95-.85-2.1M13.6,44,10.85,40.2l3.75-2.8,2.85,3.75L13.6,44m11-5.6L21.45,41l-2.6-3.25,3.25-2.6,2.55,3.25m6.5,51.5-1,4.05-4-1,1-4,4,.95m.2-1.5,3.55-6.7,6.6,3.55-3.6,6.65-6.55-3.5m81.9-16.1-.75,6.55L106,78.05l.75-6.6,6.55.8M91.4,86.05,90.15,89l-2.9-1.2,1.2-3,3,1.25M87.2,91h4.6V95.5H87.25l0-4.55m9.9,6,0,0a49.44,49.44,0,0,0,17-8.8v10a5.89,5.89,0,0,1-.8,3,6.35,6.35,0,0,1-2.2,2.2h0L66.3,129.3,67,127a53.62,53.62,0,0,1,2.6-6.85Q78,101.7,97.1,97M54.2,61.45h4.6V66H54.25l0-4.55M58,72l1,7-7.1,1.1-1-7L58,72M76.8,91.45,83,93.9,80.5,100l-6.15-2.4,2.45-6.15m-13.5,14.3-1.15,2-1.9-1,1-2,2,1m1.45,16.85-4,1.85-1.75-4,4-1.85,1.75,4"/><path class="cls-2" d="M64.75,122.6l-1.75-4-4,1.85,1.75,4,4-1.85M62.55,17.85,60,21.75q-7.85,10.35-23,15l0,.05Q17.9,41.61,9.5,60.1A60.49,60.49,0,0,0,6.85,67L6,69.9v22a39.28,39.28,0,0,1,17-8.7l-.05,0q18-5.55,25.8-19.1l2-3.95a44.24,44.24,0,0,0,2.4-7.05A51.77,51.77,0,0,1,60,38.75,38.37,38.37,0,0,1,83.1,23.1l0-.05,2.8-.9L65.9,10.5a44.83,44.83,0,0,1-3.35,7.35M18.35,24.3l27.5-16h0L60,0l60,35v70L60,140,0,105V35L17.25,25l.05-.05h.05l1-.6M78.55,33l1.75,4,4-1.85-1.75-4-4,1.85m.75,7.4-3.2-.45-.4,3.15,3.15.4.45-3.1M48.3,19,49,23.3l4.35-.7-.7-4.35L48.3,19m48.8,17.9Q77.94,41.61,69.55,60.1A53.62,53.62,0,0,0,67,67a43.55,43.55,0,0,1-4.4,11L60,81.85Q52.11,92.2,37,96.9l0,0a39,39,0,0,0-19.6,11.2l30.3,17.65,1-1.7,2-3.95a42.65,42.65,0,0,0,2.4-7A51.69,51.69,0,0,1,60,98.8,38.43,38.43,0,0,1,83.1,83.2l0,0q18-5.55,25.75-19.1l2-3.95a39,39,0,0,0,2.4-7.05l.8-2.35V42a5.83,5.83,0,0,0-3-5.15h0l-5.65-3.3a61.49,61.49,0,0,1-8.35,3.25l0,.05M87.2,91l0,4.55H91.8V91H87.2m4.2-4.9-3-1.25-1.2,3,2.9,1.2,1.25-2.9m21.85-13.8-6.55-.8-.75,6.6,6.55.75.75-6.55m-81.9,16.1,6.55,3.5,3.6-6.65-6.6-3.55-3.55,6.7m-.2,1.5-4-.95-1,4,4,1,1-4.05m-6.5-51.5L22.1,35.1l-3.25,2.6L21.45,41l3.2-2.6M13.6,44l3.85-2.8L14.6,37.4l-3.75,2.8L13.6,44M9.25,46.8l.85,2.1,2-.95-.85-2.05-2,.9M97.1,97q-19.15,4.76-27.55,23.2A53.62,53.62,0,0,0,67,127l-.65,2.3,44.75-26.1h0a6.35,6.35,0,0,0,2.2-2.2,5.89,5.89,0,0,0,.8-3v-10a49.44,49.44,0,0,1-17,8.8l0,0m-33.8,8.8-2-1-1,2,1.9,1,1.15-2m13.5-14.3L74.35,97.6,80.5,100,83,93.9,76.8,91.45M58,72l-7.1,1.1,1,7L59,79l-1-7M54.2,61.45l0,4.55H58.8V61.45H54.2"/><path class="cls-3" d="M17.3,24.9l1.05-.6-1,.6H17.3"/><path class="cls-4" d="M76.25,33.5l-4.8.85-4.6,1.5L66.4,41l7,6.65,8.9-2.7-2-11.3-4.1-.1m0-2,4.1.1a1.82,1.82,0,0,1,1.25.5,2,2,0,0,1,.7,1.15l2,11.3a2,2,0,0,1-.3,1.4l-1.1.9-8.9,2.7H73a2,2,0,0,1-.9-.5l-7-6.65-.5-.75-.15-.85.45-5.1a1.79,1.79,0,0,1,.45-1.1,1.91,1.91,0,0,1,1-.65l4.6-1.5.25-.05,4.8-.85.4-.05"/><path class="cls-5" d="M76.25,33.5l4.1.1,2,11.3L77.1,38.15l-.85-4.65M66.4,41l.45-5.1,4.6-1.5-.1,1L66.4,41"/><path class="cls-6" d="M66.4,41l4.95-5.6.1-1,4.8-.85.85,4.65L75,38.8l-1.55,8.8L66.4,41"/><path class="cls-7" d="M82.35,44.9l-8.9,2.7L75,38.8l2.1-.65,5.25,6.75"/><path class="cls-8" d="M49.05,62.3l18.4.5,9.9-11.6L58.85,21.7,40.35,50.15l8.7,12.15M58.2,19.8l1.35.05a1.69,1.69,0,0,1,1,.8l18.5,29.5a2,2,0,0,1,.3,1.2,2,2,0,0,1-.45,1.15L69,64.1l-.75.55-.85.15L49,64.3l-.85-.2-.7-.6-8.7-12.15a1.91,1.91,0,0,1-.4-1.15,2.15,2.15,0,0,1,.35-1.15L57.2,20.6a1.69,1.69,0,0,1,1-.8"/><path class="cls-2" d="M58.3,46.55a2.74,2.74,0,0,0-2.85,2.85v6.45a2.72,2.72,0,0,0,.8,2,2.79,2.79,0,0,0,2,.85,3,3,0,0,0,2.85-2.85V49.4a2.72,2.72,0,0,0-.9-2,2.66,2.66,0,0,0-2-.8M67.45,62.8l-18.4-.5,9.8-40.6,8.6,41.1"/><path class="cls-9" d="M58.3,46.55a2.66,2.66,0,0,1,2,.8,2.72,2.72,0,0,1,.9,2v6.45A3,3,0,0,1,58.3,58.7a2.79,2.79,0,0,1-2-.85,2.72,2.72,0,0,1-.8-2V49.4a2.74,2.74,0,0,1,2.85-2.85"/><path class="cls-10" d="M49.05,62.3l-8.7-12.15L58.85,21.7l18.5,29.5-9.9,11.6-8.6-41.1-9.8,40.6"/><path class="cls-8" d="M107.1,88.8a2,2,0,0,1,.3,1.2,2,2,0,0,1-.45,1.15l-9.9,11.6-.75.55-.85.15-18.4-.5-.85-.2-.7-.6L66.8,90a1.91,1.91,0,0,1-.4-1.15,2.15,2.15,0,0,1,.35-1.15l18.5-28.45a1.69,1.69,0,0,1,1-.8l1.35,0a1.69,1.69,0,0,1,1,.8l18.5,29.5M95.5,101.45l9.9-11.6L86.9,60.35,68.4,88.8,77.1,101l18.4.5"/><path class="cls-10" d="M95.5,101.45l-8.6-41.1L77.1,101,68.4,88.8,86.9,60.35l18.5,29.5-9.9,11.6"/><path class="cls-2" d="M95.5,101.45,77.1,101l9.8-40.6,8.6,41.1"/><path class="cls-11" d="M40.75,72.8a11.31,11.31,0,0,1,6.15-1.6,11.31,11.31,0,0,1,6.15,1.6q2.55,1.61,2.55,3.9t-2.55,3.9a11.31,11.31,0,0,1-6.15,1.6,11.31,11.31,0,0,1-6.15-1.6Q38.2,79,38.2,76.7t2.55-3.9"/><path class="cls-12" d="M50.1,51l-2,2-2-2,2-2,2,2M43.85,55.6l.55-2.05,2.1.55-.55,2-2.1-.55"/><path class="cls-13" d="M40.9,69.3a1.77,1.77,0,0,1,.4-1.15l2.1-3V60.85a2.05,2.05,0,0,1,2-2h1.8l1,.3a2.18,2.18,0,0,1,.75.7l3.3,5.75.25,1v4.9l1.2,1.4a1.82,1.82,0,0,1,.5,1.25,2.27,2.27,0,0,1-.4,1.3L51,79l-.7.55-.9.2H46a1.89,1.89,0,0,1-1.3-.5l-3-2.7-.5-.65-.2-.85V69.3m6.3-8.45H45.4v5L42.9,69.3v5.75L46,77.75H49.4l2.8-3.55-1.7-2V66.6l-3.3-5.75"/><path class="cls-14" d="M47.2,60.85l3.3,5.75v5.65l1.7,2-2.8,3.55H46l-3.05-2.7V69.3l2.5-3.45v-5h1.8"/><path class="cls-4" d="M11.65,95.55a1.91,1.91,0,0,1,.95-.65l4.6-1.5.25-.05,4.8-.85.4,0,4.1.1a1.82,1.82,0,0,1,1.25.5,2,2,0,0,1,.7,1.15l2,11.3a2,2,0,0,1-.3,1.4l-1.1.9-8.9,2.7h-1l-.9-.5-7-6.65-.5-.75-.15-.85.45-5.1a1.79,1.79,0,0,1,.45-1.1m6.15-.25-4.6,1.5-.45,5.1,7.05,6.65,8.9-2.7-2-11.3-4.1-.1-4.8.85"/><path class="cls-5" d="M17.8,95.3l-.1,1-4.95,5.6.45-5.1,4.6-1.5m5.65,3.8-.85-4.65,4.1.1,2,11.3L23.45,99.1"/><path class="cls-6" d="M23.45,99.1l-2.1.65-1.55,8.8-7-6.65,4.95-5.6.1-1,4.8-.85.85,4.65"/><path class="cls-7" d="M23.45,99.1l5.25,6.75-8.9,2.7,1.55-8.8,2.1-.65"/><path class="cls-11" d="M16,60q0-2.05,2.55-3.55A12.22,12.22,0,0,1,24.7,55a12.22,12.22,0,0,1,6.15,1.45Q33.4,58,33.4,60c0,1.37-.85,2.53-2.55,3.5A11.93,11.93,0,0,1,24.7,65a11.93,11.93,0,0,1-6.15-1.5c-1.7-1-2.55-2.13-2.55-3.5"/><path class="cls-15" d="M21,53.05V58a1.88,1.88,0,0,0,1,1.6,4.43,4.43,0,0,0,2.45.65,4.35,4.35,0,0,0,2.4-.65,1.88,1.88,0,0,0,1-1.6V50.3h.85a4.16,4.16,0,0,0,3.05-1.25h.05A4.34,4.34,0,0,0,33.05,46v-5.3a2.05,2.05,0,0,0-3.5-1.45,1.91,1.91,0,0,0-.65,1.45V46l0,.15-.15.1-.85-.05V37a3.27,3.27,0,0,0-1-2.4,3.21,3.21,0,0,0-2.4-1A3.5,3.5,0,0,0,21,37V48.9l-.45.05-.15-.05v0l-.1-.15V43.45a2,2,0,0,0-.6-1.5,2.05,2.05,0,0,0-2.9,0,2,2,0,0,0-.6,1.5V48.7a4.27,4.27,0,0,0,4.35,4.35H21m-.4-19.9a5.18,5.18,0,0,1,3.85-1.65,5.12,5.12,0,0,1,3.85,1.7v-.05a5.14,5.14,0,0,1,1.55,3.5h.75l.4,0a4,4,0,0,1,2.9,1.2,3.87,3.87,0,0,1,1.15,2.85V46a6.33,6.33,0,0,1-1.8,4.5L33,50.7a6.41,6.41,0,0,1-3.15,1.5V58a3.67,3.67,0,0,1-1.9,3.3,6.27,6.27,0,0,1-3.5,1,6.37,6.37,0,0,1-3.55-1A3.67,3.67,0,0,1,19,58V54.9a6.1,6.1,0,0,1-2.9-1.65l-.1,0a6.33,6.33,0,0,1-1.8-4.5V43.45a3.85,3.85,0,0,1,1.2-2.9,3.8,3.8,0,0,1,2.85-1.2l.6,0,.15.05V37a5.11,5.11,0,0,1,1.55-3.75l.05-.05"/><path class="cls-16" d="M21,53.05h-.45A4.27,4.27,0,0,1,16.2,48.7V43.45a2,2,0,0,1,.6-1.5,2.05,2.05,0,0,1,2.9,0,2,2,0,0,1,.6,1.5V48.7l.1.15v0l.15.05L21,48.9h.4a2,2,0,0,1,1.45.6A1.91,1.91,0,0,1,23.5,51a2,2,0,0,1-.6,1.45,1.91,1.91,0,0,1-1.45.65H21"/><path class="cls-17" d="M21,53.05h.45a1.91,1.91,0,0,0,1.45-.65A2,2,0,0,0,23.5,51a1.91,1.91,0,0,0-.65-1.45,2,2,0,0,0-1.45-.6H21V37a3.5,3.5,0,0,1,3.45-3.45,3.21,3.21,0,0,1,2.4,1,3.27,3.27,0,0,1,1,2.4v9.2l.85.05.15-.1,0-.15v-5.3a1.91,1.91,0,0,1,.65-1.45,2.05,2.05,0,0,1,3.5,1.45V46a4.34,4.34,0,0,1-1.25,3.1h-.05A4.16,4.16,0,0,1,28.7,50.3h-.85V58a1.88,1.88,0,0,1-1,1.6,4.35,4.35,0,0,1-2.4.65A4.43,4.43,0,0,1,22,59.55,1.88,1.88,0,0,1,21,58v-4.9"/></g></g></svg>