<svg xmlns="http://www.w3.org/2000/svg" viewBox="0 0 120 140"><defs><style>.cls-1{fill:#bb8044;}.cls-2{fill:#c68a4e;}.cls-3{fill:#aa753e;}.cls-4{fill:#115f32;}.cls-5{fill:#168344;}.cls-6{fill:#10773c;}.cls-7{fill:#1b914d;}</style></defs><title>Asset 34</title><g id="Layer_2" data-name="Layer 2"><g id="Layer_1-2" data-name="Layer 1"><path class="cls-1" d="M104.55,54.8l1.2,4.45,4.4-1.25L109,53.6l-4.4,1.2M101.3,60l-3.2-.45-.4,3.15,3.15.4.45-3.1m-86.7-4.5-.85-2.05-2,.9.85,2.1,2-.95m12.85-11.8L24.6,39.9l-3.75,2.8,2.75,3.75,3.85-2.8m28.4-16-.7-4.35L50.8,24l.7,4.35,4.35-.7M23.65,59.8l6.85-3-3.05-6.9-6.8,3,3,6.9M34,51l3.2-2.6L34.6,45.1l-3.25,2.6L34,51M59.5,16.6l-.85,7,7.15.8.8-7-7.1-.8M60,0l60,35v70L60,140,0,105V35L60,0M42.75,106.7l1.9,1,1.15-2-2-1-1,2M41.7,95,35.1,91.4l-3.55,6.7,6.55,3.5L41.7,95m62.5-33.5-.75,6.6,6.55.75.75-6.55-6.55-.8M26.65,102l-1.2,4.55,4.5,1.2,1.25-4.45L26.65,102M24.35,91.4l-1,4,4,1,1-4.05-4-.95m64.1-14.1-1.2,3,2.9,1.2,1.25-2.9-3-1.25M89.7,86l0,4.55H94.3V86H89.7M76.85,97.6,83,100l2.45-6.1L79.3,91.45,76.85,97.6m33.9-1.75-1.75-4-4,1.85,1.75,4,4-1.85m-7.5,2.35-7.1,1.1,1,7,7.1-1.1-1-7"/><path class="cls-2" d="M101.3,60l-.45,3.1-3.15-.4.4-3.15,3.2.45M23.65,59.8l-3-6.9,6.8-3,3.05,6.9-6.85,3m32.2-32.2-4.35.7L50.8,24l4.35-.7.7,4.35M41.7,95l-3.6,6.65-6.55-3.5,3.55-6.7L41.7,95M88.45,77.3l3,1.25-1.25,2.9-2.9-1.2,1.2-3m22.3,18.55-4,1.85-1.75-4,4-1.85,1.75,4"/><path class="cls-3" d="M104.55,54.8l4.4-1.2,1.2,4.4-4.4,1.25-1.2-4.45M27.45,43.65l-3.85,2.8L20.85,42.7l3.75-2.8,2.85,3.75M14.6,55.45l-2,.95-.85-2.1,2-.9.85,2.05M59.5,16.6l7.1.8-.8,7.05-7.15-.8.85-7M34,51l-2.6-3.25,3.25-2.6,2.55,3.25L34,51m8.8,55.75,1-2,2,1-1.15,2-1.9-1M24.35,91.4l4,.95-1,4.05-4-1,1-4M26.65,102l4.55,1.3L30,107.7l-4.5-1.2,1.2-4.55m77.55-40.5,6.55.8L110,68.8l-6.55-.75.75-6.6M76.85,97.6l2.45-6.15,6.15,2.45L83,100l-6.15-2.4M89.7,86h4.6V90.5H89.75l0-4.55M103.25,98.2l1,7-7.1,1.1-1-7,7.1-1.1"/><path class="cls-4" d="M89.05,23.1l9.1,19.75.15,1-.4,1-.4.4,1.2,3.2a1.85,1.85,0,0,1,0,1.35l2.3,2.8a2,2,0,0,1,.45,1.15,2.07,2.07,0,0,1-.3,1.2l-1,.75L86.1,61.3l-1.3.1a2,2,0,0,1-1-.8L77,51a1.77,1.77,0,0,1-.4-1.15,2,2,0,0,1,.35-1.15l1.5-2.15L77.3,45a1.73,1.73,0,0,1-.4-1.25,1.92,1.92,0,0,1,.5-1.2l1.95-2.2-.2-.7a1.54,1.54,0,0,1,.1-1l6.1-15.45a1.82,1.82,0,0,1,1.05-1.1l1.5-.05a2,2,0,0,1,1.15,1.05m-8.2,23.45-2.3,3.3,6.8,9.6,1.5-.55,0,0,12.65-5-3.6-4.35,1-.35L95,44.2l-.4.15,1.75-.7L87.2,23.9,81.1,39.35l.75,1,.25.3h0l-.2-.3L78.9,43.8l1.95,2.75"/><path class="cls-5" d="M80.85,46.55l5,6.9.65-6.55v0L82.1,40.7l-.25-.3-.75-1L87.2,23.9l-.4,23.5,7.75-3,.4-.15,1.85,4.95-1,.35-9.7,3.8-.8,6.15-6.8-9.6,2.3-3.3"/><path class="cls-6" d="M80.85,46.55,78.9,43.8l2.95-3.4.2.3h0l4.35,6.15v0l-.65,6.55-5-6.9"/><path class="cls-7" d="M85.35,59.45l.8-6.15,9.7-3.8,3.6,4.35-12.65,5,0,0-1.5.55m9.2-15.1-7.75,3,.4-23.5,9.1,19.75-1.75.7"/><path class="cls-4" d="M89.05,40.8l9.1,19.75.15,1.05-.4.95-.4.4,1.2,3.2a1.85,1.85,0,0,1,0,1.35l2.3,2.8a2,2,0,0,1,.45,1.15,2.07,2.07,0,0,1-.3,1.2l-1,.75L86.1,79l-1.3.1a2,2,0,0,1-1-.8L77,68.7a1.77,1.77,0,0,1-.4-1.15,2,2,0,0,1,.35-1.15l1.5-2.15-1.1-1.6a1.73,1.73,0,0,1-.4-1.25,1.92,1.92,0,0,1,.5-1.2L79.35,58l-.2-.7a1.54,1.54,0,0,1,.1-.95l6.1-15.45a1.82,1.82,0,0,1,1.05-1.1l1.5,0a2,2,0,0,1,1.15,1m-7,17.6h0l-.2-.3.25.3m5.1-16.8L81.1,57.05l.75,1.05L78.9,61.5l1.95,2.75-2.3,3.3,6.8,9.6,1.5-.55,0,0,12.65-5-3.6-4.35,1-.35L95,61.9l-.4.15,1.75-.7L87.2,41.6"/><path class="cls-5" d="M87.2,41.6l-.4,23.5,7.75-3,.4-.15,1.85,4.95-1,.35L86.15,71l-.8,6.15-6.8-9.6,2.3-3.3,5,6.9.65-6.55v0L82.1,58.4l-.25-.3-.75-1.05L87.2,41.6"/><path class="cls-6" d="M81.85,58.1l.2.3h0l4.35,6.15v0l-.65,6.55-5-6.9L78.9,61.5l2.95-3.4"/><path class="cls-7" d="M87.2,41.6l9.1,19.75-1.75.7-7.75,3,.4-23.5m8.65,25.6,3.6,4.35-12.65,5,0,0-1.5.55.8-6.15,9.7-3.8"/><path class="cls-4" d="M74.45,59.6a2.06,2.06,0,0,1,0,2.3l-4.8,6.75a2,2,0,0,1-1,.75,2.05,2.05,0,0,1-1.25,0l-1.05-.35-.6-.3-8.35-3.3-.95-.75a1.77,1.77,0,0,1-.35-1.2,2,2,0,0,1,.45-1.15L58,60.6a1.87,1.87,0,0,1,.1-1.05l.7-1.85-.1-.1-.4-1a1.91,1.91,0,0,1,.2-1l6.4-13.9A1.81,1.81,0,0,1,66,40.65l1.5.05a1.82,1.82,0,0,1,1,1.1l4.3,10.85.15.9,0,.35,1.15,1.3a2,2,0,0,1,.45,1.2l-.35,1.25-.55.8.8,1.15m-12.9-2.7-.3-.1L60,60.25l.65.25-2.5,3.1L67,67.1l0,.05,1,.35,4.8-6.75-1.6-2.3,1.35-2-2-2.4-.15.2h0l.2-.2.5-.75L66.7,42.5,60.3,56.4l1.25.5"/><path class="cls-7" d="M61.55,56.9,67,59.05,66.7,42.5,71,53.35l-.5.75-.2.2-3,4.35v.05l.45,4.6,3.5-4.85,1.6,2.3L68,67.5l-.55-4.3L60.6,60.5,60,60.25l1.3-3.45.3.1"/><path class="cls-5" d="M61.55,56.9l-1.25-.5,6.4-13.9L67,59.05,61.55,56.9m9-2.8,2,2.4-1.35,2L67.7,63.3l-.45-4.6v-.05l3-4.35h0l.15-.2M68,67.5l-1-.35,0-.05-8.9-3.5,2.5-3.1,6.85,2.7L68,67.5"/><path class="cls-4" d="M14.25,50.35a1.82,1.82,0,0,1,1.05,1.1L19.6,62.3l.15.9-.05.35,1.15,1.3.45,1.2L21,67.3l-.55.8.8,1.15a2,2,0,0,1,.35,1.15l-.35,1.15L16.4,78.3a2,2,0,0,1-1,.75,2.05,2.05,0,0,1-1.25,0L13.1,78.7l-.6-.3L4.15,75.1l-1-.75a1.77,1.77,0,0,1-.35-1.2A2,2,0,0,1,3.3,72l1.45-1.75a1.87,1.87,0,0,1,.1-1l.7-1.85-.1-.1-.4-1a1.91,1.91,0,0,1,.2-1l6.4-13.9a1.81,1.81,0,0,1,1.1-1.05l1.5.05M18,68.1l1.35-1.95-2.05-2.4-.15.2h-.05l.2-.2.5-.75-4.3-10.85-6.4,13.9,1.25.5-.3-.1L6.7,69.9l.65.25-2.5,3.1,8.9,3.5-.05,0,1.05.35,4.8-6.75L18,68.1"/><path class="cls-5" d="M18,68.1,14.45,73,14,68.35v0L17.05,64h.05l.15-.2,2.05,2.4L18,68.1m-3.2,9.05L13.7,76.8l.05,0-8.9-3.5,2.5-3.1,6.85,2.7.55,4.3M8.3,66.55l-1.25-.5,6.4-13.9.3,16.55L8.3,66.55"/><path class="cls-7" d="M8.3,66.55l5.45,2.15-.3-16.55L17.75,63l-.5.75-.2.2L14,68.3v0l.45,4.6L18,68.1l1.6,2.3-4.8,6.75-.55-4.3-6.85-2.7L6.7,69.9,8,66.45l.3.1"/><path class="cls-4" d="M31.6,87.7l.95-.35L30.7,82.4l-.4.15,1.75-.7L23,62.1l-6.1,15.45.75,1,.25.3H17.8l-.2-.3-3,3.4,2,2.75-2.3,3.3,6.8,9.6,1.5-.55-.05,0,12.65-5L31.6,87.7m-8-27.45a2,2,0,0,1,1.15,1l9.1,19.75.15,1-.4,1-.4.4,1.2,3.2a1.85,1.85,0,0,1,0,1.35l2.3,2.8A2,2,0,0,1,37.2,92a2.07,2.07,0,0,1-.3,1.2L36,93.9l-14.1,5.6-1.3.1a2,2,0,0,1-1.05-.8l-6.8-9.6a1.77,1.77,0,0,1-.4-1.15,2,2,0,0,1,.35-1.15l1.5-2.15-1.1-1.6a1.73,1.73,0,0,1-.4-1.25,1.92,1.92,0,0,1,.5-1.2l1.95-2.2-.2-.7a1.54,1.54,0,0,1,.1-1L21.1,61.4a1.82,1.82,0,0,1,1-1.1l1.5,0"/><path class="cls-6" d="M17.6,78.6l.2.3h.05l4.35,6.15v0l-.65,6.55-4.95-6.9-2-2.75,3-3.4"/><path class="cls-5" d="M17.85,78.9l-.25-.3-.75-1L23,62.1l-.4,23.5,7.75-3,.4-.15,1.85,4.95-.95.35-9.7,3.8-.8,6.15-6.8-9.6,2.3-3.3,4.95,6.9.65-6.55v0L17.85,78.9"/><path class="cls-7" d="M23,62.1l9.1,19.75-1.75.7-7.75,3L23,62.1M31.6,87.7l3.6,4.35-12.65,5,.05,0-1.5.55.8-6.15,9.7-3.8"/><path class="cls-4" d="M71.05,112.15l-.1-.1-.4-1a1.91,1.91,0,0,1,.2-1l6.4-13.9a1.81,1.81,0,0,1,1.1-1.05l1.5.05a1.82,1.82,0,0,1,1,1.1l4.3,10.85.15.9,0,.35,1.15,1.3a2,2,0,0,1,.45,1.2,1.84,1.84,0,0,1-.35,1.25l-.55.8.8,1.15a2,2,0,0,1,.35,1.15l-.35,1.15-4.8,6.75-1,.75a2.05,2.05,0,0,1-1.25,0l-1.05-.35-.6-.3-8.35-3.3-1-.75a1.77,1.77,0,0,1-.35-1.2,2,2,0,0,1,.45-1.15l1.45-1.75a1.87,1.87,0,0,1,.1-1l.7-1.85m2.75-.8-.3-.1-1.3,3.45.65.25-2.5,3.1,8.9,3.5,0,0,1,.35,4.8-6.75-1.6-2.3,1.35-2-2-2.4-.15.2h0l.2-.2.5-.75L79,97l-6.4,13.9,1.25.5"/><path class="cls-7" d="M73.8,111.35l5.45,2.15L79,97l4.3,10.85-.5.75-.2.2-3,4.35v.05l.45,4.6,3.5-4.85,1.6,2.3L80.25,122l-.55-4.3L72.85,115l-.65-.25,1.3-3.45.3.1"/><path class="cls-5" d="M73.8,111.35l-1.25-.5L79,97l.3,16.55-5.45-2.15m9-2.8,2,2.4-1.35,2L80,117.75l-.45-4.6v-.05l3-4.35h0l.15-.2M80.25,122l-1-.35,0,0-8.9-3.5,2.5-3.1,6.85,2.7.55,4.3"/><path class="cls-4" d="M53.35,38.2l.95-.35-1.85-5-.4.15,1.75-.7L44.7,12.6,38.6,28.05l.75,1.05-3,3.4,2,2.75-2.3,3.3,6.8,9.6,1.5-.55-.05-.05,12.65-5-3.6-4.35m-8-27.45a2,2,0,0,1,1.15,1.05l9.1,19.75.15,1.05-.4.95L55,34l1.2,3.2a1.85,1.85,0,0,1,0,1.35l2.3,2.8A2,2,0,0,1,59,42.45a2.07,2.07,0,0,1-.3,1.2l-.95.75L43.6,50l-1.3.1a2,2,0,0,1-1-.8l-6.8-9.6a1.77,1.77,0,0,1-.4-1.15,2,2,0,0,1,.35-1.15l1.5-2.15-1.1-1.6a1.73,1.73,0,0,1-.4-1.25,1.92,1.92,0,0,1,.5-1.2l2-2.2-.2-.7a1.54,1.54,0,0,1,.1-.95l6.1-15.45a1.82,1.82,0,0,1,1-1.1l1.5-.05m-6,18.35.25.3h-.05l-.2-.3"/><path class="cls-5" d="M39.35,29.1l-.75-1.05L44.7,12.6l-.4,23.5,7.75-3.05.4-.15,1.85,5-.95.35L43.65,42l-.8,6.15-6.8-9.6,2.3-3.3,4.95,6.9L44,35.6v-.05L39.6,29.4l-.25-.3"/><path class="cls-6" d="M39.35,29.1l.2.3h.05L44,35.55v.05l-.65,6.55-4.95-6.9-2-2.75,3-3.4"/><path class="cls-7" d="M44.7,12.6l9.1,19.75-1.75.7L44.3,36.1l.4-23.5m8.65,25.6L57,42.55l-12.65,5,.05.05-1.5.55.8-6.15,9.7-3.8"/></g></g></svg>