<svg xmlns="http://www.w3.org/2000/svg" viewBox="0 0 120 140"><defs><style>.cls-1{fill:#bb6444;}.cls-2{fill:#c26948;}.cls-3{fill:#b55f40;}.cls-4{fill:#593269;}.cls-5{fill:#c16ee2;}.cls-6{fill:#ecdcb8;}.cls-7{fill:#9b59b6;}.cls-8{fill:#79468e;}</style></defs><title>Asset 71</title><g id="Layer_2" data-name="Layer 2"><g id="Layer_1-2" data-name="Layer 1"><path class="cls-1" d="M109,34.8l-1.9,5,5,2,1.85-5-5-1.9m7.3,19.35-5.35-.5-.5,5.3,5.25.5.6-5.3m-24-24.8.55-5.25-5.25-.55L87,28.85l5.25.5M95.4,55.2l-2.2-4.9-4.8,2.2,2.15,4.85L95.4,55.2M43.65,25,40,28.8l3.85,3.65L47.5,28.6,43.65,25M2.3,44l4.25,3.1,3.1-4.3-4.25-3L2.3,44M26.05,52.5l2.15,4.85L33,55.2l-2.15-4.9-4.8,2.2m-2.65-.35L13.9,50l-2.1,9.55,9.45,2.1,2.15-9.5m6.45-22.8.55-5.25-5.25-.55-.55,5.3,5.25.5M89.2,33.3,82,35.6l2.3,7.25,7.25-2.3L89.2,33.3M85.75,52.15,76.25,50l-2.1,9.55,9.45,2.1,2.15-9.5m-20.3-1L67,55.6l4.45-1.5L70,49.6l-4.5,1.55M59.7,44l-.6-5.3-5.25.65.6,5.25L59.7,44M62.2,14q2.44-1,4.85-2.15L64.9,7.05,60,9.2,62.2,14M36.4,48.5l2.25,7.2,7.25-2.25L43.6,46.2l-7.2,2.3M34.15,37.65l3.35,4.1,4.15-3.35-3.4-4.1-4.1,3.35m12.4-2.85-1.9,5,5.05,2,1.85-5-5-1.9M60,0l60,35v70L60,140,0,105V35L60,0M57.15,76.75h0L49.8,78.5l1.7,7.4,7.4-1.75-1.75-7.4m25.45,0L75.9,70.6l-6.2,6.7,6.75,6.2,6.15-6.75M60,71.55l2.2,4.85,4.85-2.2L64.9,69.4,60,71.55m7.65,15L65.2,96.1l9.55,2.55L77.25,89l-9.6-2.5M82,98l2.3,7.25L91.5,103l-2.3-7.3L82,98M49.7,104.1l1.85-5-5-1.9-1.9,5,5.05,1.95M12.4,98.65,14.9,89,5.3,86.5,2.8,96.1l9.6,2.55m7.85-21.9-6.7-6.15-6.2,6.7,6.7,6.2,6.2-6.75m21.65-9,.4-3.7L33,63,31.9,72.3l9.3,1,.65-5.6h0M87.5,86,87,91.2l5.25.5.55-5.25L87.5,86M25.15,86,24.6,91.2l5.25.5.55-5.25L25.15,86m0,25.5,2.15,4.85,4.8-2.15-2.2-4.9-4.75,2.2m9-11.45,3.35,4.1,4.15-3.35-3.4-4.1L34.15,100M86.7,112.1,77.2,110l-2.1,9.55,9.45,2.1,2.15-9.5m-48.05,6,7.25-2.3-2.3-7.2-7.2,2.25,2.25,7.25m25.4,4.3-5.2.85.8,5.2,5.25-.8-.85-5.25m7.4-6L70,112l-4.5,1.55L67,118l4.45-1.55M98,76l-3.1,4.3,4.35,3.1,3-4.3L98,76m2.6,20.65L96.5,100l3.35,4.1,4.15-3.35-3.4-4.1m3-23.3.65-5.6h0l.4-3.7-9.3-1-1.1,9.3,9.3,1M109,97.2l-1.9,5,5,1.95,1.85-5-5-1.9"/><path class="cls-2" d="M109,97.2l5,1.9-1.85,5-5-1.95,1.9-5m0-62.4,5,1.9-1.85,5-5-2,1.9-5M95.4,55.2l-4.85,2.15L88.4,52.5l4.8-2.2,2.2,4.9M92.2,29.35,87,28.85l.55-5.3,5.25.55-.55,5.25m-62.35,0-5.25-.5.55-5.3,5.25.55-.55,5.25M23.4,52.15l-2.15,9.5-9.45-2.1L13.9,50l9.5,2.15m2.65.35,4.8-2.2L33,55.2l-4.8,2.15L26.05,52.5m34,19,4.9-2.15,2.15,4.8L62.2,76.4,60,71.55M49.7,104.1l-5.05-1.95,1.9-5,5,1.9-1.85,5M82,98l7.25-2.3,2.3,7.3-7.25,2.25L82,98M25.15,86l5.25.5-.55,5.25-5.25-.5L25.15,86m13.5,32.15-2.25-7.25,7.2-2.25,2.3,7.2-7.25,2.3m48.05-6-2.15,9.5-9.45-2.1L77.2,110l9.5,2.15M98,76l4.3,3.1-3,4.3L94.9,80.3,98,76"/><path class="cls-3" d="M116.25,54.15l-.6,5.3L110.4,59l.5-5.3,5.35.5M2.3,44,5.4,39.7l4.25,3-3.1,4.3L2.3,44M43.65,25,47.5,28.6l-3.65,3.85L40,28.8,43.65,25m2.9,9.85,5,1.9-1.85,5-5.05-2,1.9-5m-12.4,2.85,4.1-3.35,3.4,4.1L37.5,41.75l-3.35-4.1M36.4,48.5l7.2-2.3,2.3,7.25L38.65,55.7,36.4,48.5M62.2,14,60,9.2l4.9-2.15,2.15,4.8q-2.4,1.1-4.85,2.15M59.7,44l-5.25.6-.6-5.25,5.25-.65.6,5.3m5.75,7.2L70,49.6l1.5,4.5L67,55.6l-1.55-4.45m20.3,1-2.15,9.5-9.45-2.1L76.25,50l9.5,2.15M89.2,33.3l2.3,7.25-7.25,2.3L82,35.6l7.25-2.3M82.6,76.75,76.45,83.5,69.7,77.3l6.2-6.7,6.7,6.15m-25.45,0,1.75,7.4L51.5,85.9l-1.7-7.4,7.3-1.75h0m10.5,9.75,9.6,2.5-2.5,9.65L65.2,96.1l2.45-9.6M87.5,86l5.25.5L92.2,91.7,87,91.2,87.5,86M41.9,67.75h0l-.65,5.6-9.3-1L33,63l9.35,1-.4,3.7m-21.65,9-6.2,6.75-6.7-6.2,6.2-6.7,6.7,6.15M12.4,98.65,2.8,96.1l2.5-9.6L14.9,89l-2.5,9.65M34.15,100l4.1-3.35,3.4,4.1L37.5,104.1,34.15,100m-9,11.45,4.75-2.2,2.2,4.9-4.8,2.15-2.15-4.85m46.35,5L67,118l-1.55-4.5L70,112l1.5,4.5m-7.4,6,.85,5.25-5.25.8-.8-5.2,5.2-.85m39.5-49.05-9.3-1,1.1-9.3,9.3,1-.4,3.7h0l-.65,5.6m-3,23.3,3.4,4.1-4.15,3.35L96.5,100l4.1-3.35"/><path class="cls-4" d="M17.15,54.9V76.55l3.15,10.6,3.25-.5v1.6l1.15,2.5,2.7-.7v-4l6.65-1V63.25l-3.6-11-13.3,2.6M16.8,53l13.3-2.6a1.76,1.76,0,0,1,1.35.25,1.88,1.88,0,0,1,.9,1.1L36,62.65l.1.6V85l-.45,1.3a2.21,2.21,0,0,1-1.25.7l-5,.75v2.3A2.05,2.05,0,0,1,29,91.3l-1.1.7-2.7.7-1.35-.15a1.91,1.91,0,0,1-1-1l-1.15-2.5L21.7,89l-1.1.2a2,2,0,0,1-2.2-1.4l-3.15-10.6-.1-.6V54.9a1.92,1.92,0,0,1,.45-1.25,1.74,1.74,0,0,1,1.2-.7"/><path class="cls-5" d="M17.15,54.9l13.3-2.6,3.6,11L20.3,65.6,17.15,54.9"/><path class="cls-6" d="M27.4,86.05v4l-2.7.7-1.15-2.5v-1.6l3.85-.6"/><path class="cls-7" d="M27.4,86.05l-3.85.6-3.25.5V65.6l13.75-2.35V85l-6.65,1"/><path class="cls-8" d="M17.15,54.9,20.3,65.6V87.15l-3.15-10.6V54.9"/><path class="cls-8" d="M83.85,64l.25-10.7,6.65-7.1v10.5L85,62.75,83.85,64"/><path class="cls-4" d="M92.75,56.65a2,2,0,0,1-.55,1.4L87,63.55v.6l-.15.8-.45.65-2,1.85a2,2,0,0,1-1,.5l-1.1,0-2.1-.8-1-.75A2.15,2.15,0,0,1,79,65.2V63.85l-5.15-2.5L73,60.6a2,2,0,0,1-.3-1.05V48.75a1.89,1.89,0,0,1,.5-1.3L79.4,40.4a2.11,2.11,0,0,1,1.1-.65l1.25.15,9.85,4.45.85.75.3,1v10.5M85,62.75l5.75-6.1V46.15L80.9,41.7l-6.25,7v10.8L81,62.6v2.6l2.1.8,2-1.85v-1.4"/><path class="cls-5" d="M90.75,46.15l-6.65,7.1-9.45-4.5,6.25-7,9.85,4.45"/><path class="cls-7" d="M84.1,53.25,83.85,64,81,62.6l-6.3-3.05V48.75l9.45,4.5"/><path class="cls-6" d="M83.85,64,85,62.75v1.4l-2,1.85L81,65.2V62.6L83.85,64"/></g></g></svg>