<svg xmlns="http://www.w3.org/2000/svg" viewBox="0 0 87.3 100.45"><defs><style>.cls-1{fill:#bb8044;}.cls-2{fill:#aa753e;}.cls-3{fill:#c68a4e;}</style></defs><title>Asset 43</title><g id="Layer_2" data-name="Layer 2"><g id="Layer_1-2" data-name="Layer 1"><path class="cls-1" d="M42.75.1,42.3,3.9l7.15.8.2-1.8L64.6,11.6l1.65,2.85h3.3L85.2,23.6a4.26,4.26,0,0,1,1.55,1.6,4.07,4.07,0,0,1,.55,2.1V44.55l-2.1,3.3L87.3,51v22.2a4.36,4.36,0,0,1-.55,2.15,4.75,4.75,0,0,1-1.55,1.6L81,79.4l-1.2.15.1.5-15,8.7-4.1-.55L57.75,93l-11.9,7-1.8.55h-.4a4.36,4.36,0,0,1-2.15-.55L14.65,84.2l.2-.7-2.75-.75L2.15,76.9A4.18,4.18,0,0,1,.6,75.3,4.11,4.11,0,0,1,0,73.15V65l2.45-3L0,57.4V27.3a3.84,3.84,0,0,1,.6-2.1,3.8,3.8,0,0,1,1.55-1.6l8-4.65h6.2L18.3,14.2l5-2.9h3.05L27.7,8.75l6.85-4,.6,3.8,4.35-.7L38.8,3.5,35.85,4,41.5.65,42.75.1M85,40.2l-3.2-.45-.4,3.15,3.15.4L85,40.2M4.5,23,7.25,26.7l3.85-2.8L8.25,20.15,4.5,23m13.75,2.4L15,28l2.6,3.25,3.2-2.6-2.55-3.25M4.3,33.15l3,6.9,6.85-3-3.05-6.9-6.8,3m6.75,43.5,1-4.05L8,71.65l-1,4,4.05,1m7.7-5-3.55,6.7,6.55,3.5,3.6-6.65-6.6-3.55M78,66.2h-4.6l.05,4.55H78V66.2m-2.9-7.4-3-1.25-1.2,3,2.9,1.2,1.25-2.9M26.4,87l1.9,1,1.15-2-2-1L26.4,87m42.7-12.8L63,71.7,60.5,77.85l6.15,2.4,2.45-6.1"/><path class="cls-2" d="M69.1,74.15l-2.45,6.1-6.15-2.4L63,71.7l6.15,2.45M49.65,2.9l-.2,1.8L42.3,3.9,42.75.1l.9-.1a4.14,4.14,0,0,1,2.2.65l3.8,2.25M12.1,82.75l2.75.75-.2.7L12.1,82.75m67.8-2.7-.1-.5L81,79.4l-1.1.65M18.25,25.35,20.8,28.6l-3.2,2.6L15,28l3.25-2.6M4.5,23l3.75-2.8L11.1,23.9,7.25,26.7,4.5,23m6.55,53.7L7,75.65l1-4,4.05.95-1,4.05M78,66.2v4.55H73.4l-.05-4.55H78M26.4,87l1.05-2,2,1L28.3,88l-1.9-1"/><path class="cls-3" d="M35.85,4l2.95-.5.7,4.35-4.35.7-.6-3.8-.1-.55,1.4-.2M85,40.2l-.45,3.1-3.15-.4.4-3.15,3.2.45M4.3,33.15l6.8-3,3.05,6.9-6.85,3-3-6.9m14.45,38.5,6.6,3.55-3.6,6.65-6.55-3.5,3.55-6.7M75.05,58.8,73.8,61.7l-2.9-1.2,1.2-3,3,1.25"/></g></g></svg>