<svg xmlns="http://www.w3.org/2000/svg" xmlns:xlink="http://www.w3.org/1999/xlink" viewBox="0 0 87.6 100.45"><defs><style>.cls-1{fill:#27ae60;}.cls-2{fill:url(#linear-gradient);}.cls-3{fill:url(#linear-gradient-2);}.cls-4{fill:url(#linear-gradient-3);}.cls-5{fill:url(#linear-gradient-4);}.cls-6{fill:url(#linear-gradient-5);}.cls-7{fill:url(#linear-gradient-6);}.cls-8{fill:url(#linear-gradient-7);}.cls-9{fill:url(#linear-gradient-8);}.cls-10{fill:url(#linear-gradient-9);}.cls-11{fill:url(#linear-gradient-10);}</style><linearGradient id="linear-gradient" x1="-3564.4" y1="30.7" x2="-1926" y2="30.7" gradientTransform="matrix(0, 0, 0, 0, 0.46, 16.61)" gradientUnits="userSpaceOnUse"><stop offset="0" stop-color="#27ae60"/><stop offset="1" stop-color="#30c26d"/></linearGradient><linearGradient id="linear-gradient-2" x1="-3564.4" y1="42.67" x2="-1926" y2="42.67" gradientTransform="matrix(0, 0, 0, 0, 12.99, 31.72)" xlink:href="#linear-gradient"/><linearGradient id="linear-gradient-3" x1="-3564.4" y1="6.45" x2="-1926" y2="6.45" gradientTransform="matrix(0, 0, 0, 0, 44.34, -4.48)" xlink:href="#linear-gradient"/><linearGradient id="linear-gradient-4" x1="-3564.4" y1="17.92" x2="-1926" y2="17.92" gradientTransform="matrix(0, 0, 0, 0, 33.96, 4.5)" xlink:href="#linear-gradient"/><linearGradient id="linear-gradient-5" x1="-3564.4" y1="34.42" x2="-1926" y2="34.42" gradientTransform="matrix(0, 0, 0, 0, 25.44, 23.47)" xlink:href="#linear-gradient"/><linearGradient id="linear-gradient-6" x1="-3564.4" y1="28.28" x2="-1926" y2="28.28" gradientTransform="matrix(0, 0, 0, 0, 49.11, 15.11)" xlink:href="#linear-gradient"/><linearGradient id="linear-gradient-7" x1="-3564.4" y1="69.42" x2="-1926" y2="69.42" gradientTransform="matrix(0, 0, 0, 0, 57.94, 58.47)" xlink:href="#linear-gradient"/><linearGradient id="linear-gradient-8" x1="-3564.4" y1="86.82" x2="-1926" y2="86.82" gradientTransform="matrix(0, 0, 0, 0, 44.96, 73.66)" xlink:href="#linear-gradient"/><linearGradient id="linear-gradient-9" x1="-3564.4" y1="98.3" x2="-1926" y2="98.3" gradientTransform="matrix(0, 0, 0, 0, 45.34, 88.47)" xlink:href="#linear-gradient"/><linearGradient id="linear-gradient-10" x1="-3564.4" y1="62.17" x2="-1926" y2="62.17" gradientTransform="matrix(0, 0, 0, 0, 71.44, 51.22)" xlink:href="#linear-gradient"/></defs><title>Asset 44</title><g id="Layer_2" data-name="Layer 2"><g id="Layer_1-2" data-name="Layer 1"><path class="cls-1" d="M69.2,59,69,58.9l-.3.1-.15.25-1,3.15-1.35-.55H65.8a.3.3,0,0,0-.25.15v0a.42.42,0,0,0,0,.35l1,3.05H71.3l.7-1.8V63.2l-.25-.2h-.3l-1.25.4-.85-4.15L69.2,59M.3,27.9v-.6a3.84,3.84,0,0,1,.6-2.1,3.8,3.8,0,0,1,1.55-1.6l8-4.65h6.2l2-4.75,5-2.9h3L28,8.75,41.8.65a3.68,3.68,0,0,1,1.6-.6L44,0a4.14,4.14,0,0,1,2.2.65l18.75,11,1.65,2.85h3.3L85.5,23.6a4.26,4.26,0,0,1,1.55,1.6,4.07,4.07,0,0,1,.55,2.1V44.55l-2.1,3.3L87.6,51v22.2a4.36,4.36,0,0,1-.55,2.15,4.75,4.75,0,0,1-1.55,1.6L65.25,88.75l-4.1-.55L58.05,93l-11.9,7-2.1.55-.8-4-.15-.25-.25-.1-.3.1-.15.25-1,3.15h-.1L2.45,76.9A4.18,4.18,0,0,1,.9,75.3a4.11,4.11,0,0,1-.6-2.15V65l2.45-3L.3,57.4V33.65l1.35-.9.15-.15.05-.15-.05-.3-.3-.25L.3,31.6,0,31.5l.3-.75.9-2.4V28L1.15,28l-.2-.2H.6l-.3.15M10.5,39.4l-.3.1-.15.25-1,3.15L7.7,42.35H7.35a.3.3,0,0,0-.25.15v0a.42.42,0,0,0,0,.35L8,46h4.85l.7-1.8V43.7l-.25-.2H13l-1.25.4-.85-4.15-.15-.25-.25-.1M42,3.5l-.15-.25-.3-.1-.3.15-.15.25-.8,4.1L39,7.25l-.3,0-.25.2V8l.7,1.8H44l.9-3.1V6.3l-.25-.2H44.3l-1.4.55L42,3.5M26.7,16.1l-.05,0v.35l1.25,3.1-1.55.45-.25.2-.1.35.1.1.1.15L27.8,22h6l1.45-3.15,0-.05.05-.25-.1-.15,0-.1L35,18.1l-1.65-.3-.4-3.5-.1-.25-.25-.15H32.3l-.25.15L30.1,16.9l-2.85-1H26.9l-.2.2M22.65,31.25l-.15.25-1,3.15-1.35-.55H19.8a.3.3,0,0,0-.25.15v0a.42.42,0,0,0-.05.35l.95,3.05H25.3l.7-1.8v-.45l-.25-.2h-.3l-1.25.4-.85-4.15-.15-.25-.25-.1-.3.1m23.8-3.95-2-2.85-.25-.15L44,24.25l-.25.15-.1.25-.35,3.5-1.7.35-.25.1,0,.1,0,.2v.25h0L42.7,32.3h6l1.6-1,.15-.15,0-.15,0-.3-.3-.25-1.5-.4,1.2-3.15V26.5l-.05-.05-.2-.2h-.35l-2.8,1.05M52.3,69.1a.3.3,0,0,0-.25.15v0a.42.42,0,0,0,0,.35l1,3H57.8l.7-1.8v-.45l-.25-.2H58l-1.25.4-.85-4.15-.15-.25-.25-.1-.3.1L55,66.5l-1,3.15-1.35-.55H52.3M39.8,82.8l-.25.15-.1.25-.35,3.5-1.7.35-.25.1,0,.1-.05.2v.25h.05l1.45,3.15h6l1.6-1,.15-.15.05-.15-.05-.3L46,89l-1.5-.4,1.2-3.15v-.35l-.05,0-.2-.2H45.1l-2.8,1L40.3,83l-.25-.15-.25,0"/><path class="cls-2" d="M.3,33.65v-2l1.2.3.3.25.05.3-.05.15-.15.15-1.35.9m0-2.9V27.9l.3-.15H1l.2.2L1.2,28v.35l-.9,2.4"/><path class="cls-3" d="M10.5,39.4l.25.1.15.25.85,4.15L13,43.5h.3l.25.2v.45l-.7,1.8H8l-1-3.05a.42.42,0,0,1,0-.35v0a.3.3,0,0,1,.25-.15H7.7l1.35.55,1-3.15.15-.25.3-.1"/><path class="cls-4" d="M42,3.5l.95,3.15,1.4-.55h.35l.25.2v.35L44,9.75H39.15L38.45,8V7.5l.25-.2.3,0,1.25.4.8-4.1.15-.25.3-.15.3.1L42,3.5"/><path class="cls-5" d="M26.7,16.1l.2-.2h.35l2.85,1,1.95-2.85.25-.15h.25l.25.15.1.25.4,3.5,1.65.3.25.15,0,.1.1.15-.05.25,0,.05L33.8,22h-6l-1.6-1.1-.1-.15-.1-.1.1-.35.25-.2,1.55-.45-1.25-3.1v-.35l.05,0"/><path class="cls-6" d="M22.65,31.25l.3-.1.25.1.15.25.85,4.15,1.25-.4h.3l.25.2v.45l-.7,1.8H20.45l-.95-3.05a.42.42,0,0,1,.05-.35v0a.3.3,0,0,1,.25-.15h.35l1.35.55,1-3.15.15-.25"/><path class="cls-7" d="M46.45,27.3l2.8-1.05h.35l.2.2.05.05v.35L48.65,30l1.5.4.3.25,0,.3,0,.15-.15.15-1.6,1h-6l-1.45-3.15h0V28.9l0-.2,0-.1.25-.1,1.7-.35.35-3.5.1-.25.25-.15.25.05.25.15,2,2.85"/><path class="cls-8" d="M52.3,69.1h.35l1.35.55,1-3.15.15-.25.3-.1.25.1.15.25.85,4.15,1.25-.4h.3l.25.2v.45l-.7,1.8H53l-1-3a.42.42,0,0,1,0-.35v0a.3.3,0,0,1,.25-.15"/><path class="cls-9" d="M39.8,82.8l.25,0,.25.15,2,2.85,2.8-1h.35l.2.2.05,0v.35l-1.2,3.15L46,89l.3.25.05.3-.05.15-.15.15-1.6,1h-6L37.1,87.7h-.05v-.25l.05-.2,0-.1.25-.1,1.7-.35.35-3.5.1-.25.25-.15"/><path class="cls-10" d="M44.05,100.45H44a4.36,4.36,0,0,1-2.15-.55l-.5-.25h.1l1-3.15.15-.25.3-.1.25.1.15.25.8,4"/><path class="cls-11" d="M69.2,59l.15.25.85,4.15,1.25-.4h.3l.25.2v.45l-.7,1.8H66.45l-1-3.05a.42.42,0,0,1,0-.35v0a.3.3,0,0,1,.25-.15h.35l1.35.55,1-3.15.15-.25.3-.1.25.1"/></g></g></svg>