<svg xmlns="http://www.w3.org/2000/svg" viewBox="0 0 120 140"><defs><style>.cls-1{fill:#bb8044;}.cls-2{fill:#aa753e;}.cls-3{fill:#c68a4e;}.cls-4{fill:#115f32;}.cls-5{fill:#1b914d;}.cls-6{fill:#168344;}.cls-7{fill:#10773c;}.cls-8{fill:#797067;}.cls-9{fill:#e0d4c7;}.cls-10{fill:#a89c8f;}.cls-11{fill:#c4b6a7;}.cls-12{fill:#ad832e;}.cls-13{fill:#924326;}.cls-14{fill:#ffc144;}.cls-15{fill:#bb5f3c;}.cls-16{fill:#cbc0b5;}.cls-17{fill:#8a3f23;}.cls-18{fill:#d26f49;}.cls-19{fill:#d9d9d9;}.cls-20{fill:#a85536;}.cls-21{fill:#775029;}.cls-22{fill:#917f57;}.cls-23{fill:#855b30;}.cls-24{fill:#f0d391;}.cls-25{fill:#d0b67d;}.cls-26{fill:#a8733d;}</style></defs><title>Asset 137</title><g id="Layer_2" data-name="Layer 2"><g id="Layer_1-2" data-name="Layer 1"><path class="cls-1" d="M110.15,58,109,53.6l-4.4,1.2,1.2,4.45,4.4-1.25m.6,4.25-6.55-.8-.75,6.6,6.55.75.75-6.55M101.3,60l-3.2-.45-.4,3.15,3.15.4.45-3.1m-7,30.55V86H89.7l0,4.55H94.3M109,91.85l-4,1.85,1.75,4,4-1.85-1.75-4m-5.75,6.35-7.1,1.1,1,7,7.1-1.1-1-7M51.5,28.3l4.35-.7-.7-4.35L50.8,24l.7,4.35M23.6,46.45l3.85-2.8L24.6,39.9l-3.75,2.8,2.75,3.75m11-1.35-3.25,2.6L34,51l3.2-2.6L34.6,45.1m32-27.7-7.1-.8-.85,7,7.15.8.8-7M20.65,52.9l3,6.9,6.85-3-3.05-6.9-6.8,3M27.4,96.4l1-4.05-4-.95-1,4,4,1m-14.8-40,2-.95-.85-2.05-2,.9.85,2.1m22.5,35-3.55,6.7,6.55,3.5L41.7,95,35.1,91.4m50.35,2.5L79.3,91.45,76.85,97.6,83,100l2.45-6.1m3-16.6-1.2,3,2.9,1.2,1.25-2.9-3-1.25M60,0l60,35v70L60,140,0,105V35L60,0M45.8,105.75l-2-1-1,2,1.9,1,1.15-2M30,107.7l1.25-4.45L26.65,102l-1.2,4.55,4.5,1.2"/><path class="cls-2" d="M30,107.7l-4.5-1.2,1.2-4.55,4.55,1.3L30,107.7m80.8-45.45L110,68.8l-6.55-.75.75-6.6,6.55.8m-.6-4.25-4.4,1.25-1.2-4.45,4.4-1.2,1.2,4.4M94.3,90.5H89.75l0-4.55h4.6V90.5m9,7.7,1,7-7.1,1.1-1-7,7.1-1.1M66.6,17.4l-.8,7.05-7.15-.8.85-7,7.1.8m-32,27.7,2.55,3.25L34,51l-2.6-3.25,3.25-2.6m-11,1.35L20.85,42.7l3.75-2.8,2.85,3.75-3.85,2.8m-11,9.95-.85-2.1,2-.9.85,2.05-2,.95m14.8,40-4-1,1-4,4,.95-1,4.05m58.05-2.5L83,100l-6.15-2.4,2.45-6.15,6.15,2.45M45.8,105.75l-1.15,2-1.9-1,1-2,2,1"/><path class="cls-3" d="M101.3,60l-.45,3.1-3.15-.4.4-3.15,3.2.45m7.7,31.9,1.75,4-4,1.85-1.75-4,4-1.85M51.5,28.3,50.8,24l4.35-.7.7,4.35-4.35.7M20.65,52.9l6.8-3,3.05,6.9-6.85,3-3-6.9M35.1,91.4,41.7,95l-3.6,6.65-6.55-3.5,3.55-6.7M88.45,77.3l3,1.25-1.25,2.9-2.9-1.2,1.2-3"/><path class="cls-4" d="M80,41.45l-2.3,3.3,6.8,9.6L86,53.8l0,0,12.65-5L95,44.4l1-.35L94.05,39.1l-.4.15,1.75-.7L86.3,18.8,80.2,34.25l.75,1,.25.3h0l-.2-.3-3,3.4,2,2.75m16.65-1.3,1.2,3.2a1.85,1.85,0,0,1,0,1.35l2.3,2.8a2,2,0,0,1,.45,1.15,2.07,2.07,0,0,1-.3,1.2l-1,.75L85.2,56.2l-1.3.1a2,2,0,0,1-1.05-.8l-6.8-9.6a1.77,1.77,0,0,1-.4-1.15A2,2,0,0,1,76,43.6l1.5-2.15-1.1-1.6A1.73,1.73,0,0,1,76,38.6a1.92,1.92,0,0,1,.5-1.2l2-2.2-.2-.7a1.54,1.54,0,0,1,.1-1l6.1-15.45a1.82,1.82,0,0,1,1-1.1L87,17A2,2,0,0,1,88.15,18l9.1,19.75.15,1-.4,1-.4.4"/><path class="cls-5" d="M86.3,18.8l9.1,19.75-1.75.7-7.75,3,.4-23.5M95,44.4l3.6,4.35-12.65,5,0,0-1.5.55.8-6.15L95,44.4"/><path class="cls-6" d="M93.65,39.25l.4-.15,1.85,4.95-1,.35-9.7,3.8-.8,6.15-6.8-9.6,2.3-3.3,5,6.9.65-6.55v0L81.2,35.6,81,35.3l-.75-1L86.3,18.8l-.4,23.5,7.75-3"/><path class="cls-7" d="M80,41.45,78,38.7l3-3.4.2.3h0l4.35,6.15v0l-.65,6.55-5-6.9"/><path class="cls-8" d="M83.65,50.7l4.45,2.1L93,55.1h0l.2.1.5.25.8.75.3,1v3l-.45,1.3L68.75,91.85a2.11,2.11,0,0,1-1.1.65l-1.3-.15-9.85-4.6L56,85.3,67.2,90.55,92.85,60.2v-3l-.5-.25-.2-.1-4.9-2.3-4.9-2.3-.15,0L81.65,52l2-1.3M15.45,70V69.7a1.89,1.89,0,0,1,.5-1.3l37.9-44.75a1.75,1.75,0,0,1,1.3-.65L68.6,21.4l.9.1.8.5L83.15,35.85a2,2,0,0,1,.5,1.35v0h-2v0l-.4-.4L68.8,23.35,55.35,25,17.45,69.7v0l-2,.2"/><path class="cls-9" d="M81.65,52l.55.25.15,0,4.9,2.3,4.9,2.3.2.1.5.25L67.2,87.55,58,83.3l-.3-.15-1-.5h-.05L56,82.3,69,66.9l3.1-3.65L81.65,52M31.25,67.75,68.45,23.8l.35-.4v0L81.25,36.8l.4.45L43.75,82,30.9,68.15l.35-.4m13,.25L42,70.6,45.1,74l2.15-2.5-3-3.5M43,64.65l3.15,3.4,2.15-2.5-3-3.5L43,64.65"/><path class="cls-10" d="M92.85,57.25v3L67.2,90.55v-3l25.65-30.3"/><path class="cls-11" d="M67.2,90.55,56,85.3v-3l.7.35,1.05.5.3.15,9.2,4.25v3M17.45,69.7,55.35,25l13.45-1.6-.35.45-37.2,44-.35.35v.05L17.45,69.7"/><path class="cls-12" d="M68.45,23.8l.35-.45v0l-.35.4"/><path class="cls-13" d="M83.65,37.25V50.7l-2,1.3V37.25h2"/><path class="cls-14" d="M30.9,68.15V68.1l.35-.35-.35.4M81.25,36.8l.4.4v0l-.4-.45"/><path class="cls-15" d="M81.65,37.25V52L72.1,63.25v-7.1L69,59.8v7.1L56,82.3v3L43.75,99.7V82l37.9-44.75M22.1,89.6V82.45l17.25,8.1V97.7L22.1,89.6"/><path class="cls-16" d="M43,64.65l2.25-2.6,3,3.5-2.15,2.5L43,64.65M44.2,68l3,3.5L45.1,74,42,70.6,44.2,68"/><path class="cls-17" d="M56.5,87.75l-11,13-.15.25a2,2,0,0,1-1.15.7l-1.3-.15L16.6,89.25l-.8-.7a1.89,1.89,0,0,1-.35-1.1V70l2-.2v17.7L22.1,89.6l17.25,8.1,3.75,1.75.65.3v0L56,85.3l.55,2.45"/><path class="cls-18" d="M17.45,69.7,30.9,68.15,43.75,82V99.7l-.65-.25L39.35,97.7V90.55L22.1,82.45V89.6l-4.65-2.15V69.7"/><path class="cls-19" d="M56.65,82.65h.05l1,.5-1.05-.5M43.1,99.45l.65.25v0l-.65-.3"/><path class="cls-20" d="M72.1,63.25,69,66.9V59.8l3.1-3.65v7.1"/><path class="cls-4" d="M14,96.1l4.8-6.75-1.6-2.3,1.35-2L16.5,82.7,17,82,12.7,71.1,6.3,85l1.25.5-.3-.1L6,88.85l.65.25L4.1,92.2,13,95.7l-.05,0L14,96.1M4.5,84.2l6.4-13.9a1.81,1.81,0,0,1,1.1-1l1.5,0a1.82,1.82,0,0,1,1.05,1.1l4.3,10.85.15.9L19,82.5l1.15,1.3a2,2,0,0,1,.45,1.2l-.35,1.25-.55.8.8,1.15a2.06,2.06,0,0,1,0,2.3l-4.8,6.75-1,.75a2.05,2.05,0,0,1-1.25,0l-1.05-.35-.6-.3L3.4,94.05l-.95-.75a1.77,1.77,0,0,1-.35-1.2A2,2,0,0,1,2.55,91L4,89.2a1.87,1.87,0,0,1,.1-1l.7-1.85-.1-.1-.4-1a1.91,1.91,0,0,1,.2-1m12-1.5-.15.2H16.3l.2-.2"/><path class="cls-6" d="M7.55,85.5,6.3,85l6.4-13.9L13,87.65,7.55,85.5m9-2.8,2.05,2.4-1.35,2L13.7,91.9l-.45-4.6v0L16.3,82.9h.05l.15-.2M14,96.1,13,95.75l.05,0L4.1,92.2l2.5-3.1,6.85,2.7L14,96.1"/><path class="cls-5" d="M14,96.1l-.55-4.3L6.6,89.1,6,88.85l1.3-3.45.3.1L13,87.65,12.7,71.1,17,82l-.5.75-.2.2-3.05,4.35v0l.45,4.6,3.5-4.85,1.6,2.3L14,96.1"/><path class="cls-21" d="M89.4,68.85l-2-.75V63a1.89,1.89,0,0,1,.5-1.3l6.45-7.65a1.87,1.87,0,0,1,1.1-.65l1.25.15,10.5,4.85.85.75.3,1.05v5.35l-2,1.3V60.2l-10.5-4.85L89.4,63v5.85"/><path class="cls-22" d="M89.4,68.85,86.8,71.9v2.8q6.75,3.26,13.5,6.45l8.7-10.1v-3l-2.65-1.2,2-1.3,1.5.7.4.25.45.5.3,1v3l-.45,1.3-8.7,10.1-1.15.65L99.45,83,86,76.5l-.85-.7a2.09,2.09,0,0,1-.3-1.1V71.9a1.89,1.89,0,0,1,.5-1.3l2.1-2.5,2,.75"/><path class="cls-23" d="M106.35,60.2v8.45L99.9,76.3V67.85l6.45-7.65"/><path class="cls-24" d="M99.9,76.3l6.45-7.65v-1.8l2.65,1.2-8.7,10L86.8,71.9l2.6-3.05v2.6L99.9,76.3"/><path class="cls-25" d="M109,68.05v3l-8.7,10.1Q93.55,78,86.8,74.7V71.9l13.5,6.2,8.7-10"/><path class="cls-1" d="M89.4,63l6.45-7.65,10.5,4.85L99.9,67.85,89.4,63"/><path class="cls-26" d="M89.4,68.85V63l10.5,4.85V76.3L89.4,71.45v-2.6"/><path class="cls-21" d="M76.4,81.1V76a1.89,1.89,0,0,1,.5-1.3l6.45-7.65a1.87,1.87,0,0,1,1.1-.65l1.25.15Q91,69,96.2,71.4l.85.75.3,1v5.35l-2,1.3V73.2l-10.5-4.85L78.4,76v5.85l-2-.75"/><path class="cls-22" d="M76.4,81.1l2,.75L75.8,84.9v2.8l13.5,6.45L98,84.05v-3l-2.65-1.2,2-1.3,1.5.7.4.25.45.5.3,1v3a2,2,0,0,1-.45,1.3l-8.7,10.1a2.38,2.38,0,0,1-1.15.65L88.45,96,75,89.5l-.85-.7a2.09,2.09,0,0,1-.3-1.1V84.9a1.89,1.89,0,0,1,.5-1.3l2.1-2.5"/><path class="cls-24" d="M88.9,89.3l6.45-7.65v-1.8L98,81.05l-8.7,10L75.8,84.9l2.6-3.05v2.6L88.9,89.3"/><path class="cls-25" d="M98,81.05v3l-8.7,10.1L75.8,87.7V84.9l13.5,6.2,8.7-10"/><path class="cls-23" d="M95.35,73.2v8.45L88.9,89.3V80.85l6.45-7.65"/><path class="cls-26" d="M78.4,81.85V76l10.5,4.85V89.3L78.4,84.45v-2.6"/><path class="cls-1" d="M78.4,76l6.45-7.65,10.5,4.85L88.9,80.85,78.4,76"/><path class="cls-22" d="M115,90.05l-13.65-6L95.4,90.9v-.05l-.5.6-.15.2-2,2.25v2.8l13.5,6.45,8.7-10.1v-3M99.85,82.4q1.09-1.31,3.45,0l12.55,5.85.4.25.45.5.3,1v3a2,2,0,0,1-.45,1.3l-8.7,10.1a2.38,2.38,0,0,1-1.15.65l-1.25-.15L92,98.5a2,2,0,0,1-.85-.7,2.09,2.09,0,0,1-.3-1.1V93.9a1.89,1.89,0,0,1,.5-1.3l8.55-10.2"/><path class="cls-24" d="M92.8,93.9l2-2.25.15-.2.5-.6v.05l5.95-6.9,13.65,6-8.7,10L92.8,93.9"/><path class="cls-25" d="M92.8,93.9l13.5,6.2,8.7-10v3l-8.7,10.1L92.8,96.7V93.9"/></g></g></svg>