<svg xmlns="http://www.w3.org/2000/svg" xmlns:xlink="http://www.w3.org/1999/xlink" viewBox="0 0 120 140"><defs><style>.cls-1{fill:#a4afaf;}.cls-2{fill:#9ba6a6;}.cls-3{fill:#a9b6b6;}.cls-4{fill:#727979;}.cls-5{fill:#d5e5e5;}.cls-6{fill:#d26f49;}.cls-7{fill:#bb5f3c;}.cls-8{fill:#743a25;}.cls-9{fill:#e5794f;}.cls-10{fill:#a15133;}.cls-11{fill:#ffad00;}.cls-12{fill:#db8300;}.cls-13{fill:url(#linear-gradient);}.cls-14{fill:#5b4c3c;}.cls-15{fill:#be9060;}.cls-16{fill:#d8a36d;}.cls-17{fill:#a07a50;}.cls-18{fill:#168344;}.cls-19{fill:#115f32;}.cls-20{fill:#10773c;}.cls-21{fill:#1b914d;}.cls-22{fill:#20628e;}.cls-23{fill:#c4f0ff;}.cls-24{fill:#37a6f0;}.cls-25{fill:#2b84bf;}.cls-26{fill:#333;}.cls-27{fill:#bbe4f3;}.cls-28{fill:#3196d9;}</style><linearGradient id="linear-gradient" x1="-2769.2" y1="64.65" x2="-1130.8" y2="64.65" gradientTransform="matrix(0, 0.01, 0.01, 0, 47.1, 75.72)" gradientUnits="userSpaceOnUse"><stop offset="0" stop-color="#fc0"/><stop offset="1" stop-color="#f90"/></linearGradient></defs><title>Asset 94</title><g id="Layer_2" data-name="Layer 2"><g id="Layer_1-2" data-name="Layer 1"><path class="cls-1" d="M120,105,60,140,0,105V35L60,0l60,35v70M27.25,34.9l9.25,4.35,5.85-6.85-9.3-4.3-5.8,6.8M30.9,63.7l5.9,2.75,3.7-4.35-5.9-2.75L30.9,63.7m4.6,10-9.3-4.3-5.8,6.8,9.25,4.35,5.85-6.85M21.4,71.5l5.85-6.85L18,60.35l-5.8,6.8L21.4,71.5M94.25,28.35l-5.9-2.75L84.65,30l5.9,2.75,3.7-4.35M18.5,78.85,12.6,76.1,8.9,80.45l5.9,2.75,3.7-4.35M82.4,41.5l5.85-6.85L79,30.35l-5.8,6.8L82.4,41.5m8.5-6.8,5.9,2.75,3.7-4.35-5.9-2.75L90.9,34.7M47,105.6l-5.9-2.75-3.7,4.35L43.3,110,47,105.6M61.65,63.7l5.9,2.75,3.7-4.35-5.9-2.75-3.7,4.35m3.75,8,9.25,4.35,5.85-6.85L71.2,65l-5.8,6.8m-6.5-57.3,5.9,2.75,3.7-4.35L62.6,10.1l-3.7,4.35M103.15,66.6l5.9,2.75,3.7-4.35-5.9-2.75-3.7,4.35m-16.5,34.9,5.85-6.85-9.3-4.3-5.8,6.8,9.25,4.35M94.6,62.25,90.9,66.6l5.9,2.75L100.5,65l-5.9-2.75M47,114.35l-5.9-2.75L37.4,116l5.9,2.75,3.7-4.35m37.65-8.75-5.9-2.75-3.7,4.35L81,110l3.7-4.35M93,99.85l-3.7,4.35L95.2,107l3.7-4.35L93,99.85M23.4,114.3l5.9,2.75L33,112.7,27.1,110l-3.7,4.35"/><path class="cls-2" d="M23.4,114.3,27.1,110,33,112.7l-3.7,4.35-5.9-2.75m3.85-79.4,5.8-6.8,9.3,4.3L36.5,39.25,27.25,34.9M18.5,78.85,14.8,83.2,8.9,80.45l3.7-4.35,5.9,2.75m75.75-50.5-3.7,4.35L84.65,30l3.7-4.35,5.9,2.75M58.9,14.45l3.7-4.35,5.9,2.75L64.8,17.2l-5.9-2.75m6.5,57.3L71.2,65l9.3,4.3L74.65,76.1,65.4,71.75m-3.75-8,3.7-4.35,5.9,2.75-3.7,4.35-5.9-2.75M47,105.6,43.3,110l-5.9-2.75,3.7-4.35L47,105.6M94.6,62.25,100.5,65l-3.7,4.35L90.9,66.6l3.7-4.35M86.65,101.5,77.4,97.15l5.8-6.8,9.3,4.3-5.85,6.85"/><path class="cls-3" d="M21.4,71.5l-9.25-4.35,5.8-6.8,9.3,4.3L21.4,71.5m14.1,2.15L29.65,80.5,20.4,76.15l5.8-6.8,9.3,4.3m-4.6-10,3.7-4.35,5.9,2.75-3.7,4.35L30.9,63.7m60-29,3.7-4.35,5.9,2.75-3.7,4.35L90.9,34.7m-8.5,6.8-9.25-4.35,5.8-6.8,9.3,4.3L82.4,41.5m20.75,25.1,3.7-4.35,5.9,2.75-3.7,4.35-5.9-2.75M93,99.85l5.9,2.75L95.2,107l-5.9-2.75L93,99.85m-8.35,5.75L81,110l-5.9-2.75,3.7-4.35,5.9,2.75M47,114.35l-3.7,4.35L37.4,116l3.7-4.35,5.9,2.75"/><path class="cls-4" d="M55.65,69.65l-.55-1.8L49.25,65.1l-2.4.4-3.7,4.35V71.6l-2-.9v-.85a1.89,1.89,0,0,1,.5-1.3l3.7-4.35a1.8,1.8,0,0,1,1.2-.65l2.4-.4,1.15.15L56,66.05l.65.5.45.75.25.8-1.65,1.8v-.25"/><path class="cls-5" d="M55.65,69.65,52,74l-2.35.4-5.9-2.75-.55-1.8,3.7-4.35,2.4-.4,5.85,2.75.55,1.8"/><path class="cls-6" d="M43.15,71.6V69.85l.55,1.8,5.9,2.75v3.45l2.35-.4v7l-2.35.45V88.3l-5.9-2.75-.55-1.75V80.3l.55,1.8,5.9,2.75v-7L43.7,75.1l-.55-1.75V71.6"/><path class="cls-7" d="M55.65,69.65V73.1L52,77.45V74l3.7-4.35M43.15,80.3v-7l.55,1.75,5.9,2.75v7L43.7,82.1l-.55-1.8M52,84.4l3.7-4.35v3.5L52,87.9V84.4"/><path class="cls-8" d="M55.65,69.9l1.65-1.8.3,1,0,.55v13.9a2,2,0,0,1-.45,1.3L53.5,89.2l-1.2.7L50,90.3l-1.2-.15-5.9-2.75-.65-.5-.4-.75-.55-1.75-.1-.6V70.7l2,.9V83.8l.55,1.75,5.9,2.75L52,87.9l3.7-4.35V69.9"/><path class="cls-9" d="M49.6,74.4,52,74v3.45l-2.35.4V74.4m0,13.9V84.85L52,84.4v3.5l-2.35.4"/><path class="cls-10" d="M52,77.45l3.7-4.35v7L52,84.4v-7"/><path class="cls-11" d="M48,51.5,45.9,51l.55-2.05,2.1.55-.55,2m4.15-5.2-2,2L48.2,46.35l2-2,1.95,1.95"/><path class="cls-12" d="M51,55.2,54.3,61l.25,1v4.9l1.2,1.4a1.82,1.82,0,0,1,.5,1.25,2.27,2.27,0,0,1-.4,1.3l-2.8,3.55-.7.55-.9.2H48a1.89,1.89,0,0,1-1.3-.5l-3.05-2.7-.5-.65L43,70.4V64.65a1.77,1.77,0,0,1,.4-1.15l2.1-3V56.2a2.05,2.05,0,0,1,2-2h1.8a1.76,1.76,0,0,1,1,.3l.75.7m-1.75,1h-1.8v5L45,64.65V70.4l3,2.7h3.45l2.8-3.55-1.7-2V62l-3.3-5.75"/><path class="cls-13" d="M49.25,56.2,52.55,62V67.6l1.7,2-2.8,3.55H48l-3-2.7V64.65l2.5-3.45v-5h1.8"/><path class="cls-14" d="M105.05,73.6v8.55l-.3,1L104,84l-7.6,4-1.3.2a2.24,2.24,0,0,1-1.1-.6l-5.4-5.8a2,2,0,0,1-.55-1.4V71.75a1.76,1.76,0,0,1,.3-1l.8-.75,7.6-4a1.68,1.68,0,0,1,1.25-.2,2.08,2.08,0,0,1,1.15.6l5.4,5.8a2,2,0,0,1,.5,1.35m-2,0-5.4-5.8-7.6,4V80.3l5.4,5.8,7.6-3.95V73.6"/><path class="cls-15" d="M90.05,71.75l5.4,5.8V86.1l-5.4-5.8V71.75"/><path class="cls-16" d="M90.05,71.75l7.6-4,5.4,5.8-7.6,4-5.4-5.8"/><path class="cls-17" d="M95.45,77.55l7.6-4v8.55l-7.6,3.95V77.55"/><path class="cls-14" d="M110,81.05l-8-3.75-5,5.85V91.7l8,3.75,4.9-5.8v-8.6m-8.4-5.7,1.25.15,8,3.75a2.34,2.34,0,0,1,.85.75l.3,1v8.6a2,2,0,0,1-.45,1.3l-4.9,5.8a2.11,2.11,0,0,1-1.1.65l-1.3-.1-8-3.75-.8-.75A1.89,1.89,0,0,1,95,91.7V83.15a1.89,1.89,0,0,1,.5-1.3l5-5.85a1.87,1.87,0,0,1,1.1-.65"/><path class="cls-16" d="M97,83.15l5-5.85,8,3.75-4.9,5.85-8-3.75"/><path class="cls-15" d="M97,83.15l8,3.75v8.55L97,91.7V83.15"/><path class="cls-17" d="M110,81.05v8.6l-4.9,5.8V86.9l4.9-5.85"/><path class="cls-18" d="M16.05,54.5l-.25-.3-.75-1.05,6.1-15.45-.4,23.5,7.75-3.05.4-.15,1.85,5-.95.35-9.7,3.8-.8,6.15-6.8-9.6,2.3-3.3,4.95,6.9.65-6.55v-.05L16.05,54.5"/><path class="cls-19" d="M16.05,54.5H16l-.2-.3.25.3m5.1-16.8-6.1,15.45.75,1.05-3,3.4,2,2.75-2.3,3.3,6.8,9.6,1.5-.55-.05,0,12.65-5L29.8,63.3l.95-.35L28.9,58l-.4.15,1.75-.7L21.15,37.7M13.3,54.1l-.2-.7a1.54,1.54,0,0,1,.1-.95L19.3,37a1.82,1.82,0,0,1,1.05-1.1l1.5,0a2,2,0,0,1,1.15,1l9.1,19.75.15,1.05-.4.95-.4.4,1.2,3.2a1.85,1.85,0,0,1,0,1.35L35,66.4a2,2,0,0,1,.45,1.15,2.07,2.07,0,0,1-.3,1.2l-1,.75-14.1,5.6-1.3.1a2,2,0,0,1-1.05-.8l-6.8-9.6a1.77,1.77,0,0,1-.4-1.15,2,2,0,0,1,.35-1.15l1.5-2.15-1.1-1.6a1.73,1.73,0,0,1-.4-1.25,1.92,1.92,0,0,1,.5-1.2l2-2.2"/><path class="cls-20" d="M16.05,54.5l4.35,6.15v.05l-.65,6.55-4.95-6.9-2-2.75,3-3.4.2.3h.05"/><path class="cls-21" d="M19.3,73.25l.8-6.15,9.7-3.8,3.6,4.35-12.65,5,.05,0-1.5.55m9.2-15.1L20.75,61.2l.4-23.5,9.1,19.75-1.75.7"/><path class="cls-19" d="M19.8,59.65,24.1,70.5l.15.9-.05.35,1.15,1.3a2,2,0,0,1,.45,1.2,1.84,1.84,0,0,1-.35,1.25l-.55.8.8,1.15a2,2,0,0,1,.35,1.15l-.35,1.15L20.9,86.5l-1,.75a2.05,2.05,0,0,1-1.25,0l-1-.35-.6-.3L8.65,83.3l-1-.75a1.77,1.77,0,0,1-.35-1.2A2,2,0,0,1,7.8,80.2l1.45-1.75a1.87,1.87,0,0,1,.1-1l.7-1.85-.1-.1a1.84,1.84,0,0,1-.4-1,1.91,1.91,0,0,1,.2-1l6.4-13.9a1.81,1.81,0,0,1,1.1-1l1.5,0a1.82,1.82,0,0,1,1.05,1.1m1.75,12.5.2-.2.5-.75L18,60.35l-6.4,13.9,1.25.5-.3-.1L11.2,78.1l.65.25-2.5,3.1,8.9,3.5-.05,0,1.05.35,4.8-6.75-1.6-2.3,1.35-2L21.75,72l-.15.2h-.05"/><path class="cls-21" d="M21.55,72.15,18.5,76.5v0l.45,4.6,3.5-4.85,1.6,2.3-4.8,6.75-.55-4.3-6.85-2.7-.65-.25,1.3-3.45.3.1,5.45,2.15L18,60.35l4.3,10.85-.5.75-.2.2"/><path class="cls-18" d="M21.55,72.15h.05l.15-.2,2.05,2.4-1.35,2L19,81.15l-.45-4.6v0l3.05-4.35M18,60.35l.3,16.55L12.8,74.75l-1.25-.5L18,60.35m-6.1,18,6.85,2.7.55,4.3L18.2,85l.05,0-8.9-3.5,2.5-3.1"/><path class="cls-19" d="M70.45,41.35l4.8-6.75-1.6-2.3L75,30.35,73,28l.5-.75-4.3-10.85-6.4,13.9,1.25.5-.3-.1L62.4,34.1l.65.25-2.5,3.1,8.9,3.5,0,0,1,.35M71,15.65,75.3,26.5l.15.9,0,.35,1.15,1.3a2,2,0,0,1,.45,1.2l-.35,1.25-.55.8.8,1.15a2,2,0,0,1,.35,1.15l-.35,1.15L72.1,42.5a2,2,0,0,1-1,.75,2.05,2.05,0,0,1-1.25,0l-1-.35-.6-.3-8.35-3.3-1-.75a1.77,1.77,0,0,1-.35-1.2A2,2,0,0,1,59,36.2l1.45-1.75a1.87,1.87,0,0,1,.1-1.05l.7-1.85-.1-.1a1.84,1.84,0,0,1-.4-.95,1.91,1.91,0,0,1,.2-1.05l6.4-13.9a1.81,1.81,0,0,1,1.1-1.05l1.5.05a1.82,1.82,0,0,1,1,1.1M73,28l-.15.2h0L73,28"/><path class="cls-21" d="M64,30.75l5.45,2.15-.3-16.55,4.3,10.85L73,28l-.2.2-3,4.35v0l.45,4.6,3.5-4.85,1.6,2.3-4.8,6.75-.55-4.3-6.85-2.7-.65-.25,1.3-3.45.3.1"/><path class="cls-18" d="M64,30.75l-1.25-.5,6.4-13.9.3,16.55L64,30.75M73,28l2,2.4L73.65,32.3l-3.5,4.85-.45-4.6v0l3-4.35h0L73,28m-2.5,13.4-1-.35,0,0-8.9-3.5,2.5-3.1,6.85,2.7.55,4.3"/><path class="cls-21" d="M51.1,95.1,55.4,106l-.5.75-.2.2-3.05,4.35v0l.45,4.6,3.5-4.85,1.6,2.3-4.8,6.75-.55-4.3L45,113.1l-.65-.25,1.3-3.45.3.1,5.45,2.15L51.1,95.1"/><path class="cls-19" d="M51.1,95.1,44.7,109l1.25.5-.3-.1-1.3,3.45.65.25-2.5,3.1,8.9,3.5,0,0,1,.35,4.8-6.75-1.6-2.3,1.35-2-2.05-2.4-.15.2h0l.2-.2.5-.75L51.1,95.1M53,94.4l4.3,10.85.15.9,0,.35,1.15,1.3A2,2,0,0,1,59,109l-.35,1.25-.55.8.8,1.15a2.06,2.06,0,0,1,0,2.3l-4.8,6.75-1,.75a2.05,2.05,0,0,1-1.25,0l-1-.35-.6-.3-8.35-3.3-.95-.75a1.77,1.77,0,0,1-.35-1.2A2,2,0,0,1,41,115l1.45-1.75a1.87,1.87,0,0,1,.1-1l.7-1.85-.1-.1-.4-1a1.91,1.91,0,0,1,.2-1l6.4-13.9a1.81,1.81,0,0,1,1.1-1l1.5,0A1.82,1.82,0,0,1,53,94.4"/><path class="cls-18" d="M51.1,95.1l.3,16.55L46,109.5,44.7,109l6.4-13.9m-6.1,18,6.85,2.7.55,4.3-1-.35,0,0-8.9-3.5,2.5-3.1m10.6-2-3.5,4.85-.45-4.6v0l3.05-4.35h0l.15-.2L57,109.1l-1.35,2"/><path class="cls-19" d="M68.15,115.55l1.75-.7L60.8,95.1l-6.1,15.45.75,1,.25.3h-.05l-.2-.3-3,3.4,2,2.75-2.3,3.3,6.8,9.6,1.5-.55-.05,0,12.65-5-3.6-4.35,1-.35-1.85-4.95-.4.15M60,93.3l1.5,0a2,2,0,0,1,1.15,1l9.1,19.75.15,1-.4,1-.4.4,1.2,3.2a1.85,1.85,0,0,1,0,1.35l2.3,2.8a2,2,0,0,1,.45,1.15,2.07,2.07,0,0,1-.3,1.2l-1,.75-14.1,5.6-1.3.1a2,2,0,0,1-1-.8l-6.8-9.6a1.77,1.77,0,0,1-.4-1.15,2,2,0,0,1,.35-1.15l1.5-2.15-1.1-1.6a1.73,1.73,0,0,1-.4-1.25,1.92,1.92,0,0,1,.5-1.2l2-2.2-.2-.7a1.54,1.54,0,0,1,.1-1L59,94.4a1.82,1.82,0,0,1,1-1.1"/><path class="cls-18" d="M54.45,117.75l4.95,6.9.65-6.55v0L55.7,111.9l-.25-.3-.75-1L60.8,95.1l-.4,23.5,7.75-3,.4-.15,1.85,4.95-1,.35-9.7,3.8-.8,6.15-6.8-9.6,2.3-3.3"/><path class="cls-20" d="M54.45,117.75l-2-2.75,3-3.4.2.3h.05l4.35,6.15v0l-.65,6.55-4.95-6.9"/><path class="cls-21" d="M59,130.65l.8-6.15,9.7-3.8,3.6,4.35-12.65,5,.05,0-1.5.55m9.2-15.1-7.75,3,.4-23.5,9.1,19.75-1.75.7"/><path class="cls-19" d="M85.2,91.25l1.5,0a1.82,1.82,0,0,1,1,1.1l4.3,10.85.15.9,0,.35,1.15,1.3a2,2,0,0,1,.45,1.2,1.84,1.84,0,0,1-.35,1.25l-.55.8.8,1.15a2.06,2.06,0,0,1,0,2.3l-4.8,6.75-1,.75a2.05,2.05,0,0,1-1.25,0l-1-.35-.6-.3-8.35-3.3a2.16,2.16,0,0,1-.95-.75,1.77,1.77,0,0,1-.35-1.2,2,2,0,0,1,.45-1.15l1.45-1.75a1.87,1.87,0,0,1,.1-1l.7-1.85-.1-.1-.4-1a1.91,1.91,0,0,1,.2-1l6.4-13.9a1.81,1.81,0,0,1,1.1-1m5.2,17.8,1.35-2-2-2.4-.15.2h0l.2-.2.5-.75L85.9,93.1,79.5,107l1.25.5-.3-.1-1.3,3.45.65.25-2.5,3.1,8.9,3.5,0,0,1,.35,4.8-6.75-1.6-2.3"/><path class="cls-18" d="M90.4,109.05l-3.5,4.85-.45-4.6v0l3-4.35h0l.15-.2,2,2.4-1.35,2m-3.2,9-1-.35,0,0-8.9-3.5,2.5-3.1,6.85,2.7.55,4.3m-6.45-10.6L79.5,107l6.4-13.9.3,16.55-5.45-2.15"/><path class="cls-21" d="M80.75,107.5l5.45,2.15L85.9,93.1,90.2,104l-.5.75-.2.2-3,4.35v0l.45,4.6,3.5-4.85,1.6,2.3-4.8,6.75-.55-4.3-6.85-2.7-.65-.25,1.3-3.45.3.1"/><path class="cls-19" d="M84.65,17.2,93.75,37l.15,1-.4,1-.4.4,1.2,3.2a1.85,1.85,0,0,1,0,1.35l2.3,2.8a2,2,0,0,1,.45,1.15,2.07,2.07,0,0,1-.3,1.2l-1,.75L81.7,55.4l-1.3.1-1.05-.8-6.8-9.6a1.77,1.77,0,0,1-.4-1.15,2,2,0,0,1,.35-1.15L74,40.65l-1.1-1.6a1.73,1.73,0,0,1-.4-1.25,1.92,1.92,0,0,1,.5-1.2l2-2.2-.2-.7a1.54,1.54,0,0,1,.1-1L81,17.3a1.82,1.82,0,0,1,1-1.1l1.5-.05a2,2,0,0,1,1.15,1.05m6.8,26.4,1-.35-1.85-5-.4.15,1.75-.7L82.8,18,76.7,33.45l.75,1,.25.3h0l-.2-.3-3,3.4,2,2.75L74.15,44l6.8,9.6,1.5-.55,0,0,12.65-5-3.6-4.35"/><path class="cls-18" d="M91.45,43.6l-9.7,3.8L81,53.55,74.15,44l2.3-3.3,5,6.9L82.05,41v0L77.7,34.8l-.25-.3-.75-1L82.8,18l-.4,23.5,7.75-3,.4-.15,1.85,5-1,.35"/><path class="cls-21" d="M91.45,43.6,95.05,48,82.4,53l0,0-1.5.55.8-6.15,9.7-3.8m-1.3-5.15-7.75,3L82.8,18l9.1,19.75-1.75.7"/><path class="cls-20" d="M77.7,34.8,82.05,41v0l-.65,6.55-5-6.9-2-2.75,3-3.4.2.3h0"/><path class="cls-19" d="M34.05,31l-.4-.95a1.91,1.91,0,0,1,.2-1.05l6.4-13.9A1.81,1.81,0,0,1,41.35,14l1.5.05a1.82,1.82,0,0,1,1,1.1L48.2,26l.15.9-.05.35,1.15,1.3a2,2,0,0,1,.45,1.2L49.55,31l-.55.8L49.8,33a2.06,2.06,0,0,1,0,2.3L45,42a2,2,0,0,1-1,.75,2.05,2.05,0,0,1-1.25,0l-1-.35-.6-.3-8.35-3.3-.95-.75a1.77,1.77,0,0,1-.35-1.2,2,2,0,0,1,.45-1.15L33.35,34a1.87,1.87,0,0,1,.1-1.05l.7-1.85-.1-.1m2.85-.7-.3-.1L35.3,33.6l.65.25L33.45,37l8.9,3.5-.05,0,1.05.35,4.8-6.75-1.6-2.3,1.35-1.95-2-2.4-.15.2h-.05l.2-.2.5-.75-4.3-10.85-6.4,13.9,1.25.5"/><path class="cls-21" d="M36.9,30.25l5.45,2.15-.3-16.55,4.3,10.85-.5.75-.2.2L42.6,32v0l.45,4.6,3.5-4.85,1.6,2.3-4.8,6.75-.55-4.3L36,33.85l-.65-.25,1.3-3.45.3.1"/><path class="cls-18" d="M36.9,30.25l-1.25-.5,6.4-13.9.3,16.55L36.9,30.25M36,33.85l6.85,2.7.55,4.3L42.3,40.5l.05,0L33.45,37l2.5-3.1m10.6-2.05-3.5,4.85-.45-4.6v0l3-4.35h.05l.15-.2,2,2.4L46.55,31.8"/><path class="cls-22" d="M84.8,48.05l1,3.85,3,4.4a1.89,1.89,0,0,1,.35,1.1v4.3l-.35,1.1-.85.75L78,68l-1.25.1a2.11,2.11,0,0,1-1.1-.65l-.2-.25q-1.4.64-3-1.05a6.8,6.8,0,0,1-1.4-2.5l-.5-2.05-3.25-3.8q-1.35.75-3-1l0,.1a7.28,7.28,0,0,1-1.45-2.55,9.44,9.44,0,0,1-.5-2.15l-.4-.45a2.07,2.07,0,0,1-.5-1.35V45.65a1.85,1.85,0,0,1,.3-1l.85-.75,9.6-4.45,1.1-.15a1.72,1.72,0,0,1,1.05.45L76,41.05l.85-.4,1.3-.2a1.87,1.87,0,0,1,1.1.65l5.2,6.15.4.8m-.8,4.7-1.1-4.2L77.7,42.4l-2,1.05L73.1,41.2l-9.6,4.45V50.3l.9,1v.15a6.48,6.48,0,0,0,.4,2.15,4.58,4.58,0,0,0,1,1.75c.37.4.68.52,1,.35s.42-.55.45-1.15l5.35,6.2v0A6.48,6.48,0,0,0,73,63l1,1.8c.37.4.7.52,1,.35a1.5,1.5,0,0,0,.4-1.15L77.2,66.1l9.9-4.4V57.4L84,52.75"/><path class="cls-23" d="M84,52.75,74.2,57.1,73,53.1q5-2.25,10-4.55l1.1,4.2"/><path class="cls-24" d="M84,52.75l3.1,4.65L77.2,62l-3-4.85L84,52.75m-20.5-7.1,9.6-4.45,2.55,2.25,2-1.05,5.2,6.15q-5,2.3-10,4.55L70.6,50.4,68,47.3l-2,1.35-2.5-3"/><path class="cls-25" d="M63.5,45.65l2.5,3,2-1.35,2.65,3.1v3.1l3.6,3.6,3,4.85V66.1L75.35,64V63.8a6.48,6.48,0,0,0-.4-2.15L74,59.9c-.4-.4-.73-.52-1-.35s-.4.57-.4,1.2l-5.35-6.2v-.1l-.45-2.15a5,5,0,0,0-1-1.75c-.4-.43-.73-.57-1-.4s-.4.55-.4,1.15l-.9-1V45.65"/><path class="cls-26" d="M75.35,64A1.5,1.5,0,0,1,75,65.1c-.3.17-.63.05-1-.35L73,63a6.48,6.48,0,0,1-.4-2.15v0c0-.63.13-1,.4-1.2s.6,0,1,.35l1,1.75a6.48,6.48,0,0,1,.4,2.15V64m-8.15-9.4c0,.6-.18,1-.45,1.15s-.58,0-1-.35a4.58,4.58,0,0,1-1-1.75,6.48,6.48,0,0,1-.4-2.15V51.3c0-.6.13-1,.4-1.15s.6,0,1,.4a5,5,0,0,1,1,1.75l.45,2.15v.1"/><path class="cls-27" d="M73,53.1l1.25,4-3.6-3.6V50.4L73,53.1"/><path class="cls-28" d="M87.1,57.4v4.3l-9.9,4.4V62l9.9-4.55"/></g></g></svg>