<svg xmlns="http://www.w3.org/2000/svg" viewBox="0 0 120 140"><defs><style>.cls-1{fill:#ecdcb8;}.cls-2{fill:#e5d5b2;}.cls-3{fill:#e0d1af;}.cls-4{fill:#855b30;}.cls-5{fill:#af783f;}.cls-6{fill:#bb8044;}.cls-7{fill:#cd8c4a;}</style></defs><title>Asset 58</title><g id="Layer_2" data-name="Layer 2"><g id="Layer_1-2" data-name="Layer 1"><path class="cls-1" d="M18.35,24.3l27.5-16h0L60,0l60,35v70L60,140,0,105V35L17.25,25l.05-.05h.05l1-.6M97.1,36.85Q77.94,41.61,69.55,60.1A53.62,53.62,0,0,0,67,67a43.55,43.55,0,0,1-4.4,11L60,81.85Q52.11,92.2,37,96.9l0,0a39,39,0,0,0-19.6,11.2l30.3,17.65,1-1.7,2-3.95a42.65,42.65,0,0,0,2.4-7A51.69,51.69,0,0,1,60,98.8,38.43,38.43,0,0,1,83.1,83.2l0,0q18-5.55,25.75-19.1l2-3.95a39,39,0,0,0,2.4-7.05l.8-2.35V42a5.83,5.83,0,0,0-3-5.15h0l-5.65-3.3a61.49,61.49,0,0,1-8.35,3.25l0,.05M85.85,22.15,65.9,10.5a44.83,44.83,0,0,1-3.35,7.35L60,21.75q-7.85,10.35-23,15l0,.05Q17.9,41.61,9.5,60.1A60.49,60.49,0,0,0,6.85,67L6,69.9v22a39.28,39.28,0,0,1,17-8.7l-.05,0q18-5.55,25.8-19.1l2-3.95a44.24,44.24,0,0,0,2.4-7.05A51.77,51.77,0,0,1,60,38.75,38.37,38.37,0,0,1,83.1,23.1l0-.05,2.8-.9M112.5,78.8l.75-6.55-6.55-.8-.75,6.6,6.55.75M83,93.9,76.8,91.45,74.35,97.6,80.5,100,83,93.9m8.85-3H87.2l0,4.55H91.8V91M88.45,84.8l-1.2,3,2.9,1.2,1.25-2.9-3-1.25m-28.2,21.9,1.9,1,1.15-2-2-1-1,2M59,79l-1-7-7.1,1.1,1,7L59,79m-.2-13V61.45H54.2l0,4.55H58.8M76.1,39.9l-.4,3.15,3.15.4.45-3.1-3.2-.45m6.45-8.8-4,1.85,1.75,4,4-1.85-1.75-4m14.5,65.8,0,0q-19.15,4.76-27.55,23.2A53.62,53.62,0,0,0,67,127l-.65,2.3,44.75-26.1h0a6.35,6.35,0,0,0,2.2-2.2,5.89,5.89,0,0,0,.8-3v-10a49.44,49.44,0,0,1-17,8.8M37.9,91.85l3.6-6.65-6.6-3.55-3.55,6.7,6.55,3.5M26.1,92.9l4,1,1-4.05-4-.95-1,4m-14.85-47-2,.9.85,2.1,2-.95-.85-2.05m3.35-8.5-3.75,2.8L13.6,44l3.85-2.8L14.6,37.4m4.25.3L21.45,41l3.2-2.6L22.1,35.1l-3.25,2.6m33.8-19.45L48.3,19,49,23.3l4.35-.7-.7-4.35M63,118.6l-4,1.85,1.75,4,4-1.85-1.75-4"/><path class="cls-2" d="M63,118.6l1.75,4-4,1.85-1.75-4,4-1.85M85.85,22.15l-2.8.9,0,.05A38.37,38.37,0,0,0,60,38.75a51.77,51.77,0,0,0-6.8,14.3,44.24,44.24,0,0,1-2.4,7.05l-2,3.95Q40.95,77.6,23,83.15l.05,0A39.28,39.28,0,0,0,6,91.9v-22l.85-3A60.49,60.49,0,0,1,9.5,60.1q8.4-18.49,27.55-23.25l0-.05q15.11-4.69,23-15l2.6-3.9A44.83,44.83,0,0,0,65.9,10.5L85.85,22.15M97.1,36.85l0-.05a61.49,61.49,0,0,0,8.35-3.25l5.65,3.3h0A5.83,5.83,0,0,1,114,42v8.7l-.8,2.35a39,39,0,0,1-2.4,7.05l-2,3.95Q101,77.6,83.05,83.15l0,0A38.43,38.43,0,0,0,60,98.8a51.69,51.69,0,0,0-6.8,14.35,42.65,42.65,0,0,1-2.4,7l-2,3.95-1,1.7-30.3-17.65A39,39,0,0,1,37.05,97l0,0q15.11-4.7,23-15.05l2.6-3.9A43.55,43.55,0,0,0,67,67a53.62,53.62,0,0,1,2.6-6.85Q78,41.61,97.1,36.85M82.55,31.1l1.75,4L80.3,37l-1.75-4,4-1.85M76.1,39.9l3.2.45-.45,3.1-3.15-.4.4-3.15M58.8,66H54.25l0-4.55h4.6V66M59,79l-7.1,1.1-1-7L58,72l1,7m1.25,27.75,1-2,2,1-1.15,2-1.9-1m28.2-21.9,3,1.25L90.15,89l-2.9-1.2,1.2-3M91.8,91V95.5H87.25l0-4.55h4.6M83,93.9,80.5,100l-6.15-2.4,2.45-6.15L83,93.9M112.5,78.8,106,78.05l.75-6.6,6.55.8-.75,6.55M97.05,96.9a49.44,49.44,0,0,0,17-8.8v10a5.89,5.89,0,0,1-.8,3,6.35,6.35,0,0,1-2.2,2.2h0L66.3,129.3,67,127a53.62,53.62,0,0,1,2.6-6.85Q78,101.7,97.1,97l0,0M52.65,18.25l.7,4.35L49,23.3,48.3,19l4.35-.7M18.85,37.7l3.25-2.6,2.55,3.25L21.45,41l-2.6-3.25m-4.25-.3,2.85,3.75L13.6,44,10.85,40.2l3.75-2.8m-3.35,8.5L12.1,48l-2,.95-.85-2.1,2-.9m14.85,47,1-4,4,.95-1,4.05-4-1m11.8-1.05-6.55-3.5,3.55-6.7,6.6,3.55-3.6,6.65"/><path class="cls-3" d="M17.3,24.9l1.05-.6-1,.6H17.3"/><path class="cls-4" d="M61.35,31.6l4.85,6.85.35.85,2.5,15L73.5,66.8l.1,1-.45,1L63.6,80.15l-.7.55-.9.15-18-.5-.9-.2-.65-.65L34,67.6l-.35-.85a1.54,1.54,0,0,1,.1-1l4.5-12.4.3-.6,3.25-3.95,2.75-13.5a2,2,0,0,1,.45-.9l2.75-3.25a1.39,1.39,0,0,1,.7-.5l.85-.2,10.45.25.9.25.7.6m.7,47.25,9.55-11.4-4.5-12.7L64.55,39.6,59.7,32.75,49.25,32.5,46.5,35.75l-2.85,14-3.55,4.3-4.5,12.4L44,78.35l18,.5"/><path class="cls-5" d="M62.05,78.85,60,63.3l3.6-4.2L61.8,42.85l2.75-3.25L67.1,54.75l4.5,12.7-9.55,11.4M46.5,35.75l7.4,6.65-.65,16-9.6-8.6,2.85-14m-6.4,18.3,6.25,8.85L44,78.35l-8.4-11.9,4.5-12.4"/><path class="cls-6" d="M40.1,54.05l3.55-4.3,9.6,8.6.65-16-7.4-6.65,2.75-3.25,10.45.25,4.85,6.85L61.8,42.85,63.55,59.1,60,63.3l-13.6-.4L40.1,54.05"/><path class="cls-7" d="M60,63.3l2.1,15.55-18-.5L46.35,62.9l13.6.4"/><path class="cls-4" d="M80.35,83.9a1.82,1.82,0,0,1,1.25.5,2,2,0,0,1,.7,1.15l2,11.3a2,2,0,0,1-.3,1.4,2.12,2.12,0,0,1-1.1.9l-8.9,2.7H73l-.9-.5L65,94.7,64.5,94l-.15-.85L64.8,88a1.79,1.79,0,0,1,.45-1.1l1-.65,4.6-1.5.25,0,4.8-.85.4,0,4.1.1M76.2,85.8l-4.8.85-4.6,1.5-.45,5.1L73.4,99.9l8.9-2.7-2-11.3-4.1-.1"/><path class="cls-5" d="M76.2,85.8l4.1.1,2,11.3-5.25-6.75L76.2,85.8m-4.8.85-.1,1-5,5.6.45-5.1,4.6-1.5"/><path class="cls-6" d="M71.4,86.65l4.8-.85.85,4.65L75,91.1,73.4,99.9l-7.05-6.65,5-5.6.1-1"/><path class="cls-7" d="M73.4,99.9,75,91.1l2.1-.65L82.3,97.2l-8.9,2.7"/></g></g></svg>