<svg xmlns="http://www.w3.org/2000/svg" viewBox="0 0 120 140"><defs><style>.cls-1{fill:#a4afaf;}.cls-2{fill:#a9b6b6;}.cls-3{fill:#9ba6a6;}.cls-4{fill:#727979;}.cls-5{fill:#a6b1b1;}.cls-6{fill:#d5e5e5;}.cls-7{fill:#b9c6c6;}.cls-8{fill-opacity:0.1;}.cls-9{fill:#115f32;}.cls-10{fill:#1b914d;}.cls-11{fill:#bb8044;}.cls-12{fill:#98a3a3;}.cls-13{fill:#81b0bf;}.cls-14{fill:#c4f0ff;}.cls-15{fill:#d4e2e2;}.cls-16{fill:#d9d9d9;}.cls-17{fill:#f3fcff;}.cls-18{fill:#e9f9ff;}.cls-19{fill:#def6ff;}.cls-20{fill:#198a49;}</style></defs><title>Asset 163</title><g id="Layer_2" data-name="Layer 2"><g id="Layer_1-2" data-name="Layer 1"><path class="cls-1" d="M82.4,41.5l5.85-6.85L79,30.35l-5.8,6.8L82.4,41.5M84.65,30l5.9,2.75,3.7-4.35-5.9-2.75L84.65,30m12.15,7.5,3.7-4.35-5.9-2.75L90.9,34.7l5.9,2.75m-37.9-23,5.9,2.75,3.7-4.35L62.6,10.1l-3.7,4.35M36.5,39.25l5.85-6.85-9.3-4.3-5.8,6.8,9.25,4.35M60,0l60,35v70L60,140,0,105V35L60,0M30.9,63.7l5.9,2.75,3.7-4.35-5.9-2.75L30.9,63.7m30.75,0,5.9,2.75,3.7-4.35-5.9-2.75-3.7,4.35M18,60.35l-5.8,6.8L21.4,71.5l5.85-6.85L18,60.35m.55,18.5L12.6,76.1,8.9,80.45l5.9,2.75,3.7-4.35m1.9-2.7,9.25,4.35,5.85-6.85-9.3-4.3-5.8,6.8m3,38.15,5.9,2.75L33,112.7,27.1,110l-3.7,4.35m23.6,0-5.9-2.75L37.4,116l5.9,2.75,3.7-4.35m0-8.75-5.9-2.75-3.7,4.35L43.3,110,47,105.6m56.15-39,5.9,2.75,3.7-4.35-5.9-2.75-3.7,4.35m-20,23.75-5.8,6.8,9.25,4.35,5.85-6.85-9.3-4.3m-2.7-21.1L71.2,65l-5.8,6.8,9.25,4.35,5.85-6.85m16.3.1L100.5,65l-5.9-2.75L90.9,66.6l5.9,2.75M75.05,107.2,81,110l3.7-4.35-5.9-2.75-3.7,4.35m23.85-4.6c-2-.9-3.93-1.82-5.9-2.75l-3.7,4.35L95.2,107l3.7-4.35"/><path class="cls-2" d="M98.9,102.6,95.2,107l-5.9-2.75L93,99.85c2,.93,3.93,1.85,5.9,2.75M82.4,41.5l-9.25-4.35,5.8-6.8,9.3,4.3L82.4,41.5m14.4-4L90.9,34.7l3.7-4.35,5.9,2.75-3.7,4.35M30.9,63.7l3.7-4.35,5.9,2.75-3.7,4.35L30.9,63.7M18,60.35l9.3,4.3L21.4,71.5l-9.25-4.35,5.8-6.8m2.45,15.8,5.8-6.8,9.3,4.3L29.65,80.5,20.4,76.15M47,114.35l-3.7,4.35L37.4,116l3.7-4.35,5.9,2.75M103.15,66.6l3.7-4.35,5.9,2.75-3.7,4.35-5.9-2.75m-28.1,40.6,3.7-4.35,5.9,2.75L81,110l-5.9-2.75"/><path class="cls-3" d="M84.65,30l3.7-4.35,5.9,2.75-3.7,4.35L84.65,30M36.5,39.25,27.25,34.9l5.8-6.8,9.3,4.3L36.5,39.25m22.4-24.8,3.7-4.35,5.9,2.75L64.8,17.2l-5.9-2.75M61.65,63.7l3.7-4.35,5.9,2.75-3.7,4.35-5.9-2.75M18.5,78.85,14.8,83.2,8.9,80.45l3.7-4.35,5.9,2.75m4.9,35.45L27.1,110,33,112.7l-3.7,4.35-5.9-2.75M47,105.6,43.3,110l-5.9-2.75,3.7-4.35L47,105.6M96.8,69.35,90.9,66.6l3.7-4.35L100.5,65l-3.7,4.35m-16.3-.1L74.65,76.1,65.4,71.75,71.2,65l9.3,4.3m2.7,21.1,9.3,4.3-5.85,6.85L77.4,97.15l5.8-6.8"/><path class="cls-4" d="M11.1,87.65v-8.2a1.9,1.9,0,0,1,.25-1l.7-1.25V73l-1.4,1.65-1.1.65-1.3-.1-3.9-1.8a2.51,2.51,0,0,1-.8-.75,1.89,1.89,0,0,1-.35-1.1V69.05a1.89,1.89,0,0,1,.5-1.3l4.65-5.5a1.87,1.87,0,0,1,1.1-.65l1,0,2.1-2.45.55-.45,1-.55L15,58l.95.2,2.3,1.1.7.6.5.65a1.83,1.83,0,0,1,.4,1.2V76.5l.6.8a2,2,0,0,1,.35,1.15V86.8a2,2,0,0,1-.45,1.3l-2.2,2.6-.65.5-.45.15-1.3-.15-3.5-1.65a2.09,2.09,0,0,1-.8-.7,1.89,1.89,0,0,1-.35-1.1v-.1m5.5,1.75,2.2-2.6V78.45l-.95-1.35V61.7l-.5-.65L15.05,60l-1,.55L11,64.1l-1.15-.55L5.2,69.05V71.5l3.9,1.8,5-5.75v10.2l-1,1.7v8.3l3.5,1.65"/><path class="cls-5" d="M16.6,89.4V81.1l-.2-2.3V63.4l-2.35,2.75v1.4l-5,5.75L5.2,71.5V69.05l3.9,1.8,4.65-5.5-.4-.15,3-3.65-2.35-1,1-.55,2.3,1.1.5.65V77.1l.95,1.35V86.8l-2.2,2.6"/><path class="cls-6" d="M13.1,79.45l1-1.7,2.35,1,.2,2.3-3.5-1.65M5.2,69.05l4.65-5.5L11,64.1l3.05-3.6,2.35,1-3,3.65.4.15L9.1,70.85l-3.9-1.8"/><path class="cls-7" d="M16.6,89.4l-3.5-1.65v-8.3l3.5,1.65v8.3M14.05,77.75V66.15L16.4,63.4V78.8l-2.35-1"/><path class="cls-8" d="M17.5,91.2,11.75,98,5.2,94.6l5.9-6.95v.1a1.89,1.89,0,0,0,.35,1.1,2.09,2.09,0,0,0,.8.7l3.5,1.65,1.3.15.45-.15"/><path class="cls-9" d="M28.6,88.55a5.1,5.1,0,0,0,1.75-1.1l.2-.15a4.53,4.53,0,0,0,1.15-3V83.5A49.92,49.92,0,0,0,30.35,71Q29,65.85,27,65.85T23.7,71a48.37,48.37,0,0,0-1.4,12.5v.85a4.3,4.3,0,0,0,1.25,3l.15.15a4.34,4.34,0,0,0,1.75,1.1V89.7A1.54,1.54,0,0,0,27,91.25h.05a1.35,1.35,0,0,0,1.05-.45,1.44,1.44,0,0,0,.5-1.1V88.55m-6.8-.25a6,6,0,0,1-1.5-3.9v-.9a48.75,48.75,0,0,1,1.5-13q1.85-7.1,5.2-6.65,3.34-.49,5.3,6.65a52.21,52.21,0,0,1,1.4,13v.9a6.53,6.53,0,0,1-1.4,3.95l-.5.55h-.05l-1.15.9a3.21,3.21,0,0,1-1,2.35l-.15.15a3.51,3.51,0,0,1-2.4,1H27a3.38,3.38,0,0,1-2.5-1,3.48,3.48,0,0,1-1.05-2.45l-1.15-.9h.05l-.55-.6"/><path class="cls-10" d="M25.45,88.55a4.34,4.34,0,0,1-1.75-1.1l-.15-.15a4.3,4.3,0,0,1-1.25-3V83.5A48.37,48.37,0,0,1,23.7,71q1.35-5.15,3.3-5.15T30.35,71A49.92,49.92,0,0,1,31.7,83.5v.85a4.53,4.53,0,0,1-1.15,3l-.2.15a5.1,5.1,0,0,1-1.75,1.1L27,88.8l-1.55-.25"/><path class="cls-8" d="M32.3,88.35a3.36,3.36,0,0,1,1.5,2.7,3.72,3.72,0,0,1-2,3.1,8.34,8.34,0,0,1-4.75,1.3,8.57,8.57,0,0,1-4.8-1.3,3.72,3.72,0,0,1-1.95-3.1,3.48,3.48,0,0,1,1.5-2.75l.55.6H22.3l1.15.9a3.48,3.48,0,0,0,1.05,2.45,3.38,3.38,0,0,0,2.5,1h.05a3.51,3.51,0,0,0,2.4-1l.15-.15a3.21,3.21,0,0,0,1-2.35l1.15-.9h.05l.5-.55"/><path class="cls-11" d="M28.6,88.55V89.7a1.44,1.44,0,0,1-.5,1.1,1.35,1.35,0,0,1-1.05.45H27a1.54,1.54,0,0,1-1.55-1.55V88.55L27,88.8l1.6-.25"/><path class="cls-4" d="M30.1,47.55V43.8l0-.4L30.3,43l.3-.45L36,36.15V33a1.89,1.89,0,0,1,.5-1.3L42,25.3a1.44,1.44,0,0,1,.15-.65l.35-.65L53.8,10.65A1.87,1.87,0,0,1,54.9,10l1.25.15,18.05,8.4.85.75.2.5.1.55V22l4.75,2.25L81,25l.2.5.1.55V32.2l2.55,1.2.35.2.35.3.4.75,2,6.9,0,.55v3.45L85,47.9V42.1l-2-6.9-3.7-1.75v-7.4l-5.9-2.75V20.35L55.3,12,44,25.3v.75L38,33V36.9l-5.9,6.9v5.05l-2-1.3M87,85.55v9.5l-.1.35-.2.35L86.5,96,70.7,114.8l-.25.25-.3.2-.3.15-.4.1L59.8,117h-.6l-.3-.1-.25-.1-25.2-11.9-.2-.1-.1-.1-.35-.25-.25-.35-.15-.4-2.2-6.9v0l-.05-.2,0-.35V88.1l2,.85V96.2l2.2,6.9L59.5,115l9.65-1.5L85,94.7V87.45l.2.2,1.8-2.1"/><path class="cls-12" d="M73.35,20.35V27L62,40.4V34l11.35-13.6m5.9,5.7v13.3l-16,18.8V44.8l16-18.75M85,42.1v5.45L69.15,66.3V60.9L85,42.1m-15.8,71.4v-7.25L85,87.45V94.7l-15.8,18.8"/><path class="cls-13" d="M30.1,47.55l2,1.3V89l-2-.85V47.55M85,47.9l2-2.35v40l-1.8,2.1-.2-.2V47.9"/><path class="cls-14" d="M85,47.9V87.45l-15.8,18.8V66.3L85,47.55v.35M34.3,75.35v20.5L32.1,89V49l2.2,7v19.4"/><path class="cls-15" d="M32.1,43.8,38,36.9v9.65l25.2,11.6,16-18.8v-5.9L83,35.2l2,6.9L69.15,60.9v5.4L59.5,67.8V62.6L34.3,50.7l-2.2-6.9M38,33l6-6.9V32L62,40.4,73.35,27V23.3l5.9,2.75L63.2,44.8,38,33m6-7.65L55.3,12l18,8.4L62,34l-11.1-5.3L44,25.3M56,14.15l-9.1,10.7,14.45,6.9L70.4,20.9,56,14.15m3.55,93.6,9.65-1.5v7.25L59.5,115v-7.25"/><path class="cls-7" d="M59.5,107.75V115L34.3,103.1l-2.2-6.9V89l2.2,6.9,25.2,11.9M32.1,48.85V43.8l2.2,6.9L59.5,62.6v5.2l-8.4-3.95-3.45-1.6-6.35-3-7-3.3-2.2-7v-.15m5.9-12V33L63.2,44.8V58.15L38,46.55V36.9m6-10.85V25.8l.2-.25,6.75,3.1L62,34V40.4L44,32v-5.9m12-11.9L70.4,20.9,61.3,31.75l-14.45-6.9L56,14.15"/><path class="cls-16" d="M44,25.8v-.5l6.95,3.35-6.75-3.1-.2.25"/><path class="cls-17" d="M59.5,67.8l9.65-1.5v40l-9.65,1.5V67.8"/><path class="cls-18" d="M59.5,67.8v2L34.3,87.05V75.35l16.8-11.5,8.4,3.95M34.3,71.35V64l7-4.75,6.35,3L34.3,71.35"/><path class="cls-19" d="M34.3,71.35l13.35-9.1,3.45,1.6L34.3,75.35v-4m0,15.7,25.2-17.2v37.9L34.3,95.85v-8.8m0-23V56l7,3.3L34.3,64"/><path class="cls-9" d="M95,77.6l-.3-1.2-.5-1.75q-1.7-5.4-4-6.05l-.65-.1-.65.1q-2.25.65-3.9,6.05L84.5,76.4l-.3,1.2-1.1,6-.25,2.25L82.6,89l-.2,4.85v3a6.89,6.89,0,0,0,2.1,4.75l1.3,1,1.45.7v1.75a2.24,2.24,0,0,0,.65,1.65,2.3,2.3,0,0,0,1.7.7h.05A2.39,2.39,0,0,0,92,105.05V103.3l1.55-.75,1.15-1a6.89,6.89,0,0,0,2.1-4.75v-3L96.6,89l-.25-3.1L96.1,83.6l-1.1-6M83.5,103.35l-.4-.35a8.75,8.75,0,0,1-2.7-6.1V95.5a76,76,0,0,1,2-19l.15-.6a24.11,24.11,0,0,1,2.45-6.35q2-3.3,4.55-3c1.73-.17,3.27.87,4.6,3.1a26.43,26.43,0,0,1,2.45,6.3l.15.5a79,79,0,0,1,2,19.1v1.4a8.83,8.83,0,0,1-2.65,6.1l-.3.3A10.43,10.43,0,0,1,94,104.6v.45a4.07,4.07,0,0,1-1.2,3l-.15.15a4.07,4.07,0,0,1-3,1.2H89.6a4.27,4.27,0,0,1-4.35-4.35v-.45a11.08,11.08,0,0,1-1.75-1.25"/><path class="cls-10" d="M84.2,77.6l.3-1.2.55-1.75q1.65-5.4,3.9-6.05l.65-.1.65.1q2.25.65,4,6.05l.5,1.75.3,1.2-.3.1-.2.1-1,.2L92,78.25l-2.4.1-2.35-.1-1.45-.2-1-.25-.25-.1-.3-.1m11.9,6,.25,2.25L96.6,89a4.25,4.25,0,0,1-1.9,2l-1.15.6L92,92l-2.4.25L87.25,92l-1.45-.4-1.3-.65a4.25,4.25,0,0,1-1.9-2l.25-3.1.25-2.25.1.05,1.3.85,1.3.5,1.45.35,2.35.2,2.4-.2L93.55,85l1.15-.5,1.35-.85,0-.05m.7,10.9v2.3a6.89,6.89,0,0,1-2.1,4.75l-1.15,1L92,103.3l-2.4.35-2.35-.35-1.45-.7-1.3-1a6.89,6.89,0,0,1-2.1-4.75V94.5a4.92,4.92,0,0,0,2.1,3.75l1.3.85,1.45.55,2.35.3,2.4-.3,1.55-.6,1.15-.8a4.92,4.92,0,0,0,2.1-3.75"/><path class="cls-20" d="M96.8,94.5a4.92,4.92,0,0,1-2.1,3.75l-1.15.8-1.55.6-2.4.3-2.35-.3L85.8,99.1l-1.3-.85a4.92,4.92,0,0,1-2.1-3.75v-.7L82.6,89a4.25,4.25,0,0,0,1.9,2l1.3.65,1.45.4,2.35.25L92,92l1.55-.45,1.15-.6a4.25,4.25,0,0,0,1.9-2l.2,4.85v.7M95,77.6l1.1,6,0,.05-1.35.85-1.15.5L92,85.35l-2.4.2-2.35-.2L85.8,85l-1.3-.5-1.3-.85-.1-.05,1.1-6,.3.1.25.1,1,.25,1.45.2,2.35.1,2.4-.1L93.55,78l1-.2.2-.1.3-.1"/><path class="cls-8" d="M95.85,103.3l.7.3q2.81,1.5,2.8,3.6t-2.8,3.55a16.16,16.16,0,0,1-13.6,0q-2.81-1.45-2.8-3.55t2.8-3.6l.55-.25a11.08,11.08,0,0,0,1.75,1.25v.45a4.27,4.27,0,0,0,4.35,4.35h.05a4.07,4.07,0,0,0,3-1.2l.15-.15a4.07,4.07,0,0,0,1.2-3v-.45a10.43,10.43,0,0,0,1.85-1.3"/><path class="cls-11" d="M92,103.3v1.75a2.39,2.39,0,0,1-2.35,2.35H89.6a2.3,2.3,0,0,1-1.7-.7,2.24,2.24,0,0,1-.65-1.65V103.3l2.35.35,2.4-.35"/></g></g></svg>