<svg xmlns="http://www.w3.org/2000/svg" xmlns:xlink="http://www.w3.org/1999/xlink" viewBox="0 0 120 140"><defs><style>.cls-1{fill:url(#linear-gradient);}.cls-2{fill:#27ae60;}.cls-3{fill:url(#linear-gradient-2);}.cls-4{fill:url(#linear-gradient-3);}.cls-5{fill:url(#linear-gradient-4);}.cls-6{fill:url(#linear-gradient-5);}.cls-7{fill:url(#linear-gradient-6);}.cls-8{fill:url(#linear-gradient-7);}.cls-9{fill:url(#linear-gradient-8);}.cls-10{fill:url(#linear-gradient-9);}.cls-11{fill:url(#linear-gradient-10);}.cls-12{fill:url(#linear-gradient-11);}.cls-13{fill:url(#linear-gradient-12);}.cls-14{fill:url(#linear-gradient-13);}.cls-15{fill:url(#linear-gradient-14);}.cls-16{fill:url(#linear-gradient-15);}.cls-17{fill:#115f32;}.cls-18{fill:#10773c;}.cls-19{fill:#168344;}.cls-20{fill:#1b914d;}.cls-21{fill:#99a3a3;}.cls-22{fill:#bb6444;}.cls-23{fill:#727979;}.cls-24{fill:#6d3a27;}.cls-25{fill:#e27952;}.cls-26{fill:#985137;}.cls-27{fill:#d4714d;}.cls-28{fill:#b9c6c6;}.cls-29{fill:#aa5b3e;}.cls-30{fill:#c9d7d7;}.cls-31{fill:#f5f7de;}.cls-32{fill:#d9cbaa;}.cls-33{fill:#bbaf92;}.cls-34{fill:#726a59;}.cls-35{fill:#f7e7c1;}.cls-36{fill:#d5e5e5;}.cls-37{fill:#919191;}</style><linearGradient id="linear-gradient" x1="-2249.2" y1="30.38" x2="-610.8" y2="30.38" gradientTransform="matrix(0, 0, 0, 0, 89.67, 24.65)" gradientUnits="userSpaceOnUse"><stop offset="0" stop-color="#27ae60"/><stop offset="1" stop-color="#30c26d"/></linearGradient><linearGradient id="linear-gradient-2" x1="-2249.2" y1="49.53" x2="-610.8" y2="49.53" gradientTransform="matrix(0, 0, 0, 0, 10.7, 42.68)" xlink:href="#linear-gradient"/><linearGradient id="linear-gradient-3" x1="-2249.2" y1="26.2" x2="-610.8" y2="26.2" gradientTransform="matrix(0, 0, 0, 0, 55.67, 20.5)" xlink:href="#linear-gradient"/><linearGradient id="linear-gradient-4" x1="-2249.2" y1="37.67" x2="-610.8" y2="37.67" gradientTransform="matrix(0, 0, 0, 0, 44.2, 30.67)" xlink:href="#linear-gradient"/><linearGradient id="linear-gradient-5" x1="-2249.2" y1="48.03" x2="-610.8" y2="48.03" gradientTransform="matrix(0, 0, 0, 0, 59.35, 41.18)" xlink:href="#linear-gradient"/><linearGradient id="linear-gradient-6" x1="-2249.2" y1="54.17" x2="-610.8" y2="54.17" gradientTransform="matrix(0, 0, 0, 0, 36.77, 48.45)" xlink:href="#linear-gradient"/><linearGradient id="linear-gradient-7" x1="-2249.2" y1="89.17" x2="-610.8" y2="89.17" gradientTransform="matrix(0, 0, 0, 0, 69.27, 83.45)" xlink:href="#linear-gradient"/><linearGradient id="linear-gradient-8" x1="-2249.2" y1="62.42" x2="-610.8" y2="62.42" gradientTransform="matrix(0, 0, 0, 0, 24.32, 56.7)" xlink:href="#linear-gradient"/><linearGradient id="linear-gradient-9" x1="-2249.2" y1="102.17" x2="-610.8" y2="102.17" gradientTransform="matrix(0, 0, 0, 0, 12.95, 95.33)" xlink:href="#linear-gradient"/><linearGradient id="linear-gradient-10" x1="-2249.2" y1="106.58" x2="-610.8" y2="106.58" gradientTransform="matrix(0, 0, 0, 0, 55.2, 99.73)" xlink:href="#linear-gradient"/><linearGradient id="linear-gradient-11" x1="-2249.2" y1="119.17" x2="-610.8" y2="119.17" gradientTransform="matrix(0, 0, 0, 0, 56.67, 113.45)" xlink:href="#linear-gradient"/><linearGradient id="linear-gradient-12" x1="-2249.2" y1="121.33" x2="-610.8" y2="121.33" gradientTransform="matrix(0, 0, 0, 0, 70.8, 114.48)" xlink:href="#linear-gradient"/><linearGradient id="linear-gradient-13" x1="-2249.2" y1="116.92" x2="-610.8" y2="116.92" gradientTransform="matrix(0, 0, 0, 0, 43.2, 110.08)" xlink:href="#linear-gradient"/><linearGradient id="linear-gradient-14" x1="-2249.2" y1="81.92" x2="-610.8" y2="81.92" gradientTransform="matrix(0, 0, 0, 0, 82.77, 76.2)" xlink:href="#linear-gradient"/><linearGradient id="linear-gradient-15" x1="-2249.2" y1="98.08" x2="-610.8" y2="98.08" gradientTransform="matrix(0, 0, 0, 0, 105.17, 92.36)" xlink:href="#linear-gradient"/></defs><title>Asset 157</title><g id="Layer_2" data-name="Layer 2"><g id="Layer_1-2" data-name="Layer 1"><path class="cls-1" d="M88.5,30.25V30.2a.3.3,0,0,1,.25-.15h.35l1.35.55,1-3.15.15-.25.3-.1.25.1.15.25.85,4.15,1.25-.4h.3l.25.2v.45l-.7,1.8H89.4l-1-3,0-.35"/><path class="cls-2" d="M88.5,30.25l0,.35,1,3h4.85l.7-1.8V31.4l-.25-.2h-.3l-1.25.4-.85-4.15-.15-.25-.25-.1-.3.1-.15.25-1,3.15-1.35-.55h-.35a.3.3,0,0,0-.25.15v.05M11.6,45.55l-.25,0-.25.15-.1.25-.35,3.5L9,49.75l-.25.1,0,.1-.05.2v.25h.05l1.45,3.15h6l1.6-1,.15-.15,0-.15,0-.3-.3-.25-1.5-.4,1.2-3.15v-.35l-.05,0-.2-.2h-.35l-2.8,1-2-2.85a.3.3,0,0,0-.25-.15m45.65-22.5-.15.25-.8,4.1L55.05,27l-.3.05-.25.2v.45l.7,1.8h4.85l.9-3.1v-.35l-.25-.2h-.35L59,26.4l-1-3.15L57.85,23l-.3-.1-.3.15M43,35.65l-.2.2,0,0v.35L44,39.35l-1.55.45-.25.2-.1.35.1.1.1.15,1.6,1.1h6l1.45-3.15.05,0,0-.25-.1-.15,0-.1L51,37.85l-1.65-.3-.4-3.5-.1-.25-.25-.15h-.25l-.25.15-2,2.85-2.85-1H43M57.25,48.9h0l1.45,3.15h6l1.6-1,.15-.15,0-.15,0-.3-.3-.25-1.5-.4,1.2-3.15v-.35l-.05,0-.2-.2H65.3l-2.8,1-2-2.85-.25-.15L60,44l-.25.15-.1.25-.35,3.5-1.7.35-.25.1-.05.1,0,.2v.25M60,0l60,35v70L60,140,0,105V35L60,0M38.7,51a.3.3,0,0,0-.15.25l-1,3.15-1.35-.55h-.35L35.6,54v0l-.05.35,1,3.05h4.85l.7-1.8V55.2L41.8,55h-.3l-1.25.4-.85-4.15L39.25,51,39,50.9l-.3.1M71.2,86l-.15.25-1,3.15-1.35-.55h-.35a.3.3,0,0,0-.25.15v0l0,.35,1,3h4.85l.7-1.8V90.2L74.3,90H74l-1.25.4-.85-4.15L71.75,86l-.25-.1-.3.1M26.1,59.5l-1,3.15-1.35-.55H23.4l-.25.15v0l0,.35.95,3.05H28.9l.7-1.8v-.45l-.25-.2h-.3l-1.25.4L27,59.5l-.15-.25-.25-.1-.3.1-.15.25M13.6,98.15l-.25.15-.1.25-.35,3.5-1.7.35-.25.1,0,.1-.05.2v.25h.05l1.45,3.15h6l1.6-1,.15-.15,0-.15,0-.3-.3-.25-1.5-.4,1.2-3.15v-.35l-.05-.05-.2-.2H18.9l-2.8,1-2-2.85a.3.3,0,0,0-.25-.15l-.25,0m47.9,6.4h-.35l-2.8,1-2-2.85a.3.3,0,0,0-.25-.15l-.25,0-.25.15-.1.25-.35,3.5-1.7.35-.25.1-.05.1,0,.2v.25h0l1.45,3.15h6l1.6-1,.15-.15,0-.15,0-.3-.3-.25-1.5-.4,1.2-3.15v-.35l0,0-.2-.2m-3,11.7-1,3.15-1.35-.55h-.35a.3.3,0,0,0-.25.15v0l0,.35.95,3h4.85l.7-1.8v-.45l-.25-.2h-.3l-1.25.4-.85-4.15-.15-.25-.25-.1-.3.1-.15.25m13,1-.25.15-.1.25-.35,3.5-1.7.35-.25.1,0,.1,0,.2v.25h0l1.45,3.15h6l1.6-1,.15-.15,0-.15,0-.3-.3-.25-1.5-.4,1.2-3.15v-.35l0,0-.2-.2h-.35l-2.8,1-2-2.85-.25-.15-.25,0m-30-.15-.25.1-.05.1,0,.2v.25h0L42.6,121h6l1.6-1,.15-.15,0-.15,0-.3-.3-.25-1.5-.4,1.2-3.15v-.35l0-.05-.2-.2h-.35l-2.8,1-2-2.85a.3.3,0,0,0-.25-.15l-.25,0-.25.15-.1.25-.35,3.5-1.7.35M84.55,79l-1,3.15L82.2,81.6h-.35a.3.3,0,0,0-.25.15v0l0,.35,1,3h4.85l.7-1.8V83l-.25-.2h-.3l-1.25.4L85.4,79l-.15-.25-.25-.1-.3.1-.15.25M107.1,94.9a.3.3,0,0,0-.15.25l-1,3.15-1.35-.55h-.35l-.25.15v0l0,.35,1,3h4.85l.7-1.8V99.1l-.25-.2h-.3l-1.25.4-.85-4.15-.15-.25-.25-.1-.3.1"/><path class="cls-3" d="M11.6,45.55a.3.3,0,0,1,.25.15l2,2.85,2.8-1H17l.2.2.05,0v.35l-1.2,3.15,1.5.4.3.25,0,.3,0,.15-.15.15-1.6,1h-6L8.65,50.4H8.6v-.25l.05-.2,0-.1.25-.1,1.7-.35L11,45.9l.1-.25.25-.15.25,0"/><path class="cls-4" d="M57.25,23.05l.3-.15.3.1.15.25,1,3.15,1.4-.55h.35l.25.2v.35l-.9,3.1H55.2l-.7-1.8v-.45l.25-.2.3-.05,1.25.4.8-4.1.15-.25"/><path class="cls-5" d="M43,35.65h.35l2.85,1,2-2.85.25-.15h.25l.25.15.1.25.4,3.5,1.65.3.25.15,0,.1.1.15,0,.25-.05,0L49.85,41.7h-6l-1.6-1.1-.1-.15-.1-.1.1-.35.25-.2L44,39.35l-1.25-3.1V35.9l0,0,.2-.2"/><path class="cls-6" d="M57.25,48.9v-.25l0-.2.05-.1.25-.1,1.7-.35.35-3.5.1-.25L60,44l.25,0,.25.15,2,2.85,2.8-1h.35l.2.2.05,0v.35l-1.2,3.15,1.5.4.3.25,0,.3,0,.15-.15.15-1.6,1h-6L57.3,48.9h0"/><path class="cls-7" d="M38.7,51l.3-.1.25.1.15.25.85,4.15L41.5,55h.3l.25.2v.45l-.7,1.8H36.5l-1-3.05.05-.35v0l.25-.15h.35l1.35.55,1-3.15A.3.3,0,0,1,38.7,51"/><path class="cls-8" d="M71.2,86l.3-.1.25.1.15.25.85,4.15L74,90h.3l.25.2v.45l-.7,1.8H69l-1-3,0-.35v0a.3.3,0,0,1,.25-.15h.35l1.35.55,1-3.15L71.2,86"/><path class="cls-9" d="M26.1,59.5l.15-.25.3-.1.25.1.15.25.85,4.15,1.25-.4h.3l.25.2v.45l-.7,1.8H24.05l-.95-3.05,0-.35v0l.25-.15h.35l1.35.55,1-3.15"/><path class="cls-10" d="M13.6,98.15l.25,0a.3.3,0,0,1,.25.15l2,2.85,2.8-1h.35l.2.2.05.05v.35l-1.2,3.15,1.5.4.3.25,0,.3,0,.15-.15.15-1.6,1h-6l-1.45-3.15h-.05v-.25l.05-.2,0-.1.25-.1,1.7-.35.35-3.5.1-.25.25-.15"/><path class="cls-11" d="M61.5,104.55l.2.2,0,0v.35l-1.2,3.15,1.5.4.3.25,0,.3,0,.15-.15.15-1.6,1h-6l-1.45-3.15h0v-.25l0-.2.05-.1.25-.1,1.7-.35.35-3.5.1-.25.25-.15.25,0a.3.3,0,0,1,.25.15l2,2.85,2.8-1h.35"/><path class="cls-12" d="M58.45,116.25l.15-.25.3-.1.25.1.15.25.85,4.15,1.25-.4h.3l.25.2v.45l-.7,1.8H56.4l-.95-3,0-.35v0a.3.3,0,0,1,.25-.15h.35l1.35.55,1-3.15"/><path class="cls-13" d="M71.45,117.3l.25,0,.25.15,2,2.85,2.8-1h.35l.2.2,0,0v.35l-1.2,3.15,1.5.4.3.25,0,.3,0,.15-.15.15-1.6,1h-6l-1.45-3.15h0V122l0-.2,0-.1.25-.1,1.7-.35.35-3.5.1-.25.25-.15"/><path class="cls-14" d="M41.45,117.15l1.7-.35.35-3.5.1-.25.25-.15.25,0a.3.3,0,0,1,.25.15l2,2.85,2.8-1h.35l.2.2,0,.05v.35l-1.2,3.15,1.5.4.3.25,0,.3,0,.15-.15.15-1.6,1h-6l-1.45-3.15h0v-.25l0-.2.05-.1.25-.1"/><path class="cls-15" d="M84.55,79l.15-.25.3-.1.25.1.15.25.85,4.15,1.25-.4h.3l.25.2v.45l-.7,1.8H82.5l-1-3,0-.35v0a.3.3,0,0,1,.25-.15h.35l1.35.55,1-3.15"/><path class="cls-16" d="M107.1,94.9l.3-.1.25.1.15.25.85,4.15,1.25-.4h.3l.25.2v.45l-.7,1.8H104.9l-1-3,0-.35v0l.25-.15h.35l1.35.55,1-3.15a.3.3,0,0,1,.15-.25"/><path class="cls-17" d="M29.5,22.55,31,22.5a2,2,0,0,1,1.15,1.05l9.1,19.75.15,1.05-.4.95-.4.4,1.2,3.2a1.85,1.85,0,0,1,0,1.35l2.3,2.8a2,2,0,0,1,.45,1.15,2.07,2.07,0,0,1-.3,1.2l-1,.75-14.1,5.6-1.3.1a2,2,0,0,1-1-.8l-6.8-9.6a1.77,1.77,0,0,1-.4-1.15A2,2,0,0,1,20,49.15L21.5,47l-1.1-1.6a1.73,1.73,0,0,1-.4-1.25,1.92,1.92,0,0,1,.5-1.2l1.95-2.2-.2-.7a1.54,1.54,0,0,1,.1-.95l6.1-15.45a1.82,1.82,0,0,1,1.05-1.1M24,47l-2.3,3.3,6.8,9.6,1.5-.55-.05-.05,12.65-5L39,50l.95-.35-1.85-5-.4.15,1.75-.7L30.3,24.35,24.2,39.8,25,40.85l.25.3h-.05l-.2-.3L22,44.25,24,47"/><path class="cls-18" d="M24,47,22,44.25,25,40.85l.2.3h.05l4.35,6.15v.05L28.9,53.9,24,47"/><path class="cls-19" d="M24,47l4.95,6.9.65-6.55V47.3L25.2,41.15l-.25-.3L24.2,39.8l6.1-15.45-.4,23.5,7.75-3.05.4-.15,1.85,5L39,50l-9.7,3.8-.8,6.15-6.8-9.6L24,47"/><path class="cls-20" d="M28.45,59.9l.8-6.15L39,50l3.6,4.35-12.65,5,.05.05-1.5.55m9.2-15.1L29.9,47.85l.4-23.5L39.4,44.1l-1.75.7"/><path class="cls-17" d="M18.45,58.6l4.8-6.75-1.6-2.3L23,47.6,21,45.2l.5-.75L17.15,33.6l-6.4,13.9L12,48l-.3-.1-1.3,3.45.65.25-2.5,3.1,8.9,3.5-.05,0,1.05.35M9,46.7l6.4-13.9a1.81,1.81,0,0,1,1.1-1l1.5.05A1.82,1.82,0,0,1,19,32.9l4.3,10.85.15.9L23.4,45l1.15,1.3A2,2,0,0,1,25,47.5l-.35,1.25-.55.8.8,1.15a2,2,0,0,1,.35,1.15L24.9,53l-4.8,6.75-1,.75a2.05,2.05,0,0,1-1.25,0l-1.05-.35-.6-.3-8.35-3.3a2.16,2.16,0,0,1-.95-.75,1.77,1.77,0,0,1-.35-1.2A2,2,0,0,1,7,53.45L8.45,51.7a1.87,1.87,0,0,1,.1-1.05l.7-1.85-.1-.1a1.84,1.84,0,0,1-.4-1,1.91,1.91,0,0,1,.2-1m11.8-1.3.2-.2-.15.2h-.05"/><path class="cls-20" d="M20.75,45.4,17.7,49.75v0l.45,4.6,3.5-4.85,1.6,2.3-4.8,6.75-.55-4.3-6.85-2.7-.65-.25,1.3-3.45.3.1,5.45,2.15-.3-16.55,4.3,10.85-.5.75-.2.2"/><path class="cls-19" d="M12,48l-1.25-.5,6.4-13.9.3,16.55L12,48m9-2.8L23,47.6l-1.35,1.95-3.5,4.85-.45-4.6v0l3.05-4.35h.05l.15-.2m-2.5,13.4-1.05-.35.05,0-8.9-3.5,2.5-3.1,6.85,2.7.55,4.3"/><path class="cls-21" d="M81.6,47.05l.05,0,6.55-8.15V50.1l4.45,2V67.4l-11.1,13V65.2L87.2,49.6l-2.6-1.2-.75-.35-2.25-1M59.45,42.2v9l-9.7,11.45v-9l9.7-11.45m-.4,31.2L70.35,60V75.25L59.05,88.6V73.4M46.7,31.85,45.55,23.6l1.85,2.5,2.35,3.1-3,2.65M35.8,77.75v-8.3l9,3.9V82l-9-4.2"/><path class="cls-22" d="M88.2,38.85,81.65,47l-.05,0-18.8-8.8L70.35,60,59.05,73.4l-9.3-10.75,9.7-11.45v-9l-3.9-8.05L69.7,17.4,88.15,38.75l0,0v.05M49.75,53.65l-3-21.8,3-2.65,4.7,6.3,5,6.7-9.7,11.45M70.2,31.55l-3.3,3.9,3.5,4,3.2-4-3.4-3.95m-.5-2.4,2.65,3.05,2.45-3-2.6-3-2.5,2.95"/><path class="cls-23" d="M81.55,80.45l11.1-13V52.15l-4.45-2V38.8l1.25-1.6.25.25.25.4,0,.1.2.9v10l3.3,1.5.85.75.3,1V67.4a2,2,0,0,1-.45,1.3l-11.1,13a2.11,2.11,0,0,1-1.1.65l-1.3-.1-9.8-4.55L60.6,89.9a2.11,2.11,0,0,1-1.1.65l-1.3-.15L21.15,73.1l-.8-.7A1.89,1.89,0,0,1,20,71.3V56.5l2-.45V71.3l13.8,6.45,9,4.2L59.05,88.6l11.3-13.35,11.2,5.2"/><path class="cls-24" d="M88.2,38.8l0,0L69.7,17.4,51.25,21.5,47.4,26.1l-1.85-2.5L41.7,29.4,31.2,45l-9.15,11H22l-2,.45v-.45a1.82,1.82,0,0,1,.5-1.25l9.05-10.9L43.9,22.5a1.73,1.73,0,0,1,1-.75l1.25-.05a1.73,1.73,0,0,1,1,.7l.35.5,2.25-2.65a1.75,1.75,0,0,1,1.1-.7l18.45-4.1,1,.05.9.6,18.2,21.1L88.2,38.8"/><path class="cls-25" d="M81.6,47.05l2.25,1,.75.35,2.6,1.2L81.55,65.2,70.35,60,62.8,38.25l18.8,8.8M41.7,29.4l5,2.45,3,21.8L36.5,47.55l-.9-.4L31.2,45,41.7,29.4m-3,9.15-3.4,5,3.05,1.5L41.3,40l-2.6-1.4"/><path class="cls-26" d="M69.7,17.4,55.55,34.15l-1.1,1.35-4.7-6.3L47.4,26.1l3.85-4.6L69.7,17.4M31.2,45v9l-9.15,2L31.2,45"/><path class="cls-27" d="M38.7,38.55,41.3,40l-2.95,5.1-3.05-1.5,3.4-5"/><path class="cls-28" d="M81.55,65.2V80.45l-11.2-5.2V60l11.2,5.2m-31.8-2.55,9.3,10.75V88.6L44.8,82v-8.6l-9-3.9v8.3L22,71.3V56.05h.05l9.15-2V45l4.4,2.15.9.4,13.25,6.1v9m-3-30.8-5-2.45,3.85-5.8,1.15,8.25M53.4,71.6a3.4,3.4,0,0,0-1.5-1.3,1.71,1.71,0,0,0-1.5,0,1.35,1.35,0,0,0-.6,1.15l0,0v8.3l4.25,2V73.35h0a3.31,3.31,0,0,0-.65-1.75M45,59.4a6.53,6.53,0,0,0-1.35-3.8,7.22,7.22,0,0,0-3.15-2.75,3.4,3.4,0,0,0-3.2,0,2.9,2.9,0,0,0-1.3,2.7,6.84,6.84,0,0,0,1.3,3.8,7.56,7.56,0,0,0,3.2,2.75,3.48,3.48,0,0,0,3.15,0A3,3,0,0,0,45,59.4M27,61l-.05-.05v8.3l4.25,2V62.85h.05a3.31,3.31,0,0,0-.65-1.75,3.4,3.4,0,0,0-1.5-1.3,1.71,1.71,0,0,0-1.5,0A1.35,1.35,0,0,0,27,61"/><path class="cls-29" d="M55.55,34.15l3.9,8.05-5-6.7,1.1-1.35m14.15-5,2.5-2.95,2.6,3-2.45,3L69.7,29.15m.5,2.4,3.4,3.95-3.2,4-3.5-4,3.3-3.9"/><path class="cls-30" d="M53.4,71.6a3.31,3.31,0,0,1,.65,1.75h0V81.7l-4.25-2V71.4l0,0a1.35,1.35,0,0,1,.6-1.15,1.71,1.71,0,0,1,1.5,0,3.4,3.4,0,0,1,1.5,1.3M27,61a1.35,1.35,0,0,1,.6-1.15,1.71,1.71,0,0,1,1.5,0,3.4,3.4,0,0,1,1.5,1.3,3.31,3.31,0,0,1,.65,1.75h-.05V71.2l-4.25-2V60.9L27,61"/><path class="cls-31" d="M45,59.4a3,3,0,0,1-1.35,2.7,3.48,3.48,0,0,1-3.15,0,7.56,7.56,0,0,1-3.2-2.75,6.84,6.84,0,0,1-1.3-3.8,2.9,2.9,0,0,1,1.3-2.7,3.4,3.4,0,0,1,3.2,0,7.22,7.22,0,0,1,3.15,2.75A6.53,6.53,0,0,1,45,59.4"/><path class="cls-32" d="M71.4,82.3V74.55L108.6,92.1l-4.7,5.35L71.4,82.3m-17.9,26v7.45l-10.8-5.1v-7.45l10.8,5.1m53.05-1.55-3-1.15V97.8c1,.5,2,1,3,1.45v7.45"/><path class="cls-33" d="M106.55,106.7V99.25l6.85-8V98.7l-6.85,8M71.4,74.55V82.3l-19.15,22L51,103.8l-3.2-1.55,23.6-27.7m-17.9,33.7,1.75-2.45v7.45L53.5,115.7v-7.45"/><path class="cls-34" d="M71,69.15l43.25,20.3.85.75.3,1V98.7A2,2,0,0,1,115,100l-6.85,8-1,.65-1.2-.05-3-1.15-.95-.75a2.15,2.15,0,0,1-.35-1.15v-7L71.9,84.75l-16.45,19,.65.3.85.75.3,1v7.45l-.35,1.2-1.75,2.45a2.19,2.19,0,0,1-1.15.75l-1.35-.15-10.8-5.1-.8-.7a1.89,1.89,0,0,1-.35-1.1v-7.45a1.89,1.89,0,0,1,.5-1.3l27.45-32.2a1.87,1.87,0,0,1,1.1-.65l1.25.15m.4,13.15,32.5,15.15-.35.35v7.75l3,1.15,6.85-8V91.25L70.15,71,42.7,103.15v7.45l10.8,5.1,1.75-2.45V105.8l-4.25-2,1.25.55,19.15-22"/><path class="cls-35" d="M103.9,97.45l4.7-5.35L71.4,74.55l-23.6,27.7L51,103.8l4.25,2-1.75,2.45-10.8-5.1L70.15,71l43.25,20.3-6.85,8c-1-.47-2-1-3-1.45l.35-.35"/><path class="cls-23" d="M88.45,89.2l1.3.15,6.75,3,.9.7.3,1.1v8.3a2.07,2.07,0,0,1-.5,1.35l-1.35,1.5-1.1.6-1.25-.1-6.6-3-.8-.75a1.89,1.89,0,0,1-.35-1.1V92.7a1.72,1.72,0,0,1,.45-1.2L87.4,90a1.71,1.71,0,0,1,1-.75m7.25,5-6.75-3-1.2,1.55v8.2l6.6,3,1.35-1.5v-8.3"/><path class="cls-36" d="M95.7,94.15,94.35,95.7l-6.6-3L89,91.15l6.75,3"/><path class="cls-21" d="M95.7,94.15v8.3L94.35,104V95.7l1.35-1.55"/><path class="cls-28" d="M94.35,104l-6.6-3V92.7l6.6,3V104"/><path class="cls-23" d="M71.85,86l-.6.75v7.45l6.6,3,1.35-1.55v-6.8a5.14,5.14,0,0,0-3.75-4.2c-1.47-.53-2.48-.38-3,.45l-.55.85m-2.2-.4L70.8,84q1.4-2.55,5.25-1.2l.1,0a7,7,0,0,1,5,5.7v7.15A2.07,2.07,0,0,1,80.7,97l-1.35,1.55-1,.6-1.3-.1-6.6-3-.8-.75a1.89,1.89,0,0,1-.35-1.1V86.7a1.77,1.77,0,0,1,.4-1.15"/><path class="cls-36" d="M71.85,86l.55-.85c.57-.83,1.58-1,3-.45a5.14,5.14,0,0,1,3.75,4.2L77.85,90.4a5.33,5.33,0,0,0-3.75-4.25L71.85,86"/><path class="cls-28" d="M71.85,86l2.25.2a5.33,5.33,0,0,1,3.75,4.25v6.8l-6.6-3V86.7l.6-.75"/><path class="cls-21" d="M79.2,88.85v6.8L77.85,97.2V90.4l1.35-1.55"/><path class="cls-36" d="M88.9,108.55l-1.2,1.2-6.35-4,1.1-1.2,6.45,4"/><path class="cls-21" d="M88.9,108.55l-1.15,3.25v0l-1.25,3.6L85.2,117l2-5.35.45-1.85,1.2-1.2"/><path class="cls-23" d="M88.9,108.55l-6.45-4-1.1,1.2-3,8.2,6.9,3,1.3-1.5,1.25-3.6v0l1.15-3.25m1.1-1.7.8,1.05a2.38,2.38,0,0,1,0,1.35l-1,3-.1.3-1.25,3.6-.4.65-1.3,1.5a2.09,2.09,0,0,1-1,.65l-1.25-.1-6.9-3a2,2,0,0,1-1-1,2,2,0,0,1,0-1.5l3-8.2.4-.65,1.1-1.2a1.6,1.6,0,0,1,1.2-.6l1.35.25,6.45,4"/><path class="cls-37" d="M87.7,109.75l-.45,1.85-2,5.35,2.5-7.2"/><path class="cls-28" d="M87.7,109.75,85.2,117l-6.9-3,3-8.2,6.35,4"/><path class="cls-17" d="M100,48.8a1.82,1.82,0,0,1,1,1.1l4.3,10.85.15.9,0,.35,1.15,1.3a2,2,0,0,1,.45,1.2l-.35,1.25-.55.8.8,1.15a2.06,2.06,0,0,1,0,2.3l-4.8,6.75-1,.75a2.05,2.05,0,0,1-1.25,0l-1-.35-.6-.3-8.35-3.3-.95-.75a1.77,1.77,0,0,1-.35-1.2A2,2,0,0,1,89,70.45l1.45-1.75a1.87,1.87,0,0,1,.1-1l.7-1.85-.1-.1a1.84,1.84,0,0,1-.4-1,1.91,1.91,0,0,1,.2-1l6.4-13.9a1.81,1.81,0,0,1,1.1-1l1.5,0m3.7,17.75,1.35-2-2-2.4-.15.2h0l.2-.2.5-.75L99.15,50.6l-6.4,13.9L94,65l-.3-.1-1.3,3.45.65.25-2.5,3.1,8.9,3.5,0,0,1,.35,4.8-6.75-1.6-2.3"/><path class="cls-20" d="M103.65,66.55l1.6,2.3-4.8,6.75-.55-4.3-6.85-2.7-.65-.25,1.3-3.45.3.1,5.45,2.15-.3-16.55,4.3,10.85-.5.75-.2.2-3,4.35v0l.45,4.6,3.5-4.85"/><path class="cls-19" d="M103.65,66.55l-3.5,4.85-.45-4.6v0l3-4.35h0l.15-.2,2,2.4-1.35,2M99.15,50.6l.3,16.55L94,65l-1.25-.5,6.4-13.9m-6.1,18,6.85,2.7.55,4.3-1-.35,0,0-8.9-3.5,2.5-3.1"/></g></g></svg>