<svg xmlns="http://www.w3.org/2000/svg" xmlns:xlink="http://www.w3.org/1999/xlink" viewBox="0 0 120 140"><defs><style>.cls-1{fill:#27ae60;}.cls-2{fill:url(#linear-gradient);}.cls-3{fill:url(#linear-gradient-2);}.cls-4{fill:url(#linear-gradient-3);}.cls-5{fill:url(#linear-gradient-4);}.cls-6{fill:url(#linear-gradient-5);}.cls-7{fill:url(#linear-gradient-6);}.cls-8{fill:url(#linear-gradient-7);}.cls-9{fill:url(#linear-gradient-8);}.cls-10{fill:url(#linear-gradient-9);}.cls-11{fill:url(#linear-gradient-10);}.cls-12{fill:url(#linear-gradient-11);}.cls-13{fill:url(#linear-gradient-12);}.cls-14{fill:url(#linear-gradient-13);}.cls-15{fill:url(#linear-gradient-14);}.cls-16{fill:url(#linear-gradient-15);}.cls-17{fill:#a4afaf;}.cls-18{fill:#115f32;}.cls-19{fill:#1b914d;}.cls-20{fill:#198a49;}.cls-21{fill-opacity:0.1;}.cls-22{fill:#bb8044;}.cls-23{fill:#0e4f29;}.cls-24{fill:#706e6c;}.cls-25{fill:#14723c;}.cls-26{fill:#105f32;}.cls-27{fill:#178044;}.cls-28{fill:#e2dfdc;}.cls-29{fill:#b4b1ae;}.cls-30{fill:#c4f0ff;}.cls-31{fill:#ecf9ff;}.cls-32{fill:#d7f4ff;}.cls-33{fill:#775029;}.cls-34{fill:#855b30;}.cls-35{fill:#a8733d;}</style><linearGradient id="linear-gradient" x1="-2509.2" y1="26.2" x2="-870.8" y2="26.2" gradientTransform="matrix(0, 0, 0, 0, 56.27, 19.47)" gradientUnits="userSpaceOnUse"><stop offset="0" stop-color="#27ae60"/><stop offset="1" stop-color="#30c26d"/></linearGradient><linearGradient id="linear-gradient-2" x1="-2509.2" y1="48.03" x2="-870.8" y2="48.03" gradientTransform="matrix(0, 0, 0, 0, 60.09, 39.93)" xlink:href="#linear-gradient"/><linearGradient id="linear-gradient-3" x1="-2509.2" y1="30.38" x2="-870.8" y2="30.38" gradientTransform="matrix(0, 0, 0, 0, 90.27, 23.62)" xlink:href="#linear-gradient"/><linearGradient id="linear-gradient-4" x1="-2509.2" y1="89.17" x2="-870.8" y2="89.17" gradientTransform="matrix(0, 0, 0, 0, 69.87, 82.42)" xlink:href="#linear-gradient"/><linearGradient id="linear-gradient-5" x1="-2509.2" y1="81.92" x2="-870.8" y2="81.92" gradientTransform="matrix(0, 0, 0, 0, 83.37, 75.17)" xlink:href="#linear-gradient"/><linearGradient id="linear-gradient-6" x1="-2509.2" y1="98.08" x2="-870.8" y2="98.08" gradientTransform="matrix(0, 0, 0, 0, 105.77, 91.32)" xlink:href="#linear-gradient"/><linearGradient id="linear-gradient-7" x1="-2509.2" y1="121.33" x2="-870.8" y2="121.33" gradientTransform="matrix(0, 0, 0, 0, 71.54, 113.23)" xlink:href="#linear-gradient"/><linearGradient id="linear-gradient-8" x1="-2509.2" y1="106.58" x2="-870.8" y2="106.58" gradientTransform="matrix(0, 0, 0, 0, 55.94, 98.48)" xlink:href="#linear-gradient"/><linearGradient id="linear-gradient-9" x1="-2509.2" y1="119.17" x2="-870.8" y2="119.17" gradientTransform="matrix(0, 0, 0, 0, 57.27, 112.42)" xlink:href="#linear-gradient"/><linearGradient id="linear-gradient-10" x1="-2509.2" y1="49.53" x2="-870.8" y2="49.53" gradientTransform="matrix(0, 0, 0, 0, 11.44, 41.43)" xlink:href="#linear-gradient"/><linearGradient id="linear-gradient-11" x1="-2509.2" y1="37.67" x2="-870.8" y2="37.67" gradientTransform="matrix(0, 0, 0, 0, 44.94, 29.4)" xlink:href="#linear-gradient"/><linearGradient id="linear-gradient-12" x1="-2509.2" y1="102.17" x2="-870.8" y2="102.17" gradientTransform="matrix(0, 0, 0, 0, 13.69, 94.08)" xlink:href="#linear-gradient"/><linearGradient id="linear-gradient-13" x1="-2509.2" y1="54.17" x2="-870.8" y2="54.17" gradientTransform="matrix(0, 0, 0, 0, 37.37, 47.42)" xlink:href="#linear-gradient"/><linearGradient id="linear-gradient-14" x1="-2509.2" y1="62.42" x2="-870.8" y2="62.42" gradientTransform="matrix(0, 0, 0, 0, 24.92, 55.67)" xlink:href="#linear-gradient"/><linearGradient id="linear-gradient-15" x1="-2509.2" y1="116.92" x2="-870.8" y2="116.92" gradientTransform="matrix(0, 0, 0, 0, 43.94, 108.83)" xlink:href="#linear-gradient"/></defs><title>Asset 146</title><g id="Layer_2" data-name="Layer 2"><g id="Layer_1-2" data-name="Layer 1"><path class="cls-1" d="M58,23.25,57.85,23l-.3-.1-.3.15-.15.25-.8,4.1L55.05,27l-.3.05-.25.2v.45l.7,1.8h4.85l.9-3.1v-.35l-.25-.2h-.35L59,26.4l-1-3.15m2.25,20.8L60,44l-.25.15-.1.25-.35,3.5-1.7.35-.25.1-.05.1,0,.2v.25h0l1.45,3.15h6l1.6-1,.15-.15,0-.15,0-.3-.3-.25-1.5-.4,1.2-3.15v-.35l-.05,0-.2-.2H65.3l-2.8,1-2-2.85-.25-.15M91.6,27.2a.3.3,0,0,0-.15.25l-1,3.15-1.35-.55h-.35a.3.3,0,0,0-.25.15v.05a.42.42,0,0,0,0,.35l1,3h4.85l.7-1.8V31.4l-.25-.2h-.3l-1.25.4-.85-4.15-.15-.25-.25-.1-.3.1M71.2,86l-.15.25-1,3.15-1.35-.55h-.35a.3.3,0,0,0-.25.15v0a.42.42,0,0,0,0,.35l1,3h4.85l.7-1.8V90.2L74.3,90H74l-1.25.4-.85-4.15L71.75,86l-.25-.1-.3.1m16.3-3.25-1.25.4L85.4,79l-.15-.25-.25-.1-.3.1-.15.25-1,3.15L82.2,81.6h-.35a.3.3,0,0,0-.25.15v0a.42.42,0,0,0,0,.35l1,3h4.85l.7-1.8V83l-.25-.2h-.3M104,98a.42.42,0,0,0,0,.35l1,3h4.85l.7-1.8V99.1l-.25-.2h-.3l-1.25.4-.85-4.15-.15-.25-.25-.1-.3.1a.3.3,0,0,0-.15.25l-1,3.15-1.35-.55h-.35l-.25.15v0M120,35v70L60,140,0,105V35L60,0l60,35M77.1,119.3h-.35l-2.8,1-2-2.85-.25-.15-.25,0-.25.15-.1.25-.35,3.5-1.7.35-.25.1,0,.1,0,.2v.25h0l1.45,3.15h6l1.6-1,.15-.15,0-.15,0-.3-.3-.25-1.5-.4,1.2-3.15v-.35l0,0-.2-.2M61.75,105.15v-.35l0,0-.2-.2h-.35l-2.8,1-2-2.85a.3.3,0,0,0-.25-.15l-.25,0-.25.15-.1.25-.35,3.5-1.7.35-.25.1-.05.1,0,.2v.25h0l1.45,3.15h6l1.6-1,.15-.15,0-.15,0-.3-.3-.25-1.5-.4,1.2-3.15m-3.3,11.1-1,3.15-1.35-.55h-.35a.3.3,0,0,0-.25.15v0a.42.42,0,0,0,0,.35l.95,3h4.85l.7-1.8v-.45l-.25-.2h-.3l-1.25.4-.85-4.15-.15-.25-.25-.1-.3.1a.3.3,0,0,0-.15.25M17.25,48.1v-.35l-.05,0-.2-.2h-.35l-2.8,1-2-2.85-.25-.15-.25,0-.25.15-.1.25-.35,3.5L9,49.75l-.25.1,0,.1-.05.2v.25h.05l1.45,3.15h6l1.6-1,.15-.15,0-.15,0-.3-.3-.25-1.5-.4,1.2-3.15m31.1-14.45-.25.15-2,2.85-2.85-1H43l-.2.2,0,0v.35L44,39.35l-1.55.45-.25.2-.1.35.1.1.1.15,1.6,1.1h6l1.45-3.15.05,0,0-.25-.1-.15,0-.1L51,37.85l-1.65-.3-.4-3.5-.1-.25-.25-.15h-.25M14.1,98.35l-.25-.15-.25,0-.25.15-.1.25-.35,3.5-1.7.35-.25.1,0,.1-.05.2v.25h.05l1.45,3.15h6l1.6-1,.15-.15,0-.15,0-.3-.3-.25-1.5-.4,1.2-3.15v-.35l-.05-.05-.2-.2H18.9l-2.8,1-2-2.85M41.8,55h-.3l-1.25.4-.85-4.15L39.25,51,39,50.9l-.3.1a.3.3,0,0,0-.15.25l-1,3.15-1.35-.55h-.35L35.6,54v0a.42.42,0,0,0-.05.35l1,3.05h4.85l.7-1.8V55.2L41.8,55m-15,4.25-.25-.1-.3.1-.15.25-1,3.15-1.35-.55H23.4l-.25.15v0a.42.42,0,0,0,0,.35l.95,3.05H28.9l.7-1.8v-.45l-.25-.2h-.3l-1.25.4L27,59.5l-.15-.25M43.85,112.9l-.25.15-.1.25-.35,3.5-1.7.35-.25.1-.05.1,0,.2v.25h0L42.6,121h6l1.6-1,.15-.15,0-.15,0-.3-.3-.25-1.5-.4,1.2-3.15v-.35l0-.05-.2-.2h-.35l-2.8,1-2-2.85a.3.3,0,0,0-.25-.15l-.25,0"/><path class="cls-2" d="M58,23.25l1,3.15,1.4-.55h.35l.25.2v.35l-.9,3.1H55.2l-.7-1.8v-.45l.25-.2.3-.05,1.25.4.8-4.1.15-.25.3-.15.3.1.15.25"/><path class="cls-3" d="M60.25,44.05l.25.15,2,2.85,2.8-1h.35l.2.2.05,0v.35l-1.2,3.15,1.5.4.3.25,0,.3,0,.15-.15.15-1.6,1h-6L57.3,48.9h0v-.25l0-.2.05-.1.25-.1,1.7-.35.35-3.5.1-.25L60,44l.25,0"/><path class="cls-4" d="M91.6,27.2l.3-.1.25.1.15.25.85,4.15,1.25-.4h.3l.25.2v.45l-.7,1.8H89.4l-1-3a.42.42,0,0,1,0-.35V30.2a.3.3,0,0,1,.25-.15h.35l1.35.55,1-3.15a.3.3,0,0,1,.15-.25"/><path class="cls-5" d="M71.2,86l.3-.1.25.1.15.25.85,4.15L74,90h.3l.25.2v.45l-.7,1.8H69l-1-3a.42.42,0,0,1,0-.35v0a.3.3,0,0,1,.25-.15h.35l1.35.55,1-3.15L71.2,86"/><path class="cls-6" d="M87.5,82.75h.3l.25.2v.45l-.7,1.8H82.5l-1-3a.42.42,0,0,1,0-.35v0a.3.3,0,0,1,.25-.15h.35l1.35.55,1-3.15.15-.25.3-.1.25.1.15.25.85,4.15,1.25-.4"/><path class="cls-7" d="M104,98v0l.25-.15h.35l1.35.55,1-3.15a.3.3,0,0,1,.15-.25l.3-.1.25.1.15.25.85,4.15,1.25-.4h.3l.25.2v.45l-.7,1.8H104.9l-1-3a.42.42,0,0,1,0-.35"/><path class="cls-8" d="M77.1,119.3l.2.2,0,0v.35l-1.2,3.15,1.5.4.3.25,0,.3,0,.15-.15.15-1.6,1h-6l-1.45-3.15h0V122l0-.2,0-.1.25-.1,1.7-.35.35-3.5.1-.25.25-.15.25,0,.25.15,2,2.85,2.8-1h.35"/><path class="cls-9" d="M61.75,105.15l-1.2,3.15,1.5.4.3.25,0,.3,0,.15-.15.15-1.6,1h-6l-1.45-3.15h0v-.25l0-.2.05-.1.25-.1,1.7-.35.35-3.5.1-.25.25-.15.25,0a.3.3,0,0,1,.25.15l2,2.85,2.8-1h.35l.2.2,0,0v.35"/><path class="cls-10" d="M58.45,116.25a.3.3,0,0,1,.15-.25l.3-.1.25.1.15.25.85,4.15,1.25-.4h.3l.25.2v.45l-.7,1.8H56.4l-.95-3a.42.42,0,0,1,0-.35v0a.3.3,0,0,1,.25-.15h.35l1.35.55,1-3.15"/><path class="cls-11" d="M17.25,48.1l-1.2,3.15,1.5.4.3.25,0,.3,0,.15-.15.15-1.6,1h-6L8.65,50.4H8.6v-.25l.05-.2,0-.1.25-.1,1.7-.35L11,45.9l.1-.25.25-.15.25,0,.25.15,2,2.85,2.8-1H17l.2.2.05,0v.35"/><path class="cls-12" d="M48.35,33.65h.25l.25.15.1.25.4,3.5,1.65.3.25.15,0,.1.1.15,0,.25-.05,0L49.85,41.7h-6l-1.6-1.1-.1-.15-.1-.1.1-.35.25-.2L44,39.35l-1.25-3.1V35.9l0,0,.2-.2h.35l2.85,1,2-2.85.25-.15"/><path class="cls-13" d="M14.1,98.35l2,2.85,2.8-1h.35l.2.2.05.05v.35l-1.2,3.15,1.5.4.3.25,0,.3,0,.15-.15.15-1.6,1h-6l-1.45-3.15h-.05v-.25l.05-.2,0-.1.25-.1,1.7-.35.35-3.5.1-.25.25-.15.25,0,.25.15"/><path class="cls-14" d="M41.8,55l.25.2v.45l-.7,1.8H36.5l-1-3.05a.42.42,0,0,1,.05-.35v0l.25-.15h.35l1.35.55,1-3.15A.3.3,0,0,1,38.7,51l.3-.1.25.1.15.25.85,4.15L41.5,55h.3"/><path class="cls-15" d="M26.8,59.25l.15.25.85,4.15,1.25-.4h.3l.25.2v.45l-.7,1.8H24.05l-.95-3.05a.42.42,0,0,1,0-.35v0l.25-.15h.35l1.35.55,1-3.15.15-.25.3-.1.25.1"/><path class="cls-16" d="M43.85,112.9l.25,0a.3.3,0,0,1,.25.15l2,2.85,2.8-1h.35l.2.2,0,.05v.35l-1.2,3.15,1.5.4.3.25,0,.3,0,.15-.15.15-1.6,1h-6l-1.45-3.15h0v-.25l0-.2.05-.1.25-.1,1.7-.35.35-3.5.1-.25.25-.15"/><path class="cls-17" d="M111,36.85h0l-48-28A5.91,5.91,0,0,0,60,8a5.63,5.63,0,0,0-3,.85l-48,28A5.55,5.55,0,0,0,6.85,39,5.63,5.63,0,0,0,6,42V98.05a5.57,5.57,0,0,0,.85,3A5.9,5.9,0,0,0,9,103.2l48,28a6,6,0,0,0,3,.8,6.26,6.26,0,0,0,3-.8l48-28h0a6.35,6.35,0,0,0,2.2-2.2,5.89,5.89,0,0,0,.8-3V42a5.83,5.83,0,0,0-3-5.15M120,35v70L60,140,0,105V35L60,0l60,35"/><path class="cls-18" d="M77.6,56l-.4-.35a8.75,8.75,0,0,1-2.7-6.1v-1.4a76,76,0,0,1,2-19l.15-.6a24.11,24.11,0,0,1,2.45-6.35q1.95-3.3,4.55-3.05c1.73-.17,3.27.87,4.6,3.1a26.43,26.43,0,0,1,2.45,6.3l.15.5a79,79,0,0,1,2,19.1v1.4a8.83,8.83,0,0,1-2.65,6.1L90,56a10.43,10.43,0,0,1-1.85,1.3v.45a4.07,4.07,0,0,1-1.2,3l-.15.15a4.07,4.07,0,0,1-3,1.2h0a4.27,4.27,0,0,1-4.35-4.35v-.45L77.6,56M89.1,30.25l-.3-1.2-.5-1.75q-1.69-5.4-4-6.05l-.65-.1-.65.1q-2.25.64-3.9,6.05l-.55,1.75-.3,1.2-1.1,6L77,38.5l-.25,3.1-.2,4.85v3a6.89,6.89,0,0,0,2.1,4.75l1.3,1,1.45.7V57.7A2.24,2.24,0,0,0,82,59.35a2.3,2.3,0,0,0,1.7.7h0A2.39,2.39,0,0,0,86.1,57.7V56l1.55-.75,1.15-1a6.89,6.89,0,0,0,2.1-4.75v-3l-.2-4.85-.25-3.1-.25-2.25-1.1-6"/><path class="cls-19" d="M89.1,30.25l-.3.1-.2.1-.95.2-1.55.25-2.4.1-2.35-.1-1.45-.2-1.05-.25-.25-.1-.3-.1.3-1.2.55-1.75q1.65-5.4,3.9-6.05l.65-.1.65.1q2.25.64,4,6.05l.5,1.75.3,1.2m1.1,6,.25,2.25.25,3.1a4.25,4.25,0,0,1-1.9,1.95l-1.15.6-1.55.45-2.4.25-2.35-.25-1.45-.4-1.3-.65a4.25,4.25,0,0,1-1.9-1.95L77,38.5l.25-2.25.1,0,1.3.85,1.3.5,1.45.35,2.35.2,2.4-.2,1.55-.35,1.15-.5,1.35-.85,0,0m.7,10.9v2.3a6.89,6.89,0,0,1-2.1,4.75l-1.15,1L86.1,56l-2.4.35L81.35,56l-1.45-.7-1.3-1a6.89,6.89,0,0,1-2.1-4.75v-2.3a4.92,4.92,0,0,0,2.1,3.75l1.3.85,1.45.55,2.35.3,2.4-.3,1.55-.6,1.15-.8a4.92,4.92,0,0,0,2.1-3.75"/><path class="cls-20" d="M90.9,47.15a4.92,4.92,0,0,1-2.1,3.75l-1.15.8-1.55.6-2.4.3-2.35-.3-1.45-.55-1.3-.85a4.92,4.92,0,0,1-2.1-3.75v-.7l.2-4.85a4.25,4.25,0,0,0,1.9,1.95l1.3.65,1.45.4,2.35.25,2.4-.25,1.55-.45,1.15-.6a4.25,4.25,0,0,0,1.9-1.95l.2,4.85v.7m-1.8-16.9,1.1,6,0,0-1.35.85-1.15.5L86.1,38l-2.4.2L81.35,38l-1.45-.35-1.3-.5-1.3-.85-.1,0,1.1-6,.3.1.25.1,1.05.25,1.45.2,2.35.1,2.4-.1,1.55-.25.95-.2.2-.1.3-.1"/><path class="cls-21" d="M90,56l.7.3q2.8,1.5,2.8,3.6t-2.8,3.55a14.23,14.23,0,0,1-6.8,1.5,14.23,14.23,0,0,1-6.8-1.5q-2.8-1.45-2.8-3.55t2.8-3.6L77.6,56l1.75,1.25v.45a4.27,4.27,0,0,0,4.35,4.35h0a4.07,4.07,0,0,0,3-1.2l.15-.15a4.07,4.07,0,0,0,1.2-3v-.45A10.43,10.43,0,0,0,90,56"/><path class="cls-22" d="M86.1,56V57.7a2.39,2.39,0,0,1-2.35,2.35h0a2.3,2.3,0,0,1-1.7-.7,2.24,2.24,0,0,1-.65-1.65V56l2.35.35L86.1,56"/><path class="cls-23" d="M81.55,50l-29.3-13.8L34.15,57.4v.1l-1.85-.9.35-.5,18.1-21.25a1.87,1.87,0,0,1,1.1-.65l1.25.15,29.3,13.8.45.3L81.55,50"/><path class="cls-24" d="M81.55,50l1.3-1.5.4.45.3,1.05V66.1l-.45,1.3L65,88.8a2.11,2.11,0,0,1-1.1.65l-1.3-.15L59.75,88,56.1,89.9l-.9.2-.9-.2-8.2-4-.85-.75a2,2,0,0,1-.3-1V81L33.35,75.6l-.85-.75a1.89,1.89,0,0,1-.35-1.1V57.4a2,2,0,0,1,.15-.8l1.85.9V73.75l4,1.85,4,1.85L47,79.65v4.5l8.2,3.95,4.55-2.35,3.75,1.75,18.1-21.4V50"/><path class="cls-25" d="M81.55,50,63.45,71.2l3-22.05,15.15.8M47.7,63.9l12-10V69.4L53.6,61,47.7,63.9M58,72.75,59.7,76.3l-4.55,2.2L58,72.75"/><path class="cls-26" d="M81.55,50l-15.15-.8L49.85,41.3,34.15,57.4l18.1-21.25L81.55,50"/><path class="cls-27" d="M66.4,49.15l-3,22.05L59.7,69.4V53.85l-12,10L34.15,57.4l15.7-16.1L66.4,49.15M47,74.5l.75-3.9,1.8-1.75L58,72.75l-2.8,5.75-1.1-.5L47,74.5"/><path class="cls-28" d="M47,74.5v5.15l-4.85-2.2v-8.1l-4-2.1V75.6l-4-1.85V57.4L47.7,63.9,53.6,61l6.1,8.45,3.75,1.8V87.5L59.7,85.75V76.3L58,72.75l-8.45-3.9L47.7,70.6,47,74.5m8.2,13.6L47,84.15v-2.9l7.1,3.15,1.1.5v3.2"/><path class="cls-29" d="M55.15,88.1V84.9l4.55-2.15v3L55.15,88.1m8.3-16.9L81.55,50V66.1L63.45,87.5V71.2M42.1,77.45l-4-1.85V67.25l4,2.1v8.1"/><path class="cls-30" d="M59.7,76.3v6.45L55.15,84.9V78.5l4.55-2.2"/><path class="cls-31" d="M55.15,78.5v6.4l-1.1-.5V78l1.1.5"/><path class="cls-32" d="M47,81.25V74.5l7.1,3.5v6.4L47,81.25"/><path class="cls-18" d="M14.15,87.15a6,6,0,0,1-1.5-3.9v-.9a48.75,48.75,0,0,1,1.5-13q1.85-7.09,5.2-6.65,3.34-.5,5.3,6.65a52.21,52.21,0,0,1,1.4,13v.9a6.53,6.53,0,0,1-1.4,4l-.5.55h0l-1.15.9A3.21,3.21,0,0,1,22,91l-.15.15a3.51,3.51,0,0,1-2.4.95h0a3.38,3.38,0,0,1-2.5-1,3.48,3.48,0,0,1-1.05-2.45l-1.15-.9h0l-.55-.6m6.8.25a5.1,5.1,0,0,0,1.75-1.1l.2-.15a4.53,4.53,0,0,0,1.15-3v-.85a49.92,49.92,0,0,0-1.35-12.5q-1.39-5.14-3.35-5.15t-3.3,5.15a48.37,48.37,0,0,0-1.4,12.5v.85a4.3,4.3,0,0,0,1.25,3l.15.15a4.34,4.34,0,0,0,1.75,1.1v1.15a1.54,1.54,0,0,0,1.55,1.55h0a1.35,1.35,0,0,0,1.05-.45,1.44,1.44,0,0,0,.5-1.1V87.4"/><path class="cls-21" d="M24.65,87.2a3.36,3.36,0,0,1,1.5,2.7,3.72,3.72,0,0,1-2,3.1,8.34,8.34,0,0,1-4.75,1.3A8.57,8.57,0,0,1,14.6,93a3.72,3.72,0,0,1-1.95-3.1,3.48,3.48,0,0,1,1.5-2.75l.55.6h0l1.15.9a3.48,3.48,0,0,0,1.05,2.45,3.38,3.38,0,0,0,2.5,1h0a3.51,3.51,0,0,0,2.4-.95L22,91a3.21,3.21,0,0,0,1-2.35l1.15-.9h0l.5-.55"/><path class="cls-19" d="M17.8,87.4a4.34,4.34,0,0,1-1.75-1.1l-.15-.15a4.3,4.3,0,0,1-1.25-3v-.85a48.37,48.37,0,0,1,1.4-12.5q1.35-5.14,3.3-5.15t3.35,5.15a49.92,49.92,0,0,1,1.35,12.5v.85a4.53,4.53,0,0,1-1.15,3l-.2.15A5.1,5.1,0,0,1,21,87.4l-1.6.25L17.8,87.4"/><path class="cls-22" d="M17.8,87.4l1.55.25L21,87.4v1.15a1.44,1.44,0,0,1-.5,1.1,1.35,1.35,0,0,1-1.05.45h0a1.54,1.54,0,0,1-1.55-1.55V87.4"/><path class="cls-22" d="M32.45,104.5l-1.35-2.2,3.6-1,1.35,2.2-3.6,1m8.3,1.2-2.15-3.5,5.85-1.55,2.15,3.5-5.85,1.55m6.6-.6,5.25-1.4,1.9,3.15-5.25,1.4-1.9-3.15m-3.8-9.4,7.35-2,2.7,4.4-7.35,1.95-2.7-4.4M41.8,91.05l1.35,2.15-3.65,1L38.15,92l3.65-1m-9,8.65-2.3-3.8,6.35-1.7,2.3,3.8L32.8,99.7"/><path class="cls-33" d="M90.15,75.25l-.9.55-1.2,0-.85-.35-7.75,9.15V87.2l-.25,1-.25.3-1.8,2a2.24,2.24,0,0,1-1.1.6l-1.25-.15-2.65-1.3L71.3,89a2,2,0,0,1-.3-1V78.3A1.93,1.93,0,0,1,71.55,77l1.9-2.1a1.67,1.67,0,0,1,1.1-.6h.85l8.7-10v-1.4a1.89,1.89,0,0,1,.5-1.3l1.6-1.85a1.87,1.87,0,0,1,1-.65l1.2.1,2.6,1.05A1.72,1.72,0,0,1,92,61a1.89,1.89,0,0,1,.35,1.1V72l-.45,1.3L90.3,75.15l-.15.1m.15-13.2-2.6-1-1.6,1.85V65L75.9,76.7l-1-.5L73,78.3V88l2.65,1.3,1.8-2V83.8L88.2,71.1l-1.55,2,2.1.8L90.3,72v-10"/><path class="cls-22" d="M86.1,62.85,87.7,61l2.6,1-1.55,2.1-2.65-1.3M73,78.3l1.9-2.1,1,.5L86.1,65l2.65,1L77.45,79.35V77.5l-1.8,1.85L73,78.3"/><path class="cls-34" d="M90.3,62.05V72l-1.55,1.85v-3.4l-.55.65L77.45,83.8v3.4l-1.8,2v-9.9l1.8-1.85v1.85L88.75,66V64.15l1.55-2.1"/><path class="cls-35" d="M88.75,73.85l-2.1-.8,1.55-2,.55-.65v3.4m-13.1,15.4L73,88V78.3l2.65,1v9.9M86.1,65v-2.1l2.65,1.3V66L86.1,65"/><path class="cls-21" d="M90.15,75.25l-11,13,.25-1V84.55L87.2,75.4l.85.35,1.2,0,.9-.55"/></g></g></svg>