<svg xmlns="http://www.w3.org/2000/svg" xmlns:xlink="http://www.w3.org/1999/xlink" viewBox="0 0 120 140"><defs><style>.cls-1{fill:#27ae60;}.cls-2{fill:url(#linear-gradient);}.cls-3{fill:url(#linear-gradient-2);}.cls-4{fill:url(#linear-gradient-3);}.cls-5{fill:url(#linear-gradient-4);}.cls-6{fill:url(#linear-gradient-5);}.cls-7{fill:url(#linear-gradient-6);}.cls-8{fill:url(#linear-gradient-7);}.cls-9{fill:url(#linear-gradient-8);}.cls-10{fill:url(#linear-gradient-9);}.cls-11{fill:url(#linear-gradient-10);}.cls-12{fill:url(#linear-gradient-11);}.cls-13{fill:url(#linear-gradient-12);}.cls-14{fill:url(#linear-gradient-13);}.cls-15{fill:url(#linear-gradient-14);}.cls-16{fill:url(#linear-gradient-15);}.cls-17{fill:#115f32;}.cls-18{fill:#168344;}.cls-19{fill:#10773c;}.cls-20{fill:#1b914d;}.cls-21{fill:#178044;}.cls-22{fill:#775029;}.cls-23{fill:#936434;}.cls-24{fill:#aa9e85;}.cls-25{fill:#cbbd9e;}.cls-26{fill:#726a59;}.cls-27{fill:#bb8044;}.cls-28{fill:#ecdcb8;}</style><linearGradient id="linear-gradient" x1="-1729.2" y1="49.53" x2="-90.8" y2="49.53" gradientTransform="matrix(0, 0, 0, 0, 12.18, 45.18)" gradientUnits="userSpaceOnUse"><stop offset="0" stop-color="#27ae60"/><stop offset="1" stop-color="#30c26d"/></linearGradient><linearGradient id="linear-gradient-2" x1="-1729.2" y1="26.2" x2="-90.8" y2="26.2" gradientTransform="matrix(0, 0, 0, 0, 56.87, 22.58)" xlink:href="#linear-gradient"/><linearGradient id="linear-gradient-3" x1="-1729.2" y1="37.67" x2="-90.8" y2="37.67" gradientTransform="matrix(0, 0, 0, 0, 45.68, 33.21)" xlink:href="#linear-gradient"/><linearGradient id="linear-gradient-4" x1="-1729.2" y1="54.17" x2="-90.8" y2="54.17" gradientTransform="matrix(0, 0, 0, 0, 37.97, 50.53)" xlink:href="#linear-gradient"/><linearGradient id="linear-gradient-5" x1="-1729.2" y1="48.03" x2="-90.8" y2="48.03" gradientTransform="matrix(0, 0, 0, 0, 60.83, 43.68)" xlink:href="#linear-gradient"/><linearGradient id="linear-gradient-6" x1="-1729.2" y1="30.38" x2="-90.8" y2="30.38" gradientTransform="matrix(0, 0, 0, 0, 90.87, 26.73)" xlink:href="#linear-gradient"/><linearGradient id="linear-gradient-7" x1="-1729.2" y1="98.08" x2="-90.8" y2="98.08" gradientTransform="matrix(0, 0, 0, 0, 106.37, 94.43)" xlink:href="#linear-gradient"/><linearGradient id="linear-gradient-8" x1="-1729.2" y1="81.92" x2="-90.8" y2="81.92" gradientTransform="matrix(0, 0, 0, 0, 83.97, 78.28)" xlink:href="#linear-gradient"/><linearGradient id="linear-gradient-9" x1="-1729.2" y1="89.17" x2="-90.8" y2="89.17" gradientTransform="matrix(0, 0, 0, 0, 70.47, 85.53)" xlink:href="#linear-gradient"/><linearGradient id="linear-gradient-10" x1="-1729.2" y1="62.42" x2="-90.8" y2="62.42" gradientTransform="matrix(0, 0, 0, 0, 25.52, 58.78)" xlink:href="#linear-gradient"/><linearGradient id="linear-gradient-11" x1="-1729.2" y1="106.58" x2="-90.8" y2="106.58" gradientTransform="matrix(0, 0, 0, 0, 56.68, 102.23)" xlink:href="#linear-gradient"/><linearGradient id="linear-gradient-12" x1="-1729.2" y1="119.17" x2="-90.8" y2="119.17" gradientTransform="matrix(0, 0, 0, 0, 57.87, 115.53)" xlink:href="#linear-gradient"/><linearGradient id="linear-gradient-13" x1="-1729.2" y1="116.92" x2="-90.8" y2="116.92" gradientTransform="matrix(0, 0, 0, 0, 44.68, 112.58)" xlink:href="#linear-gradient"/><linearGradient id="linear-gradient-14" x1="-1729.2" y1="121.33" x2="-90.8" y2="121.33" gradientTransform="matrix(0, 0, 0, 0, 72.28, 116.98)" xlink:href="#linear-gradient"/><linearGradient id="linear-gradient-15" x1="-1729.2" y1="102.17" x2="-90.8" y2="102.17" gradientTransform="matrix(0, 0, 0, 0, 14.43, 97.83)" xlink:href="#linear-gradient"/></defs><title>Asset 127</title><g id="Layer_2" data-name="Layer 2"><g id="Layer_1-2" data-name="Layer 1"><path class="cls-1" d="M11.35,45.5l-.25.15-.1.25-.35,3.5L9,49.75l-.25.1,0,.1-.05.2v.25h.05l1.45,3.15h6l1.6-1,.15-.15,0-.15,0-.3-.3-.25-1.5-.4,1.2-3.15v-.35l-.05,0-.2-.2h-.35l-2.8,1-2-2.85-.25-.15-.25,0M55.05,27l-.3.05-.25.2v.45l.7,1.8h4.85l.9-3.1v-.35l-.25-.2h-.35L59,26.4l-1-3.15L57.85,23l-.3-.1-.3.15-.15.25-.8,4.1L55.05,27M42.7,36.25,44,39.35l-1.55.45-.25.2-.1.35.1.1.1.15,1.6,1.1h6l1.45-3.15.05,0,0-.25-.1-.15,0-.1L51,37.85l-1.65-.3-.4-3.5-.1-.25-.25-.15h-.25l-.25.15-2,2.85-2.85-1H43l-.2.2,0,0v.35M39.25,51,39,50.9l-.3.1-.15.25-1,3.15-1.35-.55h-.35L35.6,54v0l-.05.35,1,3.05h4.85l.7-1.8V55.2L41.8,55h-.3l-1.25.4-.85-4.15L39.25,51m20.5-6.85-.1.25-.35,3.5-1.7.35-.25.1-.05.1,0,.2v.25h0l1.45,3.15h6l1.6-1,.15-.15,0-.15,0-.3-.3-.25-1.5-.4,1.2-3.15v-.35l-.05,0-.2-.2H65.3l-2.8,1-2-2.85a.3.3,0,0,0-.25-.15L60,44l-.25.15M91.6,27.2a.3.3,0,0,0-.15.25l-1,3.15-1.35-.55h-.35l-.25.15v.05l0,.35,1,3h4.85l.7-1.8V31.4l-.25-.2h-.3l-1.25.4-.85-4.15-.15-.25-.25-.1-.3.1M120,35v70L60,140,0,105V35L60,0l60,35M107.1,94.9l-.15.25-1,3.15-1.35-.55h-.35a.3.3,0,0,0-.25.15v0a.42.42,0,0,0,0,.35l1,3h4.85l.7-1.8V99.1l-.25-.2h-.3l-1.25.4-.85-4.15-.15-.25-.25-.1-.3.1M85,78.65l-.3.1a.3.3,0,0,0-.15.25l-1,3.15L82.2,81.6h-.35l-.25.15v0a.42.42,0,0,0,0,.35l1,3h4.85l.7-1.8V83l-.25-.2h-.3l-1.25.4L85.4,79l-.15-.25-.25-.1M68.1,89.05l0,.35,1,3h4.85l.7-1.8V90.2L74.3,90H74l-1.25.4-.85-4.15L71.75,86l-.25-.1-.3.1a.3.3,0,0,0-.15.25l-1,3.15-1.35-.55h-.35L68.1,89v0M26.8,59.25l-.25-.1-.3.1-.15.25-1,3.15-1.35-.55H23.4a.3.3,0,0,0-.25.15v0a.42.42,0,0,0,0,.35l.95,3.05H28.9l.7-1.8v-.45l-.25-.2h-.3l-1.25.4L27,59.5l-.15-.25m35,45.9v-.35l0,0-.2-.2h-.35l-2.8,1-2-2.85a.3.3,0,0,0-.25-.15l-.25,0-.25.15-.1.25-.35,3.5-1.7.35-.25.1-.05.1,0,.2v.25h0l1.45,3.15h6l1.6-1,.15-.15,0-.15,0-.3-.3-.25-1.5-.4,1.2-3.15m-6,13.7-.25.15v0l0,.35.95,3h4.85l.7-1.8v-.45l-.25-.2h-.3l-1.25.4-.85-4.15-.15-.25-.25-.1-.3.1a.3.3,0,0,0-.15.25l-1,3.15-1.35-.55h-.35m-6-3.7,0-.05-.2-.2h-.35l-2.8,1-2-2.85a.3.3,0,0,0-.25-.15l-.25,0-.25.15-.1.25-.35,3.5-1.7.35-.25.1-.05.1,0,.2v.25h0L42.6,121h6l1.6-1,.15-.15,0-.15,0-.3-.3-.25-1.5-.4,1.2-3.15v-.35M72,117.5l-.25-.15-.25,0a.58.58,0,0,0-.25.15l-.1.25-.35,3.5-1.7.35-.25.1,0,.1,0,.2v.25h0l1.45,3.15h6l1.6-1,.15-.15,0-.15,0-.3-.3-.25-1.5-.4,1.2-3.15v-.35l0,0-.2-.2h-.35l-2.8,1-2-2.85M13.35,98.3l-.1.25-.35,3.5-1.7.35-.25.1,0,.1-.05.2v.25h.05l1.45,3.15h6l1.6-1,.15-.15,0-.15,0-.3-.3-.25-1.5-.4,1.2-3.15v-.35l-.05-.05-.2-.2H18.9l-2.8,1-2-2.85-.25-.15-.25,0-.25.15"/><path class="cls-2" d="M11.35,45.5l.25,0,.25.15,2,2.85,2.8-1H17l.2.2.05,0v.35l-1.2,3.15,1.5.4.3.25,0,.3,0,.15-.15.15-1.6,1h-6L8.65,50.4H8.6v-.25l.05-.2,0-.1.25-.1,1.7-.35L11,45.9l.1-.25.25-.15"/><path class="cls-3" d="M55.05,27l1.25.4.8-4.1.15-.25.3-.15.3.1.15.25,1,3.15,1.4-.55h.35l.25.2v.35l-.9,3.1H55.2l-.7-1.8v-.45l.25-.2.3-.05"/><path class="cls-4" d="M42.7,36.25V35.9l0,0,.2-.2h.35l2.85,1,2-2.85.25-.15h.25l.25.15.1.25.4,3.5,1.65.3.25.15,0,.1.1.15,0,.25-.05,0L49.85,41.7h-6l-1.6-1.1-.1-.15-.1-.1.1-.35.25-.2L44,39.35l-1.25-3.1"/><path class="cls-5" d="M39.25,51l.15.25.85,4.15L41.5,55h.3l.25.2v.45l-.7,1.8H36.5l-1-3.05.05-.35v0l.25-.15h.35l1.35.55,1-3.15L38.7,51l.3-.1.25.1"/><path class="cls-6" d="M59.75,44.15,60,44l.25,0a.3.3,0,0,1,.25.15l2,2.85,2.8-1h.35l.2.2.05,0v.35l-1.2,3.15,1.5.4.3.25,0,.3,0,.15-.15.15-1.6,1h-6L57.3,48.9h0v-.25l0-.2.05-.1.25-.1,1.7-.35.35-3.5.1-.25"/><path class="cls-7" d="M91.6,27.2l.3-.1.25.1.15.25.85,4.15,1.25-.4h.3l.25.2v.45l-.7,1.8H89.4l-1-3,0-.35V30.2l.25-.15h.35l1.35.55,1-3.15a.3.3,0,0,1,.15-.25"/><path class="cls-8" d="M107.1,94.9l.3-.1.25.1.15.25.85,4.15,1.25-.4h.3l.25.2v.45l-.7,1.8H104.9l-1-3a.42.42,0,0,1,0-.35v0a.3.3,0,0,1,.25-.15h.35l1.35.55,1-3.15.15-.25"/><path class="cls-9" d="M85,78.65l.25.1.15.25.85,4.15,1.25-.4h.3l.25.2v.45l-.7,1.8H82.5l-1-3a.42.42,0,0,1,0-.35v0l.25-.15h.35l1.35.55,1-3.15a.3.3,0,0,1,.15-.25l.3-.1"/><path class="cls-10" d="M68.1,89.05v0l.25-.15h.35l1.35.55,1-3.15A.3.3,0,0,1,71.2,86l.3-.1.25.1.15.25.85,4.15L74,90h.3l.25.2v.45l-.7,1.8H69l-1-3,0-.35"/><path class="cls-11" d="M26.8,59.25l.15.25.85,4.15,1.25-.4h.3l.25.2v.45l-.7,1.8H24.05l-.95-3.05a.42.42,0,0,1,0-.35v0a.3.3,0,0,1,.25-.15h.35l1.35.55,1-3.15.15-.25.3-.1.25.1"/><path class="cls-12" d="M61.75,105.15l-1.2,3.15,1.5.4.3.25,0,.3,0,.15-.15.15-1.6,1h-6l-1.45-3.15h0v-.25l0-.2.05-.1.25-.1,1.7-.35.35-3.5.1-.25.25-.15.25,0a.3.3,0,0,1,.25.15l2,2.85,2.8-1h.35l.2.2,0,0v.35"/><path class="cls-13" d="M55.75,118.85h.35l1.35.55,1-3.15a.3.3,0,0,1,.15-.25l.3-.1.25.1.15.25.85,4.15,1.25-.4h.3l.25.2v.45l-.7,1.8H56.4l-.95-3,0-.35v0l.25-.15"/><path class="cls-14" d="M49.75,115.15v.35l-1.2,3.15,1.5.4.3.25,0,.3,0,.15-.15.15-1.6,1h-6l-1.45-3.15h0v-.25l0-.2.05-.1.25-.1,1.7-.35.35-3.5.1-.25.25-.15.25,0a.3.3,0,0,1,.25.15l2,2.85,2.8-1h.35l.2.2,0,.05"/><path class="cls-15" d="M72,117.5l2,2.85,2.8-1h.35l.2.2,0,0v.35l-1.2,3.15,1.5.4.3.25,0,.3,0,.15-.15.15-1.6,1h-6l-1.45-3.15h0V122l0-.2,0-.1.25-.1,1.7-.35.35-3.5.1-.25a.58.58,0,0,1,.25-.15l.25,0,.25.15"/><path class="cls-16" d="M13.35,98.3l.25-.15.25,0,.25.15,2,2.85,2.8-1h.35l.2.2.05.05v.35l-1.2,3.15,1.5.4.3.25,0,.3,0,.15-.15.15-1.6,1h-6l-1.45-3.15h-.05v-.25l.05-.2,0-.1.25-.1,1.7-.35.35-3.5.1-.25"/><path class="cls-17" d="M25.1,32.65l1.5,0a2,2,0,0,1,1.15,1l9.1,19.75L37,54.45l-.4.95-.4.4L37.4,59a1.85,1.85,0,0,1,0,1.35l2.3,2.8a2,2,0,0,1,.45,1.15,2.07,2.07,0,0,1-.3,1.2l-1,.75-14.1,5.6-1.3.1a2,2,0,0,1-1.05-.8l-6.8-9.6a1.77,1.77,0,0,1-.4-1.15,2,2,0,0,1,.35-1.15l1.5-2.15L16,55.5a1.73,1.73,0,0,1-.4-1.25,1.92,1.92,0,0,1,.5-1.2l1.95-2.2-.2-.7a1.54,1.54,0,0,1,.1-.95l6.1-15.45a1.82,1.82,0,0,1,1.05-1.1m-4.3,18.6h-.05l-.2-.3.25.3m5.1-16.8L19.8,49.9,20.55,51l-2.95,3.4,1.95,2.75-2.3,3.3,6.8,9.6,1.5-.55-.05,0,12.65-5-3.6-4.35,1-.35-1.85-5-.4.15L35,54.2,25.9,34.45"/><path class="cls-18" d="M25.9,34.45,25.5,58l7.75-3.05.4-.15,1.85,5-1,.35-9.7,3.8L24.05,70l-6.8-9.6,2.3-3.3L24.5,64l.65-6.55V57.4L20.8,51.25l-.25-.3L19.8,49.9l6.1-15.45"/><path class="cls-19" d="M20.55,51l.2.3h.05l4.35,6.15v.05L24.5,64l-4.95-6.9L17.6,54.35,20.55,51"/><path class="cls-20" d="M25.9,34.45,35,54.2l-1.75.7L25.5,58l.4-23.5m8.65,25.6,3.6,4.35-12.65,5,.05,0-1.5.55.8-6.15,9.7-3.8"/><path class="cls-17" d="M29,68.15,29,68.5l1.15,1.3a2,2,0,0,1,.45,1.2,1.84,1.84,0,0,1-.35,1.25l-.55.8.8,1.15a2.06,2.06,0,0,1,0,2.3l-4.8,6.75a2,2,0,0,1-1,.75,2.05,2.05,0,0,1-1.25,0l-1-.35-.6-.3-8.35-3.3-1-.75a1.77,1.77,0,0,1-.35-1.2A2,2,0,0,1,12.55,77L14,75.2a1.87,1.87,0,0,1,.1-1l.7-1.85-.1-.1-.4-1a1.91,1.91,0,0,1,.2-1l6.4-13.9a1.81,1.81,0,0,1,1.1-1l1.5,0a1.82,1.82,0,0,1,1.05,1.1l4.3,10.85.15.9m-1.8,4.9,1.35-2L26.5,68.7l-.15.2H26.3l.2-.2L27,68,22.7,57.1,16.3,71l1.25.5-.3-.1L16,74.85l.65.25-2.5,3.1L23,81.7l-.05,0L24,82.1l4.8-6.75-1.6-2.3"/><path class="cls-18" d="M27.2,73.05,23.7,77.9l-.45-4.6v0L26.3,68.9h.05l.15-.2,2.05,2.4-1.35,2m-3.2,9L23,81.75l.05,0-8.9-3.5,2.5-3.1,6.85,2.7L24,82.1M17.55,71.5,16.3,71l6.4-13.9L23,73.65,17.55,71.5"/><path class="cls-20" d="M17.55,71.5,23,73.65,22.7,57.1,27,68l-.5.75-.2.2-3.05,4.35v0l.45,4.6,3.5-4.85,1.6,2.3L24,82.1l-.55-4.3L16.6,75.1,16,74.85l1.3-3.45.3.1"/><path class="cls-17" d="M22.75,82.8V78.6l.2-.85,21.2-44.5.55-.7a1.74,1.74,0,0,1,.75-.35l12.3-3.15,1.35.1,44.15,20.6.85.75.25.65-1.95.5v-.1L58.25,31,46,34.1,25,78.15l-2.2,4.65"/><path class="cls-21" d="M46,34.1,58.25,31l44.15,20.6L90.15,54.7,46,34.1M42.4,62.8l-2.1,4.1-3.5-1.65,2-4,3.65,1.6m9.8-6.35L48.6,63.4l-6-2.8,3.35-7,6.25,2.8M51.15,63.2l3.65,1.6-2.1,4.1-3.5-1.65,1.95-4"/><path class="cls-22" d="M104.35,51.15l.05.4V67.8a2,2,0,0,1-.45,1.3L99.85,74V70.8l2.55-3V51.65l1.95-.5M80.5,96.9l-1.3,1.55a2.11,2.11,0,0,1-1.1.65L76.8,99l-2.25-1V95.7l3.1,1.45L80.5,93.8v3.1m-19,5.7-1,1.3a2.11,2.11,0,0,1-1.1.65l-1.3-.1-3.85-1.8V100.4l4.7,2.2,2.6-3.1v3.1m-33.25-12-4.35-2-.8-.75a1.89,1.89,0,0,1-.35-1.1v-4L25,78.15l-.2.45v8.15c1.17.57,2.33,1.12,3.5,1.65v2.2"/><path class="cls-23" d="M102.4,51.55V67.8l-2.55,3V56.1L90.15,59,80.5,79.25V93.8l-2.85,3.35V80.9l12.5-26.2,12.25-3.15M67.45,76.2v4l-6,12v7.3l-2.6,3.1V94.45L67.45,76.2"/><path class="cls-24" d="M93.6,78.2l-.75.85V70.5l4-4.75v8.7L93.6,78.2"/><path class="cls-25" d="M96.8,74.45v-8.7l-4,4.75v8.55l.75-.85L80.5,93.8V79.25L90.15,59l9.7-2.9V70.8l-3,3.65M67.45,80.2V92.4l-6,7.1V92.2l6-12"/><path class="cls-26" d="M99.85,74,80.5,96.9V93.8L93.6,78.2l3.2-3.75,3-3.65V74M74.55,98,68,94.9l-6.5,7.7V99.5l6-7.1,7.1,3.3V98m-20.35,4.7L28.25,90.6V88.4l26,12v2.25"/><path class="cls-27" d="M74.55,95.7v-12l-7.1-3.5v-4l3.4,1.6,6.8,3.1V97.15l-3.1-1.45M54.2,100.4V95.3L28.25,83.45v5c-1.17-.53-2.33-1.08-3.5-1.65V78.6L58.9,94.45v8.15l-4.7-2.2"/><path class="cls-28" d="M54.2,100.4l-25.95-12v-5l26,11.85v5.1M67.45,80.2l7.1,3.5v12l-7.1-3.3V80.2"/><path class="cls-20" d="M25,78.15,46,34.1l44.2,20.6L77.65,80.9l-6.8-3.1-3.4-1.6L58.9,94.45,24.75,78.6l.2-.45m26.2-15-1.95,4,3.5,1.65,2.1-4.1-3.65-1.6m1.05-6.75L46,53.65l-3.35,7,6,2.8,3.6-6.95M42.4,62.8l-3.65-1.6-2,4,3.5,1.65,2.1-4.1"/><path class="cls-17" d="M84.35,80.4l1.5,0a1.82,1.82,0,0,1,1.05,1.1L91.2,92.4l.15.9,0,.35L92.45,95a2,2,0,0,1,.45,1.2l-.35,1.25-.55.8.8,1.15a2.06,2.06,0,0,1,0,2.3L88,108.4l-1,.75a2.05,2.05,0,0,1-1.25,0l-1-.35-.6-.3-8.35-3.3-1-.75a1.77,1.77,0,0,1-.35-1.2,2,2,0,0,1,.45-1.15l1.45-1.75a1.87,1.87,0,0,1,.1-1l.7-1.85-.1-.1-.4-.95a1.91,1.91,0,0,1,.2-1.05l6.4-13.9a1.81,1.81,0,0,1,1.1-1M79.9,96.65l-.3-.1L78.3,100l.65.25-2.5,3.1,8.9,3.5,0,.05,1,.35,4.8-6.75-1.6-2.3,1.35-2-2.05-2.4-.15.2h0l.2-.2.5-.75-4.3-10.85-6.4,13.9,1.25.5"/><path class="cls-20" d="M79.9,96.65l5.45,2.15-.3-16.55,4.3,10.85-.5.75-.2.2L85.6,98.4v0l.45,4.6,3.5-4.85,1.6,2.3-4.8,6.75L85.8,103,79,100.25,78.3,100l1.3-3.45.3.1"/><path class="cls-18" d="M79.9,96.65l-1.25-.5,6.4-13.9.3,16.55L79.9,96.65m-1,3.6L85.8,103l.55,4.3-1-.35,0-.05-8.9-3.5,2.5-3.1m10.6-2-3.5,4.85-.45-4.6v0l3.05-4.35h0l.15-.2,2.05,2.4-1.35,2"/></g></g></svg>