<svg xmlns="http://www.w3.org/2000/svg" viewBox="0 0 120 140"><defs><style>.cls-1{fill:#bb8044;}.cls-2{fill:#aa753e;}.cls-3{fill:#c68a4e;}.cls-4{fill:#5a6b6b;}.cls-5{fill:#a4afaf;}.cls-6{fill:#879393;}.cls-7{fill:#b5c2c2;}</style></defs><title>Asset 36</title><g id="Layer_2" data-name="Layer 2"><g id="Layer_1-2" data-name="Layer 1"><path class="cls-1" d="M11.75,54.3l.85,2.1,2-.95-.85-2.05-2,.9m44.1-26.7-.7-4.35L50.8,24l.7,4.35,4.35-.7M24.6,39.9l-3.75,2.8,2.75,3.75,3.85-2.8L24.6,39.9m10,5.2-3.25,2.6L34,51l3.2-2.6L34.6,45.1m.5,46.3-3.55,6.7,6.55,3.5L41.7,95,35.1,91.4M20.65,52.9l3,6.9,6.85-3-3.05-6.9-6.8,3m22.1,53.8,1.9,1,1.15-2-2-1-1,2M31.2,103.25,26.65,102l-1.2,4.55,4.5,1.2,1.25-4.45M27.4,96.4l1-4.05-4-.95-1,4,4,1M0,35,60,0l60,35v70L60,140,0,105V35M104.55,54.8l1.2,4.45,4.4-1.25L109,53.6l-4.4,1.2m-45-38.2-.85,7,7.15.8.8-7-7.1-.8M101.3,60l-3.2-.45-.4,3.15,3.15.4.45-3.1m2.9,1.5-.75,6.6,6.55.75.75-6.55-6.55-.8m4.8,30.4-4,1.85,1.75,4,4-1.85-1.75-4M97.2,106.3l7.1-1.1-1-7-7.1,1.1,1,7m-7-24.85,1.25-2.9-3-1.25-1.2,3,2.9,1.2M76.85,97.6,83,100l2.45-6.1L79.3,91.45,76.85,97.6M89.7,86l0,4.55H94.3V86H89.7"/><path class="cls-2" d="M89.7,86h4.6V90.5H89.75l0-4.55M11.75,54.3l2-.9.85,2.05-2,.95-.85-2.1M34.6,45.1l2.55,3.25L34,51l-2.6-3.25,3.25-2.6m-10-5.2,2.85,3.75-3.85,2.8L20.85,42.7l3.75-2.8m2.8,56.5-4-1,1-4,4,.95-1,4.05m3.8,6.85L30,107.7l-4.5-1.2,1.2-4.55,4.55,1.3m11.55,3.45,1-2,2,1-1.15,2-1.9-1M59.5,16.6l7.1.8-.8,7.05-7.15-.8.85-7m45.05,38.2,4.4-1.2,1.2,4.4-4.4,1.25-1.2-4.45m-.35,6.65,6.55.8L110,68.8l-6.55-.75.75-6.6m-7,44.85-1-7,7.1-1.1,1,7-7.1,1.1M76.85,97.6l2.45-6.15,6.15,2.45L83,100l-6.15-2.4"/><path class="cls-3" d="M55.85,27.6l-4.35.7L50.8,24l4.35-.7.7,4.35M20.65,52.9l6.8-3,3.05,6.9-6.85,3-3-6.9M35.1,91.4,41.7,95l-3.6,6.65-6.55-3.5,3.55-6.7M101.3,60l-.45,3.1-3.15-.4.4-3.15,3.2.45m7.7,31.9,1.75,4-4,1.85-1.75-4,4-1.85M90.15,81.45l-2.9-1.2,1.2-3,3,1.25-1.25,2.9"/><path class="cls-4" d="M52.85,18.05l.85-.2,10.6.3.9.25.7.6,2.25,3.2.35.9,1.55,11.1,3,4.25.35.85,4,25.8,0,.85-.4.75-9.2,10.85-.75.55-.85.15-17.2-.55-.85-.2-.7-.6L39.4,65.65a1.82,1.82,0,0,1-.35-1.45l2.45-18a1.69,1.69,0,0,1,.4-1l3.6-4.3,3.4-18,.45-.9,2.8-3.35.7-.55M71.45,39.6,68.15,35,66.5,23.35l-2.25-3.2-10.6-.3-2.8,3.35-3.5,18.55-3.9,4.7L41,64.45,49.1,75.7l17.2.55L75.5,65.4l-4-25.8M68.7,52.5l0-.1,0,.05-.1,0m.1-.15,0-.05v.05h0"/><path class="cls-5" d="M68.8,52.35l0,0,0,.1-3.5,4.15L50.4,56.2l-6.95-9.75,3.9-4.7,9.7,8.3,12.1,2-.2.2-.1.1,0,.05M50.85,23.2l2.8-3.35,10.6.3,2.25,3.2L68.15,35l3.3,4.6-3.4,4L57.6,42l.15-12.9-6.9-5.9"/><path class="cls-6" d="M71.45,39.6l4,25.8L66.3,76.25l-1.1-19.6,3.5-4.15.1,0,0-.1V52.3l.1-.1.2-.2v0l-1.1-8.35,3.4-4M49.1,75.7,41,64.45l2.45-18L50.4,56.2,49.1,75.7M47.35,41.75l3.5-18.55,6.9,5.9L57.6,42l-.55,8-9.7-8.3"/><path class="cls-7" d="M66.3,76.25,49.1,75.7l1.3-19.5,14.8.45,1.1,19.6M57.6,42l10.45,1.6L69.15,52v0l-12.1-2,.55-8"/><path class="cls-4" d="M84.1,57.8l.75.2L93,61.75l1,.9,4.75,9.1.2,1-.5,11.1L98,85l-.9.7-13.3,5.2L83,91l-.8-.2-12.7-6L68.65,84a1.86,1.86,0,0,1-.3-1.15l.6-11.1a2,2,0,0,1,.25-.8l4.55-8.75a1.66,1.66,0,0,1,1-1L83.3,58l.8-.15M83.05,89l13.3-5.2.5-11.1-4.75-9.1L84,59.8l-8.5,3.3L71,71.85,70.35,83l12.7,6"/><path class="cls-7" d="M83.05,89l.15-14.9,8.5-3.35,4.65,13L83.05,89"/><path class="cls-6" d="M96.35,83.75l-4.65-13,.4-7.15,4.75,9.1-.5,11.1M75.5,63.1l-.35,7.15L70.35,83l.6-11.1L75.5,63.1"/><path class="cls-5" d="M75.5,63.1,84,59.8l8.1,3.75-.4,7.15-8.5,3.35L83.05,89l-12.7-6,4.8-12.7.35-7.15"/><path class="cls-4" d="M37,95,34.35,80.35l-5.3-.1-6.25,1-5.95,2L16.3,89.9l9.15,8.6L37,95M22.5,79.35l6.25-1,.35,0,5.3.1a1.82,1.82,0,0,1,1.25.5,2,2,0,0,1,.7,1.15L39,94.65a2,2,0,0,1-.3,1.4l-1.1.9-11.55,3.5H25a2.5,2.5,0,0,1-.9-.5L15,91.35l-.5-.7-.15-.9.55-6.55a1.72,1.72,0,0,1,.45-1l.9-.7,5.95-2,.35-.05"/><path class="cls-5" d="M22.8,81.3l6.25-1,1.1,6-2.7.85-2,11.45L16.3,89.9l6.45-7.25.05-1.35"/><path class="cls-6" d="M16.3,89.9l.55-6.55,5.95-2-.05,1.35L16.3,89.9m12.75-9.65,5.3.1L37,95l-6.85-8.8-1.1-6"/><path class="cls-7" d="M37,95,25.45,98.5l2-11.45,2.7-.85L37,95"/></g></g></svg>